<?xml version="1.0" encoding="us-ascii" standalone="no"?><svg xmlns="http://www.w3.org/2000/svg" xmlns:xlink="http://www.w3.org/1999/xlink" contentStyleType="text/css" height="315px" preserveAspectRatio="none" style="width:2013px;height:315px;" version="1.1" viewBox="0 0 2013 315" width="2013px" zoomAndPan="magnify"><defs/><g><!--class edu.gatech.gtri.obm.translator.alloy--><a href="edu/gatech/gtri/obm/translator/alloy/package-summary.html" target="_top" title="edu/gatech/gtri/obm/translator/alloy/package-summary.html" xlink:actuate="onRequest" xlink:href="edu/gatech/gtri/obm/translator/alloy/package-summary.html" xlink:show="new" xlink:title="edu/gatech/gtri/obm/translator/alloy/package-summary.html" xlink:type="simple"><g id="elem_edu.gatech.gtri.obm.translator.alloy"><rect codeLine="28" fill="#F1F1F1" height="26.2969" id="edu.gatech.gtri.obm.translator.alloy" rx="2.5" ry="2.5" style="stroke:#181818;stroke-width:0.5;" width="249" x="678.5" y="7"/><text fill="#000000" font-family="sans-serif" font-size="14" lengthAdjust="spacing" textLength="243" x="681.5" y="24.9951">edu.gatech.gtri.obm.translator.alloy</text></g></a><!--class edu.mit.csail.sdg.ast--><g id="elem_edu.mit.csail.sdg.ast"><rect fill="#F1F1F1" height="26.2969" id="edu.mit.csail.sdg.ast" rx="2.5" ry="2.5" style="stroke:#181818;stroke-width:0.5;" width="147" x="1435.5" y="265"/><text fill="#000000" font-family="sans-serif" font-size="14" lengthAdjust="spacing" textLength="141" x="1438.5" y="282.9951">edu.mit.csail.sdg.ast</text></g><!--class edu.mit.csail.sdg.parser--><g id="elem_edu.mit.csail.sdg.parser"><rect fill="#F1F1F1" height="26.2969" id="edu.mit.csail.sdg.parser" rx="2.5" ry="2.5" style="stroke:#181818;stroke-width:0.5;" width="170" x="7" y="93"/><text fill="#000000" font-family="sans-serif" font-size="14" lengthAdjust="spacing" textLength="164" x="10" y="110.9951">edu.mit.csail.sdg.parser</text></g><!--class edu.mit.csail.sdg.alloy4viz--><g id="elem_edu.mit.csail.sdg.alloy4viz"><rect fill="#F1F1F1" height="26.2969" id="edu.mit.csail.sdg.alloy4viz" rx="2.5" ry="2.5" style="stroke:#181818;stroke-width:0.5;" width="183" x="212.5" y="93"/><text fill="#000000" font-family="sans-serif" font-size="14" lengthAdjust="spacing" textLength="177" x="215.5" y="110.9951">edu.mit.csail.sdg.alloy4viz</text></g><!--class edu.mit.csail.sdg.translator--><g id="elem_edu.mit.csail.sdg.translator"><rect fill="#F1F1F1" height="26.2969" id="edu.mit.csail.sdg.translator" rx="2.5" ry="2.5" style="stroke:#181818;stroke-width:0.5;" width="191" x="430.5" y="93"/><text fill="#000000" font-family="sans-serif" font-size="14" lengthAdjust="spacing" textLength="185" x="433.5" y="110.9951">edu.mit.csail.sdg.translator</text></g><!--class edu.mit.csail.sdg.alloy4--><g id="elem_edu.mit.csail.sdg.alloy4"><rect fill="#F1F1F1" height="26.2969" id="edu.mit.csail.sdg.alloy4" rx="2.5" ry="2.5" style="stroke:#181818;stroke-width:0.5;" width="165" x="1034.5" y="265"/><text fill="#000000" font-family="sans-serif" font-size="14" lengthAdjust="spacing" textLength="159" x="1037.5" y="282.9951">edu.mit.csail.sdg.alloy4</text></g><!--class edu.mit.csail.sdg.sim--><g id="elem_edu.mit.csail.sdg.sim"><rect fill="#F1F1F1" height="26.2969" id="edu.mit.csail.sdg.sim" rx="2.5" ry="2.5" style="stroke:#181818;stroke-width:0.5;" width="150" x="728" y="93"/><text fill="#000000" font-family="sans-serif" font-size="14" lengthAdjust="spacing" textLength="144" x="731" y="110.9951">edu.mit.csail.sdg.sim</text></g><!--class edu.gatech.gtri.obm.translator.alloy.fromxmi--><a href="edu/gatech/gtri/obm/translator/alloy/fromxmi/package-summary.html" target="_top" title="edu/gatech/gtri/obm/translator/alloy/fromxmi/package-summary.html" xlink:actuate="onRequest" xlink:href="edu/gatech/gtri/obm/translator/alloy/fromxmi/package-summary.html" xlink:show="new" xlink:title="edu/gatech/gtri/obm/translator/alloy/fromxmi/package-summary.html" xlink:type="simple"><g id="elem_edu.gatech.gtri.obm.translator.alloy.fromxmi"><rect codeLine="30" fill="#F1F1F1" height="26.2969" id="edu.gatech.gtri.obm.translator.alloy.fromxmi" rx="2.5" ry="2.5" style="stroke:#181818;stroke-width:0.5;" width="307" x="983.5" y="93"/><text fill="#000000" font-family="sans-serif" font-size="14" lengthAdjust="spacing" textLength="301" x="986.5" y="110.9951">edu.gatech.gtri.obm.translator.alloy.fromxmi</text></g></a><!--class org.eclipse.uml2.uml--><g id="elem_org.eclipse.uml2.uml"><rect fill="#F1F1F1" height="26.2969" id="org.eclipse.uml2.uml" rx="2.5" ry="2.5" style="stroke:#181818;stroke-width:0.5;" width="149" x="727.5" y="179"/><text fill="#000000" font-family="sans-serif" font-size="14" lengthAdjust="spacing" textLength="143" x="730.5" y="196.9951">org.eclipse.uml2.uml</text></g><!--class edu.umd.omgutil.sysml.sysml1--><g id="elem_edu.umd.omgutil.sysml.sysml1"><rect fill="#F1F1F1" height="26.2969" id="edu.umd.omgutil.sysml.sysml1" rx="2.5" ry="2.5" style="stroke:#181818;stroke-width:0.5;" width="218" x="1562" y="179"/><text fill="#000000" font-family="sans-serif" font-size="14" lengthAdjust="spacing" textLength="212" x="1565" y="196.9951">edu.umd.omgutil.sysml.sysml1</text></g><!--class edu.umd.omgutil--><g id="elem_edu.umd.omgutil"><rect fill="#F1F1F1" height="26.2969" id="edu.umd.omgutil" rx="2.5" ry="2.5" style="stroke:#181818;stroke-width:0.5;" width="123" x="1815.5" y="179"/><text fill="#000000" font-family="sans-serif" font-size="14" lengthAdjust="spacing" textLength="117" x="1818.5" y="196.9951">edu.umd.omgutil</text></g><!--class edu.umd.omgutil.uml--><g id="elem_edu.umd.omgutil.uml"><rect fill="#F1F1F1" height="26.2969" id="edu.umd.omgutil.uml" rx="2.5" ry="2.5" style="stroke:#181818;stroke-width:0.5;" width="152" x="912" y="179"/><text fill="#000000" font-family="sans-serif" font-size="14" lengthAdjust="spacing" textLength="146" x="915" y="196.9951">edu.umd.omgutil.uml</text></g><!--class edu.gatech.gtri.obm.translator.alloy.tofile--><a href="edu/gatech/gtri/obm/translator/alloy/tofile/package-summary.html" target="_top" title="edu/gatech/gtri/obm/translator/alloy/tofile/package-summary.html" xlink:actuate="onRequest" xlink:href="edu/gatech/gtri/obm/translator/alloy/tofile/package-summary.html" xlink:show="new" xlink:title="edu/gatech/gtri/obm/translator/alloy/tofile/package-summary.html" xlink:type="simple"><g id="elem_edu.gatech.gtri.obm.translator.alloy.tofile"><rect codeLine="32" fill="#F1F1F1" height="26.2969" id="edu.gatech.gtri.obm.translator.alloy.tofile" rx="2.5" ry="2.5" style="stroke:#181818;stroke-width:0.5;" width="286" x="1170" y="179"/><text fill="#000000" font-family="sans-serif" font-size="14" lengthAdjust="spacing" textLength="280" x="1173" y="196.9951">edu.gatech.gtri.obm.translator.alloy.tofile</text></g></a><!--class edu.gatech.gtri.obm.translator.alloy.userinterface--><a href="edu/gatech/gtri/obm/translator/alloy/userinterface/package-summary.html" target="_top" title="edu/gatech/gtri/obm/translator/alloy/userinterface/package-summary.html" xlink:actuate="onRequest" xlink:href="edu/gatech/gtri/obm/translator/alloy/userinterface/package-summary.html" xlink:show="new" xlink:title="edu/gatech/gtri/obm/translator/alloy/userinterface/package-summary.html" xlink:type="simple"><g id="elem_edu.gatech.gtri.obm.translator.alloy.userinterface"><rect codeLine="34" fill="#F1F1F1" height="26.2969" id="edu.gatech.gtri.obm.translator.alloy.userinterface" rx="2.5" ry="2.5" style="stroke:#181818;stroke-width:0.5;" width="344" x="1595" y="93"/><text fill="#000000" font-family="sans-serif" font-size="14" lengthAdjust="spacing" textLength="338" x="1598" y="110.9951">edu.gatech.gtri.obm.translator.alloy.userinterface</text></g></a><!--link edu.gatech.gtri.obm.translator.alloy to edu.mit.csail.sdg.ast--><g id="link_edu.gatech.gtri.obm.translator.alloy_edu.mit.csail.sdg.ast"><path codeLine="7" d="M927.77,24.24 C1219.09,32.43 1922.18,55.93 1957,93 C1972.85,109.86 2006.95,145.89 1956,205 C1908.59,260 1702.8079,272.9504 1588.5879,275.9904 " fill="none" id="edu.gatech.gtri.obm.translator.alloy-to-edu.mit.csail.sdg.ast" style="stroke:#181818;stroke-width:1.0;"/><polygon fill="#181818" points="1582.59,276.15,1591.6932,279.9091,1587.5882,276.017,1591.4804,271.912,1582.59,276.15" style="stroke:#181818;stroke-width:1.0;"/></g><!--link edu.gatech.gtri.obm.translator.alloy to edu.mit.csail.sdg.parser--><g id="link_edu.gatech.gtri.obm.translator.alloy_edu.mit.csail.sdg.parser"><path codeLine="8" d="M701.13,33.04 C560.31,49.67 314.6486,78.696 183.2086,94.226 " fill="none" id="edu.gatech.gtri.obm.translator.alloy-to-edu.mit.csail.sdg.parser" style="stroke:#181818;stroke-width:1.0;"/><polygon fill="#181818" points="177.25,94.93,186.6572,97.8463,182.2155,94.3433,185.7185,89.9016,177.25,94.93" style="stroke:#181818;stroke-width:1.0;"/></g><!--link edu.gatech.gtri.obm.translator.alloy to edu.mit.csail.sdg.alloy4viz--><g id="link_edu.gatech.gtri.obm.translator.alloy_edu.mit.csail.sdg.alloy4viz"><path codeLine="9" d="M731.51,33.04 C636.65,49 476.0667,76.0338 381.2767,91.9938 " fill="none" id="edu.gatech.gtri.obm.translator.alloy-to-edu.mit.csail.sdg.alloy4viz" style="stroke:#181818;stroke-width:1.0;"/><polygon fill="#181818" points="375.36,92.99,384.8992,95.4402,380.2906,92.1598,383.5709,87.5512,375.36,92.99" style="stroke:#181818;stroke-width:1.0;"/></g><!--link edu.gatech.gtri.obm.translator.alloy to edu.mit.csail.sdg.translator--><g id="link_edu.gatech.gtri.obm.translator.alloy_edu.mit.csail.sdg.translator"><path codeLine="10" d="M763.31,33.04 C710.65,49 623.9717,75.2885 571.3517,91.2485 " fill="none" id="edu.gatech.gtri.obm.translator.alloy-to-edu.mit.csail.sdg.translator" style="stroke:#181818;stroke-width:1.0;"/><polygon fill="#181818" points="565.61,92.99,575.3836,94.2056,570.3948,91.5388,573.0616,86.5499,565.61,92.99" style="stroke:#181818;stroke-width:1.0;"/></g><!--link edu.gatech.gtri.obm.translator.alloy to edu.mit.csail.sdg.alloy4--><g id="link_edu.gatech.gtri.obm.translator.alloy_edu.mit.csail.sdg.alloy4"><path codeLine="11" d="M776.98,33.08 C754.93,44.9 724.75,65.18 711,93 C688.94,137.62 678.01,166.86 710,205 C750.58,253.38 921.7371,268.9775 1028.4971,274.1875 " fill="none" id="edu.gatech.gtri.obm.translator.alloy-to-edu.mit.csail.sdg.alloy4" style="stroke:#181818;stroke-width:1.0;"/><polygon fill="#181818" points="1034.49,274.48,1025.6957,270.0461,1029.4959,274.2363,1025.3057,278.0366,1034.49,274.48" style="stroke:#181818;stroke-width:1.0;"/></g><!--link edu.gatech.gtri.obm.translator.alloy to edu.mit.csail.sdg.sim--><g id="link_edu.gatech.gtri.obm.translator.alloy_edu.mit.csail.sdg.sim"><path codeLine="12" d="M803,33.04 C803,49 803,71.03 803,86.99 " fill="none" id="edu.gatech.gtri.obm.translator.alloy-to-edu.mit.csail.sdg.sim" style="stroke:#181818;stroke-width:1.0;"/><polygon fill="#181818" points="803,92.99,807,83.99,803,87.99,799,83.99,803,92.99" style="stroke:#181818;stroke-width:1.0;"/></g><!--link edu.gatech.gtri.obm.translator.alloy to edu.gatech.gtri.obm.translator.alloy.fromxmi--><g id="link_edu.gatech.gtri.obm.translator.alloy_edu.gatech.gtri.obm.translator.alloy.fromxmi"><path codeLine="13" d="M841.6,33.04 C900.43,49 1006.0282,75.6611 1074.1382,91.6211 " fill="none" id="edu.gatech.gtri.obm.translator.alloy-to-edu.gatech.gtri.obm.translator.alloy.fromxmi" style="stroke:#181818;stroke-width:1.0;"/><polygon fill="#181818" points="1079.98,92.99,1072.1299,87.0422,1075.1119,91.8493,1070.3048,94.8312,1079.98,92.99" style="stroke:#181818;stroke-width:1.0;"/></g><!--link edu.gatech.gtri.obm.translator.alloy.fromxmi to edu.gatech.gtri.obm.translator.alloy--><g id="link_edu.gatech.gtri.obm.translator.alloy.fromxmi_edu.gatech.gtri.obm.translator.alloy"><path codeLine="21" d="M1099.03,92.99 C1040.52,77.03 934.9231,50.363 866.5031,34.403 " fill="none" id="edu.gatech.gtri.obm.translator.alloy.fromxmi-to-edu.gatech.gtri.obm.translator.alloy" style="stroke:#181818;stroke-width:1.0;"/><polygon fill="#181818" points="860.66,33.04,868.516,38.9799,865.5293,34.1758,870.3334,31.1891,860.66,33.04" style="stroke:#181818;stroke-width:1.0;"/></g><!--link edu.gatech.gtri.obm.translator.alloy to org.eclipse.uml2.uml--><g id="link_edu.gatech.gtri.obm.translator.alloy_org.eclipse.uml2.uml"><path codeLine="14" d="M830.21,33.03 C863.75,49.73 914.22,82.09 896,119 C882.17,147.02 856.9419,164.3792 834.4119,176.1092 " fill="none" id="edu.gatech.gtri.obm.translator.alloy-to-org.eclipse.uml2.uml" style="stroke:#181818;stroke-width:1.0;"/><polygon fill="#181818" points="829.09,178.88,838.9201,178.2717,833.5249,176.571,835.2257,171.1759,829.09,178.88" style="stroke:#181818;stroke-width:1.0;"/></g><!--link edu.gatech.gtri.obm.translator.alloy.fromxmi to edu.mit.csail.sdg.ast--><g id="link_edu.gatech.gtri.obm.translator.alloy.fromxmi_edu.mit.csail.sdg.ast"><path codeLine="15" d="M1248.11,119 C1332.9,130.26 1440.63,149.79 1474,179 C1499.69,201.49 1505.9972,238.2128 1507.8172,259.0228 " fill="none" id="edu.gatech.gtri.obm.translator.alloy.fromxmi-to-edu.mit.csail.sdg.ast" style="stroke:#181818;stroke-width:1.0;"/><polygon fill="#181818" points="1508.34,265,1511.5407,255.6857,1507.9044,260.019,1503.5711,256.3827,1508.34,265" style="stroke:#181818;stroke-width:1.0;"/></g><!--link edu.gatech.gtri.obm.translator.alloy.fromxmi to edu.mit.csail.sdg.alloy4--><g id="link_edu.gatech.gtri.obm.translator.alloy.fromxmi_edu.mit.csail.sdg.alloy4"><path codeLine="16" d="M1135.56,119.23 C1131.87,150.59 1122.8001,227.681 1119.1301,258.921 " fill="none" id="edu.gatech.gtri.obm.translator.alloy.fromxmi-to-edu.mit.csail.sdg.alloy4" style="stroke:#181818;stroke-width:1.0;"/><polygon fill="#181818" points="1118.43,264.88,1123.4528,256.4082,1119.0134,259.9141,1115.5074,255.4748,1118.43,264.88" style="stroke:#181818;stroke-width:1.0;"/></g><!--link edu.gatech.gtri.obm.translator.alloy.fromxmi to edu.umd.omgutil.sysml.sysml1--><g id="link_edu.gatech.gtri.obm.translator.alloy.fromxmi_edu.umd.omgutil.sysml.sysml1"><path codeLine="17" d="M1213.51,119.04 C1315.02,135 1487.2629,162.0975 1588.7029,178.0575 " fill="none" id="edu.gatech.gtri.obm.translator.alloy.fromxmi-to-edu.umd.omgutil.sysml.sysml1" style="stroke:#181818;stroke-width:1.0;"/><polygon fill="#181818" points="1594.63,178.99,1586.3611,173.6398,1589.6908,178.2129,1585.1177,181.5426,1594.63,178.99" style="stroke:#181818;stroke-width:1.0;"/></g><!--link edu.gatech.gtri.obm.translator.alloy.fromxmi to edu.umd.omgutil--><g id="link_edu.gatech.gtri.obm.translator.alloy.fromxmi_edu.umd.omgutil"><path codeLine="18" d="M1261.76,119 C1394.79,132.17 1611.56,154.7 1798,179 C1803.64,179.74 1803.5607,179.6886 1809.4207,180.5286 " fill="none" id="edu.gatech.gtri.obm.translator.alloy.fromxmi-to-edu.umd.omgutil" style="stroke:#181818;stroke-width:1.0;"/><polygon fill="#181818" points="1815.36,181.38,1807.0186,176.1434,1810.4106,180.6705,1805.8835,184.0625,1815.36,181.38" style="stroke:#181818;stroke-width:1.0;"/></g><!--link edu.gatech.gtri.obm.translator.alloy.fromxmi to org.eclipse.uml2.uml--><g id="link_edu.gatech.gtri.obm.translator.alloy.fromxmi_org.eclipse.uml2.uml"><path codeLine="19" d="M1089,119.04 C1025.32,135 919.3698,161.5705 855.7298,177.5305 " fill="none" id="edu.gatech.gtri.obm.translator.alloy.fromxmi-to-org.eclipse.uml2.uml" style="stroke:#181818;stroke-width:1.0;"/><polygon fill="#181818" points="849.91,178.99,859.6127,180.6806,854.7598,177.7737,857.6667,172.9209,849.91,178.99" style="stroke:#181818;stroke-width:1.0;"/></g><!--link edu.gatech.gtri.obm.translator.alloy.fromxmi to edu.umd.omgutil.uml--><g id="link_edu.gatech.gtri.obm.translator.alloy.fromxmi_edu.umd.omgutil.uml"><path codeLine="20" d="M1115.65,119.04 C1087.33,135 1042.8362,160.0826 1014.5362,176.0426 " fill="none" id="edu.gatech.gtri.obm.translator.alloy.fromxmi-to-edu.umd.omgutil.uml" style="stroke:#181818;stroke-width:1.0;"/><polygon fill="#181818" points="1009.31,178.99,1019.1142,178.0531,1013.6652,176.5339,1015.1844,171.0848,1009.31,178.99" style="stroke:#181818;stroke-width:1.0;"/></g><!--link edu.gatech.gtri.obm.translator.alloy.fromxmi to edu.gatech.gtri.obm.translator.alloy.tofile--><g id="link_edu.gatech.gtri.obm.translator.alloy.fromxmi_edu.gatech.gtri.obm.translator.alloy.tofile"><path codeLine="22" d="M1162.22,119.04 C1195.67,135 1248.9854,160.445 1282.4154,176.405 " fill="none" id="edu.gatech.gtri.obm.translator.alloy.fromxmi-to-edu.gatech.gtri.obm.translator.alloy.tofile" style="stroke:#181818;stroke-width:1.0;"/><polygon fill="#181818" points="1287.83,178.99,1281.4315,171.5028,1283.3178,176.8358,1277.9848,178.7222,1287.83,178.99" style="stroke:#181818;stroke-width:1.0;"/></g><!--link edu.gatech.gtri.obm.translator.alloy.tofile to edu.mit.csail.sdg.ast--><g id="link_edu.gatech.gtri.obm.translator.alloy.tofile_edu.mit.csail.sdg.ast"><path codeLine="23" d="M1341.08,205.04 C1378.34,221 1438.2254,246.6659 1475.4554,262.6259 " fill="none" id="edu.gatech.gtri.obm.translator.alloy.tofile-to-edu.mit.csail.sdg.ast" style="stroke:#181818;stroke-width:1.0;"/><polygon fill="#181818" points="1480.97,264.99,1474.2741,257.7675,1476.3745,263.02,1471.122,265.1203,1480.97,264.99" style="stroke:#181818;stroke-width:1.0;"/></g><!--link edu.gatech.gtri.obm.translator.alloy.tofile to edu.mit.csail.sdg.alloy4--><g id="link_edu.gatech.gtri.obm.translator.alloy.tofile_edu.mit.csail.sdg.alloy4"><path codeLine="24" d="M1284.92,205.04 C1247.66,221 1187.7746,246.6659 1150.5446,262.6259 " fill="none" id="edu.gatech.gtri.obm.translator.alloy.tofile-to-edu.mit.csail.sdg.alloy4" style="stroke:#181818;stroke-width:1.0;"/><polygon fill="#181818" points="1145.03,264.99,1154.878,265.1203,1149.6255,263.02,1151.7259,257.7675,1145.03,264.99" style="stroke:#181818;stroke-width:1.0;"/></g><!--link edu.gatech.gtri.obm.translator.alloy.userinterface to edu.umd.omgutil--><g id="link_edu.gatech.gtri.obm.translator.alloy.userinterface_edu.umd.omgutil"><path codeLine="25" d="M1782.76,119.04 C1803.67,135 1835.6014,159.3885 1856.5014,175.3485 " fill="none" id="edu.gatech.gtri.obm.translator.alloy.userinterface-to-edu.umd.omgutil" style="stroke:#181818;stroke-width:1.0;"/><polygon fill="#181818" points="1861.27,178.99,1856.5447,170.3487,1857.2962,175.9554,1851.6894,176.7068,1861.27,178.99" style="stroke:#181818;stroke-width:1.0;"/></g><text fill="#888888" font-family="sans-serif" font-size="10" lengthAdjust="spacing" textLength="186" x="906.975" y="305.5791">UMLDoclet 2.1.1, PlantUML 1.2023.12</text><!--SRC=[jPRVIyCm4CVV_IkEWQZWhcpux9EF2WFnQUmXIwzjM7wK91rMyNytQJUsgRZMrfUKNhxvt3V9SIq0WDi8NJBB5AmPt-JML3hbHXeBtZBjmXHfVm5HIHuqKnHYd9ufBl91fescPhuGAG4NbikZTrAbho4J95FtDQh85oQ4cpYb5URC4oymzrQWMIji7CYO1PcKfeRfzBuHAk6HEoOakZH7vlnGHDYC8plOI9oxsugteQ23R1nBGobEgFw8SqBCh56lIlGZ6viZSIbAHrWfEOz3Py8-vGY5T0xLxzo_qIgLeb5vvIElTcetpaOX_WqoxiaVRt0GwDo2_oEZDvdODRiU-Z6AxtTIpzghGkiJsfFDGcF_iLuQrXKimXU2vGHIw4tRpRbapi6aIve9B9T1bxIw9EgIe4iEkgJH9MMRPUegfPYjiV1AhbRmtYJyw9jsVwkTq-_qOzjeRwopYrO-jecJc-xivMHL9qiKrP0P4nylJuyF9lmKU9ZZ36Uti91C-n25oorP9uo-lla4]--></g></svg>