<?xml version="1.0" encoding="us-ascii" standalone="no"?><svg xmlns="http://www.w3.org/2000/svg" xmlns:xlink="http://www.w3.org/1999/xlink" contentStyleType="text/css" height="315px" preserveAspectRatio="none" style="width:2008px;height:315px;" version="1.1" viewBox="0 0 2008 315" width="2008px" zoomAndPan="magnify"><defs/><g><!--class edu.gatech.gtri.obm.translator.alloy--><a href="edu/gatech/gtri/obm/translator/alloy/package-summary.html" target="_top" title="edu/gatech/gtri/obm/translator/alloy/package-summary.html" xlink:actuate="onRequest" xlink:href="edu/gatech/gtri/obm/translator/alloy/package-summary.html" xlink:show="new" xlink:title="edu/gatech/gtri/obm/translator/alloy/package-summary.html" xlink:type="simple"><g id="elem_edu.gatech.gtri.obm.translator.alloy"><rect codeLine="28" fill="#F1F1F1" height="26.2969" id="edu.gatech.gtri.obm.translator.alloy" rx="2.5" ry="2.5" style="stroke:#181818;stroke-width:0.5;" width="249" x="678.5" y="7"/><text fill="#000000" font-family="sans-serif" font-size="14" lengthAdjust="spacing" textLength="243" x="681.5" y="24.9951">edu.gatech.gtri.obm.translator.alloy</text></g></a><!--class edu.mit.csail.sdg.ast--><g id="elem_edu.mit.csail.sdg.ast"><rect fill="#F1F1F1" height="26.2969" id="edu.mit.csail.sdg.ast" rx="2.5" ry="2.5" style="stroke:#181818;stroke-width:0.5;" width="147" x="1688.5" y="265"/><text fill="#000000" font-family="sans-serif" font-size="14" lengthAdjust="spacing" textLength="141" x="1691.5" y="282.9951">edu.mit.csail.sdg.ast</text></g><!--class edu.mit.csail.sdg.parser--><g id="elem_edu.mit.csail.sdg.parser"><rect fill="#F1F1F1" height="26.2969" id="edu.mit.csail.sdg.parser" rx="2.5" ry="2.5" style="stroke:#181818;stroke-width:0.5;" width="170" x="7" y="93"/><text fill="#000000" font-family="sans-serif" font-size="14" lengthAdjust="spacing" textLength="164" x="10" y="110.9951">edu.mit.csail.sdg.parser</text></g><!--class edu.mit.csail.sdg.alloy4viz--><g id="elem_edu.mit.csail.sdg.alloy4viz"><rect fill="#F1F1F1" height="26.2969" id="edu.mit.csail.sdg.alloy4viz" rx="2.5" ry="2.5" style="stroke:#181818;stroke-width:0.5;" width="183" x="212.5" y="93"/><text fill="#000000" font-family="sans-serif" font-size="14" lengthAdjust="spacing" textLength="177" x="215.5" y="110.9951">edu.mit.csail.sdg.alloy4viz</text></g><!--class edu.mit.csail.sdg.translator--><g id="elem_edu.mit.csail.sdg.translator"><rect fill="#F1F1F1" height="26.2969" id="edu.mit.csail.sdg.translator" rx="2.5" ry="2.5" style="stroke:#181818;stroke-width:0.5;" width="191" x="430.5" y="93"/><text fill="#000000" font-family="sans-serif" font-size="14" lengthAdjust="spacing" textLength="185" x="433.5" y="110.9951">edu.mit.csail.sdg.translator</text></g><!--class edu.mit.csail.sdg.alloy4--><g id="elem_edu.mit.csail.sdg.alloy4"><rect fill="#F1F1F1" height="26.2969" id="edu.mit.csail.sdg.alloy4" rx="2.5" ry="2.5" style="stroke:#181818;stroke-width:0.5;" width="165" x="1287.5" y="265"/><text fill="#000000" font-family="sans-serif" font-size="14" lengthAdjust="spacing" textLength="159" x="1290.5" y="282.9951">edu.mit.csail.sdg.alloy4</text></g><!--class edu.mit.csail.sdg.sim--><g id="elem_edu.mit.csail.sdg.sim"><rect fill="#F1F1F1" height="26.2969" id="edu.mit.csail.sdg.sim" rx="2.5" ry="2.5" style="stroke:#181818;stroke-width:0.5;" width="150" x="728" y="93"/><text fill="#000000" font-family="sans-serif" font-size="14" lengthAdjust="spacing" textLength="144" x="731" y="110.9951">edu.mit.csail.sdg.sim</text></g><!--class edu.gatech.gtri.obm.translator.alloy.fromxmi--><a href="edu/gatech/gtri/obm/translator/alloy/fromxmi/package-summary.html" target="_top" title="edu/gatech/gtri/obm/translator/alloy/fromxmi/package-summary.html" xlink:actuate="onRequest" xlink:href="edu/gatech/gtri/obm/translator/alloy/fromxmi/package-summary.html" xlink:show="new" xlink:title="edu/gatech/gtri/obm/translator/alloy/fromxmi/package-summary.html" xlink:type="simple"><g id="elem_edu.gatech.gtri.obm.translator.alloy.fromxmi"><rect codeLine="30" fill="#F1F1F1" height="26.2969" id="edu.gatech.gtri.obm.translator.alloy.fromxmi" rx="2.5" ry="2.5" style="stroke:#181818;stroke-width:0.5;" width="307" x="1087.5" y="93"/><text fill="#000000" font-family="sans-serif" font-size="14" lengthAdjust="spacing" textLength="301" x="1090.5" y="110.9951">edu.gatech.gtri.obm.translator.alloy.fromxmi</text></g></a><!--class org.eclipse.uml2.uml--><g id="elem_org.eclipse.uml2.uml"><rect fill="#F1F1F1" height="26.2969" id="org.eclipse.uml2.uml" rx="2.5" ry="2.5" style="stroke:#181818;stroke-width:0.5;" width="149" x="727.5" y="179"/><text fill="#000000" font-family="sans-serif" font-size="14" lengthAdjust="spacing" textLength="143" x="730.5" y="196.9951">org.eclipse.uml2.uml</text></g><!--class edu.gatech.gtri.obm.translator.alloy.tofile--><a href="edu/gatech/gtri/obm/translator/alloy/tofile/package-summary.html" target="_top" title="edu/gatech/gtri/obm/translator/alloy/tofile/package-summary.html" xlink:actuate="onRequest" xlink:href="edu/gatech/gtri/obm/translator/alloy/tofile/package-summary.html" xlink:show="new" xlink:title="edu/gatech/gtri/obm/translator/alloy/tofile/package-summary.html" xlink:type="simple"><g id="elem_edu.gatech.gtri.obm.translator.alloy.tofile"><rect codeLine="32" fill="#F1F1F1" height="26.2969" id="edu.gatech.gtri.obm.translator.alloy.tofile" rx="2.5" ry="2.5" style="stroke:#181818;stroke-width:0.5;" width="286" x="1423" y="179"/><text fill="#000000" font-family="sans-serif" font-size="14" lengthAdjust="spacing" textLength="280" x="1426" y="196.9951">edu.gatech.gtri.obm.translator.alloy.tofile</text></g></a><!--class edu.gatech.gtri.obm.translator.alloy.userinterface--><a href="edu/gatech/gtri/obm/translator/alloy/userinterface/package-summary.html" target="_top" title="edu/gatech/gtri/obm/translator/alloy/userinterface/package-summary.html" xlink:actuate="onRequest" xlink:href="edu/gatech/gtri/obm/translator/alloy/userinterface/package-summary.html" xlink:show="new" xlink:title="edu/gatech/gtri/obm/translator/alloy/userinterface/package-summary.html" xlink:type="simple"><g id="elem_edu.gatech.gtri.obm.translator.alloy.userinterface"><rect codeLine="34" fill="#F1F1F1" height="26.2969" id="edu.gatech.gtri.obm.translator.alloy.userinterface" rx="2.5" ry="2.5" style="stroke:#181818;stroke-width:0.5;" width="344" x="1595" y="93"/><text fill="#000000" font-family="sans-serif" font-size="14" lengthAdjust="spacing" textLength="338" x="1598" y="110.9951">edu.gatech.gtri.obm.translator.alloy.userinterface</text></g></a><!--class edu.umd.omgutil--><g id="elem_edu.umd.omgutil"><rect fill="#F1F1F1" height="26.2969" id="edu.umd.omgutil" rx="2.5" ry="2.5" style="stroke:#181818;stroke-width:0.5;" width="123" x="1815.5" y="179"/><text fill="#000000" font-family="sans-serif" font-size="14" lengthAdjust="spacing" textLength="117" x="1818.5" y="196.9951">edu.umd.omgutil</text></g><!--class edu.umd.omgutil.sysml.sysml1--><g id="elem_edu.umd.omgutil.sysml.sysml1"><rect fill="#F1F1F1" height="26.2969" id="edu.umd.omgutil.sysml.sysml1" rx="2.5" ry="2.5" style="stroke:#181818;stroke-width:0.5;" width="218" x="912" y="179"/><text fill="#000000" font-family="sans-serif" font-size="14" lengthAdjust="spacing" textLength="212" x="915" y="196.9951">edu.umd.omgutil.sysml.sysml1</text></g><!--class edu.umd.omgutil.uml--><g id="elem_edu.umd.omgutil.uml"><rect fill="#F1F1F1" height="26.2969" id="edu.umd.omgutil.uml" rx="2.5" ry="2.5" style="stroke:#181818;stroke-width:0.5;" width="152" x="1165" y="179"/><text fill="#000000" font-family="sans-serif" font-size="14" lengthAdjust="spacing" textLength="146" x="1168" y="196.9951">edu.umd.omgutil.uml</text></g><!--link edu.gatech.gtri.obm.translator.alloy to edu.mit.csail.sdg.ast--><g id="link_edu.gatech.gtri.obm.translator.alloy_edu.mit.csail.sdg.ast"><path codeLine="7" d="M927.77,24.24 C1219.09,32.43 1922.18,55.93 1957,93 C1971.23,108.15 2001.62,140.22 1956,205 C1928.8,243.63 1884.2492,260.4223 1841.6092,268.7323 " fill="none" id="edu.gatech.gtri.obm.translator.alloy-to-edu.mit.csail.sdg.ast" style="stroke:#181818;stroke-width:1.0;"/><polygon fill="#181818" points="1835.72,269.88,1845.319,272.0845,1840.6277,268.9236,1843.7887,264.2323,1835.72,269.88" style="stroke:#181818;stroke-width:1.0;"/></g><!--link edu.gatech.gtri.obm.translator.alloy to edu.mit.csail.sdg.parser--><g id="link_edu.gatech.gtri.obm.translator.alloy_edu.mit.csail.sdg.parser"><path codeLine="8" d="M701.13,33.04 C560.31,49.67 314.6486,78.696 183.2086,94.226 " fill="none" id="edu.gatech.gtri.obm.translator.alloy-to-edu.mit.csail.sdg.parser" style="stroke:#181818;stroke-width:1.0;"/><polygon fill="#181818" points="177.25,94.93,186.6572,97.8463,182.2155,94.3433,185.7185,89.9016,177.25,94.93" style="stroke:#181818;stroke-width:1.0;"/></g><!--link edu.gatech.gtri.obm.translator.alloy to edu.mit.csail.sdg.alloy4viz--><g id="link_edu.gatech.gtri.obm.translator.alloy_edu.mit.csail.sdg.alloy4viz"><path codeLine="9" d="M731.51,33.04 C636.65,49 476.0667,76.0338 381.2767,91.9938 " fill="none" id="edu.gatech.gtri.obm.translator.alloy-to-edu.mit.csail.sdg.alloy4viz" style="stroke:#181818;stroke-width:1.0;"/><polygon fill="#181818" points="375.36,92.99,384.8992,95.4402,380.2906,92.1598,383.5709,87.5512,375.36,92.99" style="stroke:#181818;stroke-width:1.0;"/></g><!--link edu.gatech.gtri.obm.translator.alloy to edu.mit.csail.sdg.translator--><g id="link_edu.gatech.gtri.obm.translator.alloy_edu.mit.csail.sdg.translator"><path codeLine="10" d="M763.31,33.04 C710.65,49 623.9717,75.2885 571.3517,91.2485 " fill="none" id="edu.gatech.gtri.obm.translator.alloy-to-edu.mit.csail.sdg.translator" style="stroke:#181818;stroke-width:1.0;"/><polygon fill="#181818" points="565.61,92.99,575.3836,94.2056,570.3948,91.5388,573.0616,86.5499,565.61,92.99" style="stroke:#181818;stroke-width:1.0;"/></g><!--link edu.gatech.gtri.obm.translator.alloy to edu.mit.csail.sdg.alloy4--><g id="link_edu.gatech.gtri.obm.translator.alloy_edu.mit.csail.sdg.alloy4"><path codeLine="11" d="M776.98,33.08 C754.93,44.9 724.75,65.18 711,93 C688.94,137.62 676.76,167.94 710,205 C747.93,247.29 1112.785,266.8946 1281.355,273.7946 " fill="none" id="edu.gatech.gtri.obm.translator.alloy-to-edu.mit.csail.sdg.alloy4" style="stroke:#181818;stroke-width:1.0;"/><polygon fill="#181818" points="1287.35,274.04,1278.5211,269.6753,1282.3542,273.8355,1278.1939,277.6686,1287.35,274.04" style="stroke:#181818;stroke-width:1.0;"/></g><!--link edu.gatech.gtri.obm.translator.alloy to edu.mit.csail.sdg.sim--><g id="link_edu.gatech.gtri.obm.translator.alloy_edu.mit.csail.sdg.sim"><path codeLine="12" d="M803,33.04 C803,49 803,71.03 803,86.99 " fill="none" id="edu.gatech.gtri.obm.translator.alloy-to-edu.mit.csail.sdg.sim" style="stroke:#181818;stroke-width:1.0;"/><polygon fill="#181818" points="803,92.99,807,83.99,803,87.99,799,83.99,803,92.99" style="stroke:#181818;stroke-width:1.0;"/></g><!--link edu.gatech.gtri.obm.translator.alloy to edu.gatech.gtri.obm.translator.alloy.fromxmi--><g id="link_edu.gatech.gtri.obm.translator.alloy_edu.gatech.gtri.obm.translator.alloy.fromxmi"><path codeLine="13" d="M856.5,33.04 C935.1,49 1075.3366,75.9578 1163.2066,91.9178 " fill="none" id="edu.gatech.gtri.obm.translator.alloy-to-edu.gatech.gtri.obm.translator.alloy.fromxmi" style="stroke:#181818;stroke-width:1.0;"/><polygon fill="#181818" points="1169.11,92.99,1160.9697,87.446,1164.1905,92.0965,1159.54,95.3172,1169.11,92.99" style="stroke:#181818;stroke-width:1.0;"/></g><!--link edu.gatech.gtri.obm.translator.alloy.fromxmi to edu.gatech.gtri.obm.translator.alloy--><g id="link_edu.gatech.gtri.obm.translator.alloy.fromxmi_edu.gatech.gtri.obm.translator.alloy"><path codeLine="19" d="M1188.16,92.99 C1109.89,77.03 969.6541,50.0685 881.4641,34.1085 " fill="none" id="edu.gatech.gtri.obm.translator.alloy.fromxmi-to-edu.gatech.gtri.obm.translator.alloy" style="stroke:#181818;stroke-width:1.0;"/><polygon fill="#181818" points="875.56,33.04,883.7038,38.5788,880.4801,33.9304,885.1285,30.7067,875.56,33.04" style="stroke:#181818;stroke-width:1.0;"/></g><!--link edu.gatech.gtri.obm.translator.alloy to org.eclipse.uml2.uml--><g id="link_edu.gatech.gtri.obm.translator.alloy_org.eclipse.uml2.uml"><path codeLine="14" d="M830.21,33.03 C863.75,49.73 914.22,82.09 896,119 C882.17,147.02 856.9419,164.3792 834.4119,176.1092 " fill="none" id="edu.gatech.gtri.obm.translator.alloy-to-org.eclipse.uml2.uml" style="stroke:#181818;stroke-width:1.0;"/><polygon fill="#181818" points="829.09,178.88,838.9201,178.2717,833.5249,176.571,835.2257,171.1759,829.09,178.88" style="stroke:#181818;stroke-width:1.0;"/></g><!--link edu.gatech.gtri.obm.translator.alloy.tofile to edu.mit.csail.sdg.ast--><g id="link_edu.gatech.gtri.obm.translator.alloy.tofile_edu.mit.csail.sdg.ast"><path codeLine="15" d="M1594.08,205.04 C1631.34,221 1691.2254,246.6659 1728.4554,262.6259 " fill="none" id="edu.gatech.gtri.obm.translator.alloy.tofile-to-edu.mit.csail.sdg.ast" style="stroke:#181818;stroke-width:1.0;"/><polygon fill="#181818" points="1733.97,264.99,1727.2741,257.7675,1729.3745,263.02,1724.122,265.1203,1733.97,264.99" style="stroke:#181818;stroke-width:1.0;"/></g><!--link edu.gatech.gtri.obm.translator.alloy.tofile to edu.mit.csail.sdg.alloy4--><g id="link_edu.gatech.gtri.obm.translator.alloy.tofile_edu.mit.csail.sdg.alloy4"><path codeLine="16" d="M1537.92,205.04 C1500.66,221 1440.7746,246.6659 1403.5446,262.6259 " fill="none" id="edu.gatech.gtri.obm.translator.alloy.tofile-to-edu.mit.csail.sdg.alloy4" style="stroke:#181818;stroke-width:1.0;"/><polygon fill="#181818" points="1398.03,264.99,1407.878,265.1203,1402.6255,263.02,1404.7259,257.7675,1398.03,264.99" style="stroke:#181818;stroke-width:1.0;"/></g><!--link edu.gatech.gtri.obm.translator.alloy.userinterface to edu.umd.omgutil--><g id="link_edu.gatech.gtri.obm.translator.alloy.userinterface_edu.umd.omgutil"><path codeLine="17" d="M1782.76,119.04 C1803.67,135 1835.6014,159.3885 1856.5014,175.3485 " fill="none" id="edu.gatech.gtri.obm.translator.alloy.userinterface-to-edu.umd.omgutil" style="stroke:#181818;stroke-width:1.0;"/><polygon fill="#181818" points="1861.27,178.99,1856.5447,170.3487,1857.2962,175.9554,1851.6894,176.7068,1861.27,178.99" style="stroke:#181818;stroke-width:1.0;"/></g><!--link edu.gatech.gtri.obm.translator.alloy.fromxmi to edu.gatech.gtri.obm.translator.alloy.tofile--><g id="link_edu.gatech.gtri.obm.translator.alloy.fromxmi_edu.gatech.gtri.obm.translator.alloy.tofile"><path codeLine="18" d="M1287.56,119.04 C1349.35,135 1451.971,161.5283 1513.711,177.4883 " fill="none" id="edu.gatech.gtri.obm.translator.alloy.fromxmi-to-edu.gatech.gtri.obm.translator.alloy.tofile" style="stroke:#181818;stroke-width:1.0;"/><polygon fill="#181818" points="1519.52,178.99,1511.8075,172.8648,1514.6791,177.7386,1509.8053,180.6102,1519.52,178.99" style="stroke:#181818;stroke-width:1.0;"/></g><!--link edu.gatech.gtri.obm.translator.alloy.fromxmi to edu.mit.csail.sdg.ast--><g id="link_edu.gatech.gtri.obm.translator.alloy.fromxmi_edu.mit.csail.sdg.ast"><path codeLine="20" d="M1394.7,112.82 C1517.61,120.49 1677.31,138.2 1727,179 C1753.39,200.67 1759.4357,237.7772 1761.0357,258.8472 " fill="none" id="edu.gatech.gtri.obm.translator.alloy.fromxmi-to-edu.mit.csail.sdg.ast" style="stroke:#181818;stroke-width:1.0;"/><polygon fill="#181818" points="1761.49,264.83,1764.797,255.553,1761.1114,259.8444,1756.82,256.1587,1761.49,264.83" style="stroke:#181818;stroke-width:1.0;"/></g><!--link edu.gatech.gtri.obm.translator.alloy.fromxmi to edu.umd.omgutil.sysml.sysml1--><g id="link_edu.gatech.gtri.obm.translator.alloy.fromxmi_edu.umd.omgutil.sysml.sysml1"><path codeLine="21" d="M1209.48,119.04 C1167.66,135 1099.8551,160.8893 1058.0651,176.8493 " fill="none" id="edu.gatech.gtri.obm.translator.alloy.fromxmi-to-edu.umd.omgutil.sysml.sysml1" style="stroke:#181818;stroke-width:1.0;"/><polygon fill="#181818" points="1052.46,178.99,1062.2948,179.5158,1057.1309,177.2061,1059.4406,172.0423,1052.46,178.99" style="stroke:#181818;stroke-width:1.0;"/></g><!--link edu.gatech.gtri.obm.translator.alloy.fromxmi to edu.umd.omgutil--><g id="link_edu.gatech.gtri.obm.translator.alloy.fromxmi_edu.umd.omgutil"><path codeLine="22" d="M1332.96,119.01 C1441.66,133.24 1628.02,157.69 1788,179 C1796.81,180.17 1800.1637,180.6189 1809.2937,181.8489 " fill="none" id="edu.gatech.gtri.obm.translator.alloy.fromxmi-to-edu.umd.omgutil" style="stroke:#181818;stroke-width:1.0;"/><polygon fill="#181818" points="1815.24,182.65,1806.8546,177.4842,1810.2848,181.9824,1805.7865,185.4126,1815.24,182.65" style="stroke:#181818;stroke-width:1.0;"/></g><!--link edu.gatech.gtri.obm.translator.alloy.fromxmi to org.eclipse.uml2.uml--><g id="link_edu.gatech.gtri.obm.translator.alloy.fromxmi_org.eclipse.uml2.uml"><path codeLine="23" d="M1178.1,119.04 C1094.65,135 954.0731,161.9023 870.6731,177.8623 " fill="none" id="edu.gatech.gtri.obm.translator.alloy.fromxmi-to-org.eclipse.uml2.uml" style="stroke:#181818;stroke-width:1.0;"/><polygon fill="#181818" points="864.78,178.99,874.3714,181.2271,869.6909,178.0502,872.8678,173.3697,864.78,178.99" style="stroke:#181818;stroke-width:1.0;"/></g><!--link edu.gatech.gtri.obm.translator.alloy.fromxmi to edu.umd.omgutil.uml--><g id="link_edu.gatech.gtri.obm.translator.alloy.fromxmi_edu.umd.omgutil.uml"><path codeLine="24" d="M1241,119.04 C1241,135 1241,157.03 1241,172.99 " fill="none" id="edu.gatech.gtri.obm.translator.alloy.fromxmi-to-edu.umd.omgutil.uml" style="stroke:#181818;stroke-width:1.0;"/><polygon fill="#181818" points="1241,178.99,1245,169.99,1241,173.99,1237,169.99,1241,178.99" style="stroke:#181818;stroke-width:1.0;"/></g><!--link edu.gatech.gtri.obm.translator.alloy.fromxmi to edu.mit.csail.sdg.alloy4--><g id="link_edu.gatech.gtri.obm.translator.alloy.fromxmi_edu.mit.csail.sdg.alloy4"><path codeLine="25" d="M1263.37,119.04 C1284.54,131.48 1315.86,152.76 1335,179 C1354.69,206 1363.0718,239.267 1366.8318,258.907 " fill="none" id="edu.gatech.gtri.obm.translator.alloy.fromxmi-to-edu.mit.csail.sdg.alloy4" style="stroke:#181818;stroke-width:1.0;"/><polygon fill="#181818" points="1367.96,264.8,1370.1964,255.2084,1367.0198,259.8892,1362.3391,256.7127,1367.96,264.8" style="stroke:#181818;stroke-width:1.0;"/></g><text fill="#888888" font-family="sans-serif" font-size="10" lengthAdjust="spacing" textLength="186" x="904.31" y="305.5791">UMLDoclet 2.1.1, PlantUML 1.2023.12</text><!--SRC=[jLRBJiCm4Bpp5Iia14XqerQSEN44gHBYLFNWEfl4gX-HxLG4nBzZ9uK-X6ZIX8kZx8vdPksr4m00jnQwP9OfM36-pgsfTCgDD1QyPTg556b_0H597ZHJ56ASNYXEyW6cZQOcNuYKW0lBvTuxgTBNa0cIgJkEAlA52U4cJcc5EVF42yoz5MXM2Xi7CgeWazBKC9ayD40bF7B7X4INviYS7qeHYd5a1nk9kVkDU1zAj8EDOsaeYnEgFyKf86RMg3Sb-Z4RcoDnAKf7M2avYqDd1lGc4v96wACJJFrM7QlGV49xibauMZ-SbKhHgBpoeaU5sqNjlWjj8VydS3xpWDqvfjfRIdIrKzjnEWhZUIJ36lcl0WSH_Th83TqrpCCNWkK4KkXrUvjpoPo3oovAbx1O15pIufA8Im8ksU6I1fUKhSh4LKenMsFXbLmkuQCH_Emh-rrWP_ajVcmRxJ7hxAA5ZstYu9xfxELWLYTB5D6G6HCVhyzFZoRy57YOuHIdTp2NJFiGXQiDMIUClhdz0W00]--></g></svg>