<?xml version="1.0" encoding="us-ascii" standalone="no"?><svg xmlns="http://www.w3.org/2000/svg" xmlns:xlink="http://www.w3.org/1999/xlink" contentStyleType="text/css" height="326px" preserveAspectRatio="none" style="width:219px;height:326px;background:#FFFFFF;" version="1.1" viewBox="0 0 219 326" width="219px" zoomAndPan="magnify"><defs/><g><!--class edu.gatech.gtri.obm.alloy.translator.ExprVisitor--><a href="ExprVisitor.html" target="_top" title="ExprVisitor.html" xlink:actuate="onRequest" xlink:href="ExprVisitor.html" xlink:show="new" xlink:title="ExprVisitor.html" xlink:type="simple"><g id="elem_edu.gatech.gtri.obm.alloy.translator.ExprVisitor"><rect codeLine="5" fill="#F1F1F1" height="192.6094" id="edu.gatech.gtri.obm.alloy.translator.ExprVisitor" rx="2.5" ry="2.5" style="stroke:#181818;stroke-width:0.5;" width="205" x="7" y="108"/><ellipse cx="22" cy="126.9688" fill="#ADD1B2" rx="11" ry="11" style="stroke:#181818;stroke-width:1.0;"/><path d="M24.9688,132.6094 Q24.3906,132.9063 23.75,133.0469 Q23.1094,133.2031 22.4063,133.2031 Q19.9063,133.2031 18.5781,131.5625 Q17.2656,129.9063 17.2656,126.7813 Q17.2656,123.6563 18.5781,122 Q19.9063,120.3438 22.4063,120.3438 Q23.1094,120.3438 23.75,120.5 Q24.4063,120.6563 24.9688,120.9531 L24.9688,123.6719 Q24.3438,123.0938 23.75,122.8281 Q23.1563,122.5469 22.5313,122.5469 Q21.1875,122.5469 20.5,123.625 Q19.8125,124.6875 19.8125,126.7813 Q19.8125,128.875 20.5,129.9531 Q21.1875,131.0156 22.5313,131.0156 Q23.1563,131.0156 23.75,130.75 Q24.3438,130.4688 24.9688,129.8906 L24.9688,132.6094 Z " fill="#000000"/><text fill="#000000" font-family="sans-serif" font-size="14" lengthAdjust="spacing" textLength="72" x="86.5" y="125.9951">ExprVisitor</text><text fill="#000000" font-family="sans-serif" font-size="10" lengthAdjust="spacing" textLength="173" x="36" y="138.5791">edu.gatech.gtri.obm.alloy.translator</text><line style="stroke:#181818;stroke-width:0.5;" x1="8" x2="211" y1="145.9375" y2="145.9375"/><ellipse cx="18" cy="159.5859" fill="#84BE84" rx="3" ry="3" style="stroke:#038048;stroke-width:1.0;"/><text fill="#000000" font-family="sans-serif" font-size="14" lengthAdjust="spacing" textLength="157" x="27" y="162.9326">visit(ExprBinary): String</text><ellipse cx="18" cy="175.8828" fill="#84BE84" rx="3" ry="3" style="stroke:#038048;stroke-width:1.0;"/><text fill="#000000" font-family="sans-serif" font-size="14" lengthAdjust="spacing" textLength="139" x="27" y="179.2295">visit(ExprCall): String</text><ellipse cx="18" cy="192.1797" fill="#84BE84" rx="3" ry="3" style="stroke:#038048;stroke-width:1.0;"/><text fill="#000000" font-family="sans-serif" font-size="14" lengthAdjust="spacing" textLength="178" x="27" y="195.5264">visit(ExprConstant): String</text><ellipse cx="18" cy="208.4766" fill="#84BE84" rx="3" ry="3" style="stroke:#038048;stroke-width:1.0;"/><text fill="#000000" font-family="sans-serif" font-size="14" lengthAdjust="spacing" textLength="138" x="27" y="211.8232">visit(ExprList): String</text><ellipse cx="18" cy="224.7734" fill="#84BE84" rx="3" ry="3" style="stroke:#038048;stroke-width:1.0;"/><text fill="#000000" font-family="sans-serif" font-size="14" lengthAdjust="spacing" textLength="131" x="27" y="228.1201">visit(ExprQt): String</text><ellipse cx="18" cy="241.0703" fill="#84BE84" rx="3" ry="3" style="stroke:#038048;stroke-width:1.0;"/><text fill="#000000" font-family="sans-serif" font-size="14" lengthAdjust="spacing" textLength="154" x="27" y="244.417">visit(ExprUnary): String</text><ellipse cx="18" cy="257.3672" fill="#84BE84" rx="3" ry="3" style="stroke:#038048;stroke-width:1.0;"/><text fill="#000000" font-family="sans-serif" font-size="14" lengthAdjust="spacing" textLength="137" x="27" y="260.7139">visit(ExprVar): String</text><ellipse cx="18" cy="273.6641" fill="#84BE84" rx="3" ry="3" style="stroke:#038048;stroke-width:1.0;"/><text fill="#000000" font-family="sans-serif" font-size="14" lengthAdjust="spacing" textLength="106" x="27" y="277.0107">visit(Sig): String</text><ellipse cx="18" cy="289.9609" fill="#84BE84" rx="3" ry="3" style="stroke:#038048;stroke-width:1.0;"/><text fill="#000000" font-family="sans-serif" font-size="14" lengthAdjust="spacing" textLength="117" x="27" y="293.3076">visit(Field): String</text></g></a><!--class edu.mit.csail.sdg.ast.VisitQuery--><g id="elem_edu.mit.csail.sdg.ast.VisitQuery"><rect codeLine="17" fill="#F1F1F1" height="37.9375" id="edu.mit.csail.sdg.ast.VisitQuery" rx="2.5" ry="2.5" style="stroke:#181818;stroke-width:0.5;" width="175" x="22" y="10"/><ellipse cx="37" cy="28.9688" fill="#A9DCDF" rx="11" ry="11" style="stroke:#181818;stroke-width:1.0;"/><path d="M37.1094,24.3125 L35.9531,29.3906 L38.2813,29.3906 L37.1094,24.3125 Z M35.625,22.0781 L38.6094,22.0781 L41.9688,34.4688 L39.5156,34.4688 L38.75,31.4063 L35.4688,31.4063 L34.7188,34.4688 L32.2813,34.4688 L35.625,22.0781 Z " fill="#000000"/><text fill="#000000" font-family="sans-serif" font-size="14" font-style="italic" lengthAdjust="spacing" textLength="70" x="67" y="27.9951">VisitQuery</text><text fill="#000000" font-family="sans-serif" font-size="10" font-style="italic" lengthAdjust="spacing" textLength="102" x="51" y="40.5791">edu.mit.csail.sdg.ast</text><rect fill="#FFFFFF" height="15.9688" style="stroke:#181818;stroke-width:1.0;stroke-dasharray:2.0,2.0;" width="39" x="161" y="7"/><text fill="#000000" font-family="sans-serif" font-size="12" font-style="italic" lengthAdjust="spacing" textLength="37" x="162" y="19.1387">String</text></g><!--reverse link edu.mit.csail.sdg.ast.VisitQuery to edu.gatech.gtri.obm.alloy.translator.ExprVisitor--><g id="link_edu.mit.csail.sdg.ast.VisitQuery_edu.gatech.gtri.obm.alloy.translator.ExprVisitor"><path codeLine="19" d="M109.5,66.24 C109.5,80.94 109.5,84.86 109.5,107.62 " fill="none" id="edu.mit.csail.sdg.ast.VisitQuery-backto-edu.gatech.gtri.obm.alloy.translator.ExprVisitor" style="stroke:#181818;stroke-width:1.0;"/><polygon fill="none" points="109.5,48.24,103.5,66.24,115.5,66.24,109.5,48.24" style="stroke:#181818;stroke-width:1.0;"/></g><text fill="#888888" font-family="sans-serif" font-size="10" lengthAdjust="spacing" textLength="186" x="9.5" y="315.8916">UMLDoclet 2.1.1, PlantUML 1.2023.12</text><!--SRC=[bL9DQy904BttLmn2GMbTQkb9WeT-dInKH2_MmvYCoS9cD-oCqlJZltTZIckrndOlmxxtc3VC6m009W6BEN61COsfG8_YF5XdwIJGaEc4WF92IbXgCWdleZb9vWAymME3pD2AMBzGltSrk7ik_5Ip3YsVx2TwCQ1afL8KYZELYjVABNA5nhXIYKVBffgW1SZm5w7Qye3PREkdCidDV0wlcz6gTxQkc7QbkTOMVTdfmpWqjkblafjWrInmbWMjD8g6cfi5esPwSdJEAVg3_5Yd1xdxAi-Vx7iT8ouuB3YMlJmtcnsjo9SxSUPQLCoeZU8aLSZobTyUexwRHBNre7OzfeRehTlzzqtKTqbMoCFIkQfC7eQtBZRXyYzLJ_NEuT6450CAfsloh9rjTpu0]--></g></svg>