<?xml version="1.0" encoding="us-ascii" standalone="no"?><svg xmlns="http://www.w3.org/2000/svg" xmlns:xlink="http://www.w3.org/1999/xlink" contentStyleType="text/css" height="893px" preserveAspectRatio="none" style="width:1098px;height:893px;background:#FFFFFF;" version="1.1" viewBox="0 0 1098 893" width="1098px" zoomAndPan="magnify"><defs/><g><!--cluster edu.gatech.gtri.obm.alloy.translator--><g id="cluster_edu.gatech.gtri.obm.alloy.translator"><path d="M8.5,129 L292.5,129 A3.75,3.75 0 0 1 295,131.5 L302,151.2969 L1088.5,151.2969 A2.5,2.5 0 0 1 1091,153.7969 L1091,865.5 A2.5,2.5 0 0 1 1088.5,868 L8.5,868 A2.5,2.5 0 0 1 6,865.5 L6,131.5 A2.5,2.5 0 0 1 8.5,129 " fill="none" style="stroke:#000000;stroke-width:1.5;"/><line style="stroke:#000000;stroke-width:1.5;" x1="6" x2="302" y1="151.2969" y2="151.2969"/><text fill="#000000" font-family="sans-serif" font-size="14" font-weight="bold" lengthAdjust="spacing" textLength="283" x="10" y="143.9951">edu.gatech.gtri.obm.alloy.translator</text></g><!--cluster edu.mit.csail.sdg.ast--><g id="cluster_edu.mit.csail.sdg.ast"><path d="M37.5,6 L200.5,6 A3.75,3.75 0 0 1 203,8.5 L210,28.2969 L210.5,28.2969 A2.5,2.5 0 0 1 213,30.7969 L213,102.5 A2.5,2.5 0 0 1 210.5,105 L37.5,105 A2.5,2.5 0 0 1 35,102.5 L35,8.5 A2.5,2.5 0 0 1 37.5,6 " fill="none" style="stroke:#000000;stroke-width:1.5;"/><line style="stroke:#000000;stroke-width:1.5;" x1="35" x2="210" y1="28.2969" y2="28.2969"/><text fill="#000000" font-family="sans-serif" font-size="14" font-weight="bold" lengthAdjust="spacing" textLength="162" x="39" y="20.9951">edu.mit.csail.sdg.ast</text></g><!--class ConnectorsHandler_OneOf--><a href="ConnectorsHandler_OneOf.html" target="_top" title="ConnectorsHandler_OneOf.html" xlink:actuate="onRequest" xlink:href="ConnectorsHandler_OneOf.html" xlink:show="new" xlink:title="ConnectorsHandler_OneOf.html" xlink:type="simple"><g id="elem_ConnectorsHandler_OneOf"><rect codeLine="5" fill="#F1F1F1" height="48" id="ConnectorsHandler_OneOf" rx="2.5" ry="2.5" style="stroke:#181818;stroke-width:0.5;" width="217" x="261.5" y="237.5"/><ellipse cx="276.5" cy="253.5" fill="#ADD1B2" rx="11" ry="11" style="stroke:#181818;stroke-width:1.0;"/><path d="M279.4688,259.1406 Q278.8906,259.4375 278.25,259.5781 Q277.6094,259.7344 276.9063,259.7344 Q274.4063,259.7344 273.0781,258.0938 Q271.7656,256.4375 271.7656,253.3125 Q271.7656,250.1875 273.0781,248.5313 Q274.4063,246.875 276.9063,246.875 Q277.6094,246.875 278.25,247.0313 Q278.9063,247.1875 279.4688,247.4844 L279.4688,250.2031 Q278.8438,249.625 278.25,249.3594 Q277.6563,249.0781 277.0313,249.0781 Q275.6875,249.0781 275,250.1563 Q274.3125,251.2188 274.3125,253.3125 Q274.3125,255.4063 275,256.4844 Q275.6875,257.5469 277.0313,257.5469 Q277.6563,257.5469 278.25,257.2813 Q278.8438,257 279.4688,256.4219 L279.4688,259.1406 Z " fill="#000000"/><text fill="#000000" font-family="sans-serif" font-size="14" lengthAdjust="spacing" textLength="185" x="290.5" y="258.3467">ConnectorsHandler_OneOf</text><line style="stroke:#181818;stroke-width:0.5;" x1="262.5" x2="477.5" y1="269.5" y2="269.5"/><line style="stroke:#181818;stroke-width:0.5;" x1="262.5" x2="477.5" y1="277.5" y2="277.5"/></g></a><!--class ToAlloy--><a href="ToAlloy.html" target="_top" title="ToAlloy.html" xlink:actuate="onRequest" xlink:href="ToAlloy.html" xlink:show="new" xlink:title="ToAlloy.html" xlink:type="simple"><g id="elem_ToAlloy"><rect codeLine="8" fill="#F1F1F1" height="48" id="ToAlloy" rx="2.5" ry="2.5" style="stroke:#181818;stroke-width:0.5;" width="81" x="513.5" y="237.5"/><ellipse cx="528.5" cy="253.5" fill="#ADD1B2" rx="11" ry="11" style="stroke:#181818;stroke-width:1.0;"/><path d="M531.4688,259.1406 Q530.8906,259.4375 530.25,259.5781 Q529.6094,259.7344 528.9063,259.7344 Q526.4063,259.7344 525.0781,258.0938 Q523.7656,256.4375 523.7656,253.3125 Q523.7656,250.1875 525.0781,248.5313 Q526.4063,246.875 528.9063,246.875 Q529.6094,246.875 530.25,247.0313 Q530.9063,247.1875 531.4688,247.4844 L531.4688,250.2031 Q530.8438,249.625 530.25,249.3594 Q529.6563,249.0781 529.0313,249.0781 Q527.6875,249.0781 527,250.1563 Q526.3125,251.2188 526.3125,253.3125 Q526.3125,255.4063 527,256.4844 Q527.6875,257.5469 529.0313,257.5469 Q529.6563,257.5469 530.25,257.2813 Q530.8438,257 531.4688,256.4219 L531.4688,259.1406 Z " fill="#000000"/><text fill="#000000" font-family="sans-serif" font-size="14" lengthAdjust="spacing" textLength="49" x="542.5" y="258.3467">ToAlloy</text><line style="stroke:#181818;stroke-width:0.5;" x1="514.5" x2="593.5" y1="269.5" y2="269.5"/><line style="stroke:#181818;stroke-width:0.5;" x1="514.5" x2="593.5" y1="277.5" y2="277.5"/></g></a><!--class ExprVisitor--><a href="ExprVisitor.html" target="_top" title="ExprVisitor.html" xlink:actuate="onRequest" xlink:href="ExprVisitor.html" xlink:show="new" xlink:title="ExprVisitor.html" xlink:type="simple"><g id="elem_ExprVisitor"><rect codeLine="11" fill="#F1F1F1" height="194.6719" id="ExprVisitor" rx="2.5" ry="2.5" style="stroke:#181818;stroke-width:0.5;" width="204" x="22" y="164"/><ellipse cx="83.75" cy="180" fill="#ADD1B2" rx="11" ry="11" style="stroke:#181818;stroke-width:1.0;"/><path d="M86.7188,185.6406 Q86.1406,185.9375 85.5,186.0781 Q84.8594,186.2344 84.1563,186.2344 Q81.6563,186.2344 80.3281,184.5938 Q79.0156,182.9375 79.0156,179.8125 Q79.0156,176.6875 80.3281,175.0313 Q81.6563,173.375 84.1563,173.375 Q84.8594,173.375 85.5,173.5313 Q86.1563,173.6875 86.7188,173.9844 L86.7188,176.7031 Q86.0938,176.125 85.5,175.8594 Q84.9063,175.5781 84.2813,175.5781 Q82.9375,175.5781 82.25,176.6563 Q81.5625,177.7188 81.5625,179.8125 Q81.5625,181.9063 82.25,182.9844 Q82.9375,184.0469 84.2813,184.0469 Q84.9063,184.0469 85.5,183.7813 Q86.0938,183.5 86.7188,182.9219 L86.7188,185.6406 Z " fill="#000000"/><text fill="#000000" font-family="sans-serif" font-size="14" lengthAdjust="spacing" textLength="72" x="104.25" y="184.8467">ExprVisitor</text><line style="stroke:#181818;stroke-width:0.5;" x1="23" x2="225" y1="196" y2="196"/><line style="stroke:#181818;stroke-width:0.5;" x1="23" x2="225" y1="204" y2="204"/><ellipse cx="33" cy="217.6484" fill="#84BE84" rx="3" ry="3" style="stroke:#038048;stroke-width:1.0;"/><text fill="#000000" font-family="sans-serif" font-size="14" lengthAdjust="spacing" textLength="157" x="42" y="220.9951">visit(ExprBinary): String</text><ellipse cx="33" cy="233.9453" fill="#84BE84" rx="3" ry="3" style="stroke:#038048;stroke-width:1.0;"/><text fill="#000000" font-family="sans-serif" font-size="14" lengthAdjust="spacing" textLength="139" x="42" y="237.292">visit(ExprCall): String</text><ellipse cx="33" cy="250.2422" fill="#84BE84" rx="3" ry="3" style="stroke:#038048;stroke-width:1.0;"/><text fill="#000000" font-family="sans-serif" font-size="14" lengthAdjust="spacing" textLength="178" x="42" y="253.5889">visit(ExprConstant): String</text><ellipse cx="33" cy="266.5391" fill="#84BE84" rx="3" ry="3" style="stroke:#038048;stroke-width:1.0;"/><text fill="#000000" font-family="sans-serif" font-size="14" lengthAdjust="spacing" textLength="138" x="42" y="269.8857">visit(ExprList): String</text><ellipse cx="33" cy="282.8359" fill="#84BE84" rx="3" ry="3" style="stroke:#038048;stroke-width:1.0;"/><text fill="#000000" font-family="sans-serif" font-size="14" lengthAdjust="spacing" textLength="131" x="42" y="286.1826">visit(ExprQt): String</text><ellipse cx="33" cy="299.1328" fill="#84BE84" rx="3" ry="3" style="stroke:#038048;stroke-width:1.0;"/><text fill="#000000" font-family="sans-serif" font-size="14" lengthAdjust="spacing" textLength="154" x="42" y="302.4795">visit(ExprUnary): String</text><ellipse cx="33" cy="315.4297" fill="#84BE84" rx="3" ry="3" style="stroke:#038048;stroke-width:1.0;"/><text fill="#000000" font-family="sans-serif" font-size="14" lengthAdjust="spacing" textLength="137" x="42" y="318.7764">visit(ExprVar): String</text><ellipse cx="33" cy="331.7266" fill="#84BE84" rx="3" ry="3" style="stroke:#038048;stroke-width:1.0;"/><text fill="#000000" font-family="sans-serif" font-size="14" lengthAdjust="spacing" textLength="106" x="42" y="335.0732">visit(Sig): String</text><ellipse cx="33" cy="348.0234" fill="#84BE84" rx="3" ry="3" style="stroke:#038048;stroke-width:1.0;"/><text fill="#000000" font-family="sans-serif" font-size="14" lengthAdjust="spacing" textLength="117" x="42" y="351.3701">visit(Field): String</text></g></a><!--class OBMXMI2Alloy--><a href="OBMXMI2Alloy.html" target="_top" title="OBMXMI2Alloy.html" xlink:actuate="onRequest" xlink:href="OBMXMI2Alloy.html" xlink:show="new" xlink:title="OBMXMI2Alloy.html" xlink:type="simple"><g id="elem_OBMXMI2Alloy"><rect codeLine="23" fill="#F1F1F1" height="129.4844" id="OBMXMI2Alloy" rx="2.5" ry="2.5" style="stroke:#181818;stroke-width:0.5;" width="270" x="630" y="197"/><ellipse cx="712.25" cy="213" fill="#ADD1B2" rx="11" ry="11" style="stroke:#181818;stroke-width:1.0;"/><path d="M715.2188,218.6406 Q714.6406,218.9375 714,219.0781 Q713.3594,219.2344 712.6563,219.2344 Q710.1563,219.2344 708.8281,217.5938 Q707.5156,215.9375 707.5156,212.8125 Q707.5156,209.6875 708.8281,208.0313 Q710.1563,206.375 712.6563,206.375 Q713.3594,206.375 714,206.5313 Q714.6563,206.6875 715.2188,206.9844 L715.2188,209.7031 Q714.5938,209.125 714,208.8594 Q713.4063,208.5781 712.7813,208.5781 Q711.4375,208.5781 710.75,209.6563 Q710.0625,210.7188 710.0625,212.8125 Q710.0625,214.9063 710.75,215.9844 Q711.4375,217.0469 712.7813,217.0469 Q713.4063,217.0469 714,216.7813 Q714.5938,216.5 715.2188,215.9219 L715.2188,218.6406 Z " fill="#000000"/><text fill="#000000" font-family="sans-serif" font-size="14" lengthAdjust="spacing" textLength="97" x="732.75" y="217.8467">OBMXMI2Alloy</text><line style="stroke:#181818;stroke-width:0.5;" x1="631" x2="899" y1="229" y2="229"/><line style="stroke:#181818;stroke-width:0.5;" x1="631" x2="899" y1="237" y2="237"/><ellipse cx="641" cy="250.6484" fill="#84BE84" rx="3" ry="3" style="stroke:#038048;stroke-width:1.0;"/><text fill="#000000" font-family="sans-serif" font-size="14" lengthAdjust="spacing" textLength="147" x="650" y="253.9951">OBMXMI2Alloy(String)</text><ellipse cx="641" cy="266.9453" fill="#84BE84" rx="3" ry="3" style="stroke:#038048;stroke-width:1.0;"/><text fill="#000000" font-family="sans-serif" font-size="14" lengthAdjust="spacing" textLength="175" x="650" y="270.292">loadXmiFile(File): boolean</text><ellipse cx="641" cy="283.2422" fill="#84BE84" rx="3" ry="3" style="stroke:#038048;stroke-width:1.0;"/><text fill="#000000" font-family="sans-serif" font-size="14" lengthAdjust="spacing" textLength="244" x="650" y="286.5889">createAlloyFile(String, File): boolean</text><ellipse cx="641" cy="299.5391" fill="#84BE84" rx="3" ry="3" style="stroke:#038048;stroke-width:1.0;"/><text fill="#000000" font-family="sans-serif" font-size="14" lengthAdjust="spacing" textLength="200" x="650" y="302.8857">getMessages(): List&lt;String&gt;</text><ellipse cx="641" cy="315.8359" fill="#84BE84" rx="3" ry="3" style="stroke:#038048;stroke-width:1.0;"/><text fill="#000000" font-family="sans-serif" font-size="14" lengthAdjust="spacing" textLength="233" x="650" y="319.1826">getErrorMessages(): List&lt;String&gt;</text></g></a><!--class ClassesHandler--><a href="ClassesHandler.html" target="_top" title="ClassesHandler.html" xlink:actuate="onRequest" xlink:href="ClassesHandler.html" xlink:show="new" xlink:title="ClassesHandler.html" xlink:type="simple"><g id="elem_ClassesHandler"><rect codeLine="31" fill="#F1F1F1" height="48" id="ClassesHandler" rx="2.5" ry="2.5" style="stroke:#181818;stroke-width:0.5;" width="139" x="935.5" y="237.5"/><ellipse cx="950.5" cy="253.5" fill="#ADD1B2" rx="11" ry="11" style="stroke:#181818;stroke-width:1.0;"/><path d="M953.4688,259.1406 Q952.8906,259.4375 952.25,259.5781 Q951.6094,259.7344 950.9063,259.7344 Q948.4063,259.7344 947.0781,258.0938 Q945.7656,256.4375 945.7656,253.3125 Q945.7656,250.1875 947.0781,248.5313 Q948.4063,246.875 950.9063,246.875 Q951.6094,246.875 952.25,247.0313 Q952.9063,247.1875 953.4688,247.4844 L953.4688,250.2031 Q952.8438,249.625 952.25,249.3594 Q951.6563,249.0781 951.0313,249.0781 Q949.6875,249.0781 949,250.1563 Q948.3125,251.2188 948.3125,253.3125 Q948.3125,255.4063 949,256.4844 Q949.6875,257.5469 951.0313,257.5469 Q951.6563,257.5469 952.25,257.2813 Q952.8438,257 953.4688,256.4219 L953.4688,259.1406 Z " fill="#000000"/><text fill="#000000" font-family="sans-serif" font-size="14" lengthAdjust="spacing" textLength="107" x="964.5" y="258.3467">ClassesHandler</text><line style="stroke:#181818;stroke-width:0.5;" x1="936.5" x2="1073.5" y1="269.5" y2="269.5"/><line style="stroke:#181818;stroke-width:0.5;" x1="936.5" x2="1073.5" y1="277.5" y2="277.5"/></g></a><!--class Alloy--><a href="Alloy.html" target="_top" title="Alloy.html" xlink:actuate="onRequest" xlink:href="Alloy.html" xlink:show="new" xlink:title="Alloy.html" xlink:type="simple"><g id="elem_Alloy"><rect codeLine="34" fill="#F1F1F1" height="64.2969" id="Alloy" rx="2.5" ry="2.5" style="stroke:#181818;stroke-width:0.5;" width="127" x="102.5" y="549.5"/><ellipse cx="146.3" cy="565.5" fill="#ADD1B2" rx="11" ry="11" style="stroke:#181818;stroke-width:1.0;"/><path d="M149.2688,571.1406 Q148.6906,571.4375 148.05,571.5781 Q147.4094,571.7344 146.7063,571.7344 Q144.2063,571.7344 142.8781,570.0938 Q141.5656,568.4375 141.5656,565.3125 Q141.5656,562.1875 142.8781,560.5313 Q144.2063,558.875 146.7063,558.875 Q147.4094,558.875 148.05,559.0313 Q148.7063,559.1875 149.2688,559.4844 L149.2688,562.2031 Q148.6438,561.625 148.05,561.3594 Q147.4563,561.0781 146.8313,561.0781 Q145.4875,561.0781 144.8,562.1563 Q144.1125,563.2188 144.1125,565.3125 Q144.1125,567.4063 144.8,568.4844 Q145.4875,569.5469 146.8313,569.5469 Q147.4563,569.5469 148.05,569.2813 Q148.6438,569 149.2688,568.4219 L149.2688,571.1406 Z " fill="#000000"/><text fill="#000000" font-family="sans-serif" font-size="14" lengthAdjust="spacing" textLength="31" x="166.7" y="570.3467">Alloy</text><line style="stroke:#181818;stroke-width:0.5;" x1="103.5" x2="228.5" y1="581.5" y2="581.5"/><line style="stroke:#181818;stroke-width:0.5;" x1="103.5" x2="228.5" y1="589.5" y2="589.5"/><ellipse cx="113.5" cy="603.1484" fill="#84BE84" rx="3" ry="3" style="stroke:#038048;stroke-width:1.0;"/><text fill="#000000" font-family="sans-serif" font-size="14" lengthAdjust="spacing" textLength="101" x="122.5" y="606.4951">initialize(): void</text></g></a><!--class AlloyUtils--><a href="AlloyUtils.html" target="_top" title="AlloyUtils.html" xlink:actuate="onRequest" xlink:href="AlloyUtils.html" xlink:show="new" xlink:title="AlloyUtils.html" xlink:type="simple"><g id="elem_AlloyUtils"><rect codeLine="38" fill="#F1F1F1" height="325.0469" id="AlloyUtils" rx="2.5" ry="2.5" style="stroke:#181818;stroke-width:0.5;" width="417" x="264.5" y="419"/><ellipse cx="438.75" cy="435" fill="#ADD1B2" rx="11" ry="11" style="stroke:#181818;stroke-width:1.0;"/><path d="M441.7188,440.6406 Q441.1406,440.9375 440.5,441.0781 Q439.8594,441.2344 439.1563,441.2344 Q436.6563,441.2344 435.3281,439.5938 Q434.0156,437.9375 434.0156,434.8125 Q434.0156,431.6875 435.3281,430.0313 Q436.6563,428.375 439.1563,428.375 Q439.8594,428.375 440.5,428.5313 Q441.1563,428.6875 441.7188,428.9844 L441.7188,431.7031 Q441.0938,431.125 440.5,430.8594 Q439.9063,430.5781 439.2813,430.5781 Q437.9375,430.5781 437.25,431.6563 Q436.5625,432.7188 436.5625,434.8125 Q436.5625,436.9063 437.25,437.9844 Q437.9375,439.0469 439.2813,439.0469 Q439.9063,439.0469 440.5,438.7813 Q441.0938,438.5 441.7188,437.9219 L441.7188,440.6406 Z " fill="#000000"/><text fill="#000000" font-family="sans-serif" font-size="14" lengthAdjust="spacing" textLength="60" x="459.25" y="439.8467">AlloyUtils</text><line style="stroke:#181818;stroke-width:0.5;" x1="265.5" x2="680.5" y1="451" y2="451"/><line style="stroke:#181818;stroke-width:0.5;" x1="265.5" x2="680.5" y1="459" y2="459"/><ellipse cx="275.5" cy="472.6484" fill="#84BE84" rx="3" ry="3" style="stroke:#038048;stroke-width:1.0;"/><text fill="#000000" font-family="sans-serif" font-size="14" lengthAdjust="spacing" text-decoration="underline" textLength="260" x="284.5" y="475.9951">importAlloyModule(File): CompModule</text><ellipse cx="275.5" cy="488.9453" fill="#84BE84" rx="3" ry="3" style="stroke:#038048;stroke-width:1.0;"/><text fill="#000000" font-family="sans-serif" font-size="14" lengthAdjust="spacing" text-decoration="underline" textLength="277" x="284.5" y="492.292">importAlloyModule(String): CompModule</text><ellipse cx="275.5" cy="505.2422" fill="#84BE84" rx="3" ry="3" style="stroke:#038048;stroke-width:1.0;"/><text fill="#000000" font-family="sans-serif" font-size="14" lengthAdjust="spacing" text-decoration="underline" textLength="257" x="284.5" y="508.5889">selfOrAncestor(PrimSig, Sig): boolean</text><ellipse cx="275.5" cy="521.5391" fill="#84BE84" rx="3" ry="3" style="stroke:#038048;stroke-width:1.0;"/><text fill="#000000" font-family="sans-serif" font-size="14" lengthAdjust="spacing" text-decoration="underline" textLength="280" x="284.5" y="524.8857">isValidUserDefineParent(String): boolean</text><ellipse cx="275.5" cy="537.8359" fill="#84BE84" rx="3" ry="3" style="stroke:#038048;stroke-width:1.0;"/><text fill="#000000" font-family="sans-serif" font-size="14" lengthAdjust="spacing" text-decoration="underline" textLength="299" x="284.5" y="541.1826">hasOwnOrInheritedFields(PrimSig): boolean</text><ellipse cx="275.5" cy="554.1328" fill="#84BE84" rx="3" ry="3" style="stroke:#038048;stroke-width:1.0;"/><text fill="#000000" font-family="sans-serif" font-size="14" lengthAdjust="spacing" text-decoration="underline" textLength="259" x="284.5" y="557.4795">getFieldFromSig(String, PrimSig): Expr</text><ellipse cx="275.5" cy="570.4297" fill="#84BE84" rx="3" ry="3" style="stroke:#038048;stroke-width:1.0;"/><text fill="#000000" font-family="sans-serif" font-size="14" lengthAdjust="spacing" text-decoration="underline" textLength="304" x="284.5" y="573.7764">getFieldFromParentSig(String, PrimSig): Expr</text><ellipse cx="275.5" cy="586.7266" fill="#84BE84" rx="3" ry="3" style="stroke:#038048;stroke-width:1.0;"/><text fill="#000000" font-family="sans-serif" font-size="14" lengthAdjust="spacing" text-decoration="underline" textLength="391" x="284.5" y="590.0732">getFieldAsExprFromSigOrItsParents(String, PrimSig): Expr</text><ellipse cx="275.5" cy="603.0234" fill="#84BE84" rx="3" ry="3" style="stroke:#038048;stroke-width:1.0;"/><text fill="#000000" font-family="sans-serif" font-size="14" lengthAdjust="spacing" text-decoration="underline" textLength="346" x="284.5" y="606.3701">getFieldFromSigOrItsParents(String, PrimSig): Field</text><ellipse cx="275.5" cy="619.3203" fill="#84BE84" rx="3" ry="3" style="stroke:#038048;stroke-width:1.0;"/><text fill="#000000" font-family="sans-serif" font-size="14" lengthAdjust="spacing" text-decoration="underline" textLength="256" x="284.5" y="622.667">getReachableSig(String, Module): Sig</text><ellipse cx="275.5" cy="635.6172" fill="#84BE84" rx="3" ry="3" style="stroke:#038048;stroke-width:1.0;"/><text fill="#000000" font-family="sans-serif" font-size="14" lengthAdjust="spacing" text-decoration="underline" textLength="388" x="284.5" y="638.9639">getAllReachableModuleByName(String, Module): Module</text><ellipse cx="275.5" cy="651.9141" fill="#84BE84" rx="3" ry="3" style="stroke:#038048;stroke-width:1.0;"/><text fill="#000000" font-family="sans-serif" font-size="14" lengthAdjust="spacing" text-decoration="underline" textLength="235" x="284.5" y="655.2607">getFunction(String, Module): Func</text><ellipse cx="275.5" cy="668.2109" fill="#84BE84" rx="3" ry="3" style="stroke:#038048;stroke-width:1.0;"/><text fill="#000000" font-family="sans-serif" font-size="14" lengthAdjust="spacing" text-decoration="underline" textLength="244" x="284.5" y="671.5576">sortFields(Set&lt;Field&gt;): List&lt;Field&gt;</text><ellipse cx="275.5" cy="684.5078" fill="#84BE84" rx="3" ry="3" style="stroke:#038048;stroke-width:1.0;"/><text fill="#000000" font-family="sans-serif" font-size="14" lengthAdjust="spacing" text-decoration="underline" textLength="220" x="284.5" y="687.8545">sort(Set&lt;String&gt;): List&lt;String&gt;</text><ellipse cx="275.5" cy="700.8047" fill="#84BE84" rx="3" ry="3" style="stroke:#038048;stroke-width:1.0;"/><text fill="#000000" font-family="sans-serif" font-size="14" lengthAdjust="spacing" text-decoration="underline" textLength="265" x="284.5" y="704.1514">fieldsLabels(Set&lt;Field&gt;): Set&lt;String&gt;</text><ellipse cx="275.5" cy="717.1016" fill="#84BE84" rx="3" ry="3" style="stroke:#038048;stroke-width:1.0;"/><text fill="#000000" font-family="sans-serif" font-size="14" lengthAdjust="spacing" text-decoration="underline" textLength="289" x="284.5" y="720.4482">toSigAllFacts(Sig, Set&lt;Expr&gt;): Set&lt;Expr&gt;</text><ellipse cx="275.5" cy="733.3984" fill="#84BE84" rx="3" ry="3" style="stroke:#038048;stroke-width:1.0;"/><text fill="#000000" font-family="sans-serif" font-size="14" lengthAdjust="spacing" text-decoration="underline" textLength="188" x="284.5" y="736.7451">removeSlash(String): String</text></g></a><!--class ConnectorHandler--><a href="ConnectorHandler.html" target="_top" title="ConnectorHandler.html" xlink:actuate="onRequest" xlink:href="ConnectorHandler.html" xlink:show="new" xlink:title="ConnectorHandler.html" xlink:type="simple"><g id="elem_ConnectorHandler"><rect codeLine="58" fill="#F1F1F1" height="48" id="ConnectorHandler" rx="2.5" ry="2.5" style="stroke:#181818;stroke-width:0.5;" width="158" x="716" y="557.5"/><ellipse cx="731" cy="573.5" fill="#ADD1B2" rx="11" ry="11" style="stroke:#181818;stroke-width:1.0;"/><path d="M733.9688,579.1406 Q733.3906,579.4375 732.75,579.5781 Q732.1094,579.7344 731.4063,579.7344 Q728.9063,579.7344 727.5781,578.0938 Q726.2656,576.4375 726.2656,573.3125 Q726.2656,570.1875 727.5781,568.5313 Q728.9063,566.875 731.4063,566.875 Q732.1094,566.875 732.75,567.0313 Q733.4063,567.1875 733.9688,567.4844 L733.9688,570.2031 Q733.3438,569.625 732.75,569.3594 Q732.1563,569.0781 731.5313,569.0781 Q730.1875,569.0781 729.5,570.1563 Q728.8125,571.2188 728.8125,573.3125 Q728.8125,575.4063 729.5,576.4844 Q730.1875,577.5469 731.5313,577.5469 Q732.1563,577.5469 732.75,577.2813 Q733.3438,577 733.9688,576.4219 L733.9688,579.1406 Z " fill="#000000"/><text fill="#000000" font-family="sans-serif" font-size="14" lengthAdjust="spacing" textLength="126" x="745" y="578.3467">ConnectorHandler</text><line style="stroke:#181818;stroke-width:0.5;" x1="717" x2="873" y1="589.5" y2="589.5"/><line style="stroke:#181818;stroke-width:0.5;" x1="717" x2="873" y1="597.5" y2="597.5"/></g></a><!--class ConnectorsHandler--><a href="ConnectorsHandler.html" target="_top" title="ConnectorsHandler.html" xlink:actuate="onRequest" xlink:href="ConnectorsHandler.html" xlink:show="new" xlink:title="ConnectorsHandler.html" xlink:type="simple"><g id="elem_ConnectorsHandler"><rect codeLine="61" fill="#F1F1F1" height="48" id="ConnectorsHandler" rx="2.5" ry="2.5" style="stroke:#181818;stroke-width:0.5;" width="166" x="909" y="557.5"/><ellipse cx="924" cy="573.5" fill="#ADD1B2" rx="11" ry="11" style="stroke:#181818;stroke-width:1.0;"/><path d="M926.9688,579.1406 Q926.3906,579.4375 925.75,579.5781 Q925.1094,579.7344 924.4063,579.7344 Q921.9063,579.7344 920.5781,578.0938 Q919.2656,576.4375 919.2656,573.3125 Q919.2656,570.1875 920.5781,568.5313 Q921.9063,566.875 924.4063,566.875 Q925.1094,566.875 925.75,567.0313 Q926.4063,567.1875 926.9688,567.4844 L926.9688,570.2031 Q926.3438,569.625 925.75,569.3594 Q925.1563,569.0781 924.5313,569.0781 Q923.1875,569.0781 922.5,570.1563 Q921.8125,571.2188 921.8125,573.3125 Q921.8125,575.4063 922.5,576.4844 Q923.1875,577.5469 924.5313,577.5469 Q925.1563,577.5469 925.75,577.2813 Q926.3438,577 926.9688,576.4219 L926.9688,579.1406 Z " fill="#000000"/><text fill="#000000" font-family="sans-serif" font-size="14" lengthAdjust="spacing" textLength="134" x="938" y="578.3467">ConnectorsHandler</text><line style="stroke:#181818;stroke-width:0.5;" x1="910" x2="1074" y1="589.5" y2="589.5"/><line style="stroke:#181818;stroke-width:0.5;" x1="910" x2="1074" y1="597.5" y2="597.5"/></g></a><!--class UML2Utils--><a href="UML2Utils.html" target="_top" title="UML2Utils.html" xlink:actuate="onRequest" xlink:href="UML2Utils.html" xlink:show="new" xlink:title="UML2Utils.html" xlink:type="simple"><g id="elem_UML2Utils"><rect codeLine="64" fill="#F1F1F1" height="48" id="UML2Utils" rx="2.5" ry="2.5" style="stroke:#181818;stroke-width:0.5;" width="99" x="116.5" y="804"/><ellipse cx="131.5" cy="820" fill="#ADD1B2" rx="11" ry="11" style="stroke:#181818;stroke-width:1.0;"/><path d="M134.4688,825.6406 Q133.8906,825.9375 133.25,826.0781 Q132.6094,826.2344 131.9063,826.2344 Q129.4063,826.2344 128.0781,824.5938 Q126.7656,822.9375 126.7656,819.8125 Q126.7656,816.6875 128.0781,815.0313 Q129.4063,813.375 131.9063,813.375 Q132.6094,813.375 133.25,813.5313 Q133.9063,813.6875 134.4688,813.9844 L134.4688,816.7031 Q133.8438,816.125 133.25,815.8594 Q132.6563,815.5781 132.0313,815.5781 Q130.6875,815.5781 130,816.6563 Q129.3125,817.7188 129.3125,819.8125 Q129.3125,821.9063 130,822.9844 Q130.6875,824.0469 132.0313,824.0469 Q132.6563,824.0469 133.25,823.7813 Q133.8438,823.5 134.4688,822.9219 L134.4688,825.6406 Z " fill="#000000"/><text fill="#000000" font-family="sans-serif" font-size="14" lengthAdjust="spacing" textLength="67" x="145.5" y="824.8467">UML2Utils</text><line style="stroke:#181818;stroke-width:0.5;" x1="117.5" x2="214.5" y1="836" y2="836"/><line style="stroke:#181818;stroke-width:0.5;" x1="117.5" x2="214.5" y1="844" y2="844"/></g></a><!--class AlloyExprFactory--><a href="AlloyExprFactory.html" target="_top" title="AlloyExprFactory.html" xlink:actuate="onRequest" xlink:href="AlloyExprFactory.html" xlink:show="new" xlink:title="AlloyExprFactory.html" xlink:type="simple"><g id="elem_AlloyExprFactory"><rect codeLine="67" fill="#F1F1F1" height="48" id="AlloyExprFactory" rx="2.5" ry="2.5" style="stroke:#181818;stroke-width:0.5;" width="143" x="250.5" y="804"/><ellipse cx="265.5" cy="820" fill="#ADD1B2" rx="11" ry="11" style="stroke:#181818;stroke-width:1.0;"/><path d="M268.4688,825.6406 Q267.8906,825.9375 267.25,826.0781 Q266.6094,826.2344 265.9063,826.2344 Q263.4063,826.2344 262.0781,824.5938 Q260.7656,822.9375 260.7656,819.8125 Q260.7656,816.6875 262.0781,815.0313 Q263.4063,813.375 265.9063,813.375 Q266.6094,813.375 267.25,813.5313 Q267.9063,813.6875 268.4688,813.9844 L268.4688,816.7031 Q267.8438,816.125 267.25,815.8594 Q266.6563,815.5781 266.0313,815.5781 Q264.6875,815.5781 264,816.6563 Q263.3125,817.7188 263.3125,819.8125 Q263.3125,821.9063 264,822.9844 Q264.6875,824.0469 266.0313,824.0469 Q266.6563,824.0469 267.25,823.7813 Q267.8438,823.5 268.4688,822.9219 L268.4688,825.6406 Z " fill="#000000"/><text fill="#000000" font-family="sans-serif" font-size="14" lengthAdjust="spacing" textLength="111" x="279.5" y="824.8467">AlloyExprFactory</text><line style="stroke:#181818;stroke-width:0.5;" x1="251.5" x2="392.5" y1="836" y2="836"/><line style="stroke:#181818;stroke-width:0.5;" x1="251.5" x2="392.5" y1="844" y2="844"/></g></a><!--class ConnectorHandler_Transfer--><a href="ConnectorHandler_Transfer.html" target="_top" title="ConnectorHandler_Transfer.html" xlink:actuate="onRequest" xlink:href="ConnectorHandler_Transfer.html" xlink:show="new" xlink:title="ConnectorHandler_Transfer.html" xlink:type="simple"><g id="elem_ConnectorHandler_Transfer"><rect codeLine="70" fill="#F1F1F1" height="48" id="ConnectorHandler_Transfer" rx="2.5" ry="2.5" style="stroke:#181818;stroke-width:0.5;" width="222" x="429" y="804"/><ellipse cx="444" cy="820" fill="#ADD1B2" rx="11" ry="11" style="stroke:#181818;stroke-width:1.0;"/><path d="M446.9688,825.6406 Q446.3906,825.9375 445.75,826.0781 Q445.1094,826.2344 444.4063,826.2344 Q441.9063,826.2344 440.5781,824.5938 Q439.2656,822.9375 439.2656,819.8125 Q439.2656,816.6875 440.5781,815.0313 Q441.9063,813.375 444.4063,813.375 Q445.1094,813.375 445.75,813.5313 Q446.4063,813.6875 446.9688,813.9844 L446.9688,816.7031 Q446.3438,816.125 445.75,815.8594 Q445.1563,815.5781 444.5313,815.5781 Q443.1875,815.5781 442.5,816.6563 Q441.8125,817.7188 441.8125,819.8125 Q441.8125,821.9063 442.5,822.9844 Q443.1875,824.0469 444.5313,824.0469 Q445.1563,824.0469 445.75,823.7813 Q446.3438,823.5 446.9688,822.9219 L446.9688,825.6406 Z " fill="#000000"/><text fill="#000000" font-family="sans-serif" font-size="14" lengthAdjust="spacing" textLength="190" x="458" y="824.8467">ConnectorHandler_Transfer</text><line style="stroke:#181818;stroke-width:0.5;" x1="430" x2="650" y1="836" y2="836"/><line style="stroke:#181818;stroke-width:0.5;" x1="430" x2="650" y1="844" y2="844"/></g></a><!--class VisitQuery--><g id="elem_VisitQuery"><rect codeLine="76" fill="#F1F1F1" height="48" id="VisitQuery" rx="2.5" ry="2.5" style="stroke:#181818;stroke-width:0.5;" width="113" x="67.5" y="41"/><ellipse cx="82.5" cy="57" fill="#A9DCDF" rx="11" ry="11" style="stroke:#181818;stroke-width:1.0;"/><path d="M82.6094,52.3438 L81.4531,57.4219 L83.7813,57.4219 L82.6094,52.3438 Z M81.125,50.1094 L84.1094,50.1094 L87.4688,62.5 L85.0156,62.5 L84.25,59.4375 L80.9688,59.4375 L80.2188,62.5 L77.7813,62.5 L81.125,50.1094 Z " fill="#000000"/><text fill="#000000" font-family="sans-serif" font-size="14" font-style="italic" lengthAdjust="spacing" textLength="70" x="96.5" y="61.8467">VisitQuery</text><rect fill="#FFFFFF" height="15.9688" style="stroke:#181818;stroke-width:1.0;stroke-dasharray:2.0,2.0;" width="9" x="174.5" y="38"/><text fill="#000000" font-family="sans-serif" font-size="12" font-style="italic" lengthAdjust="spacing" textLength="7" x="175.5" y="50.1387">T</text><line style="stroke:#181818;stroke-width:0.5;" x1="68.5" x2="179.5" y1="73" y2="73"/><line style="stroke:#181818;stroke-width:0.5;" x1="68.5" x2="179.5" y1="81" y2="81"/></g><!--reverse link VisitQuery to ExprVisitor--><g id="link_VisitQuery_ExprVisitor"><path codeLine="79" d="M124,107.08 C124,125.89 124,135.83 124,163.72 " fill="none" id="VisitQuery-backto-ExprVisitor" style="stroke:#181818;stroke-width:1.0;"/><polygon fill="none" points="124,89.08,118,107.08,130,107.08,124,89.08" style="stroke:#181818;stroke-width:1.0;"/></g><text fill="#888888" font-family="sans-serif" font-size="10" lengthAdjust="spacing" textLength="186" x="449" y="883.2822">UMLDoclet 2.1.1, PlantUML 1.2023.12</text><!--SRC=[dLPTJzim57tVh_3BfA9197YiAYGeL4EYAwmK8LLeSftRr9fZLxvkjuxnttVjD6qWpSU8r3Inppc-zlt8POmn14U_9RVS6SkwtK-VQ90jkVZ94s0GhwA4En2BA75MHcQMHbmfiucSvHfL8Bra77y9nH5PtsWDWgRmAzUn0ljZf64qPzDfnKoqSAbwVYQbNEZrlUQ3kV3haiRsgGNd-lVIFagKtiZfjF1MvlhhozhFTZpkKcfkDqTTDgPTwwGArgUpQ0OPZOvhrmYybTWCkc-6J5hP_iXjBMOiazhvWGGLbn4b9umkXq_3cxFSUyNN2ZSK8PrC_kWjGXaUFwLo81Lq_8tCc1cZWEktE661WZS81MmcTipgE0cu8I1Iz6E7CDuflOntNW9UMsji8xfq97r_Xpm5V5gy6MWHsVbfrXsZrD99hkGVy9QjZOmRz2PEAin5myjXvHSAPoV5AosHBerr0JyqyMhlZRv9bzb8Q-RMqIsu26e-iXTQ058kT-wiJ2bOZraMiOUSMbWN7-b8uWc2lOAvr737BMYtNxsUlk0u-gL7zaOlm4e7SSW2p6rev5FC1CR06e_V1UIUxrEp1Jap-yCI5-X1MojeEmupGVouHSr20Lgjz1suMF2PWkAkia3mPKOcrLIAenqxOrnkll4KoZArWUMtizB2IQFBJ3zJ5P0Kojj068FhXSVpl1faRpNCmDdMZBg2isVDmrgtV0RgtOe5gGgkCtIIT5u3BhoJGjuGoJiv5mZF5NGBgLd3c8h6OfypJP-0tLU_KF7U3RMeUQNUuL0_qK9dChmzoqlTxhbjpGrfm_sAk_9R6FgVNUGDq8DlfEO73sKtLwdxMcxNKkaYWLog2ECaukWAB3v3wjk4szeIkg7x5TXDx-6yg7TGfzlTurdlxyb9g-wmsotqNK5SK7cWxSwDyN_aWIiZ57MXPz5fT4hrGb6lHAFiynei-bGy-WS0]--></g></svg>