<?xml version="1.0" encoding="us-ascii" standalone="no"?><svg xmlns="http://www.w3.org/2000/svg" xmlns:xlink="http://www.w3.org/1999/xlink" contentStyleType="text/css" height="130px" preserveAspectRatio="none" style="width:194px;height:130px;background:#FFFFFF;" version="1.1" viewBox="0 0 194 130" width="194px" zoomAndPan="magnify"><defs/><g><!--cluster edu.gatech.gtri.obm--><g id="cluster_edu.gatech.gtri.obm"><path d="M14,6 L175,6 A3.75,3.75 0 0 1 177.5,8.5 L184.5,28.2969 L185,28.2969 A2.5,2.5 0 0 1 187.5,30.7969 L187.5,102.5 A2.5,2.5 0 0 1 185,105 L14,105 A2.5,2.5 0 0 1 11.5,102.5 L11.5,8.5 A2.5,2.5 0 0 1 14,6 " fill="none" style="stroke:#000000;stroke-width:1.5;"/><line style="stroke:#000000;stroke-width:1.5;" x1="11.5" x2="184.5" y1="28.2969" y2="28.2969"/><text fill="#000000" font-family="sans-serif" font-size="14" font-weight="bold" lengthAdjust="spacing" textLength="160" x="15.5" y="20.9951">edu.gatech.gtri.obm</text></g><!--class Main--><a href="Main.html" target="_top" title="Main.html" xlink:actuate="onRequest" xlink:href="Main.html" xlink:show="new" xlink:title="Main.html" xlink:type="simple"><g id="elem_Main"><rect codeLine="5" fill="#F1F1F1" height="48" id="Main" rx="2.5" ry="2.5" style="stroke:#181818;stroke-width:0.5;" width="64" x="67.5" y="41"/><ellipse cx="82.5" cy="57" fill="#ADD1B2" rx="11" ry="11" style="stroke:#181818;stroke-width:1.0;"/><path d="M85.4688,62.6406 Q84.8906,62.9375 84.25,63.0781 Q83.6094,63.2344 82.9063,63.2344 Q80.4063,63.2344 79.0781,61.5938 Q77.7656,59.9375 77.7656,56.8125 Q77.7656,53.6875 79.0781,52.0313 Q80.4063,50.375 82.9063,50.375 Q83.6094,50.375 84.25,50.5313 Q84.9063,50.6875 85.4688,50.9844 L85.4688,53.7031 Q84.8438,53.125 84.25,52.8594 Q83.6563,52.5781 83.0313,52.5781 Q81.6875,52.5781 81,53.6563 Q80.3125,54.7188 80.3125,56.8125 Q80.3125,58.9063 81,59.9844 Q81.6875,61.0469 83.0313,61.0469 Q83.6563,61.0469 84.25,60.7813 Q84.8438,60.5 85.4688,59.9219 L85.4688,62.6406 Z " fill="#000000"/><text fill="#000000" font-family="sans-serif" font-size="14" lengthAdjust="spacing" textLength="32" x="96.5" y="61.8467">Main</text><line style="stroke:#181818;stroke-width:0.5;" x1="68.5" x2="130.5" y1="73" y2="73"/><line style="stroke:#181818;stroke-width:0.5;" x1="68.5" x2="130.5" y1="81" y2="81"/></g></a><text fill="#888888" font-family="sans-serif" font-size="10" lengthAdjust="spacing" textLength="186" x="0" y="120.2822">UMLDoclet 2.1.1, PlantUML 1.2023.12</text><!--SRC=[9Oqn2y8m58Jt_efR10K9rB6pemKNfzBX6PzfCCqhoQkB-DzDxC7T1yV10K1cBLueaKf2rpLDAR6GVP5Zy6CrZfJjP9mcR-G-uxDDgcoWdD6JZnY62ZFf7CPnMtp_QJag9pn5AcxzvImsbDEJQKrxn3LGrD9Yz-QKlSJzuGS0]--></g></svg>