<?xml version="1.0" encoding="us-ascii" standalone="no"?><svg xmlns="http://www.w3.org/2000/svg" xmlns:xlink="http://www.w3.org/1999/xlink" contentStyleType="text/css" height="1525px" preserveAspectRatio="none" style="width:1890px;height:1525px;background:#FFFFFF;" version="1.1" viewBox="0 0 1890 1525" width="1890px" zoomAndPan="magnify"><defs/><g><!--cluster edu.gatech.gtri.obm.translator.alloy--><g id="cluster_edu.gatech.gtri.obm.translator.alloy"><path d="M8.5,6 L292.5,6 A3.75,3.75 0 0 1 295,8.5 L302,28.2969 L1880.5,28.2969 A2.5,2.5 0 0 1 1883,30.7969 L1883,1497.5 A2.5,2.5 0 0 1 1880.5,1500 L8.5,1500 A2.5,2.5 0 0 1 6,1497.5 L6,8.5 A2.5,2.5 0 0 1 8.5,6 " fill="none" style="stroke:#000000;stroke-width:1.5;"/><line style="stroke:#000000;stroke-width:1.5;" x1="6" x2="302" y1="28.2969" y2="28.2969"/><text fill="#000000" font-family="sans-serif" font-size="14" font-weight="bold" lengthAdjust="spacing" textLength="283" x="10" y="20.9951">edu.gatech.gtri.obm.translator.alloy</text></g><!--class FuncUtils--><a href="FuncUtils.html" target="_top" title="FuncUtils.html" xlink:actuate="onRequest" xlink:href="FuncUtils.html" xlink:show="new" xlink:title="FuncUtils.html" xlink:type="simple"><g id="elem_FuncUtils"><rect codeLine="5" fill="#F1F1F1" height="439.125" id="FuncUtils" rx="2.5" ry="2.5" style="stroke:#181818;stroke-width:0.5;" width="527" x="22.5" y="41"/><ellipse cx="250.25" cy="57" fill="#ADD1B2" rx="11" ry="11" style="stroke:#181818;stroke-width:1.0;"/><path d="M253.2188,62.6406 Q252.6406,62.9375 252,63.0781 Q251.3594,63.2344 250.6563,63.2344 Q248.1563,63.2344 246.8281,61.5938 Q245.5156,59.9375 245.5156,56.8125 Q245.5156,53.6875 246.8281,52.0313 Q248.1563,50.375 250.6563,50.375 Q251.3594,50.375 252,50.5313 Q252.6563,50.6875 253.2188,50.9844 L253.2188,53.7031 Q252.5938,53.125 252,52.8594 Q251.4063,52.5781 250.7813,52.5781 Q249.4375,52.5781 248.75,53.6563 Q248.0625,54.7188 248.0625,56.8125 Q248.0625,58.9063 248.75,59.9844 Q249.4375,61.0469 250.7813,61.0469 Q251.4063,61.0469 252,60.7813 Q252.5938,60.5 253.2188,59.9219 L253.2188,62.6406 Z " fill="#000000"/><text fill="#000000" font-family="sans-serif" font-size="14" lengthAdjust="spacing" textLength="63" x="270.75" y="61.8467">FuncUtils</text><line style="stroke:#181818;stroke-width:0.5;" x1="23.5" x2="548.5" y1="73" y2="73"/><line style="stroke:#181818;stroke-width:0.5;" x1="23.5" x2="548.5" y1="81" y2="81"/><ellipse cx="33.5" cy="94.6484" fill="#84BE84" rx="3" ry="3" style="stroke:#038048;stroke-width:1.0;"/><text fill="#000000" font-family="sans-serif" font-size="14" lengthAdjust="spacing" text-decoration="underline" textLength="344" x="42.5" y="97.9951">getDuringExampleExpr(String, Sig, Field, Sig): Expr</text><ellipse cx="33.5" cy="110.9453" fill="#84BE84" rx="3" ry="3" style="stroke:#038048;stroke-width:1.0;"/><text fill="#000000" font-family="sans-serif" font-size="14" lengthAdjust="spacing" text-decoration="underline" textLength="249" x="42.5" y="114.292">exprToFunToExpr(String, Expr): Expr</text><ellipse cx="33.5" cy="127.2422" fill="#84BE84" rx="3" ry="3" style="stroke:#038048;stroke-width:1.0;"/><text fill="#000000" font-family="sans-serif" font-size="14" lengthAdjust="spacing" text-decoration="underline" textLength="207" x="42.5" y="130.5889">addField(String, Sig, Sig): Field</text><ellipse cx="33.5" cy="143.5391" fill="#84BE84" rx="3" ry="3" style="stroke:#038048;stroke-width:1.0;"/><text fill="#000000" font-family="sans-serif" font-size="14" lengthAdjust="spacing" text-decoration="underline" textLength="236" x="42.5" y="146.8857">addOneField(String, Sig, Sig): Field</text><ellipse cx="33.5" cy="159.8359" fill="#84BE84" rx="3" ry="3" style="stroke:#038048;stroke-width:1.0;"/><text fill="#000000" font-family="sans-serif" font-size="14" lengthAdjust="spacing" text-decoration="underline" textLength="267" x="42.5" y="163.1826">addTrickyField(String[], Sig, Sig): Field[]</text><ellipse cx="33.5" cy="176.1328" fill="#84BE84" rx="3" ry="3" style="stroke:#038048;stroke-width:1.0;"/><text fill="#000000" font-family="sans-serif" font-size="14" lengthAdjust="spacing" text-decoration="underline" textLength="289" x="42.5" y="179.4795">createExprEqualToNumber(Expr, int): Expr</text><ellipse cx="33.5" cy="192.4297" fill="#84BE84" rx="3" ry="3" style="stroke:#038048;stroke-width:1.0;"/><text fill="#000000" font-family="sans-serif" font-size="14" lengthAdjust="spacing" text-decoration="underline" textLength="376" x="42.5" y="195.7764">createExprGreaterThanEqualToNumber(Expr, int): Expr</text><ellipse cx="33.5" cy="208.7266" fill="#84BE84" rx="3" ry="3" style="stroke:#038048;stroke-width:1.0;"/><text fill="#000000" font-family="sans-serif" font-size="14" lengthAdjust="spacing" text-decoration="underline" textLength="303" x="42.5" y="212.0732">createExprGreaterToNumber(Expr, int): Expr</text><ellipse cx="33.5" cy="225.0234" fill="#84BE84" rx="3" ry="3" style="stroke:#038048;stroke-width:1.0;"/><text fill="#000000" font-family="sans-serif" font-size="14" lengthAdjust="spacing" text-decoration="underline" textLength="450" x="42.5" y="228.3701">addBijectionFilteredExprHappensBefore(Module, Expr, Expr): Expr</text><ellipse cx="33.5" cy="241.3203" fill="#84BE84" rx="3" ry="3" style="stroke:#038048;stroke-width:1.0;"/><text fill="#000000" font-family="sans-serif" font-size="14" lengthAdjust="spacing" text-decoration="underline" textLength="451" x="42.5" y="244.667">addFunctionFilteredExprHappensBefore(Module, Expr, Expr): Expr</text><ellipse cx="33.5" cy="257.6172" fill="#84BE84" rx="3" ry="3" style="stroke:#038048;stroke-width:1.0;"/><text fill="#000000" font-family="sans-serif" font-size="14" lengthAdjust="spacing" text-decoration="underline" textLength="501" x="42.5" y="260.9639">addInverseFunctionFilteredExprHappensBefore(Module, Expr, Expr): Expr</text><ellipse cx="33.5" cy="273.9141" fill="#84BE84" rx="3" ry="3" style="stroke:#038048;stroke-width:1.0;"/><text fill="#000000" font-family="sans-serif" font-size="14" lengthAdjust="spacing" text-decoration="underline" textLength="190" x="42.5" y="277.2607">addExprs(List&lt;Expr&gt;): Expr</text><ellipse cx="33.5" cy="290.2109" fill="#84BE84" rx="3" ry="3" style="stroke:#038048;stroke-width:1.0;"/><text fill="#000000" font-family="sans-serif" font-size="14" lengthAdjust="spacing" text-decoration="underline" textLength="191" x="42.5" y="293.5576">addToExpr(Expr, Expr): Expr</text><ellipse cx="33.5" cy="306.5078" fill="#84BE84" rx="3" ry="3" style="stroke:#038048;stroke-width:1.0;"/><text fill="#000000" font-family="sans-serif" font-size="14" lengthAdjust="spacing" text-decoration="underline" textLength="276" x="42.5" y="309.8545">addNonZeroDurationOnly(Module): Expr</text><ellipse cx="33.5" cy="322.8047" fill="#84BE84" rx="3" ry="3" style="stroke:#038048;stroke-width:1.0;"/><text fill="#000000" font-family="sans-serif" font-size="14" lengthAdjust="spacing" text-decoration="underline" textLength="287" x="42.5" y="326.1514">addSuppressTransfersExpr(Module): Expr</text><ellipse cx="33.5" cy="339.1016" fill="#84BE84" rx="3" ry="3" style="stroke:#038048;stroke-width:1.0;"/><text fill="#000000" font-family="sans-serif" font-size="14" lengthAdjust="spacing" text-decoration="underline" textLength="236" x="42.5" y="342.4482">addSuppressIOExpr(Module): Expr</text><ellipse cx="33.5" cy="355.3984" fill="#84BE84" rx="3" ry="3" style="stroke:#038048;stroke-width:1.0;"/><text fill="#000000" font-family="sans-serif" font-size="14" lengthAdjust="spacing" text-decoration="underline" textLength="226" x="42.5" y="358.7451">onlyOneSigExpr(String, Sig): Expr</text><ellipse cx="33.5" cy="371.6953" fill="#84BE84" rx="3" ry="3" style="stroke:#038048;stroke-width:1.0;"/><text fill="#000000" font-family="sans-serif" font-size="14" lengthAdjust="spacing" text-decoration="underline" textLength="274" x="42.5" y="375.042">addStep(Module, List&lt;Field&gt;, Sig): Expr</text><ellipse cx="33.5" cy="387.9922" fill="#84BE84" rx="3" ry="3" style="stroke:#038048;stroke-width:1.0;"/><text fill="#000000" font-family="sans-serif" font-size="14" lengthAdjust="spacing" text-decoration="underline" textLength="326" x="42.5" y="391.3389">addFieldsInStep(Module, List&lt;Field&gt;, Sig): Expr</text><ellipse cx="33.5" cy="404.2891" fill="#84BE84" rx="3" ry="3" style="stroke:#038048;stroke-width:1.0;"/><text fill="#000000" font-family="sans-serif" font-size="14" lengthAdjust="spacing" text-decoration="underline" textLength="334" x="42.5" y="407.6357">addStepsInFields(Module, List&lt;Field&gt;, Sig): Expr</text><ellipse cx="33.5" cy="420.5859" fill="#84BE84" rx="3" ry="3" style="stroke:#038048;stroke-width:1.0;"/><text fill="#000000" font-family="sans-serif" font-size="14" lengthAdjust="spacing" text-decoration="underline" textLength="437" x="42.5" y="423.9326">createConstraintExpr(Module, Sig, List&lt;Field&gt;, List&lt;Sig&gt;): Expr</text><ellipse cx="33.5" cy="436.8828" fill="#84BE84" rx="3" ry="3" style="stroke:#038048;stroke-width:1.0;"/><text fill="#000000" font-family="sans-serif" font-size="14" lengthAdjust="spacing" text-decoration="underline" textLength="383" x="42.5" y="440.2295">forkHappensBefore(Module, Sig, Field, Field, Field): Expr</text><ellipse cx="33.5" cy="453.1797" fill="#84BE84" rx="3" ry="3" style="stroke:#038048;stroke-width:1.0;"/><text fill="#000000" font-family="sans-serif" font-size="14" lengthAdjust="spacing" text-decoration="underline" textLength="427" x="42.5" y="456.5264">decisionHappensBefore(Module, Sig, Field, Field, Field...): Expr</text><ellipse cx="33.5" cy="469.4766" fill="#84BE84" rx="3" ry="3" style="stroke:#038048;stroke-width:1.0;"/><text fill="#000000" font-family="sans-serif" font-size="14" lengthAdjust="spacing" text-decoration="underline" textLength="387" x="42.5" y="472.8232">loopHappensBefore(Module, Sig, Field, Field, Field): Expr</text></g></a><!--class AlloyUtils--><a href="AlloyUtils.html" target="_top" title="AlloyUtils.html" xlink:actuate="onRequest" xlink:href="AlloyUtils.html" xlink:show="new" xlink:title="AlloyUtils.html" xlink:type="simple"><g id="elem_AlloyUtils"><rect codeLine="32" fill="#F1F1F1" height="390.2344" id="AlloyUtils" rx="2.5" ry="2.5" style="stroke:#181818;stroke-width:0.5;" width="745" x="584.5" y="65.5"/><ellipse cx="922.75" cy="81.5" fill="#ADD1B2" rx="11" ry="11" style="stroke:#181818;stroke-width:1.0;"/><path d="M925.7188,87.1406 Q925.1406,87.4375 924.5,87.5781 Q923.8594,87.7344 923.1563,87.7344 Q920.6563,87.7344 919.3281,86.0938 Q918.0156,84.4375 918.0156,81.3125 Q918.0156,78.1875 919.3281,76.5313 Q920.6563,74.875 923.1563,74.875 Q923.8594,74.875 924.5,75.0313 Q925.1563,75.1875 925.7188,75.4844 L925.7188,78.2031 Q925.0938,77.625 924.5,77.3594 Q923.9063,77.0781 923.2813,77.0781 Q921.9375,77.0781 921.25,78.1563 Q920.5625,79.2188 920.5625,81.3125 Q920.5625,83.4063 921.25,84.4844 Q921.9375,85.5469 923.2813,85.5469 Q923.9063,85.5469 924.5,85.2813 Q925.0938,85 925.7188,84.4219 L925.7188,87.1406 Z " fill="#000000"/><text fill="#000000" font-family="sans-serif" font-size="14" lengthAdjust="spacing" textLength="60" x="943.25" y="86.3467">AlloyUtils</text><line style="stroke:#181818;stroke-width:0.5;" x1="585.5" x2="1328.5" y1="97.5" y2="97.5"/><line style="stroke:#181818;stroke-width:0.5;" x1="585.5" x2="1328.5" y1="105.5" y2="105.5"/><ellipse cx="595.5" cy="119.1484" fill="#84BE84" rx="3" ry="3" style="stroke:#038048;stroke-width:1.0;"/><text fill="#000000" font-family="sans-serif" font-size="14" lengthAdjust="spacing" text-decoration="underline" textLength="311" x="604.5" y="122.4951">hasParameterField(Sig, Set&lt;Field&gt;): boolean</text><ellipse cx="595.5" cy="135.4453" fill="#84BE84" rx="3" ry="3" style="stroke:#038048;stroke-width:1.0;"/><text fill="#000000" font-family="sans-serif" font-size="14" lengthAdjust="spacing" text-decoration="underline" textLength="260" x="604.5" y="138.792">importAlloyModule(File): CompModule</text><ellipse cx="595.5" cy="151.7422" fill="#84BE84" rx="3" ry="3" style="stroke:#038048;stroke-width:1.0;"/><text fill="#000000" font-family="sans-serif" font-size="14" lengthAdjust="spacing" text-decoration="underline" textLength="277" x="604.5" y="155.0889">importAlloyModule(String): CompModule</text><ellipse cx="595.5" cy="168.0391" fill="#84BE84" rx="3" ry="3" style="stroke:#038048;stroke-width:1.0;"/><text fill="#000000" font-family="sans-serif" font-size="14" lengthAdjust="spacing" text-decoration="underline" textLength="188" x="604.5" y="171.3857">removeSlash(String): String</text><ellipse cx="595.5" cy="184.3359" fill="#84BE84" rx="3" ry="3" style="stroke:#038048;stroke-width:1.0;"/><text fill="#000000" font-family="sans-serif" font-size="14" lengthAdjust="spacing" text-decoration="underline" textLength="190" x="604.5" y="187.6826">validParent(String): boolean</text><ellipse cx="595.5" cy="200.6328" fill="#84BE84" rx="3" ry="3" style="stroke:#038048;stroke-width:1.0;"/><text fill="#000000" font-family="sans-serif" font-size="14" lengthAdjust="spacing" text-decoration="underline" textLength="288" x="604.5" y="203.9795">findFieldWithType(Sig, String): List&lt;Field&gt;</text><ellipse cx="595.5" cy="216.9297" fill="#84BE84" rx="3" ry="3" style="stroke:#038048;stroke-width:1.0;"/><text fill="#000000" font-family="sans-serif" font-size="14" lengthAdjust="spacing" text-decoration="underline" textLength="210" x="604.5" y="220.2764">hasTransferField(Sig): boolean</text><ellipse cx="595.5" cy="233.2266" fill="#84BE84" rx="3" ry="3" style="stroke:#038048;stroke-width:1.0;"/><text fill="#000000" font-family="sans-serif" font-size="14" lengthAdjust="spacing" text-decoration="underline" textLength="261" x="604.5" y="236.5732">getFieldFromSig(String, PrimSig): Field</text><ellipse cx="595.5" cy="249.5234" fill="#84BE84" rx="3" ry="3" style="stroke:#038048;stroke-width:1.0;"/><text fill="#000000" font-family="sans-serif" font-size="14" lengthAdjust="spacing" text-decoration="underline" textLength="346" x="604.5" y="252.8701">getFieldFromSigOrItsParents(String, PrimSig): Field</text><ellipse cx="595.5" cy="265.8203" fill="#84BE84" rx="3" ry="3" style="stroke:#038048;stroke-width:1.0;"/><text fill="#000000" font-family="sans-serif" font-size="14" lengthAdjust="spacing" text-decoration="underline" textLength="306" x="604.5" y="269.167">getFieldFromParentSig(String, PrimSig): Field</text><ellipse cx="595.5" cy="282.1172" fill="#84BE84" rx="3" ry="3" style="stroke:#038048;stroke-width:1.0;"/><text fill="#000000" font-family="sans-serif" font-size="14" lengthAdjust="spacing" text-decoration="underline" textLength="280" x="604.5" y="285.4639">getSigDomainFileld(String, PrimSig): Expr</text><ellipse cx="595.5" cy="298.4141" fill="#84BE84" rx="3" ry="3" style="stroke:#038048;stroke-width:1.0;"/><text fill="#000000" font-family="sans-serif" font-size="14" lengthAdjust="spacing" text-decoration="underline" textLength="255" x="604.5" y="301.7607">getSigOwnField(String, PrimSig): Expr</text><ellipse cx="595.5" cy="314.7109" fill="#84BE84" rx="3" ry="3" style="stroke:#038048;stroke-width:1.0;"/><text fill="#000000" font-family="sans-serif" font-size="14" lengthAdjust="spacing" text-decoration="underline" textLength="344" x="604.5" y="318.0576">getFieldFromSigByFieldType(String, PrimSig): Field</text><ellipse cx="595.5" cy="331.0078" fill="#84BE84" rx="3" ry="3" style="stroke:#038048;stroke-width:1.0;"/><text fill="#000000" font-family="sans-serif" font-size="14" lengthAdjust="spacing" text-decoration="underline" textLength="309" x="604.5" y="334.3545">addAllReachableSig(Module, List&lt;Sig&gt;): void</text><ellipse cx="595.5" cy="347.3047" fill="#84BE84" rx="3" ry="3" style="stroke:#038048;stroke-width:1.0;"/><text fill="#000000" font-family="sans-serif" font-size="14" lengthAdjust="spacing" text-decoration="underline" textLength="328" x="604.5" y="350.6514">getReachableSigField(Module, Sig, String): Field</text><ellipse cx="595.5" cy="363.6016" fill="#84BE84" rx="3" ry="3" style="stroke:#038048;stroke-width:1.0;"/><text fill="#000000" font-family="sans-serif" font-size="14" lengthAdjust="spacing" text-decoration="underline" textLength="256" x="604.5" y="366.9482">getReachableSig(Module, String): Sig</text><ellipse cx="595.5" cy="379.8984" fill="#84BE84" rx="3" ry="3" style="stroke:#038048;stroke-width:1.0;"/><text fill="#000000" font-family="sans-serif" font-size="14" lengthAdjust="spacing" text-decoration="underline" textLength="388" x="604.5" y="383.2451">getAllReachableModuleByName(Module, String): Module</text><ellipse cx="595.5" cy="396.1953" fill="#84BE84" rx="3" ry="3" style="stroke:#038048;stroke-width:1.0;"/><text fill="#000000" font-family="sans-serif" font-size="14" lengthAdjust="spacing" text-decoration="underline" textLength="235" x="604.5" y="399.542">getFunction(Module, String): Func</text><ellipse cx="595.5" cy="412.4922" fill="#84BE84" rx="3" ry="3" style="stroke:#038048;stroke-width:1.0;"/><text fill="#000000" font-family="sans-serif" font-size="14" lengthAdjust="spacing" text-decoration="underline" textLength="719" x="604.5" y="415.8389">getInheritedFields(PrimSig, HashMap&lt;String, Set&lt;String&gt;&gt;, Map&lt;String, NamedElement&gt;): Set&lt;Field&gt;</text><ellipse cx="595.5" cy="428.7891" fill="#84BE84" rx="3" ry="3" style="stroke:#038048;stroke-width:1.0;"/><text fill="#000000" font-family="sans-serif" font-size="14" lengthAdjust="spacing" text-decoration="underline" textLength="244" x="604.5" y="432.1357">sortFields(Set&lt;Field&gt;): List&lt;Field&gt;</text><ellipse cx="595.5" cy="445.0859" fill="#84BE84" rx="3" ry="3" style="stroke:#038048;stroke-width:1.0;"/><text fill="#000000" font-family="sans-serif" font-size="14" lengthAdjust="spacing" text-decoration="underline" textLength="265" x="604.5" y="448.4326">fieldsLabels(Set&lt;Field&gt;): Set&lt;String&gt;</text></g></a><!--class VisualizerHelper--><a href="VisualizerHelper.html" target="_top" title="VisualizerHelper.html" xlink:actuate="onRequest" xlink:href="VisualizerHelper.html" xlink:show="new" xlink:title="VisualizerHelper.html" xlink:type="simple"><g id="elem_VisualizerHelper"><rect codeLine="56" fill="#F1F1F1" height="162.0781" id="VisualizerHelper" rx="2.5" ry="2.5" style="stroke:#181818;stroke-width:0.5;" width="502" x="1365" y="179.5"/><ellipse cx="1556.75" cy="195.5" fill="#ADD1B2" rx="11" ry="11" style="stroke:#181818;stroke-width:1.0;"/><path d="M1559.7188,201.1406 Q1559.1406,201.4375 1558.5,201.5781 Q1557.8594,201.7344 1557.1563,201.7344 Q1554.6563,201.7344 1553.3281,200.0938 Q1552.0156,198.4375 1552.0156,195.3125 Q1552.0156,192.1875 1553.3281,190.5313 Q1554.6563,188.875 1557.1563,188.875 Q1557.8594,188.875 1558.5,189.0313 Q1559.1563,189.1875 1559.7188,189.4844 L1559.7188,192.2031 Q1559.0938,191.625 1558.5,191.3594 Q1557.9063,191.0781 1557.2813,191.0781 Q1555.9375,191.0781 1555.25,192.1563 Q1554.5625,193.2188 1554.5625,195.3125 Q1554.5625,197.4063 1555.25,198.4844 Q1555.9375,199.5469 1557.2813,199.5469 Q1557.9063,199.5469 1558.5,199.2813 Q1559.0938,199 1559.7188,198.4219 L1559.7188,201.1406 Z " fill="#000000"/><text fill="#000000" font-family="sans-serif" font-size="14" lengthAdjust="spacing" textLength="110" x="1577.25" y="200.3467">VisualizerHelper</text><line style="stroke:#181818;stroke-width:0.5;" x1="1366" x2="1866" y1="211.5" y2="211.5"/><line style="stroke:#181818;stroke-width:0.5;" x1="1366" x2="1866" y1="219.5" y2="219.5"/><ellipse cx="1376" cy="233.1484" fill="#84BE84" rx="3" ry="3" style="stroke:#038048;stroke-width:1.0;"/><text fill="#000000" font-family="sans-serif" font-size="14" lengthAdjust="spacing" text-decoration="underline" textLength="211" x="1385" y="236.4951">updateUpdated(boolean): void</text><ellipse cx="1376" cy="249.4453" fill="#84BE84" rx="3" ry="3" style="stroke:#038048;stroke-width:1.0;"/><text fill="#000000" font-family="sans-serif" font-size="14" lengthAdjust="spacing" text-decoration="underline" textLength="159" x="1385" y="252.792">hasUpdated(): boolean</text><ellipse cx="1376" cy="265.7422" fill="#84BE84" rx="3" ry="3" style="stroke:#038048;stroke-width:1.0;"/><text fill="#000000" font-family="sans-serif" font-size="14" lengthAdjust="spacing" text-decoration="underline" textLength="476" x="1385" y="269.0889">generateVisualizerWithNextCapability(Iterable&lt;Sig&gt;, Command): void</text><ellipse cx="1376" cy="282.0391" fill="#84BE84" rx="3" ry="3" style="stroke:#038048;stroke-width:1.0;"/><text fill="#000000" font-family="sans-serif" font-size="14" lengthAdjust="spacing" text-decoration="underline" textLength="116" x="1385" y="285.3857">updateVis(): void</text><ellipse cx="1376" cy="298.3359" fill="#84BE84" rx="3" ry="3" style="stroke:#038048;stroke-width:1.0;"/><text fill="#000000" font-family="sans-serif" font-size="14" lengthAdjust="spacing" text-decoration="underline" textLength="359" x="1385" y="301.6826">generateVisualizerX(Iterable&lt;Sig&gt;, Command): void</text><ellipse cx="1376" cy="314.6328" fill="#84BE84" rx="3" ry="3" style="stroke:#038048;stroke-width:1.0;"/><text fill="#000000" font-family="sans-serif" font-size="14" lengthAdjust="spacing" text-decoration="underline" textLength="350" x="1385" y="317.9795">generateVisualizer(Iterable&lt;Sig&gt;, Command): void</text><ellipse cx="1376" cy="330.9297" fill="#84BE84" rx="3" ry="3" style="stroke:#038048;stroke-width:1.0;"/><text fill="#000000" font-family="sans-serif" font-size="14" lengthAdjust="spacing" text-decoration="underline" textLength="226" x="1385" y="334.2764">generateVisualizer(Module): void</text></g></a><!--class AlloyRunUtils--><a href="AlloyRunUtils.html" target="_top" title="AlloyRunUtils.html" xlink:actuate="onRequest" xlink:href="AlloyRunUtils.html" xlink:show="new" xlink:title="AlloyRunUtils.html" xlink:type="simple"><g id="elem_AlloyRunUtils"><rect codeLine="66" fill="#F1F1F1" height="96.8906" id="AlloyRunUtils" rx="2.5" ry="2.5" style="stroke:#181818;stroke-width:0.5;" width="319" x="126.5" y="963.5"/><ellipse cx="237.75" cy="979.5" fill="#ADD1B2" rx="11" ry="11" style="stroke:#181818;stroke-width:1.0;"/><path d="M240.7188,985.1406 Q240.1406,985.4375 239.5,985.5781 Q238.8594,985.7344 238.1563,985.7344 Q235.6563,985.7344 234.3281,984.0938 Q233.0156,982.4375 233.0156,979.3125 Q233.0156,976.1875 234.3281,974.5313 Q235.6563,972.875 238.1563,972.875 Q238.8594,972.875 239.5,973.0313 Q240.1563,973.1875 240.7188,973.4844 L240.7188,976.2031 Q240.0938,975.625 239.5,975.3594 Q238.9063,975.0781 238.2813,975.0781 Q236.9375,975.0781 236.25,976.1563 Q235.5625,977.2188 235.5625,979.3125 Q235.5625,981.4063 236.25,982.4844 Q236.9375,983.5469 238.2813,983.5469 Q238.9063,983.5469 239.5,983.2813 Q240.0938,983 240.7188,982.4219 L240.7188,985.1406 Z " fill="#000000"/><text fill="#000000" font-family="sans-serif" font-size="14" lengthAdjust="spacing" textLength="88" x="258.25" y="984.3467">AlloyRunUtils</text><line style="stroke:#181818;stroke-width:0.5;" x1="127.5" x2="444.5" y1="995.5" y2="995.5"/><line style="stroke:#181818;stroke-width:0.5;" x1="127.5" x2="444.5" y1="1003.5" y2="1003.5"/><ellipse cx="137.5" cy="1017.1484" fill="#84BE84" rx="3" ry="3" style="stroke:#038048;stroke-width:1.0;"/><text fill="#000000" font-family="sans-serif" font-size="14" lengthAdjust="spacing" text-decoration="underline" textLength="230" x="146.5" y="1020.4951">run(Sig, int, List&lt;Sig&gt;, Expr): void</text><ellipse cx="137.5" cy="1033.4453" fill="#84BE84" rx="3" ry="3" style="stroke:#038048;stroke-width:1.0;"/><text fill="#000000" font-family="sans-serif" font-size="14" lengthAdjust="spacing" text-decoration="underline" textLength="293" x="146.5" y="1036.792">runX(Sig, List&lt;Sig&gt;, Expr, Command): void</text><ellipse cx="137.5" cy="1049.7422" fill="#84BE84" rx="3" ry="3" style="stroke:#038048;stroke-width:1.0;"/><text fill="#000000" font-family="sans-serif" font-size="14" lengthAdjust="spacing" text-decoration="underline" textLength="239" x="146.5" y="1053.0889">runX(Sig, int, List&lt;Sig&gt;, Expr): void</text></g></a><!--class MDUtils--><a href="MDUtils.html" target="_top" title="MDUtils.html" xlink:actuate="onRequest" xlink:href="MDUtils.html" xlink:show="new" xlink:title="MDUtils.html" xlink:type="simple"><g id="elem_MDUtils"><rect codeLine="72" fill="#F1F1F1" height="96.8906" id="MDUtils" rx="2.5" ry="2.5" style="stroke:#181818;stroke-width:0.5;" width="441" x="480.5" y="963.5"/><ellipse cx="670.75" cy="979.5" fill="#ADD1B2" rx="11" ry="11" style="stroke:#181818;stroke-width:1.0;"/><path d="M673.7188,985.1406 Q673.1406,985.4375 672.5,985.5781 Q671.8594,985.7344 671.1563,985.7344 Q668.6563,985.7344 667.3281,984.0938 Q666.0156,982.4375 666.0156,979.3125 Q666.0156,976.1875 667.3281,974.5313 Q668.6563,972.875 671.1563,972.875 Q671.8594,972.875 672.5,973.0313 Q673.1563,973.1875 673.7188,973.4844 L673.7188,976.2031 Q673.0938,975.625 672.5,975.3594 Q671.9063,975.0781 671.2813,975.0781 Q669.9375,975.0781 669.25,976.1563 Q668.5625,977.2188 668.5625,979.3125 Q668.5625,981.4063 669.25,982.4844 Q669.9375,983.5469 671.2813,983.5469 Q671.9063,983.5469 672.5,983.2813 Q673.0938,983 673.7188,982.4219 L673.7188,985.1406 Z " fill="#000000"/><text fill="#000000" font-family="sans-serif" font-size="14" lengthAdjust="spacing" textLength="52" x="691.25" y="984.3467">MDUtils</text><line style="stroke:#181818;stroke-width:0.5;" x1="481.5" x2="920.5" y1="995.5" y2="995.5"/><line style="stroke:#181818;stroke-width:0.5;" x1="481.5" x2="920.5" y1="1003.5" y2="1003.5"/><ellipse cx="491.5" cy="1017.1484" fill="#84BE84" rx="3" ry="3" style="stroke:#038048;stroke-width:1.0;"/><text fill="#000000" font-family="sans-serif" font-size="14" lengthAdjust="spacing" text-decoration="underline" textLength="370" x="500.5" y="1020.4951">toSigs(Set&lt;NamedElement&gt;, ToAlloy): Set&lt;PrimSig&gt;</text><ellipse cx="491.5" cy="1033.4453" fill="#84BE84" rx="3" ry="3" style="stroke:#038048;stroke-width:1.0;"/><text fill="#000000" font-family="sans-serif" font-size="14" lengthAdjust="spacing" text-decoration="underline" textLength="415" x="500.5" y="1036.792">findLeafClass(Set&lt;NamedElement&gt;): Set&lt;NamedElement&gt;</text><ellipse cx="491.5" cy="1049.7422" fill="#84BE84" rx="3" ry="3" style="stroke:#038048;stroke-width:1.0;"/><text fill="#000000" font-family="sans-serif" font-size="14" lengthAdjust="spacing" text-decoration="underline" textLength="362" x="500.5" y="1053.0889">createListIncludeSelfAndParents(Class): List&lt;Class&gt;</text></g></a><!--class Alloy--><a href="Alloy.html" target="_top" title="Alloy.html" xlink:actuate="onRequest" xlink:href="Alloy.html" xlink:show="new" xlink:title="Alloy.html" xlink:type="simple"><g id="elem_Alloy"><rect codeLine="78" fill="#F1F1F1" height="944.3281" id="Alloy" rx="2.5" ry="2.5" style="stroke:#181818;stroke-width:0.5;" width="650" x="957" y="540"/><ellipse cx="1262.25" cy="556" fill="#ADD1B2" rx="11" ry="11" style="stroke:#181818;stroke-width:1.0;"/><path d="M1265.2188,561.6406 Q1264.6406,561.9375 1264,562.0781 Q1263.3594,562.2344 1262.6563,562.2344 Q1260.1563,562.2344 1258.8281,560.5938 Q1257.5156,558.9375 1257.5156,555.8125 Q1257.5156,552.6875 1258.8281,551.0313 Q1260.1563,549.375 1262.6563,549.375 Q1263.3594,549.375 1264,549.5313 Q1264.6563,549.6875 1265.2188,549.9844 L1265.2188,552.7031 Q1264.5938,552.125 1264,551.8594 Q1263.4063,551.5781 1262.7813,551.5781 Q1261.4375,551.5781 1260.75,552.6563 Q1260.0625,553.7188 1260.0625,555.8125 Q1260.0625,557.9063 1260.75,558.9844 Q1261.4375,560.0469 1262.7813,560.0469 Q1263.4063,560.0469 1264,559.7813 Q1264.5938,559.5 1265.2188,558.9219 L1265.2188,561.6406 Z " fill="#000000"/><text fill="#000000" font-family="sans-serif" font-size="14" lengthAdjust="spacing" textLength="31" x="1282.75" y="560.8467">Alloy</text><line style="stroke:#181818;stroke-width:0.5;" x1="958" x2="1606" y1="572" y2="572"/><ellipse cx="968" cy="585.6484" fill="none" rx="3" ry="3" style="stroke:#038048;stroke-width:1.0;"/><text fill="#000000" font-family="sans-serif" font-size="14" lengthAdjust="spacing" text-decoration="underline" textLength="164" x="977" y="588.9951">transferModule: Module</text><ellipse cx="968" cy="601.9453" fill="none" rx="3" ry="3" style="stroke:#038048;stroke-width:1.0;"/><text fill="#000000" font-family="sans-serif" font-size="14" lengthAdjust="spacing" text-decoration="underline" textLength="150" x="977" y="605.292">happensBefore: Func</text><ellipse cx="968" cy="618.2422" fill="none" rx="3" ry="3" style="stroke:#038048;stroke-width:1.0;"/><text fill="#000000" font-family="sans-serif" font-size="14" lengthAdjust="spacing" text-decoration="underline" textLength="150" x="977" y="621.5889">happensDuring: Func</text><ellipse cx="968" cy="634.5391" fill="none" rx="3" ry="3" style="stroke:#038048;stroke-width:1.0;"/><text fill="#000000" font-family="sans-serif" font-size="14" lengthAdjust="spacing" text-decoration="underline" textLength="99" x="977" y="637.8857">sources: Func</text><ellipse cx="968" cy="650.8359" fill="none" rx="3" ry="3" style="stroke:#038048;stroke-width:1.0;"/><text fill="#000000" font-family="sans-serif" font-size="14" lengthAdjust="spacing" text-decoration="underline" textLength="92" x="977" y="654.1826">targets: Func</text><ellipse cx="968" cy="667.1328" fill="none" rx="3" ry="3" style="stroke:#038048;stroke-width:1.0;"/><text fill="#000000" font-family="sans-serif" font-size="14" lengthAdjust="spacing" text-decoration="underline" textLength="257" x="977" y="670.4795">subsettingItemRuleForSources: Func</text><ellipse cx="968" cy="683.4297" fill="none" rx="3" ry="3" style="stroke:#038048;stroke-width:1.0;"/><text fill="#000000" font-family="sans-serif" font-size="14" lengthAdjust="spacing" text-decoration="underline" textLength="253" x="977" y="686.7764">subsettingItemRuleForTargets: Func</text><ellipse cx="968" cy="699.7266" fill="none" rx="3" ry="3" style="stroke:#038048;stroke-width:1.0;"/><text fill="#000000" font-family="sans-serif" font-size="14" lengthAdjust="spacing" text-decoration="underline" textLength="135" x="977" y="703.0732">isAfterSource: Func</text><ellipse cx="968" cy="716.0234" fill="none" rx="3" ry="3" style="stroke:#038048;stroke-width:1.0;"/><text fill="#000000" font-family="sans-serif" font-size="14" lengthAdjust="spacing" text-decoration="underline" textLength="145" x="977" y="719.3701">isBeforeTarget: Func</text><ellipse cx="968" cy="732.3203" fill="none" rx="3" ry="3" style="stroke:#038048;stroke-width:1.0;"/><text fill="#000000" font-family="sans-serif" font-size="14" lengthAdjust="spacing" text-decoration="underline" textLength="95" x="977" y="735.667">oinputs: Func</text><ellipse cx="968" cy="748.6172" fill="none" rx="3" ry="3" style="stroke:#038048;stroke-width:1.0;"/><text fill="#000000" font-family="sans-serif" font-size="14" lengthAdjust="spacing" text-decoration="underline" textLength="106" x="977" y="751.9639">ooutputs: Func</text><ellipse cx="968" cy="764.9141" fill="none" rx="3" ry="3" style="stroke:#038048;stroke-width:1.0;"/><text fill="#000000" font-family="sans-serif" font-size="14" lengthAdjust="spacing" text-decoration="underline" textLength="90" x="977" y="768.2607">oitems: Func</text><ellipse cx="968" cy="781.2109" fill="none" rx="3" ry="3" style="stroke:#038048;stroke-width:1.0;"/><text fill="#000000" font-family="sans-serif" font-size="14" lengthAdjust="spacing" text-decoration="underline" textLength="104" x="977" y="784.5576">transferSig: Sig</text><ellipse cx="968" cy="797.5078" fill="none" rx="3" ry="3" style="stroke:#038048;stroke-width:1.0;"/><text fill="#000000" font-family="sans-serif" font-size="14" lengthAdjust="spacing" text-decoration="underline" textLength="150" x="977" y="800.8545">transferBeforeSig: Sig</text><line style="stroke:#181818;stroke-width:0.5;" x1="958" x2="1606" y1="808.1563" y2="808.1563"/><ellipse cx="968" cy="821.8047" fill="#84BE84" rx="3" ry="3" style="stroke:#038048;stroke-width:1.0;"/><text fill="#000000" font-family="sans-serif" font-size="14" lengthAdjust="spacing" textLength="81" x="977" y="825.1514">Alloy(String)</text><ellipse cx="968" cy="838.1016" fill="#84BE84" rx="3" ry="3" style="stroke:#038048;stroke-width:1.0;"/><text fill="#000000" font-family="sans-serif" font-size="14" lengthAdjust="spacing" textLength="201" x="977" y="841.4482">getTransferModule(): Module</text><ellipse cx="968" cy="854.3984" fill="#84BE84" rx="3" ry="3" style="stroke:#038048;stroke-width:1.0;"/><text fill="#000000" font-family="sans-serif" font-size="14" lengthAdjust="spacing" textLength="209" x="977" y="857.7451">getTemplateModule(): Module</text><ellipse cx="968" cy="870.6953" fill="#84BE84" rx="3" ry="3" style="stroke:#038048;stroke-width:1.0;"/><text fill="#000000" font-family="sans-serif" font-size="14" lengthAdjust="spacing" textLength="141" x="977" y="874.042">getOccSig(): PrimSig</text><ellipse cx="968" cy="886.9922" fill="#84BE84" rx="3" ry="3" style="stroke:#038048;stroke-width:1.0;"/><text fill="#000000" font-family="sans-serif" font-size="14" lengthAdjust="spacing" textLength="148" x="977" y="890.3389">getOverAllFact(): Expr</text><ellipse cx="968" cy="903.2891" fill="#84BE84" rx="3" ry="3" style="stroke:#038048;stroke-width:1.0;"/><text fill="#000000" font-family="sans-serif" font-size="14" lengthAdjust="spacing" textLength="154" x="977" y="906.6357">getAllSigs(): List&lt;Sig&gt;</text><ellipse cx="968" cy="919.5859" fill="#84BE84" rx="3" ry="3" style="stroke:#038048;stroke-width:1.0;"/><text fill="#000000" font-family="sans-serif" font-size="14" lengthAdjust="spacing" textLength="350" x="977" y="922.9326">createSigAndAddToAllSigs(String, PrimSig): PrimSig</text><ellipse cx="968" cy="935.8828" fill="#84BE84" rx="3" ry="3" style="stroke:#038048;stroke-width:1.0;"/><text fill="#000000" font-family="sans-serif" font-size="14" lengthAdjust="spacing" textLength="405" x="977" y="939.2295">createSigAsChildOfOccSigAndAddToAllSigs(String): PrimSig</text><ellipse cx="968" cy="952.1797" fill="#84BE84" rx="3" ry="3" style="stroke:#038048;stroke-width:1.0;"/><text fill="#000000" font-family="sans-serif" font-size="14" lengthAdjust="spacing" textLength="455" x="977" y="955.5264">createSigAsChildOfParentSigAddToAllSigs(String, PrimSig): PrimSig</text><ellipse cx="968" cy="968.4766" fill="#84BE84" rx="3" ry="3" style="stroke:#038048;stroke-width:1.0;"/><text fill="#000000" font-family="sans-serif" font-size="14" lengthAdjust="spacing" textLength="196" x="977" y="971.8232">addToOverallFact(Expr): void</text><ellipse cx="968" cy="984.7734" fill="#84BE84" rx="3" ry="3" style="stroke:#038048;stroke-width:1.0;"/><text fill="#000000" font-family="sans-serif" font-size="14" lengthAdjust="spacing" textLength="192" x="977" y="988.1201">getIgnoredSigs(): Set&lt;Sig&gt;</text><ellipse cx="968" cy="1001.0703" fill="#84BE84" rx="3" ry="3" style="stroke:#038048;stroke-width:1.0;"/><text fill="#000000" font-family="sans-serif" font-size="14" lengthAdjust="spacing" textLength="210" x="977" y="1004.417">getIgnoredExprs(): Set&lt;Expr&gt;</text><ellipse cx="968" cy="1017.3672" fill="#84BE84" rx="3" ry="3" style="stroke:#038048;stroke-width:1.0;"/><text fill="#000000" font-family="sans-serif" font-size="14" lengthAdjust="spacing" textLength="218" x="977" y="1020.7139">getIgnoredFuncs(): Set&lt;Func&gt;</text><ellipse cx="968" cy="1033.6641" fill="#84BE84" rx="3" ry="3" style="stroke:#038048;stroke-width:1.0;"/><text fill="#000000" font-family="sans-serif" font-size="14" lengthAdjust="spacing" textLength="604" x="977" y="1037.0107">createInverseFunctionFilteredHappensBeforeAndAddToOverallFact(Sig, Expr, Expr): void</text><ellipse cx="968" cy="1049.9609" fill="#84BE84" rx="3" ry="3" style="stroke:#038048;stroke-width:1.0;"/><text fill="#000000" font-family="sans-serif" font-size="14" lengthAdjust="spacing" textLength="624" x="977" y="1053.3076">createInverseFunctionFilteredHappensBeforeAndAddToOverallFact(Sig, Expr[], Expr[]): void</text><ellipse cx="968" cy="1066.2578" fill="#84BE84" rx="3" ry="3" style="stroke:#038048;stroke-width:1.0;"/><text fill="#000000" font-family="sans-serif" font-size="14" lengthAdjust="spacing" textLength="554" x="977" y="1069.6045">createFunctionFilteredHappensBeforeAndAddToOverallFact(Sig, Expr, Expr): void</text><ellipse cx="968" cy="1082.5547" fill="#84BE84" rx="3" ry="3" style="stroke:#038048;stroke-width:1.0;"/><text fill="#000000" font-family="sans-serif" font-size="14" lengthAdjust="spacing" textLength="574" x="977" y="1085.9014">createFunctionFilteredHappensBeforeAndAddToOverallFact(Sig, Expr[], Expr[]): void</text><ellipse cx="968" cy="1098.8516" fill="#84BE84" rx="3" ry="3" style="stroke:#038048;stroke-width:1.0;"/><text fill="#000000" font-family="sans-serif" font-size="14" lengthAdjust="spacing" textLength="411" x="977" y="1102.1982">createSubSettingItemRuleOverallFact(Sig, Expr): Set&lt;Expr&gt;</text><ellipse cx="968" cy="1115.1484" fill="#84BE84" rx="3" ry="3" style="stroke:#038048;stroke-width:1.0;"/><text fill="#000000" font-family="sans-serif" font-size="14" lengthAdjust="spacing" textLength="468" x="977" y="1118.4951">createIsAfterSourceIsBeforeTargetOverallFact(Sig, Expr): Set&lt;Expr&gt;</text><ellipse cx="968" cy="1131.4453" fill="#84BE84" rx="3" ry="3" style="stroke:#038048;stroke-width:1.0;"/><text fill="#000000" font-family="sans-serif" font-size="14" lengthAdjust="spacing" textLength="216" x="977" y="1134.792">addFacts(Sig, Set&lt;Expr&gt;): void</text><ellipse cx="968" cy="1147.7422" fill="#84BE84" rx="3" ry="3" style="stroke:#038048;stroke-width:1.0;"/><text fill="#000000" font-family="sans-serif" font-size="14" lengthAdjust="spacing" textLength="537" x="977" y="1151.0889">createTransferInItems(Sig, Expr, Expr, Func, Set&lt;Field&gt;, boolean): Set&lt;Expr&gt;</text><ellipse cx="968" cy="1164.0391" fill="#84BE84" rx="3" ry="3" style="stroke:#038048;stroke-width:1.0;"/><text fill="#000000" font-family="sans-serif" font-size="14" lengthAdjust="spacing" textLength="482" x="977" y="1167.3857">createBijectionFilteredToOverallFact(Sig, Expr, Expr, Func): Set&lt;Expr&gt;</text><ellipse cx="968" cy="1180.3359" fill="#84BE84" rx="3" ry="3" style="stroke:#038048;stroke-width:1.0;"/><text fill="#000000" font-family="sans-serif" font-size="14" lengthAdjust="spacing" textLength="613" x="977" y="1183.6826">createBijectionFilteredHappensBeforeAndAddToOverallFact(ExprVar, Sig, Expr, Expr): void</text><ellipse cx="968" cy="1196.6328" fill="#84BE84" rx="3" ry="3" style="stroke:#038048;stroke-width:1.0;"/><text fill="#000000" font-family="sans-serif" font-size="14" lengthAdjust="spacing" textLength="205" x="977" y="1199.9795">getCommonCmdExprs(): Expr</text><ellipse cx="968" cy="1212.9297" fill="#84BE84" rx="3" ry="3" style="stroke:#038048;stroke-width:1.0;"/><text fill="#000000" font-family="sans-serif" font-size="14" lengthAdjust="spacing" textLength="388" x="977" y="1216.2764">addCardinalityEqualConstraintToField(Sig, Field, int): void</text><ellipse cx="968" cy="1229.2266" fill="#84BE84" rx="3" ry="3" style="stroke:#038048;stroke-width:1.0;"/><text fill="#000000" font-family="sans-serif" font-size="14" lengthAdjust="spacing" textLength="475" x="977" y="1232.5732">addCardinalityGreaterThanEqualConstraintToField(Sig, Field, int): void</text><ellipse cx="968" cy="1245.5234" fill="#84BE84" rx="3" ry="3" style="stroke:#038048;stroke-width:1.0;"/><text fill="#000000" font-family="sans-serif" font-size="14" lengthAdjust="spacing" textLength="212" x="977" y="1248.8701">addEqual(Sig, Field, Field): void</text><ellipse cx="968" cy="1261.8203" fill="#84BE84" rx="3" ry="3" style="stroke:#038048;stroke-width:1.0;"/><text fill="#000000" font-family="sans-serif" font-size="14" lengthAdjust="spacing" textLength="300" x="977" y="1265.167">addEqual2(PrimSig, List&lt;Field&gt;, Func): void</text><ellipse cx="968" cy="1278.1172" fill="#84BE84" rx="3" ry="3" style="stroke:#038048;stroke-width:1.0;"/><text fill="#000000" font-family="sans-serif" font-size="14" lengthAdjust="spacing" textLength="401" x="977" y="1281.4639">createInOutClosure(PrimSig, Field, List&lt;Field&gt;, Func): void</text><ellipse cx="968" cy="1294.4141" fill="#84BE84" rx="3" ry="3" style="stroke:#038048;stroke-width:1.0;"/><text fill="#000000" font-family="sans-serif" font-size="14" lengthAdjust="spacing" textLength="344" x="977" y="1297.7607">addOneConstraintToField(ExprVar, Sig, Field): void</text><ellipse cx="968" cy="1310.7109" fill="#84BE84" rx="3" ry="3" style="stroke:#038048;stroke-width:1.0;"/><text fill="#000000" font-family="sans-serif" font-size="14" lengthAdjust="spacing" textLength="135" x="977" y="1314.0576">noStepsX(Sig): void</text><ellipse cx="968" cy="1327.0078" fill="#84BE84" rx="3" ry="3" style="stroke:#038048;stroke-width:1.0;"/><text fill="#000000" font-family="sans-serif" font-size="14" lengthAdjust="spacing" textLength="135" x="977" y="1330.3545">noXSteps(Sig): void</text><ellipse cx="968" cy="1343.3047" fill="#84BE84" rx="3" ry="3" style="stroke:#038048;stroke-width:1.0;"/><text fill="#000000" font-family="sans-serif" font-size="14" lengthAdjust="spacing" textLength="252" x="977" y="1346.6514">noInputsOrOutputsX(Sig, Func): void</text><ellipse cx="968" cy="1359.6016" fill="#84BE84" rx="3" ry="3" style="stroke:#038048;stroke-width:1.0;"/><text fill="#000000" font-family="sans-serif" font-size="14" lengthAdjust="spacing" textLength="252" x="977" y="1362.9482">noXInputsOrOutputs(Sig, Func): void</text><ellipse cx="968" cy="1375.8984" fill="#84BE84" rx="3" ry="3" style="stroke:#038048;stroke-width:1.0;"/><text fill="#000000" font-family="sans-serif" font-size="14" lengthAdjust="spacing" textLength="432" x="977" y="1379.2451">noInputsXAndXInputsOrOutputsXAndXOutputs(Sig, Func): void</text><ellipse cx="968" cy="1392.1953" fill="#84BE84" rx="3" ry="3" style="stroke:#038048;stroke-width:1.0;"/><text fill="#000000" font-family="sans-serif" font-size="14" lengthAdjust="spacing" textLength="133" x="977" y="1395.542">noItemsX(Sig): void</text><ellipse cx="968" cy="1408.4922" fill="#84BE84" rx="3" ry="3" style="stroke:#038048;stroke-width:1.0;"/><text fill="#000000" font-family="sans-serif" font-size="14" lengthAdjust="spacing" textLength="360" x="977" y="1411.8389">createNoInputsOrOutputsField(Sig, Field, Func): void</text><ellipse cx="968" cy="1424.7891" fill="#84BE84" rx="3" ry="3" style="stroke:#038048;stroke-width:1.0;"/><text fill="#000000" font-family="sans-serif" font-size="14" lengthAdjust="spacing" textLength="473" x="977" y="1428.1357">createEqualFieldToOverallFact(Sig, Expr, Field, Expr, Field, Func): void</text><ellipse cx="968" cy="1441.0859" fill="#84BE84" rx="3" ry="3" style="stroke:#038048;stroke-width:1.0;"/><text fill="#000000" font-family="sans-serif" font-size="14" lengthAdjust="spacing" textLength="175" x="977" y="1444.4326">noTransferStep(Sig): void</text><ellipse cx="968" cy="1457.3828" fill="#84BE84" rx="3" ry="3" style="stroke:#038048;stroke-width:1.0;"/><text fill="#000000" font-family="sans-serif" font-size="14" lengthAdjust="spacing" textLength="387" x="977" y="1460.7295">addSteps(PrimSig, Set&lt;String&gt;, boolean, boolean): void</text><ellipse cx="968" cy="1473.6797" fill="#84BE84" rx="3" ry="3" style="stroke:#038048;stroke-width:1.0;"/><text fill="#000000" font-family="sans-serif" font-size="14" lengthAdjust="spacing" textLength="355" x="977" y="1477.0264">addRedefinedSubsettingAsFact(Sig, Field, Sig): void</text></g></a><text fill="#888888" font-family="sans-serif" font-size="10" lengthAdjust="spacing" textLength="186" x="845" y="1515.2822">UMLDoclet 2.1.1, PlantUML 1.2023.12</text><!--SRC=[jLbBRziu4BxtL-YoW8eQ1jfZKGH8d6Hh88cBsEq66-H0IsERMuhKabIssQB_lSE7BCcIA3bD3SIMg7bpvkDe4aLHf43ZNquaqK96xz-_UeMBKKwIhsGB4QJ5T4iq9BlfLaiw5UjigYNXYXdoAM5CF4NV7O_v98me5LqMFFciALFH_Vt-UhhJ6NjuGEgezlckDD4q-H6zsO8-BoJbsujl9CiPN7pBPRpKPcKIBIb-NL9WgRr-_JuoZtia0JvQ2LIy4WqXvYRCITBKAcdgTGhjWtw-1OVdiguaJRu-rRdl7zhyzmyz4X89k4F6guj_2y9MugR8rY1ZipA9ADTXdolsF-sLNEq8Vo59Hmh0M9pHVo3HLF1Bob02f8Ry8ybpuEeCDa92V2tIWe7Rph6RYaduuaBd_16aWjyYspnLyHLL-eEvF1bayAb-X8eRmVy6AR3cY35_mTcJjtIGTLdakGIbLWO9DXW4g_j8vlbYD9T0sx2-i1WEGM5OcuPylm4sdhQOJiPnMrervxycnN2Z42VicM9SRSq4LmY_M4Yrs7ceQCYpDxWya3YOdb-xSxKEkFMViBmK4gemcOwJEPrEmsAP4FclcVdZy8WwDITNUKPLDqE7r8weJtXKPe2bxW7RmZIKeKV5Qo4O4DuZWMQvaDfgT4x421mc_sSYoztAQ4vN26Du9MJY4PRe-gxYSXSz78-4qHHz1QuhZh1h6yfTnVn5zMxrb8CFJibToz3-y9QOie_ke5fi72pnfHGPqk_XuPEasV3vUy2za7EjdDlg5oGv2S-o1edEHOOrRlAYrazK0WALulWN__5cBpAMjnw9CzUHk7qyoWc4FCpIMo39ZgoPWUqcw7bSUXGq48OwktEcKVFxf1g8PgSLLGNGRJzhtGV7UVPqWwNV5XCiFHDMtoAqESsJVhuvtu6a6lmv5FlmJwAFMCVN9F-mFmaHVzpr2O9__OanEBrWa64wcg1NIDMZLY76U7KDL1iktetbkY9hO0UyDVFw4VaBLTXpqlz1VWIMWqHSFbmQGkSYJ_6G_6o_qzYZHZZJ475A-X50mm6R9QZCCa1t0z_qZEHaJHdLJ_4SJmQJCJRB9mQPCyBJi17ERXGR3vN5eG5tpzBNblDIOlRTN8Ej-_IzBNZZ02xlXtPP5jmTBDW6rH1bt_O6B4RMkxZgbYgsaHvN_6Dqjzo-FYyTzbT3hcg1qbqnDGfv4gs4ZPalBWyC9u63-Gh8PcQiQ4lpGXfhmJRK-3td2IjIM0BRdFAqF36jXX8jxCt9G1QKkpyO2jyNk0mRmDnTlLaCegodT9E78AKIXKn01MaqaGZROHfLh1LeZUgmvh9RTE9IoEK8uPsCgn4QgJhTO7ax7GEKBcHEQf1KK9uN0ug5AFGm4HvmsK1O_TvZYeVEx9BC-T19_CRcMjdGDX-Xnwj6aiNTHxibX2ndM0c3X8iaCPq74lWQRLCyWaIhBacYuwu6pRSY5WZAochLkYzCNCTYF3NZW9AbtRfr6bBngzcEidInSPPtYnilPTy8FySeEzSmyI4-Fdq8RvkbBSTTJyiusPwZ5QQAparOFA6TiVHHciJSKvgRpj3tJ8CQhwrbCEiksTEaCRPfU_T26inKqVq6jFn61twpvSjYlMpYOwUi_YttOQwZvRm1Y4VACmCa95NLZA2SvVMvKEBFd1iNr65i9nOaw-E6ILHrkK6lMdFLu2OwHKVB7DnG8-eBaVuTRY1fCE2cAHDybbNLseP7ZFACo9HoOlflExYkncGhKPlI-06H6qEtzJK57Gx3dotJSiUjGLMG_5trgjSOw_bTwKU8HQ5dJAX2GYN1QnqdoFqde-riS-VwFU32JZll_EIcY-3EKWG8vhQpMCY5wnvynzrhCaeyu1XaSFHtcAA7h7Pjj1XJfFskkasvEVIddJq3ssfJmWrZ-ehM2shS10mlSSREjVlCBoVNLIRLtkFtm5D7e4uPjv02le3WoRplNqzLPN_ZdtfThqy_x7U2NGJ8Q2E4-VbyVNKk4WOwUZTzEtsBZGGZNEDgz8Sv8ysevVLF]--></g></svg>