<?xml version="1.0" encoding="us-ascii" standalone="no"?><svg xmlns="http://www.w3.org/2000/svg" xmlns:xlink="http://www.w3.org/1999/xlink" contentStyleType="text/css" height="1525px" preserveAspectRatio="none" style="width:1830px;height:1525px;background:#FFFFFF;" version="1.1" viewBox="0 0 1830 1525" width="1830px" zoomAndPan="magnify"><defs/><g><!--cluster edu.gatech.gtri.obm.translator.alloy--><g id="cluster_edu.gatech.gtri.obm.translator.alloy"><path d="M8.5,6 L292.5,6 A3.75,3.75 0 0 1 295,8.5 L302,28.2969 L1820.5,28.2969 A2.5,2.5 0 0 1 1823,30.7969 L1823,1497.5 A2.5,2.5 0 0 1 1820.5,1500 L8.5,1500 A2.5,2.5 0 0 1 6,1497.5 L6,8.5 A2.5,2.5 0 0 1 8.5,6 " fill="none" style="stroke:#000000;stroke-width:1.5;"/><line style="stroke:#000000;stroke-width:1.5;" x1="6" x2="302" y1="28.2969" y2="28.2969"/><text fill="#000000" font-family="sans-serif" font-size="14" font-weight="bold" lengthAdjust="spacing" textLength="283" x="10" y="20.9951">edu.gatech.gtri.obm.translator.alloy</text></g><!--class Alloy--><a href="Alloy.html" target="_top" title="Alloy.html" xlink:actuate="onRequest" xlink:href="Alloy.html" xlink:show="new" xlink:title="Alloy.html" xlink:type="simple"><g id="elem_Alloy"><rect codeLine="5" fill="#F1F1F1" height="944.3281" id="Alloy" rx="2.5" ry="2.5" style="stroke:#181818;stroke-width:0.5;" width="650" x="22" y="41"/><ellipse cx="327.25" cy="57" fill="#ADD1B2" rx="11" ry="11" style="stroke:#181818;stroke-width:1.0;"/><path d="M330.2188,62.6406 Q329.6406,62.9375 329,63.0781 Q328.3594,63.2344 327.6563,63.2344 Q325.1563,63.2344 323.8281,61.5938 Q322.5156,59.9375 322.5156,56.8125 Q322.5156,53.6875 323.8281,52.0313 Q325.1563,50.375 327.6563,50.375 Q328.3594,50.375 329,50.5313 Q329.6563,50.6875 330.2188,50.9844 L330.2188,53.7031 Q329.5938,53.125 329,52.8594 Q328.4063,52.5781 327.7813,52.5781 Q326.4375,52.5781 325.75,53.6563 Q325.0625,54.7188 325.0625,56.8125 Q325.0625,58.9063 325.75,59.9844 Q326.4375,61.0469 327.7813,61.0469 Q328.4063,61.0469 329,60.7813 Q329.5938,60.5 330.2188,59.9219 L330.2188,62.6406 Z " fill="#000000"/><text fill="#000000" font-family="sans-serif" font-size="14" lengthAdjust="spacing" textLength="31" x="347.75" y="61.8467">Alloy</text><line style="stroke:#181818;stroke-width:0.5;" x1="23" x2="671" y1="73" y2="73"/><ellipse cx="33" cy="86.6484" fill="none" rx="3" ry="3" style="stroke:#038048;stroke-width:1.0;"/><text fill="#000000" font-family="sans-serif" font-size="14" lengthAdjust="spacing" text-decoration="underline" textLength="164" x="42" y="89.9951">transferModule: Module</text><ellipse cx="33" cy="102.9453" fill="none" rx="3" ry="3" style="stroke:#038048;stroke-width:1.0;"/><text fill="#000000" font-family="sans-serif" font-size="14" lengthAdjust="spacing" text-decoration="underline" textLength="150" x="42" y="106.292">happensBefore: Func</text><ellipse cx="33" cy="119.2422" fill="none" rx="3" ry="3" style="stroke:#038048;stroke-width:1.0;"/><text fill="#000000" font-family="sans-serif" font-size="14" lengthAdjust="spacing" text-decoration="underline" textLength="150" x="42" y="122.5889">happensDuring: Func</text><ellipse cx="33" cy="135.5391" fill="none" rx="3" ry="3" style="stroke:#038048;stroke-width:1.0;"/><text fill="#000000" font-family="sans-serif" font-size="14" lengthAdjust="spacing" text-decoration="underline" textLength="99" x="42" y="138.8857">sources: Func</text><ellipse cx="33" cy="151.8359" fill="none" rx="3" ry="3" style="stroke:#038048;stroke-width:1.0;"/><text fill="#000000" font-family="sans-serif" font-size="14" lengthAdjust="spacing" text-decoration="underline" textLength="92" x="42" y="155.1826">targets: Func</text><ellipse cx="33" cy="168.1328" fill="none" rx="3" ry="3" style="stroke:#038048;stroke-width:1.0;"/><text fill="#000000" font-family="sans-serif" font-size="14" lengthAdjust="spacing" text-decoration="underline" textLength="257" x="42" y="171.4795">subsettingItemRuleForSources: Func</text><ellipse cx="33" cy="184.4297" fill="none" rx="3" ry="3" style="stroke:#038048;stroke-width:1.0;"/><text fill="#000000" font-family="sans-serif" font-size="14" lengthAdjust="spacing" text-decoration="underline" textLength="253" x="42" y="187.7764">subsettingItemRuleForTargets: Func</text><ellipse cx="33" cy="200.7266" fill="none" rx="3" ry="3" style="stroke:#038048;stroke-width:1.0;"/><text fill="#000000" font-family="sans-serif" font-size="14" lengthAdjust="spacing" text-decoration="underline" textLength="135" x="42" y="204.0732">isAfterSource: Func</text><ellipse cx="33" cy="217.0234" fill="none" rx="3" ry="3" style="stroke:#038048;stroke-width:1.0;"/><text fill="#000000" font-family="sans-serif" font-size="14" lengthAdjust="spacing" text-decoration="underline" textLength="145" x="42" y="220.3701">isBeforeTarget: Func</text><ellipse cx="33" cy="233.3203" fill="none" rx="3" ry="3" style="stroke:#038048;stroke-width:1.0;"/><text fill="#000000" font-family="sans-serif" font-size="14" lengthAdjust="spacing" text-decoration="underline" textLength="95" x="42" y="236.667">oinputs: Func</text><ellipse cx="33" cy="249.6172" fill="none" rx="3" ry="3" style="stroke:#038048;stroke-width:1.0;"/><text fill="#000000" font-family="sans-serif" font-size="14" lengthAdjust="spacing" text-decoration="underline" textLength="106" x="42" y="252.9639">ooutputs: Func</text><ellipse cx="33" cy="265.9141" fill="none" rx="3" ry="3" style="stroke:#038048;stroke-width:1.0;"/><text fill="#000000" font-family="sans-serif" font-size="14" lengthAdjust="spacing" text-decoration="underline" textLength="90" x="42" y="269.2607">oitems: Func</text><ellipse cx="33" cy="282.2109" fill="none" rx="3" ry="3" style="stroke:#038048;stroke-width:1.0;"/><text fill="#000000" font-family="sans-serif" font-size="14" lengthAdjust="spacing" text-decoration="underline" textLength="104" x="42" y="285.5576">transferSig: Sig</text><ellipse cx="33" cy="298.5078" fill="none" rx="3" ry="3" style="stroke:#038048;stroke-width:1.0;"/><text fill="#000000" font-family="sans-serif" font-size="14" lengthAdjust="spacing" text-decoration="underline" textLength="150" x="42" y="301.8545">transferBeforeSig: Sig</text><line style="stroke:#181818;stroke-width:0.5;" x1="23" x2="671" y1="309.1563" y2="309.1563"/><ellipse cx="33" cy="322.8047" fill="#84BE84" rx="3" ry="3" style="stroke:#038048;stroke-width:1.0;"/><text fill="#000000" font-family="sans-serif" font-size="14" lengthAdjust="spacing" textLength="81" x="42" y="326.1514">Alloy(String)</text><ellipse cx="33" cy="339.1016" fill="#84BE84" rx="3" ry="3" style="stroke:#038048;stroke-width:1.0;"/><text fill="#000000" font-family="sans-serif" font-size="14" lengthAdjust="spacing" textLength="201" x="42" y="342.4482">getTransferModule(): Module</text><ellipse cx="33" cy="355.3984" fill="#84BE84" rx="3" ry="3" style="stroke:#038048;stroke-width:1.0;"/><text fill="#000000" font-family="sans-serif" font-size="14" lengthAdjust="spacing" textLength="209" x="42" y="358.7451">getTemplateModule(): Module</text><ellipse cx="33" cy="371.6953" fill="#84BE84" rx="3" ry="3" style="stroke:#038048;stroke-width:1.0;"/><text fill="#000000" font-family="sans-serif" font-size="14" lengthAdjust="spacing" textLength="141" x="42" y="375.042">getOccSig(): PrimSig</text><ellipse cx="33" cy="387.9922" fill="#84BE84" rx="3" ry="3" style="stroke:#038048;stroke-width:1.0;"/><text fill="#000000" font-family="sans-serif" font-size="14" lengthAdjust="spacing" textLength="148" x="42" y="391.3389">getOverAllFact(): Expr</text><ellipse cx="33" cy="404.2891" fill="#84BE84" rx="3" ry="3" style="stroke:#038048;stroke-width:1.0;"/><text fill="#000000" font-family="sans-serif" font-size="14" lengthAdjust="spacing" textLength="154" x="42" y="407.6357">getAllSigs(): List&lt;Sig&gt;</text><ellipse cx="33" cy="420.5859" fill="#84BE84" rx="3" ry="3" style="stroke:#038048;stroke-width:1.0;"/><text fill="#000000" font-family="sans-serif" font-size="14" lengthAdjust="spacing" textLength="350" x="42" y="423.9326">createSigAndAddToAllSigs(String, PrimSig): PrimSig</text><ellipse cx="33" cy="436.8828" fill="#84BE84" rx="3" ry="3" style="stroke:#038048;stroke-width:1.0;"/><text fill="#000000" font-family="sans-serif" font-size="14" lengthAdjust="spacing" textLength="405" x="42" y="440.2295">createSigAsChildOfOccSigAndAddToAllSigs(String): PrimSig</text><ellipse cx="33" cy="453.1797" fill="#84BE84" rx="3" ry="3" style="stroke:#038048;stroke-width:1.0;"/><text fill="#000000" font-family="sans-serif" font-size="14" lengthAdjust="spacing" textLength="455" x="42" y="456.5264">createSigAsChildOfParentSigAddToAllSigs(String, PrimSig): PrimSig</text><ellipse cx="33" cy="469.4766" fill="#84BE84" rx="3" ry="3" style="stroke:#038048;stroke-width:1.0;"/><text fill="#000000" font-family="sans-serif" font-size="14" lengthAdjust="spacing" textLength="196" x="42" y="472.8232">addToOverallFact(Expr): void</text><ellipse cx="33" cy="485.7734" fill="#84BE84" rx="3" ry="3" style="stroke:#038048;stroke-width:1.0;"/><text fill="#000000" font-family="sans-serif" font-size="14" lengthAdjust="spacing" textLength="192" x="42" y="489.1201">getIgnoredSigs(): Set&lt;Sig&gt;</text><ellipse cx="33" cy="502.0703" fill="#84BE84" rx="3" ry="3" style="stroke:#038048;stroke-width:1.0;"/><text fill="#000000" font-family="sans-serif" font-size="14" lengthAdjust="spacing" textLength="210" x="42" y="505.417">getIgnoredExprs(): Set&lt;Expr&gt;</text><ellipse cx="33" cy="518.3672" fill="#84BE84" rx="3" ry="3" style="stroke:#038048;stroke-width:1.0;"/><text fill="#000000" font-family="sans-serif" font-size="14" lengthAdjust="spacing" textLength="218" x="42" y="521.7139">getIgnoredFuncs(): Set&lt;Func&gt;</text><ellipse cx="33" cy="534.6641" fill="#84BE84" rx="3" ry="3" style="stroke:#038048;stroke-width:1.0;"/><text fill="#000000" font-family="sans-serif" font-size="14" lengthAdjust="spacing" textLength="604" x="42" y="538.0107">createInverseFunctionFilteredHappensBeforeAndAddToOverallFact(Sig, Expr, Expr): void</text><ellipse cx="33" cy="550.9609" fill="#84BE84" rx="3" ry="3" style="stroke:#038048;stroke-width:1.0;"/><text fill="#000000" font-family="sans-serif" font-size="14" lengthAdjust="spacing" textLength="624" x="42" y="554.3076">createInverseFunctionFilteredHappensBeforeAndAddToOverallFact(Sig, Expr[], Expr[]): void</text><ellipse cx="33" cy="567.2578" fill="#84BE84" rx="3" ry="3" style="stroke:#038048;stroke-width:1.0;"/><text fill="#000000" font-family="sans-serif" font-size="14" lengthAdjust="spacing" textLength="554" x="42" y="570.6045">createFunctionFilteredHappensBeforeAndAddToOverallFact(Sig, Expr, Expr): void</text><ellipse cx="33" cy="583.5547" fill="#84BE84" rx="3" ry="3" style="stroke:#038048;stroke-width:1.0;"/><text fill="#000000" font-family="sans-serif" font-size="14" lengthAdjust="spacing" textLength="574" x="42" y="586.9014">createFunctionFilteredHappensBeforeAndAddToOverallFact(Sig, Expr[], Expr[]): void</text><ellipse cx="33" cy="599.8516" fill="#84BE84" rx="3" ry="3" style="stroke:#038048;stroke-width:1.0;"/><text fill="#000000" font-family="sans-serif" font-size="14" lengthAdjust="spacing" textLength="411" x="42" y="603.1982">createSubSettingItemRuleOverallFact(Sig, Expr): Set&lt;Expr&gt;</text><ellipse cx="33" cy="616.1484" fill="#84BE84" rx="3" ry="3" style="stroke:#038048;stroke-width:1.0;"/><text fill="#000000" font-family="sans-serif" font-size="14" lengthAdjust="spacing" textLength="468" x="42" y="619.4951">createIsAfterSourceIsBeforeTargetOverallFact(Sig, Expr): Set&lt;Expr&gt;</text><ellipse cx="33" cy="632.4453" fill="#84BE84" rx="3" ry="3" style="stroke:#038048;stroke-width:1.0;"/><text fill="#000000" font-family="sans-serif" font-size="14" lengthAdjust="spacing" textLength="216" x="42" y="635.792">addFacts(Sig, Set&lt;Expr&gt;): void</text><ellipse cx="33" cy="648.7422" fill="#84BE84" rx="3" ry="3" style="stroke:#038048;stroke-width:1.0;"/><text fill="#000000" font-family="sans-serif" font-size="14" lengthAdjust="spacing" textLength="537" x="42" y="652.0889">createTransferInItems(Sig, Expr, Expr, Func, Set&lt;Field&gt;, boolean): Set&lt;Expr&gt;</text><ellipse cx="33" cy="665.0391" fill="#84BE84" rx="3" ry="3" style="stroke:#038048;stroke-width:1.0;"/><text fill="#000000" font-family="sans-serif" font-size="14" lengthAdjust="spacing" textLength="482" x="42" y="668.3857">createBijectionFilteredToOverallFact(Sig, Expr, Expr, Func): Set&lt;Expr&gt;</text><ellipse cx="33" cy="681.3359" fill="#84BE84" rx="3" ry="3" style="stroke:#038048;stroke-width:1.0;"/><text fill="#000000" font-family="sans-serif" font-size="14" lengthAdjust="spacing" textLength="613" x="42" y="684.6826">createBijectionFilteredHappensBeforeAndAddToOverallFact(ExprVar, Sig, Expr, Expr): void</text><ellipse cx="33" cy="697.6328" fill="#84BE84" rx="3" ry="3" style="stroke:#038048;stroke-width:1.0;"/><text fill="#000000" font-family="sans-serif" font-size="14" lengthAdjust="spacing" textLength="205" x="42" y="700.9795">getCommonCmdExprs(): Expr</text><ellipse cx="33" cy="713.9297" fill="#84BE84" rx="3" ry="3" style="stroke:#038048;stroke-width:1.0;"/><text fill="#000000" font-family="sans-serif" font-size="14" lengthAdjust="spacing" textLength="388" x="42" y="717.2764">addCardinalityEqualConstraintToField(Sig, Field, int): void</text><ellipse cx="33" cy="730.2266" fill="#84BE84" rx="3" ry="3" style="stroke:#038048;stroke-width:1.0;"/><text fill="#000000" font-family="sans-serif" font-size="14" lengthAdjust="spacing" textLength="475" x="42" y="733.5732">addCardinalityGreaterThanEqualConstraintToField(Sig, Field, int): void</text><ellipse cx="33" cy="746.5234" fill="#84BE84" rx="3" ry="3" style="stroke:#038048;stroke-width:1.0;"/><text fill="#000000" font-family="sans-serif" font-size="14" lengthAdjust="spacing" textLength="212" x="42" y="749.8701">addEqual(Sig, Field, Field): void</text><ellipse cx="33" cy="762.8203" fill="#84BE84" rx="3" ry="3" style="stroke:#038048;stroke-width:1.0;"/><text fill="#000000" font-family="sans-serif" font-size="14" lengthAdjust="spacing" textLength="300" x="42" y="766.167">addEqual2(PrimSig, List&lt;Field&gt;, Func): void</text><ellipse cx="33" cy="779.1172" fill="#84BE84" rx="3" ry="3" style="stroke:#038048;stroke-width:1.0;"/><text fill="#000000" font-family="sans-serif" font-size="14" lengthAdjust="spacing" textLength="401" x="42" y="782.4639">createInOutClosure(PrimSig, Field, List&lt;Field&gt;, Func): void</text><ellipse cx="33" cy="795.4141" fill="#84BE84" rx="3" ry="3" style="stroke:#038048;stroke-width:1.0;"/><text fill="#000000" font-family="sans-serif" font-size="14" lengthAdjust="spacing" textLength="344" x="42" y="798.7607">addOneConstraintToField(ExprVar, Sig, Field): void</text><ellipse cx="33" cy="811.7109" fill="#84BE84" rx="3" ry="3" style="stroke:#038048;stroke-width:1.0;"/><text fill="#000000" font-family="sans-serif" font-size="14" lengthAdjust="spacing" textLength="135" x="42" y="815.0576">noStepsX(Sig): void</text><ellipse cx="33" cy="828.0078" fill="#84BE84" rx="3" ry="3" style="stroke:#038048;stroke-width:1.0;"/><text fill="#000000" font-family="sans-serif" font-size="14" lengthAdjust="spacing" textLength="135" x="42" y="831.3545">noXSteps(Sig): void</text><ellipse cx="33" cy="844.3047" fill="#84BE84" rx="3" ry="3" style="stroke:#038048;stroke-width:1.0;"/><text fill="#000000" font-family="sans-serif" font-size="14" lengthAdjust="spacing" textLength="252" x="42" y="847.6514">noInputsOrOutputsX(Sig, Func): void</text><ellipse cx="33" cy="860.6016" fill="#84BE84" rx="3" ry="3" style="stroke:#038048;stroke-width:1.0;"/><text fill="#000000" font-family="sans-serif" font-size="14" lengthAdjust="spacing" textLength="252" x="42" y="863.9482">noXInputsOrOutputs(Sig, Func): void</text><ellipse cx="33" cy="876.8984" fill="#84BE84" rx="3" ry="3" style="stroke:#038048;stroke-width:1.0;"/><text fill="#000000" font-family="sans-serif" font-size="14" lengthAdjust="spacing" textLength="432" x="42" y="880.2451">noInputsXAndXInputsOrOutputsXAndXOutputs(Sig, Func): void</text><ellipse cx="33" cy="893.1953" fill="#84BE84" rx="3" ry="3" style="stroke:#038048;stroke-width:1.0;"/><text fill="#000000" font-family="sans-serif" font-size="14" lengthAdjust="spacing" textLength="133" x="42" y="896.542">noItemsX(Sig): void</text><ellipse cx="33" cy="909.4922" fill="#84BE84" rx="3" ry="3" style="stroke:#038048;stroke-width:1.0;"/><text fill="#000000" font-family="sans-serif" font-size="14" lengthAdjust="spacing" textLength="360" x="42" y="912.8389">createNoInputsOrOutputsField(Sig, Field, Func): void</text><ellipse cx="33" cy="925.7891" fill="#84BE84" rx="3" ry="3" style="stroke:#038048;stroke-width:1.0;"/><text fill="#000000" font-family="sans-serif" font-size="14" lengthAdjust="spacing" textLength="473" x="42" y="929.1357">createEqualFieldToOverallFact(Sig, Expr, Field, Expr, Field, Func): void</text><ellipse cx="33" cy="942.0859" fill="#84BE84" rx="3" ry="3" style="stroke:#038048;stroke-width:1.0;"/><text fill="#000000" font-family="sans-serif" font-size="14" lengthAdjust="spacing" textLength="175" x="42" y="945.4326">noTransferStep(Sig): void</text><ellipse cx="33" cy="958.3828" fill="#84BE84" rx="3" ry="3" style="stroke:#038048;stroke-width:1.0;"/><text fill="#000000" font-family="sans-serif" font-size="14" lengthAdjust="spacing" textLength="387" x="42" y="961.7295">addSteps(PrimSig, Set&lt;String&gt;, boolean, boolean): void</text><ellipse cx="33" cy="974.6797" fill="#84BE84" rx="3" ry="3" style="stroke:#038048;stroke-width:1.0;"/><text fill="#000000" font-family="sans-serif" font-size="14" lengthAdjust="spacing" textLength="355" x="42" y="978.0264">addRedefinedSubsettingAsFact(Sig, Field, Sig): void</text></g></a><!--class AlloyUtils--><a href="AlloyUtils.html" target="_top" title="AlloyUtils.html" xlink:actuate="onRequest" xlink:href="AlloyUtils.html" xlink:show="new" xlink:title="AlloyUtils.html" xlink:type="simple"><g id="elem_AlloyUtils"><rect codeLine="63" fill="#F1F1F1" height="390.2344" id="AlloyUtils" rx="2.5" ry="2.5" style="stroke:#181818;stroke-width:0.5;" width="745" x="707.5" y="318"/><ellipse cx="1045.75" cy="334" fill="#ADD1B2" rx="11" ry="11" style="stroke:#181818;stroke-width:1.0;"/><path d="M1048.7188,339.6406 Q1048.1406,339.9375 1047.5,340.0781 Q1046.8594,340.2344 1046.1563,340.2344 Q1043.6563,340.2344 1042.3281,338.5938 Q1041.0156,336.9375 1041.0156,333.8125 Q1041.0156,330.6875 1042.3281,329.0313 Q1043.6563,327.375 1046.1563,327.375 Q1046.8594,327.375 1047.5,327.5313 Q1048.1563,327.6875 1048.7188,327.9844 L1048.7188,330.7031 Q1048.0938,330.125 1047.5,329.8594 Q1046.9063,329.5781 1046.2813,329.5781 Q1044.9375,329.5781 1044.25,330.6563 Q1043.5625,331.7188 1043.5625,333.8125 Q1043.5625,335.9063 1044.25,336.9844 Q1044.9375,338.0469 1046.2813,338.0469 Q1046.9063,338.0469 1047.5,337.7813 Q1048.0938,337.5 1048.7188,336.9219 L1048.7188,339.6406 Z " fill="#000000"/><text fill="#000000" font-family="sans-serif" font-size="14" lengthAdjust="spacing" textLength="60" x="1066.25" y="338.8467">AlloyUtils</text><line style="stroke:#181818;stroke-width:0.5;" x1="708.5" x2="1451.5" y1="350" y2="350"/><line style="stroke:#181818;stroke-width:0.5;" x1="708.5" x2="1451.5" y1="358" y2="358"/><ellipse cx="718.5" cy="371.6484" fill="#84BE84" rx="3" ry="3" style="stroke:#038048;stroke-width:1.0;"/><text fill="#000000" font-family="sans-serif" font-size="14" lengthAdjust="spacing" text-decoration="underline" textLength="311" x="727.5" y="374.9951">hasParameterField(Sig, Set&lt;Field&gt;): boolean</text><ellipse cx="718.5" cy="387.9453" fill="#84BE84" rx="3" ry="3" style="stroke:#038048;stroke-width:1.0;"/><text fill="#000000" font-family="sans-serif" font-size="14" lengthAdjust="spacing" text-decoration="underline" textLength="260" x="727.5" y="391.292">importAlloyModule(File): CompModule</text><ellipse cx="718.5" cy="404.2422" fill="#84BE84" rx="3" ry="3" style="stroke:#038048;stroke-width:1.0;"/><text fill="#000000" font-family="sans-serif" font-size="14" lengthAdjust="spacing" text-decoration="underline" textLength="277" x="727.5" y="407.5889">importAlloyModule(String): CompModule</text><ellipse cx="718.5" cy="420.5391" fill="#84BE84" rx="3" ry="3" style="stroke:#038048;stroke-width:1.0;"/><text fill="#000000" font-family="sans-serif" font-size="14" lengthAdjust="spacing" text-decoration="underline" textLength="188" x="727.5" y="423.8857">removeSlash(String): String</text><ellipse cx="718.5" cy="436.8359" fill="#84BE84" rx="3" ry="3" style="stroke:#038048;stroke-width:1.0;"/><text fill="#000000" font-family="sans-serif" font-size="14" lengthAdjust="spacing" text-decoration="underline" textLength="190" x="727.5" y="440.1826">validParent(String): boolean</text><ellipse cx="718.5" cy="453.1328" fill="#84BE84" rx="3" ry="3" style="stroke:#038048;stroke-width:1.0;"/><text fill="#000000" font-family="sans-serif" font-size="14" lengthAdjust="spacing" text-decoration="underline" textLength="288" x="727.5" y="456.4795">findFieldWithType(Sig, String): List&lt;Field&gt;</text><ellipse cx="718.5" cy="469.4297" fill="#84BE84" rx="3" ry="3" style="stroke:#038048;stroke-width:1.0;"/><text fill="#000000" font-family="sans-serif" font-size="14" lengthAdjust="spacing" text-decoration="underline" textLength="210" x="727.5" y="472.7764">hasTransferField(Sig): boolean</text><ellipse cx="718.5" cy="485.7266" fill="#84BE84" rx="3" ry="3" style="stroke:#038048;stroke-width:1.0;"/><text fill="#000000" font-family="sans-serif" font-size="14" lengthAdjust="spacing" text-decoration="underline" textLength="261" x="727.5" y="489.0732">getFieldFromSig(String, PrimSig): Field</text><ellipse cx="718.5" cy="502.0234" fill="#84BE84" rx="3" ry="3" style="stroke:#038048;stroke-width:1.0;"/><text fill="#000000" font-family="sans-serif" font-size="14" lengthAdjust="spacing" text-decoration="underline" textLength="346" x="727.5" y="505.3701">getFieldFromSigOrItsParents(String, PrimSig): Field</text><ellipse cx="718.5" cy="518.3203" fill="#84BE84" rx="3" ry="3" style="stroke:#038048;stroke-width:1.0;"/><text fill="#000000" font-family="sans-serif" font-size="14" lengthAdjust="spacing" text-decoration="underline" textLength="306" x="727.5" y="521.667">getFieldFromParentSig(String, PrimSig): Field</text><ellipse cx="718.5" cy="534.6172" fill="#84BE84" rx="3" ry="3" style="stroke:#038048;stroke-width:1.0;"/><text fill="#000000" font-family="sans-serif" font-size="14" lengthAdjust="spacing" text-decoration="underline" textLength="280" x="727.5" y="537.9639">getSigDomainFileld(String, PrimSig): Expr</text><ellipse cx="718.5" cy="550.9141" fill="#84BE84" rx="3" ry="3" style="stroke:#038048;stroke-width:1.0;"/><text fill="#000000" font-family="sans-serif" font-size="14" lengthAdjust="spacing" text-decoration="underline" textLength="255" x="727.5" y="554.2607">getSigOwnField(String, PrimSig): Expr</text><ellipse cx="718.5" cy="567.2109" fill="#84BE84" rx="3" ry="3" style="stroke:#038048;stroke-width:1.0;"/><text fill="#000000" font-family="sans-serif" font-size="14" lengthAdjust="spacing" text-decoration="underline" textLength="344" x="727.5" y="570.5576">getFieldFromSigByFieldType(String, PrimSig): Field</text><ellipse cx="718.5" cy="583.5078" fill="#84BE84" rx="3" ry="3" style="stroke:#038048;stroke-width:1.0;"/><text fill="#000000" font-family="sans-serif" font-size="14" lengthAdjust="spacing" text-decoration="underline" textLength="309" x="727.5" y="586.8545">addAllReachableSig(Module, List&lt;Sig&gt;): void</text><ellipse cx="718.5" cy="599.8047" fill="#84BE84" rx="3" ry="3" style="stroke:#038048;stroke-width:1.0;"/><text fill="#000000" font-family="sans-serif" font-size="14" lengthAdjust="spacing" text-decoration="underline" textLength="328" x="727.5" y="603.1514">getReachableSigField(Module, Sig, String): Field</text><ellipse cx="718.5" cy="616.1016" fill="#84BE84" rx="3" ry="3" style="stroke:#038048;stroke-width:1.0;"/><text fill="#000000" font-family="sans-serif" font-size="14" lengthAdjust="spacing" text-decoration="underline" textLength="256" x="727.5" y="619.4482">getReachableSig(Module, String): Sig</text><ellipse cx="718.5" cy="632.3984" fill="#84BE84" rx="3" ry="3" style="stroke:#038048;stroke-width:1.0;"/><text fill="#000000" font-family="sans-serif" font-size="14" lengthAdjust="spacing" text-decoration="underline" textLength="388" x="727.5" y="635.7451">getAllReachableModuleByName(Module, String): Module</text><ellipse cx="718.5" cy="648.6953" fill="#84BE84" rx="3" ry="3" style="stroke:#038048;stroke-width:1.0;"/><text fill="#000000" font-family="sans-serif" font-size="14" lengthAdjust="spacing" text-decoration="underline" textLength="235" x="727.5" y="652.042">getFunction(Module, String): Func</text><ellipse cx="718.5" cy="664.9922" fill="#84BE84" rx="3" ry="3" style="stroke:#038048;stroke-width:1.0;"/><text fill="#000000" font-family="sans-serif" font-size="14" lengthAdjust="spacing" text-decoration="underline" textLength="719" x="727.5" y="668.3389">getInheritedFields(PrimSig, HashMap&lt;String, Set&lt;String&gt;&gt;, Map&lt;String, NamedElement&gt;): Set&lt;Field&gt;</text><ellipse cx="718.5" cy="681.2891" fill="#84BE84" rx="3" ry="3" style="stroke:#038048;stroke-width:1.0;"/><text fill="#000000" font-family="sans-serif" font-size="14" lengthAdjust="spacing" text-decoration="underline" textLength="244" x="727.5" y="684.6357">sortFields(Set&lt;Field&gt;): List&lt;Field&gt;</text><ellipse cx="718.5" cy="697.5859" fill="#84BE84" rx="3" ry="3" style="stroke:#038048;stroke-width:1.0;"/><text fill="#000000" font-family="sans-serif" font-size="14" lengthAdjust="spacing" text-decoration="underline" textLength="265" x="727.5" y="700.9326">fieldsLabels(Set&lt;Field&gt;): Set&lt;String&gt;</text></g></a><!--class AlloyRunUtils--><a href="AlloyRunUtils.html" target="_top" title="AlloyRunUtils.html" xlink:actuate="onRequest" xlink:href="AlloyRunUtils.html" xlink:show="new" xlink:title="AlloyRunUtils.html" xlink:type="simple"><g id="elem_AlloyRunUtils"><rect codeLine="87" fill="#F1F1F1" height="96.8906" id="AlloyRunUtils" rx="2.5" ry="2.5" style="stroke:#181818;stroke-width:0.5;" width="319" x="1487.5" y="464.5"/><ellipse cx="1598.75" cy="480.5" fill="#ADD1B2" rx="11" ry="11" style="stroke:#181818;stroke-width:1.0;"/><path d="M1601.7188,486.1406 Q1601.1406,486.4375 1600.5,486.5781 Q1599.8594,486.7344 1599.1563,486.7344 Q1596.6563,486.7344 1595.3281,485.0938 Q1594.0156,483.4375 1594.0156,480.3125 Q1594.0156,477.1875 1595.3281,475.5313 Q1596.6563,473.875 1599.1563,473.875 Q1599.8594,473.875 1600.5,474.0313 Q1601.1563,474.1875 1601.7188,474.4844 L1601.7188,477.2031 Q1601.0938,476.625 1600.5,476.3594 Q1599.9063,476.0781 1599.2813,476.0781 Q1597.9375,476.0781 1597.25,477.1563 Q1596.5625,478.2188 1596.5625,480.3125 Q1596.5625,482.4063 1597.25,483.4844 Q1597.9375,484.5469 1599.2813,484.5469 Q1599.9063,484.5469 1600.5,484.2813 Q1601.0938,484 1601.7188,483.4219 L1601.7188,486.1406 Z " fill="#000000"/><text fill="#000000" font-family="sans-serif" font-size="14" lengthAdjust="spacing" textLength="88" x="1619.25" y="485.3467">AlloyRunUtils</text><line style="stroke:#181818;stroke-width:0.5;" x1="1488.5" x2="1805.5" y1="496.5" y2="496.5"/><line style="stroke:#181818;stroke-width:0.5;" x1="1488.5" x2="1805.5" y1="504.5" y2="504.5"/><ellipse cx="1498.5" cy="518.1484" fill="#84BE84" rx="3" ry="3" style="stroke:#038048;stroke-width:1.0;"/><text fill="#000000" font-family="sans-serif" font-size="14" lengthAdjust="spacing" text-decoration="underline" textLength="230" x="1507.5" y="521.4951">run(Sig, int, List&lt;Sig&gt;, Expr): void</text><ellipse cx="1498.5" cy="534.4453" fill="#84BE84" rx="3" ry="3" style="stroke:#038048;stroke-width:1.0;"/><text fill="#000000" font-family="sans-serif" font-size="14" lengthAdjust="spacing" text-decoration="underline" textLength="293" x="1507.5" y="537.792">runX(Sig, List&lt;Sig&gt;, Expr, Command): void</text><ellipse cx="1498.5" cy="550.7422" fill="#84BE84" rx="3" ry="3" style="stroke:#038048;stroke-width:1.0;"/><text fill="#000000" font-family="sans-serif" font-size="14" lengthAdjust="spacing" text-decoration="underline" textLength="239" x="1507.5" y="554.0889">runX(Sig, int, List&lt;Sig&gt;, Expr): void</text></g></a><!--class FuncUtils--><a href="FuncUtils.html" target="_top" title="FuncUtils.html" xlink:actuate="onRequest" xlink:href="FuncUtils.html" xlink:show="new" xlink:title="FuncUtils.html" xlink:type="simple"><g id="elem_FuncUtils"><rect codeLine="93" fill="#F1F1F1" height="439.125" id="FuncUtils" rx="2.5" ry="2.5" style="stroke:#181818;stroke-width:0.5;" width="527" x="83.5" y="1045"/><ellipse cx="311.25" cy="1061" fill="#ADD1B2" rx="11" ry="11" style="stroke:#181818;stroke-width:1.0;"/><path d="M314.2188,1066.6406 Q313.6406,1066.9375 313,1067.0781 Q312.3594,1067.2344 311.6563,1067.2344 Q309.1563,1067.2344 307.8281,1065.5938 Q306.5156,1063.9375 306.5156,1060.8125 Q306.5156,1057.6875 307.8281,1056.0313 Q309.1563,1054.375 311.6563,1054.375 Q312.3594,1054.375 313,1054.5313 Q313.6563,1054.6875 314.2188,1054.9844 L314.2188,1057.7031 Q313.5938,1057.125 313,1056.8594 Q312.4063,1056.5781 311.7813,1056.5781 Q310.4375,1056.5781 309.75,1057.6563 Q309.0625,1058.7188 309.0625,1060.8125 Q309.0625,1062.9063 309.75,1063.9844 Q310.4375,1065.0469 311.7813,1065.0469 Q312.4063,1065.0469 313,1064.7813 Q313.5938,1064.5 314.2188,1063.9219 L314.2188,1066.6406 Z " fill="#000000"/><text fill="#000000" font-family="sans-serif" font-size="14" lengthAdjust="spacing" textLength="63" x="331.75" y="1065.8467">FuncUtils</text><line style="stroke:#181818;stroke-width:0.5;" x1="84.5" x2="609.5" y1="1077" y2="1077"/><line style="stroke:#181818;stroke-width:0.5;" x1="84.5" x2="609.5" y1="1085" y2="1085"/><ellipse cx="94.5" cy="1098.6484" fill="#84BE84" rx="3" ry="3" style="stroke:#038048;stroke-width:1.0;"/><text fill="#000000" font-family="sans-serif" font-size="14" lengthAdjust="spacing" text-decoration="underline" textLength="344" x="103.5" y="1101.9951">getDuringExampleExpr(String, Sig, Field, Sig): Expr</text><ellipse cx="94.5" cy="1114.9453" fill="#84BE84" rx="3" ry="3" style="stroke:#038048;stroke-width:1.0;"/><text fill="#000000" font-family="sans-serif" font-size="14" lengthAdjust="spacing" text-decoration="underline" textLength="249" x="103.5" y="1118.292">exprToFunToExpr(String, Expr): Expr</text><ellipse cx="94.5" cy="1131.2422" fill="#84BE84" rx="3" ry="3" style="stroke:#038048;stroke-width:1.0;"/><text fill="#000000" font-family="sans-serif" font-size="14" lengthAdjust="spacing" text-decoration="underline" textLength="207" x="103.5" y="1134.5889">addField(String, Sig, Sig): Field</text><ellipse cx="94.5" cy="1147.5391" fill="#84BE84" rx="3" ry="3" style="stroke:#038048;stroke-width:1.0;"/><text fill="#000000" font-family="sans-serif" font-size="14" lengthAdjust="spacing" text-decoration="underline" textLength="236" x="103.5" y="1150.8857">addOneField(String, Sig, Sig): Field</text><ellipse cx="94.5" cy="1163.8359" fill="#84BE84" rx="3" ry="3" style="stroke:#038048;stroke-width:1.0;"/><text fill="#000000" font-family="sans-serif" font-size="14" lengthAdjust="spacing" text-decoration="underline" textLength="267" x="103.5" y="1167.1826">addTrickyField(String[], Sig, Sig): Field[]</text><ellipse cx="94.5" cy="1180.1328" fill="#84BE84" rx="3" ry="3" style="stroke:#038048;stroke-width:1.0;"/><text fill="#000000" font-family="sans-serif" font-size="14" lengthAdjust="spacing" text-decoration="underline" textLength="289" x="103.5" y="1183.4795">createExprEqualToNumber(Expr, int): Expr</text><ellipse cx="94.5" cy="1196.4297" fill="#84BE84" rx="3" ry="3" style="stroke:#038048;stroke-width:1.0;"/><text fill="#000000" font-family="sans-serif" font-size="14" lengthAdjust="spacing" text-decoration="underline" textLength="376" x="103.5" y="1199.7764">createExprGreaterThanEqualToNumber(Expr, int): Expr</text><ellipse cx="94.5" cy="1212.7266" fill="#84BE84" rx="3" ry="3" style="stroke:#038048;stroke-width:1.0;"/><text fill="#000000" font-family="sans-serif" font-size="14" lengthAdjust="spacing" text-decoration="underline" textLength="303" x="103.5" y="1216.0732">createExprGreaterToNumber(Expr, int): Expr</text><ellipse cx="94.5" cy="1229.0234" fill="#84BE84" rx="3" ry="3" style="stroke:#038048;stroke-width:1.0;"/><text fill="#000000" font-family="sans-serif" font-size="14" lengthAdjust="spacing" text-decoration="underline" textLength="450" x="103.5" y="1232.3701">addBijectionFilteredExprHappensBefore(Module, Expr, Expr): Expr</text><ellipse cx="94.5" cy="1245.3203" fill="#84BE84" rx="3" ry="3" style="stroke:#038048;stroke-width:1.0;"/><text fill="#000000" font-family="sans-serif" font-size="14" lengthAdjust="spacing" text-decoration="underline" textLength="451" x="103.5" y="1248.667">addFunctionFilteredExprHappensBefore(Module, Expr, Expr): Expr</text><ellipse cx="94.5" cy="1261.6172" fill="#84BE84" rx="3" ry="3" style="stroke:#038048;stroke-width:1.0;"/><text fill="#000000" font-family="sans-serif" font-size="14" lengthAdjust="spacing" text-decoration="underline" textLength="501" x="103.5" y="1264.9639">addInverseFunctionFilteredExprHappensBefore(Module, Expr, Expr): Expr</text><ellipse cx="94.5" cy="1277.9141" fill="#84BE84" rx="3" ry="3" style="stroke:#038048;stroke-width:1.0;"/><text fill="#000000" font-family="sans-serif" font-size="14" lengthAdjust="spacing" text-decoration="underline" textLength="190" x="103.5" y="1281.2607">addExprs(List&lt;Expr&gt;): Expr</text><ellipse cx="94.5" cy="1294.2109" fill="#84BE84" rx="3" ry="3" style="stroke:#038048;stroke-width:1.0;"/><text fill="#000000" font-family="sans-serif" font-size="14" lengthAdjust="spacing" text-decoration="underline" textLength="191" x="103.5" y="1297.5576">addToExpr(Expr, Expr): Expr</text><ellipse cx="94.5" cy="1310.5078" fill="#84BE84" rx="3" ry="3" style="stroke:#038048;stroke-width:1.0;"/><text fill="#000000" font-family="sans-serif" font-size="14" lengthAdjust="spacing" text-decoration="underline" textLength="276" x="103.5" y="1313.8545">addNonZeroDurationOnly(Module): Expr</text><ellipse cx="94.5" cy="1326.8047" fill="#84BE84" rx="3" ry="3" style="stroke:#038048;stroke-width:1.0;"/><text fill="#000000" font-family="sans-serif" font-size="14" lengthAdjust="spacing" text-decoration="underline" textLength="287" x="103.5" y="1330.1514">addSuppressTransfersExpr(Module): Expr</text><ellipse cx="94.5" cy="1343.1016" fill="#84BE84" rx="3" ry="3" style="stroke:#038048;stroke-width:1.0;"/><text fill="#000000" font-family="sans-serif" font-size="14" lengthAdjust="spacing" text-decoration="underline" textLength="236" x="103.5" y="1346.4482">addSuppressIOExpr(Module): Expr</text><ellipse cx="94.5" cy="1359.3984" fill="#84BE84" rx="3" ry="3" style="stroke:#038048;stroke-width:1.0;"/><text fill="#000000" font-family="sans-serif" font-size="14" lengthAdjust="spacing" text-decoration="underline" textLength="226" x="103.5" y="1362.7451">onlyOneSigExpr(String, Sig): Expr</text><ellipse cx="94.5" cy="1375.6953" fill="#84BE84" rx="3" ry="3" style="stroke:#038048;stroke-width:1.0;"/><text fill="#000000" font-family="sans-serif" font-size="14" lengthAdjust="spacing" text-decoration="underline" textLength="274" x="103.5" y="1379.042">addStep(Module, List&lt;Field&gt;, Sig): Expr</text><ellipse cx="94.5" cy="1391.9922" fill="#84BE84" rx="3" ry="3" style="stroke:#038048;stroke-width:1.0;"/><text fill="#000000" font-family="sans-serif" font-size="14" lengthAdjust="spacing" text-decoration="underline" textLength="326" x="103.5" y="1395.3389">addFieldsInStep(Module, List&lt;Field&gt;, Sig): Expr</text><ellipse cx="94.5" cy="1408.2891" fill="#84BE84" rx="3" ry="3" style="stroke:#038048;stroke-width:1.0;"/><text fill="#000000" font-family="sans-serif" font-size="14" lengthAdjust="spacing" text-decoration="underline" textLength="334" x="103.5" y="1411.6357">addStepsInFields(Module, List&lt;Field&gt;, Sig): Expr</text><ellipse cx="94.5" cy="1424.5859" fill="#84BE84" rx="3" ry="3" style="stroke:#038048;stroke-width:1.0;"/><text fill="#000000" font-family="sans-serif" font-size="14" lengthAdjust="spacing" text-decoration="underline" textLength="437" x="103.5" y="1427.9326">createConstraintExpr(Module, Sig, List&lt;Field&gt;, List&lt;Sig&gt;): Expr</text><ellipse cx="94.5" cy="1440.8828" fill="#84BE84" rx="3" ry="3" style="stroke:#038048;stroke-width:1.0;"/><text fill="#000000" font-family="sans-serif" font-size="14" lengthAdjust="spacing" text-decoration="underline" textLength="383" x="103.5" y="1444.2295">forkHappensBefore(Module, Sig, Field, Field, Field): Expr</text><ellipse cx="94.5" cy="1457.1797" fill="#84BE84" rx="3" ry="3" style="stroke:#038048;stroke-width:1.0;"/><text fill="#000000" font-family="sans-serif" font-size="14" lengthAdjust="spacing" text-decoration="underline" textLength="427" x="103.5" y="1460.5264">decisionHappensBefore(Module, Sig, Field, Field, Field...): Expr</text><ellipse cx="94.5" cy="1473.4766" fill="#84BE84" rx="3" ry="3" style="stroke:#038048;stroke-width:1.0;"/><text fill="#000000" font-family="sans-serif" font-size="14" lengthAdjust="spacing" text-decoration="underline" textLength="387" x="103.5" y="1476.8232">loopHappensBefore(Module, Sig, Field, Field, Field): Expr</text></g></a><!--class VisualizerHelper--><a href="VisualizerHelper.html" target="_top" title="VisualizerHelper.html" xlink:actuate="onRequest" xlink:href="VisualizerHelper.html" xlink:show="new" xlink:title="VisualizerHelper.html" xlink:type="simple"><g id="elem_VisualizerHelper"><rect codeLine="120" fill="#F1F1F1" height="162.0781" id="VisualizerHelper" rx="2.5" ry="2.5" style="stroke:#181818;stroke-width:0.5;" width="502" x="646" y="1183.5"/><ellipse cx="837.75" cy="1199.5" fill="#ADD1B2" rx="11" ry="11" style="stroke:#181818;stroke-width:1.0;"/><path d="M840.7188,1205.1406 Q840.1406,1205.4375 839.5,1205.5781 Q838.8594,1205.7344 838.1563,1205.7344 Q835.6563,1205.7344 834.3281,1204.0938 Q833.0156,1202.4375 833.0156,1199.3125 Q833.0156,1196.1875 834.3281,1194.5313 Q835.6563,1192.875 838.1563,1192.875 Q838.8594,1192.875 839.5,1193.0313 Q840.1563,1193.1875 840.7188,1193.4844 L840.7188,1196.2031 Q840.0938,1195.625 839.5,1195.3594 Q838.9063,1195.0781 838.2813,1195.0781 Q836.9375,1195.0781 836.25,1196.1563 Q835.5625,1197.2188 835.5625,1199.3125 Q835.5625,1201.4063 836.25,1202.4844 Q836.9375,1203.5469 838.2813,1203.5469 Q838.9063,1203.5469 839.5,1203.2813 Q840.0938,1203 840.7188,1202.4219 L840.7188,1205.1406 Z " fill="#000000"/><text fill="#000000" font-family="sans-serif" font-size="14" lengthAdjust="spacing" textLength="110" x="858.25" y="1204.3467">VisualizerHelper</text><line style="stroke:#181818;stroke-width:0.5;" x1="647" x2="1147" y1="1215.5" y2="1215.5"/><line style="stroke:#181818;stroke-width:0.5;" x1="647" x2="1147" y1="1223.5" y2="1223.5"/><ellipse cx="657" cy="1237.1484" fill="#84BE84" rx="3" ry="3" style="stroke:#038048;stroke-width:1.0;"/><text fill="#000000" font-family="sans-serif" font-size="14" lengthAdjust="spacing" text-decoration="underline" textLength="211" x="666" y="1240.4951">updateUpdated(boolean): void</text><ellipse cx="657" cy="1253.4453" fill="#84BE84" rx="3" ry="3" style="stroke:#038048;stroke-width:1.0;"/><text fill="#000000" font-family="sans-serif" font-size="14" lengthAdjust="spacing" text-decoration="underline" textLength="159" x="666" y="1256.792">hasUpdated(): boolean</text><ellipse cx="657" cy="1269.7422" fill="#84BE84" rx="3" ry="3" style="stroke:#038048;stroke-width:1.0;"/><text fill="#000000" font-family="sans-serif" font-size="14" lengthAdjust="spacing" text-decoration="underline" textLength="476" x="666" y="1273.0889">generateVisualizerWithNextCapability(Iterable&lt;Sig&gt;, Command): void</text><ellipse cx="657" cy="1286.0391" fill="#84BE84" rx="3" ry="3" style="stroke:#038048;stroke-width:1.0;"/><text fill="#000000" font-family="sans-serif" font-size="14" lengthAdjust="spacing" text-decoration="underline" textLength="116" x="666" y="1289.3857">updateVis(): void</text><ellipse cx="657" cy="1302.3359" fill="#84BE84" rx="3" ry="3" style="stroke:#038048;stroke-width:1.0;"/><text fill="#000000" font-family="sans-serif" font-size="14" lengthAdjust="spacing" text-decoration="underline" textLength="359" x="666" y="1305.6826">generateVisualizerX(Iterable&lt;Sig&gt;, Command): void</text><ellipse cx="657" cy="1318.6328" fill="#84BE84" rx="3" ry="3" style="stroke:#038048;stroke-width:1.0;"/><text fill="#000000" font-family="sans-serif" font-size="14" lengthAdjust="spacing" text-decoration="underline" textLength="350" x="666" y="1321.9795">generateVisualizer(Iterable&lt;Sig&gt;, Command): void</text><ellipse cx="657" cy="1334.9297" fill="#84BE84" rx="3" ry="3" style="stroke:#038048;stroke-width:1.0;"/><text fill="#000000" font-family="sans-serif" font-size="14" lengthAdjust="spacing" text-decoration="underline" textLength="226" x="666" y="1338.2764">generateVisualizer(Module): void</text></g></a><!--class MDUtils--><a href="MDUtils.html" target="_top" title="MDUtils.html" xlink:actuate="onRequest" xlink:href="MDUtils.html" xlink:show="new" xlink:title="MDUtils.html" xlink:type="simple"><g id="elem_MDUtils"><rect codeLine="130" fill="#F1F1F1" height="96.8906" id="MDUtils" rx="2.5" ry="2.5" style="stroke:#181818;stroke-width:0.5;" width="441" x="1183.5" y="1216"/><ellipse cx="1373.75" cy="1232" fill="#ADD1B2" rx="11" ry="11" style="stroke:#181818;stroke-width:1.0;"/><path d="M1376.7188,1237.6406 Q1376.1406,1237.9375 1375.5,1238.0781 Q1374.8594,1238.2344 1374.1563,1238.2344 Q1371.6563,1238.2344 1370.3281,1236.5938 Q1369.0156,1234.9375 1369.0156,1231.8125 Q1369.0156,1228.6875 1370.3281,1227.0313 Q1371.6563,1225.375 1374.1563,1225.375 Q1374.8594,1225.375 1375.5,1225.5313 Q1376.1563,1225.6875 1376.7188,1225.9844 L1376.7188,1228.7031 Q1376.0938,1228.125 1375.5,1227.8594 Q1374.9063,1227.5781 1374.2813,1227.5781 Q1372.9375,1227.5781 1372.25,1228.6563 Q1371.5625,1229.7188 1371.5625,1231.8125 Q1371.5625,1233.9063 1372.25,1234.9844 Q1372.9375,1236.0469 1374.2813,1236.0469 Q1374.9063,1236.0469 1375.5,1235.7813 Q1376.0938,1235.5 1376.7188,1234.9219 L1376.7188,1237.6406 Z " fill="#000000"/><text fill="#000000" font-family="sans-serif" font-size="14" lengthAdjust="spacing" textLength="52" x="1394.25" y="1236.8467">MDUtils</text><line style="stroke:#181818;stroke-width:0.5;" x1="1184.5" x2="1623.5" y1="1248" y2="1248"/><line style="stroke:#181818;stroke-width:0.5;" x1="1184.5" x2="1623.5" y1="1256" y2="1256"/><ellipse cx="1194.5" cy="1269.6484" fill="#84BE84" rx="3" ry="3" style="stroke:#038048;stroke-width:1.0;"/><text fill="#000000" font-family="sans-serif" font-size="14" lengthAdjust="spacing" text-decoration="underline" textLength="370" x="1203.5" y="1272.9951">toSigs(Set&lt;NamedElement&gt;, ToAlloy): Set&lt;PrimSig&gt;</text><ellipse cx="1194.5" cy="1285.9453" fill="#84BE84" rx="3" ry="3" style="stroke:#038048;stroke-width:1.0;"/><text fill="#000000" font-family="sans-serif" font-size="14" lengthAdjust="spacing" text-decoration="underline" textLength="415" x="1203.5" y="1289.292">findLeafClass(Set&lt;NamedElement&gt;): Set&lt;NamedElement&gt;</text><ellipse cx="1194.5" cy="1302.2422" fill="#84BE84" rx="3" ry="3" style="stroke:#038048;stroke-width:1.0;"/><text fill="#000000" font-family="sans-serif" font-size="14" lengthAdjust="spacing" text-decoration="underline" textLength="362" x="1203.5" y="1305.5889">createListIncludeSelfAndParents(Class): List&lt;Class&gt;</text></g></a><text fill="#888888" font-family="sans-serif" font-size="10" lengthAdjust="spacing" textLength="186" x="815" y="1515.2822">UMLDoclet 2.1.1, PlantUML 1.2023.12</text><!--SRC=[jLdTJzj847_lN-6Nau8QHMeVgme90XoHW5GaxQ53F6pi2TchlUlRNNFDLVpldVtmjxrsW28rZksPttpFpgH140GI5FvBYI2AY-3JftVly66Gal0xUOG0ecpsI1I4kzcZ4dJ6DybC2S9ahCbd98xvFlXfUVHV61CfWnFp-FxUN6SxbSGF3qWLLFv-IaKK3P-3zmPk2-AQHraCdm9xxI7UaJG59azXomNINcGiz5EUPOAoHo-bv9a8GNff516FeFmqCjkWCnMAMoX8Rj682ovM8y0x6TSZ959vibNWP0nGMfTPL2yffopD1WHpdgbX8ehM3BZLnNv5CKJuCK1cRUWaVczoRR9IEjn7zLTeyRgMP9EZpZGpX92acDimIBWCGzH14tmHD6cfeocUGA1M5oHKckpyHofQDFWUMQL-VqMb-emtntMYK02gWyzFM7GIHMkUirXJfxduFaLAVZdVqJXQRgtctN3ZKRuG0Kpf9ozGYcWUxH_Y_AETWyHFd4Oj7oqU6KOzolsqWYutbNGQgY3KDxsKEZ4BIdtJwVe5GpqbwFUASdP1OomvY2whdIXtPjKar75gWcu_Ewrx8mdt3_dL8-Kt6l2RDLzbcrMzFtPYzOVSkRdQBHUrXdWW7gQl9fMMjY3oc93tdmNJ9iYcRwUcILge2mfnT3mDDfp7GDYGLQVq7wWvtnj4A-XWpC60QgXl1E7790qwVCwJXBDvKbPhkpsYb-T4H9IHcAhz-RyPYUUSIJmCA5DhRlnaxJDVfm4-xfHN1_hJc2ZMEy9UXscuQyJcuYN_E77zS6hxVHvi5vN-3h7Cr3pcCXDG8ZYfuu1GWoM3jh7roFLRmFXAGIhl9hQjTn7S6GeFmS9C5aknjDF3dNDUdyg8sE0OPB3qTvYYJLRpR3ICBj9-KsrGRfhsjBDd8Amc9GnfRz4weDgDH_6yp-X8zAgFgM0ZLMIIELFDqLqsdce7wiIuXGYsbE79NCol9xBKtodReSHpvxxmLT5Ovak3kHdQ77P4uXH24i1ohlY-RA8esDdGDnOdAHVAI7G37tOyG3RiJwbt4Mbp5WFK8A-0X3_12atVbLpsIm_74tQko4vS9OVVD8nCPBpm5rMxzJu5vvoSkz8r-jsRfrFXtK6nsDiDyONWEhKw1aBpUXptKYoKj6RBLo0Le-hX64XqnXFibpelj0jQ0Arpgyc__8yvznt8M_N4wTws2HF7Wup0GiKilGKIxiWcrYFyn2RdjDmukYgyfagLtHgJOzIJQi2RdLgK5T2x_zb5gU2sdAVx6opzDeotzBHRtR3QvlGigdffO3iGkDBQggeqpqkiuskIVixZKcccs4shRxJ2qNaC2QRZSRvt-4fGOeznucfTRRXujuRhYcmWRl1Mr1leoBSPgpNb_7weBukCsMQ3OqObo_edmXghcmeQR5FTLXF2eh7yOsItpDOPa9jSV1yo5tF3_ifq_eCaQGnQKb6axQFGK_I0ht0kozYQrq2SxXvElP7Kceojop7T0QV2bxAk1Gs_xwlSUfzhyjy_z22u8GYjCeFGcjzaoGR4nCRRJjuUcqlsvaZ_UgG30T0NhPr9azVsfgBXrDQZWQ0sDkit0UtvlU5DiEq-P-ektudz32xL3n1nmzdV83ZM7D7gBrcyTveEigwoD1KWYxb66ja7CY-MexauweRrXSNGR0h3qlG4NpkfynLl3BSzD1RiTIXcIrWmTmAz3CRMLhbtLdpdMaKDhpgJU50nFRztvsfh7o-NMWzU126Lc4o7OSvcCpzip7dwEZLRHzGtAh73qVz1N4ASWi2JglbewC3AqWX3yjLyHXFFbbVR1NBw4Ii0mrLMGQcMNa5ku8UQavHigFuHPe8Rjj2pd3kTHntkLc-4dGmDh4q5xbuahutpLZ15x_2F8zTd-J3YlWt-NngtlyBZY5URDQU1-OcUxztyvsRNOy_kU0LaEzTQjD4SIEsPj_frKIzO66SHh23Udh0eN-gCX7oWDJUjeVJPV8P8Zic-vLnVlbvVdV4m1XLyd7sOVS1TA2PCuTFW3tsqwUd-w1S0]--></g></svg>