<svg xmlns="http://www.w3.org/2000/svg" xmlns:xlink="http://www.w3.org/1999/xlink" contentStyleType="text/css" height="200px" preserveAspectRatio="none" style="width:432px;height:200px;background:#FFFFFF;" version="1.1" viewBox="0 0 432 200" width="432px" zoomAndPan="magnify"><defs/><g><ellipse cx="217.2197" cy="20" fill="#222222" rx="10" ry="10" style="stroke:#222222;stroke-width:1.0;"/><polygon fill="#F1F1F1" points="80.8047,50,353.6348,50,365.6348,62,353.6348,74,80.8047,74,68.8047,62,80.8047,50" style="stroke:#181818;stroke-width:0.5;"/><text fill="#000000" font-family="sans-serif" font-size="11" lengthAdjust="spacing" textLength="272.8301" x="80.8047" y="65.8081">parentName == null or is an invalid parent name</text><text fill="#000000" font-family="sans-serif" font-size="11" lengthAdjust="spacing" textLength="19.0083" x="49.7964" y="59.4058">yes</text><text fill="#000000" font-family="sans-serif" font-size="11" lengthAdjust="spacing" textLength="13.7017" x="365.6348" y="59.4058">no</text><rect fill="#F1F1F1" height="33.9688" rx="12.5" ry="12.5" style="stroke:#181818;stroke-width:0.5;" width="95.6094" x="11" y="84"/><text fill="#000000" font-family="sans-serif" font-size="12" lengthAdjust="spacing" textLength="75.6094" x="21" y="105.1387">Return False</text><rect fill="#F1F1F1" height="33.9688" rx="12.5" ry="12.5" style="stroke:#181818;stroke-width:0.5;" width="91.6367" x="329.8164" y="84"/><text fill="#000000" font-family="sans-serif" font-size="12" lengthAdjust="spacing" textLength="71.6367" x="339.8164" y="105.1387">Return True</text><polygon fill="#F1F1F1" points="217.2197,123.9688,229.2197,135.9688,217.2197,147.9688,205.2197,135.9688,217.2197,123.9688" style="stroke:#181818;stroke-width:0.5;"/><ellipse cx="217.2197" cy="178.9688" fill="none" rx="11" ry="11" style="stroke:#222222;stroke-width:1.0;"/><ellipse cx="217.2197" cy="178.9688" fill="#222222" rx="6" ry="6" style="stroke:#222222;stroke-width:1.0;"/><line style="stroke:#181818;stroke-width:1.0;" x1="68.8047" x2="58.8047" y1="62" y2="62"/><line style="stroke:#181818;stroke-width:1.0;" x1="58.8047" x2="58.8047" y1="62" y2="84"/><polygon fill="#181818" points="54.8047,74,58.8047,84,62.8047,74,58.8047,78" style="stroke:#181818;stroke-width:1.0;"/><line style="stroke:#181818;stroke-width:1.0;" x1="365.6348" x2="375.6348" y1="62" y2="62"/><line style="stroke:#181818;stroke-width:1.0;" x1="375.6348" x2="375.6348" y1="62" y2="84"/><polygon fill="#181818" points="371.6348,74,375.6348,84,379.6348,74,375.6348,78" style="stroke:#181818;stroke-width:1.0;"/><line style="stroke:#181818;stroke-width:1.0;" x1="58.8047" x2="58.8047" y1="117.9688" y2="135.9688"/><line style="stroke:#181818;stroke-width:1.0;" x1="58.8047" x2="205.2197" y1="135.9688" y2="135.9688"/><polygon fill="#181818" points="195.2197,131.9688,205.2197,135.9688,195.2197,139.9688,199.2197,135.9688" style="stroke:#181818;stroke-width:1.0;"/><line style="stroke:#181818;stroke-width:1.0;" x1="375.6348" x2="375.6348" y1="117.9688" y2="135.9688"/><line style="stroke:#181818;stroke-width:1.0;" x1="375.6348" x2="229.2197" y1="135.9688" y2="135.9688"/><polygon fill="#181818" points="239.2197,131.9688,229.2197,135.9688,239.2197,139.9688,235.2197,135.9688" style="stroke:#181818;stroke-width:1.0;"/><line style="stroke:#181818;stroke-width:1.0;" x1="217.2197" x2="217.2197" y1="30" y2="50"/><polygon fill="#181818" points="213.2197,40,217.2197,50,221.2197,40,217.2197,44" style="stroke:#181818;stroke-width:1.0;"/><line style="stroke:#181818;stroke-width:1.0;" x1="217.2197" x2="217.2197" y1="147.9688" y2="167.9688"/><polygon fill="#181818" points="213.2197,157.9688,217.2197,167.9688,221.2197,157.9688,217.2197,161.9688" style="stroke:#181818;stroke-width:1.0;"/><!--SRC=[JOen3i9030HhxXLRNhu0Iaj9WVY0fJZ2qh4NsJuaVazG6fefPYPIF8kjTHDNvarUYda6Hsle3Wi8ONnBimN70-xJX7mgKJyQKpcTxvh3YQkqq4lHdPNzBpny_3mNMqjatxu0]--></g></svg>