<svg xmlns="http://www.w3.org/2000/svg" xmlns:xlink="http://www.w3.org/1999/xlink" contentStyleType="text/css" height="288px" preserveAspectRatio="none" style="width:454px;height:288px;background:#FFFFFF;" version="1.1" viewBox="0 0 454 288" width="454px" zoomAndPan="magnify"><defs/><g><ellipse cx="233.679" cy="20" fill="#222222" rx="10" ry="10" style="stroke:#222222;stroke-width:1.0;"/><polygon fill="#F1F1F1" points="32,50,130.6724,50,142.6724,62,130.6724,74,32,74,20,62,32,50" style="stroke:#181818;stroke-width:0.5;"/><text fill="#000000" font-family="sans-serif" font-size="11" lengthAdjust="spacing" textLength="19.0083" x="85.3362" y="84.2104">yes</text><text fill="#000000" font-family="sans-serif" font-size="11" font-style="italic" lengthAdjust="spacing" textLength="15.7695" x="32" y="65.8081">sig</text><text fill="#000000" font-family="sans-serif" font-size="11" lengthAdjust="spacing" textLength="18.4336" x="51.2661" y="65.8081">==</text><text fill="#000000" font-family="sans-serif" font-size="11" font-style="italic" lengthAdjust="spacing" textLength="57.4761" x="73.1963" y="65.8081">lookingFor</text><rect fill="#F1F1F1" height="33.9688" rx="12.5" ry="12.5" style="stroke:#181818;stroke-width:0.5;" width="89.0117" x="36.8303" y="105.7104"/><text fill="#000000" font-family="sans-serif" font-size="12" lengthAdjust="spacing" textLength="69.0117" x="46.8303" y="126.8491">Return true</text><ellipse cx="81.3362" cy="170.6792" fill="none" rx="11" ry="11" style="stroke:#222222;stroke-width:1.0;"/><ellipse cx="81.3362" cy="170.6792" fill="#222222" rx="6" ry="6" style="stroke:#222222;stroke-width:1.0;"/><polygon fill="#F1F1F1" points="227.4402,50,332.5901,50,344.5901,62,332.5901,74,227.4402,74,215.4402,62,227.4402,50" style="stroke:#181818;stroke-width:0.5;"/><text fill="#000000" font-family="sans-serif" font-size="11" lengthAdjust="spacing" textLength="19.0083" x="284.0151" y="84.2104">yes</text><text fill="#000000" font-family="sans-serif" font-size="11" lengthAdjust="spacing" textLength="50.0479" x="227.4402" y="65.8081">Parent of</text><text fill="#000000" font-family="sans-serif" font-size="11" font-style="italic" lengthAdjust="spacing" textLength="15.7695" x="280.9846" y="65.8081">sig</text><text fill="#000000" font-family="sans-serif" font-size="11" lengthAdjust="spacing" textLength="32.3394" x="300.2507" y="65.8081">is null</text><rect fill="#F1F1F1" height="33.9688" rx="12.5" ry="12.5" style="stroke:#181818;stroke-width:0.5;" width="254.6855" x="152.6724" y="105.7104"/><text fill="#000000" font-family="sans-serif" font-size="12" lengthAdjust="spacing" textLength="213.668" x="162.6724" y="126.8491">Return Self or Ancestor of Parent of</text><text fill="#000000" font-family="sans-serif" font-size="12" font-style="italic" lengthAdjust="spacing" textLength="17.2031" x="380.1548" y="126.8491">sig</text><ellipse cx="280.0151" cy="170.6792" fill="none" rx="11" ry="11" style="stroke:#222222;stroke-width:1.0;"/><ellipse cx="280.0151" cy="170.6792" fill="#222222" rx="6" ry="6" style="stroke:#222222;stroke-width:1.0;"/><rect fill="#F1F1F1" height="33.9688" rx="12.5" ry="12.5" style="stroke:#181818;stroke-width:0.5;" width="92.9316" x="187.2131" y="201.6792"/><text fill="#000000" font-family="sans-serif" font-size="12" lengthAdjust="spacing" textLength="72.9316" x="197.2131" y="222.8179">Return false</text><ellipse cx="233.679" cy="266.6479" fill="none" rx="11" ry="11" style="stroke:#222222;stroke-width:1.0;"/><ellipse cx="233.679" cy="266.6479" fill="#222222" rx="6" ry="6" style="stroke:#222222;stroke-width:1.0;"/><line style="stroke:#181818;stroke-width:1.0;" x1="81.3362" x2="81.3362" y1="139.6792" y2="159.6792"/><polygon fill="#181818" points="77.3362,149.6792,81.3362,159.6792,85.3362,149.6792,81.3362,153.6792" style="stroke:#181818;stroke-width:1.0;"/><line style="stroke:#181818;stroke-width:1.0;" x1="280.0151" x2="280.0151" y1="139.6792" y2="159.6792"/><polygon fill="#181818" points="276.0151,149.6792,280.0151,159.6792,284.0151,149.6792,280.0151,153.6792" style="stroke:#181818;stroke-width:1.0;"/><line style="stroke:#181818;stroke-width:1.0;" x1="81.3362" x2="81.3362" y1="74" y2="105.7104"/><polygon fill="#181818" points="77.3362,95.7104,81.3362,105.7104,85.3362,95.7104,81.3362,99.7104" style="stroke:#181818;stroke-width:1.0;"/><line style="stroke:#181818;stroke-width:1.0;" x1="280.0151" x2="280.0151" y1="74" y2="105.7104"/><polygon fill="#181818" points="276.0151,95.7104,280.0151,105.7104,284.0151,95.7104,280.0151,99.7104" style="stroke:#181818;stroke-width:1.0;"/><line style="stroke:#181818;stroke-width:1.0;" x1="142.6724" x2="215.4402" y1="62" y2="62"/><polygon fill="#181818" points="205.4402,58,215.4402,62,205.4402,66,209.4402,62" style="stroke:#181818;stroke-width:1.0;"/><line style="stroke:#181818;stroke-width:1.0;" x1="233.679" x2="233.679" y1="30" y2="35"/><line style="stroke:#181818;stroke-width:1.0;" x1="233.679" x2="81.3362" y1="35" y2="35"/><line style="stroke:#181818;stroke-width:1.0;" x1="81.3362" x2="81.3362" y1="35" y2="50"/><polygon fill="#181818" points="77.3362,40,81.3362,50,85.3362,40,81.3362,44" style="stroke:#181818;stroke-width:1.0;"/><line style="stroke:#181818;stroke-width:1.0;" x1="344.5901" x2="442.3579" y1="62" y2="62"/><line style="stroke:#181818;stroke-width:1.0;" x1="442.3579" x2="442.3579" y1="62" y2="186.6792"/><line style="stroke:#181818;stroke-width:1.0;" x1="442.3579" x2="233.679" y1="186.6792" y2="186.6792"/><line style="stroke:#181818;stroke-width:1.0;" x1="233.679" x2="233.679" y1="186.6792" y2="201.6792"/><polygon fill="#181818" points="229.679,191.6792,233.679,201.6792,237.679,191.6792,233.679,195.6792" style="stroke:#181818;stroke-width:1.0;"/><line style="stroke:#181818;stroke-width:1.0;" x1="233.679" x2="233.679" y1="235.6479" y2="255.6479"/><polygon fill="#181818" points="229.679,245.6479,233.679,255.6479,237.679,245.6479,233.679,249.6479" style="stroke:#181818;stroke-width:1.0;"/><!--SRC=[RSqn3i8m38NXkJw5ntRoJjM1XHd12I9mIaHa8ziPk3tfK1QOd_xlUIGBA7aayh8IuR8WKLLz5bbFQaGJneC5npVx1CFXmj5CCApn38E7le2hSnVEoLW2DUDk5KTfjVuNhbmpgk5HRjmPsy8VudiXzv9XJtFgZpDiomS0]--></g></svg>