<svg xmlns="http://www.w3.org/2000/svg" xmlns:xlink="http://www.w3.org/1999/xlink" contentStyleType="text/css" height="386px" preserveAspectRatio="none" style="width:340px;height:386px;background:#FFFFFF;" version="1.1" viewBox="0 0 340 386" width="340px" zoomAndPan="magnify"><defs/><g><ellipse cx="153.7666" cy="20" fill="#222222" rx="10" ry="10" style="stroke:#222222;stroke-width:1.0;"/><rect fill="#F1F1F1" height="33.9688" rx="12.5" ry="12.5" style="stroke:#181818;stroke-width:0.5;" width="128.1582" x="89.6875" y="94"/><text fill="#000000" font-family="sans-serif" font-size="12" lengthAdjust="spacing" textLength="108.1582" x="99.6875" y="115.1387">Get Field from Sig</text><polygon fill="#F1F1F1" points="121.5615,147.9688,185.9717,147.9688,197.9717,159.9688,185.9717,171.9688,121.5615,171.9688,109.5615,159.9688,121.5615,147.9688" style="stroke:#181818;stroke-width:0.5;"/><text fill="#000000" font-family="sans-serif" font-size="11" lengthAdjust="spacing" textLength="64.4102" x="121.5615" y="163.7769">field != null</text><text fill="#000000" font-family="sans-serif" font-size="11" lengthAdjust="spacing" textLength="19.0083" x="90.5532" y="157.3745">yes</text><text fill="#000000" font-family="sans-serif" font-size="11" lengthAdjust="spacing" textLength="13.7017" x="197.9717" y="157.3745">no</text><rect fill="#F1F1F1" height="33.9688" rx="12.5" ry="12.5" style="stroke:#181818;stroke-width:0.5;" width="90.2773" x="38" y="181.9688"/><text fill="#000000" font-family="sans-serif" font-size="12" lengthAdjust="spacing" textLength="70.2773" x="48" y="203.1074">Return field</text><ellipse cx="83.1387" cy="246.9375" fill="none" rx="11" ry="11" style="stroke:#222222;stroke-width:1.0;"/><ellipse cx="83.1387" cy="246.9375" fill="#222222" rx="6" ry="6" style="stroke:#222222;stroke-width:1.0;"/><rect fill="#F1F1F1" height="33.9688" rx="12.5" ry="12.5" style="stroke:#181818;stroke-width:0.5;" width="152.2344" x="148.2773" y="181.9688"/><text fill="#000000" font-family="sans-serif" font-size="12" lengthAdjust="spacing" textLength="45.9434" x="158.2773" y="203.1074">Change</text><text fill="#000000" font-family="sans-serif" font-size="12" font-style="italic" lengthAdjust="spacing" textLength="23.2031" x="208.0352" y="203.1074">_sig</text><text fill="#000000" font-family="sans-serif" font-size="12" lengthAdjust="spacing" textLength="55.459" x="235.0527" y="203.1074">to parent</text><polygon fill="#F1F1F1" points="106.646,50,200.8872,50,212.8872,62,200.8872,74,106.646,74,94.646,62,106.646,50" style="stroke:#181818;stroke-width:0.5;"/><text fill="#000000" font-family="sans-serif" font-size="11" font-style="italic" lengthAdjust="spacing" textLength="21.2695" x="106.646" y="65.8081">_sig</text><text fill="#000000" font-family="sans-serif" font-size="11" lengthAdjust="spacing" textLength="69.4751" x="131.4121" y="65.8081">has a parent</text><rect fill="#F1F1F1" height="33.9688" rx="12.5" ry="12.5" style="stroke:#181818;stroke-width:0.5;" width="86.2637" x="110.6348" y="299.9375"/><text fill="#000000" font-family="sans-serif" font-size="12" lengthAdjust="spacing" textLength="66.2637" x="120.6348" y="321.0762">Return null</text><ellipse cx="153.7666" cy="364.9063" fill="none" rx="11" ry="11" style="stroke:#222222;stroke-width:1.0;"/><ellipse cx="153.7666" cy="364.9063" fill="#222222" rx="6" ry="6" style="stroke:#222222;stroke-width:1.0;"/><line style="stroke:#181818;stroke-width:1.0;" x1="83.1387" x2="83.1387" y1="215.9375" y2="235.9375"/><polygon fill="#181818" points="79.1387,225.9375,83.1387,235.9375,87.1387,225.9375,83.1387,229.9375" style="stroke:#181818;stroke-width:1.0;"/><line style="stroke:#181818;stroke-width:1.0;" x1="109.5615" x2="83.1387" y1="159.9688" y2="159.9688"/><line style="stroke:#181818;stroke-width:1.0;" x1="83.1387" x2="83.1387" y1="159.9688" y2="181.9688"/><polygon fill="#181818" points="79.1387,171.9688,83.1387,181.9688,87.1387,171.9688,83.1387,175.9688" style="stroke:#181818;stroke-width:1.0;"/><line style="stroke:#181818;stroke-width:1.0;" x1="197.9717" x2="224.3945" y1="159.9688" y2="159.9688"/><line style="stroke:#181818;stroke-width:1.0;" x1="224.3945" x2="224.3945" y1="159.9688" y2="181.9688"/><polygon fill="#181818" points="220.3945,171.9688,224.3945,181.9688,228.3945,171.9688,224.3945,175.9688" style="stroke:#181818;stroke-width:1.0;"/><line style="stroke:#181818;stroke-width:1.0;" x1="224.3945" x2="224.3945" y1="215.9375" y2="267.9375"/><line style="stroke:#181818;stroke-width:1.0;" x1="224.3945" x2="314.5117" y1="267.9375" y2="267.9375"/><polygon fill="#181818" points="310.5117,176.9688,314.5117,166.9688,318.5117,176.9688,314.5117,172.9688" style="stroke:#181818;stroke-width:1.0;"/><line style="stroke:#181818;stroke-width:1.0;" x1="314.5117" x2="314.5117" y1="62" y2="267.9375"/><line style="stroke:#181818;stroke-width:1.0;" x1="314.5117" x2="212.8872" y1="62" y2="62"/><polygon fill="#181818" points="222.8872,58,212.8872,62,222.8872,66,218.8872,62" style="stroke:#181818;stroke-width:1.0;"/><line style="stroke:#181818;stroke-width:1.0;" x1="153.7666" x2="153.7666" y1="127.9688" y2="147.9688"/><polygon fill="#181818" points="149.7666,137.9688,153.7666,147.9688,157.7666,137.9688,153.7666,141.9688" style="stroke:#181818;stroke-width:1.0;"/><line style="stroke:#181818;stroke-width:1.0;" x1="153.7666" x2="153.7666" y1="74" y2="94"/><polygon fill="#181818" points="149.7666,84,153.7666,94,157.7666,84,153.7666,88" style="stroke:#181818;stroke-width:1.0;"/><line style="stroke:#181818;stroke-width:1.0;" x1="94.646" x2="24" y1="62" y2="62"/><polygon fill="#181818" points="20,162.9688,24,172.9688,28,162.9688,24,166.9688" style="stroke:#181818;stroke-width:1.0;"/><line style="stroke:#181818;stroke-width:1.0;" x1="24" x2="24" y1="62" y2="279.9375"/><line style="stroke:#181818;stroke-width:1.0;" x1="24" x2="153.7666" y1="279.9375" y2="279.9375"/><line style="stroke:#181818;stroke-width:1.0;" x1="153.7666" x2="153.7666" y1="279.9375" y2="299.9375"/><polygon fill="#181818" points="149.7666,289.9375,153.7666,299.9375,157.7666,289.9375,153.7666,293.9375" style="stroke:#181818;stroke-width:1.0;"/><line style="stroke:#181818;stroke-width:1.0;" x1="153.7666" x2="153.7666" y1="30" y2="50"/><polygon fill="#181818" points="149.7666,40,153.7666,50,157.7666,40,153.7666,44" style="stroke:#181818;stroke-width:1.0;"/><line style="stroke:#181818;stroke-width:1.0;" x1="153.7666" x2="153.7666" y1="333.9063" y2="353.9063"/><polygon fill="#181818" points="149.7666,343.9063,153.7666,353.9063,157.7666,343.9063,153.7666,347.9063" style="stroke:#181818;stroke-width:1.0;"/><!--SRC=[FOun3i8m34Nd-1HcIwVihPYGO8S3e4Xr6al1gH9N5RSdZO3b3zRpVx-gBmfxv4JMkMVbnJcClgB7rHSI7S2CDrAyCgKPGyalVF0oWU5WGx-TpYXRIWDg947xfjf-p7WdtOfWPnfkgkOL3ALALd8dBj7BGlZNQluw6quoSu2MVHhysWxH14VL1m00]--></g></svg>