<?xml version="1.0" encoding="us-ascii" standalone="no"?><svg xmlns="http://www.w3.org/2000/svg" xmlns:xlink="http://www.w3.org/1999/xlink" contentStyleType="text/css" height="190px" preserveAspectRatio="none" style="width:202px;height:190px;background:#FFFFFF;" version="1.1" viewBox="0 0 202 190" width="202px" zoomAndPan="magnify"><defs/><g><ellipse cx="101" cy="20" fill="#222222" rx="10" ry="10" style="stroke:#222222;stroke-width:1.0;"/><rect fill="#F1F1F1" height="33.9688" rx="12.5" ry="12.5" style="stroke:#181818;stroke-width:0.5;" width="180" x="11" y="50"/><text fill="#000000" font-family="sans-serif" font-size="12" lengthAdjust="spacing" textLength="160" x="21" y="71.1387">Construct VisualizerHelper</text><rect fill="#F1F1F1" height="33.9688" rx="12.5" ry="12.5" style="stroke:#181818;stroke-width:0.5;" width="138" x="32" y="103.9688"/><text fill="#000000" font-family="sans-serif" font-size="12" lengthAdjust="spacing" textLength="118" x="42" y="125.1074">Generate Visualizer</text><ellipse cx="101" cy="168.9375" fill="none" rx="11" ry="11" style="stroke:#222222;stroke-width:1.0;"/><ellipse cx="101" cy="168.9375" fill="#222222" rx="6" ry="6" style="stroke:#222222;stroke-width:1.0;"/><line style="stroke:#181818;stroke-width:1.0;" x1="101" x2="101" y1="30" y2="50"/><polygon fill="#181818" points="97,40,101,50,105,40,101,44" style="stroke:#181818;stroke-width:1.0;"/><line style="stroke:#181818;stroke-width:1.0;" x1="101" x2="101" y1="83.9688" y2="103.9688"/><polygon fill="#181818" points="97,93.9688,101,103.9688,105,93.9688,101,97.9688" style="stroke:#181818;stroke-width:1.0;"/><line style="stroke:#181818;stroke-width:1.0;" x1="101" x2="101" y1="137.9375" y2="157.9375"/><polygon fill="#181818" points="97,147.9375,101,157.9375,105,147.9375,101,151.9375" style="stroke:#181818;stroke-width:1.0;"/><!--SRC=[Aov9B2hXidBEpoikAIfDBb48oomkJSp9h4ejyaZDAKWjikQoSa_DIorAB4b5ahFcAYx9Bm00]--></g></svg>