<svg xmlns="http://www.w3.org/2000/svg" xmlns:xlink="http://www.w3.org/1999/xlink" contentStyleType="text/css" height="655px" preserveAspectRatio="none" style="width:271px;height:655px;background:#FFFFFF;" version="1.1" viewBox="0 0 271 655" width="271px" zoomAndPan="magnify"><defs/><g><ellipse cx="141.9209" cy="20" fill="#222222" rx="10" ry="10" style="stroke:#222222;stroke-width:1.0;"/><rect fill="#F1F1F1" height="33.9688" rx="12.5" ry="12.5" style="stroke:#181818;stroke-width:0.5;" width="92.9551" x="95.4434" y="142.4023"/><text fill="#000000" font-family="sans-serif" font-size="12" lengthAdjust="spacing" textLength="72.9551" x="105.4434" y="163.541">Return Field</text><ellipse cx="141.9209" cy="207.3711" fill="none" rx="11" ry="11" style="stroke:#222222;stroke-width:1.0;"/><ellipse cx="141.9209" cy="207.3711" fill="#222222" rx="6" ry="6" style="stroke:#222222;stroke-width:1.0;"/><polygon fill="#F1F1F1" points="64.5208,94,219.321,94,231.321,106,219.321,118,64.5208,118,52.5208,106,64.5208,94" style="stroke:#181818;stroke-width:0.5;"/><text fill="#000000" font-family="sans-serif" font-size="11" lengthAdjust="spacing" textLength="19.0083" x="145.9209" y="128.2104">yes</text><text fill="#000000" font-family="sans-serif" font-size="11" lengthAdjust="spacing" textLength="154.8003" x="64.5208" y="109.8081">current field == fieldName?</text><polygon fill="#F1F1F1" points="78.4534,50,205.3884,50,217.3884,62,205.3884,74,78.4534,74,66.4534,62,78.4534,50" style="stroke:#181818;stroke-width:0.5;"/><text fill="#000000" font-family="sans-serif" font-size="11" lengthAdjust="spacing" textLength="126.9351" x="78.4534" y="65.8081">For All Signature Fields</text><rect fill="#F1F1F1" height="33.9688" rx="12.5" ry="12.5" style="stroke:#181818;stroke-width:0.5;" width="211.8418" x="36" y="326.3711"/><text fill="#000000" font-family="sans-serif" font-size="12" lengthAdjust="spacing" textLength="191.8418" x="46" y="347.5098">Get Field from Sig or Its Parents</text><rect fill="#F1F1F1" height="33.9688" rx="12.5" ry="12.5" style="stroke:#181818;stroke-width:0.5;" width="90.2773" x="96.7822" y="428.7422"/><text fill="#000000" font-family="sans-serif" font-size="12" lengthAdjust="spacing" textLength="70.2773" x="106.7822" y="449.8809">Return field</text><ellipse cx="141.9209" cy="493.7109" fill="none" rx="11" ry="11" style="stroke:#222222;stroke-width:1.0;"/><ellipse cx="141.9209" cy="493.7109" fill="#222222" rx="6" ry="6" style="stroke:#222222;stroke-width:1.0;"/><polygon fill="#F1F1F1" points="107.9675,380.3398,175.8743,380.3398,187.8743,392.3398,175.8743,404.3398,107.9675,404.3398,95.9675,392.3398,107.9675,380.3398" style="stroke:#181818;stroke-width:0.5;"/><text fill="#000000" font-family="sans-serif" font-size="11" lengthAdjust="spacing" textLength="19.0083" x="145.9209" y="414.5503">yes</text><text fill="#000000" font-family="sans-serif" font-size="11" lengthAdjust="spacing" textLength="64.4102" x="111.4641" y="396.1479">field != null</text><polygon fill="#F1F1F1" points="96.9246,282.3711,186.9172,282.3711,198.9172,294.3711,186.9172,306.3711,96.9246,306.3711,84.9246,294.3711,96.9246,282.3711" style="stroke:#181818;stroke-width:0.5;"/><text fill="#000000" font-family="sans-serif" font-size="11" lengthAdjust="spacing" textLength="89.9927" x="96.9246" y="298.1792">Sig has a parent</text><rect fill="#F1F1F1" height="33.9688" rx="12.5" ry="12.5" style="stroke:#181818;stroke-width:0.5;" width="86.2637" x="98.7891" y="568.7109"/><text fill="#000000" font-family="sans-serif" font-size="12" lengthAdjust="spacing" textLength="66.2637" x="108.7891" y="589.8496">Return null</text><ellipse cx="141.9209" cy="633.6797" fill="none" rx="11" ry="11" style="stroke:#222222;stroke-width:1.0;"/><ellipse cx="141.9209" cy="633.6797" fill="#222222" rx="6" ry="6" style="stroke:#222222;stroke-width:1.0;"/><line style="stroke:#181818;stroke-width:1.0;" x1="141.9209" x2="141.9209" y1="176.3711" y2="196.3711"/><polygon fill="#181818" points="137.9209,186.3711,141.9209,196.3711,145.9209,186.3711,141.9209,190.3711" style="stroke:#181818;stroke-width:1.0;"/><line style="stroke:#181818;stroke-width:1.0;" x1="141.9209" x2="141.9209" y1="118" y2="142.4023"/><polygon fill="#181818" points="137.9209,132.4023,141.9209,142.4023,145.9209,132.4023,141.9209,136.4023" style="stroke:#181818;stroke-width:1.0;"/><line style="stroke:#181818;stroke-width:1.0;" x1="231.321" x2="255.321" y1="106" y2="106"/><line style="stroke:#181818;stroke-width:1.0;" x1="255.321" x2="255.321" y1="62" y2="106"/><line style="stroke:#181818;stroke-width:1.0;" x1="255.321" x2="217.3884" y1="62" y2="62"/><polygon fill="#181818" points="227.3884,58,217.3884,62,227.3884,66,223.3884,62" style="stroke:#181818;stroke-width:1.0;"/><line style="stroke:#181818;stroke-width:1.0;" x1="141.9209" x2="141.9209" y1="74" y2="94"/><polygon fill="#181818" points="137.9209,84,141.9209,94,145.9209,84,141.9209,88" style="stroke:#181818;stroke-width:1.0;"/><line style="stroke:#181818;stroke-width:1.0;" x1="66.4534" x2="40.5208" y1="62" y2="62"/><polygon fill="#181818" points="36.5208,162.8867,40.5208,172.8867,44.5208,162.8867,40.5208,166.8867" style="stroke:#181818;stroke-width:1.0;"/><line style="stroke:#181818;stroke-width:1.0;" x1="40.5208" x2="40.5208" y1="62" y2="262.3711"/><line style="stroke:#181818;stroke-width:1.0;" x1="40.5208" x2="141.9209" y1="262.3711" y2="262.3711"/><line style="stroke:#181818;stroke-width:1.0;" x1="141.9209" x2="141.9209" y1="262.3711" y2="282.3711"/><polygon fill="#181818" points="137.9209,272.3711,141.9209,282.3711,145.9209,272.3711,141.9209,276.3711" style="stroke:#181818;stroke-width:1.0;"/><line style="stroke:#181818;stroke-width:1.0;" x1="141.9209" x2="141.9209" y1="30" y2="50"/><polygon fill="#181818" points="137.9209,40,141.9209,50,145.9209,40,141.9209,44" style="stroke:#181818;stroke-width:1.0;"/><line style="stroke:#181818;stroke-width:1.0;" x1="141.9209" x2="141.9209" y1="462.7109" y2="482.7109"/><polygon fill="#181818" points="137.9209,472.7109,141.9209,482.7109,145.9209,472.7109,141.9209,476.7109" style="stroke:#181818;stroke-width:1.0;"/><line style="stroke:#181818;stroke-width:1.0;" x1="141.9209" x2="141.9209" y1="404.3398" y2="428.7422"/><polygon fill="#181818" points="137.9209,418.7422,141.9209,428.7422,145.9209,418.7422,141.9209,422.7422" style="stroke:#181818;stroke-width:1.0;"/><line style="stroke:#181818;stroke-width:1.0;" x1="187.8743" x2="259.8418" y1="392.3398" y2="392.3398"/><line style="stroke:#181818;stroke-width:1.0;" x1="259.8418" x2="259.8418" y1="294.3711" y2="392.3398"/><line style="stroke:#181818;stroke-width:1.0;" x1="259.8418" x2="198.9172" y1="294.3711" y2="294.3711"/><polygon fill="#181818" points="208.9172,290.3711,198.9172,294.3711,208.9172,298.3711,204.9172,294.3711" style="stroke:#181818;stroke-width:1.0;"/><line style="stroke:#181818;stroke-width:1.0;" x1="141.9209" x2="141.9209" y1="360.3398" y2="380.3398"/><polygon fill="#181818" points="137.9209,370.3398,141.9209,380.3398,145.9209,370.3398,141.9209,374.3398" style="stroke:#181818;stroke-width:1.0;"/><line style="stroke:#181818;stroke-width:1.0;" x1="141.9209" x2="141.9209" y1="306.3711" y2="326.3711"/><polygon fill="#181818" points="137.9209,316.3711,141.9209,326.3711,145.9209,316.3711,141.9209,320.3711" style="stroke:#181818;stroke-width:1.0;"/><line style="stroke:#181818;stroke-width:1.0;" x1="84.9246" x2="24" y1="294.3711" y2="294.3711"/><polygon fill="#181818" points="20,414.7422,24,424.7422,28,414.7422,24,418.7422" style="stroke:#181818;stroke-width:1.0;"/><line style="stroke:#181818;stroke-width:1.0;" x1="24" x2="24" y1="294.3711" y2="548.7109"/><line style="stroke:#181818;stroke-width:1.0;" x1="24" x2="141.9209" y1="548.7109" y2="548.7109"/><line style="stroke:#181818;stroke-width:1.0;" x1="141.9209" x2="141.9209" y1="548.7109" y2="568.7109"/><polygon fill="#181818" points="137.9209,558.7109,141.9209,568.7109,145.9209,558.7109,141.9209,562.7109" style="stroke:#181818;stroke-width:1.0;"/><line style="stroke:#181818;stroke-width:1.0;" x1="141.9209" x2="141.9209" y1="602.6797" y2="622.6797"/><polygon fill="#181818" points="137.9209,612.6797,141.9209,622.6797,145.9209,612.6797,141.9209,616.6797" style="stroke:#181818;stroke-width:1.0;"/><!--SRC=[VOvD2i8m48NNpIcUk_GABKNSLDo8w0c2dPX0cfPaWdXxaqQNkXc6n_lv8gl0ucci8yXn2JWuXvjzUCKf44PBRegjQAoMznG2UOOk6eQXFcSrqxu56_AGBohUfhjIJlkQxhCGULb5GtwoMkIxpTLHcRTWL8J2gafzpdT7ufg53ijSS939JXnnsJontu0-9Bi1FZdtWq7_PVYwIa4lYkKD]--></g></svg>