<svg xmlns="http://www.w3.org/2000/svg" xmlns:xlink="http://www.w3.org/1999/xlink" contentStyleType="text/css" height="369px" preserveAspectRatio="none" style="width:314px;height:369px;background:#FFFFFF;" version="1.1" viewBox="0 0 314 369" width="314px" zoomAndPan="magnify"><defs/><g><ellipse cx="157.1057" cy="20" fill="#222222" rx="10" ry="10" style="stroke:#222222;stroke-width:1.0;"/><rect fill="#F1F1F1" height="33.9688" rx="12.5" ry="12.5" style="stroke:#181818;stroke-width:0.5;" width="108.0195" x="103.0959" y="142.4023"/><text fill="#000000" font-family="sans-serif" font-size="12" lengthAdjust="spacing" textLength="88.0195" x="113.0959" y="163.541">Return Module</text><ellipse cx="157.1057" cy="207.3711" fill="none" rx="11" ry="11" style="stroke:#222222;stroke-width:1.0;"/><ellipse cx="157.1057" cy="207.3711" fill="#222222" rx="6" ry="6" style="stroke:#222222;stroke-width:1.0;"/><polygon fill="#F1F1F1" points="48,94,266.2114,94,278.2114,106,266.2114,118,48,118,36,106,48,94" style="stroke:#181818;stroke-width:0.5;"/><text fill="#000000" font-family="sans-serif" font-size="11" lengthAdjust="spacing" textLength="19.0083" x="161.1057" y="128.2104">yes</text><text fill="#000000" font-family="sans-serif" font-size="11" lengthAdjust="spacing" textLength="218.2114" x="48" y="109.8081">Current Module == Module Looking For</text><polygon fill="#F1F1F1" points="86.0139,50,228.1975,50,240.1975,62,228.1975,74,86.0139,74,74.0139,62,86.0139,50" style="stroke:#181818;stroke-width:0.5;"/><text fill="#000000" font-family="sans-serif" font-size="11" lengthAdjust="spacing" textLength="142.1836" x="86.0139" y="65.8081">For All Modules in module</text><rect fill="#F1F1F1" height="33.9688" rx="12.5" ry="12.5" style="stroke:#181818;stroke-width:0.5;" width="86.2637" x="113.9739" y="282.3711"/><text fill="#000000" font-family="sans-serif" font-size="12" lengthAdjust="spacing" textLength="66.2637" x="123.9739" y="303.5098">Return null</text><ellipse cx="157.1057" cy="347.3398" fill="none" rx="11" ry="11" style="stroke:#222222;stroke-width:1.0;"/><ellipse cx="157.1057" cy="347.3398" fill="#222222" rx="6" ry="6" style="stroke:#222222;stroke-width:1.0;"/><line style="stroke:#181818;stroke-width:1.0;" x1="157.1057" x2="157.1057" y1="176.3711" y2="196.3711"/><polygon fill="#181818" points="153.1057,186.3711,157.1057,196.3711,161.1057,186.3711,157.1057,190.3711" style="stroke:#181818;stroke-width:1.0;"/><line style="stroke:#181818;stroke-width:1.0;" x1="157.1057" x2="157.1057" y1="118" y2="142.4023"/><polygon fill="#181818" points="153.1057,132.4023,157.1057,142.4023,161.1057,132.4023,157.1057,136.4023" style="stroke:#181818;stroke-width:1.0;"/><line style="stroke:#181818;stroke-width:1.0;" x1="278.2114" x2="302.2114" y1="106" y2="106"/><line style="stroke:#181818;stroke-width:1.0;" x1="302.2114" x2="302.2114" y1="62" y2="106"/><line style="stroke:#181818;stroke-width:1.0;" x1="302.2114" x2="240.1975" y1="62" y2="62"/><polygon fill="#181818" points="250.1975,58,240.1975,62,250.1975,66,246.1975,62" style="stroke:#181818;stroke-width:1.0;"/><line style="stroke:#181818;stroke-width:1.0;" x1="157.1057" x2="157.1057" y1="74" y2="94"/><polygon fill="#181818" points="153.1057,84,157.1057,94,161.1057,84,157.1057,88" style="stroke:#181818;stroke-width:1.0;"/><line style="stroke:#181818;stroke-width:1.0;" x1="74.0139" x2="24" y1="62" y2="62"/><polygon fill="#181818" points="20,162.8867,24,172.8867,28,162.8867,24,166.8867" style="stroke:#181818;stroke-width:1.0;"/><line style="stroke:#181818;stroke-width:1.0;" x1="24" x2="24" y1="62" y2="262.3711"/><line style="stroke:#181818;stroke-width:1.0;" x1="24" x2="157.1057" y1="262.3711" y2="262.3711"/><line style="stroke:#181818;stroke-width:1.0;" x1="157.1057" x2="157.1057" y1="262.3711" y2="282.3711"/><polygon fill="#181818" points="153.1057,272.3711,157.1057,282.3711,161.1057,272.3711,157.1057,276.3711" style="stroke:#181818;stroke-width:1.0;"/><line style="stroke:#181818;stroke-width:1.0;" x1="157.1057" x2="157.1057" y1="30" y2="50"/><polygon fill="#181818" points="153.1057,40,157.1057,50,161.1057,40,157.1057,44" style="stroke:#181818;stroke-width:1.0;"/><line style="stroke:#181818;stroke-width:1.0;" x1="157.1057" x2="157.1057" y1="316.3398" y2="336.3398"/><polygon fill="#181818" points="153.1057,326.3398,157.1057,336.3398,161.1057,326.3398,157.1057,330.3398" style="stroke:#181818;stroke-width:1.0;"/><!--SRC=[DOr13i9024NNmobOJgzWqqLZuaetti2aj2KY68Q9yVQEJRiXB_m7lyJ30puh2-MBEOuYUBEf2XLanTU67IIUCP-hEsdiEGx3GLUp9-k2xK67iP9Y_b9fL-bqfwYkkzYtJGbxGoATU8OsjsOuDAqYFVoL7m00]--></g></svg>