<?xml version="1.0" encoding="us-ascii" standalone="no"?><svg xmlns="http://www.w3.org/2000/svg" xmlns:xlink="http://www.w3.org/1999/xlink" contentStyleType="text/css" height="161px" preserveAspectRatio="none" style="width:254px;height:161px;background:#FFFFFF;" version="1.1" viewBox="0 0 254 161" width="254px" zoomAndPan="magnify"><defs/><g><ellipse cx="125.5" cy="20" fill="#222222" rx="10" ry="10" style="stroke:#222222;stroke-width:1.0;"/><rect fill="#F1F1F1" height="33.9688" rx="12.5" ry="12.5" style="stroke:#181818;stroke-width:0.5;" width="145" x="53" y="94"/><text fill="#000000" font-family="sans-serif" font-size="12" lengthAdjust="spacing" textLength="125" x="63" y="115.1387">Add Signature to List</text><polygon fill="#F1F1F1" points="47,50,204,50,216,62,204,74,47,74,35,62,47,50" style="stroke:#181818;stroke-width:0.5;"/><text fill="#000000" font-family="sans-serif" font-size="11" lengthAdjust="spacing" textLength="157" x="47" y="65.8081">for All Signatures in Module</text><ellipse cx="24" cy="105" fill="none" rx="11" ry="11" style="stroke:#222222;stroke-width:1.0;"/><ellipse cx="24" cy="105" fill="#222222" rx="6" ry="6" style="stroke:#222222;stroke-width:1.0;"/><line style="stroke:#181818;stroke-width:1.0;" x1="125.5" x2="125.5" y1="74" y2="94"/><polygon fill="#181818" points="121.5,84,125.5,94,129.5,84,125.5,88" style="stroke:#181818;stroke-width:1.0;"/><line style="stroke:#181818;stroke-width:1.0;" x1="125.5" x2="125.5" y1="127.9688" y2="137.9688"/><line style="stroke:#181818;stroke-width:1.0;" x1="125.5" x2="228" y1="137.9688" y2="137.9688"/><polygon fill="#181818" points="224,108.9844,228,98.9844,232,108.9844,228,104.9844" style="stroke:#181818;stroke-width:1.0;"/><line style="stroke:#181818;stroke-width:1.0;" x1="228" x2="228" y1="62" y2="137.9688"/><line style="stroke:#181818;stroke-width:1.0;" x1="228" x2="216" y1="62" y2="62"/><polygon fill="#181818" points="226,58,216,62,226,66,222,62" style="stroke:#181818;stroke-width:1.0;"/><line style="stroke:#181818;stroke-width:1.0;" x1="35" x2="24" y1="62" y2="62"/><line style="stroke:#181818;stroke-width:1.0;" x1="24" x2="24" y1="62" y2="94"/><polygon fill="#181818" points="20,84,24,94,28,84,24,88" style="stroke:#181818;stroke-width:1.0;"/><line style="stroke:#181818;stroke-width:1.0;" x1="125.5" x2="125.5" y1="30" y2="50"/><polygon fill="#181818" points="121.5,40,125.5,50,129.5,40,125.5,44" style="stroke:#181818;stroke-width:1.0;"/><!--SRC=[Aov9B2hXAi_8p4dLICilKd3CoL48papFIomfBKejLiZCK_3DJodDITNaid9CIK58APJaA_Xa5fTOSwNcfO2rSnMNv1S00000]--></g></svg>