<?xml version="1.0" encoding="us-ascii" standalone="no"?><svg xmlns="http://www.w3.org/2000/svg" xmlns:xlink="http://www.w3.org/1999/xlink" contentStyleType="text/css" height="244px" preserveAspectRatio="none" style="width:224px;height:244px;background:#FFFFFF;" version="1.1" viewBox="0 0 224 244" width="224px" zoomAndPan="magnify"><defs/><g><ellipse cx="112" cy="20" fill="#222222" rx="10" ry="10" style="stroke:#222222;stroke-width:1.0;"/><rect fill="#F1F1F1" height="33.9688" rx="12.5" ry="12.5" style="stroke:#181818;stroke-width:0.5;" width="169" x="27.5" y="50"/><text fill="#000000" font-family="sans-serif" font-size="12" lengthAdjust="spacing" textLength="149" x="37.5" y="71.1387">Make ExprVar noOutputs</text><rect fill="#F1F1F1" height="33.9688" rx="12.5" ry="12.5" style="stroke:#181818;stroke-width:0.5;" width="162" x="31" y="103.9688"/><text fill="#000000" font-family="sans-serif" font-size="12" lengthAdjust="spacing" textLength="142" x="41" y="125.1074">Create New Declaration</text><rect fill="#F1F1F1" height="33.9688" rx="12.5" ry="12.5" style="stroke:#181818;stroke-width:0.5;" width="202" x="11" y="157.9375"/><text fill="#000000" font-family="sans-serif" font-size="12" lengthAdjust="spacing" textLength="182" x="21" y="179.0762">Add noOutputs to Overall Fact</text><ellipse cx="112" cy="222.9063" fill="none" rx="11" ry="11" style="stroke:#222222;stroke-width:1.0;"/><ellipse cx="112" cy="222.9063" fill="#222222" rx="6" ry="6" style="stroke:#222222;stroke-width:1.0;"/><line style="stroke:#181818;stroke-width:1.0;" x1="112" x2="112" y1="30" y2="50"/><polygon fill="#181818" points="108,40,112,50,116,40,112,44" style="stroke:#181818;stroke-width:1.0;"/><line style="stroke:#181818;stroke-width:1.0;" x1="112" x2="112" y1="83.9688" y2="103.9688"/><polygon fill="#181818" points="108,93.9688,112,103.9688,116,93.9688,112,97.9688" style="stroke:#181818;stroke-width:1.0;"/><line style="stroke:#181818;stroke-width:1.0;" x1="112" x2="112" y1="137.9375" y2="157.9375"/><polygon fill="#181818" points="108,147.9375,112,157.9375,116,147.9375,112,151.9375" style="stroke:#181818;stroke-width:1.0;"/><line style="stroke:#181818;stroke-width:1.0;" x1="112" x2="112" y1="191.9063" y2="211.9063"/><polygon fill="#181818" points="108,201.9063,112,211.9063,116,201.9063,112,205.9063" style="stroke:#181818;stroke-width:1.0;"/><!--SRC=[HSex3e0W40N0dbFiEQ0oVZgbiz_05aO2P7cenzVEUgQ15SQkV0hDJzMTbNBn7RMZEMD75ORG9ZTD4X8huoZvWo76Fn8A-KkKKwA50vnfAFK5]--></g></svg>