<?xml version="1.0" encoding="us-ascii" standalone="no"?><svg xmlns="http://www.w3.org/2000/svg" xmlns:xlink="http://www.w3.org/1999/xlink" contentStyleType="text/css" height="423px" preserveAspectRatio="none" style="width:332px;height:423px;background:#FFFFFF;" version="1.1" viewBox="0 0 332 423" width="332px" zoomAndPan="magnify"><defs/><g><ellipse cx="166" cy="20" fill="#222222" rx="10" ry="10" style="stroke:#222222;stroke-width:1.0;"/><rect fill="#F1F1F1" height="33.9688" rx="12.5" ry="12.5" style="stroke:#181818;stroke-width:0.5;" width="114" x="109" y="94"/><text fill="#000000" font-family="sans-serif" font-size="12" lengthAdjust="spacing" textLength="94" x="119" y="115.1387">Print Field Label</text><rect fill="#F1F1F1" height="33.9688" rx="12.5" ry="12.5" style="stroke:#181818;stroke-width:0.5;" width="91" x="120.5" y="196.3711"/><text fill="#000000" font-family="sans-serif" font-size="12" lengthAdjust="spacing" textLength="71" x="130.5" y="217.5098">Return Field</text><ellipse cx="166" cy="261.3398" fill="none" rx="11" ry="11" style="stroke:#222222;stroke-width:1.0;"/><ellipse cx="166" cy="261.3398" fill="#222222" rx="6" ry="6" style="stroke:#222222;stroke-width:1.0;"/><polygon fill="#F1F1F1" points="48,147.9688,284,147.9688,296,159.9688,284,171.9688,48,171.9688,36,159.9688,48,147.9688" style="stroke:#181818;stroke-width:0.5;"/><text fill="#000000" font-family="sans-serif" font-size="11" lengthAdjust="spacing" textLength="21" x="170" y="182.1792">yes</text><text fill="#000000" font-family="sans-serif" font-size="11" lengthAdjust="spacing" textLength="236" x="48" y="163.7769">Current Field Label == Field Label to Get</text><polygon fill="#F1F1F1" points="102,50,230,50,242,62,230,74,102,74,90,62,102,50" style="stroke:#181818;stroke-width:0.5;"/><text fill="#000000" font-family="sans-serif" font-size="11" lengthAdjust="spacing" textLength="128" x="102" y="65.8081">for all Signature Fields</text><rect fill="#F1F1F1" height="33.9688" rx="12.5" ry="12.5" style="stroke:#181818;stroke-width:0.5;" width="82" x="125" y="336.3398"/><text fill="#000000" font-family="sans-serif" font-size="12" lengthAdjust="spacing" textLength="62" x="135" y="357.4785">Return null</text><ellipse cx="166" cy="401.3086" fill="none" rx="11" ry="11" style="stroke:#222222;stroke-width:1.0;"/><ellipse cx="166" cy="401.3086" fill="#222222" rx="6" ry="6" style="stroke:#222222;stroke-width:1.0;"/><line style="stroke:#181818;stroke-width:1.0;" x1="166" x2="166" y1="230.3398" y2="250.3398"/><polygon fill="#181818" points="162,240.3398,166,250.3398,170,240.3398,166,244.3398" style="stroke:#181818;stroke-width:1.0;"/><line style="stroke:#181818;stroke-width:1.0;" x1="166" x2="166" y1="171.9688" y2="196.3711"/><polygon fill="#181818" points="162,186.3711,166,196.3711,170,186.3711,166,190.3711" style="stroke:#181818;stroke-width:1.0;"/><line style="stroke:#181818;stroke-width:1.0;" x1="296" x2="320" y1="159.9688" y2="159.9688"/><line style="stroke:#181818;stroke-width:1.0;" x1="320" x2="320" y1="62" y2="159.9688"/><line style="stroke:#181818;stroke-width:1.0;" x1="320" x2="242" y1="62" y2="62"/><polygon fill="#181818" points="252,58,242,62,252,66,248,62" style="stroke:#181818;stroke-width:1.0;"/><line style="stroke:#181818;stroke-width:1.0;" x1="166" x2="166" y1="127.9688" y2="147.9688"/><polygon fill="#181818" points="162,137.9688,166,147.9688,170,137.9688,166,141.9688" style="stroke:#181818;stroke-width:1.0;"/><line style="stroke:#181818;stroke-width:1.0;" x1="166" x2="166" y1="74" y2="94"/><polygon fill="#181818" points="162,84,166,94,170,84,166,88" style="stroke:#181818;stroke-width:1.0;"/><line style="stroke:#181818;stroke-width:1.0;" x1="90" x2="24" y1="62" y2="62"/><polygon fill="#181818" points="20,182.3711,24,192.3711,28,182.3711,24,186.3711" style="stroke:#181818;stroke-width:1.0;"/><line style="stroke:#181818;stroke-width:1.0;" x1="24" x2="24" y1="62" y2="316.3398"/><line style="stroke:#181818;stroke-width:1.0;" x1="24" x2="166" y1="316.3398" y2="316.3398"/><line style="stroke:#181818;stroke-width:1.0;" x1="166" x2="166" y1="316.3398" y2="336.3398"/><polygon fill="#181818" points="162,326.3398,166,336.3398,170,326.3398,166,330.3398" style="stroke:#181818;stroke-width:1.0;"/><line style="stroke:#181818;stroke-width:1.0;" x1="166" x2="166" y1="30" y2="50"/><polygon fill="#181818" points="162,40,166,50,170,40,166,44" style="stroke:#181818;stroke-width:1.0;"/><line style="stroke:#181818;stroke-width:1.0;" x1="166" x2="166" y1="370.3086" y2="390.3086"/><polygon fill="#181818" points="162,380.3086,166,390.3086,170,380.3086,166,384.3086" style="stroke:#181818;stroke-width:1.0;"/><!--SRC=[LOx12i8m44Jl-OevfhzWwKdGYmVHBuXqOnUMZMmsIFzUQq3ePU0nZs6g9_FmNbW8CHT34i6Tdvgy6U7497CTmk5ghDuHb_GW6GDdn6Cpets1QTgX5vp91_X2YhZIjdQZxxfsRGpLookGpfot_7tvAzf4kl41]--></g></svg>