<?xml version="1.0" encoding="us-ascii" standalone="no"?><svg xmlns="http://www.w3.org/2000/svg" xmlns:xlink="http://www.w3.org/1999/xlink" contentStyleType="text/css" height="406px" preserveAspectRatio="none" style="width:339px;height:406px;background:#FFFFFF;" version="1.1" viewBox="0 0 339 406" width="339px" zoomAndPan="magnify"><defs/><g><ellipse cx="169.5" cy="20" fill="#222222" rx="10" ry="10" style="stroke:#222222;stroke-width:1.0;"/><rect fill="#F1F1F1" height="33.9688" rx="12.5" ry="12.5" style="stroke:#181818;stroke-width:0.5;" width="103" x="118" y="50"/><text fill="#000000" font-family="sans-serif" font-size="12" lengthAdjust="spacing" textLength="83" x="128" y="71.1387">Make ExprVar</text><rect fill="#F1F1F1" height="33.9688" rx="12.5" ry="12.5" style="stroke:#181818;stroke-width:0.5;" width="161" x="89" y="103.9688"/><text fill="#000000" font-family="sans-serif" font-size="12" lengthAdjust="spacing" textLength="141" x="99" y="125.1074">Create new Declaration</text><rect fill="#F1F1F1" height="33.9688" rx="12.5" ry="12.5" style="stroke:#181818;stroke-width:0.5;" width="229" x="55" y="157.9375"/><text fill="#000000" font-family="sans-serif" font-size="12" lengthAdjust="spacing" textLength="209" x="65" y="179.0762">Call subsettingItemRuleForSources</text><rect fill="#F1F1F1" height="33.9688" rx="12.5" ry="12.5" style="stroke:#181818;stroke-width:0.5;" width="317" x="11" y="211.9063"/><text fill="#000000" font-family="sans-serif" font-size="12" lengthAdjust="spacing" textLength="297" x="21" y="233.0449">Add subsettingItemRuleForSource to Overall Fact</text><rect fill="#F1F1F1" height="33.9688" rx="12.5" ry="12.5" style="stroke:#181818;stroke-width:0.5;" width="225" x="57" y="265.875"/><text fill="#000000" font-family="sans-serif" font-size="12" lengthAdjust="spacing" textLength="205" x="67" y="287.0137">Call subsettingItemRuleForTargets</text><rect fill="#F1F1F1" height="33.9688" rx="12.5" ry="12.5" style="stroke:#181818;stroke-width:0.5;" width="230" x="54.5" y="319.8438"/><text fill="#000000" font-family="sans-serif" font-size="12" lengthAdjust="spacing" textLength="210" x="64.5" y="340.9824">Add isBeforeTarget to Overall Fact</text><ellipse cx="169.5" cy="384.8125" fill="none" rx="11" ry="11" style="stroke:#222222;stroke-width:1.0;"/><ellipse cx="169.5" cy="384.8125" fill="#222222" rx="6" ry="6" style="stroke:#222222;stroke-width:1.0;"/><line style="stroke:#181818;stroke-width:1.0;" x1="169.5" x2="169.5" y1="30" y2="50"/><polygon fill="#181818" points="165.5,40,169.5,50,173.5,40,169.5,44" style="stroke:#181818;stroke-width:1.0;"/><line style="stroke:#181818;stroke-width:1.0;" x1="169.5" x2="169.5" y1="83.9688" y2="103.9688"/><polygon fill="#181818" points="165.5,93.9688,169.5,103.9688,173.5,93.9688,169.5,97.9688" style="stroke:#181818;stroke-width:1.0;"/><line style="stroke:#181818;stroke-width:1.0;" x1="169.5" x2="169.5" y1="137.9375" y2="157.9375"/><polygon fill="#181818" points="165.5,147.9375,169.5,157.9375,173.5,147.9375,169.5,151.9375" style="stroke:#181818;stroke-width:1.0;"/><line style="stroke:#181818;stroke-width:1.0;" x1="169.5" x2="169.5" y1="191.9063" y2="211.9063"/><polygon fill="#181818" points="165.5,201.9063,169.5,211.9063,173.5,201.9063,169.5,205.9063" style="stroke:#181818;stroke-width:1.0;"/><line style="stroke:#181818;stroke-width:1.0;" x1="169.5" x2="169.5" y1="245.875" y2="265.875"/><polygon fill="#181818" points="165.5,255.875,169.5,265.875,173.5,255.875,169.5,259.875" style="stroke:#181818;stroke-width:1.0;"/><line style="stroke:#181818;stroke-width:1.0;" x1="169.5" x2="169.5" y1="299.8438" y2="319.8438"/><polygon fill="#181818" points="165.5,309.8438,169.5,319.8438,173.5,309.8438,169.5,313.8438" style="stroke:#181818;stroke-width:1.0;"/><line style="stroke:#181818;stroke-width:1.0;" x1="169.5" x2="169.5" y1="353.8125" y2="373.8125"/><polygon fill="#181818" points="165.5,363.8125,169.5,373.8125,173.5,363.8125,169.5,367.8125" style="stroke:#181818;stroke-width:1.0;"/><!--SRC=[VSnB2i9048JXVKxHvuWh7mcu4463-ywa38FZTEZkKO-lGLm9sLRzVEQiNjK7le6QrwGNrbLLRnNie8mdxH0IAtkKF1-S4bdf3UunZtl7_LGIMj6p50smJxCUXgM4NEZuWCvIoy4NrOvrXF_KQ1jSHV5T_o5pcTu0]--></g></svg>