<?xml version="1.0" encoding="us-ascii" standalone="no"?><svg xmlns="http://www.w3.org/2000/svg" xmlns:xlink="http://www.w3.org/1999/xlink" contentStyleType="text/css" height="244px" preserveAspectRatio="none" style="width:213px;height:244px;background:#FFFFFF;" version="1.1" viewBox="0 0 213 244" width="213px" zoomAndPan="magnify"><defs/><g><ellipse cx="106.5" cy="20" fill="#222222" rx="10" ry="10" style="stroke:#222222;stroke-width:1.0;"/><rect fill="#F1F1F1" height="33.9688" rx="12.5" ry="12.5" style="stroke:#181818;stroke-width:0.5;" width="158" x="27.5" y="50"/><text fill="#000000" font-family="sans-serif" font-size="12" lengthAdjust="spacing" textLength="138" x="37.5" y="71.1387">Make ExprVar noInputs</text><rect fill="#F1F1F1" height="33.9688" rx="12.5" ry="12.5" style="stroke:#181818;stroke-width:0.5;" width="162" x="25.5" y="103.9688"/><text fill="#000000" font-family="sans-serif" font-size="12" lengthAdjust="spacing" textLength="142" x="35.5" y="125.1074">Create New Declaration</text><rect fill="#F1F1F1" height="33.9688" rx="12.5" ry="12.5" style="stroke:#181818;stroke-width:0.5;" width="191" x="11" y="157.9375"/><text fill="#000000" font-family="sans-serif" font-size="12" lengthAdjust="spacing" textLength="171" x="21" y="179.0762">Add noInputs to Overall Fact</text><ellipse cx="106.5" cy="222.9063" fill="none" rx="11" ry="11" style="stroke:#222222;stroke-width:1.0;"/><ellipse cx="106.5" cy="222.9063" fill="#222222" rx="6" ry="6" style="stroke:#222222;stroke-width:1.0;"/><line style="stroke:#181818;stroke-width:1.0;" x1="106.5" x2="106.5" y1="30" y2="50"/><polygon fill="#181818" points="102.5,40,106.5,50,110.5,40,106.5,44" style="stroke:#181818;stroke-width:1.0;"/><line style="stroke:#181818;stroke-width:1.0;" x1="106.5" x2="106.5" y1="83.9688" y2="103.9688"/><polygon fill="#181818" points="102.5,93.9688,106.5,103.9688,110.5,93.9688,106.5,97.9688" style="stroke:#181818;stroke-width:1.0;"/><line style="stroke:#181818;stroke-width:1.0;" x1="106.5" x2="106.5" y1="137.9375" y2="157.9375"/><polygon fill="#181818" points="102.5,147.9375,106.5,157.9375,110.5,147.9375,106.5,151.9375" style="stroke:#181818;stroke-width:1.0;"/><line style="stroke:#181818;stroke-width:1.0;" x1="106.5" x2="106.5" y1="191.9063" y2="211.9063"/><polygon fill="#181818" points="102.5,201.9063,106.5,211.9063,110.5,201.9063,106.5,205.9063" style="stroke:#181818;stroke-width:1.0;"/><!--SRC=[FSev3e0m30J0Fg_mEqY5E2GAeADV9IuGKHmvvdW-LDGprQ3ccXa7q_0KtQ2KPShbjEfTqod3c1Q-gUUGeB1TyWTjZFyZ4relLgH48u9vLqtA2m00]--></g></svg>