<?xml version="1.0" encoding="us-ascii" standalone="no"?><svg xmlns="http://www.w3.org/2000/svg" xmlns:xlink="http://www.w3.org/1999/xlink" contentStyleType="text/css" height="298px" preserveAspectRatio="none" style="width:252px;height:298px;background:#FFFFFF;" version="1.1" viewBox="0 0 252 298" width="252px" zoomAndPan="magnify"><defs/><g><ellipse cx="126" cy="20" fill="#222222" rx="10" ry="10" style="stroke:#222222;stroke-width:1.0;"/><rect fill="#F1F1F1" height="33.9688" rx="12.5" ry="12.5" style="stroke:#181818;stroke-width:0.5;" width="103" x="74.5" y="50"/><text fill="#000000" font-family="sans-serif" font-size="12" lengthAdjust="spacing" textLength="83" x="84.5" y="71.1387">Make ExprVar</text><rect fill="#F1F1F1" height="33.9688" rx="12.5" ry="12.5" style="stroke:#181818;stroke-width:0.5;" width="161" x="45.5" y="103.9688"/><text fill="#000000" font-family="sans-serif" font-size="12" lengthAdjust="spacing" textLength="141" x="55.5" y="125.1074">Create new Declaration</text><rect fill="#F1F1F1" height="33.9688" rx="12.5" ry="12.5" style="stroke:#181818;stroke-width:0.5;" width="135" x="58.5" y="157.9375"/><text fill="#000000" font-family="sans-serif" font-size="12" lengthAdjust="spacing" textLength="115" x="68.5" y="179.0762">Call isBeforeTarget</text><rect fill="#F1F1F1" height="33.9688" rx="12.5" ry="12.5" style="stroke:#181818;stroke-width:0.5;" width="230" x="11" y="211.9063"/><text fill="#000000" font-family="sans-serif" font-size="12" lengthAdjust="spacing" textLength="210" x="21" y="233.0449">Add isBeforeTarget to Overall Fact</text><ellipse cx="126" cy="276.875" fill="none" rx="11" ry="11" style="stroke:#222222;stroke-width:1.0;"/><ellipse cx="126" cy="276.875" fill="#222222" rx="6" ry="6" style="stroke:#222222;stroke-width:1.0;"/><line style="stroke:#181818;stroke-width:1.0;" x1="126" x2="126" y1="30" y2="50"/><polygon fill="#181818" points="122,40,126,50,130,40,126,44" style="stroke:#181818;stroke-width:1.0;"/><line style="stroke:#181818;stroke-width:1.0;" x1="126" x2="126" y1="83.9688" y2="103.9688"/><polygon fill="#181818" points="122,93.9688,126,103.9688,130,93.9688,126,97.9688" style="stroke:#181818;stroke-width:1.0;"/><line style="stroke:#181818;stroke-width:1.0;" x1="126" x2="126" y1="137.9375" y2="157.9375"/><polygon fill="#181818" points="122,147.9375,126,157.9375,130,147.9375,126,151.9375" style="stroke:#181818;stroke-width:1.0;"/><line style="stroke:#181818;stroke-width:1.0;" x1="126" x2="126" y1="191.9063" y2="211.9063"/><polygon fill="#181818" points="122,201.9063,126,211.9063,130,201.9063,126,205.9063" style="stroke:#181818;stroke-width:1.0;"/><line style="stroke:#181818;stroke-width:1.0;" x1="126" x2="126" y1="245.875" y2="265.875"/><polygon fill="#181818" points="122,255.875,126,265.875,130,255.875,126,259.875" style="stroke:#181818;stroke-width:1.0;"/><!--SRC=[NSez3a1054NXtYhUEgZyTg8H_SsuH4ncvCqBbezM-vsJ36fPtcEdjFUX4xJ8ybe9emHUqj1vA6oBuGlmNhPKSOdA4RhINYtd-OTYKOQJ-kqTt3ibYyS3]--></g></svg>