<svg xmlns="http://www.w3.org/2000/svg" xmlns:xlink="http://www.w3.org/1999/xlink" contentStyleType="text/css" height="364px" preserveAspectRatio="none" style="width:255px;height:364px;background:#FFFFFF;" version="1.1" viewBox="0 0 255 364" width="255px" zoomAndPan="magnify"><defs/><g><ellipse cx="126.8652" cy="20" fill="#222222" rx="10" ry="10" style="stroke:#222222;stroke-width:1.0;"/><rect fill="#F1F1F1" height="33.9688" rx="12.5" ry="12.5" style="stroke:#181818;stroke-width:0.5;" width="173.873" x="39.9287" y="50"/><text fill="#000000" font-family="sans-serif" font-size="12" lengthAdjust="spacing" textLength="94.4121" x="49.9287" y="71.1387">Make Decl from</text><text fill="#000000" font-family="sans-serif" font-size="12" font-style="italic" lengthAdjust="spacing" textLength="55.6465" x="148.1553" y="71.1387">ownerSig</text><rect fill="#F1F1F1" height="33.9688" rx="12.5" ry="12.5" style="stroke:#181818;stroke-width:0.5;" width="137.5156" x="58.1074" y="103.9688"/><text fill="#000000" font-family="sans-serif" font-size="12" lengthAdjust="spacing" textLength="93.8906" x="68.1074" y="125.1074">Create HashSet</text><text fill="#000000" font-family="sans-serif" font-size="12" font-style="italic" lengthAdjust="spacing" textLength="19.8105" x="165.8125" y="125.1074">rAll</text><rect fill="#F1F1F1" height="33.9688" rx="12.5" ry="12.5" style="stroke:#181818;stroke-width:0.5;" width="181.7305" x="36" y="201.9375"/><text fill="#000000" font-family="sans-serif" font-size="12" lengthAdjust="spacing" textLength="138.1055" x="46" y="223.0762">Add Expr for All decl to</text><text fill="#000000" font-family="sans-serif" font-size="12" font-style="italic" lengthAdjust="spacing" textLength="19.8105" x="187.9199" y="223.0762">rAll</text><polygon fill="#F1F1F1" points="92.5037,157.9375,161.2268,157.9375,173.2268,169.9375,161.2268,181.9375,92.5037,181.9375,80.5037,169.9375,92.5037,157.9375" style="stroke:#181818;stroke-width:0.5;"/><text fill="#000000" font-family="sans-serif" font-size="11" lengthAdjust="spacing" textLength="34.7134" x="92.5037" y="173.7456">For All</text><text fill="#000000" font-family="sans-serif" font-size="11" font-style="italic" lengthAdjust="spacing" textLength="30.5132" x="130.7136" y="173.7456">exprs</text><rect fill="#F1F1F1" height="33.9688" rx="12.5" ry="12.5" style="stroke:#181818;stroke-width:0.5;" width="84.1953" x="84.7676" y="277.9063"/><text fill="#000000" font-family="sans-serif" font-size="12" lengthAdjust="spacing" textLength="40.5703" x="94.7676" y="299.0449">Return</text><text fill="#000000" font-family="sans-serif" font-size="12" font-style="italic" lengthAdjust="spacing" textLength="19.8105" x="139.1523" y="299.0449">rAll</text><ellipse cx="126.8652" cy="342.875" fill="none" rx="11" ry="11" style="stroke:#222222;stroke-width:1.0;"/><ellipse cx="126.8652" cy="342.875" fill="#222222" rx="6" ry="6" style="stroke:#222222;stroke-width:1.0;"/><line style="stroke:#181818;stroke-width:1.0;" x1="126.8652" x2="126.8652" y1="30" y2="50"/><polygon fill="#181818" points="122.8652,40,126.8652,50,130.8652,40,126.8652,44" style="stroke:#181818;stroke-width:1.0;"/><line style="stroke:#181818;stroke-width:1.0;" x1="126.8652" x2="126.8652" y1="83.9688" y2="103.9688"/><polygon fill="#181818" points="122.8652,93.9688,126.8652,103.9688,130.8652,93.9688,126.8652,97.9688" style="stroke:#181818;stroke-width:1.0;"/><line style="stroke:#181818;stroke-width:1.0;" x1="126.8652" x2="126.8652" y1="181.9375" y2="201.9375"/><polygon fill="#181818" points="122.8652,191.9375,126.8652,201.9375,130.8652,191.9375,126.8652,195.9375" style="stroke:#181818;stroke-width:1.0;"/><line style="stroke:#181818;stroke-width:1.0;" x1="126.8652" x2="126.8652" y1="235.9063" y2="245.9063"/><line style="stroke:#181818;stroke-width:1.0;" x1="126.8652" x2="229.7305" y1="245.9063" y2="245.9063"/><polygon fill="#181818" points="225.7305,216.9219,229.7305,206.9219,233.7305,216.9219,229.7305,212.9219" style="stroke:#181818;stroke-width:1.0;"/><line style="stroke:#181818;stroke-width:1.0;" x1="229.7305" x2="229.7305" y1="169.9375" y2="245.9063"/><line style="stroke:#181818;stroke-width:1.0;" x1="229.7305" x2="173.2268" y1="169.9375" y2="169.9375"/><polygon fill="#181818" points="183.2268,165.9375,173.2268,169.9375,183.2268,173.9375,179.2268,169.9375" style="stroke:#181818;stroke-width:1.0;"/><line style="stroke:#181818;stroke-width:1.0;" x1="80.5037" x2="24" y1="169.9375" y2="169.9375"/><polygon fill="#181818" points="20,202.9219,24,212.9219,28,202.9219,24,206.9219" style="stroke:#181818;stroke-width:1.0;"/><line style="stroke:#181818;stroke-width:1.0;" x1="24" x2="24" y1="169.9375" y2="257.9063"/><line style="stroke:#181818;stroke-width:1.0;" x1="24" x2="126.8652" y1="257.9063" y2="257.9063"/><line style="stroke:#181818;stroke-width:1.0;" x1="126.8652" x2="126.8652" y1="257.9063" y2="277.9063"/><polygon fill="#181818" points="122.8652,267.9063,126.8652,277.9063,130.8652,267.9063,126.8652,271.9063" style="stroke:#181818;stroke-width:1.0;"/><line style="stroke:#181818;stroke-width:1.0;" x1="126.8652" x2="126.8652" y1="137.9375" y2="157.9375"/><polygon fill="#181818" points="122.8652,147.9375,126.8652,157.9375,130.8652,147.9375,126.8652,151.9375" style="stroke:#181818;stroke-width:1.0;"/><line style="stroke:#181818;stroke-width:1.0;" x1="126.8652" x2="126.8652" y1="311.875" y2="331.875"/><polygon fill="#181818" points="122.8652,321.875,126.8652,331.875,130.8652,321.875,126.8652,325.875" style="stroke:#181818;stroke-width:1.0;"/><!--SRC=[JOmx3i8m40LhV8ejeThUL14VqT2G4rZn2uamtcYzA1m_3g98-MRqfbXGS_uUNg0pkaIzofkOPSxGTdmo7vq_AOA1Rg4CBQnQRL9QpJoC2VkhA5LGERwJ5kQ3s_acHhhKIVtVnhLkidaZnr_0-GVietcZYicq0000]--></g></svg>