<svg xmlns="http://www.w3.org/2000/svg" xmlns:xlink="http://www.w3.org/1999/xlink" contentStyleType="text/css" height="369px" preserveAspectRatio="none" style="width:288px;height:369px;background:#FFFFFF;" version="1.1" viewBox="0 0 288 369" width="288px" zoomAndPan="magnify"><defs/><g><ellipse cx="144.0298" cy="20" fill="#222222" rx="10" ry="10" style="stroke:#222222;stroke-width:1.0;"/><rect fill="#F1F1F1" height="33.9688" rx="12.5" ry="12.5" style="stroke:#181818;stroke-width:0.5;" width="90.2773" x="98.8911" y="142.4023"/><text fill="#000000" font-family="sans-serif" font-size="12" lengthAdjust="spacing" textLength="70.2773" x="108.8911" y="163.541">Return field</text><ellipse cx="144.0298" cy="207.3711" fill="none" rx="11" ry="11" style="stroke:#222222;stroke-width:1.0;"/><ellipse cx="144.0298" cy="207.3711" fill="#222222" rx="6" ry="6" style="stroke:#222222;stroke-width:1.0;"/><polygon fill="#F1F1F1" points="48,94,240.0596,94,252.0596,106,240.0596,118,48,118,36,106,48,94" style="stroke:#181818;stroke-width:0.5;"/><text fill="#000000" font-family="sans-serif" font-size="11" lengthAdjust="spacing" textLength="19.0083" x="148.0298" y="128.2104">yes</text><text fill="#000000" font-family="sans-serif" font-size="11" lengthAdjust="spacing" textLength="192.0596" x="48" y="109.8081">Current field is the field looking for</text><polygon fill="#F1F1F1" points="93.0017,50,195.0579,50,207.0579,62,195.0579,74,93.0017,74,81.0017,62,93.0017,50" style="stroke:#181818;stroke-width:0.5;"/><text fill="#000000" font-family="sans-serif" font-size="11" lengthAdjust="spacing" textLength="47.604" x="93.0017" y="65.8081">For each</text><text fill="#000000" font-family="sans-serif" font-size="11" font-style="italic" lengthAdjust="spacing" textLength="21.2695" x="144.1023" y="65.8081">_sig</text><text fill="#000000" font-family="sans-serif" font-size="11" lengthAdjust="spacing" textLength="26.1895" x="168.8684" y="65.8081">Field</text><rect fill="#F1F1F1" height="33.9688" rx="12.5" ry="12.5" style="stroke:#181818;stroke-width:0.5;" width="86.2637" x="100.8979" y="282.3711"/><text fill="#000000" font-family="sans-serif" font-size="12" lengthAdjust="spacing" textLength="66.2637" x="110.8979" y="303.5098">Return null</text><ellipse cx="144.0298" cy="347.3398" fill="none" rx="11" ry="11" style="stroke:#222222;stroke-width:1.0;"/><ellipse cx="144.0298" cy="347.3398" fill="#222222" rx="6" ry="6" style="stroke:#222222;stroke-width:1.0;"/><line style="stroke:#181818;stroke-width:1.0;" x1="144.0298" x2="144.0298" y1="176.3711" y2="196.3711"/><polygon fill="#181818" points="140.0298,186.3711,144.0298,196.3711,148.0298,186.3711,144.0298,190.3711" style="stroke:#181818;stroke-width:1.0;"/><line style="stroke:#181818;stroke-width:1.0;" x1="144.0298" x2="144.0298" y1="118" y2="142.4023"/><polygon fill="#181818" points="140.0298,132.4023,144.0298,142.4023,148.0298,132.4023,144.0298,136.4023" style="stroke:#181818;stroke-width:1.0;"/><line style="stroke:#181818;stroke-width:1.0;" x1="252.0596" x2="276.0596" y1="106" y2="106"/><line style="stroke:#181818;stroke-width:1.0;" x1="276.0596" x2="276.0596" y1="62" y2="106"/><line style="stroke:#181818;stroke-width:1.0;" x1="276.0596" x2="207.0579" y1="62" y2="62"/><polygon fill="#181818" points="217.0579,58,207.0579,62,217.0579,66,213.0579,62" style="stroke:#181818;stroke-width:1.0;"/><line style="stroke:#181818;stroke-width:1.0;" x1="144.0298" x2="144.0298" y1="74" y2="94"/><polygon fill="#181818" points="140.0298,84,144.0298,94,148.0298,84,144.0298,88" style="stroke:#181818;stroke-width:1.0;"/><line style="stroke:#181818;stroke-width:1.0;" x1="81.0017" x2="24" y1="62" y2="62"/><polygon fill="#181818" points="20,162.8867,24,172.8867,28,162.8867,24,166.8867" style="stroke:#181818;stroke-width:1.0;"/><line style="stroke:#181818;stroke-width:1.0;" x1="24" x2="24" y1="62" y2="262.3711"/><line style="stroke:#181818;stroke-width:1.0;" x1="24" x2="144.0298" y1="262.3711" y2="262.3711"/><line style="stroke:#181818;stroke-width:1.0;" x1="144.0298" x2="144.0298" y1="262.3711" y2="282.3711"/><polygon fill="#181818" points="140.0298,272.3711,144.0298,282.3711,148.0298,272.3711,144.0298,276.3711" style="stroke:#181818;stroke-width:1.0;"/><line style="stroke:#181818;stroke-width:1.0;" x1="144.0298" x2="144.0298" y1="30" y2="50"/><polygon fill="#181818" points="140.0298,40,144.0298,50,148.0298,40,144.0298,44" style="stroke:#181818;stroke-width:1.0;"/><line style="stroke:#181818;stroke-width:1.0;" x1="144.0298" x2="144.0298" y1="316.3398" y2="336.3398"/><polygon fill="#181818" points="140.0298,326.3398,144.0298,336.3398,148.0298,326.3398,144.0298,330.3398" style="stroke:#181818;stroke-width:1.0;"/><!--SRC=[DOrB2iCm34JNrYcqT5RUDyj03j0BbD38iOYHYonJUllQ_Mm6vl66gRQfmJDn9hyMHThk2KEuLJv2m9KfxnCuZdvfgYI6SI3aYfReLt8f9yk1iUWqiA1_KUqpTxcIDPMlDtTGhJp0aUmSeUVd5_wMj9nd6CeR]--></g></svg>