<svg xmlns="http://www.w3.org/2000/svg" xmlns:xlink="http://www.w3.org/1999/xlink" contentStyleType="text/css" height="369px" preserveAspectRatio="none" style="width:350px;height:369px;background:#FFFFFF;" version="1.1" viewBox="0 0 350 369" width="350px" zoomAndPan="magnify"><defs/><g><ellipse cx="175.2412" cy="20" fill="#222222" rx="10" ry="10" style="stroke:#222222;stroke-width:1.0;"/><rect fill="#F1F1F1" height="33.9688" rx="12.5" ry="12.5" style="stroke:#181818;stroke-width:0.5;" width="92.9551" x="128.7637" y="142.4023"/><text fill="#000000" font-family="sans-serif" font-size="12" lengthAdjust="spacing" textLength="72.9551" x="138.7637" y="163.541">Return Field</text><ellipse cx="175.2412" cy="207.3711" fill="none" rx="11" ry="11" style="stroke:#222222;stroke-width:1.0;"/><ellipse cx="175.2412" cy="207.3711" fill="#222222" rx="6" ry="6" style="stroke:#222222;stroke-width:1.0;"/><polygon fill="#F1F1F1" points="48,94,302.4824,94,314.4824,106,302.4824,118,48,118,36,106,48,94" style="stroke:#181818;stroke-width:0.5;"/><text fill="#000000" font-family="sans-serif" font-size="11" lengthAdjust="spacing" textLength="19.0083" x="179.2412" y="128.2104">yes</text><text fill="#000000" font-family="sans-serif" font-size="11" lengthAdjust="spacing" textLength="254.4824" x="48" y="109.8081">Current Field Label == Looking for Field Label</text><polygon fill="#F1F1F1" points="101.4585,50,249.0239,50,261.0239,62,249.0239,74,101.4585,74,89.4585,62,101.4585,50" style="stroke:#181818;stroke-width:0.5;"/><text fill="#000000" font-family="sans-serif" font-size="11" lengthAdjust="spacing" textLength="147.5654" x="101.4585" y="65.8081">For all Functions in Module</text><rect fill="#F1F1F1" height="33.9688" rx="12.5" ry="12.5" style="stroke:#181818;stroke-width:0.5;" width="86.2637" x="132.1094" y="282.3711"/><text fill="#000000" font-family="sans-serif" font-size="12" lengthAdjust="spacing" textLength="66.2637" x="142.1094" y="303.5098">Return null</text><ellipse cx="175.2412" cy="347.3398" fill="none" rx="11" ry="11" style="stroke:#222222;stroke-width:1.0;"/><ellipse cx="175.2412" cy="347.3398" fill="#222222" rx="6" ry="6" style="stroke:#222222;stroke-width:1.0;"/><line style="stroke:#181818;stroke-width:1.0;" x1="175.2412" x2="175.2412" y1="176.3711" y2="196.3711"/><polygon fill="#181818" points="171.2412,186.3711,175.2412,196.3711,179.2412,186.3711,175.2412,190.3711" style="stroke:#181818;stroke-width:1.0;"/><line style="stroke:#181818;stroke-width:1.0;" x1="175.2412" x2="175.2412" y1="118" y2="142.4023"/><polygon fill="#181818" points="171.2412,132.4023,175.2412,142.4023,179.2412,132.4023,175.2412,136.4023" style="stroke:#181818;stroke-width:1.0;"/><line style="stroke:#181818;stroke-width:1.0;" x1="314.4824" x2="338.4824" y1="106" y2="106"/><line style="stroke:#181818;stroke-width:1.0;" x1="338.4824" x2="338.4824" y1="62" y2="106"/><line style="stroke:#181818;stroke-width:1.0;" x1="338.4824" x2="261.0239" y1="62" y2="62"/><polygon fill="#181818" points="271.0239,58,261.0239,62,271.0239,66,267.0239,62" style="stroke:#181818;stroke-width:1.0;"/><line style="stroke:#181818;stroke-width:1.0;" x1="175.2412" x2="175.2412" y1="74" y2="94"/><polygon fill="#181818" points="171.2412,84,175.2412,94,179.2412,84,175.2412,88" style="stroke:#181818;stroke-width:1.0;"/><line style="stroke:#181818;stroke-width:1.0;" x1="89.4585" x2="24" y1="62" y2="62"/><polygon fill="#181818" points="20,162.8867,24,172.8867,28,162.8867,24,166.8867" style="stroke:#181818;stroke-width:1.0;"/><line style="stroke:#181818;stroke-width:1.0;" x1="24" x2="24" y1="62" y2="262.3711"/><line style="stroke:#181818;stroke-width:1.0;" x1="24" x2="175.2412" y1="262.3711" y2="262.3711"/><line style="stroke:#181818;stroke-width:1.0;" x1="175.2412" x2="175.2412" y1="262.3711" y2="282.3711"/><polygon fill="#181818" points="171.2412,272.3711,175.2412,282.3711,179.2412,272.3711,175.2412,276.3711" style="stroke:#181818;stroke-width:1.0;"/><line style="stroke:#181818;stroke-width:1.0;" x1="175.2412" x2="175.2412" y1="30" y2="50"/><polygon fill="#181818" points="171.2412,40,175.2412,50,179.2412,40,175.2412,44" style="stroke:#181818;stroke-width:1.0;"/><line style="stroke:#181818;stroke-width:1.0;" x1="175.2412" x2="175.2412" y1="316.3398" y2="336.3398"/><polygon fill="#181818" points="171.2412,326.3398,175.2412,336.3398,179.2412,326.3398,175.2412,330.3398" style="stroke:#181818;stroke-width:1.0;"/><!--SRC=[JOwn3i8m34Jd-2iyfhz0rGafKrduWq0SQc4vA75KyVS441BB3NVlJjSiLeDzOo4VIiKeWg7hrRXeGrOybTI59d2SqHzxhQI6WKaIhl52Wik2QobtrXlcCV0NJMWRAVedjT5tXpDPh_ebvc4qAmzmf8ap3FsSW1-bNMI6D_82]--></g></svg>