<?xml version="1.0" encoding="us-ascii" standalone="no"?><svg xmlns="http://www.w3.org/2000/svg" xmlns:xlink="http://www.w3.org/1999/xlink" contentStyleType="text/css" height="244px" preserveAspectRatio="none" style="width:207px;height:244px;background:#FFFFFF;" version="1.1" viewBox="0 0 207 244" width="207px" zoomAndPan="magnify"><defs/><g><ellipse cx="103.5" cy="20" fill="#222222" rx="10" ry="10" style="stroke:#222222;stroke-width:1.0;"/><rect fill="#F1F1F1" height="33.9688" rx="12.5" ry="12.5" style="stroke:#181818;stroke-width:0.5;" width="185" x="11" y="50"/><text fill="#000000" font-family="sans-serif" font-size="12" lengthAdjust="spacing" textLength="165" x="21" y="71.1387">Define Command Attributes</text><rect fill="#F1F1F1" height="33.9688" rx="12.5" ry="12.5" style="stroke:#181818;stroke-width:0.5;" width="141" x="33" y="103.9688"/><text fill="#000000" font-family="sans-serif" font-size="12" lengthAdjust="spacing" textLength="121" x="43" y="125.1074">Construct Command</text><rect fill="#F1F1F1" height="33.9688" rx="12.5" ry="12.5" style="stroke:#181818;stroke-width:0.5;" width="122" x="42.5" y="157.9375"/><text fill="#000000" font-family="sans-serif" font-size="12" lengthAdjust="spacing" textLength="102" x="52.5" y="179.0762">Return Command</text><ellipse cx="103.5" cy="222.9063" fill="none" rx="11" ry="11" style="stroke:#222222;stroke-width:1.0;"/><ellipse cx="103.5" cy="222.9063" fill="#222222" rx="6" ry="6" style="stroke:#222222;stroke-width:1.0;"/><line style="stroke:#181818;stroke-width:1.0;" x1="103.5" x2="103.5" y1="30" y2="50"/><polygon fill="#181818" points="99.5,40,103.5,50,107.5,40,103.5,44" style="stroke:#181818;stroke-width:1.0;"/><line style="stroke:#181818;stroke-width:1.0;" x1="103.5" x2="103.5" y1="83.9688" y2="103.9688"/><polygon fill="#181818" points="99.5,93.9688,103.5,103.9688,107.5,93.9688,103.5,97.9688" style="stroke:#181818;stroke-width:1.0;"/><line style="stroke:#181818;stroke-width:1.0;" x1="103.5" x2="103.5" y1="137.9375" y2="157.9375"/><polygon fill="#181818" points="99.5,147.9375,103.5,157.9375,107.5,147.9375,103.5,151.9375" style="stroke:#181818;stroke-width:1.0;"/><line style="stroke:#181818;stroke-width:1.0;" x1="103.5" x2="103.5" y1="191.9063" y2="211.9063"/><polygon fill="#181818" points="99.5,201.9063,103.5,211.9063,107.5,201.9063,103.5,205.9063" style="stroke:#181818;stroke-width:1.0;"/><!--SRC=[Aov9B2hXid99JSlCIrLmpi_DJSnBKN0iAIdAJ2ejIIssvh9opiyhBYagJIw1IGF5Wb9BIelo40B59Va50000]--></g></svg>