<svg xmlns="http://www.w3.org/2000/svg" xmlns:xlink="http://www.w3.org/1999/xlink" contentStyleType="text/css" height="244px" preserveAspectRatio="none" style="width:216px;height:244px;background:#FFFFFF;" version="1.1" viewBox="0 0 216 244" width="216px" zoomAndPan="magnify"><defs/><g><ellipse cx="108.1641" cy="20" fill="#222222" rx="10" ry="10" style="stroke:#222222;stroke-width:1.0;"/><rect fill="#F1F1F1" height="33.9688" rx="12.5" ry="12.5" style="stroke:#181818;stroke-width:0.5;" width="194.3281" x="11" y="50"/><text fill="#000000" font-family="sans-serif" font-size="12" lengthAdjust="spacing" textLength="97.459" x="21" y="71.1387">Create ArrayList</text><text fill="#000000" font-family="sans-serif" font-size="12" font-style="italic" lengthAdjust="spacing" textLength="73.0547" x="122.2734" y="71.1387">sortedFields</text><rect fill="#F1F1F1" height="33.9688" rx="12.5" ry="12.5" style="stroke:#181818;stroke-width:0.5;" width="80.5566" x="67.8857" y="103.9688"/><text fill="#000000" font-family="sans-serif" font-size="12" lengthAdjust="spacing" textLength="60.5566" x="77.8857" y="125.1074">Sort fields</text><rect fill="#F1F1F1" height="33.9688" rx="12.5" ry="12.5" style="stroke:#181818;stroke-width:0.5;" width="137.4395" x="39.4443" y="157.9375"/><text fill="#000000" font-family="sans-serif" font-size="12" lengthAdjust="spacing" textLength="40.5703" x="49.4443" y="179.0762">Return</text><text fill="#000000" font-family="sans-serif" font-size="12" font-style="italic" lengthAdjust="spacing" textLength="73.0547" x="93.8291" y="179.0762">sortedFields</text><ellipse cx="108.1641" cy="222.9063" fill="none" rx="11" ry="11" style="stroke:#222222;stroke-width:1.0;"/><ellipse cx="108.1641" cy="222.9063" fill="#222222" rx="6" ry="6" style="stroke:#222222;stroke-width:1.0;"/><line style="stroke:#181818;stroke-width:1.0;" x1="108.1641" x2="108.1641" y1="30" y2="50"/><polygon fill="#181818" points="104.1641,40,108.1641,50,112.1641,40,108.1641,44" style="stroke:#181818;stroke-width:1.0;"/><line style="stroke:#181818;stroke-width:1.0;" x1="108.1641" x2="108.1641" y1="83.9688" y2="103.9688"/><polygon fill="#181818" points="104.1641,93.9688,108.1641,103.9688,112.1641,93.9688,108.1641,97.9688" style="stroke:#181818;stroke-width:1.0;"/><line style="stroke:#181818;stroke-width:1.0;" x1="108.1641" x2="108.1641" y1="137.9375" y2="157.9375"/><polygon fill="#181818" points="104.1641,147.9375,108.1641,157.9375,112.1641,147.9375,108.1641,151.9375" style="stroke:#181818;stroke-width:1.0;"/><line style="stroke:#181818;stroke-width:1.0;" x1="108.1641" x2="108.1641" y1="191.9063" y2="211.9063"/><polygon fill="#181818" points="104.1641,201.9063,108.1641,211.9063,112.1641,201.9063,108.1641,205.9063" style="stroke:#181818;stroke-width:1.0;"/><!--SRC=[Aov9B2hXid8kIaqiILLmB2fAhFJ9B2vHqDSlpYygIKrnoqpDIIdMrxVciWe62YYaWVb0Nb1gIMbH7gOw1QxYalm20000]--></g></svg>