<?xml version="1.0" encoding="us-ascii" standalone="no"?><svg xmlns="http://www.w3.org/2000/svg" xmlns:xlink="http://www.w3.org/1999/xlink" contentStyleType="text/css" height="489px" preserveAspectRatio="none" style="width:346px;height:489px;background:#FFFFFF;" version="1.1" viewBox="0 0 346 489" width="346px" zoomAndPan="magnify"><defs/><g><ellipse cx="176" cy="20" fill="#222222" rx="10" ry="10" style="stroke:#222222;stroke-width:1.0;"/><rect fill="#F1F1F1" height="33.9688" rx="12.5" ry="12.5" style="stroke:#181818;stroke-width:0.5;" width="115" x="118.5" y="94"/><text fill="#000000" font-family="sans-serif" font-size="12" lengthAdjust="spacing" textLength="95" x="128.5" y="115.1387">Get Field Types</text><rect fill="#F1F1F1" height="33.9688" rx="12.5" ry="12.5" style="stroke:#181818;stroke-width:0.5;" width="88" x="132" y="240.3711"/><text fill="#000000" font-family="sans-serif" font-size="12" lengthAdjust="spacing" textLength="68" x="142" y="261.5098">Return field</text><ellipse cx="176" cy="305.3398" fill="none" rx="11" ry="11" style="stroke:#222222;stroke-width:1.0;"/><ellipse cx="176" cy="305.3398" fill="#222222" rx="6" ry="6" style="stroke:#222222;stroke-width:1.0;"/><polygon fill="#F1F1F1" points="66,191.9688,286,191.9688,298,203.9688,286,215.9688,66,215.9688,54,203.9688,66,191.9688" style="stroke:#181818;stroke-width:0.5;"/><text fill="#000000" font-family="sans-serif" font-size="11" lengthAdjust="spacing" textLength="21" x="180" y="226.1792">yes</text><text fill="#000000" font-family="sans-serif" font-size="11" lengthAdjust="spacing" textLength="220" x="66" y="207.7769">Current Field Type == fieldTypeName</text><polygon fill="#F1F1F1" points="124.5,147.9688,227.5,147.9688,239.5,159.9688,227.5,171.9688,124.5,171.9688,112.5,159.9688,124.5,147.9688" style="stroke:#181818;stroke-width:0.5;"/><text fill="#000000" font-family="sans-serif" font-size="11" lengthAdjust="spacing" textLength="103" x="124.5" y="163.7769">for All Field Types</text><polygon fill="#F1F1F1" points="111.5,50,240.5,50,252.5,62,240.5,74,111.5,74,99.5,62,111.5,50" style="stroke:#181818;stroke-width:0.5;"/><text fill="#000000" font-family="sans-serif" font-size="11" lengthAdjust="spacing" textLength="129" x="111.5" y="65.8081">for All Signature Fields</text><rect fill="#F1F1F1" height="33.9688" rx="12.5" ry="12.5" style="stroke:#181818;stroke-width:0.5;" width="82" x="135" y="402.3398"/><text fill="#000000" font-family="sans-serif" font-size="12" lengthAdjust="spacing" textLength="62" x="145" y="423.4785">Return null</text><ellipse cx="176" cy="467.3086" fill="none" rx="11" ry="11" style="stroke:#222222;stroke-width:1.0;"/><ellipse cx="176" cy="467.3086" fill="#222222" rx="6" ry="6" style="stroke:#222222;stroke-width:1.0;"/><line style="stroke:#181818;stroke-width:1.0;" x1="176" x2="176" y1="274.3398" y2="294.3398"/><polygon fill="#181818" points="172,284.3398,176,294.3398,180,284.3398,176,288.3398" style="stroke:#181818;stroke-width:1.0;"/><line style="stroke:#181818;stroke-width:1.0;" x1="176" x2="176" y1="215.9688" y2="240.3711"/><polygon fill="#181818" points="172,230.3711,176,240.3711,180,230.3711,176,234.3711" style="stroke:#181818;stroke-width:1.0;"/><line style="stroke:#181818;stroke-width:1.0;" x1="298" x2="322" y1="203.9688" y2="203.9688"/><line style="stroke:#181818;stroke-width:1.0;" x1="322" x2="322" y1="159.9688" y2="203.9688"/><line style="stroke:#181818;stroke-width:1.0;" x1="322" x2="239.5" y1="159.9688" y2="159.9688"/><polygon fill="#181818" points="249.5,155.9688,239.5,159.9688,249.5,163.9688,245.5,159.9688" style="stroke:#181818;stroke-width:1.0;"/><line style="stroke:#181818;stroke-width:1.0;" x1="176" x2="176" y1="171.9688" y2="191.9688"/><polygon fill="#181818" points="172,181.9688,176,191.9688,180,181.9688,176,185.9688" style="stroke:#181818;stroke-width:1.0;"/><line style="stroke:#181818;stroke-width:1.0;" x1="112.5" x2="42" y1="159.9688" y2="159.9688"/><polygon fill="#181818" points="38,260.8555,42,270.8555,46,260.8555,42,264.8555" style="stroke:#181818;stroke-width:1.0;"/><line style="stroke:#181818;stroke-width:1.0;" x1="42" x2="42" y1="159.9688" y2="360.3398"/><line style="stroke:#181818;stroke-width:1.0;" x1="42" x2="334" y1="360.3398" y2="360.3398"/><line style="stroke:#181818;stroke-width:1.0;" x1="334" x2="334" y1="62" y2="360.3398"/><line style="stroke:#181818;stroke-width:1.0;" x1="334" x2="252.5" y1="62" y2="62"/><polygon fill="#181818" points="262.5,58,252.5,62,262.5,66,258.5,62" style="stroke:#181818;stroke-width:1.0;"/><line style="stroke:#181818;stroke-width:1.0;" x1="176" x2="176" y1="127.9688" y2="147.9688"/><polygon fill="#181818" points="172,137.9688,176,147.9688,180,137.9688,176,141.9688" style="stroke:#181818;stroke-width:1.0;"/><line style="stroke:#181818;stroke-width:1.0;" x1="176" x2="176" y1="74" y2="94"/><polygon fill="#181818" points="172,84,176,94,180,84,176,88" style="stroke:#181818;stroke-width:1.0;"/><line style="stroke:#181818;stroke-width:1.0;" x1="99.5" x2="24" y1="62" y2="62"/><polygon fill="#181818" points="20,214.3711,24,224.3711,28,214.3711,24,218.3711" style="stroke:#181818;stroke-width:1.0;"/><line style="stroke:#181818;stroke-width:1.0;" x1="24" x2="24" y1="62" y2="382.3398"/><line style="stroke:#181818;stroke-width:1.0;" x1="24" x2="176" y1="382.3398" y2="382.3398"/><line style="stroke:#181818;stroke-width:1.0;" x1="176" x2="176" y1="382.3398" y2="402.3398"/><polygon fill="#181818" points="172,392.3398,176,402.3398,180,392.3398,176,396.3398" style="stroke:#181818;stroke-width:1.0;"/><line style="stroke:#181818;stroke-width:1.0;" x1="176" x2="176" y1="30" y2="50"/><polygon fill="#181818" points="172,40,176,50,180,40,176,44" style="stroke:#181818;stroke-width:1.0;"/><line style="stroke:#181818;stroke-width:1.0;" x1="176" x2="176" y1="436.3086" y2="456.3086"/><polygon fill="#181818" points="172,446.3086,176,456.3086,180,446.3086,176,450.3086" style="stroke:#181818;stroke-width:1.0;"/><!--SRC=[NOr12i8m44NtSufP9bTewK84tRbGBn3en0R6QPbCABsznY0MDyCy_llyR44DrYankJWh7fZnbXuIh2ZXAH6FsKDt9ck0zssXtFyrTf675D4TYoh9leF3WB5IXKjuaaURID1jjTDTwJqepUWXsxm0oPXYlP-jt_DrfJ0tzGK0]--></g></svg>