<?xml version="1.0" encoding="us-ascii" standalone="no"?><svg xmlns="http://www.w3.org/2000/svg" xmlns:xlink="http://www.w3.org/1999/xlink" contentStyleType="text/css" height="568px" preserveAspectRatio="none" style="width:262px;height:568px;background:#FFFFFF;" version="1.1" viewBox="0 0 262 568" width="262px" zoomAndPan="magnify"><defs/><g><ellipse cx="131" cy="20" fill="#222222" rx="10" ry="10" style="stroke:#222222;stroke-width:1.0;"/><rect fill="#F1F1F1" height="33.9688" rx="12.5" ry="12.5" style="stroke:#181818;stroke-width:0.5;" width="103" x="79.5" y="50"/><text fill="#000000" font-family="sans-serif" font-size="12" lengthAdjust="spacing" textLength="83" x="89.5" y="71.1387">Make ExprVar</text><rect fill="#F1F1F1" height="33.9688" rx="12.5" ry="12.5" style="stroke:#181818;stroke-width:0.5;" width="208" x="27" y="103.9688"/><text fill="#000000" font-family="sans-serif" font-size="12" lengthAdjust="spacing" textLength="188" x="37" y="125.1074">Join from Expr List with ExprVar</text><rect fill="#F1F1F1" height="33.9688" rx="12.5" ry="12.5" style="stroke:#181818;stroke-width:0.5;" width="192" x="35" y="157.9375"/><text fill="#000000" font-family="sans-serif" font-size="12" lengthAdjust="spacing" textLength="172" x="45" y="179.0762">Join to Expr List with ExprVar</text><rect fill="#F1F1F1" height="33.9688" rx="12.5" ry="12.5" style="stroke:#181818;stroke-width:0.5;" width="217" x="22.5" y="211.9063"/><text fill="#000000" font-family="sans-serif" font-size="12" lengthAdjust="spacing" textLength="197" x="32.5" y="233.0449">Turn from Expr List into one Expr</text><rect fill="#F1F1F1" height="33.9688" rx="12.5" ry="12.5" style="stroke:#181818;stroke-width:0.5;" width="193" x="34.5" y="265.875"/><text fill="#000000" font-family="sans-serif" font-size="12" lengthAdjust="spacing" textLength="173" x="44.5" y="287.0137">Turn to Expr List into on Expr</text><rect fill="#F1F1F1" height="33.9688" rx="12.5" ry="12.5" style="stroke:#181818;stroke-width:0.5;" width="145" x="58.5" y="319.8438"/><text fill="#000000" font-family="sans-serif" font-size="12" lengthAdjust="spacing" textLength="125" x="68.5" y="340.9824">Call Function Filtered</text><rect fill="#F1F1F1" height="33.9688" rx="12.5" ry="12.5" style="stroke:#181818;stroke-width:0.5;" width="116" x="73" y="373.8125"/><text fill="#000000" font-family="sans-serif" font-size="12" lengthAdjust="spacing" textLength="96" x="83" y="394.9512">Create ArrayList</text><rect fill="#F1F1F1" height="33.9688" rx="12.5" ry="12.5" style="stroke:#181818;stroke-width:0.5;" width="161" x="50.5" y="427.7813"/><text fill="#000000" font-family="sans-serif" font-size="12" lengthAdjust="spacing" textLength="141" x="60.5" y="448.9199">Create new Declaration</text><rect fill="#F1F1F1" height="33.9688" rx="12.5" ry="12.5" style="stroke:#181818;stroke-width:0.5;" width="240" x="11" y="481.75"/><text fill="#000000" font-family="sans-serif" font-size="12" lengthAdjust="spacing" textLength="220" x="21" y="502.8887">Add Function Filtered to Overall Fact</text><ellipse cx="131" cy="546.7188" fill="none" rx="11" ry="11" style="stroke:#222222;stroke-width:1.0;"/><ellipse cx="131" cy="546.7188" fill="#222222" rx="6" ry="6" style="stroke:#222222;stroke-width:1.0;"/><line style="stroke:#181818;stroke-width:1.0;" x1="131" x2="131" y1="30" y2="50"/><polygon fill="#181818" points="127,40,131,50,135,40,131,44" style="stroke:#181818;stroke-width:1.0;"/><line style="stroke:#181818;stroke-width:1.0;" x1="131" x2="131" y1="83.9688" y2="103.9688"/><polygon fill="#181818" points="127,93.9688,131,103.9688,135,93.9688,131,97.9688" style="stroke:#181818;stroke-width:1.0;"/><line style="stroke:#181818;stroke-width:1.0;" x1="131" x2="131" y1="137.9375" y2="157.9375"/><polygon fill="#181818" points="127,147.9375,131,157.9375,135,147.9375,131,151.9375" style="stroke:#181818;stroke-width:1.0;"/><line style="stroke:#181818;stroke-width:1.0;" x1="131" x2="131" y1="191.9063" y2="211.9063"/><polygon fill="#181818" points="127,201.9063,131,211.9063,135,201.9063,131,205.9063" style="stroke:#181818;stroke-width:1.0;"/><line style="stroke:#181818;stroke-width:1.0;" x1="131" x2="131" y1="245.875" y2="265.875"/><polygon fill="#181818" points="127,255.875,131,265.875,135,255.875,131,259.875" style="stroke:#181818;stroke-width:1.0;"/><line style="stroke:#181818;stroke-width:1.0;" x1="131" x2="131" y1="299.8438" y2="319.8438"/><polygon fill="#181818" points="127,309.8438,131,319.8438,135,309.8438,131,313.8438" style="stroke:#181818;stroke-width:1.0;"/><line style="stroke:#181818;stroke-width:1.0;" x1="131" x2="131" y1="353.8125" y2="373.8125"/><polygon fill="#181818" points="127,363.8125,131,373.8125,135,363.8125,131,367.8125" style="stroke:#181818;stroke-width:1.0;"/><line style="stroke:#181818;stroke-width:1.0;" x1="131" x2="131" y1="407.7813" y2="427.7813"/><polygon fill="#181818" points="127,417.7813,131,427.7813,135,417.7813,131,421.7813" style="stroke:#181818;stroke-width:1.0;"/><line style="stroke:#181818;stroke-width:1.0;" x1="131" x2="131" y1="461.75" y2="481.75"/><polygon fill="#181818" points="127,471.75,131,481.75,135,471.75,131,475.75" style="stroke:#181818;stroke-width:1.0;"/><line style="stroke:#181818;stroke-width:1.0;" x1="131" x2="131" y1="515.7188" y2="535.7188"/><polygon fill="#181818" points="127,525.7188,131,535.7188,135,525.7188,131,529.7188" style="stroke:#181818;stroke-width:1.0;"/><!--SRC=[TOsn3i8m34JtVeM_eqmLq061M12xbHXX4UBASIdyFKcXGb2nthrxbmpLgdg75uBrlTCZwgAgDy8HJYhNCOCj9uE1xVoBcFm73htE71ppGkBhQcA-96zY0fOO0hHzTCOvR3aOAVbIAA4HDAhuACDF56c05Rc0YcMKYyRxkQFSxc-aum6wB4WctHC0]--></g></svg>