<svg xmlns="http://www.w3.org/2000/svg" xmlns:xlink="http://www.w3.org/1999/xlink" contentStyleType="text/css" height="369px" preserveAspectRatio="none" style="width:340px;height:369px;background:#FFFFFF;" version="1.1" viewBox="0 0 340 369" width="340px" zoomAndPan="magnify"><defs/><g><ellipse cx="170.4153" cy="20" fill="#222222" rx="10" ry="10" style="stroke:#222222;stroke-width:1.0;"/><rect fill="#F1F1F1" height="33.9688" rx="12.5" ry="12.5" style="stroke:#181818;stroke-width:0.5;" width="122.5391" x="109.1458" y="142.4023"/><text fill="#000000" font-family="sans-serif" font-size="12" lengthAdjust="spacing" textLength="102.5391" x="119.1458" y="163.541">Return Signature</text><ellipse cx="170.4153" cy="207.3711" fill="none" rx="11" ry="11" style="stroke:#222222;stroke-width:1.0;"/><ellipse cx="170.4153" cy="207.3711" fill="#222222" rx="6" ry="6" style="stroke:#222222;stroke-width:1.0;"/><polygon fill="#F1F1F1" points="48,94,292.8306,94,304.8306,106,292.8306,118,48,118,36,106,48,94" style="stroke:#181818;stroke-width:0.5;"/><text fill="#000000" font-family="sans-serif" font-size="11" lengthAdjust="spacing" textLength="19.0083" x="174.4153" y="128.2104">yes</text><text fill="#000000" font-family="sans-serif" font-size="11" lengthAdjust="spacing" textLength="244.8306" x="48" y="109.8081">Current Signature == Looking For Signature</text><polygon fill="#F1F1F1" points="84.126,50,256.7046,50,268.7046,62,256.7046,74,84.126,74,72.126,62,84.126,50" style="stroke:#181818;stroke-width:0.5;"/><text fill="#000000" font-family="sans-serif" font-size="11" lengthAdjust="spacing" textLength="172.5786" x="84.126" y="65.8081">for all Signatures in the Module</text><rect fill="#F1F1F1" height="33.9688" rx="12.5" ry="12.5" style="stroke:#181818;stroke-width:0.5;" width="86.2637" x="127.2834" y="282.3711"/><text fill="#000000" font-family="sans-serif" font-size="12" lengthAdjust="spacing" textLength="66.2637" x="137.2834" y="303.5098">Return null</text><ellipse cx="170.4153" cy="347.3398" fill="none" rx="11" ry="11" style="stroke:#222222;stroke-width:1.0;"/><ellipse cx="170.4153" cy="347.3398" fill="#222222" rx="6" ry="6" style="stroke:#222222;stroke-width:1.0;"/><line style="stroke:#181818;stroke-width:1.0;" x1="170.4153" x2="170.4153" y1="176.3711" y2="196.3711"/><polygon fill="#181818" points="166.4153,186.3711,170.4153,196.3711,174.4153,186.3711,170.4153,190.3711" style="stroke:#181818;stroke-width:1.0;"/><line style="stroke:#181818;stroke-width:1.0;" x1="170.4153" x2="170.4153" y1="118" y2="142.4023"/><polygon fill="#181818" points="166.4153,132.4023,170.4153,142.4023,174.4153,132.4023,170.4153,136.4023" style="stroke:#181818;stroke-width:1.0;"/><line style="stroke:#181818;stroke-width:1.0;" x1="304.8306" x2="328.8306" y1="106" y2="106"/><line style="stroke:#181818;stroke-width:1.0;" x1="328.8306" x2="328.8306" y1="62" y2="106"/><line style="stroke:#181818;stroke-width:1.0;" x1="328.8306" x2="268.7046" y1="62" y2="62"/><polygon fill="#181818" points="278.7046,58,268.7046,62,278.7046,66,274.7046,62" style="stroke:#181818;stroke-width:1.0;"/><line style="stroke:#181818;stroke-width:1.0;" x1="170.4153" x2="170.4153" y1="74" y2="94"/><polygon fill="#181818" points="166.4153,84,170.4153,94,174.4153,84,170.4153,88" style="stroke:#181818;stroke-width:1.0;"/><line style="stroke:#181818;stroke-width:1.0;" x1="72.126" x2="24" y1="62" y2="62"/><polygon fill="#181818" points="20,162.8867,24,172.8867,28,162.8867,24,166.8867" style="stroke:#181818;stroke-width:1.0;"/><line style="stroke:#181818;stroke-width:1.0;" x1="24" x2="24" y1="62" y2="262.3711"/><line style="stroke:#181818;stroke-width:1.0;" x1="24" x2="170.4153" y1="262.3711" y2="262.3711"/><line style="stroke:#181818;stroke-width:1.0;" x1="170.4153" x2="170.4153" y1="262.3711" y2="282.3711"/><polygon fill="#181818" points="166.4153,272.3711,170.4153,282.3711,174.4153,272.3711,170.4153,276.3711" style="stroke:#181818;stroke-width:1.0;"/><line style="stroke:#181818;stroke-width:1.0;" x1="170.4153" x2="170.4153" y1="30" y2="50"/><polygon fill="#181818" points="166.4153,40,170.4153,50,174.4153,40,170.4153,44" style="stroke:#181818;stroke-width:1.0;"/><line style="stroke:#181818;stroke-width:1.0;" x1="170.4153" x2="170.4153" y1="316.3398" y2="336.3398"/><polygon fill="#181818" points="166.4153,326.3398,170.4153,336.3398,174.4153,326.3398,170.4153,330.3398" style="stroke:#181818;stroke-width:1.0;"/><!--SRC=[HOwn3i8m34Jd-2iyfhz0rGc92HRuWaXrMWlBHeaZrBydHO8kDzozErtrL1pUAml5R0MJ23vuqUIjK4LMz9NmPdCJ6Y1mZkTM2gaV54uJNisUh0jU-iG_6FQkOjoezceutQcxUkHZDwlR2mBfp1cwVe_0ZzGcCiAEV000]--></g></svg>