<svg xmlns="http://www.w3.org/2000/svg" xmlns:xlink="http://www.w3.org/1999/xlink" contentStyleType="text/css" height="204px" preserveAspectRatio="none" style="width:180px;height:204px;background:#FFFFFF;" version="1.1" viewBox="0 0 180 204" width="180px" zoomAndPan="magnify"><defs/><g><ellipse cx="90.3135" cy="20" fill="#222222" rx="10" ry="10" style="stroke:#222222;stroke-width:1.0;"/><rect fill="#F1F1F1" height="47.9375" rx="12.5" ry="12.5" style="stroke:#181818;stroke-width:0.5;" width="158.627" x="11" y="50"/><text fill="#000000" font-family="sans-serif" font-size="12" lengthAdjust="spacing" textLength="138.627" x="21" y="71.1387">Get Field Ax Expr From</text><text fill="#000000" font-family="sans-serif" font-size="12" lengthAdjust="spacing" textLength="102.252" x="21" y="85.1074">Sig or Its Parents</text><rect fill="#F1F1F1" height="33.9688" rx="12.5" ry="12.5" style="stroke:#181818;stroke-width:0.5;" width="92.9551" x="43.8359" y="117.9375"/><text fill="#000000" font-family="sans-serif" font-size="12" lengthAdjust="spacing" textLength="72.9551" x="53.8359" y="139.0762">Return Field</text><ellipse cx="90.3135" cy="182.9063" fill="none" rx="11" ry="11" style="stroke:#222222;stroke-width:1.0;"/><ellipse cx="90.3135" cy="182.9063" fill="#222222" rx="6" ry="6" style="stroke:#222222;stroke-width:1.0;"/><line style="stroke:#181818;stroke-width:1.0;" x1="90.3135" x2="90.3135" y1="30" y2="50"/><polygon fill="#181818" points="86.3135,40,90.3135,50,94.3135,40,90.3135,44" style="stroke:#181818;stroke-width:1.0;"/><line style="stroke:#181818;stroke-width:1.0;" x1="90.3135" x2="90.3135" y1="97.9375" y2="117.9375"/><polygon fill="#181818" points="86.3135,107.9375,90.3135,117.9375,94.3135,107.9375,90.3135,111.9375" style="stroke:#181818;stroke-width:1.0;"/><line style="stroke:#181818;stroke-width:1.0;" x1="90.3135" x2="90.3135" y1="151.9063" y2="171.9063"/><polygon fill="#181818" points="86.3135,161.9063,90.3135,171.9063,94.3135,161.9063,90.3135,165.9063" style="stroke:#181818;stroke-width:1.0;"/><!--SRC=[Aov9B2hXid9FBL5moqpDIL5mh51mhIWeKd0hoi_b2ivCLyWlKl0iALO8I2nApIifjkQo2aejAItAWoYtvYekoIy00000]--></g></svg>