<svg xmlns="http://www.w3.org/2000/svg" xmlns:xlink="http://www.w3.org/1999/xlink" contentStyleType="text/css" height="364px" preserveAspectRatio="none" style="width:281px;height:364px;background:#FFFFFF;" version="1.1" viewBox="0 0 281 364" width="281px" zoomAndPan="magnify"><defs/><g><ellipse cx="139.7061" cy="20" fill="#222222" rx="10" ry="10" style="stroke:#222222;stroke-width:1.0;"/><rect fill="#F1F1F1" height="33.9688" rx="12.5" ry="12.5" style="stroke:#181818;stroke-width:0.5;" width="201.5703" x="38.9209" y="50"/><text fill="#000000" font-family="sans-serif" font-size="12" lengthAdjust="spacing" textLength="97.459" x="48.9209" y="71.1387">Create ArrayList</text><text fill="#000000" font-family="sans-serif" font-size="12" font-style="italic" lengthAdjust="spacing" textLength="80.2969" x="150.1943" y="71.1387">sortedStrings</text><rect fill="#F1F1F1" height="33.9688" rx="12.5" ry="12.5" style="stroke:#181818;stroke-width:0.5;" width="189.2949" x="45.0586" y="147.9688"/><text fill="#000000" font-family="sans-serif" font-size="12" lengthAdjust="spacing" textLength="85.1836" x="55.0586" y="169.1074">Add Strings to</text><text fill="#000000" font-family="sans-serif" font-size="12" font-style="italic" lengthAdjust="spacing" textLength="80.2969" x="144.0566" y="169.1074">sortedStrings</text><polygon fill="#F1F1F1" points="48,103.9688,231.4121,103.9688,243.4121,115.9688,231.4121,127.9688,48,127.9688,36,115.9688,48,103.9688" style="stroke:#181818;stroke-width:0.5;"/><text fill="#000000" font-family="sans-serif" font-size="11" lengthAdjust="spacing" textLength="183.4121" x="48" y="119.7769">For All strings in the Set&lt;String&gt;</text><rect fill="#F1F1F1" height="33.9688" rx="12.5" ry="12.5" style="stroke:#181818;stroke-width:0.5;" width="128.709" x="75.3516" y="223.9375"/><text fill="#000000" font-family="sans-serif" font-size="12" lengthAdjust="spacing" textLength="24.5977" x="85.3516" y="245.0762">Sort</text><text fill="#000000" font-family="sans-serif" font-size="12" font-style="italic" lengthAdjust="spacing" textLength="80.2969" x="113.7637" y="245.0762">sortedStrings</text><rect fill="#F1F1F1" height="33.9688" rx="12.5" ry="12.5" style="stroke:#181818;stroke-width:0.5;" width="144.6816" x="67.3652" y="277.9063"/><text fill="#000000" font-family="sans-serif" font-size="12" lengthAdjust="spacing" textLength="40.5703" x="77.3652" y="299.0449">Return</text><text fill="#000000" font-family="sans-serif" font-size="12" font-style="italic" lengthAdjust="spacing" textLength="80.2969" x="121.75" y="299.0449">sortedStrings</text><ellipse cx="139.7061" cy="342.875" fill="none" rx="11" ry="11" style="stroke:#222222;stroke-width:1.0;"/><ellipse cx="139.7061" cy="342.875" fill="#222222" rx="6" ry="6" style="stroke:#222222;stroke-width:1.0;"/><line style="stroke:#181818;stroke-width:1.0;" x1="139.7061" x2="139.7061" y1="30" y2="50"/><polygon fill="#181818" points="135.7061,40,139.7061,50,143.7061,40,139.7061,44" style="stroke:#181818;stroke-width:1.0;"/><line style="stroke:#181818;stroke-width:1.0;" x1="139.7061" x2="139.7061" y1="127.9688" y2="147.9688"/><polygon fill="#181818" points="135.7061,137.9688,139.7061,147.9688,143.7061,137.9688,139.7061,141.9688" style="stroke:#181818;stroke-width:1.0;"/><line style="stroke:#181818;stroke-width:1.0;" x1="139.7061" x2="139.7061" y1="181.9375" y2="191.9375"/><line style="stroke:#181818;stroke-width:1.0;" x1="139.7061" x2="255.4121" y1="191.9375" y2="191.9375"/><polygon fill="#181818" points="251.4121,162.9531,255.4121,152.9531,259.4121,162.9531,255.4121,158.9531" style="stroke:#181818;stroke-width:1.0;"/><line style="stroke:#181818;stroke-width:1.0;" x1="255.4121" x2="255.4121" y1="115.9688" y2="191.9375"/><line style="stroke:#181818;stroke-width:1.0;" x1="255.4121" x2="243.4121" y1="115.9688" y2="115.9688"/><polygon fill="#181818" points="253.4121,111.9688,243.4121,115.9688,253.4121,119.9688,249.4121,115.9688" style="stroke:#181818;stroke-width:1.0;"/><line style="stroke:#181818;stroke-width:1.0;" x1="36" x2="24" y1="115.9688" y2="115.9688"/><polygon fill="#181818" points="20,148.9531,24,158.9531,28,148.9531,24,152.9531" style="stroke:#181818;stroke-width:1.0;"/><line style="stroke:#181818;stroke-width:1.0;" x1="24" x2="24" y1="115.9688" y2="203.9375"/><line style="stroke:#181818;stroke-width:1.0;" x1="24" x2="139.7061" y1="203.9375" y2="203.9375"/><line style="stroke:#181818;stroke-width:1.0;" x1="139.7061" x2="139.7061" y1="203.9375" y2="223.9375"/><polygon fill="#181818" points="135.7061,213.9375,139.7061,223.9375,143.7061,213.9375,139.7061,217.9375" style="stroke:#181818;stroke-width:1.0;"/><line style="stroke:#181818;stroke-width:1.0;" x1="139.7061" x2="139.7061" y1="83.9688" y2="103.9688"/><polygon fill="#181818" points="135.7061,93.9688,139.7061,103.9688,143.7061,93.9688,139.7061,97.9688" style="stroke:#181818;stroke-width:1.0;"/><line style="stroke:#181818;stroke-width:1.0;" x1="139.7061" x2="139.7061" y1="257.9063" y2="277.9063"/><polygon fill="#181818" points="135.7061,267.9063,139.7061,277.9063,143.7061,267.9063,139.7061,271.9063" style="stroke:#181818;stroke-width:1.0;"/><line style="stroke:#181818;stroke-width:1.0;" x1="139.7061" x2="139.7061" y1="311.875" y2="331.875"/><polygon fill="#181818" points="135.7061,321.875,139.7061,331.875,143.7061,321.875,139.7061,325.875" style="stroke:#181818;stroke-width:1.0;"/><!--SRC=[ROmz2W8n48LhSufNQfK-YX04AojpWa06Dn0IcNaYtdx5jKpz_HYpqeMBIgOWgkRFhHhXlGsbb4Ij_M7U7zrxgKtsrw68hS4sWDh1HP24fyqz7zmkn5BmJy4nkqallw4BwOjcHhWBNzfdo3YUAm00]--></g></svg>