<?xml version="1.0" encoding="us-ascii" standalone="no"?><svg xmlns="http://www.w3.org/2000/svg" xmlns:xlink="http://www.w3.org/1999/xlink" contentStyleType="text/css" height="298px" preserveAspectRatio="none" style="width:259px;height:298px;background:#FFFFFF;" version="1.1" viewBox="0 0 259 298" width="259px" zoomAndPan="magnify"><defs/><g><ellipse cx="129.5" cy="20" fill="#222222" rx="10" ry="10" style="stroke:#222222;stroke-width:1.0;"/><rect fill="#F1F1F1" height="33.9688" rx="12.5" ry="12.5" style="stroke:#181818;stroke-width:0.5;" width="216" x="21.5" y="50"/><text fill="#000000" font-family="sans-serif" font-size="12" lengthAdjust="spacing" textLength="196" x="31.5" y="71.1387">Add Expression to be in ExprVar</text><rect fill="#F1F1F1" height="33.9688" rx="12.5" ry="12.5" style="stroke:#181818;stroke-width:0.5;" width="237" x="11" y="103.9688"/><text fill="#000000" font-family="sans-serif" font-size="12" lengthAdjust="spacing" textLength="217" x="21" y="125.1074">Add New Expression to Overall Fact</text><rect fill="#F1F1F1" height="33.9688" rx="12.5" ry="12.5" style="stroke:#181818;stroke-width:0.5;" width="216" x="21.5" y="157.9375"/><text fill="#000000" font-family="sans-serif" font-size="12" lengthAdjust="spacing" textLength="196" x="31.5" y="179.0762">Add ExprVar to be in Expression</text><rect fill="#F1F1F1" height="33.9688" rx="12.5" ry="12.5" style="stroke:#181818;stroke-width:0.5;" width="237" x="11" y="211.9063"/><text fill="#000000" font-family="sans-serif" font-size="12" lengthAdjust="spacing" textLength="217" x="21" y="233.0449">Add New Expression to Overall Fact</text><ellipse cx="129.5" cy="276.875" fill="none" rx="11" ry="11" style="stroke:#222222;stroke-width:1.0;"/><ellipse cx="129.5" cy="276.875" fill="#222222" rx="6" ry="6" style="stroke:#222222;stroke-width:1.0;"/><line style="stroke:#181818;stroke-width:1.0;" x1="129.5" x2="129.5" y1="30" y2="50"/><polygon fill="#181818" points="125.5,40,129.5,50,133.5,40,129.5,44" style="stroke:#181818;stroke-width:1.0;"/><line style="stroke:#181818;stroke-width:1.0;" x1="129.5" x2="129.5" y1="83.9688" y2="103.9688"/><polygon fill="#181818" points="125.5,93.9688,129.5,103.9688,133.5,93.9688,129.5,97.9688" style="stroke:#181818;stroke-width:1.0;"/><line style="stroke:#181818;stroke-width:1.0;" x1="129.5" x2="129.5" y1="137.9375" y2="157.9375"/><polygon fill="#181818" points="125.5,147.9375,129.5,157.9375,133.5,147.9375,129.5,151.9375" style="stroke:#181818;stroke-width:1.0;"/><line style="stroke:#181818;stroke-width:1.0;" x1="129.5" x2="129.5" y1="191.9063" y2="211.9063"/><polygon fill="#181818" points="125.5,201.9063,129.5,211.9063,133.5,201.9063,129.5,205.9063" style="stroke:#181818;stroke-width:1.0;"/><line style="stroke:#181818;stroke-width:1.0;" x1="129.5" x2="129.5" y1="245.875" y2="265.875"/><polygon fill="#181818" points="125.5,255.875,129.5,265.875,133.5,255.875,129.5,259.875" style="stroke:#181818;stroke-width:1.0;"/><!--SRC=[Aov9B2hXid9CIL5mhIWeIYqkpipFKoZ9LqXALSZC0uk59HPPGrJufPQZgV8lIorApCbHS4jCBh5660FKWce6H0UHnXINv1S00000]--></g></svg>