<svg xmlns="http://www.w3.org/2000/svg" xmlns:xlink="http://www.w3.org/1999/xlink" contentStyleType="text/css" height="507px" preserveAspectRatio="none" style="width:351px;height:507px;background:#FFFFFF;" version="1.1" viewBox="0 0 351 507" width="351px" zoomAndPan="magnify"><defs/><g><ellipse cx="160.239" cy="20" fill="#222222" rx="10" ry="10" style="stroke:#222222;stroke-width:1.0;"/><rect fill="#F1F1F1" height="33.9688" rx="12.5" ry="12.5" style="stroke:#181818;stroke-width:0.5;" width="89.0117" x="115.7332" y="98.4023"/><text fill="#000000" font-family="sans-serif" font-size="12" lengthAdjust="spacing" textLength="69.0117" x="125.7332" y="119.541">Return true</text><ellipse cx="160.239" cy="171.8867" fill="none" rx="11" ry="11" style="stroke:#222222;stroke-width:1.0;"/><ellipse cx="160.239" cy="171.8867" fill="#222222" rx="6" ry="6" style="stroke:#222222;stroke-width:1.0;"/><polygon fill="#F1F1F1" points="112.7988,50,207.6792,50,219.6792,62,207.6792,74,112.7988,74,100.7988,62,112.7988,50" style="stroke:#181818;stroke-width:0.5;"/><text fill="#000000" font-family="sans-serif" font-size="11" lengthAdjust="spacing" textLength="19.0083" x="164.239" y="84.2104">yes</text><text fill="#000000" font-family="sans-serif" font-size="11" font-style="italic" lengthAdjust="spacing" textLength="15.7695" x="112.7988" y="65.8081">sig</text><text fill="#000000" font-family="sans-serif" font-size="11" lengthAdjust="spacing" textLength="75.6143" x="132.0649" y="65.8081">has &gt; 0 fields</text><polygon fill="#F1F1F1" points="104.5059,268.8867,215.9722,268.8867,227.9722,280.8867,215.9722,292.8867,104.5059,292.8867,92.5059,280.8867,104.5059,268.8867" style="stroke:#181818;stroke-width:0.5;"/><text fill="#000000" font-family="sans-serif" font-size="11" font-style="italic" lengthAdjust="spacing" textLength="15.7695" x="104.5059" y="284.6948">sig</text><text fill="#000000" font-family="sans-serif" font-size="11" lengthAdjust="spacing" textLength="92.2002" x="123.772" y="284.6948">parent has fields</text><text fill="#000000" font-family="sans-serif" font-size="11" lengthAdjust="spacing" textLength="13.7017" x="227.9722" y="278.2925">no</text><rect fill="#F1F1F1" height="33.9688" rx="12.5" ry="12.5" style="stroke:#181818;stroke-width:0.5;" width="89.0117" x="38" y="302.8867"/><text fill="#000000" font-family="sans-serif" font-size="12" lengthAdjust="spacing" textLength="69.0117" x="48" y="324.0254">Return true</text><ellipse cx="82.5059" cy="367.8555" fill="none" rx="11" ry="11" style="stroke:#222222;stroke-width:1.0;"/><ellipse cx="82.5059" cy="367.8555" fill="#222222" rx="6" ry="6" style="stroke:#222222;stroke-width:1.0;"/><rect fill="#F1F1F1" height="33.9688" rx="12.5" ry="12.5" style="stroke:#181818;stroke-width:0.5;" width="146.2344" x="164.855" y="302.8867"/><text fill="#000000" font-family="sans-serif" font-size="12" lengthAdjust="spacing" textLength="45.9434" x="174.855" y="324.0254">Change</text><text fill="#000000" font-family="sans-serif" font-size="12" font-style="italic" lengthAdjust="spacing" textLength="17.2031" x="224.6128" y="324.0254">sig</text><text fill="#000000" font-family="sans-serif" font-size="12" lengthAdjust="spacing" textLength="55.459" x="245.6304" y="324.0254">to parent</text><polygon fill="#F1F1F1" points="115.8684,224.8867,204.6096,224.8867,216.6096,236.8867,204.6096,248.8867,115.8684,248.8867,103.8684,236.8867,115.8684,224.8867" style="stroke:#181818;stroke-width:0.5;"/><text fill="#000000" font-family="sans-serif" font-size="11" font-style="italic" lengthAdjust="spacing" textLength="15.7695" x="115.8684" y="240.6948">sig</text><text fill="#000000" font-family="sans-serif" font-size="11" lengthAdjust="spacing" textLength="69.4751" x="135.1345" y="240.6948">has a parent</text><rect fill="#F1F1F1" height="33.9688" rx="12.5" ry="12.5" style="stroke:#181818;stroke-width:0.5;" width="92.9316" x="113.7732" y="420.8555"/><text fill="#000000" font-family="sans-serif" font-size="12" lengthAdjust="spacing" textLength="72.9316" x="123.7732" y="441.9941">Return false</text><ellipse cx="160.239" cy="485.8242" fill="none" rx="11" ry="11" style="stroke:#222222;stroke-width:1.0;"/><ellipse cx="160.239" cy="485.8242" fill="#222222" rx="6" ry="6" style="stroke:#222222;stroke-width:1.0;"/><line style="stroke:#181818;stroke-width:1.0;" x1="160.239" x2="160.239" y1="132.3711" y2="160.8867"/><polygon fill="#181818" points="156.239,150.8867,160.239,160.8867,164.239,150.8867,160.239,154.8867" style="stroke:#181818;stroke-width:1.0;"/><line style="stroke:#181818;stroke-width:1.0;" x1="160.239" x2="160.239" y1="74" y2="98.4023"/><polygon fill="#181818" points="156.239,88.4023,160.239,98.4023,164.239,88.4023,160.239,92.4023" style="stroke:#181818;stroke-width:1.0;"/><line style="stroke:#181818;stroke-width:1.0;" x1="219.6792" x2="231.6792" y1="62" y2="62"/><polygon fill="#181818" points="227.6792,130.8867,231.6792,140.8867,235.6792,130.8867,231.6792,134.8867" style="stroke:#181818;stroke-width:1.0;"/><line style="stroke:#181818;stroke-width:1.0;" x1="231.6792" x2="231.6792" y1="62" y2="204.8867"/><line style="stroke:#181818;stroke-width:1.0;" x1="231.6792" x2="160.239" y1="204.8867" y2="204.8867"/><line style="stroke:#181818;stroke-width:1.0;" x1="160.239" x2="160.239" y1="204.8867" y2="224.8867"/><polygon fill="#181818" points="156.239,214.8867,160.239,224.8867,164.239,214.8867,160.239,218.8867" style="stroke:#181818;stroke-width:1.0;"/><line style="stroke:#181818;stroke-width:1.0;" x1="160.239" x2="160.239" y1="30" y2="50"/><polygon fill="#181818" points="156.239,40,160.239,50,164.239,40,160.239,44" style="stroke:#181818;stroke-width:1.0;"/><line style="stroke:#181818;stroke-width:1.0;" x1="82.5059" x2="82.5059" y1="336.8555" y2="356.8555"/><polygon fill="#181818" points="78.5059,346.8555,82.5059,356.8555,86.5059,346.8555,82.5059,350.8555" style="stroke:#181818;stroke-width:1.0;"/><line style="stroke:#181818;stroke-width:1.0;" x1="92.5059" x2="82.5059" y1="280.8867" y2="280.8867"/><line style="stroke:#181818;stroke-width:1.0;" x1="82.5059" x2="82.5059" y1="280.8867" y2="302.8867"/><polygon fill="#181818" points="78.5059,292.8867,82.5059,302.8867,86.5059,292.8867,82.5059,296.8867" style="stroke:#181818;stroke-width:1.0;"/><line style="stroke:#181818;stroke-width:1.0;" x1="227.9722" x2="237.9722" y1="280.8867" y2="280.8867"/><line style="stroke:#181818;stroke-width:1.0;" x1="237.9722" x2="237.9722" y1="280.8867" y2="302.8867"/><polygon fill="#181818" points="233.9722,292.8867,237.9722,302.8867,241.9722,292.8867,237.9722,296.8867" style="stroke:#181818;stroke-width:1.0;"/><line style="stroke:#181818;stroke-width:1.0;" x1="237.9722" x2="237.9722" y1="336.8555" y2="388.8555"/><line style="stroke:#181818;stroke-width:1.0;" x1="237.9722" x2="325.0894" y1="388.8555" y2="388.8555"/><polygon fill="#181818" points="321.0894,332.3711,325.0894,322.3711,329.0894,332.3711,325.0894,328.3711" style="stroke:#181818;stroke-width:1.0;"/><line style="stroke:#181818;stroke-width:1.0;" x1="325.0894" x2="325.0894" y1="236.8867" y2="388.8555"/><line style="stroke:#181818;stroke-width:1.0;" x1="325.0894" x2="216.6096" y1="236.8867" y2="236.8867"/><polygon fill="#181818" points="226.6096,232.8867,216.6096,236.8867,226.6096,240.8867,222.6096,236.8867" style="stroke:#181818;stroke-width:1.0;"/><line style="stroke:#181818;stroke-width:1.0;" x1="160.239" x2="160.239" y1="248.8867" y2="268.8867"/><polygon fill="#181818" points="156.239,258.8867,160.239,268.8867,164.239,258.8867,160.239,262.8867" style="stroke:#181818;stroke-width:1.0;"/><line style="stroke:#181818;stroke-width:1.0;" x1="103.8684" x2="24" y1="236.8867" y2="236.8867"/><polygon fill="#181818" points="20,318.3711,24,328.3711,28,318.3711,24,322.3711" style="stroke:#181818;stroke-width:1.0;"/><line style="stroke:#181818;stroke-width:1.0;" x1="24" x2="24" y1="236.8867" y2="400.8555"/><line style="stroke:#181818;stroke-width:1.0;" x1="24" x2="160.239" y1="400.8555" y2="400.8555"/><line style="stroke:#181818;stroke-width:1.0;" x1="160.239" x2="160.239" y1="400.8555" y2="420.8555"/><polygon fill="#181818" points="156.239,410.8555,160.239,420.8555,164.239,410.8555,160.239,414.8555" style="stroke:#181818;stroke-width:1.0;"/><line style="stroke:#181818;stroke-width:1.0;" x1="160.239" x2="160.239" y1="454.8242" y2="474.8242"/><polygon fill="#181818" points="156.239,464.8242,160.239,474.8242,164.239,464.8242,160.239,468.8242" style="stroke:#181818;stroke-width:1.0;"/><!--SRC=[NSun2iCm30NGsJg5HcTovmQwz0QzWI5oR31oi1HARr_NJg3jea7y_oHHNnLIiCv9Mft3w0LlUC6GA2yoeKPYj2-I2SprGRfNHgqxpM14omR4ImhmZ2dJZ-5nyvLOM-rB7xiUE0w0-MU7QoWBMIuzS8-ULy9JqN90BJtkjzbVWDCAljLd-51l]--></g></svg>