<?xml version="1.0" encoding="us-ascii" standalone="no"?><svg xmlns="http://www.w3.org/2000/svg" xmlns:xlink="http://www.w3.org/1999/xlink" contentStyleType="text/css" height="298px" preserveAspectRatio="none" style="width:244px;height:298px;background:#FFFFFF;" version="1.1" viewBox="0 0 244 298" width="244px" zoomAndPan="magnify"><defs/><g><ellipse cx="122" cy="20" fill="#222222" rx="10" ry="10" style="stroke:#222222;stroke-width:1.0;"/><rect fill="#F1F1F1" height="33.9688" rx="12.5" ry="12.5" style="stroke:#181818;stroke-width:0.5;" width="103" x="70.5" y="50"/><text fill="#000000" font-family="sans-serif" font-size="12" lengthAdjust="spacing" textLength="83" x="80.5" y="71.1387">Make ExprVar</text><rect fill="#F1F1F1" height="33.9688" rx="12.5" ry="12.5" style="stroke:#181818;stroke-width:0.5;" width="161" x="41.5" y="103.9688"/><text fill="#000000" font-family="sans-serif" font-size="12" lengthAdjust="spacing" textLength="141" x="51.5" y="125.1074">Create new Declaration</text><rect fill="#F1F1F1" height="33.9688" rx="12.5" ry="12.5" style="stroke:#181818;stroke-width:0.5;" width="127" x="58.5" y="157.9375"/><text fill="#000000" font-family="sans-serif" font-size="12" lengthAdjust="spacing" textLength="107" x="68.5" y="179.0762">Call isAfterSource</text><rect fill="#F1F1F1" height="33.9688" rx="12.5" ry="12.5" style="stroke:#181818;stroke-width:0.5;" width="222" x="11" y="211.9063"/><text fill="#000000" font-family="sans-serif" font-size="12" lengthAdjust="spacing" textLength="202" x="21" y="233.0449">Add isAfterSource to Overall Fact</text><ellipse cx="122" cy="276.875" fill="none" rx="11" ry="11" style="stroke:#222222;stroke-width:1.0;"/><ellipse cx="122" cy="276.875" fill="#222222" rx="6" ry="6" style="stroke:#222222;stroke-width:1.0;"/><line style="stroke:#181818;stroke-width:1.0;" x1="122" x2="122" y1="30" y2="50"/><polygon fill="#181818" points="118,40,122,50,126,40,122,44" style="stroke:#181818;stroke-width:1.0;"/><line style="stroke:#181818;stroke-width:1.0;" x1="122" x2="122" y1="83.9688" y2="103.9688"/><polygon fill="#181818" points="118,93.9688,122,103.9688,126,93.9688,122,97.9688" style="stroke:#181818;stroke-width:1.0;"/><line style="stroke:#181818;stroke-width:1.0;" x1="122" x2="122" y1="137.9375" y2="157.9375"/><polygon fill="#181818" points="118,147.9375,122,157.9375,126,147.9375,122,151.9375" style="stroke:#181818;stroke-width:1.0;"/><line style="stroke:#181818;stroke-width:1.0;" x1="122" x2="122" y1="191.9063" y2="211.9063"/><polygon fill="#181818" points="118,201.9063,122,211.9063,126,201.9063,122,205.9063" style="stroke:#181818;stroke-width:1.0;"/><line style="stroke:#181818;stroke-width:1.0;" x1="122" x2="122" y1="245.875" y2="265.875"/><polygon fill="#181818" points="118,255.875,122,265.875,126,255.875,122,259.875" style="stroke:#181818;stroke-width:1.0;"/><!--SRC=[LSgx3e0W343HdQ_eTy14V6p6mSIzWPeG2IMbFZvV7LtFlKrHrDW9TuBXhhAYE6Cx8LI2GXVq538AQkBo1SmPKlERaYnyIA0NVOn_0sMOJv9l7Z6eCqsvFW00]--></g></svg>