<?xml version="1.0" encoding="us-ascii" standalone="no"?><svg xmlns="http://www.w3.org/2000/svg" xmlns:xlink="http://www.w3.org/1999/xlink" contentStyleType="text/css" height="663px" preserveAspectRatio="none" style="width:310px;height:663px;background:#FFFFFF;" version="1.1" viewBox="0 0 310 663" width="310px" zoomAndPan="magnify"><defs/><g><ellipse cx="142.5" cy="20" fill="#222222" rx="10" ry="10" style="stroke:#222222;stroke-width:1.0;"/><rect fill="#F1F1F1" height="33.9688" rx="12.5" ry="12.5" style="stroke:#181818;stroke-width:0.5;" width="138" x="73.5" y="98.4023"/><text fill="#000000" font-family="sans-serif" font-size="12" lengthAdjust="spacing" textLength="118" x="83.5" y="119.541">Return Empty String</text><ellipse cx="142.5" cy="171.8867" fill="none" rx="11" ry="11" style="stroke:#222222;stroke-width:1.0;"/><ellipse cx="142.5" cy="171.8867" fill="#222222" rx="6" ry="6" style="stroke:#222222;stroke-width:1.0;"/><polygon fill="#F1F1F1" points="57.5,50,227.5,50,239.5,62,227.5,74,57.5,74,45.5,62,57.5,50" style="stroke:#181818;stroke-width:0.5;"/><text fill="#000000" font-family="sans-serif" font-size="11" lengthAdjust="spacing" textLength="21" x="146.5" y="84.2104">yes</text><text fill="#000000" font-family="sans-serif" font-size="11" font-style="italic" lengthAdjust="spacing" textLength="69" x="57.5" y="65.8081">ignoredExpr</text><text fill="#000000" font-family="sans-serif" font-size="11" lengthAdjust="spacing" textLength="97" x="130.5" y="65.8081">contains ExprCall</text><rect fill="#F1F1F1" height="33.9688" rx="12.5" ry="12.5" style="stroke:#181818;stroke-width:0.5;" width="148" x="68.5" y="224.8867"/><text fill="#000000" font-family="sans-serif" font-size="12" lengthAdjust="spacing" textLength="20" x="78.5" y="246.0254">Set</text><text fill="#000000" font-family="sans-serif" font-size="12" font-style="italic" lengthAdjust="spacing" textLength="55" x="102.5" y="246.0254">isRootSig</text><text fill="#000000" font-family="sans-serif" font-size="12" lengthAdjust="spacing" textLength="45" x="161.5" y="246.0254">to false</text><rect fill="#F1F1F1" height="33.9688" rx="12.5" ry="12.5" style="stroke:#181818;stroke-width:0.5;" width="141" x="72" y="322.8555"/><text fill="#000000" font-family="sans-serif" font-size="12" lengthAdjust="spacing" textLength="121" x="82" y="343.9941">Create StringBuilder</text><rect fill="#F1F1F1" height="61.9063" rx="12.5" ry="12.5" style="stroke:#181818;stroke-width:0.5;" width="263" x="11" y="376.8242"/><text fill="#000000" font-family="sans-serif" font-size="12" lengthAdjust="spacing" textLength="243" x="21" y="397.9629">Append Field Label With Slash Removed</text><text fill="#000000" font-family="sans-serif" font-size="12" lengthAdjust="spacing" textLength="198" x="21" y="411.9316">and Field Declaration Expression</text><text fill="#000000" font-family="sans-serif" font-size="12" lengthAdjust="spacing" textLength="93" x="21" y="425.9004">to StringBuilder</text><rect fill="#F1F1F1" height="33.9688" rx="12.5" ry="12.5" style="stroke:#181818;stroke-width:0.5;" width="190" x="47.5" y="458.7305"/><text fill="#000000" font-family="sans-serif" font-size="12" lengthAdjust="spacing" textLength="170" x="57.5" y="479.8691">Return StringBuilder toString</text><ellipse cx="142.5" cy="523.6992" fill="none" rx="11" ry="11" style="stroke:#222222;stroke-width:1.0;"/><ellipse cx="142.5" cy="523.6992" fill="#222222" rx="6" ry="6" style="stroke:#222222;stroke-width:1.0;"/><polygon fill="#F1F1F1" points="108,278.8555,177,278.8555,189,290.8555,177,302.8555,108,302.8555,96,290.8555,108,278.8555" style="stroke:#181818;stroke-width:0.5;"/><text fill="#000000" font-family="sans-serif" font-size="11" font-style="italic" lengthAdjust="spacing" textLength="69" x="108" y="294.6636">fieldAfterSig</text><rect fill="#F1F1F1" height="33.9688" rx="12.5" ry="12.5" style="stroke:#181818;stroke-width:0.5;" width="127" x="79" y="576.6992"/><text fill="#000000" font-family="sans-serif" font-size="12" lengthAdjust="spacing" textLength="107" x="89" y="597.8379">Return Field Label</text><ellipse cx="142.5" cy="641.668" fill="none" rx="11" ry="11" style="stroke:#222222;stroke-width:1.0;"/><ellipse cx="142.5" cy="641.668" fill="#222222" rx="6" ry="6" style="stroke:#222222;stroke-width:1.0;"/><line style="stroke:#181818;stroke-width:1.0;" x1="142.5" x2="142.5" y1="132.3711" y2="160.8867"/><polygon fill="#181818" points="138.5,150.8867,142.5,160.8867,146.5,150.8867,142.5,154.8867" style="stroke:#181818;stroke-width:1.0;"/><line style="stroke:#181818;stroke-width:1.0;" x1="142.5" x2="142.5" y1="74" y2="98.4023"/><polygon fill="#181818" points="138.5,88.4023,142.5,98.4023,146.5,88.4023,142.5,92.4023" style="stroke:#181818;stroke-width:1.0;"/><line style="stroke:#181818;stroke-width:1.0;" x1="239.5" x2="251.5" y1="62" y2="62"/><polygon fill="#181818" points="247.5,130.8867,251.5,140.8867,255.5,130.8867,251.5,134.8867" style="stroke:#181818;stroke-width:1.0;"/><line style="stroke:#181818;stroke-width:1.0;" x1="251.5" x2="251.5" y1="62" y2="204.8867"/><line style="stroke:#181818;stroke-width:1.0;" x1="251.5" x2="142.5" y1="204.8867" y2="204.8867"/><line style="stroke:#181818;stroke-width:1.0;" x1="142.5" x2="142.5" y1="204.8867" y2="224.8867"/><polygon fill="#181818" points="138.5,214.8867,142.5,224.8867,146.5,214.8867,142.5,218.8867" style="stroke:#181818;stroke-width:1.0;"/><line style="stroke:#181818;stroke-width:1.0;" x1="142.5" x2="142.5" y1="30" y2="50"/><polygon fill="#181818" points="138.5,40,142.5,50,146.5,40,142.5,44" style="stroke:#181818;stroke-width:1.0;"/><line style="stroke:#181818;stroke-width:1.0;" x1="142.5" x2="142.5" y1="356.8242" y2="376.8242"/><polygon fill="#181818" points="138.5,366.8242,142.5,376.8242,146.5,366.8242,142.5,370.8242" style="stroke:#181818;stroke-width:1.0;"/><line style="stroke:#181818;stroke-width:1.0;" x1="142.5" x2="142.5" y1="438.7305" y2="458.7305"/><polygon fill="#181818" points="138.5,448.7305,142.5,458.7305,146.5,448.7305,142.5,452.7305" style="stroke:#181818;stroke-width:1.0;"/><line style="stroke:#181818;stroke-width:1.0;" x1="142.5" x2="142.5" y1="492.6992" y2="512.6992"/><polygon fill="#181818" points="138.5,502.6992,142.5,512.6992,146.5,502.6992,142.5,506.6992" style="stroke:#181818;stroke-width:1.0;"/><line style="stroke:#181818;stroke-width:1.0;" x1="142.5" x2="142.5" y1="302.8555" y2="322.8555"/><polygon fill="#181818" points="138.5,312.8555,142.5,322.8555,146.5,312.8555,142.5,316.8555" style="stroke:#181818;stroke-width:1.0;"/><line style="stroke:#181818;stroke-width:1.0;" x1="189" x2="284" y1="290.8555" y2="290.8555"/><polygon fill="#181818" points="280,423.2773,284,433.2773,288,423.2773,284,427.2773" style="stroke:#181818;stroke-width:1.0;"/><line style="stroke:#181818;stroke-width:1.0;" x1="284" x2="284" y1="290.8555" y2="556.6992"/><line style="stroke:#181818;stroke-width:1.0;" x1="284" x2="142.5" y1="556.6992" y2="556.6992"/><line style="stroke:#181818;stroke-width:1.0;" x1="142.5" x2="142.5" y1="556.6992" y2="576.6992"/><polygon fill="#181818" points="138.5,566.6992,142.5,576.6992,146.5,566.6992,142.5,570.6992" style="stroke:#181818;stroke-width:1.0;"/><line style="stroke:#181818;stroke-width:1.0;" x1="142.5" x2="142.5" y1="258.8555" y2="278.8555"/><polygon fill="#181818" points="138.5,268.8555,142.5,278.8555,146.5,268.8555,142.5,272.8555" style="stroke:#181818;stroke-width:1.0;"/><line style="stroke:#181818;stroke-width:1.0;" x1="142.5" x2="142.5" y1="610.668" y2="630.668"/><polygon fill="#181818" points="138.5,620.668,142.5,630.668,146.5,620.668,142.5,624.668" style="stroke:#181818;stroke-width:1.0;"/><!--SRC=[ROynRy9038Nt-nKUOSgUJ9J2n9GCp6xEbrWwxawsGUNVzmWHebKts-_fUyzgAEOuR9g6fvI5_E6xIDF0c9CX9uN7liSOjs0p9TZSIRUkxSckak1mANQ7mOJJr3crN1mbpy6r0nbKflOvsy1J9Lg6W56fUyO5fkXtmKWMkJBtGcYqqZwk73r9vzfTAPK9nuSVJlX54SviCmmHTOQUBlb6tk7ByabZH47Zd9Rof5f7L-F_ajSdVfrhpV_UMQrl9Pxw3m00]--></g></svg>