<?xml version="1.0" encoding="us-ascii" standalone="no"?><svg xmlns="http://www.w3.org/2000/svg" xmlns:xlink="http://www.w3.org/1999/xlink" contentStyleType="text/css" height="848px" preserveAspectRatio="none" style="width:303px;height:848px;background:#FFFFFF;" version="1.1" viewBox="0 0 303 848" width="303px" zoomAndPan="magnify"><defs/><g><ellipse cx="148" cy="20" fill="#222222" rx="10" ry="10" style="stroke:#222222;stroke-width:1.0;"/><rect fill="#F1F1F1" height="33.9688" rx="12.5" ry="12.5" style="stroke:#181818;stroke-width:0.5;" width="138" x="79" y="98.4023"/><text fill="#000000" font-family="sans-serif" font-size="12" lengthAdjust="spacing" textLength="118" x="89" y="119.541">Return Empty String</text><ellipse cx="148" cy="171.8867" fill="none" rx="11" ry="11" style="stroke:#222222;stroke-width:1.0;"/><ellipse cx="148" cy="171.8867" fill="#222222" rx="6" ry="6" style="stroke:#222222;stroke-width:1.0;"/><polygon fill="#F1F1F1" points="63,50,233,50,245,62,233,74,63,74,51,62,63,50" style="stroke:#181818;stroke-width:0.5;"/><text fill="#000000" font-family="sans-serif" font-size="11" lengthAdjust="spacing" textLength="21" x="152" y="84.2104">yes</text><text fill="#000000" font-family="sans-serif" font-size="11" font-style="italic" lengthAdjust="spacing" textLength="69" x="63" y="65.8081">ignoredExpr</text><text fill="#000000" font-family="sans-serif" font-size="11" lengthAdjust="spacing" textLength="97" x="136" y="65.8081">contains ExprCall</text><rect fill="#F1F1F1" height="33.9688" rx="12.5" ry="12.5" style="stroke:#181818;stroke-width:0.5;" width="149" x="73.5" y="224.8867"/><text fill="#000000" font-family="sans-serif" font-size="12" lengthAdjust="spacing" textLength="129" x="83.5" y="246.0254">Set isRootSig to false</text><rect fill="#F1F1F1" height="33.9688" rx="12.5" ry="12.5" style="stroke:#181818;stroke-width:0.5;" width="147" x="74.5" y="278.8555"/><text fill="#000000" font-family="sans-serif" font-size="12" lengthAdjust="spacing" textLength="127" x="84.5" y="299.9941">Get Name of ExprCall</text><rect fill="#F1F1F1" height="33.9688" rx="12.5" ry="12.5" style="stroke:#181818;stroke-width:0.5;" width="274" x="11" y="332.8242"/><text fill="#000000" font-family="sans-serif" font-size="12" lengthAdjust="spacing" textLength="254" x="21" y="353.9629">Create String Array from ExprCall Arg Size</text><rect fill="#F1F1F1" height="33.9688" rx="12.5" ry="12.5" style="stroke:#181818;stroke-width:0.5;" width="160" x="68" y="430.793"/><text fill="#000000" font-family="sans-serif" font-size="12" lengthAdjust="spacing" textLength="140" x="78" y="451.9316">Add Arg to String Array</text><polygon fill="#F1F1F1" points="69.5,386.793,226.5,386.793,238.5,398.793,226.5,410.793,69.5,410.793,57.5,398.793,69.5,386.793" style="stroke:#181818;stroke-width:0.5;"/><text fill="#000000" font-family="sans-serif" font-size="11" lengthAdjust="spacing" textLength="157" x="69.5" y="402.6011">For each Arg in String Array</text><rect fill="#F1F1F1" height="33.9688" rx="12.5" ry="12.5" style="stroke:#181818;stroke-width:0.5;" width="141" x="77.5" y="506.7617"/><text fill="#000000" font-family="sans-serif" font-size="12" lengthAdjust="spacing" textLength="121" x="87.5" y="527.9004">Create StringBuilder</text><rect fill="#F1F1F1" height="33.9688" rx="12.5" ry="12.5" style="stroke:#181818;stroke-width:0.5;" width="254" x="21" y="560.7305"/><text fill="#000000" font-family="sans-serif" font-size="12" lengthAdjust="spacing" textLength="234" x="31" y="581.8691">Append ExprCall Name to StringBuilder</text><rect fill="#F1F1F1" height="33.9688" rx="12.5" ry="12.5" style="stroke:#181818;stroke-width:0.5;" width="239" x="28.5" y="663.1016"/><text fill="#000000" font-family="sans-serif" font-size="12" lengthAdjust="spacing" textLength="219" x="38.5" y="684.2402">Append String Array to StringBuilder</text><polygon fill="#F1F1F1" points="98.5,614.6992,197.5,614.6992,209.5,626.6992,197.5,638.6992,98.5,638.6992,86.5,626.6992,98.5,614.6992" style="stroke:#181818;stroke-width:0.5;"/><text fill="#000000" font-family="sans-serif" font-size="11" lengthAdjust="spacing" textLength="21" x="152" y="648.9097">yes</text><text fill="#000000" font-family="sans-serif" font-size="11" lengthAdjust="spacing" textLength="99" x="98.5" y="630.5073">ExprCall has Args</text><polygon fill="#F1F1F1" points="148,717.0703,160,729.0703,148,741.0703,136,729.0703,148,717.0703" style="stroke:#181818;stroke-width:0.5;"/><rect fill="#F1F1F1" height="33.9688" rx="12.5" ry="12.5" style="stroke:#181818;stroke-width:0.5;" width="190" x="53" y="761.0703"/><text fill="#000000" font-family="sans-serif" font-size="12" lengthAdjust="spacing" textLength="170" x="63" y="782.209">Return StringBuilder toString</text><ellipse cx="148" cy="826.0391" fill="none" rx="11" ry="11" style="stroke:#222222;stroke-width:1.0;"/><ellipse cx="148" cy="826.0391" fill="#222222" rx="6" ry="6" style="stroke:#222222;stroke-width:1.0;"/><line style="stroke:#181818;stroke-width:1.0;" x1="148" x2="148" y1="132.3711" y2="160.8867"/><polygon fill="#181818" points="144,150.8867,148,160.8867,152,150.8867,148,154.8867" style="stroke:#181818;stroke-width:1.0;"/><line style="stroke:#181818;stroke-width:1.0;" x1="148" x2="148" y1="74" y2="98.4023"/><polygon fill="#181818" points="144,88.4023,148,98.4023,152,88.4023,148,92.4023" style="stroke:#181818;stroke-width:1.0;"/><line style="stroke:#181818;stroke-width:1.0;" x1="245" x2="257" y1="62" y2="62"/><polygon fill="#181818" points="253,130.8867,257,140.8867,261,130.8867,257,134.8867" style="stroke:#181818;stroke-width:1.0;"/><line style="stroke:#181818;stroke-width:1.0;" x1="257" x2="257" y1="62" y2="204.8867"/><line style="stroke:#181818;stroke-width:1.0;" x1="257" x2="148" y1="204.8867" y2="204.8867"/><line style="stroke:#181818;stroke-width:1.0;" x1="148" x2="148" y1="204.8867" y2="224.8867"/><polygon fill="#181818" points="144,214.8867,148,224.8867,152,214.8867,148,218.8867" style="stroke:#181818;stroke-width:1.0;"/><line style="stroke:#181818;stroke-width:1.0;" x1="148" x2="148" y1="30" y2="50"/><polygon fill="#181818" points="144,40,148,50,152,40,148,44" style="stroke:#181818;stroke-width:1.0;"/><line style="stroke:#181818;stroke-width:1.0;" x1="148" x2="148" y1="258.8555" y2="278.8555"/><polygon fill="#181818" points="144,268.8555,148,278.8555,152,268.8555,148,272.8555" style="stroke:#181818;stroke-width:1.0;"/><line style="stroke:#181818;stroke-width:1.0;" x1="148" x2="148" y1="312.8242" y2="332.8242"/><polygon fill="#181818" points="144,322.8242,148,332.8242,152,322.8242,148,326.8242" style="stroke:#181818;stroke-width:1.0;"/><line style="stroke:#181818;stroke-width:1.0;" x1="148" x2="148" y1="410.793" y2="430.793"/><polygon fill="#181818" points="144,420.793,148,430.793,152,420.793,148,424.793" style="stroke:#181818;stroke-width:1.0;"/><line style="stroke:#181818;stroke-width:1.0;" x1="148" x2="148" y1="464.7617" y2="474.7617"/><line style="stroke:#181818;stroke-width:1.0;" x1="148" x2="250.5" y1="474.7617" y2="474.7617"/><polygon fill="#181818" points="246.5,445.7773,250.5,435.7773,254.5,445.7773,250.5,441.7773" style="stroke:#181818;stroke-width:1.0;"/><line style="stroke:#181818;stroke-width:1.0;" x1="250.5" x2="250.5" y1="398.793" y2="474.7617"/><line style="stroke:#181818;stroke-width:1.0;" x1="250.5" x2="238.5" y1="398.793" y2="398.793"/><polygon fill="#181818" points="248.5,394.793,238.5,398.793,248.5,402.793,244.5,398.793" style="stroke:#181818;stroke-width:1.0;"/><line style="stroke:#181818;stroke-width:1.0;" x1="57.5" x2="45.5" y1="398.793" y2="398.793"/><polygon fill="#181818" points="41.5,431.7773,45.5,441.7773,49.5,431.7773,45.5,435.7773" style="stroke:#181818;stroke-width:1.0;"/><line style="stroke:#181818;stroke-width:1.0;" x1="45.5" x2="45.5" y1="398.793" y2="486.7617"/><line style="stroke:#181818;stroke-width:1.0;" x1="45.5" x2="148" y1="486.7617" y2="486.7617"/><line style="stroke:#181818;stroke-width:1.0;" x1="148" x2="148" y1="486.7617" y2="506.7617"/><polygon fill="#181818" points="144,496.7617,148,506.7617,152,496.7617,148,500.7617" style="stroke:#181818;stroke-width:1.0;"/><line style="stroke:#181818;stroke-width:1.0;" x1="148" x2="148" y1="366.793" y2="386.793"/><polygon fill="#181818" points="144,376.793,148,386.793,152,376.793,148,380.793" style="stroke:#181818;stroke-width:1.0;"/><line style="stroke:#181818;stroke-width:1.0;" x1="148" x2="148" y1="540.7305" y2="560.7305"/><polygon fill="#181818" points="144,550.7305,148,560.7305,152,550.7305,148,554.7305" style="stroke:#181818;stroke-width:1.0;"/><line style="stroke:#181818;stroke-width:1.0;" x1="148" x2="148" y1="638.6992" y2="663.1016"/><polygon fill="#181818" points="144,653.1016,148,663.1016,152,653.1016,148,657.1016" style="stroke:#181818;stroke-width:1.0;"/><line style="stroke:#181818;stroke-width:1.0;" x1="209.5" x2="277.5" y1="626.6992" y2="626.6992"/><polygon fill="#181818" points="273.5,670.0859,277.5,680.0859,281.5,670.0859,277.5,674.0859" style="stroke:#181818;stroke-width:1.0;"/><line style="stroke:#181818;stroke-width:1.0;" x1="277.5" x2="277.5" y1="626.6992" y2="729.0703"/><line style="stroke:#181818;stroke-width:1.0;" x1="277.5" x2="160" y1="729.0703" y2="729.0703"/><polygon fill="#181818" points="170,725.0703,160,729.0703,170,733.0703,166,729.0703" style="stroke:#181818;stroke-width:1.0;"/><line style="stroke:#181818;stroke-width:1.0;" x1="148" x2="148" y1="697.0703" y2="717.0703"/><polygon fill="#181818" points="144,707.0703,148,717.0703,152,707.0703,148,711.0703" style="stroke:#181818;stroke-width:1.0;"/><line style="stroke:#181818;stroke-width:1.0;" x1="148" x2="148" y1="594.6992" y2="614.6992"/><polygon fill="#181818" points="144,604.6992,148,614.6992,152,604.6992,148,608.6992" style="stroke:#181818;stroke-width:1.0;"/><line style="stroke:#181818;stroke-width:1.0;" x1="148" x2="148" y1="741.0703" y2="761.0703"/><polygon fill="#181818" points="144,751.0703,148,761.0703,152,751.0703,148,755.0703" style="stroke:#181818;stroke-width:1.0;"/><line style="stroke:#181818;stroke-width:1.0;" x1="148" x2="148" y1="795.0391" y2="815.0391"/><polygon fill="#181818" points="144,805.0391,148,815.0391,152,805.0391,148,809.0391" style="stroke:#181818;stroke-width:1.0;"/><!--SRC=[PP2nZeCm44HxVyMMfAA7YaIvwwu8Ns35QrZ9s6YzKOxx-Ym8-S9TQS_upNYoM1P3lgfh6c9YTDVlcUiQxYcAfPXXFLzi22UG4IDK2-QJQMue3uvmdMPPe1UcEBGcIveDHaVUD3qAKBwb93qD80cy3HbRqtogy6KdXEGBMwylZ5PmHq77R1VmdARYqRi1UlfHndEaWDL7Oa1x7pU1uk6fDkoSsnIDVbVQjU06-9DvVb1mo5gbcsVr_0PlRGkc-7IqOXbjNiFoSQGTTFZJVyu-sBxeGLJt-xOl]--></g></svg>