<svg xmlns="http://www.w3.org/2000/svg" xmlns:xlink="http://www.w3.org/1999/xlink" contentStyleType="text/css" height="870px" preserveAspectRatio="none" style="width:394px;height:870px;background:#FFFFFF;" version="1.1" viewBox="0 0 394 870" width="394px" zoomAndPan="magnify"><defs/><g><ellipse cx="184.749" cy="20" fill="#222222" rx="10" ry="10" style="stroke:#222222;stroke-width:1.0;"/><rect fill="#F1F1F1" height="33.9688" rx="12.5" ry="12.5" style="stroke:#181818;stroke-width:0.5;" width="147.623" x="110.9375" y="50"/><text fill="#000000" font-family="sans-serif" font-size="12" lengthAdjust="spacing" textLength="19.7051" x="120.9375" y="71.1387">Set</text><text fill="#000000" font-family="sans-serif" font-size="12" font-style="italic" lengthAdjust="spacing" textLength="55.8809" x="144.457" y="71.1387">isRootSig</text><text fill="#000000" font-family="sans-serif" font-size="12" lengthAdjust="spacing" textLength="44.4082" x="204.1523" y="71.1387">to false</text><rect fill="#F1F1F1" height="33.9688" rx="12.5" ry="12.5" style="stroke:#181818;stroke-width:0.5;" width="177.875" x="95.8115" y="103.9688"/><text fill="#000000" font-family="sans-serif" font-size="12" lengthAdjust="spacing" textLength="140.1914" x="105.8115" y="125.1074">Construct StringBuilder</text><text fill="#000000" font-family="sans-serif" font-size="12" font-style="italic" lengthAdjust="spacing" textLength="13.8691" x="249.8174" y="125.1074">sb</text><rect fill="#F1F1F1" height="33.9688" rx="12.5" ry="12.5" style="stroke:#181818;stroke-width:0.5;" width="216.9453" x="76.2764" y="206.3398"/><text fill="#000000" font-family="sans-serif" font-size="12" lengthAdjust="spacing" textLength="19.7051" x="86.2764" y="227.4785">Set</text><text fill="#000000" font-family="sans-serif" font-size="12" font-style="italic" lengthAdjust="spacing" textLength="19.6465" x="109.7959" y="227.4785">left</text><text fill="#000000" font-family="sans-serif" font-size="12" lengthAdjust="spacing" textLength="149.9648" x="133.2568" y="227.4785">String to left side of Expr</text><rect fill="#F1F1F1" height="33.9688" rx="12.5" ry="12.5" style="stroke:#181818;stroke-width:0.5;" width="234.043" x="67.7275" y="260.3086"/><text fill="#000000" font-family="sans-serif" font-size="12" lengthAdjust="spacing" textLength="19.7051" x="77.7275" y="281.4473">Set</text><text fill="#000000" font-family="sans-serif" font-size="12" font-style="italic" lengthAdjust="spacing" textLength="28.1953" x="101.2471" y="281.4473">right</text><text fill="#000000" font-family="sans-serif" font-size="12" lengthAdjust="spacing" textLength="158.5137" x="133.2568" y="281.4473">String to right side of Expr</text><rect fill="#F1F1F1" height="33.9688" rx="12.5" ry="12.5" style="stroke:#181818;stroke-width:0.5;" width="92.5801" x="138.459" y="358.2773"/><text fill="#000000" font-family="sans-serif" font-size="12" lengthAdjust="spacing" textLength="40.5703" x="148.459" y="379.416">Return</text><text fill="#000000" font-family="sans-serif" font-size="12" font-style="italic" lengthAdjust="spacing" textLength="28.1953" x="192.8438" y="379.416">right</text><ellipse cx="184.749" cy="431.7617" fill="none" rx="11" ry="11" style="stroke:#222222;stroke-width:1.0;"/><ellipse cx="184.749" cy="431.7617" fill="#222222" rx="6" ry="6" style="stroke:#222222;stroke-width:1.0;"/><polygon fill="#F1F1F1" points="58.4236,314.2773,311.0745,314.2773,323.0745,326.2773,311.0745,338.2773,58.4236,338.2773,46.4236,326.2773,58.4236,314.2773" style="stroke:#181818;stroke-width:0.5;"/><text fill="#000000" font-family="sans-serif" font-size="11" font-style="italic" lengthAdjust="spacing" textLength="18.0093" x="58.4236" y="330.0854">left</text><text fill="#000000" font-family="sans-serif" font-size="11" lengthAdjust="spacing" textLength="102.9907" x="79.9294" y="330.0854">String is "this" and</text><text fill="#000000" font-family="sans-serif" font-size="11" font-style="italic" lengthAdjust="spacing" textLength="25.8457" x="186.4167" y="330.0854">right</text><text fill="#000000" font-family="sans-serif" font-size="11" lengthAdjust="spacing" textLength="95.3154" x="215.759" y="330.0854">String is Sig.Field</text><rect fill="#F1F1F1" height="33.9688" rx="12.5" ry="12.5" style="stroke:#181818;stroke-width:0.5;" width="347.498" x="11" y="484.7617"/><text fill="#000000" font-family="sans-serif" font-size="12" lengthAdjust="spacing" textLength="40.5703" x="21" y="505.9004">Return</text><text fill="#000000" font-family="sans-serif" font-size="12" font-style="italic" lengthAdjust="spacing" textLength="13.8691" x="65.3848" y="505.9004">sb</text><text fill="#000000" font-family="sans-serif" font-size="12" lengthAdjust="spacing" textLength="89.4668" x="83.0684" y="505.9004">appended with</text><text fill="#000000" font-family="sans-serif" font-size="12" font-style="italic" lengthAdjust="spacing" textLength="19.6465" x="176.3496" y="505.9004">left</text><text fill="#000000" font-family="sans-serif" font-size="12" lengthAdjust="spacing" textLength="120.4922" x="195.9961" y="505.9004">, Expr operator, and</text><text fill="#000000" font-family="sans-serif" font-size="12" font-style="italic" lengthAdjust="spacing" textLength="28.1953" x="320.3027" y="505.9004">right</text><polygon fill="#F1F1F1" points="121.499,157.9375,247.999,157.9375,259.999,169.9375,247.999,181.9375,121.499,181.9375,109.499,169.9375,121.499,157.9375" style="stroke:#181818;stroke-width:0.5;"/><text fill="#000000" font-family="sans-serif" font-size="11" lengthAdjust="spacing" textLength="19.0083" x="188.749" y="192.1479">yes</text><text fill="#000000" font-family="sans-serif" font-size="11" lengthAdjust="spacing" textLength="126.5" x="121.499" y="173.7456">Expr Operator == JOIN</text><polygon fill="#F1F1F1" points="184.749,538.7305,196.749,550.7305,184.749,562.7305,172.749,550.7305,184.749,538.7305" style="stroke:#181818;stroke-width:0.5;"/><rect fill="#F1F1F1" height="33.9688" rx="12.5" ry="12.5" style="stroke:#181818;stroke-width:0.5;" width="200.4395" x="84.5293" y="582.7305"/><text fill="#000000" font-family="sans-serif" font-size="12" lengthAdjust="spacing" textLength="19.7051" x="94.5293" y="603.8691">Set</text><text fill="#000000" font-family="sans-serif" font-size="12" font-style="italic" lengthAdjust="spacing" textLength="14.959" x="118.0488" y="603.8691">op</text><text fill="#000000" font-family="sans-serif" font-size="12" lengthAdjust="spacing" textLength="138.1465" x="136.8223" y="603.8691">String to Expr operator</text><rect fill="#F1F1F1" height="33.9688" rx="12.5" ry="12.5" style="stroke:#181818;stroke-width:0.5;" width="98.0879" x="135.7051" y="685.1016"/><text fill="#000000" font-family="sans-serif" font-size="12" font-style="italic" lengthAdjust="spacing" textLength="14.959" x="145.7051" y="706.2402">op</text><text fill="#000000" font-family="sans-serif" font-size="12" lengthAdjust="spacing" textLength="59.3145" x="164.4785" y="706.2402">= "not in"</text><polygon fill="#F1F1F1" points="113.8613,636.6992,255.6367,636.6992,267.6367,648.6992,255.6367,660.6992,113.8613,660.6992,101.8613,648.6992,113.8613,636.6992" style="stroke:#181818;stroke-width:0.5;"/><text fill="#000000" font-family="sans-serif" font-size="11" lengthAdjust="spacing" textLength="19.0083" x="188.749" y="670.9097">yes</text><text fill="#000000" font-family="sans-serif" font-size="11" lengthAdjust="spacing" textLength="141.7754" x="113.8613" y="652.5073">Expr operator == NOT_IN</text><polygon fill="#F1F1F1" points="184.749,739.0703,196.749,751.0703,184.749,763.0703,172.749,751.0703,184.749,739.0703" style="stroke:#181818;stroke-width:0.5;"/><rect fill="#F1F1F1" height="33.9688" rx="12.5" ry="12.5" style="stroke:#181818;stroke-width:0.5;" width="279.7988" x="44.8496" y="783.0703"/><text fill="#000000" font-family="sans-serif" font-size="12" lengthAdjust="spacing" textLength="40.5703" x="54.8496" y="804.209">Return</text><text fill="#000000" font-family="sans-serif" font-size="12" font-style="italic" lengthAdjust="spacing" textLength="13.8691" x="99.2344" y="804.209">sb</text><text fill="#000000" font-family="sans-serif" font-size="12" lengthAdjust="spacing" textLength="89.4668" x="116.918" y="804.209">appended with</text><text fill="#000000" font-family="sans-serif" font-size="12" font-style="italic" lengthAdjust="spacing" textLength="19.6465" x="210.1992" y="804.209">left</text><text fill="#000000" font-family="sans-serif" font-size="12" lengthAdjust="spacing" textLength="3.8145" x="229.8457" y="804.209">,</text><text fill="#000000" font-family="sans-serif" font-size="12" font-style="italic" lengthAdjust="spacing" textLength="14.959" x="237.4746" y="804.209">op</text><text fill="#000000" font-family="sans-serif" font-size="12" lengthAdjust="spacing" textLength="30.2051" x="252.4336" y="804.209">, and</text><text fill="#000000" font-family="sans-serif" font-size="12" font-style="italic" lengthAdjust="spacing" textLength="28.1953" x="286.4531" y="804.209">right</text><ellipse cx="184.749" cy="848.0391" fill="none" rx="11" ry="11" style="stroke:#222222;stroke-width:1.0;"/><ellipse cx="184.749" cy="848.0391" fill="#222222" rx="6" ry="6" style="stroke:#222222;stroke-width:1.0;"/><line style="stroke:#181818;stroke-width:1.0;" x1="184.749" x2="184.749" y1="30" y2="50"/><polygon fill="#181818" points="180.749,40,184.749,50,188.749,40,184.749,44" style="stroke:#181818;stroke-width:1.0;"/><line style="stroke:#181818;stroke-width:1.0;" x1="184.749" x2="184.749" y1="83.9688" y2="103.9688"/><polygon fill="#181818" points="180.749,93.9688,184.749,103.9688,188.749,93.9688,184.749,97.9688" style="stroke:#181818;stroke-width:1.0;"/><line style="stroke:#181818;stroke-width:1.0;" x1="184.749" x2="184.749" y1="240.3086" y2="260.3086"/><polygon fill="#181818" points="180.749,250.3086,184.749,260.3086,188.749,250.3086,184.749,254.3086" style="stroke:#181818;stroke-width:1.0;"/><line style="stroke:#181818;stroke-width:1.0;" x1="184.749" x2="184.749" y1="392.2461" y2="420.7617"/><polygon fill="#181818" points="180.749,410.7617,184.749,420.7617,188.749,410.7617,184.749,414.7617" style="stroke:#181818;stroke-width:1.0;"/><line style="stroke:#181818;stroke-width:1.0;" x1="184.749" x2="184.749" y1="338.2773" y2="358.2773"/><polygon fill="#181818" points="180.749,348.2773,184.749,358.2773,188.749,348.2773,184.749,352.2773" style="stroke:#181818;stroke-width:1.0;"/><line style="stroke:#181818;stroke-width:1.0;" x1="323.0745" x2="335.0745" y1="326.2773" y2="326.2773"/><polygon fill="#181818" points="331.0745,390.7617,335.0745,400.7617,339.0745,390.7617,335.0745,394.7617" style="stroke:#181818;stroke-width:1.0;"/><line style="stroke:#181818;stroke-width:1.0;" x1="335.0745" x2="335.0745" y1="326.2773" y2="464.7617"/><line style="stroke:#181818;stroke-width:1.0;" x1="335.0745" x2="184.749" y1="464.7617" y2="464.7617"/><line style="stroke:#181818;stroke-width:1.0;" x1="184.749" x2="184.749" y1="464.7617" y2="484.7617"/><polygon fill="#181818" points="180.749,474.7617,184.749,484.7617,188.749,474.7617,184.749,478.7617" style="stroke:#181818;stroke-width:1.0;"/><line style="stroke:#181818;stroke-width:1.0;" x1="184.749" x2="184.749" y1="294.2773" y2="314.2773"/><polygon fill="#181818" points="180.749,304.2773,184.749,314.2773,188.749,304.2773,184.749,308.2773" style="stroke:#181818;stroke-width:1.0;"/><line style="stroke:#181818;stroke-width:1.0;" x1="184.749" x2="184.749" y1="181.9375" y2="206.3398"/><polygon fill="#181818" points="180.749,196.3398,184.749,206.3398,188.749,196.3398,184.749,200.3398" style="stroke:#181818;stroke-width:1.0;"/><line style="stroke:#181818;stroke-width:1.0;" x1="259.999" x2="368.498" y1="169.9375" y2="169.9375"/><polygon fill="#181818" points="364.498,350.2773,368.498,360.2773,372.498,350.2773,368.498,354.2773" style="stroke:#181818;stroke-width:1.0;"/><line style="stroke:#181818;stroke-width:1.0;" x1="368.498" x2="368.498" y1="169.9375" y2="550.7305"/><line style="stroke:#181818;stroke-width:1.0;" x1="368.498" x2="196.749" y1="550.7305" y2="550.7305"/><polygon fill="#181818" points="206.749,546.7305,196.749,550.7305,206.749,554.7305,202.749,550.7305" style="stroke:#181818;stroke-width:1.0;"/><line style="stroke:#181818;stroke-width:1.0;" x1="184.749" x2="184.749" y1="518.7305" y2="538.7305"/><polygon fill="#181818" points="180.749,528.7305,184.749,538.7305,188.749,528.7305,184.749,532.7305" style="stroke:#181818;stroke-width:1.0;"/><line style="stroke:#181818;stroke-width:1.0;" x1="184.749" x2="184.749" y1="137.9375" y2="157.9375"/><polygon fill="#181818" points="180.749,147.9375,184.749,157.9375,188.749,147.9375,184.749,151.9375" style="stroke:#181818;stroke-width:1.0;"/><line style="stroke:#181818;stroke-width:1.0;" x1="184.749" x2="184.749" y1="562.7305" y2="582.7305"/><polygon fill="#181818" points="180.749,572.7305,184.749,582.7305,188.749,572.7305,184.749,576.7305" style="stroke:#181818;stroke-width:1.0;"/><line style="stroke:#181818;stroke-width:1.0;" x1="184.749" x2="184.749" y1="660.6992" y2="685.1016"/><polygon fill="#181818" points="180.749,675.1016,184.749,685.1016,188.749,675.1016,184.749,679.1016" style="stroke:#181818;stroke-width:1.0;"/><line style="stroke:#181818;stroke-width:1.0;" x1="267.6367" x2="279.6367" y1="648.6992" y2="648.6992"/><polygon fill="#181818" points="275.6367,692.0859,279.6367,702.0859,283.6367,692.0859,279.6367,696.0859" style="stroke:#181818;stroke-width:1.0;"/><line style="stroke:#181818;stroke-width:1.0;" x1="279.6367" x2="279.6367" y1="648.6992" y2="751.0703"/><line style="stroke:#181818;stroke-width:1.0;" x1="279.6367" x2="196.749" y1="751.0703" y2="751.0703"/><polygon fill="#181818" points="206.749,747.0703,196.749,751.0703,206.749,755.0703,202.749,751.0703" style="stroke:#181818;stroke-width:1.0;"/><line style="stroke:#181818;stroke-width:1.0;" x1="184.749" x2="184.749" y1="719.0703" y2="739.0703"/><polygon fill="#181818" points="180.749,729.0703,184.749,739.0703,188.749,729.0703,184.749,733.0703" style="stroke:#181818;stroke-width:1.0;"/><line style="stroke:#181818;stroke-width:1.0;" x1="184.749" x2="184.749" y1="616.6992" y2="636.6992"/><polygon fill="#181818" points="180.749,626.6992,184.749,636.6992,188.749,626.6992,184.749,630.6992" style="stroke:#181818;stroke-width:1.0;"/><line style="stroke:#181818;stroke-width:1.0;" x1="184.749" x2="184.749" y1="763.0703" y2="783.0703"/><polygon fill="#181818" points="180.749,773.0703,184.749,783.0703,188.749,773.0703,184.749,777.0703" style="stroke:#181818;stroke-width:1.0;"/><line style="stroke:#181818;stroke-width:1.0;" x1="184.749" x2="184.749" y1="817.0391" y2="837.0391"/><polygon fill="#181818" points="180.749,827.0391,184.749,837.0391,188.749,827.0391,184.749,831.0391" style="stroke:#181818;stroke-width:1.0;"/><!--SRC=[ZP11QuGm48NFvbSCdbnOchlYfQM5zh32sdknpKG790d9o6x_VPDLR5qllSwy-Twy5xZpBCeM6QIaSBQMM-gb1BQWkp5W9SedQmBxwOkXPK-cVvneLEZZGVYKiXAaeNY-EW-DGz-nzL3NyDQydWx00neelZ4SHBQOZAWvycTKiaa32AGGh8R4gLQjftxOYc-JUpNfufvB0N8UAEJG6RKdnNMC-V12EAhuMbQUaITlVeMHcWMsJcHe56dnHv52G-TSNA222_6mfZhUFWAxz73ScbTYPYtXhDiasrocKelD97LwQju_Tgqke1foOnd8vAlD_pwUxtUlfl0_]--></g></svg>