<?xml version="1.0" encoding="us-ascii" standalone="no"?><svg xmlns="http://www.w3.org/2000/svg" xmlns:xlink="http://www.w3.org/1999/xlink" contentStyleType="text/css" height="298px" preserveAspectRatio="none" style="width:234px;height:298px;background:#FFFFFF;" version="1.1" viewBox="0 0 234 298" width="234px" zoomAndPan="magnify"><defs/><g><ellipse cx="117" cy="20" fill="#222222" rx="10" ry="10" style="stroke:#222222;stroke-width:1.0;"/><rect fill="#F1F1F1" height="33.9688" rx="12.5" ry="12.5" style="stroke:#181818;stroke-width:0.5;" width="194" x="20" y="50"/><text fill="#000000" font-family="sans-serif" font-size="12" lengthAdjust="spacing" textLength="174" x="30" y="71.1387">Get HappensBefore Function</text><rect fill="#F1F1F1" height="33.9688" rx="12.5" ry="12.5" style="stroke:#181818;stroke-width:0.5;" width="141" x="46.5" y="103.9688"/><text fill="#000000" font-family="sans-serif" font-size="12" lengthAdjust="spacing" textLength="121" x="56.5" y="125.1074">Get FunctionFiltered</text><rect fill="#F1F1F1" height="33.9688" rx="12.5" ry="12.5" style="stroke:#181818;stroke-width:0.5;" width="212" x="11" y="157.9375"/><text fill="#000000" font-family="sans-serif" font-size="12" lengthAdjust="spacing" textLength="192" x="21" y="179.0762">Call FunctionFiltered Expression</text><rect fill="#F1F1F1" height="33.9688" rx="12.5" ry="12.5" style="stroke:#181818;stroke-width:0.5;" width="129" x="52.5" y="211.9063"/><text fill="#000000" font-family="sans-serif" font-size="12" lengthAdjust="spacing" textLength="109" x="62.5" y="233.0449">Return Expression</text><ellipse cx="117" cy="276.875" fill="none" rx="11" ry="11" style="stroke:#222222;stroke-width:1.0;"/><ellipse cx="117" cy="276.875" fill="#222222" rx="6" ry="6" style="stroke:#222222;stroke-width:1.0;"/><line style="stroke:#181818;stroke-width:1.0;" x1="117" x2="117" y1="30" y2="50"/><polygon fill="#181818" points="113,40,117,50,121,40,117,44" style="stroke:#181818;stroke-width:1.0;"/><line style="stroke:#181818;stroke-width:1.0;" x1="117" x2="117" y1="83.9688" y2="103.9688"/><polygon fill="#181818" points="113,93.9688,117,103.9688,121,93.9688,117,97.9688" style="stroke:#181818;stroke-width:1.0;"/><line style="stroke:#181818;stroke-width:1.0;" x1="117" x2="117" y1="137.9375" y2="157.9375"/><polygon fill="#181818" points="113,147.9375,117,157.9375,121,147.9375,117,151.9375" style="stroke:#181818;stroke-width:1.0;"/><line style="stroke:#181818;stroke-width:1.0;" x1="117" x2="117" y1="191.9063" y2="211.9063"/><polygon fill="#181818" points="113,201.9063,117,211.9063,121,201.9063,117,205.9063" style="stroke:#181818;stroke-width:1.0;"/><line style="stroke:#181818;stroke-width:1.0;" x1="117" x2="117" y1="245.875" y2="265.875"/><polygon fill="#181818" points="113,255.875,117,265.875,121,255.875,117,259.875" style="stroke:#181818;stroke-width:1.0;"/><!--SRC=[Aov9B2hXid9FBL7mI2meICqhTafDoozALN0hpKikoSpFiuP8mhXkcJabgKMfAK1XvyIS70nn1TUAWgBKucA8pg3KajAYF1InufBy0W00]--></g></svg>