<?xml version="1.0" encoding="us-ascii" standalone="no"?><svg xmlns="http://www.w3.org/2000/svg" xmlns:xlink="http://www.w3.org/1999/xlink" contentStyleType="text/css" height="204px" preserveAspectRatio="none" style="width:180px;height:204px;background:#FFFFFF;" version="1.1" viewBox="0 0 180 204" width="180px" zoomAndPan="magnify"><defs/><g><ellipse cx="90" cy="20" fill="#222222" rx="10" ry="10" style="stroke:#222222;stroke-width:1.0;"/><rect fill="#F1F1F1" height="47.9375" rx="12.5" ry="12.5" style="stroke:#181818;stroke-width:0.5;" width="158" x="11" y="50"/><text fill="#000000" font-family="sans-serif" font-size="12" lengthAdjust="spacing" textLength="138" x="21" y="71.1387">Add original and toAdd</text><text fill="#000000" font-family="sans-serif" font-size="12" lengthAdjust="spacing" textLength="120" x="21" y="85.1074">using AND Operator</text><rect fill="#F1F1F1" height="33.9688" rx="12.5" ry="12.5" style="stroke:#181818;stroke-width:0.5;" width="129" x="25.5" y="117.9375"/><text fill="#000000" font-family="sans-serif" font-size="12" lengthAdjust="spacing" textLength="109" x="35.5" y="139.0762">Return Expression</text><ellipse cx="90" cy="182.9063" fill="none" rx="11" ry="11" style="stroke:#222222;stroke-width:1.0;"/><ellipse cx="90" cy="182.9063" fill="#222222" rx="6" ry="6" style="stroke:#222222;stroke-width:1.0;"/><line style="stroke:#181818;stroke-width:1.0;" x1="90" x2="90" y1="30" y2="50"/><polygon fill="#181818" points="86,40,90,50,94,40,90,44" style="stroke:#181818;stroke-width:1.0;"/><line style="stroke:#181818;stroke-width:1.0;" x1="90" x2="90" y1="97.9375" y2="117.9375"/><polygon fill="#181818" points="86,107.9375,90,117.9375,94,107.9375,90,111.9375" style="stroke:#181818;stroke-width:1.0;"/><line style="stroke:#181818;stroke-width:1.0;" x1="90" x2="90" y1="151.9063" y2="171.9063"/><polygon fill="#181818" points="86,161.9063,90,171.9063,94,161.9063,90,165.9063" style="stroke:#181818;stroke-width:1.0;"/><!--SRC=[5SWn2i0m2030tLVuZcGAj6iB_O6G48IWeWRw_D8RBv8yeRJUKPqd2oqawPZw5-nWcTYk0syRJgbUeJmZjmkUh_c8O9KAaMeV]--></g></svg>