<?xml version="1.0" encoding="us-ascii" standalone="no"?><svg xmlns="http://www.w3.org/2000/svg" xmlns:xlink="http://www.w3.org/1999/xlink" contentStyleType="text/css" height="489px" preserveAspectRatio="none" style="width:399px;height:489px;background:#FFFFFF;" version="1.1" viewBox="0 0 399 489" width="399px" zoomAndPan="magnify"><defs/><g><ellipse cx="143.5" cy="20" fill="#222222" rx="10" ry="10" style="stroke:#222222;stroke-width:1.0;"/><rect fill="#F1F1F1" height="33.9688" rx="12.5" ry="12.5" style="stroke:#181818;stroke-width:0.5;" width="265" x="11" y="84.2036"/><text fill="#000000" font-family="sans-serif" font-size="12" lengthAdjust="spacing" textLength="245" x="21" y="105.3423">Create Function Filtered with Joined Expr</text><rect fill="#F1F1F1" height="33.9688" rx="12.5" ry="12.5" style="stroke:#181818;stroke-width:0.5;" width="213" x="37" y="172.376"/><text fill="#000000" font-family="sans-serif" font-size="12" lengthAdjust="spacing" textLength="193" x="47" y="193.5146">Create Inverse Function Filtered</text><rect fill="#F1F1F1" height="33.9688" rx="12.5" ry="12.5" style="stroke:#181818;stroke-width:0.5;" width="164" x="61.5" y="260.5483"/><text fill="#000000" font-family="sans-serif" font-size="12" lengthAdjust="spacing" textLength="144" x="71.5" y="281.687">Create Function Filtered</text><rect fill="#F1F1F1" height="33.9688" rx="12.5" ry="12.5" style="stroke:#181818;stroke-width:0.5;" width="213" x="37" y="348.7207"/><text fill="#000000" font-family="sans-serif" font-size="12" lengthAdjust="spacing" textLength="193" x="47" y="369.8594">Create Inverse Function Filtered</text><rect fill="#F1F1F1" height="33.9688" rx="12.5" ry="12.5" style="stroke:#181818;stroke-width:0.5;" width="131" x="78" y="402.6895"/><text fill="#000000" font-family="sans-serif" font-size="12" lengthAdjust="spacing" textLength="111" x="88" y="423.8281">Add Expr together</text><ellipse cx="143.5" cy="467.6582" fill="none" rx="11" ry="11" style="stroke:#222222;stroke-width:1.0;"/><ellipse cx="143.5" cy="467.6582" fill="#222222" rx="6" ry="6" style="stroke:#222222;stroke-width:1.0;"/><line style="stroke:#181818;stroke-width:1.0;" x1="143.5" x2="143.5" y1="30" y2="84.2036"/><polygon fill="#181818" points="139.5,74.2036,143.5,84.2036,147.5,74.2036,143.5,78.2036" style="stroke:#181818;stroke-width:1.0;"/><text fill="#000000" font-family="sans-serif" font-size="11" lengthAdjust="spacing" textLength="103" x="147.5" y="51.3047">_mainSig.join(_p1)</text><text fill="#000000" font-family="sans-serif" font-size="11" lengthAdjust="spacing" textLength="103" x="147.5" y="64.1094">_mainSig.join(_p2)</text><line style="stroke:#181818;stroke-width:1.0;" x1="143.5" x2="143.5" y1="118.1724" y2="172.376"/><polygon fill="#181818" points="139.5,162.376,143.5,172.376,147.5,162.376,143.5,166.376" style="stroke:#181818;stroke-width:1.0;"/><text fill="#000000" font-family="sans-serif" font-size="11" lengthAdjust="spacing" textLength="240" x="147.5" y="139.4771">_mainSig.join(_p1).plus(_mainSig.join(_p2))</text><text fill="#000000" font-family="sans-serif" font-size="11" lengthAdjust="spacing" textLength="103" x="147.5" y="152.2817">_mainSig.join(_p2)</text><line style="stroke:#181818;stroke-width:1.0;" x1="143.5" x2="143.5" y1="206.3447" y2="260.5483"/><polygon fill="#181818" points="139.5,250.5483,143.5,260.5483,147.5,250.5483,143.5,254.5483" style="stroke:#181818;stroke-width:1.0;"/><text fill="#000000" font-family="sans-serif" font-size="11" lengthAdjust="spacing" textLength="103" x="147.5" y="227.6494">_mainSig.join(_p2)</text><text fill="#000000" font-family="sans-serif" font-size="11" lengthAdjust="spacing" textLength="240" x="147.5" y="240.4541">_mainSig.join(_p2).plus(_mainSig.join(_p3))</text><line style="stroke:#181818;stroke-width:1.0;" x1="143.5" x2="143.5" y1="294.5171" y2="348.7207"/><polygon fill="#181818" points="139.5,338.7207,143.5,348.7207,147.5,338.7207,143.5,342.7207" style="stroke:#181818;stroke-width:1.0;"/><text fill="#000000" font-family="sans-serif" font-size="11" lengthAdjust="spacing" textLength="103" x="147.5" y="315.8218">_mainSig.join(_p2)</text><text fill="#000000" font-family="sans-serif" font-size="11" lengthAdjust="spacing" textLength="107" x="147.5" y="328.6265">_mainSig.join(_p3))</text><line style="stroke:#181818;stroke-width:1.0;" x1="143.5" x2="143.5" y1="382.6895" y2="402.6895"/><polygon fill="#181818" points="139.5,392.6895,143.5,402.6895,147.5,392.6895,143.5,396.6895" style="stroke:#181818;stroke-width:1.0;"/><line style="stroke:#181818;stroke-width:1.0;" x1="143.5" x2="143.5" y1="436.6582" y2="456.6582"/><polygon fill="#181818" points="139.5,446.6582,143.5,456.6582,147.5,446.6582,143.5,450.6582" style="stroke:#181818;stroke-width:1.0;"/><!--SRC=[Aov9B2hXqhMBpqtCp0lEJDVBoi_CquWlCDJaGXSoqhJcid8kIaqiILLmAyrBBidCprDmoymfIIrAJL4epop9KF02gWIoNIiAYgon6gfNa5DQh85fCdxRFFFAKekAiTYApH8ZR6PXjzTO4v-NY3GSnH0yBhLoJ864Z499VdfgIKOgC8YAI_8B0000]--></g></svg>