<?xml version="1.0" encoding="us-ascii" standalone="no"?><svg xmlns="http://www.w3.org/2000/svg" xmlns:xlink="http://www.w3.org/1999/xlink" contentStyleType="text/css" height="244px" preserveAspectRatio="none" style="width:159px;height:244px;background:#FFFFFF;" version="1.1" viewBox="0 0 159 244" width="159px" zoomAndPan="magnify"><defs/><g><ellipse cx="79.5" cy="20" fill="#222222" rx="10" ry="10" style="stroke:#222222;stroke-width:1.0;"/><rect fill="#F1F1F1" height="33.9688" rx="12.5" ry="12.5" style="stroke:#181818;stroke-width:0.5;" width="137" x="11" y="50"/><text fill="#000000" font-family="sans-serif" font-size="12" lengthAdjust="spacing" textLength="117" x="21" y="71.1387">Add Steps in Fields</text><rect fill="#F1F1F1" height="33.9688" rx="12.5" ry="12.5" style="stroke:#181818;stroke-width:0.5;" width="130" x="14.5" y="103.9688"/><text fill="#000000" font-family="sans-serif" font-size="12" lengthAdjust="spacing" textLength="110" x="24.5" y="125.1074">Add Fields in Step</text><rect fill="#F1F1F1" height="33.9688" rx="12.5" ry="12.5" style="stroke:#181818;stroke-width:0.5;" width="131" x="14" y="157.9375"/><text fill="#000000" font-family="sans-serif" font-size="12" lengthAdjust="spacing" textLength="111" x="24" y="179.0762">Add to Expression</text><ellipse cx="79.5" cy="222.9063" fill="none" rx="11" ry="11" style="stroke:#222222;stroke-width:1.0;"/><ellipse cx="79.5" cy="222.9063" fill="#222222" rx="6" ry="6" style="stroke:#222222;stroke-width:1.0;"/><line style="stroke:#181818;stroke-width:1.0;" x1="79.5" x2="79.5" y1="30" y2="50"/><polygon fill="#181818" points="75.5,40,79.5,50,83.5,40,79.5,44" style="stroke:#181818;stroke-width:1.0;"/><line style="stroke:#181818;stroke-width:1.0;" x1="79.5" x2="79.5" y1="83.9688" y2="103.9688"/><polygon fill="#181818" points="75.5,93.9688,79.5,103.9688,83.5,93.9688,79.5,97.9688" style="stroke:#181818;stroke-width:1.0;"/><line style="stroke:#181818;stroke-width:1.0;" x1="79.5" x2="79.5" y1="137.9375" y2="157.9375"/><polygon fill="#181818" points="75.5,147.9375,79.5,157.9375,83.5,147.9375,79.5,151.9375" style="stroke:#181818;stroke-width:1.0;"/><line style="stroke:#181818;stroke-width:1.0;" x1="79.5" x2="79.5" y1="191.9063" y2="211.9063"/><polygon fill="#181818" points="75.5,201.9063,79.5,211.9063,83.5,201.9063,79.5,205.9063" style="stroke:#181818;stroke-width:1.0;"/><!--SRC=[Aov9B2hXid9CIL48BaajA5R8p5DmoqpDIIcsXeX2E21Xa3nKi2HVmRMYe2Yrk3WpFy-QgxWalm00]--></g></svg>