<?xml version="1.0" encoding="us-ascii" standalone="no"?><svg xmlns="http://www.w3.org/2000/svg" xmlns:xlink="http://www.w3.org/1999/xlink" contentStyleType="text/css" height="204px" preserveAspectRatio="none" style="width:196px;height:204px;background:#FFFFFF;" version="1.1" viewBox="0 0 196 204" width="196px" zoomAndPan="magnify"><defs/><g><ellipse cx="98" cy="20" fill="#222222" rx="10" ry="10" style="stroke:#222222;stroke-width:1.0;"/><rect fill="#F1F1F1" height="47.9375" rx="12.5" ry="12.5" style="stroke:#181818;stroke-width:0.5;" width="174" x="11" y="50"/><text fill="#000000" font-family="sans-serif" font-size="12" lengthAdjust="spacing" textLength="154" x="21" y="71.1387">Add Tricky Field in format</text><text fill="#000000" font-family="sans-serif" font-size="12" lengthAdjust="spacing" textLength="128" x="21" y="85.1074">(API to AlloyAnalyzer)</text><rect fill="#F1F1F1" height="33.9688" rx="12.5" ry="12.5" style="stroke:#181818;stroke-width:0.5;" width="91" x="52.5" y="117.9375"/><text fill="#000000" font-family="sans-serif" font-size="12" lengthAdjust="spacing" textLength="71" x="62.5" y="139.0762">Return Field</text><ellipse cx="98" cy="182.9063" fill="none" rx="11" ry="11" style="stroke:#222222;stroke-width:1.0;"/><ellipse cx="98" cy="182.9063" fill="#222222" rx="6" ry="6" style="stroke:#222222;stroke-width:1.0;"/><line style="stroke:#181818;stroke-width:1.0;" x1="98" x2="98" y1="30" y2="50"/><polygon fill="#181818" points="94,40,98,50,102,40,98,44" style="stroke:#181818;stroke-width:1.0;"/><line style="stroke:#181818;stroke-width:1.0;" x1="98" x2="98" y1="97.9375" y2="117.9375"/><polygon fill="#181818" points="94,107.9375,98,117.9375,102,107.9375,98,111.9375" style="stroke:#181818;stroke-width:1.0;"/><line style="stroke:#181818;stroke-width:1.0;" x1="98" x2="98" y1="151.9063" y2="171.9063"/><polygon fill="#181818" points="94,161.9063,98,171.9063,102,161.9063,98,165.9063" style="stroke:#181818;stroke-width:1.0;"/><!--SRC=[Aov9B2hXid9CIL48ASfCpgvKSCjCpKbHoCnJICiloaqiuT9m3F1KACbNSCp9oQzqp4lCgQnABTAqvh8AIYqfBSg3gBVcAYx9Bm00]--></g></svg>