<?xml version="1.0" encoding="us-ascii" standalone="no"?><svg xmlns="http://www.w3.org/2000/svg" xmlns:xlink="http://www.w3.org/1999/xlink" contentStyleType="text/css" height="229px" preserveAspectRatio="none" style="width:357px;height:229px;background:#FFFFFF;" version="1.1" viewBox="0 0 357 229" width="357px" zoomAndPan="magnify"><defs/><g><ellipse cx="182" cy="20" fill="#222222" rx="10" ry="10" style="stroke:#222222;stroke-width:1.0;"/><rect fill="#F1F1F1" height="33.9688" rx="12.5" ry="12.5" style="stroke:#181818;stroke-width:0.5;" width="143" x="110.5" y="50"/><text fill="#000000" font-family="sans-serif" font-size="12" lengthAdjust="spacing" textLength="123" x="120.5" y="71.1387">Create Expression e</text><rect fill="#F1F1F1" height="47.9375" rx="12.5" ry="12.5" style="stroke:#181818;stroke-width:0.5;" width="274" x="45" y="147.9688"/><text fill="#000000" font-family="sans-serif" font-size="12" lengthAdjust="spacing" textLength="254" x="55" y="169.1074">Add Current Expression with Expression e</text><text fill="#000000" font-family="sans-serif" font-size="12" lengthAdjust="spacing" textLength="120" x="55" y="183.0762">using AND Operator</text><polygon fill="#F1F1F1" points="106.5,103.9688,257.5,103.9688,269.5,115.9688,257.5,127.9688,106.5,127.9688,94.5,115.9688,106.5,103.9688" style="stroke:#181818;stroke-width:0.5;"/><text fill="#000000" font-family="sans-serif" font-size="11" lengthAdjust="spacing" textLength="151" x="106.5" y="119.7769">For Size of Expression List</text><ellipse cx="24" cy="158.9688" fill="none" rx="11" ry="11" style="stroke:#222222;stroke-width:1.0;"/><ellipse cx="24" cy="158.9688" fill="#222222" rx="6" ry="6" style="stroke:#222222;stroke-width:1.0;"/><line style="stroke:#181818;stroke-width:1.0;" x1="182" x2="182" y1="30" y2="50"/><polygon fill="#181818" points="178,40,182,50,186,40,182,44" style="stroke:#181818;stroke-width:1.0;"/><line style="stroke:#181818;stroke-width:1.0;" x1="182" x2="182" y1="127.9688" y2="147.9688"/><polygon fill="#181818" points="178,137.9688,182,147.9688,186,137.9688,182,141.9688" style="stroke:#181818;stroke-width:1.0;"/><line style="stroke:#181818;stroke-width:1.0;" x1="182" x2="182" y1="195.9063" y2="205.9063"/><line style="stroke:#181818;stroke-width:1.0;" x1="182" x2="331" y1="205.9063" y2="205.9063"/><polygon fill="#181818" points="327,169.9375,331,159.9375,335,169.9375,331,165.9375" style="stroke:#181818;stroke-width:1.0;"/><line style="stroke:#181818;stroke-width:1.0;" x1="331" x2="331" y1="115.9688" y2="205.9063"/><line style="stroke:#181818;stroke-width:1.0;" x1="331" x2="269.5" y1="115.9688" y2="115.9688"/><polygon fill="#181818" points="279.5,111.9688,269.5,115.9688,279.5,119.9688,275.5,115.9688" style="stroke:#181818;stroke-width:1.0;"/><line style="stroke:#181818;stroke-width:1.0;" x1="94.5" x2="24" y1="115.9688" y2="115.9688"/><line style="stroke:#181818;stroke-width:1.0;" x1="24" x2="24" y1="115.9688" y2="147.9688"/><polygon fill="#181818" points="20,137.9688,24,147.9688,28,137.9688,24,141.9688" style="stroke:#181818;stroke-width:1.0;"/><line style="stroke:#181818;stroke-width:1.0;" x1="182" x2="182" y1="83.9688" y2="103.9688"/><polygon fill="#181818" points="178,93.9688,182,103.9688,186,93.9688,182,97.9688" style="stroke:#181818;stroke-width:1.0;"/><!--SRC=[LSqn2iCm34RXNQVGs5uXdaBQJ24PUWA3_pQ2OXb98IMdBtHAvm_UyyWMr0s67E3xfndSHIiZqRxA6vTHZHzoWFLvzaayhecwlXGUDZFKEFCkiVxbc3QN-k9-ll7IO3dK4g6MtuKyj7q1]--></g></svg>