<?xml version="1.0" encoding="us-ascii" standalone="no"?><svg xmlns="http://www.w3.org/2000/svg" xmlns:xlink="http://www.w3.org/1999/xlink" contentStyleType="text/css" height="244px" preserveAspectRatio="none" style="width:267px;height:244px;background:#FFFFFF;" version="1.1" viewBox="0 0 267 244" width="267px" zoomAndPan="magnify"><defs/><g><ellipse cx="133.5" cy="20" fill="#222222" rx="10" ry="10" style="stroke:#222222;stroke-width:1.0;"/><rect fill="#F1F1F1" height="33.9688" rx="12.5" ry="12.5" style="stroke:#181818;stroke-width:0.5;" width="228" x="19.5" y="50"/><text fill="#000000" font-family="sans-serif" font-size="12" lengthAdjust="spacing" textLength="208" x="29.5" y="71.1387">Get nonZeroDurationOnly Function</text><rect fill="#F1F1F1" height="33.9688" rx="12.5" ry="12.5" style="stroke:#181818;stroke-width:0.5;" width="245" x="11" y="103.9688"/><text fill="#000000" font-family="sans-serif" font-size="12" lengthAdjust="spacing" textLength="225" x="21" y="125.1074">Call nonZeroDurationOnly Expression</text><rect fill="#F1F1F1" height="33.9688" rx="12.5" ry="12.5" style="stroke:#181818;stroke-width:0.5;" width="129" x="69" y="157.9375"/><text fill="#000000" font-family="sans-serif" font-size="12" lengthAdjust="spacing" textLength="109" x="79" y="179.0762">Return Expression</text><ellipse cx="133.5" cy="222.9063" fill="none" rx="11" ry="11" style="stroke:#222222;stroke-width:1.0;"/><ellipse cx="133.5" cy="222.9063" fill="#222222" rx="6" ry="6" style="stroke:#222222;stroke-width:1.0;"/><line style="stroke:#181818;stroke-width:1.0;" x1="133.5" x2="133.5" y1="30" y2="50"/><polygon fill="#181818" points="129.5,40,133.5,50,137.5,40,133.5,44" style="stroke:#181818;stroke-width:1.0;"/><line style="stroke:#181818;stroke-width:1.0;" x1="133.5" x2="133.5" y1="83.9688" y2="103.9688"/><polygon fill="#181818" points="129.5,93.9688,133.5,103.9688,137.5,93.9688,133.5,97.9688" style="stroke:#181818;stroke-width:1.0;"/><line style="stroke:#181818;stroke-width:1.0;" x1="133.5" x2="133.5" y1="137.9375" y2="157.9375"/><polygon fill="#181818" points="129.5,147.9375,133.5,157.9375,137.5,147.9375,133.5,151.9375" style="stroke:#181818;stroke-width:1.0;"/><line style="stroke:#181818;stroke-width:1.0;" x1="133.5" x2="133.5" y1="191.9063" y2="211.9063"/><polygon fill="#181818" points="129.5,201.9063,133.5,211.9063,137.5,201.9063,133.5,205.9063" style="stroke:#181818;stroke-width:1.0;"/><!--SRC=[Aov9B2hXid9FBL78oy-BIYtAToajIYp9pC_ppykfL70hpKi6SQovh9mJStAmgd6jA2XABIw6g0fABIajoaCHAox9Bm00]--></g></svg>