<?xml version="1.0" encoding="us-ascii" standalone="no"?><svg xmlns="http://www.w3.org/2000/svg" xmlns:xlink="http://www.w3.org/1999/xlink" contentStyleType="text/css" height="495px" preserveAspectRatio="none" style="width:275px;height:495px;background:#FFFFFF;" version="1.1" viewBox="0 0 275 495" width="275px" zoomAndPan="magnify"><defs/><g><ellipse cx="136.5" cy="20" fill="#222222" rx="10" ry="10" style="stroke:#222222;stroke-width:1.0;"/><rect fill="#F1F1F1" height="33.9688" rx="12.5" ry="12.5" style="stroke:#181818;stroke-width:0.5;" width="193" x="40" y="50"/><text fill="#000000" font-family="sans-serif" font-size="12" lengthAdjust="spacing" textLength="130" x="50" y="71.1387">Create Node HashSet</text><text fill="#000000" font-family="sans-serif" font-size="12" font-style="italic" lengthAdjust="spacing" textLength="39" x="184" y="71.1387">visited</text><rect fill="#F1F1F1" height="33.9688" rx="12.5" ry="12.5" style="stroke:#181818;stroke-width:0.5;" width="182" x="45.5" y="103.9688"/><text fill="#000000" font-family="sans-serif" font-size="12" lengthAdjust="spacing" textLength="146" x="55.5" y="125.1074">Create IObject HashMap</text><text fill="#000000" font-family="sans-serif" font-size="12" font-style="italic" lengthAdjust="spacing" textLength="12" x="205.5" y="125.1074">fn</text><rect fill="#F1F1F1" height="33.9688" rx="12.5" ry="12.5" style="stroke:#181818;stroke-width:0.5;" width="169" x="52" y="157.9375"/><text fill="#000000" font-family="sans-serif" font-size="12" lengthAdjust="spacing" textLength="130" x="62" y="179.0762">Create Optional Node</text><text fill="#000000" font-family="sans-serif" font-size="12" font-style="italic" lengthAdjust="spacing" textLength="15" x="196" y="179.0762">op</text><rect fill="#F1F1F1" height="47.9375" rx="12.5" ry="12.5" style="stroke:#181818;stroke-width:0.5;" width="181" x="46" y="255.9063"/><text fill="#000000" font-family="sans-serif" font-size="12" lengthAdjust="spacing" textLength="42" x="56" y="277.0449">Search</text><text fill="#000000" font-family="sans-serif" font-size="12" font-style="italic" lengthAdjust="spacing" textLength="36" x="102" y="277.0449">graph</text><text fill="#000000" font-family="sans-serif" font-size="12" lengthAdjust="spacing" textLength="75" x="142" y="277.0449">for Happens</text><text fill="#000000" font-family="sans-serif" font-size="12" lengthAdjust="spacing" textLength="144" x="56" y="291.0137">Before Inverse Function</text><rect fill="#F1F1F1" height="33.9688" rx="12.5" ry="12.5" style="stroke:#181818;stroke-width:0.5;" width="201" x="36" y="332.3594"/><text fill="#000000" font-family="sans-serif" font-size="12" lengthAdjust="spacing" textLength="20" x="46" y="353.498">Set</text><text fill="#000000" font-family="sans-serif" font-size="12" font-style="italic" lengthAdjust="spacing" textLength="15" x="70" y="353.498">op</text><text fill="#000000" font-family="sans-serif" font-size="12" lengthAdjust="spacing" textLength="56" x="89" y="353.498">to visited</text><text fill="#000000" font-family="sans-serif" font-size="12" font-style="italic" lengthAdjust="spacing" textLength="36" x="149" y="353.498">graph</text><text fill="#000000" font-family="sans-serif" font-size="12" lengthAdjust="spacing" textLength="38" x="189" y="353.498">nodes</text><polygon fill="#F1F1F1" points="93,211.9063,180,211.9063,192,223.9063,180,235.9063,93,235.9063,81,223.9063,93,211.9063" style="stroke:#181818;stroke-width:0.5;"/><text fill="#000000" font-family="sans-serif" font-size="11" font-style="italic" lengthAdjust="spacing" textLength="14" x="93" y="227.7144">op</text><text fill="#000000" font-family="sans-serif" font-size="11" lengthAdjust="spacing" textLength="69" x="111" y="227.7144">Has a Value</text><rect fill="#F1F1F1" height="33.9688" rx="12.5" ry="12.5" style="stroke:#181818;stroke-width:0.5;" width="74" x="99.5" y="408.3281"/><text fill="#000000" font-family="sans-serif" font-size="12" lengthAdjust="spacing" textLength="38" x="109.5" y="429.4668">Return</text><text fill="#000000" font-family="sans-serif" font-size="12" font-style="italic" lengthAdjust="spacing" textLength="12" x="151.5" y="429.4668">fn</text><ellipse cx="136.5" cy="473.2969" fill="none" rx="11" ry="11" style="stroke:#222222;stroke-width:1.0;"/><ellipse cx="136.5" cy="473.2969" fill="#222222" rx="6" ry="6" style="stroke:#222222;stroke-width:1.0;"/><line style="stroke:#181818;stroke-width:1.0;" x1="136.5" x2="136.5" y1="30" y2="50"/><polygon fill="#181818" points="132.5,40,136.5,50,140.5,40,136.5,44" style="stroke:#181818;stroke-width:1.0;"/><line style="stroke:#181818;stroke-width:1.0;" x1="136.5" x2="136.5" y1="83.9688" y2="103.9688"/><polygon fill="#181818" points="132.5,93.9688,136.5,103.9688,140.5,93.9688,136.5,97.9688" style="stroke:#181818;stroke-width:1.0;"/><line style="stroke:#181818;stroke-width:1.0;" x1="136.5" x2="136.5" y1="137.9375" y2="157.9375"/><polygon fill="#181818" points="132.5,147.9375,136.5,157.9375,140.5,147.9375,136.5,151.9375" style="stroke:#181818;stroke-width:1.0;"/><line style="stroke:#181818;stroke-width:1.0;" x1="136.5" x2="136.5" y1="303.8438" y2="332.3594"/><polygon fill="#181818" points="132.5,322.3594,136.5,332.3594,140.5,322.3594,136.5,326.3594" style="stroke:#181818;stroke-width:1.0;"/><line style="stroke:#181818;stroke-width:1.0;" x1="136.5" x2="136.5" y1="235.9063" y2="255.9063"/><polygon fill="#181818" points="132.5,245.9063,136.5,255.9063,140.5,245.9063,136.5,249.9063" style="stroke:#181818;stroke-width:1.0;"/><line style="stroke:#181818;stroke-width:1.0;" x1="136.5" x2="136.5" y1="366.3281" y2="376.3281"/><line style="stroke:#181818;stroke-width:1.0;" x1="136.5" x2="249" y1="376.3281" y2="376.3281"/><polygon fill="#181818" points="245,312.3594,249,302.3594,253,312.3594,249,308.3594" style="stroke:#181818;stroke-width:1.0;"/><line style="stroke:#181818;stroke-width:1.0;" x1="249" x2="249" y1="223.9063" y2="376.3281"/><line style="stroke:#181818;stroke-width:1.0;" x1="249" x2="192" y1="223.9063" y2="223.9063"/><polygon fill="#181818" points="202,219.9063,192,223.9063,202,227.9063,198,223.9063" style="stroke:#181818;stroke-width:1.0;"/><line style="stroke:#181818;stroke-width:1.0;" x1="81" x2="24" y1="223.9063" y2="223.9063"/><polygon fill="#181818" points="20,298.3594,24,308.3594,28,298.3594,24,302.3594" style="stroke:#181818;stroke-width:1.0;"/><line style="stroke:#181818;stroke-width:1.0;" x1="24" x2="24" y1="223.9063" y2="388.3281"/><line style="stroke:#181818;stroke-width:1.0;" x1="24" x2="136.5" y1="388.3281" y2="388.3281"/><line style="stroke:#181818;stroke-width:1.0;" x1="136.5" x2="136.5" y1="388.3281" y2="408.3281"/><polygon fill="#181818" points="132.5,398.3281,136.5,408.3281,140.5,398.3281,136.5,402.3281" style="stroke:#181818;stroke-width:1.0;"/><line style="stroke:#181818;stroke-width:1.0;" x1="136.5" x2="136.5" y1="191.9063" y2="211.9063"/><polygon fill="#181818" points="132.5,201.9063,136.5,211.9063,140.5,201.9063,136.5,205.9063" style="stroke:#181818;stroke-width:1.0;"/><line style="stroke:#181818;stroke-width:1.0;" x1="136.5" x2="136.5" y1="442.2969" y2="462.2969"/><polygon fill="#181818" points="132.5,452.2969,136.5,462.2969,140.5,452.2969,136.5,456.2969" style="stroke:#181818;stroke-width:1.0;"/><!--SRC=[JOu_3u8m4CNtVeeRTUeEcoP61oMHnFqiXwqXrwOzyElR0Y6CB-_t_YJ1AAewHq8XUFYEu8h9jYIWzUII4-gqhZVYrho_P6I6xXWorFFURu8uppWiLLhxKDoVTGCT5bMYWF32OQIZgbh2Q6mcFn63pNRlOqP284wWJfHbNkM9OYAuZ6nAVrroijQ3U5YVxceuxwTQ4NVpkAgU96FaxN0I7_u0]--></g></svg>