<?xml version="1.0" encoding="us-ascii" standalone="no"?><svg xmlns="http://www.w3.org/2000/svg" xmlns:xlink="http://www.w3.org/1999/xlink" contentStyleType="text/css" height="1349px" preserveAspectRatio="none" style="width:662px;height:1349px;background:#FFFFFF;" version="1.1" viewBox="0 0 662 1349" width="662px" zoomAndPan="magnify"><defs/><g><ellipse cx="341" cy="20" fill="#222222" rx="10" ry="10" style="stroke:#222222;stroke-width:1.0;"/><rect fill="#F1F1F1" height="33.9688" rx="12.5" ry="12.5" style="stroke:#181818;stroke-width:0.5;" width="186" x="248" y="50"/><text fill="#000000" font-family="sans-serif" font-size="12" lengthAdjust="spacing" textLength="146" x="258" y="71.1387">Create IObject HashMap</text><text fill="#000000" font-family="sans-serif" font-size="12" font-style="italic" lengthAdjust="spacing" textLength="16" x="408" y="71.1387">hb</text><polygon fill="#F1F1F1" points="88.5,103.9688,193.5,103.9688,205.5,115.9688,193.5,127.9688,88.5,127.9688,76.5,115.9688,88.5,103.9688" style="stroke:#181818;stroke-width:0.5;"/><text fill="#000000" font-family="sans-serif" font-size="11" lengthAdjust="spacing" textLength="21" x="145" y="138.1792">yes</text><text fill="#000000" font-family="sans-serif" font-size="11" font-style="italic" lengthAdjust="spacing" textLength="105" x="88.5" y="119.7769">leavingEdgeOneOf</text><rect fill="#F1F1F1" height="33.9688" rx="12.5" ry="12.5" style="stroke:#181818;stroke-width:0.5;" width="127" x="77.5" y="160.7734"/><text fill="#000000" font-family="sans-serif" font-size="12" lengthAdjust="spacing" textLength="91" x="87.5" y="181.9121">Create OListOR</text><text fill="#000000" font-family="sans-serif" font-size="12" font-style="italic" lengthAdjust="spacing" textLength="12" x="182.5" y="181.9121">or</text><rect fill="#F1F1F1" height="33.9688" rx="12.5" ry="12.5" style="stroke:#181818;stroke-width:0.5;" width="165" x="58.5" y="275.5469"/><text fill="#000000" font-family="sans-serif" font-size="12" lengthAdjust="spacing" textLength="145" x="68.5" y="296.6855">Get Edge's Target Node</text><rect fill="#F1F1F1" height="33.9688" rx="12.5" ry="12.5" style="stroke:#181818;stroke-width:0.5;" width="155" x="63.5" y="344.5156"/><text fill="#000000" font-family="sans-serif" font-size="12" lengthAdjust="spacing" textLength="119" x="73.5" y="365.6543">Add Target Node to</text><text fill="#000000" font-family="sans-serif" font-size="12" font-style="italic" lengthAdjust="spacing" textLength="12" x="196.5" y="365.6543">or</text><polygon fill="#F1F1F1" points="48,227.5469,234,227.5469,246,239.5469,234,251.5469,48,251.5469,36,239.5469,48,227.5469" style="stroke:#181818;stroke-width:0.5;"/><text fill="#000000" font-family="sans-serif" font-size="11" lengthAdjust="spacing" textLength="144" x="48" y="243.355">For Each Leaving Edge in</text><text fill="#000000" font-family="sans-serif" font-size="11" font-style="italic" lengthAdjust="spacing" textLength="38" x="196" y="243.355">source</text><rect fill="#F1F1F1" height="33.9688" rx="12.5" ry="12.5" style="stroke:#181818;stroke-width:0.5;" width="172" x="55" y="483.6914"/><text fill="#000000" font-family="sans-serif" font-size="12" lengthAdjust="spacing" textLength="136" x="65" y="504.8301">Print Source Name and</text><text fill="#000000" font-family="sans-serif" font-size="12" font-style="italic" lengthAdjust="spacing" textLength="12" x="205" y="504.8301">or</text><rect fill="#F1F1F1" height="47.9375" rx="12.5" ry="12.5" style="stroke:#181818;stroke-width:0.5;" width="137" x="72.5" y="550.4648"/><text fill="#000000" font-family="sans-serif" font-size="12" lengthAdjust="spacing" textLength="17" x="82.5" y="571.6035">Put</text><text fill="#000000" font-family="sans-serif" font-size="12" font-style="italic" lengthAdjust="spacing" textLength="40" x="103.5" y="571.6035">source</text><text fill="#000000" font-family="sans-serif" font-size="12" lengthAdjust="spacing" textLength="22" x="147.5" y="571.6035">and</text><text fill="#000000" font-family="sans-serif" font-size="12" font-style="italic" lengthAdjust="spacing" textLength="12" x="173.5" y="571.6035">or</text><text fill="#000000" font-family="sans-serif" font-size="12" lengthAdjust="spacing" textLength="10" x="189.5" y="571.6035">in</text><text fill="#000000" font-family="sans-serif" font-size="12" lengthAdjust="spacing" textLength="72" x="82.5" y="585.5723">IObject Map</text><text fill="#000000" font-family="sans-serif" font-size="12" font-style="italic" lengthAdjust="spacing" textLength="16" x="158.5" y="585.5723">hb</text><rect fill="#F1F1F1" height="33.9688" rx="12.5" ry="12.5" style="stroke:#181818;stroke-width:0.5;" width="177" x="52.5" y="679.207"/><text fill="#000000" font-family="sans-serif" font-size="12" lengthAdjust="spacing" textLength="116" x="62.5" y="700.3457">Get Current IObject</text><text fill="#000000" font-family="sans-serif" font-size="12" font-style="italic" lengthAdjust="spacing" textLength="7" x="182.5" y="700.3457">o</text><text fill="#000000" font-family="sans-serif" font-size="12" lengthAdjust="spacing" textLength="10" x="193.5" y="700.3457">in</text><text fill="#000000" font-family="sans-serif" font-size="12" font-style="italic" lengthAdjust="spacing" textLength="12" x="207.5" y="700.3457">or</text><rect fill="#F1F1F1" height="33.9688" rx="12.5" ry="12.5" style="stroke:#181818;stroke-width:0.5;" width="190" x="46" y="794.3828"/><text fill="#000000" font-family="sans-serif" font-size="12" lengthAdjust="spacing" textLength="116" x="56" y="815.5215">Create IObject Map</text><text fill="#000000" font-family="sans-serif" font-size="12" font-style="italic" lengthAdjust="spacing" textLength="50" x="176" y="815.5215">newMap</text><rect fill="#F1F1F1" height="33.9688" rx="12.5" ry="12.5" style="stroke:#181818;stroke-width:0.5;" width="119" x="81.5" y="863.3516"/><text fill="#000000" font-family="sans-serif" font-size="12" lengthAdjust="spacing" textLength="26" x="91.5" y="884.4902">Cast</text><text fill="#000000" font-family="sans-serif" font-size="12" font-style="italic" lengthAdjust="spacing" textLength="7" x="121.5" y="884.4902">o</text><text fill="#000000" font-family="sans-serif" font-size="12" lengthAdjust="spacing" textLength="58" x="132.5" y="884.4902">to ONode</text><rect fill="#F1F1F1" height="33.9688" rx="12.5" ry="12.5" style="stroke:#181818;stroke-width:0.5;" width="118" x="82" y="930.5273"/><text fill="#000000" font-family="sans-serif" font-size="12" lengthAdjust="spacing" textLength="87" x="92" y="951.666">Create IObject</text><text fill="#000000" font-family="sans-serif" font-size="12" font-style="italic" lengthAdjust="spacing" textLength="7" x="183" y="951.666">v</text><rect fill="#F1F1F1" height="33.9688" rx="12.5" ry="12.5" style="stroke:#181818;stroke-width:0.5;" width="138" x="72" y="999.4961"/><text fill="#000000" font-family="sans-serif" font-size="12" lengthAdjust="spacing" textLength="21" x="82" y="1020.6348">Get</text><text fill="#000000" font-family="sans-serif" font-size="12" font-style="italic" lengthAdjust="spacing" textLength="7" x="107" y="1020.6348">v</text><text fill="#000000" font-family="sans-serif" font-size="12" lengthAdjust="spacing" textLength="28" x="118" y="1020.6348">from</text><text fill="#000000" font-family="sans-serif" font-size="12" font-style="italic" lengthAdjust="spacing" textLength="50" x="150" y="1020.6348">newMap</text><rect fill="#F1F1F1" height="47.9375" rx="12.5" ry="12.5" style="stroke:#181818;stroke-width:0.5;" width="104" x="89" y="1068.4648"/><text fill="#000000" font-family="sans-serif" font-size="12" lengthAdjust="spacing" textLength="17" x="99" y="1089.6035">Put</text><text fill="#000000" font-family="sans-serif" font-size="12" font-style="italic" lengthAdjust="spacing" textLength="12" x="120" y="1089.6035">or</text><text fill="#000000" font-family="sans-serif" font-size="12" lengthAdjust="spacing" textLength="22" x="136" y="1089.6035">and</text><text fill="#000000" font-family="sans-serif" font-size="12" font-style="italic" lengthAdjust="spacing" textLength="7" x="162" y="1089.6035">v</text><text fill="#000000" font-family="sans-serif" font-size="12" lengthAdjust="spacing" textLength="10" x="173" y="1089.6035">in</text><text fill="#000000" font-family="sans-serif" font-size="12" lengthAdjust="spacing" textLength="26" x="99" y="1103.5723">map</text><text fill="#000000" font-family="sans-serif" font-size="12" font-style="italic" lengthAdjust="spacing" textLength="16" x="129" y="1103.5723">hb</text><polygon fill="#F1F1F1" points="67,745.9805,215,745.9805,227,757.9805,215,769.9805,67,769.9805,55,757.9805,67,745.9805" style="stroke:#181818;stroke-width:0.5;"/><text fill="#000000" font-family="sans-serif" font-size="11" lengthAdjust="spacing" textLength="21" x="145" y="780.1909">yes</text><text fill="#000000" font-family="sans-serif" font-size="11" font-style="italic" lengthAdjust="spacing" textLength="7" x="67" y="761.7886">o</text><text fill="#000000" font-family="sans-serif" font-size="11" lengthAdjust="spacing" textLength="137" x="78" y="761.7886">is an Instance of ONode</text><polygon fill="#F1F1F1" points="90.5,631.207,191.5,631.207,203.5,643.207,191.5,655.207,90.5,655.207,78.5,643.207,90.5,631.207" style="stroke:#181818;stroke-width:0.5;"/><text fill="#000000" font-family="sans-serif" font-size="11" lengthAdjust="spacing" textLength="85" x="90.5" y="647.0151">For the Size of</text><text fill="#000000" font-family="sans-serif" font-size="11" font-style="italic" lengthAdjust="spacing" textLength="12" x="179.5" y="647.0151">or</text><polygon fill="#F1F1F1" points="62,435.2891,220,435.2891,232,447.2891,220,459.2891,62,459.2891,50,447.2891,62,435.2891" style="stroke:#181818;stroke-width:0.5;"/><text fill="#000000" font-family="sans-serif" font-size="11" lengthAdjust="spacing" textLength="21" x="145" y="469.4995">yes</text><text fill="#000000" font-family="sans-serif" font-size="11" lengthAdjust="spacing" textLength="41" x="62" y="451.0972">Size of</text><text fill="#000000" font-family="sans-serif" font-size="11" font-style="italic" lengthAdjust="spacing" textLength="12" x="107" y="451.0972">or</text><text fill="#000000" font-family="sans-serif" font-size="11" lengthAdjust="spacing" textLength="97" x="123" y="451.0972">is Greater than 0</text><polygon fill="#F1F1F1" points="141,1198.4023,153,1210.4023,141,1222.4023,129,1210.4023,141,1198.4023" style="stroke:#181818;stroke-width:0.5;"/><polygon fill="#F1F1F1" points="349,103.9688,593,103.9688,605,115.9688,593,127.9688,349,127.9688,337,115.9688,349,103.9688" style="stroke:#181818;stroke-width:0.5;"/><text fill="#000000" font-family="sans-serif" font-size="11" lengthAdjust="spacing" textLength="244" x="349" y="119.7769">Source Has Greater Than 0 Leaving Edges</text><rect fill="#F1F1F1" height="33.9688" rx="12.5" ry="12.5" style="stroke:#181818;stroke-width:0.5;" width="146" x="398" y="147.9688"/><text fill="#000000" font-family="sans-serif" font-size="12" lengthAdjust="spacing" textLength="99" x="408" y="169.1074">Create OListAND</text><text fill="#000000" font-family="sans-serif" font-size="12" font-style="italic" lengthAdjust="spacing" textLength="23" x="511" y="169.1074">and</text><rect fill="#F1F1F1" height="33.9688" rx="12.5" ry="12.5" style="stroke:#181818;stroke-width:0.5;" width="165" x="388.5" y="262.7422"/><text fill="#000000" font-family="sans-serif" font-size="12" lengthAdjust="spacing" textLength="145" x="398.5" y="283.8809">Get Edge's Target Node</text><rect fill="#F1F1F1" height="33.9688" rx="12.5" ry="12.5" style="stroke:#181818;stroke-width:0.5;" width="166" x="388" y="331.7109"/><text fill="#000000" font-family="sans-serif" font-size="12" lengthAdjust="spacing" textLength="119" x="398" y="352.8496">Add Target Node to</text><text fill="#000000" font-family="sans-serif" font-size="12" font-style="italic" lengthAdjust="spacing" textLength="23" x="521" y="352.8496">and</text><polygon fill="#F1F1F1" points="377,214.7422,565,214.7422,577,226.7422,565,238.7422,377,238.7422,365,226.7422,377,214.7422" style="stroke:#181818;stroke-width:0.5;"/><text fill="#000000" font-family="sans-serif" font-size="11" lengthAdjust="spacing" textLength="188" x="377" y="230.5503">For Each Leaving Edge in Source</text><rect fill="#F1F1F1" height="33.9688" rx="12.5" ry="12.5" style="stroke:#181818;stroke-width:0.5;" width="183" x="379.5" y="470.8867"/><text fill="#000000" font-family="sans-serif" font-size="12" lengthAdjust="spacing" textLength="136" x="389.5" y="492.0254">Print Source Name and</text><text fill="#000000" font-family="sans-serif" font-size="12" font-style="italic" lengthAdjust="spacing" textLength="23" x="529.5" y="492.0254">and</text><rect fill="#F1F1F1" height="47.9375" rx="12.5" ry="12.5" style="stroke:#181818;stroke-width:0.5;" width="148" x="397" y="537.6602"/><text fill="#000000" font-family="sans-serif" font-size="12" lengthAdjust="spacing" textLength="17" x="407" y="558.7988">Put</text><text fill="#000000" font-family="sans-serif" font-size="12" font-style="italic" lengthAdjust="spacing" textLength="40" x="428" y="558.7988">source</text><text fill="#000000" font-family="sans-serif" font-size="12" lengthAdjust="spacing" textLength="22" x="472" y="558.7988">and</text><text fill="#000000" font-family="sans-serif" font-size="12" font-style="italic" lengthAdjust="spacing" textLength="23" x="498" y="558.7988">and</text><text fill="#000000" font-family="sans-serif" font-size="12" lengthAdjust="spacing" textLength="10" x="525" y="558.7988">in</text><text fill="#000000" font-family="sans-serif" font-size="12" lengthAdjust="spacing" textLength="26" x="407" y="572.7676">map</text><text fill="#000000" font-family="sans-serif" font-size="12" font-style="italic" lengthAdjust="spacing" textLength="16" x="437" y="572.7676">hb</text><rect fill="#F1F1F1" height="33.9688" rx="12.5" ry="12.5" style="stroke:#181818;stroke-width:0.5;" width="250" x="346" y="666.4023"/><text fill="#000000" font-family="sans-serif" font-size="12" lengthAdjust="spacing" textLength="72" x="356" y="687.541">Get IObject,</text><text fill="#000000" font-family="sans-serif" font-size="12" font-style="italic" lengthAdjust="spacing" textLength="7" x="432" y="687.541">o</text><text fill="#000000" font-family="sans-serif" font-size="12" lengthAdjust="spacing" textLength="120" x="439" y="687.541">, at Current Index of</text><text fill="#000000" font-family="sans-serif" font-size="12" font-style="italic" lengthAdjust="spacing" textLength="23" x="563" y="687.541">and</text><rect fill="#F1F1F1" height="33.9688" rx="12.5" ry="12.5" style="stroke:#181818;stroke-width:0.5;" width="119" x="411.5" y="781.1758"/><text fill="#000000" font-family="sans-serif" font-size="12" lengthAdjust="spacing" textLength="26" x="421.5" y="802.3145">Cast</text><text fill="#000000" font-family="sans-serif" font-size="12" font-style="italic" lengthAdjust="spacing" textLength="7" x="451.5" y="802.3145">o</text><text fill="#000000" font-family="sans-serif" font-size="12" lengthAdjust="spacing" textLength="58" x="462.5" y="802.3145">to ONode</text><rect fill="#F1F1F1" height="33.9688" rx="12.5" ry="12.5" style="stroke:#181818;stroke-width:0.5;" width="190" x="376" y="850.1445"/><text fill="#000000" font-family="sans-serif" font-size="12" lengthAdjust="spacing" textLength="116" x="386" y="871.2832">Create IObject Map</text><text fill="#000000" font-family="sans-serif" font-size="12" font-style="italic" lengthAdjust="spacing" textLength="50" x="506" y="871.2832">newMap</text><rect fill="#F1F1F1" height="33.9688" rx="12.5" ry="12.5" style="stroke:#181818;stroke-width:0.5;" width="155" x="393.5" y="917.3203"/><text fill="#000000" font-family="sans-serif" font-size="12" lengthAdjust="spacing" textLength="17" x="403.5" y="938.459">Put</text><text fill="#000000" font-family="sans-serif" font-size="12" font-style="italic" lengthAdjust="spacing" textLength="50" x="424.5" y="938.459">newMap</text><text fill="#000000" font-family="sans-serif" font-size="12" lengthAdjust="spacing" textLength="40" x="478.5" y="938.459">in map</text><text fill="#000000" font-family="sans-serif" font-size="12" font-style="italic" lengthAdjust="spacing" textLength="16" x="522.5" y="938.459">hb</text><polygon fill="#F1F1F1" points="397,733.1758,545,733.1758,557,745.1758,545,757.1758,397,757.1758,385,745.1758,397,733.1758" style="stroke:#181818;stroke-width:0.5;"/><text fill="#000000" font-family="sans-serif" font-size="11" font-style="italic" lengthAdjust="spacing" textLength="7" x="397" y="748.9839">o</text><text fill="#000000" font-family="sans-serif" font-size="11" lengthAdjust="spacing" textLength="137" x="408" y="748.9839">is an Instance of ONode</text><polygon fill="#F1F1F1" points="471,975.2891,483,987.2891,471,999.2891,459,987.2891,471,975.2891" style="stroke:#181818;stroke-width:0.5;"/><polygon fill="#F1F1F1" points="427.5,618.4023,514.5,618.4023,526.5,630.4023,514.5,642.4023,427.5,642.4023,415.5,630.4023,427.5,618.4023" style="stroke:#181818;stroke-width:0.5;"/><text fill="#000000" font-family="sans-serif" font-size="11" lengthAdjust="spacing" textLength="62" x="427.5" y="634.2104">For Size of</text><text fill="#000000" font-family="sans-serif" font-size="11" font-style="italic" lengthAdjust="spacing" textLength="21" x="493.5" y="634.2104">and</text><polygon fill="#F1F1F1" points="386,422.4844,556,422.4844,568,434.4844,556,446.4844,386,446.4844,374,434.4844,386,422.4844" style="stroke:#181818;stroke-width:0.5;"/><text fill="#000000" font-family="sans-serif" font-size="11" lengthAdjust="spacing" textLength="21" x="475" y="456.6948">yes</text><text fill="#000000" font-family="sans-serif" font-size="11" lengthAdjust="spacing" textLength="41" x="386" y="438.2925">Size of</text><text fill="#000000" font-family="sans-serif" font-size="11" font-style="italic" lengthAdjust="spacing" textLength="21" x="431" y="438.2925">and</text><text fill="#000000" font-family="sans-serif" font-size="11" lengthAdjust="spacing" textLength="100" x="456" y="438.2925">is Greater Than 0</text><polygon fill="#F1F1F1" points="471,1047.6914,483,1059.6914,471,1071.6914,459,1059.6914,471,1047.6914" style="stroke:#181818;stroke-width:0.5;"/><rect fill="#F1F1F1" height="33.9688" rx="12.5" ry="12.5" style="stroke:#181818;stroke-width:0.5;" width="78" x="302" y="1262.4023"/><text fill="#000000" font-family="sans-serif" font-size="12" lengthAdjust="spacing" textLength="38" x="312" y="1283.541">Return</text><text fill="#000000" font-family="sans-serif" font-size="12" font-style="italic" lengthAdjust="spacing" textLength="16" x="354" y="1283.541">hb</text><ellipse cx="341" cy="1327.3711" fill="none" rx="11" ry="11" style="stroke:#222222;stroke-width:1.0;"/><ellipse cx="341" cy="1327.3711" fill="#222222" rx="6" ry="6" style="stroke:#222222;stroke-width:1.0;"/><line style="stroke:#181818;stroke-width:1.0;" x1="341" x2="341" y1="30" y2="50"/><polygon fill="#181818" points="337,40,341,50,345,40,341,44" style="stroke:#181818;stroke-width:1.0;"/><line style="stroke:#181818;stroke-width:1.0;" x1="141" x2="141" y1="309.5156" y2="344.5156"/><polygon fill="#181818" points="137,334.5156,141,344.5156,145,334.5156,141,338.5156" style="stroke:#181818;stroke-width:1.0;"/><line style="stroke:#181818;stroke-width:1.0;" x1="141" x2="141" y1="251.5469" y2="275.5469"/><polygon fill="#181818" points="137,265.5469,141,275.5469,145,265.5469,141,269.5469" style="stroke:#181818;stroke-width:1.0;"/><line style="stroke:#181818;stroke-width:1.0;" x1="141" x2="141" y1="378.4844" y2="390.4844"/><line style="stroke:#181818;stroke-width:1.0;" x1="141" x2="258" y1="390.4844" y2="390.4844"/><polygon fill="#181818" points="254,325.0156,258,315.0156,262,325.0156,258,321.0156" style="stroke:#181818;stroke-width:1.0;"/><line style="stroke:#181818;stroke-width:1.0;" x1="258" x2="258" y1="239.5469" y2="390.4844"/><line style="stroke:#181818;stroke-width:1.0;" x1="258" x2="246" y1="239.5469" y2="239.5469"/><polygon fill="#181818" points="256,235.5469,246,239.5469,256,243.5469,252,239.5469" style="stroke:#181818;stroke-width:1.0;"/><line style="stroke:#181818;stroke-width:1.0;" x1="36" x2="24" y1="239.5469" y2="239.5469"/><polygon fill="#181818" points="20,311.0156,24,321.0156,28,311.0156,24,315.0156" style="stroke:#181818;stroke-width:1.0;"/><line style="stroke:#181818;stroke-width:1.0;" x1="24" x2="24" y1="239.5469" y2="402.4844"/><line style="stroke:#181818;stroke-width:1.0;" x1="24" x2="141" y1="402.4844" y2="402.4844"/><line style="stroke:#181818;stroke-width:1.0;" x1="141" x2="141" y1="402.4844" y2="435.2891"/><polygon fill="#181818" points="137,425.2891,141,435.2891,145,425.2891,141,429.2891" style="stroke:#181818;stroke-width:1.0;"/><line style="stroke:#181818;stroke-width:1.0;" x1="141" x2="141" y1="194.7422" y2="227.5469"/><polygon fill="#181818" points="137,217.5469,141,227.5469,145,217.5469,141,221.5469" style="stroke:#181818;stroke-width:1.0;"/><line style="stroke:#181818;stroke-width:1.0;" x1="141" x2="141" y1="517.6602" y2="550.4648"/><polygon fill="#181818" points="137,540.4648,141,550.4648,145,540.4648,141,544.4648" style="stroke:#181818;stroke-width:1.0;"/><line style="stroke:#181818;stroke-width:1.0;" x1="141" x2="141" y1="828.3516" y2="863.3516"/><polygon fill="#181818" points="137,853.3516,141,863.3516,145,853.3516,141,857.3516" style="stroke:#181818;stroke-width:1.0;"/><line style="stroke:#181818;stroke-width:1.0;" x1="141" x2="141" y1="897.3203" y2="930.5273"/><polygon fill="#181818" points="137,920.5273,141,930.5273,145,920.5273,141,924.5273" style="stroke:#181818;stroke-width:1.0;"/><line style="stroke:#181818;stroke-width:1.0;" x1="141" x2="141" y1="964.4961" y2="999.4961"/><polygon fill="#181818" points="137,989.4961,141,999.4961,145,989.4961,141,993.4961" style="stroke:#181818;stroke-width:1.0;"/><line style="stroke:#181818;stroke-width:1.0;" x1="141" x2="141" y1="1033.4648" y2="1068.4648"/><polygon fill="#181818" points="137,1058.4648,141,1068.4648,145,1058.4648,141,1062.4648" style="stroke:#181818;stroke-width:1.0;"/><line style="stroke:#181818;stroke-width:1.0;" x1="141" x2="141" y1="1116.4023" y2="1130.4023"/><line style="stroke:#181818;stroke-width:1.0;" x1="141" x2="24" y1="1130.4023" y2="1130.4023"/><polygon fill="#181818" points="34,1126.4023,24,1130.4023,34,1134.4023,30,1130.4023" style="stroke:#181818;stroke-width:1.0;"/><line style="stroke:#181818;stroke-width:1.0;" x1="141" x2="141" y1="769.9805" y2="794.3828"/><polygon fill="#181818" points="137,784.3828,141,794.3828,145,784.3828,141,788.3828" style="stroke:#181818;stroke-width:1.0;"/><line style="stroke:#181818;stroke-width:1.0;" x1="227" x2="270" y1="757.9805" y2="757.9805"/><line style="stroke:#181818;stroke-width:1.0;" x1="270" x2="270" y1="643.207" y2="757.9805"/><line style="stroke:#181818;stroke-width:1.0;" x1="270" x2="203.5" y1="643.207" y2="643.207"/><polygon fill="#181818" points="213.5,639.207,203.5,643.207,213.5,647.207,209.5,643.207" style="stroke:#181818;stroke-width:1.0;"/><line style="stroke:#181818;stroke-width:1.0;" x1="141" x2="141" y1="713.1758" y2="745.9805"/><polygon fill="#181818" points="137,735.9805,141,745.9805,145,735.9805,141,739.9805" style="stroke:#181818;stroke-width:1.0;"/><line style="stroke:#181818;stroke-width:1.0;" x1="141" x2="141" y1="655.207" y2="679.207"/><polygon fill="#181818" points="137,669.207,141,679.207,145,669.207,141,673.207" style="stroke:#181818;stroke-width:1.0;"/><line style="stroke:#181818;stroke-width:1.0;" x1="78.5" x2="24" y1="643.207" y2="643.207"/><polygon fill="#181818" points="20,912.5117,24,922.5117,28,912.5117,24,916.5117" style="stroke:#181818;stroke-width:1.0;"/><line style="stroke:#181818;stroke-width:1.0;" x1="24" x2="24" y1="643.207" y2="1178.4023"/><line style="stroke:#181818;stroke-width:1.0;" x1="24" x2="141" y1="1178.4023" y2="1178.4023"/><line style="stroke:#181818;stroke-width:1.0;" x1="141" x2="141" y1="1178.4023" y2="1198.4023"/><polygon fill="#181818" points="137,1188.4023,141,1198.4023,145,1188.4023,141,1192.4023" style="stroke:#181818;stroke-width:1.0;"/><line style="stroke:#181818;stroke-width:1.0;" x1="141" x2="141" y1="598.4023" y2="631.207"/><polygon fill="#181818" points="137,621.207,141,631.207,145,621.207,141,625.207" style="stroke:#181818;stroke-width:1.0;"/><line style="stroke:#181818;stroke-width:1.0;" x1="141" x2="141" y1="459.2891" y2="483.6914"/><polygon fill="#181818" points="137,473.6914,141,483.6914,145,473.6914,141,477.6914" style="stroke:#181818;stroke-width:1.0;"/><line style="stroke:#181818;stroke-width:1.0;" x1="232" x2="280" y1="447.2891" y2="447.2891"/><polygon fill="#181818" points="276,832.3516,280,842.3516,284,832.3516,280,836.3516" style="stroke:#181818;stroke-width:1.0;"/><line style="stroke:#181818;stroke-width:1.0;" x1="280" x2="280" y1="447.2891" y2="1210.4023"/><line style="stroke:#181818;stroke-width:1.0;" x1="280" x2="153" y1="1210.4023" y2="1210.4023"/><polygon fill="#181818" points="163,1206.4023,153,1210.4023,163,1214.4023,159,1210.4023" style="stroke:#181818;stroke-width:1.0;"/><line style="stroke:#181818;stroke-width:1.0;" x1="471" x2="471" y1="296.7109" y2="331.7109"/><polygon fill="#181818" points="467,321.7109,471,331.7109,475,321.7109,471,325.7109" style="stroke:#181818;stroke-width:1.0;"/><line style="stroke:#181818;stroke-width:1.0;" x1="471" x2="471" y1="238.7422" y2="262.7422"/><polygon fill="#181818" points="467,252.7422,471,262.7422,475,252.7422,471,256.7422" style="stroke:#181818;stroke-width:1.0;"/><line style="stroke:#181818;stroke-width:1.0;" x1="471" x2="471" y1="365.6797" y2="377.6797"/><line style="stroke:#181818;stroke-width:1.0;" x1="471" x2="589" y1="377.6797" y2="377.6797"/><polygon fill="#181818" points="585,312.2109,589,302.2109,593,312.2109,589,308.2109" style="stroke:#181818;stroke-width:1.0;"/><line style="stroke:#181818;stroke-width:1.0;" x1="589" x2="589" y1="226.7422" y2="377.6797"/><line style="stroke:#181818;stroke-width:1.0;" x1="589" x2="577" y1="226.7422" y2="226.7422"/><polygon fill="#181818" points="587,222.7422,577,226.7422,587,230.7422,583,226.7422" style="stroke:#181818;stroke-width:1.0;"/><line style="stroke:#181818;stroke-width:1.0;" x1="365" x2="353" y1="226.7422" y2="226.7422"/><polygon fill="#181818" points="349,298.2109,353,308.2109,357,298.2109,353,302.2109" style="stroke:#181818;stroke-width:1.0;"/><line style="stroke:#181818;stroke-width:1.0;" x1="353" x2="353" y1="226.7422" y2="389.6797"/><line style="stroke:#181818;stroke-width:1.0;" x1="353" x2="471" y1="389.6797" y2="389.6797"/><line style="stroke:#181818;stroke-width:1.0;" x1="471" x2="471" y1="389.6797" y2="422.4844"/><polygon fill="#181818" points="467,412.4844,471,422.4844,475,412.4844,471,416.4844" style="stroke:#181818;stroke-width:1.0;"/><line style="stroke:#181818;stroke-width:1.0;" x1="471" x2="471" y1="181.9375" y2="214.7422"/><polygon fill="#181818" points="467,204.7422,471,214.7422,475,204.7422,471,208.7422" style="stroke:#181818;stroke-width:1.0;"/><line style="stroke:#181818;stroke-width:1.0;" x1="471" x2="471" y1="504.8555" y2="537.6602"/><polygon fill="#181818" points="467,527.6602,471,537.6602,475,527.6602,471,531.6602" style="stroke:#181818;stroke-width:1.0;"/><line style="stroke:#181818;stroke-width:1.0;" x1="471" x2="471" y1="815.1445" y2="850.1445"/><polygon fill="#181818" points="467,840.1445,471,850.1445,475,840.1445,471,844.1445" style="stroke:#181818;stroke-width:1.0;"/><line style="stroke:#181818;stroke-width:1.0;" x1="471" x2="471" y1="884.1133" y2="917.3203"/><polygon fill="#181818" points="467,907.3203,471,917.3203,475,907.3203,471,911.3203" style="stroke:#181818;stroke-width:1.0;"/><line style="stroke:#181818;stroke-width:1.0;" x1="471" x2="471" y1="757.1758" y2="781.1758"/><polygon fill="#181818" points="467,771.1758,471,781.1758,475,771.1758,471,775.1758" style="stroke:#181818;stroke-width:1.0;"/><line style="stroke:#181818;stroke-width:1.0;" x1="557" x2="576" y1="745.1758" y2="745.1758"/><polygon fill="#181818" points="572,857.1289,576,867.1289,580,857.1289,576,861.1289" style="stroke:#181818;stroke-width:1.0;"/><line style="stroke:#181818;stroke-width:1.0;" x1="576" x2="576" y1="745.1758" y2="987.2891"/><line style="stroke:#181818;stroke-width:1.0;" x1="576" x2="483" y1="987.2891" y2="987.2891"/><polygon fill="#181818" points="493,983.2891,483,987.2891,493,991.2891,489,987.2891" style="stroke:#181818;stroke-width:1.0;"/><line style="stroke:#181818;stroke-width:1.0;" x1="471" x2="471" y1="951.2891" y2="975.2891"/><polygon fill="#181818" points="467,965.2891,471,975.2891,475,965.2891,471,969.2891" style="stroke:#181818;stroke-width:1.0;"/><line style="stroke:#181818;stroke-width:1.0;" x1="471" x2="471" y1="700.3711" y2="733.1758"/><polygon fill="#181818" points="467,723.1758,471,733.1758,475,723.1758,471,727.1758" style="stroke:#181818;stroke-width:1.0;"/><line style="stroke:#181818;stroke-width:1.0;" x1="471" x2="471" y1="642.4023" y2="666.4023"/><polygon fill="#181818" points="467,656.4023,471,666.4023,475,656.4023,471,660.4023" style="stroke:#181818;stroke-width:1.0;"/><line style="stroke:#181818;stroke-width:1.0;" x1="471" x2="471" y1="999.2891" y2="1011.2891"/><line style="stroke:#181818;stroke-width:1.0;" x1="471" x2="608" y1="1011.2891" y2="1011.2891"/><polygon fill="#181818" points="604,830.6445,608,820.6445,612,830.6445,608,826.6445" style="stroke:#181818;stroke-width:1.0;"/><line style="stroke:#181818;stroke-width:1.0;" x1="608" x2="608" y1="630.4023" y2="1011.2891"/><line style="stroke:#181818;stroke-width:1.0;" x1="608" x2="526.5" y1="630.4023" y2="630.4023"/><polygon fill="#181818" points="536.5,626.4023,526.5,630.4023,536.5,634.4023,532.5,630.4023" style="stroke:#181818;stroke-width:1.0;"/><line style="stroke:#181818;stroke-width:1.0;" x1="415.5" x2="334" y1="630.4023" y2="630.4023"/><polygon fill="#181818" points="330,816.6445,334,826.6445,338,816.6445,334,820.6445" style="stroke:#181818;stroke-width:1.0;"/><line style="stroke:#181818;stroke-width:1.0;" x1="334" x2="334" y1="630.4023" y2="1023.2891"/><line style="stroke:#181818;stroke-width:1.0;" x1="334" x2="471" y1="1023.2891" y2="1023.2891"/><line style="stroke:#181818;stroke-width:1.0;" x1="471" x2="471" y1="1023.2891" y2="1047.6914"/><polygon fill="#181818" points="467,1037.6914,471,1047.6914,475,1037.6914,471,1041.6914" style="stroke:#181818;stroke-width:1.0;"/><line style="stroke:#181818;stroke-width:1.0;" x1="471" x2="471" y1="585.5977" y2="618.4023"/><polygon fill="#181818" points="467,608.4023,471,618.4023,475,608.4023,471,612.4023" style="stroke:#181818;stroke-width:1.0;"/><line style="stroke:#181818;stroke-width:1.0;" x1="471" x2="471" y1="446.4844" y2="470.8867"/><polygon fill="#181818" points="467,460.8867,471,470.8867,475,460.8867,471,464.8867" style="stroke:#181818;stroke-width:1.0;"/><line style="stroke:#181818;stroke-width:1.0;" x1="568" x2="618" y1="434.4844" y2="434.4844"/><polygon fill="#181818" points="614,734.6914,618,744.6914,622,734.6914,618,738.6914" style="stroke:#181818;stroke-width:1.0;"/><line style="stroke:#181818;stroke-width:1.0;" x1="618" x2="618" y1="434.4844" y2="1059.6914"/><line style="stroke:#181818;stroke-width:1.0;" x1="618" x2="483" y1="1059.6914" y2="1059.6914"/><polygon fill="#181818" points="493,1055.6914,483,1059.6914,493,1063.6914,489,1059.6914" style="stroke:#181818;stroke-width:1.0;"/><line style="stroke:#181818;stroke-width:1.0;" x1="141" x2="141" y1="127.9688" y2="160.7734"/><polygon fill="#181818" points="137,150.7734,141,160.7734,145,150.7734,141,154.7734" style="stroke:#181818;stroke-width:1.0;"/><line style="stroke:#181818;stroke-width:1.0;" x1="141" x2="141" y1="1222.4023" y2="1242.4023"/><polygon fill="#181818" points="137,1232.4023,141,1242.4023,145,1232.4023,141,1236.4023" style="stroke:#181818;stroke-width:1.0;"/><line style="stroke:#181818;stroke-width:1.0;" x1="471" x2="471" y1="127.9688" y2="147.9688"/><polygon fill="#181818" points="467,137.9688,471,147.9688,475,137.9688,471,141.9688" style="stroke:#181818;stroke-width:1.0;"/><line style="stroke:#181818;stroke-width:1.0;" x1="471" x2="471" y1="1071.6914" y2="1242.4023"/><polygon fill="#181818" points="467,1232.4023,471,1242.4023,475,1232.4023,471,1236.4023" style="stroke:#181818;stroke-width:1.0;"/><line style="stroke:#181818;stroke-width:1.0;" x1="205.5" x2="337" y1="115.9688" y2="115.9688"/><polygon fill="#181818" points="327,111.9688,337,115.9688,327,119.9688,331,115.9688" style="stroke:#181818;stroke-width:1.0;"/><line style="stroke:#181818;stroke-width:1.0;" x1="341" x2="341" y1="83.9688" y2="88.9688"/><line style="stroke:#181818;stroke-width:1.0;" x1="341" x2="141" y1="88.9688" y2="88.9688"/><line style="stroke:#181818;stroke-width:1.0;" x1="141" x2="141" y1="88.9688" y2="103.9688"/><polygon fill="#181818" points="137,93.9688,141,103.9688,145,93.9688,141,97.9688" style="stroke:#181818;stroke-width:1.0;"/><line style="stroke:#181818;stroke-width:1.0;" x1="605" x2="636" y1="115.9688" y2="115.9688"/><line style="stroke:#181818;stroke-width:1.0;" x1="636" x2="636" y1="115.9688" y2="1242.4023"/><polygon fill="#181818" points="632,1232.4023,636,1242.4023,640,1232.4023,636,1236.4023" style="stroke:#181818;stroke-width:1.0;"/><line style="stroke:#181818;stroke-width:1.0;" x1="141" x2="636" y1="1242.4023" y2="1242.4023"/><line style="stroke:#181818;stroke-width:1.0;" x1="341" x2="341" y1="1242.4023" y2="1262.4023"/><polygon fill="#181818" points="337,1252.4023,341,1262.4023,345,1252.4023,341,1256.4023" style="stroke:#181818;stroke-width:1.0;"/><line style="stroke:#181818;stroke-width:1.0;" x1="341" x2="341" y1="1296.3711" y2="1316.3711"/><polygon fill="#181818" points="337,1306.3711,341,1316.3711,345,1306.3711,341,1310.3711" style="stroke:#181818;stroke-width:1.0;"/><!--SRC=[bLBBRi8m4BpdA_PMa93SSpWXsb8aIX3m0oRP4BTW8zk1jbzVln8ScWDS8iVhdPsP7QMfr4awbKWrmZpRVMAkuPsgweEUW91gHyWuOUM0a0FIC-FxrsAF6SUi96G8ka8EWnzKmnOZMp2bixNf5TBsNYfsmC6RaF1AymeM7WKi331kdYbHonmDMfBEKBl2au8jbNlpjnG5ZfDqKXJn3MZHuYClt0XBSiD-4KGPQi0Kp1mfQOXI3izTmYl9k8QD6mzBUaIWl6XnqrMj8tPHpT1E6gTYbwvApHJeSWdYfhMKQ8OsxQReyDgfpcdXkHl6SwuqvRa3ogpoNikxP3XUpC59c5BLp32EPS7Ccov2pkwnvUVEK4fnx09vBvnuxyFPst2CvEyCx9TT1oklImc_1uLsFTvgawvsBrktbqugRhCqMRwO6MRi7Mdo4nvEKW3lZv8hnbdQFf2bWDmVfe3SjV6gy8P2K1NMDl9x7G6DKiKB_8uwxeZJdHdvboolfxcmriSQ-aFWlkaQTIrv-rHfSVe3]--></g></svg>