<?xml version="1.0" encoding="us-ascii" standalone="no"?><svg xmlns="http://www.w3.org/2000/svg" xmlns:xlink="http://www.w3.org/1999/xlink" contentStyleType="text/css" height="352px" preserveAspectRatio="none" style="width:262px;height:352px;background:#FFFFFF;" version="1.1" viewBox="0 0 262 352" width="262px" zoomAndPan="magnify"><defs/><g><ellipse cx="131" cy="20" fill="#222222" rx="10" ry="10" style="stroke:#222222;stroke-width:1.0;"/><rect fill="#F1F1F1" height="33.9688" rx="12.5" ry="12.5" style="stroke:#181818;stroke-width:0.5;" width="112" x="75" y="50"/><text fill="#000000" font-family="sans-serif" font-size="12" lengthAdjust="spacing" textLength="92" x="85" y="71.1387">Create Node ID</text><rect fill="#F1F1F1" height="33.9688" rx="12.5" ry="12.5" style="stroke:#181818;stroke-width:0.5;" width="136" x="63" y="103.9688"/><text fill="#000000" font-family="sans-serif" font-size="12" lengthAdjust="spacing" textLength="76" x="73" y="125.1074">Add Node to</text><text fill="#000000" font-family="sans-serif" font-size="12" font-style="italic" lengthAdjust="spacing" textLength="36" x="153" y="125.1074">graph</text><rect fill="#F1F1F1" height="33.9688" rx="12.5" ry="12.5" style="stroke:#181818;stroke-width:0.5;" width="168" x="47" y="157.9375"/><text fill="#000000" font-family="sans-serif" font-size="12" lengthAdjust="spacing" textLength="110" x="57" y="179.0762">Set Node Name to</text><text fill="#000000" font-family="sans-serif" font-size="12" font-style="italic" lengthAdjust="spacing" textLength="34" x="171" y="179.0762">name</text><rect fill="#F1F1F1" height="33.9688" rx="12.5" ry="12.5" style="stroke:#181818;stroke-width:0.5;" width="240" x="11" y="211.9063"/><text fill="#000000" font-family="sans-serif" font-size="12" lengthAdjust="spacing" textLength="182" x="21" y="233.0449">Set Node Type to Upper Case</text><text fill="#000000" font-family="sans-serif" font-size="12" font-style="italic" lengthAdjust="spacing" textLength="34" x="207" y="233.0449">name</text><rect fill="#F1F1F1" height="33.9688" rx="12.5" ry="12.5" style="stroke:#181818;stroke-width:0.5;" width="94" x="84" y="265.875"/><text fill="#000000" font-family="sans-serif" font-size="12" lengthAdjust="spacing" textLength="74" x="94" y="287.0137">Return Node</text><ellipse cx="131" cy="330.8438" fill="none" rx="11" ry="11" style="stroke:#222222;stroke-width:1.0;"/><ellipse cx="131" cy="330.8438" fill="#222222" rx="6" ry="6" style="stroke:#222222;stroke-width:1.0;"/><line style="stroke:#181818;stroke-width:1.0;" x1="131" x2="131" y1="30" y2="50"/><polygon fill="#181818" points="127,40,131,50,135,40,131,44" style="stroke:#181818;stroke-width:1.0;"/><line style="stroke:#181818;stroke-width:1.0;" x1="131" x2="131" y1="83.9688" y2="103.9688"/><polygon fill="#181818" points="127,93.9688,131,103.9688,135,93.9688,131,97.9688" style="stroke:#181818;stroke-width:1.0;"/><line style="stroke:#181818;stroke-width:1.0;" x1="131" x2="131" y1="137.9375" y2="157.9375"/><polygon fill="#181818" points="127,147.9375,131,157.9375,135,147.9375,131,151.9375" style="stroke:#181818;stroke-width:1.0;"/><line style="stroke:#181818;stroke-width:1.0;" x1="131" x2="131" y1="191.9063" y2="211.9063"/><polygon fill="#181818" points="127,201.9063,131,211.9063,135,201.9063,131,205.9063" style="stroke:#181818;stroke-width:1.0;"/><line style="stroke:#181818;stroke-width:1.0;" x1="131" x2="131" y1="245.875" y2="265.875"/><polygon fill="#181818" points="127,255.875,131,265.875,135,255.875,131,259.875" style="stroke:#181818;stroke-width:1.0;"/><line style="stroke:#181818;stroke-width:1.0;" x1="131" x2="131" y1="299.8438" y2="319.8438"/><polygon fill="#181818" points="127,309.8438,131,319.8438,135,309.8438,131,313.8438" style="stroke:#181818;stroke-width:1.0;"/><!--SRC=[Aov9B2hXid8kIaqiILNmoqz9LV1qiUQoSan9WV1AyXNqzTEB4WiozFM1ui6f9H1nlyHSg6GUa8Kg5r9P09OBBIX8BL9mJYnEHLOMb5fIMfG7LcdDLLoINm00]--></g></svg>