<?xml version="1.0" encoding="us-ascii" standalone="no"?><svg xmlns="http://www.w3.org/2000/svg" xmlns:xlink="http://www.w3.org/1999/xlink" contentStyleType="text/css" height="460px" preserveAspectRatio="none" style="width:357px;height:460px;background:#FFFFFF;" version="1.1" viewBox="0 0 357 460" width="357px" zoomAndPan="magnify"><defs/><g><ellipse cx="190.5" cy="20" fill="#222222" rx="10" ry="10" style="stroke:#222222;stroke-width:1.0;"/><rect fill="#F1F1F1" height="33.9688" rx="12.5" ry="12.5" style="stroke:#181818;stroke-width:0.5;" width="252" x="64.5" y="50"/><text fill="#000000" font-family="sans-serif" font-size="12" lengthAdjust="spacing" textLength="129" x="74.5" y="71.1387">Create new Array List</text><text fill="#000000" font-family="sans-serif" font-size="12" font-style="italic" lengthAdjust="spacing" textLength="99" x="207.5" y="71.1387">hbFunctionFilter</text><rect fill="#F1F1F1" height="47.9375" rx="12.5" ry="12.5" style="stroke:#181818;stroke-width:0.5;" width="237" x="72" y="239.9688"/><text fill="#000000" font-family="sans-serif" font-size="12" lengthAdjust="spacing" textLength="217" x="82" y="261.1074">Add Current Key String and Value to</text><text fill="#000000" font-family="sans-serif" font-size="12" font-style="italic" lengthAdjust="spacing" textLength="99" x="82" y="275.0762">hbFunctionFilter</text><polygon fill="#F1F1F1" points="110.5,191.9688,270.5,191.9688,282.5,203.9688,270.5,215.9688,110.5,215.9688,98.5,203.9688,110.5,191.9688" style="stroke:#181818;stroke-width:0.5;"/><text fill="#000000" font-family="sans-serif" font-size="11" lengthAdjust="spacing" textLength="125" x="110.5" y="207.7769">For Each Key Value in</text><text fill="#000000" font-family="sans-serif" font-size="11" font-style="italic" lengthAdjust="spacing" textLength="31" x="239.5" y="207.7769">_map</text><polygon fill="#F1F1F1" points="121.5,147.9688,259.5,147.9688,271.5,159.9688,259.5,171.9688,121.5,171.9688,109.5,159.9688,121.5,147.9688" style="stroke:#181818;stroke-width:0.5;"/><text fill="#000000" font-family="sans-serif" font-size="11" lengthAdjust="spacing" textLength="138" x="121.5" y="163.7769">For Each Key in Key Set</text><polygon fill="#F1F1F1" points="115.5,103.9688,265.5,103.9688,277.5,115.9688,265.5,127.9688,115.5,127.9688,103.5,115.9688,115.5,103.9688" style="stroke:#181818;stroke-width:0.5;"/><text fill="#000000" font-family="sans-serif" font-size="11" lengthAdjust="spacing" textLength="112" x="115.5" y="119.7769">For Each Key Set in</text><text fill="#000000" font-family="sans-serif" font-size="11" font-style="italic" lengthAdjust="spacing" textLength="31" x="231.5" y="119.7769">_map</text><text fill="#000000" font-family="sans-serif" font-size="11" lengthAdjust="spacing" textLength="3" x="262.5" y="119.7769">;</text><rect fill="#F1F1F1" height="33.9688" rx="12.5" ry="12.5" style="stroke:#181818;stroke-width:0.5;" width="161" x="110" y="373.9063"/><text fill="#000000" font-family="sans-serif" font-size="12" lengthAdjust="spacing" textLength="38" x="120" y="395.0449">Return</text><text fill="#000000" font-family="sans-serif" font-size="12" font-style="italic" lengthAdjust="spacing" textLength="99" x="162" y="395.0449">hbFunctionFilter</text><ellipse cx="190.5" cy="438.875" fill="none" rx="11" ry="11" style="stroke:#222222;stroke-width:1.0;"/><ellipse cx="190.5" cy="438.875" fill="#222222" rx="6" ry="6" style="stroke:#222222;stroke-width:1.0;"/><line style="stroke:#181818;stroke-width:1.0;" x1="190.5" x2="190.5" y1="30" y2="50"/><polygon fill="#181818" points="186.5,40,190.5,50,194.5,40,190.5,44" style="stroke:#181818;stroke-width:1.0;"/><line style="stroke:#181818;stroke-width:1.0;" x1="190.5" x2="190.5" y1="215.9688" y2="239.9688"/><polygon fill="#181818" points="186.5,229.9688,190.5,239.9688,194.5,229.9688,190.5,233.9688" style="stroke:#181818;stroke-width:1.0;"/><line style="stroke:#181818;stroke-width:1.0;" x1="190.5" x2="190.5" y1="287.9063" y2="297.9063"/><line style="stroke:#181818;stroke-width:1.0;" x1="190.5" x2="321" y1="297.9063" y2="297.9063"/><polygon fill="#181818" points="317,261.9375,321,251.9375,325,261.9375,321,257.9375" style="stroke:#181818;stroke-width:1.0;"/><line style="stroke:#181818;stroke-width:1.0;" x1="321" x2="321" y1="203.9688" y2="297.9063"/><line style="stroke:#181818;stroke-width:1.0;" x1="321" x2="282.5" y1="203.9688" y2="203.9688"/><polygon fill="#181818" points="292.5,199.9688,282.5,203.9688,292.5,207.9688,288.5,203.9688" style="stroke:#181818;stroke-width:1.0;"/><line style="stroke:#181818;stroke-width:1.0;" x1="98.5" x2="60" y1="203.9688" y2="203.9688"/><polygon fill="#181818" points="56,247.9375,60,257.9375,64,247.9375,60,251.9375" style="stroke:#181818;stroke-width:1.0;"/><line style="stroke:#181818;stroke-width:1.0;" x1="60" x2="60" y1="203.9688" y2="309.9063"/><line style="stroke:#181818;stroke-width:1.0;" x1="60" x2="333" y1="309.9063" y2="309.9063"/><line style="stroke:#181818;stroke-width:1.0;" x1="333" x2="333" y1="159.9688" y2="309.9063"/><line style="stroke:#181818;stroke-width:1.0;" x1="333" x2="271.5" y1="159.9688" y2="159.9688"/><polygon fill="#181818" points="281.5,155.9688,271.5,159.9688,281.5,163.9688,277.5,159.9688" style="stroke:#181818;stroke-width:1.0;"/><line style="stroke:#181818;stroke-width:1.0;" x1="190.5" x2="190.5" y1="171.9688" y2="191.9688"/><polygon fill="#181818" points="186.5,181.9688,190.5,191.9688,194.5,181.9688,190.5,185.9688" style="stroke:#181818;stroke-width:1.0;"/><line style="stroke:#181818;stroke-width:1.0;" x1="109.5" x2="42" y1="159.9688" y2="159.9688"/><polygon fill="#181818" points="38,235.9375,42,245.9375,46,235.9375,42,239.9375" style="stroke:#181818;stroke-width:1.0;"/><line style="stroke:#181818;stroke-width:1.0;" x1="42" x2="42" y1="159.9688" y2="331.9063"/><line style="stroke:#181818;stroke-width:1.0;" x1="42" x2="345" y1="331.9063" y2="331.9063"/><line style="stroke:#181818;stroke-width:1.0;" x1="345" x2="345" y1="115.9688" y2="331.9063"/><line style="stroke:#181818;stroke-width:1.0;" x1="345" x2="277.5" y1="115.9688" y2="115.9688"/><polygon fill="#181818" points="287.5,111.9688,277.5,115.9688,287.5,119.9688,283.5,115.9688" style="stroke:#181818;stroke-width:1.0;"/><line style="stroke:#181818;stroke-width:1.0;" x1="190.5" x2="190.5" y1="127.9688" y2="147.9688"/><polygon fill="#181818" points="186.5,137.9688,190.5,147.9688,194.5,137.9688,190.5,141.9688" style="stroke:#181818;stroke-width:1.0;"/><line style="stroke:#181818;stroke-width:1.0;" x1="103.5" x2="24" y1="115.9688" y2="115.9688"/><polygon fill="#181818" points="20,223.9375,24,233.9375,28,223.9375,24,227.9375" style="stroke:#181818;stroke-width:1.0;"/><line style="stroke:#181818;stroke-width:1.0;" x1="24" x2="24" y1="115.9688" y2="353.9063"/><line style="stroke:#181818;stroke-width:1.0;" x1="24" x2="190.5" y1="353.9063" y2="353.9063"/><line style="stroke:#181818;stroke-width:1.0;" x1="190.5" x2="190.5" y1="353.9063" y2="373.9063"/><polygon fill="#181818" points="186.5,363.9063,190.5,373.9063,194.5,363.9063,190.5,367.9063" style="stroke:#181818;stroke-width:1.0;"/><line style="stroke:#181818;stroke-width:1.0;" x1="190.5" x2="190.5" y1="83.9688" y2="103.9688"/><polygon fill="#181818" points="186.5,93.9688,190.5,103.9688,194.5,93.9688,190.5,97.9688" style="stroke:#181818;stroke-width:1.0;"/><line style="stroke:#181818;stroke-width:1.0;" x1="190.5" x2="190.5" y1="407.875" y2="427.875"/><polygon fill="#181818" points="186.5,417.875,190.5,427.875,194.5,417.875,190.5,421.875" style="stroke:#181818;stroke-width:1.0;"/><!--SRC=[TS-x3i8m30NGFL_XaKxPorHLT849fAx8D1Q959pASLJrxwcW0qFOBFbSFxAYg6bx8LG2fWKw4LpX4hA2jVun59uq91v2L19hZsRn8T9XI08dd3oSQOKRAGJU_Fs5ysQQ6jh0Rglj4MEXtocDQJlde2yYnFhDgWH-0hBRkIPJFvBOVNPKYlPAMeJ_V9SrpMy0]--></g></svg>