<?xml version="1.0" encoding="us-ascii" standalone="no"?><svg xmlns="http://www.w3.org/2000/svg" xmlns:xlink="http://www.w3.org/1999/xlink" contentStyleType="text/css" height="842px" preserveAspectRatio="none" style="width:456px;height:842px;background:#FFFFFF;" version="1.1" viewBox="0 0 456 842" width="456px" zoomAndPan="magnify"><defs/><g><ellipse cx="228" cy="20" fill="#222222" rx="10" ry="10" style="stroke:#222222;stroke-width:1.0;"/><rect fill="#F1F1F1" height="47.9375" rx="12.5" ry="12.5" style="stroke:#181818;stroke-width:0.5;" width="361" x="47.5" y="50"/><text fill="#000000" font-family="sans-serif" font-size="12" lengthAdjust="spacing" textLength="113" x="57.5" y="71.1387">Create Node/ID for</text><text fill="#000000" font-family="sans-serif" font-size="12" font-style="italic" lengthAdjust="spacing" textLength="224" x="174.5" y="71.1387">p0, p1, p21start, p211, p212, p213,</text><text fill="#000000" font-family="sans-serif" font-size="12" font-style="italic" lengthAdjust="spacing" textLength="83" x="57.5" y="85.1074">p21end, p22,</text><text fill="#000000" font-family="sans-serif" font-size="12" lengthAdjust="spacing" textLength="22" x="144.5" y="85.1074">and</text><text fill="#000000" font-family="sans-serif" font-size="12" font-style="italic" lengthAdjust="spacing" textLength="12" x="170.5" y="85.1074">pf</text><rect fill="#F1F1F1" height="33.9688" rx="12.5" ry="12.5" style="stroke:#181818;stroke-width:0.5;" width="274" x="91" y="117.9375"/><text fill="#000000" font-family="sans-serif" font-size="12" lengthAdjust="spacing" textLength="80" x="101" y="139.0762">Add Edge for</text><text fill="#000000" font-family="sans-serif" font-size="12" font-style="italic" lengthAdjust="spacing" textLength="32" x="185" y="139.0762">p0p1</text><text fill="#000000" font-family="sans-serif" font-size="12" lengthAdjust="spacing" textLength="4" x="217" y="139.0762">,</text><text fill="#000000" font-family="sans-serif" font-size="12" font-style="italic" lengthAdjust="spacing" textLength="28" x="225" y="139.0762">p1pf</text><text fill="#000000" font-family="sans-serif" font-size="12" lengthAdjust="spacing" textLength="30" x="253" y="139.0762">, and</text><text fill="#000000" font-family="sans-serif" font-size="12" font-style="italic" lengthAdjust="spacing" textLength="68" x="287" y="139.0762">p0p21start</text><rect fill="#F1F1F1" height="33.9688" rx="12.5" ry="12.5" style="stroke:#181818;stroke-width:0.5;" width="220" x="118" y="171.9063"/><text fill="#000000" font-family="sans-serif" font-size="12" lengthAdjust="spacing" textLength="200" x="128" y="193.0449">Set Edges oneof Attribute to true</text><rect fill="#F1F1F1" height="47.9375" rx="12.5" ry="12.5" style="stroke:#181818;stroke-width:0.5;" width="432" x="12" y="225.875"/><text fill="#000000" font-family="sans-serif" font-size="12" lengthAdjust="spacing" textLength="80" x="22" y="247.0137">Add Edge for</text><text fill="#000000" font-family="sans-serif" font-size="12" font-style="italic" lengthAdjust="spacing" textLength="272" x="106" y="247.0137">p21startp211, p21startp212, p21startp213,</text><text fill="#000000" font-family="sans-serif" font-size="12" font-style="italic" lengthAdjust="spacing" textLength="412" x="22" y="260.9824">p211p21end, p212p21end, p213p21end, p21endpf, p0p22, p22pf</text><rect fill="#F1F1F1" height="47.9375" rx="12.5" ry="12.5" style="stroke:#181818;stroke-width:0.5;" width="241" x="107.5" y="293.8125"/><text fill="#000000" font-family="sans-serif" font-size="12" lengthAdjust="spacing" textLength="221" x="117.5" y="314.9512">Set Edges oneof Attribute to true for</text><text fill="#000000" font-family="sans-serif" font-size="12" font-style="italic" lengthAdjust="spacing" textLength="151" x="117.5" y="328.9199">p21endpf, p0p22, p22pf</text><rect fill="#F1F1F1" height="33.9688" rx="12.5" ry="12.5" style="stroke:#181818;stroke-width:0.5;" width="249" x="103.5" y="361.75"/><text fill="#000000" font-family="sans-serif" font-size="12" lengthAdjust="spacing" textLength="113" x="113.5" y="382.8887">Create Node/ID for</text><text fill="#000000" font-family="sans-serif" font-size="12" font-style="italic" lengthAdjust="spacing" textLength="112" x="230.5" y="382.8887">p231, p232, p233</text><rect fill="#F1F1F1" height="47.9375" rx="12.5" ry="12.5" style="stroke:#181818;stroke-width:0.5;" width="372" x="42" y="415.7188"/><text fill="#000000" font-family="sans-serif" font-size="12" lengthAdjust="spacing" textLength="80" x="52" y="436.8574">Add Edge for</text><text fill="#000000" font-family="sans-serif" font-size="12" font-style="italic" lengthAdjust="spacing" textLength="268" x="136" y="436.8574">p0p231, p0p232, p0p233, p231pf, p232pf,</text><text fill="#000000" font-family="sans-serif" font-size="12" font-style="italic" lengthAdjust="spacing" textLength="44" x="52" y="450.8262">p233pf</text><rect fill="#F1F1F1" height="33.9688" rx="12.5" ry="12.5" style="stroke:#181818;stroke-width:0.5;" width="333" x="61.5" y="483.6563"/><text fill="#000000" font-family="sans-serif" font-size="12" lengthAdjust="spacing" textLength="313" x="71.5" y="504.7949">Set Edge Attribute oneof to true for previous Edges</text><rect fill="#F1F1F1" height="47.9375" rx="12.5" ry="12.5" style="stroke:#181818;stroke-width:0.5;" width="356" x="50" y="537.625"/><text fill="#000000" font-family="sans-serif" font-size="12" lengthAdjust="spacing" textLength="113" x="60" y="558.7637">Create Node/ID for</text><text fill="#000000" font-family="sans-serif" font-size="12" font-style="italic" lengthAdjust="spacing" textLength="219" x="177" y="558.7637">p3start, p31, p32, p3end, p33start,</text><text fill="#000000" font-family="sans-serif" font-size="12" font-style="italic" lengthAdjust="spacing" textLength="112" x="60" y="572.7324">p331, p332, p333</text><rect fill="#F1F1F1" height="61.9063" rx="12.5" ry="12.5" style="stroke:#181818;stroke-width:0.5;" width="434" x="11" y="605.5625"/><text fill="#000000" font-family="sans-serif" font-size="12" lengthAdjust="spacing" textLength="80" x="21" y="626.7012">Add Edge for</text><text fill="#000000" font-family="sans-serif" font-size="12" font-style="italic" lengthAdjust="spacing" textLength="287" x="105" y="626.7012">p0p3start, p3startp31, p3startp32, p31p3end,</text><text fill="#000000" font-family="sans-serif" font-size="12" font-style="italic" lengthAdjust="spacing" textLength="414" x="21" y="640.6699">p32p3end, p3endpf, p3startp33start, p33startp331, p33startp332,</text><text fill="#000000" font-family="sans-serif" font-size="12" font-style="italic" lengthAdjust="spacing" textLength="240" x="21" y="654.6387">p33startp333, p331pf, p332pf, p333pf</text><rect fill="#F1F1F1" height="47.9375" rx="12.5" ry="12.5" style="stroke:#181818;stroke-width:0.5;" width="392" x="32" y="687.4688"/><text fill="#000000" font-family="sans-serif" font-size="12" lengthAdjust="spacing" textLength="221" x="42" y="708.6074">Set Edges Attribute oneof to true for</text><text fill="#000000" font-family="sans-serif" font-size="12" font-style="italic" lengthAdjust="spacing" textLength="147" x="267" y="708.6074">p3endpf, p33startp311,</text><text fill="#000000" font-family="sans-serif" font-size="12" font-style="italic" lengthAdjust="spacing" textLength="332" x="42" y="722.5762">p33startp332, p33startp333, p331pf, p332pf, p333pf</text><rect fill="#F1F1F1" height="33.9688" rx="12.5" ry="12.5" style="stroke:#181818;stroke-width:0.5;" width="106" x="175" y="755.4063"/><text fill="#000000" font-family="sans-serif" font-size="12" lengthAdjust="spacing" textLength="86" x="185" y="776.5449">Return pfNode</text><ellipse cx="228" cy="820.375" fill="none" rx="11" ry="11" style="stroke:#222222;stroke-width:1.0;"/><ellipse cx="228" cy="820.375" fill="#222222" rx="6" ry="6" style="stroke:#222222;stroke-width:1.0;"/><line style="stroke:#181818;stroke-width:1.0;" x1="228" x2="228" y1="30" y2="50"/><polygon fill="#181818" points="224,40,228,50,232,40,228,44" style="stroke:#181818;stroke-width:1.0;"/><line style="stroke:#181818;stroke-width:1.0;" x1="228" x2="228" y1="97.9375" y2="117.9375"/><polygon fill="#181818" points="224,107.9375,228,117.9375,232,107.9375,228,111.9375" style="stroke:#181818;stroke-width:1.0;"/><line style="stroke:#181818;stroke-width:1.0;" x1="228" x2="228" y1="151.9063" y2="171.9063"/><polygon fill="#181818" points="224,161.9063,228,171.9063,232,161.9063,228,165.9063" style="stroke:#181818;stroke-width:1.0;"/><line style="stroke:#181818;stroke-width:1.0;" x1="228" x2="228" y1="205.875" y2="225.875"/><polygon fill="#181818" points="224,215.875,228,225.875,232,215.875,228,219.875" style="stroke:#181818;stroke-width:1.0;"/><line style="stroke:#181818;stroke-width:1.0;" x1="228" x2="228" y1="273.8125" y2="293.8125"/><polygon fill="#181818" points="224,283.8125,228,293.8125,232,283.8125,228,287.8125" style="stroke:#181818;stroke-width:1.0;"/><line style="stroke:#181818;stroke-width:1.0;" x1="228" x2="228" y1="341.75" y2="361.75"/><polygon fill="#181818" points="224,351.75,228,361.75,232,351.75,228,355.75" style="stroke:#181818;stroke-width:1.0;"/><line style="stroke:#181818;stroke-width:1.0;" x1="228" x2="228" y1="395.7188" y2="415.7188"/><polygon fill="#181818" points="224,405.7188,228,415.7188,232,405.7188,228,409.7188" style="stroke:#181818;stroke-width:1.0;"/><line style="stroke:#181818;stroke-width:1.0;" x1="228" x2="228" y1="463.6563" y2="483.6563"/><polygon fill="#181818" points="224,473.6563,228,483.6563,232,473.6563,228,477.6563" style="stroke:#181818;stroke-width:1.0;"/><line style="stroke:#181818;stroke-width:1.0;" x1="228" x2="228" y1="517.625" y2="537.625"/><polygon fill="#181818" points="224,527.625,228,537.625,232,527.625,228,531.625" style="stroke:#181818;stroke-width:1.0;"/><line style="stroke:#181818;stroke-width:1.0;" x1="228" x2="228" y1="585.5625" y2="605.5625"/><polygon fill="#181818" points="224,595.5625,228,605.5625,232,595.5625,228,599.5625" style="stroke:#181818;stroke-width:1.0;"/><line style="stroke:#181818;stroke-width:1.0;" x1="228" x2="228" y1="667.4688" y2="687.4688"/><polygon fill="#181818" points="224,677.4688,228,687.4688,232,677.4688,228,681.4688" style="stroke:#181818;stroke-width:1.0;"/><line style="stroke:#181818;stroke-width:1.0;" x1="228" x2="228" y1="735.4063" y2="755.4063"/><polygon fill="#181818" points="224,745.4063,228,755.4063,232,745.4063,228,749.4063" style="stroke:#181818;stroke-width:1.0;"/><line style="stroke:#181818;stroke-width:1.0;" x1="228" x2="228" y1="789.375" y2="809.375"/><polygon fill="#181818" points="224,799.375,228,809.375,232,799.375,228,803.375" style="stroke:#181818;stroke-width:1.0;"/><!--SRC=[XPAnSeCm38Ptdi8Fm9sHjILJhktGfKFx1EHiUbcmpvWyVst9Df10Ee0b-PVqIJ25teVczEPD7upuijh8ptSnM2-aT5qh7CH7mPHaPB6lw8sjb4tKAJ2ZJX4L0w8VTKeUf3mtfulMuaF_cbhIWPHjiY0fsgBkIXFA-Z61iYPXHsC7SGd1twvp90nM13-RdSevlo8MJssy1HaMR50h6rTsFDqGhIwDbkRBK_tBHr1rDRirzbUkaEYHf8W7EsHLbtNfHD83TOhHUEOv4H-OLx0ClqPstjnlTfvukaDABFy3SH04yiumNt5tv7iM74wpLEEln4dPfbJWyhcegitARejugLGZiF5K1IiHf7jU7DBY2FNfGx_QMYfOKUeGyDHBRLXUT_usOVQZS4DQ_RcPWdL_]--></g></svg>