<?xml version="1.0" encoding="us-ascii" standalone="no"?><svg xmlns="http://www.w3.org/2000/svg" xmlns:xlink="http://www.w3.org/1999/xlink" contentStyleType="text/css" height="365px" preserveAspectRatio="none" style="width:318px;height:365px;background:#FFFFFF;" version="1.1" viewBox="0 0 318 365" width="318px" zoomAndPan="magnify"><defs/><g><ellipse cx="150" cy="20" fill="#222222" rx="10" ry="10" style="stroke:#222222;stroke-width:1.0;"/><rect fill="#F1F1F1" height="33.9688" rx="12.5" ry="12.5" style="stroke:#181818;stroke-width:0.5;" width="91" x="104.5" y="98.4023"/><text fill="#000000" font-family="sans-serif" font-size="12" lengthAdjust="spacing" textLength="71" x="114.5" y="119.541">Return false</text><ellipse cx="150" cy="171.8867" fill="none" rx="11" ry="11" style="stroke:#222222;stroke-width:1.0;"/><ellipse cx="150" cy="171.8867" fill="#222222" rx="6" ry="6" style="stroke:#222222;stroke-width:1.0;"/><polygon fill="#F1F1F1" points="32,50,268,50,280,62,268,74,32,74,20,62,32,50" style="stroke:#181818;stroke-width:0.5;"/><text fill="#000000" font-family="sans-serif" font-size="11" lengthAdjust="spacing" textLength="21" x="154" y="84.2104">yes</text><text fill="#000000" font-family="sans-serif" font-size="11" lengthAdjust="spacing" textLength="236" x="32" y="65.8081">Edge Does Not have the OneOf Attribute</text><rect fill="#F1F1F1" height="33.9688" rx="12.5" ry="12.5" style="stroke:#181818;stroke-width:0.5;" width="206" x="47" y="224.8867"/><text fill="#000000" font-family="sans-serif" font-size="12" lengthAdjust="spacing" textLength="186" x="57" y="246.0254">Get OneOf Attribute from Edge</text><rect fill="#F1F1F1" height="33.9688" rx="12.5" ry="12.5" style="stroke:#181818;stroke-width:0.5;" width="156" x="72" y="278.8555"/><text fill="#000000" font-family="sans-serif" font-size="12" lengthAdjust="spacing" textLength="136" x="82" y="299.9941">Return OneOf Attribute</text><ellipse cx="150" cy="343.8242" fill="none" rx="11" ry="11" style="stroke:#222222;stroke-width:1.0;"/><ellipse cx="150" cy="343.8242" fill="#222222" rx="6" ry="6" style="stroke:#222222;stroke-width:1.0;"/><line style="stroke:#181818;stroke-width:1.0;" x1="150" x2="150" y1="132.3711" y2="160.8867"/><polygon fill="#181818" points="146,150.8867,150,160.8867,154,150.8867,150,154.8867" style="stroke:#181818;stroke-width:1.0;"/><line style="stroke:#181818;stroke-width:1.0;" x1="150" x2="150" y1="74" y2="98.4023"/><polygon fill="#181818" points="146,88.4023,150,98.4023,154,88.4023,150,92.4023" style="stroke:#181818;stroke-width:1.0;"/><line style="stroke:#181818;stroke-width:1.0;" x1="280" x2="292" y1="62" y2="62"/><polygon fill="#181818" points="288,130.8867,292,140.8867,296,130.8867,292,134.8867" style="stroke:#181818;stroke-width:1.0;"/><line style="stroke:#181818;stroke-width:1.0;" x1="292" x2="292" y1="62" y2="204.8867"/><line style="stroke:#181818;stroke-width:1.0;" x1="292" x2="150" y1="204.8867" y2="204.8867"/><line style="stroke:#181818;stroke-width:1.0;" x1="150" x2="150" y1="204.8867" y2="224.8867"/><polygon fill="#181818" points="146,214.8867,150,224.8867,154,214.8867,150,218.8867" style="stroke:#181818;stroke-width:1.0;"/><line style="stroke:#181818;stroke-width:1.0;" x1="150" x2="150" y1="30" y2="50"/><polygon fill="#181818" points="146,40,150,50,154,40,150,44" style="stroke:#181818;stroke-width:1.0;"/><line style="stroke:#181818;stroke-width:1.0;" x1="150" x2="150" y1="258.8555" y2="278.8555"/><polygon fill="#181818" points="146,268.8555,150,278.8555,154,268.8555,150,272.8555" style="stroke:#181818;stroke-width:1.0;"/><line style="stroke:#181818;stroke-width:1.0;" x1="150" x2="150" y1="312.8242" y2="332.8242"/><polygon fill="#181818" points="146,322.8242,150,332.8242,154,322.8242,150,326.8242" style="stroke:#181818;stroke-width:1.0;"/><!--SRC=[NOr12i9040Jlyue-9bz8JeBYpO0_M4cFMT1TsUa8_bw2u27Negihb9eiUtUQxyInCd2fmfBUX1PYAfmS1wdbsohs6opeFepUXYkrjW9FZ-1eeVeobZcx3MTghy9RVMBBZ7zpD_bzV040]--></g></svg>