<?xml version="1.0" encoding="us-ascii" standalone="no"?><svg xmlns="http://www.w3.org/2000/svg" xmlns:xlink="http://www.w3.org/1999/xlink" contentStyleType="text/css" height="269px" preserveAspectRatio="none" style="width:259px;height:269px;background:#FFFFFF;" version="1.1" viewBox="0 0 259 269" width="259px" zoomAndPan="magnify"><defs/><g><ellipse cx="133" cy="20" fill="#222222" rx="10" ry="10" style="stroke:#222222;stroke-width:1.0;"/><rect fill="#F1F1F1" height="33.9688" rx="12.5" ry="12.5" style="stroke:#181818;stroke-width:0.5;" width="82" x="92" y="50"/><text fill="#000000" font-family="sans-serif" font-size="12" lengthAdjust="spacing" textLength="25" x="102" y="71.1387">Print</text><text fill="#000000" font-family="sans-serif" font-size="12" font-style="italic" lengthAdjust="spacing" textLength="33" x="131" y="71.1387">_map</text><rect fill="#F1F1F1" height="33.9688" rx="12.5" ry="12.5" style="stroke:#181818;stroke-width:0.5;" width="134" x="66" y="103.9688"/><text fill="#000000" font-family="sans-serif" font-size="12" lengthAdjust="spacing" textLength="114" x="76" y="125.1074">Get Function String</text><rect fill="#F1F1F1" height="33.9688" rx="12.5" ry="12.5" style="stroke:#181818;stroke-width:0.5;" width="176" x="45" y="201.9375"/><text fill="#000000" font-family="sans-serif" font-size="12" lengthAdjust="spacing" textLength="156" x="55" y="223.0762">Print Function and Number</text><polygon fill="#F1F1F1" points="59,157.9375,207,157.9375,219,169.9375,207,181.9375,59,181.9375,47,169.9375,59,157.9375" style="stroke:#181818;stroke-width:0.5;"/><text fill="#000000" font-family="sans-serif" font-size="11" lengthAdjust="spacing" textLength="113" x="59" y="173.7456">For Each Function in</text><text fill="#000000" font-family="sans-serif" font-size="11" font-style="italic" lengthAdjust="spacing" textLength="31" x="176" y="173.7456">_map</text><ellipse cx="24" cy="212.9375" fill="none" rx="11" ry="11" style="stroke:#222222;stroke-width:1.0;"/><ellipse cx="24" cy="212.9375" fill="#222222" rx="6" ry="6" style="stroke:#222222;stroke-width:1.0;"/><line style="stroke:#181818;stroke-width:1.0;" x1="133" x2="133" y1="30" y2="50"/><polygon fill="#181818" points="129,40,133,50,137,40,133,44" style="stroke:#181818;stroke-width:1.0;"/><line style="stroke:#181818;stroke-width:1.0;" x1="133" x2="133" y1="83.9688" y2="103.9688"/><polygon fill="#181818" points="129,93.9688,133,103.9688,137,93.9688,133,97.9688" style="stroke:#181818;stroke-width:1.0;"/><line style="stroke:#181818;stroke-width:1.0;" x1="133" x2="133" y1="181.9375" y2="201.9375"/><polygon fill="#181818" points="129,191.9375,133,201.9375,137,191.9375,133,195.9375" style="stroke:#181818;stroke-width:1.0;"/><line style="stroke:#181818;stroke-width:1.0;" x1="133" x2="133" y1="235.9063" y2="245.9063"/><line style="stroke:#181818;stroke-width:1.0;" x1="133" x2="233" y1="245.9063" y2="245.9063"/><polygon fill="#181818" points="229,216.9219,233,206.9219,237,216.9219,233,212.9219" style="stroke:#181818;stroke-width:1.0;"/><line style="stroke:#181818;stroke-width:1.0;" x1="233" x2="233" y1="169.9375" y2="245.9063"/><line style="stroke:#181818;stroke-width:1.0;" x1="233" x2="219" y1="169.9375" y2="169.9375"/><polygon fill="#181818" points="229,165.9375,219,169.9375,229,173.9375,225,169.9375" style="stroke:#181818;stroke-width:1.0;"/><line style="stroke:#181818;stroke-width:1.0;" x1="47" x2="24" y1="169.9375" y2="169.9375"/><line style="stroke:#181818;stroke-width:1.0;" x1="24" x2="24" y1="169.9375" y2="201.9375"/><polygon fill="#181818" points="20,191.9375,24,201.9375,28,191.9375,24,195.9375" style="stroke:#181818;stroke-width:1.0;"/><line style="stroke:#181818;stroke-width:1.0;" x1="133" x2="133" y1="137.9375" y2="157.9375"/><polygon fill="#181818" points="129,147.9375,133,157.9375,137,147.9375,133,151.9375" style="stroke:#181818;stroke-width:1.0;"/><!--SRC=[Aov9B2hXiWeeoimhKT3NZyzDBD3Nj-QoSayjKN0hpKikoSpFKmWk0KgdMtELPsJcf6guvHSfk2OcPo3aC_FWMZLXPi4b4_DI5FnASvDIYwovKlDIm6Pm5PVa5m00]--></g></svg>