<?xml version="1.0" encoding="us-ascii" standalone="no"?><svg xmlns="http://www.w3.org/2000/svg" xmlns:xlink="http://www.w3.org/1999/xlink" contentStyleType="text/css" height="460px" preserveAspectRatio="none" style="width:269px;height:460px;background:#FFFFFF;" version="1.1" viewBox="0 0 269 460" width="269px" zoomAndPan="magnify"><defs/><g><ellipse cx="134.5" cy="20" fill="#222222" rx="10" ry="10" style="stroke:#222222;stroke-width:1.0;"/><rect fill="#F1F1F1" height="33.9688" rx="12.5" ry="12.5" style="stroke:#181818;stroke-width:0.5;" width="181" x="44" y="50"/><text fill="#000000" font-family="sans-serif" font-size="12" lengthAdjust="spacing" textLength="161" x="54" y="71.1387">Construct Graph2AlloyExpr</text><rect fill="#F1F1F1" height="33.9688" rx="12.5" ry="12.5" style="stroke:#181818;stroke-width:0.5;" width="81" x="94" y="103.9688"/><text fill="#000000" font-family="sans-serif" font-size="12" lengthAdjust="spacing" textLength="61" x="104" y="125.1074">Get Graph</text><rect fill="#F1F1F1" height="33.9688" rx="12.5" ry="12.5" style="stroke:#181818;stroke-width:0.5;" width="104" x="82.5" y="157.9375"/><text fill="#000000" font-family="sans-serif" font-size="12" lengthAdjust="spacing" textLength="84" x="92.5" y="179.0762">Display Graph</text><rect fill="#F1F1F1" height="33.9688" rx="12.5" ry="12.5" style="stroke:#181818;stroke-width:0.5;" width="198" x="35.5" y="211.9063"/><text fill="#000000" font-family="sans-serif" font-size="12" lengthAdjust="spacing" textLength="178" x="45.5" y="233.0449">Get Happens Before Function</text><rect fill="#F1F1F1" height="33.9688" rx="12.5" ry="12.5" style="stroke:#181818;stroke-width:0.5;" width="148" x="60.5" y="265.875"/><text fill="#000000" font-family="sans-serif" font-size="12" lengthAdjust="spacing" textLength="128" x="70.5" y="287.0137">Print Happens Before</text><rect fill="#F1F1F1" height="33.9688" rx="12.5" ry="12.5" style="stroke:#181818;stroke-width:0.5;" width="247" x="11" y="319.8438"/><text fill="#000000" font-family="sans-serif" font-size="12" lengthAdjust="spacing" textLength="227" x="21" y="340.9824">Get Happens Before Inverse Function</text><rect fill="#F1F1F1" height="33.9688" rx="12.5" ry="12.5" style="stroke:#181818;stroke-width:0.5;" width="197" x="36" y="373.8125"/><text fill="#000000" font-family="sans-serif" font-size="12" lengthAdjust="spacing" textLength="177" x="46" y="394.9512">Print Happens Before Inverse</text><ellipse cx="134.5" cy="438.7813" fill="none" rx="11" ry="11" style="stroke:#222222;stroke-width:1.0;"/><ellipse cx="134.5" cy="438.7813" fill="#222222" rx="6" ry="6" style="stroke:#222222;stroke-width:1.0;"/><line style="stroke:#181818;stroke-width:1.0;" x1="134.5" x2="134.5" y1="30" y2="50"/><polygon fill="#181818" points="130.5,40,134.5,50,138.5,40,134.5,44" style="stroke:#181818;stroke-width:1.0;"/><line style="stroke:#181818;stroke-width:1.0;" x1="134.5" x2="134.5" y1="83.9688" y2="103.9688"/><polygon fill="#181818" points="130.5,93.9688,134.5,103.9688,138.5,93.9688,134.5,97.9688" style="stroke:#181818;stroke-width:1.0;"/><line style="stroke:#181818;stroke-width:1.0;" x1="134.5" x2="134.5" y1="137.9375" y2="157.9375"/><polygon fill="#181818" points="130.5,147.9375,134.5,157.9375,138.5,147.9375,134.5,151.9375" style="stroke:#181818;stroke-width:1.0;"/><line style="stroke:#181818;stroke-width:1.0;" x1="134.5" x2="134.5" y1="191.9063" y2="211.9063"/><polygon fill="#181818" points="130.5,201.9063,134.5,211.9063,138.5,201.9063,134.5,205.9063" style="stroke:#181818;stroke-width:1.0;"/><line style="stroke:#181818;stroke-width:1.0;" x1="134.5" x2="134.5" y1="245.875" y2="265.875"/><polygon fill="#181818" points="130.5,255.875,134.5,265.875,138.5,255.875,134.5,259.875" style="stroke:#181818;stroke-width:1.0;"/><line style="stroke:#181818;stroke-width:1.0;" x1="134.5" x2="134.5" y1="299.8438" y2="319.8438"/><polygon fill="#181818" points="130.5,309.8438,134.5,319.8438,138.5,309.8438,134.5,313.8438" style="stroke:#181818;stroke-width:1.0;"/><line style="stroke:#181818;stroke-width:1.0;" x1="134.5" x2="134.5" y1="353.8125" y2="373.8125"/><polygon fill="#181818" points="130.5,363.8125,134.5,373.8125,138.5,363.8125,134.5,367.8125" style="stroke:#181818;stroke-width:1.0;"/><line style="stroke:#181818;stroke-width:1.0;" x1="134.5" x2="134.5" y1="407.7813" y2="427.7813"/><polygon fill="#181818" points="130.5,417.7813,134.5,427.7813,138.5,417.7813,134.5,421.7813" style="stroke:#181818;stroke-width:1.0;"/><!--SRC=[Aov9B2hXidBEpoikAIfDBb5mBqeio31opCd9htIjA2Yovh9oJuMA0jakcSK5EOcLS3v8pYEne20rhrZ1AJKjloXLmQqqBxaaCpyFA1jGb9c7BezTasTUMMfHCK7DC7NMNCKb-GK0]--></g></svg>