<?xml version="1.0" encoding="us-ascii" standalone="no"?><svg xmlns="http://www.w3.org/2000/svg" xmlns:xlink="http://www.w3.org/1999/xlink" contentStyleType="text/css" height="352px" preserveAspectRatio="none" style="width:190px;height:352px;background:#FFFFFF;" version="1.1" viewBox="0 0 190 352" width="190px" zoomAndPan="magnify"><defs/><g><ellipse cx="95" cy="20" fill="#222222" rx="10" ry="10" style="stroke:#222222;stroke-width:1.0;"/><rect fill="#F1F1F1" height="33.9688" rx="12.5" ry="12.5" style="stroke:#181818;stroke-width:0.5;" width="112" x="39" y="50"/><text fill="#000000" font-family="sans-serif" font-size="12" lengthAdjust="spacing" textLength="92" x="49" y="71.1387">Create Node ID</text><rect fill="#F1F1F1" height="33.9688" rx="12.5" ry="12.5" style="stroke:#181818;stroke-width:0.5;" width="136" x="27" y="103.9688"/><text fill="#000000" font-family="sans-serif" font-size="12" lengthAdjust="spacing" textLength="76" x="37" y="125.1074">Add Node to</text><text fill="#000000" font-family="sans-serif" font-size="12" font-style="italic" lengthAdjust="spacing" textLength="36" x="117" y="125.1074">graph</text><rect fill="#F1F1F1" height="33.9688" rx="12.5" ry="12.5" style="stroke:#181818;stroke-width:0.5;" width="168" x="11" y="157.9375"/><text fill="#000000" font-family="sans-serif" font-size="12" lengthAdjust="spacing" textLength="110" x="21" y="179.0762">Set Node Name to</text><text fill="#000000" font-family="sans-serif" font-size="12" font-style="italic" lengthAdjust="spacing" textLength="34" x="135" y="179.0762">name</text><rect fill="#F1F1F1" height="33.9688" rx="12.5" ry="12.5" style="stroke:#181818;stroke-width:0.5;" width="157" x="16.5" y="211.9063"/><text fill="#000000" font-family="sans-serif" font-size="12" lengthAdjust="spacing" textLength="106" x="26.5" y="233.0449">Set Node Type to</text><text fill="#000000" font-family="sans-serif" font-size="12" font-style="italic" lengthAdjust="spacing" textLength="27" x="136.5" y="233.0449">type</text><rect fill="#F1F1F1" height="33.9688" rx="12.5" ry="12.5" style="stroke:#181818;stroke-width:0.5;" width="94" x="48" y="265.875"/><text fill="#000000" font-family="sans-serif" font-size="12" lengthAdjust="spacing" textLength="74" x="58" y="287.0137">Return Node</text><ellipse cx="95" cy="330.8438" fill="none" rx="11" ry="11" style="stroke:#222222;stroke-width:1.0;"/><ellipse cx="95" cy="330.8438" fill="#222222" rx="6" ry="6" style="stroke:#222222;stroke-width:1.0;"/><line style="stroke:#181818;stroke-width:1.0;" x1="95" x2="95" y1="30" y2="50"/><polygon fill="#181818" points="91,40,95,50,99,40,95,44" style="stroke:#181818;stroke-width:1.0;"/><line style="stroke:#181818;stroke-width:1.0;" x1="95" x2="95" y1="83.9688" y2="103.9688"/><polygon fill="#181818" points="91,93.9688,95,103.9688,99,93.9688,95,97.9688" style="stroke:#181818;stroke-width:1.0;"/><line style="stroke:#181818;stroke-width:1.0;" x1="95" x2="95" y1="137.9375" y2="157.9375"/><polygon fill="#181818" points="91,147.9375,95,157.9375,99,147.9375,95,151.9375" style="stroke:#181818;stroke-width:1.0;"/><line style="stroke:#181818;stroke-width:1.0;" x1="95" x2="95" y1="191.9063" y2="211.9063"/><polygon fill="#181818" points="91,201.9063,95,211.9063,99,201.9063,95,205.9063" style="stroke:#181818;stroke-width:1.0;"/><line style="stroke:#181818;stroke-width:1.0;" x1="95" x2="95" y1="245.875" y2="265.875"/><polygon fill="#181818" points="91,255.875,95,265.875,99,255.875,95,259.875" style="stroke:#181818;stroke-width:1.0;"/><line style="stroke:#181818;stroke-width:1.0;" x1="95" x2="95" y1="299.8438" y2="319.8438"/><polygon fill="#181818" points="91,309.8438,95,319.8438,99,309.8438,95,313.8438" style="stroke:#181818;stroke-width:1.0;"/><!--SRC=[Aov9B2hXid8kIaqiILNmoqz9LV1qiUQoSan9WV1AyXNqzTEB4WiozFM1ui6f9H1nlyHSg6GUa8Kg5r9P09Kh0RB0Sa6f9QL5UM1fQwxYalm20000]--></g></svg>