<?xml version="1.0" encoding="us-ascii" standalone="no"?><svg xmlns="http://www.w3.org/2000/svg" xmlns:xlink="http://www.w3.org/1999/xlink" contentStyleType="text/css" height="782px" preserveAspectRatio="none" style="width:949px;height:782px;background:#FFFFFF;" version="1.1" viewBox="0 0 949 782" width="949px" zoomAndPan="magnify"><defs/><g><ellipse cx="462.5" cy="20" fill="#222222" rx="10" ry="10" style="stroke:#222222;stroke-width:1.0;"/><rect fill="#F1F1F1" height="33.9688" rx="12.5" ry="12.5" style="stroke:#181818;stroke-width:0.5;" width="123" x="401" y="50"/><text fill="#000000" font-family="sans-serif" font-size="12" lengthAdjust="spacing" textLength="103" x="411" y="71.1387">Construct ONode</text><rect fill="#F1F1F1" height="33.9688" rx="12.5" ry="12.5" style="stroke:#181818;stroke-width:0.5;" width="141" x="392" y="103.9688"/><text fill="#000000" font-family="sans-serif" font-size="12" lengthAdjust="spacing" textLength="25" x="402" y="125.1074">Print</text><text fill="#000000" font-family="sans-serif" font-size="12" font-style="italic" lengthAdjust="spacing" textLength="37" x="431" y="125.1074">target</text><text fill="#000000" font-family="sans-serif" font-size="12" lengthAdjust="spacing" textLength="51" x="472" y="125.1074">Attribute</text><polygon fill="#F1F1F1" points="200,157.9375,351,157.9375,363,169.9375,351,181.9375,200,181.9375,188,169.9375,200,157.9375" style="stroke:#181818;stroke-width:0.5;"/><text fill="#000000" font-family="sans-serif" font-size="11" lengthAdjust="spacing" textLength="21" x="279.5" y="192.1479">yes</text><text fill="#000000" font-family="sans-serif" font-size="11" font-style="italic" lengthAdjust="spacing" textLength="34" x="200" y="173.7456">target</text><text fill="#000000" font-family="sans-serif" font-size="11" lengthAdjust="spacing" textLength="113" x="238" y="173.7456">has 1 Leaving Edge</text><rect fill="#F1F1F1" height="33.9688" rx="12.5" ry="12.5" style="stroke:#181818;stroke-width:0.5;" width="117" x="217" y="213.6479"/><text fill="#000000" font-family="sans-serif" font-size="12" lengthAdjust="spacing" textLength="21" x="227" y="234.7866">Get</text><text fill="#000000" font-family="sans-serif" font-size="12" font-style="italic" lengthAdjust="spacing" textLength="37" x="252" y="234.7866">target</text><text fill="#000000" font-family="sans-serif" font-size="12" lengthAdjust="spacing" textLength="31" x="293" y="234.7866">Edge</text><rect fill="#F1F1F1" height="33.9688" rx="12.5" ry="12.5" style="stroke:#181818;stroke-width:0.5;" width="188" x="181.5" y="267.6167"/><text fill="#000000" font-family="sans-serif" font-size="12" lengthAdjust="spacing" textLength="168" x="191.5" y="288.7554">Get the Edge's Target Node</text><polygon fill="#F1F1F1" points="232,384.9878,319,384.9878,331,396.9878,319,408.9878,232,408.9878,220,396.9878,232,384.9878" style="stroke:#181818;stroke-width:0.5;"/><text fill="#000000" font-family="sans-serif" font-size="11" lengthAdjust="spacing" textLength="87" x="232" y="400.7959">Edge is One Of</text><text fill="#000000" font-family="sans-serif" font-size="11" lengthAdjust="spacing" textLength="21" x="199" y="394.3936">yes</text><text fill="#000000" font-family="sans-serif" font-size="11" lengthAdjust="spacing" textLength="14" x="331" y="394.3936">no</text><rect fill="#F1F1F1" height="33.9688" rx="12.5" ry="12.5" style="stroke:#181818;stroke-width:0.5;" width="160" x="75" y="418.9878"/><text fill="#000000" font-family="sans-serif" font-size="12" lengthAdjust="spacing" textLength="58" x="85" y="440.1265">Create int</text><text fill="#000000" font-family="sans-serif" font-size="12" font-style="italic" lengthAdjust="spacing" textLength="78" x="147" y="440.1265">numOfOneOf</text><polygon fill="#F1F1F1" points="101.5,487.9565,208.5,487.9565,220.5,499.9565,208.5,511.9565,101.5,511.9565,89.5,499.9565,101.5,487.9565" style="stroke:#181818;stroke-width:0.5;"/><text fill="#000000" font-family="sans-serif" font-size="11" font-style="italic" lengthAdjust="spacing" textLength="74" x="101.5" y="503.7646">numOfOneOf</text><text fill="#000000" font-family="sans-serif" font-size="11" lengthAdjust="spacing" textLength="29" x="179.5" y="503.7646">== 0</text><text fill="#000000" font-family="sans-serif" font-size="11" lengthAdjust="spacing" textLength="21" x="68.5" y="497.3623">yes</text><text fill="#000000" font-family="sans-serif" font-size="11" lengthAdjust="spacing" textLength="14" x="220.5" y="497.3623">no</text><rect fill="#F1F1F1" height="33.9688" rx="12.5" ry="12.5" style="stroke:#181818;stroke-width:0.5;" width="134" x="11" y="521.9565"/><text fill="#000000" font-family="sans-serif" font-size="12" lengthAdjust="spacing" textLength="114" x="21" y="543.0952">Return New ONode</text><ellipse cx="78" cy="601.9253" fill="none" rx="11" ry="11" style="stroke:#222222;stroke-width:1.0;"/><ellipse cx="78" cy="601.9253" fill="#222222" rx="6" ry="6" style="stroke:#222222;stroke-width:1.0;"/><rect fill="#F1F1F1" height="33.9688" rx="12.5" ry="12.5" style="stroke:#181818;stroke-width:0.5;" width="134" x="165" y="521.9565"/><text fill="#000000" font-family="sans-serif" font-size="12" lengthAdjust="spacing" textLength="114" x="175" y="543.0952">Return New ONode</text><ellipse cx="232" cy="601.9253" fill="none" rx="11" ry="11" style="stroke:#222222;stroke-width:1.0;"/><ellipse cx="232" cy="601.9253" fill="#222222" rx="6" ry="6" style="stroke:#222222;stroke-width:1.0;"/><rect fill="#F1F1F1" height="33.9688" rx="12.5" ry="12.5" style="stroke:#181818;stroke-width:0.5;" width="134" x="329" y="418.9878"/><text fill="#000000" font-family="sans-serif" font-size="12" lengthAdjust="spacing" textLength="114" x="339" y="440.1265">Return New ONode</text><ellipse cx="396" cy="498.9565" fill="none" rx="11" ry="11" style="stroke:#222222;stroke-width:1.0;"/><ellipse cx="396" cy="498.9565" fill="#222222" rx="6" ry="6" style="stroke:#222222;stroke-width:1.0;"/><polygon fill="#F1F1F1" points="148.5,336.5854,402.5,336.5854,414.5,348.5854,402.5,360.5854,148.5,360.5854,136.5,348.5854,148.5,336.5854" style="stroke:#181818;stroke-width:0.5;"/><text fill="#000000" font-family="sans-serif" font-size="11" lengthAdjust="spacing" textLength="21" x="279.5" y="370.7959">yes</text><text fill="#000000" font-family="sans-serif" font-size="11" lengthAdjust="spacing" textLength="254" x="148.5" y="352.3936">Target Node has More Than 1 Entering Edge</text><polygon fill="#F1F1F1" points="550,157.9375,768,157.9375,780,169.9375,768,181.9375,550,181.9375,538,169.9375,550,157.9375" style="stroke:#181818;stroke-width:0.5;"/><text fill="#000000" font-family="sans-serif" font-size="11" lengthAdjust="spacing" textLength="21" x="663" y="192.1479">yes</text><text fill="#000000" font-family="sans-serif" font-size="11" lengthAdjust="spacing" textLength="218" x="550" y="173.7456">Target has More Than 1 Leaving Edge</text><text fill="#000000" font-family="sans-serif" font-size="11" lengthAdjust="spacing" textLength="14" x="780" y="167.3433">no</text><rect fill="#F1F1F1" height="33.9688" rx="12.5" ry="12.5" style="stroke:#181818;stroke-width:0.5;" width="149" x="584.5" y="213.6479"/><text fill="#000000" font-family="sans-serif" font-size="12" lengthAdjust="spacing" textLength="129" x="594.5" y="234.7866">Create New OListAND</text><rect fill="#F1F1F1" height="33.9688" rx="12.5" ry="12.5" style="stroke:#181818;stroke-width:0.5;" width="124" x="597" y="315.6167"/><text fill="#000000" font-family="sans-serif" font-size="12" lengthAdjust="spacing" textLength="104" x="607" y="336.7554">Get Current Edge</text><rect fill="#F1F1F1" height="33.9688" rx="12.5" ry="12.5" style="stroke:#181818;stroke-width:0.5;" width="165" x="576.5" y="384.5854"/><text fill="#000000" font-family="sans-serif" font-size="12" lengthAdjust="spacing" textLength="145" x="586.5" y="405.7241">Get Edge's Target Node</text><rect fill="#F1F1F1" height="33.9688" rx="12.5" ry="12.5" style="stroke:#181818;stroke-width:0.5;" width="198" x="560" y="453.5542"/><text fill="#000000" font-family="sans-serif" font-size="12" lengthAdjust="spacing" textLength="178" x="570" y="474.6929">Add Target Node to OListAND</text><polygon fill="#F1F1F1" points="551,267.6167,767,267.6167,779,279.6167,767,291.6167,551,291.6167,539,279.6167,551,267.6167" style="stroke:#181818;stroke-width:0.5;"/><text fill="#000000" font-family="sans-serif" font-size="11" lengthAdjust="spacing" textLength="216" x="551" y="283.4248">For Each of Leading Edge from Target</text><rect fill="#F1F1F1" height="33.9688" rx="12.5" ry="12.5" style="stroke:#181818;stroke-width:0.5;" width="117" x="600.5" y="546.5229"/><text fill="#000000" font-family="sans-serif" font-size="12" lengthAdjust="spacing" textLength="97" x="610.5" y="567.6616">Return OListAND</text><ellipse cx="659" cy="626.4917" fill="none" rx="11" ry="11" style="stroke:#222222;stroke-width:1.0;"/><ellipse cx="659" cy="626.4917" fill="#222222" rx="6" ry="6" style="stroke:#222222;stroke-width:1.0;"/><rect fill="#F1F1F1" height="33.9688" rx="12.5" ry="12.5" style="stroke:#181818;stroke-width:0.5;" width="133" x="805" y="406.6011"/><text fill="#000000" font-family="sans-serif" font-size="12" lengthAdjust="spacing" textLength="113" x="815" y="427.7397">Return new ONode</text><rect fill="#F1F1F1" height="33.9688" rx="12.5" ry="12.5" style="stroke:#181818;stroke-width:0.5;" width="82" x="421.5" y="695.3276"/><text fill="#000000" font-family="sans-serif" font-size="12" lengthAdjust="spacing" textLength="62" x="431.5" y="716.4663">Return null</text><ellipse cx="462.5" cy="760.2964" fill="none" rx="11" ry="11" style="stroke:#222222;stroke-width:1.0;"/><ellipse cx="462.5" cy="760.2964" fill="#222222" rx="6" ry="6" style="stroke:#222222;stroke-width:1.0;"/><line style="stroke:#181818;stroke-width:1.0;" x1="462.5" x2="462.5" y1="30" y2="50"/><polygon fill="#181818" points="458.5,40,462.5,50,466.5,40,462.5,44" style="stroke:#181818;stroke-width:1.0;"/><line style="stroke:#181818;stroke-width:1.0;" x1="462.5" x2="462.5" y1="83.9688" y2="103.9688"/><polygon fill="#181818" points="458.5,93.9688,462.5,103.9688,466.5,93.9688,462.5,97.9688" style="stroke:#181818;stroke-width:1.0;"/><line style="stroke:#181818;stroke-width:1.0;" x1="275.5" x2="275.5" y1="247.6167" y2="267.6167"/><polygon fill="#181818" points="271.5,257.6167,275.5,267.6167,279.5,257.6167,275.5,261.6167" style="stroke:#181818;stroke-width:1.0;"/><line style="stroke:#181818;stroke-width:1.0;" x1="78" x2="78" y1="555.9253" y2="590.9253"/><polygon fill="#181818" points="74,580.9253,78,590.9253,82,580.9253,78,584.9253" style="stroke:#181818;stroke-width:1.0;"/><line style="stroke:#181818;stroke-width:1.0;" x1="232" x2="232" y1="555.9253" y2="590.9253"/><polygon fill="#181818" points="228,580.9253,232,590.9253,236,580.9253,232,584.9253" style="stroke:#181818;stroke-width:1.0;"/><line style="stroke:#181818;stroke-width:1.0;" x1="89.5" x2="78" y1="499.9565" y2="499.9565"/><line style="stroke:#181818;stroke-width:1.0;" x1="78" x2="78" y1="499.9565" y2="521.9565"/><polygon fill="#181818" points="74,511.9565,78,521.9565,82,511.9565,78,515.9565" style="stroke:#181818;stroke-width:1.0;"/><line style="stroke:#181818;stroke-width:1.0;" x1="220.5" x2="232" y1="499.9565" y2="499.9565"/><line style="stroke:#181818;stroke-width:1.0;" x1="232" x2="232" y1="499.9565" y2="521.9565"/><polygon fill="#181818" points="228,511.9565,232,521.9565,236,511.9565,232,515.9565" style="stroke:#181818;stroke-width:1.0;"/><line style="stroke:#181818;stroke-width:1.0;" x1="155" x2="155" y1="452.9565" y2="487.9565"/><polygon fill="#181818" points="151,477.9565,155,487.9565,159,477.9565,155,481.9565" style="stroke:#181818;stroke-width:1.0;"/><line style="stroke:#181818;stroke-width:1.0;" x1="396" x2="396" y1="452.9565" y2="487.9565"/><polygon fill="#181818" points="392,477.9565,396,487.9565,400,477.9565,396,481.9565" style="stroke:#181818;stroke-width:1.0;"/><line style="stroke:#181818;stroke-width:1.0;" x1="220" x2="155" y1="396.9878" y2="396.9878"/><line style="stroke:#181818;stroke-width:1.0;" x1="155" x2="155" y1="396.9878" y2="418.9878"/><polygon fill="#181818" points="151,408.9878,155,418.9878,159,408.9878,155,412.9878" style="stroke:#181818;stroke-width:1.0;"/><line style="stroke:#181818;stroke-width:1.0;" x1="331" x2="396" y1="396.9878" y2="396.9878"/><line style="stroke:#181818;stroke-width:1.0;" x1="396" x2="396" y1="396.9878" y2="418.9878"/><polygon fill="#181818" points="392,408.9878,396,418.9878,400,408.9878,396,412.9878" style="stroke:#181818;stroke-width:1.0;"/><line style="stroke:#181818;stroke-width:1.0;" x1="275.5" x2="275.5" y1="360.5854" y2="384.9878"/><polygon fill="#181818" points="271.5,374.9878,275.5,384.9878,279.5,374.9878,275.5,378.9878" style="stroke:#181818;stroke-width:1.0;"/><line style="stroke:#181818;stroke-width:1.0;" x1="414.5" x2="483" y1="348.5854" y2="348.5854"/><polygon fill="#181818" points="479,491.9565,483,501.9565,487,491.9565,483,495.9565" style="stroke:#181818;stroke-width:1.0;"/><line style="stroke:#181818;stroke-width:1.0;" x1="483" x2="483" y1="348.5854" y2="655.3276"/><line style="stroke:#181818;stroke-width:1.0;" x1="483" x2="275.5" y1="655.3276" y2="655.3276"/><line style="stroke:#181818;stroke-width:1.0;" x1="275.5" x2="275.5" y1="655.3276" y2="675.3276"/><polygon fill="#181818" points="271.5,665.3276,275.5,675.3276,279.5,665.3276,275.5,669.3276" style="stroke:#181818;stroke-width:1.0;"/><line style="stroke:#181818;stroke-width:1.0;" x1="275.5" x2="275.5" y1="301.5854" y2="336.5854"/><polygon fill="#181818" points="271.5,326.5854,275.5,336.5854,279.5,326.5854,275.5,330.5854" style="stroke:#181818;stroke-width:1.0;"/><line style="stroke:#181818;stroke-width:1.0;" x1="659" x2="659" y1="349.5854" y2="384.5854"/><polygon fill="#181818" points="655,374.5854,659,384.5854,663,374.5854,659,378.5854" style="stroke:#181818;stroke-width:1.0;"/><line style="stroke:#181818;stroke-width:1.0;" x1="659" x2="659" y1="418.5542" y2="453.5542"/><polygon fill="#181818" points="655,443.5542,659,453.5542,663,443.5542,659,447.5542" style="stroke:#181818;stroke-width:1.0;"/><line style="stroke:#181818;stroke-width:1.0;" x1="659" x2="659" y1="291.6167" y2="315.6167"/><polygon fill="#181818" points="655,305.6167,659,315.6167,663,305.6167,659,309.6167" style="stroke:#181818;stroke-width:1.0;"/><line style="stroke:#181818;stroke-width:1.0;" x1="659" x2="659" y1="487.5229" y2="499.5229"/><line style="stroke:#181818;stroke-width:1.0;" x1="659" x2="791" y1="499.5229" y2="499.5229"/><polygon fill="#181818" points="787,399.5698,791,389.5698,795,399.5698,791,395.5698" style="stroke:#181818;stroke-width:1.0;"/><line style="stroke:#181818;stroke-width:1.0;" x1="791" x2="791" y1="279.6167" y2="499.5229"/><line style="stroke:#181818;stroke-width:1.0;" x1="791" x2="779" y1="279.6167" y2="279.6167"/><polygon fill="#181818" points="789,275.6167,779,279.6167,789,283.6167,785,279.6167" style="stroke:#181818;stroke-width:1.0;"/><line style="stroke:#181818;stroke-width:1.0;" x1="539" x2="527" y1="279.6167" y2="279.6167"/><polygon fill="#181818" points="523,385.5698,527,395.5698,531,385.5698,527,389.5698" style="stroke:#181818;stroke-width:1.0;"/><line style="stroke:#181818;stroke-width:1.0;" x1="527" x2="527" y1="279.6167" y2="511.5229"/><line style="stroke:#181818;stroke-width:1.0;" x1="527" x2="659" y1="511.5229" y2="511.5229"/><line style="stroke:#181818;stroke-width:1.0;" x1="659" x2="659" y1="511.5229" y2="546.5229"/><polygon fill="#181818" points="655,536.5229,659,546.5229,663,536.5229,659,540.5229" style="stroke:#181818;stroke-width:1.0;"/><line style="stroke:#181818;stroke-width:1.0;" x1="659" x2="659" y1="247.6167" y2="267.6167"/><polygon fill="#181818" points="655,257.6167,659,267.6167,663,257.6167,659,261.6167" style="stroke:#181818;stroke-width:1.0;"/><line style="stroke:#181818;stroke-width:1.0;" x1="659" x2="659" y1="580.4917" y2="615.4917"/><polygon fill="#181818" points="655,605.4917,659,615.4917,663,605.4917,659,609.4917" style="stroke:#181818;stroke-width:1.0;"/><line style="stroke:#181818;stroke-width:1.0;" x1="275.5" x2="275.5" y1="181.9375" y2="213.6479"/><polygon fill="#181818" points="271.5,203.6479,275.5,213.6479,279.5,203.6479,275.5,207.6479" style="stroke:#181818;stroke-width:1.0;"/><line style="stroke:#181818;stroke-width:1.0;" x1="659" x2="659" y1="181.9375" y2="213.6479"/><polygon fill="#181818" points="655,203.6479,659,213.6479,663,203.6479,659,207.6479" style="stroke:#181818;stroke-width:1.0;"/><line style="stroke:#181818;stroke-width:1.0;" x1="363" x2="538" y1="169.9375" y2="169.9375"/><polygon fill="#181818" points="528,165.9375,538,169.9375,528,173.9375,532,169.9375" style="stroke:#181818;stroke-width:1.0;"/><line style="stroke:#181818;stroke-width:1.0;" x1="462.5" x2="462.5" y1="137.9375" y2="142.9375"/><line style="stroke:#181818;stroke-width:1.0;" x1="462.5" x2="275.5" y1="142.9375" y2="142.9375"/><line style="stroke:#181818;stroke-width:1.0;" x1="275.5" x2="275.5" y1="142.9375" y2="157.9375"/><polygon fill="#181818" points="271.5,147.9375,275.5,157.9375,279.5,147.9375,275.5,151.9375" style="stroke:#181818;stroke-width:1.0;"/><line style="stroke:#181818;stroke-width:1.0;" x1="780" x2="871.5" y1="169.9375" y2="169.9375"/><line style="stroke:#181818;stroke-width:1.0;" x1="871.5" x2="871.5" y1="169.9375" y2="406.6011"/><polygon fill="#181818" points="867.5,396.6011,871.5,406.6011,875.5,396.6011,871.5,400.6011" style="stroke:#181818;stroke-width:1.0;"/><line style="stroke:#181818;stroke-width:1.0;" x1="871.5" x2="871.5" y1="440.5698" y2="675.3276"/><polygon fill="#181818" points="867.5,665.3276,871.5,675.3276,875.5,665.3276,871.5,669.3276" style="stroke:#181818;stroke-width:1.0;"/><line style="stroke:#181818;stroke-width:1.0;" x1="275.5" x2="871.5" y1="675.3276" y2="675.3276"/><line style="stroke:#181818;stroke-width:1.0;" x1="462.5" x2="462.5" y1="675.3276" y2="695.3276"/><polygon fill="#181818" points="458.5,685.3276,462.5,695.3276,466.5,685.3276,462.5,689.3276" style="stroke:#181818;stroke-width:1.0;"/><line style="stroke:#181818;stroke-width:1.0;" x1="462.5" x2="462.5" y1="729.2964" y2="749.2964"/><polygon fill="#181818" points="458.5,739.2964,462.5,749.2964,466.5,739.2964,462.5,743.2964" style="stroke:#181818;stroke-width:1.0;"/><!--SRC=[ZL51ReCm4BppYhsLd6Yle1mGfRsaK5NvW1klWoLYL_QwKNzVOmYOYbOzUcTsnZDhYHbAyaehIyQT2Df6SooI_DL8HP1b7ZyZPHcKH4Q-E_AW56a4TCp20noGVKfrXfgVSGVKeOBq2-qkoPznfJCGYd7gMU5vP-4OO1ZDlNxq3WOlsY0SEwQyLQq8pQQNNnnc82sq2g4LwvzK1XbvD0HJxj8Apsf5basHuX7izt2_Ndz3SaP1WzTRIvRqHuAznLJfFmYAI_5lsanUMlXPmEzTJmc3z45QAfl78hbsiiVqIHkesQa3BGO1VXC0OVHbwd-wLkMCGLzITAgjC-Kbv_44I4UkFaWmdlCkq7PjQkbZB646ND-FIzy0]--></g></svg>