<?xml version="1.0" encoding="us-ascii" standalone="no"?><svg xmlns="http://www.w3.org/2000/svg" xmlns:xlink="http://www.w3.org/1999/xlink" contentStyleType="text/css" height="380px" preserveAspectRatio="none" style="width:284px;height:380px;background:#FFFFFF;" version="1.1" viewBox="0 0 284 380" width="284px" zoomAndPan="magnify"><defs/><g><ellipse cx="142" cy="20" fill="#222222" rx="10" ry="10" style="stroke:#222222;stroke-width:1.0;"/><rect fill="#F1F1F1" height="33.9688" rx="12.5" ry="12.5" style="stroke:#181818;stroke-width:0.5;" width="262" x="11" y="50"/><text fill="#000000" font-family="sans-serif" font-size="12" lengthAdjust="spacing" textLength="242" x="21" y="71.1387">Set System Property for graphstream UI</text><rect fill="#F1F1F1" height="47.9375" rx="12.5" ry="12.5" style="stroke:#181818;stroke-width:0.5;" width="194" x="45" y="103.9688"/><text fill="#000000" font-family="sans-serif" font-size="12" lengthAdjust="spacing" textLength="134" x="55" y="125.1074">Construct SingleGraph</text><text fill="#000000" font-family="sans-serif" font-size="12" font-style="italic" lengthAdjust="spacing" textLength="36" x="193" y="125.1074">graph</text><text fill="#000000" font-family="sans-serif" font-size="12" lengthAdjust="spacing" textLength="124" x="55" y="139.0762">(API to graphstream)</text><rect fill="#F1F1F1" height="33.9688" rx="12.5" ry="12.5" style="stroke:#181818;stroke-width:0.5;" width="131" x="76.5" y="171.9063"/><text fill="#000000" font-family="sans-serif" font-size="12" lengthAdjust="spacing" textLength="20" x="86.5" y="193.0449">Set</text><text fill="#000000" font-family="sans-serif" font-size="12" font-style="italic" lengthAdjust="spacing" textLength="36" x="110.5" y="193.0449">graph</text><text fill="#000000" font-family="sans-serif" font-size="12" lengthAdjust="spacing" textLength="47" x="150.5" y="193.0449">to Strict</text><rect fill="#F1F1F1" height="47.9375" rx="12.5" ry="12.5" style="stroke:#181818;stroke-width:0.5;" width="184" x="50" y="225.875"/><text fill="#000000" font-family="sans-serif" font-size="12" lengthAdjust="spacing" textLength="20" x="60" y="247.0137">Set</text><text fill="#000000" font-family="sans-serif" font-size="12" font-style="italic" lengthAdjust="spacing" textLength="36" x="84" y="247.0137">graph</text><text fill="#000000" font-family="sans-serif" font-size="12" lengthAdjust="spacing" textLength="100" x="124" y="247.0137">style to Attribute</text><text fill="#000000" font-family="sans-serif" font-size="12" font-style="italic" lengthAdjust="spacing" textLength="61" x="60" y="260.9824">stylesheet</text><rect fill="#F1F1F1" height="33.9688" rx="12.5" ry="12.5" style="stroke:#181818;stroke-width:0.5;" width="98" x="93" y="293.8125"/><text fill="#000000" font-family="sans-serif" font-size="12" lengthAdjust="spacing" textLength="38" x="103" y="314.9512">Return</text><text fill="#000000" font-family="sans-serif" font-size="12" font-style="italic" lengthAdjust="spacing" textLength="36" x="145" y="314.9512">graph</text><ellipse cx="142" cy="358.7813" fill="none" rx="11" ry="11" style="stroke:#222222;stroke-width:1.0;"/><ellipse cx="142" cy="358.7813" fill="#222222" rx="6" ry="6" style="stroke:#222222;stroke-width:1.0;"/><line style="stroke:#181818;stroke-width:1.0;" x1="142" x2="142" y1="30" y2="50"/><polygon fill="#181818" points="138,40,142,50,146,40,142,44" style="stroke:#181818;stroke-width:1.0;"/><line style="stroke:#181818;stroke-width:1.0;" x1="142" x2="142" y1="83.9688" y2="103.9688"/><polygon fill="#181818" points="138,93.9688,142,103.9688,146,93.9688,142,97.9688" style="stroke:#181818;stroke-width:1.0;"/><line style="stroke:#181818;stroke-width:1.0;" x1="142" x2="142" y1="151.9063" y2="171.9063"/><polygon fill="#181818" points="138,161.9063,142,171.9063,146,161.9063,142,165.9063" style="stroke:#181818;stroke-width:1.0;"/><line style="stroke:#181818;stroke-width:1.0;" x1="142" x2="142" y1="205.875" y2="225.875"/><polygon fill="#181818" points="138,215.875,142,225.875,146,215.875,142,219.875" style="stroke:#181818;stroke-width:1.0;"/><line style="stroke:#181818;stroke-width:1.0;" x1="142" x2="142" y1="273.8125" y2="293.8125"/><polygon fill="#181818" points="138,283.8125,142,293.8125,146,283.8125,142,287.8125" style="stroke:#181818;stroke-width:1.0;"/><line style="stroke:#181818;stroke-width:1.0;" x1="142" x2="142" y1="327.7813" y2="347.7813"/><polygon fill="#181818" points="138,337.7813,142,347.7813,146,337.7813,142,341.7813" style="stroke:#181818;stroke-width:1.0;"/><!--SRC=[POmn3eCm34NtdC9ZEtc72NMes51H3v0Y5v208FjdoEsRKAcjrD7_lMU3LxYg5r2V3B9Ifs4NHQ9dK1hLxvD1nQzqRsjNNSAMppXaVTx6HQv58EP3P7Qdfci9uJSyr-__7wdm7ZeF-2E6j4ZX3RBmY137V8msYO0v5pT1rEqRrSuGzXS0]--></g></svg>