<?xml version="1.0" encoding="us-ascii" standalone="no"?><svg xmlns="http://www.w3.org/2000/svg" xmlns:xlink="http://www.w3.org/1999/xlink" contentStyleType="text/css" height="471px" preserveAspectRatio="none" style="width:323px;height:471px;background:#FFFFFF;" version="1.1" viewBox="0 0 323 471" width="323px" zoomAndPan="magnify"><defs/><g><ellipse cx="161.5" cy="20" fill="#222222" rx="10" ry="10" style="stroke:#222222;stroke-width:1.0;"/><rect fill="#F1F1F1" height="33.9688" rx="12.5" ry="12.5" style="stroke:#181818;stroke-width:0.5;" width="174" x="74.5" y="50"/><text fill="#000000" font-family="sans-serif" font-size="12" lengthAdjust="spacing" textLength="58" x="84.5" y="71.1387">Create int</text><text fill="#000000" font-family="sans-serif" font-size="12" font-style="italic" lengthAdjust="spacing" textLength="92" x="146.5" y="71.1387">numOfSelfLoop</text><rect fill="#F1F1F1" height="33.9688" rx="12.5" ry="12.5" style="stroke:#181818;stroke-width:0.5;" width="301" x="11" y="103.9688"/><text fill="#000000" font-family="sans-serif" font-size="12" lengthAdjust="spacing" textLength="155" x="21" y="125.1074">Create Edge Iterator from</text><text fill="#000000" font-family="sans-serif" font-size="12" font-style="italic" lengthAdjust="spacing" textLength="30" x="180" y="125.1074">node</text><text fill="#000000" font-family="sans-serif" font-size="12" lengthAdjust="spacing" textLength="88" x="214" y="125.1074">Leaving Edges</text><rect fill="#F1F1F1" height="33.9688" rx="12.5" ry="12.5" style="stroke:#181818;stroke-width:0.5;" width="176" x="73.5" y="250.3398"/><text fill="#000000" font-family="sans-serif" font-size="12" lengthAdjust="spacing" textLength="60" x="83.5" y="271.4785">Increment</text><text fill="#000000" font-family="sans-serif" font-size="12" font-style="italic" lengthAdjust="spacing" textLength="92" x="147.5" y="271.4785">numOfSelfLoop</text><polygon fill="#F1F1F1" points="62.5,201.9375,260.5,201.9375,272.5,213.9375,260.5,225.9375,62.5,225.9375,50.5,213.9375,62.5,201.9375" style="stroke:#181818;stroke-width:0.5;"/><text fill="#000000" font-family="sans-serif" font-size="11" lengthAdjust="spacing" textLength="21" x="165.5" y="236.1479">yes</text><text fill="#000000" font-family="sans-serif" font-size="11" lengthAdjust="spacing" textLength="166" x="62.5" y="217.7456">Next Edge's Target Node ==</text><text fill="#000000" font-family="sans-serif" font-size="11" font-style="italic" lengthAdjust="spacing" textLength="28" x="232.5" y="217.7456">node</text><polygon fill="#F1F1F1" points="161.5,304.3086,173.5,316.3086,161.5,328.3086,149.5,316.3086,161.5,304.3086" style="stroke:#181818;stroke-width:0.5;"/><polygon fill="#F1F1F1" points="113.5,157.9375,209.5,157.9375,221.5,169.9375,209.5,181.9375,113.5,181.9375,101.5,169.9375,113.5,157.9375" style="stroke:#181818;stroke-width:0.5;"/><text fill="#000000" font-family="sans-serif" font-size="11" lengthAdjust="spacing" textLength="96" x="113.5" y="173.7456">Iterator has Next</text><rect fill="#F1F1F1" height="47.9375" rx="12.5" ry="12.5" style="stroke:#181818;stroke-width:0.5;" width="278" x="22.5" y="370.3086"/><text fill="#000000" font-family="sans-serif" font-size="12" lengthAdjust="spacing" textLength="162" x="32.5" y="391.4473">Return Difference between</text><text fill="#000000" font-family="sans-serif" font-size="12" font-style="italic" lengthAdjust="spacing" textLength="92" x="198.5" y="391.4473">numOfSelfLoop</text><text fill="#000000" font-family="sans-serif" font-size="12" lengthAdjust="spacing" textLength="22" x="32.5" y="405.416">and</text><text fill="#000000" font-family="sans-serif" font-size="12" font-style="italic" lengthAdjust="spacing" textLength="30" x="58.5" y="405.416">node</text><text fill="#000000" font-family="sans-serif" font-size="12" lengthAdjust="spacing" textLength="88" x="92.5" y="405.416">Leaving Edges</text><ellipse cx="161.5" cy="449.2461" fill="none" rx="11" ry="11" style="stroke:#222222;stroke-width:1.0;"/><ellipse cx="161.5" cy="449.2461" fill="#222222" rx="6" ry="6" style="stroke:#222222;stroke-width:1.0;"/><line style="stroke:#181818;stroke-width:1.0;" x1="161.5" x2="161.5" y1="30" y2="50"/><polygon fill="#181818" points="157.5,40,161.5,50,165.5,40,161.5,44" style="stroke:#181818;stroke-width:1.0;"/><line style="stroke:#181818;stroke-width:1.0;" x1="161.5" x2="161.5" y1="83.9688" y2="103.9688"/><polygon fill="#181818" points="157.5,93.9688,161.5,103.9688,165.5,93.9688,161.5,97.9688" style="stroke:#181818;stroke-width:1.0;"/><line style="stroke:#181818;stroke-width:1.0;" x1="161.5" x2="161.5" y1="225.9375" y2="250.3398"/><polygon fill="#181818" points="157.5,240.3398,161.5,250.3398,165.5,240.3398,161.5,244.3398" style="stroke:#181818;stroke-width:1.0;"/><line style="stroke:#181818;stroke-width:1.0;" x1="272.5" x2="284.5" y1="213.9375" y2="213.9375"/><polygon fill="#181818" points="280.5,257.3242,284.5,267.3242,288.5,257.3242,284.5,261.3242" style="stroke:#181818;stroke-width:1.0;"/><line style="stroke:#181818;stroke-width:1.0;" x1="284.5" x2="284.5" y1="213.9375" y2="316.3086"/><line style="stroke:#181818;stroke-width:1.0;" x1="284.5" x2="173.5" y1="316.3086" y2="316.3086"/><polygon fill="#181818" points="183.5,312.3086,173.5,316.3086,183.5,320.3086,179.5,316.3086" style="stroke:#181818;stroke-width:1.0;"/><line style="stroke:#181818;stroke-width:1.0;" x1="161.5" x2="161.5" y1="284.3086" y2="304.3086"/><polygon fill="#181818" points="157.5,294.3086,161.5,304.3086,165.5,294.3086,161.5,298.3086" style="stroke:#181818;stroke-width:1.0;"/><line style="stroke:#181818;stroke-width:1.0;" x1="161.5" x2="161.5" y1="181.9375" y2="201.9375"/><polygon fill="#181818" points="157.5,191.9375,161.5,201.9375,165.5,191.9375,161.5,195.9375" style="stroke:#181818;stroke-width:1.0;"/><line style="stroke:#181818;stroke-width:1.0;" x1="161.5" x2="161.5" y1="328.3086" y2="338.3086"/><line style="stroke:#181818;stroke-width:1.0;" x1="161.5" x2="296.5" y1="338.3086" y2="338.3086"/><polygon fill="#181818" points="292.5,265.3242,296.5,255.3242,300.5,265.3242,296.5,261.3242" style="stroke:#181818;stroke-width:1.0;"/><line style="stroke:#181818;stroke-width:1.0;" x1="296.5" x2="296.5" y1="169.9375" y2="338.3086"/><line style="stroke:#181818;stroke-width:1.0;" x1="296.5" x2="221.5" y1="169.9375" y2="169.9375"/><polygon fill="#181818" points="231.5,165.9375,221.5,169.9375,231.5,173.9375,227.5,169.9375" style="stroke:#181818;stroke-width:1.0;"/><line style="stroke:#181818;stroke-width:1.0;" x1="101.5" x2="38.5" y1="169.9375" y2="169.9375"/><polygon fill="#181818" points="34.5,251.3242,38.5,261.3242,42.5,251.3242,38.5,255.3242" style="stroke:#181818;stroke-width:1.0;"/><line style="stroke:#181818;stroke-width:1.0;" x1="38.5" x2="38.5" y1="169.9375" y2="350.3086"/><line style="stroke:#181818;stroke-width:1.0;" x1="38.5" x2="161.5" y1="350.3086" y2="350.3086"/><line style="stroke:#181818;stroke-width:1.0;" x1="161.5" x2="161.5" y1="350.3086" y2="370.3086"/><polygon fill="#181818" points="157.5,360.3086,161.5,370.3086,165.5,360.3086,161.5,364.3086" style="stroke:#181818;stroke-width:1.0;"/><line style="stroke:#181818;stroke-width:1.0;" x1="161.5" x2="161.5" y1="137.9375" y2="157.9375"/><polygon fill="#181818" points="157.5,147.9375,161.5,157.9375,165.5,147.9375,161.5,151.9375" style="stroke:#181818;stroke-width:1.0;"/><line style="stroke:#181818;stroke-width:1.0;" x1="161.5" x2="161.5" y1="418.2461" y2="438.2461"/><polygon fill="#181818" points="157.5,428.2461,161.5,438.2461,165.5,428.2461,161.5,432.2461" style="stroke:#181818;stroke-width:1.0;"/><!--SRC=[TO-x3i8m34NtV8KtsYbxAoPWg8H00duWq9isKkjKZilZxw4TkW2BPSd7nxv9dQWfDWAdeC1ArlBO7_qPdT_7E5XRBkDTtO0gXJYDGbvYFz6nXhMqXxi7RcOcbURHXWxPmhOkqG5FpKtmsTJCt2hHnKa3fSD7Gklreij9Mp1bBwJS51NV13r-FmUkWv_gVD8K9-WeJDlWFGHy0rsX3tniNyl6SVqtGT8ul040]--></g></svg>