<?xml version="1.0" encoding="us-ascii" standalone="no"?><svg xmlns="http://www.w3.org/2000/svg" xmlns:xlink="http://www.w3.org/1999/xlink" contentStyleType="text/css" height="1039px" preserveAspectRatio="none" style="width:1190px;height:1039px;background:#FFFFFF;" version="1.1" viewBox="0 0 1190 1039" width="1190px" zoomAndPan="magnify"><defs/><g><ellipse cx="597.875" cy="20" fill="#222222" rx="10" ry="10" style="stroke:#222222;stroke-width:1.0;"/><rect fill="#F1F1F1" height="33.9688" rx="12.5" ry="12.5" style="stroke:#181818;stroke-width:0.5;" width="120" x="537.875" y="98.4023"/><text fill="#000000" font-family="sans-serif" font-size="12" lengthAdjust="spacing" textLength="100" x="547.875" y="119.541">Get Target Node</text><rect fill="#F1F1F1" height="33.9688" rx="12.5" ry="12.5" style="stroke:#181818;stroke-width:0.5;" width="220" x="487.875" y="152.3711"/><text fill="#000000" font-family="sans-serif" font-size="12" lengthAdjust="spacing" textLength="24" x="497.875" y="173.5098">Add</text><text fill="#000000" font-family="sans-serif" font-size="12" font-style="italic" lengthAdjust="spacing" textLength="68" x="525.875" y="173.5098">targetNode</text><text fill="#000000" font-family="sans-serif" font-size="12" lengthAdjust="spacing" textLength="100" x="597.875" y="173.5098">to Visited Nodes</text><rect fill="#F1F1F1" height="33.9688" rx="12.5" ry="12.5" style="stroke:#181818;stroke-width:0.5;" width="225" x="485.375" y="206.3398"/><text fill="#000000" font-family="sans-serif" font-size="12" lengthAdjust="spacing" textLength="129" x="495.375" y="227.4785">Create Optional Edge</text><text fill="#000000" font-family="sans-serif" font-size="12" font-style="italic" lengthAdjust="spacing" textLength="72" x="628.375" y="227.4785">oneOfEdges</text><polygon fill="#F1F1F1" points="531.375,260.3086,664.375,260.3086,676.375,272.3086,664.375,284.3086,531.375,284.3086,519.375,272.3086,531.375,260.3086" style="stroke:#181818;stroke-width:0.5;"/><text fill="#000000" font-family="sans-serif" font-size="11" font-style="italic" lengthAdjust="spacing" textLength="61" x="531.375" y="276.1167">onOfEdges</text><text fill="#000000" font-family="sans-serif" font-size="11" lengthAdjust="spacing" textLength="68" x="596.375" y="276.1167">has a Value</text><text fill="#000000" font-family="sans-serif" font-size="11" lengthAdjust="spacing" textLength="21" x="498.375" y="269.7144">yes</text><text fill="#000000" font-family="sans-serif" font-size="11" lengthAdjust="spacing" textLength="14" x="676.375" y="269.7144">no</text><polygon fill="#F1F1F1" points="215.25,294.3086,401.25,294.3086,413.25,306.3086,401.25,318.3086,215.25,318.3086,203.25,306.3086,215.25,294.3086" style="stroke:#181818;stroke-width:0.5;"/><text fill="#000000" font-family="sans-serif" font-size="11" font-style="italic" lengthAdjust="spacing" textLength="67" x="215.25" y="310.1167">sourceNode</text><text fill="#000000" font-family="sans-serif" font-size="11" lengthAdjust="spacing" textLength="115" x="286.25" y="310.1167">has 1 Entering Edge</text><text fill="#000000" font-family="sans-serif" font-size="11" lengthAdjust="spacing" textLength="21" x="182.25" y="303.7144">yes</text><text fill="#000000" font-family="sans-serif" font-size="11" lengthAdjust="spacing" textLength="14" x="413.25" y="303.7144">no</text><rect fill="#F1F1F1" height="33.9688" rx="12.5" ry="12.5" style="stroke:#181818;stroke-width:0.5;" width="111" x="105" y="328.3086"/><text fill="#000000" font-family="sans-serif" font-size="12" lengthAdjust="spacing" textLength="91" x="115" y="349.4473">Create OListOR</text><rect fill="#F1F1F1" height="47.9375" rx="12.5" ry="12.5" style="stroke:#181818;stroke-width:0.5;" width="146" x="87.5" y="397.2773"/><text fill="#000000" font-family="sans-serif" font-size="12" lengthAdjust="spacing" textLength="104" x="97.5" y="418.416">Get Source Node</text><text fill="#000000" font-family="sans-serif" font-size="12" lengthAdjust="spacing" textLength="126" x="97.5" y="432.3848">(API to GraphStream)</text><rect fill="#F1F1F1" height="33.9688" rx="12.5" ry="12.5" style="stroke:#181818;stroke-width:0.5;" width="188" x="66.5" y="528.2148"/><text fill="#000000" font-family="sans-serif" font-size="12" lengthAdjust="spacing" textLength="168" x="76.5" y="549.3535">Get the Edge's Target Node</text><rect fill="#F1F1F1" height="33.9688" rx="12.5" ry="12.5" style="stroke:#181818;stroke-width:0.5;" width="230" x="45.5" y="645.1836"/><text fill="#000000" font-family="sans-serif" font-size="12" lengthAdjust="spacing" textLength="167" x="55.5" y="666.3223">Add Current Target Node to</text><text fill="#000000" font-family="sans-serif" font-size="12" font-style="italic" lengthAdjust="spacing" textLength="39" x="226.5" y="666.3223">visited</text><rect fill="#F1F1F1" height="33.9688" rx="12.5" ry="12.5" style="stroke:#181818;stroke-width:0.5;" width="245" x="38" y="714.1523"/><text fill="#000000" font-family="sans-serif" font-size="12" lengthAdjust="spacing" textLength="167" x="48" y="735.291">Add Current Target Node to</text><text fill="#000000" font-family="sans-serif" font-size="12" font-style="italic" lengthAdjust="spacing" textLength="54" x="219" y="735.291">targetOR</text><polygon fill="#F1F1F1" points="54,597.1836,267,597.1836,279,609.1836,267,621.1836,54,621.1836,42,609.1836,54,597.1836" style="stroke:#181818;stroke-width:0.5;"/><text fill="#000000" font-family="sans-serif" font-size="11" lengthAdjust="spacing" textLength="213" x="54" y="612.9917">Current Target Node =! Source Node</text><polygon fill="#F1F1F1" points="160.5,768.1211,172.5,780.1211,160.5,792.1211,148.5,780.1211,160.5,768.1211" style="stroke:#181818;stroke-width:0.5;"/><polygon fill="#F1F1F1" points="62.5,480.2148,258.5,480.2148,270.5,492.2148,258.5,504.2148,62.5,504.2148,50.5,492.2148,62.5,480.2148" style="stroke:#181818;stroke-width:0.5;"/><text fill="#000000" font-family="sans-serif" font-size="11" lengthAdjust="spacing" textLength="196" x="62.5" y="496.0229">For Each Edge in the Source Node</text><rect fill="#F1F1F1" height="47.9375" rx="12.5" ry="12.5" style="stroke:#181818;stroke-width:0.5;" width="210" x="55.5" y="834.1211"/><text fill="#000000" font-family="sans-serif" font-size="12" lengthAdjust="spacing" textLength="17" x="65.5" y="855.2598">Put</text><text fill="#000000" font-family="sans-serif" font-size="12" font-style="italic" lengthAdjust="spacing" textLength="71" x="86.5" y="855.2598">sourceNode</text><text fill="#000000" font-family="sans-serif" font-size="12" lengthAdjust="spacing" textLength="22" x="161.5" y="855.2598">and</text><text fill="#000000" font-family="sans-serif" font-size="12" font-style="italic" lengthAdjust="spacing" textLength="54" x="187.5" y="855.2598">targetOR</text><text fill="#000000" font-family="sans-serif" font-size="12" lengthAdjust="spacing" textLength="10" x="245.5" y="855.2598">in</text><text fill="#000000" font-family="sans-serif" font-size="12" lengthAdjust="spacing" textLength="72" x="65.5" y="869.2285">IObject Map</text><text fill="#000000" font-family="sans-serif" font-size="12" font-style="italic" lengthAdjust="spacing" textLength="16" x="141.5" y="869.2285">hb</text><rect fill="#F1F1F1" height="33.9688" rx="12.5" ry="12.5" style="stroke:#181818;stroke-width:0.5;" width="172" x="370" y="328.3086"/><text fill="#000000" font-family="sans-serif" font-size="12" lengthAdjust="spacing" textLength="91" x="380" y="349.4473">Create OListOR</text><text fill="#000000" font-family="sans-serif" font-size="12" font-style="italic" lengthAdjust="spacing" textLength="57" x="475" y="349.4473">sourceOR</text><rect fill="#F1F1F1" height="47.9375" rx="12.5" ry="12.5" style="stroke:#181818;stroke-width:0.5;" width="169" x="371.5" y="445.2773"/><text fill="#000000" font-family="sans-serif" font-size="12" lengthAdjust="spacing" textLength="149" x="381.5" y="466.416">Get Edge's Source Node</text><text fill="#000000" font-family="sans-serif" font-size="12" lengthAdjust="spacing" textLength="126" x="381.5" y="480.3848">(API to GraphStream)</text><rect fill="#F1F1F1" height="33.9688" rx="12.5" ry="12.5" style="stroke:#181818;stroke-width:0.5;" width="190" x="361" y="528.2148"/><text fill="#000000" font-family="sans-serif" font-size="12" lengthAdjust="spacing" textLength="24" x="371" y="549.3535">Add</text><text fill="#000000" font-family="sans-serif" font-size="12" font-style="italic" lengthAdjust="spacing" textLength="68" x="399" y="549.3535">targetNode</text><text fill="#000000" font-family="sans-serif" font-size="12" lengthAdjust="spacing" textLength="12" x="471" y="549.3535">to</text><text fill="#000000" font-family="sans-serif" font-size="12" font-style="italic" lengthAdjust="spacing" textLength="54" x="487" y="549.3535">targetOR</text><polygon fill="#F1F1F1" points="375,397.2773,537,397.2773,549,409.2773,537,421.2773,375,421.2773,363,409.2773,375,397.2773" style="stroke:#181818;stroke-width:0.5;"/><text fill="#000000" font-family="sans-serif" font-size="11" lengthAdjust="spacing" textLength="95" x="375" y="413.0854">For Each Edge in</text><text fill="#000000" font-family="sans-serif" font-size="11" font-style="italic" lengthAdjust="spacing" textLength="63" x="474" y="413.0854">targetNode</text><rect fill="#F1F1F1" height="47.9375" rx="12.5" ry="12.5" style="stroke:#181818;stroke-width:0.5;" width="196" x="358" y="621.1836"/><text fill="#000000" font-family="sans-serif" font-size="12" lengthAdjust="spacing" textLength="17" x="368" y="642.3223">Put</text><text fill="#000000" font-family="sans-serif" font-size="12" font-style="italic" lengthAdjust="spacing" textLength="57" x="389" y="642.3223">sourceOR</text><text fill="#000000" font-family="sans-serif" font-size="12" lengthAdjust="spacing" textLength="22" x="450" y="642.3223">and</text><text fill="#000000" font-family="sans-serif" font-size="12" font-style="italic" lengthAdjust="spacing" textLength="68" x="476" y="642.3223">targetNode</text><text fill="#000000" font-family="sans-serif" font-size="12" lengthAdjust="spacing" textLength="86" x="368" y="656.291">in IObject Map</text><text fill="#000000" font-family="sans-serif" font-size="12" font-style="italic" lengthAdjust="spacing" textLength="16" x="458" y="656.291">hb</text><polygon fill="#F1F1F1" points="308.25,888.0586,320.25,900.0586,308.25,912.0586,296.25,900.0586,308.25,888.0586" style="stroke:#181818;stroke-width:0.5;"/><polygon fill="#F1F1F1" points="618,319.3086,800,319.3086,812,331.3086,800,343.3086,618,343.3086,606,331.3086,618,319.3086" style="stroke:#181818;stroke-width:0.5;"/><text fill="#000000" font-family="sans-serif" font-size="11" lengthAdjust="spacing" textLength="21" x="713" y="353.519">yes</text><text fill="#000000" font-family="sans-serif" font-size="11" font-style="italic" lengthAdjust="spacing" textLength="63" x="618" y="335.1167">targetNode</text><text fill="#000000" font-family="sans-serif" font-size="11" lengthAdjust="spacing" textLength="115" x="685" y="335.1167">has 1 Entering Edge</text><rect fill="#F1F1F1" height="33.9688" rx="12.5" ry="12.5" style="stroke:#181818;stroke-width:0.5;" width="228" x="595" y="376.1133"/><text fill="#000000" font-family="sans-serif" font-size="12" lengthAdjust="spacing" textLength="136" x="605" y="397.252">Get Source Node from</text><text fill="#000000" font-family="sans-serif" font-size="12" font-style="italic" lengthAdjust="spacing" textLength="68" x="745" y="397.252">targetNode</text><rect fill="#F1F1F1" height="47.9375" rx="12.5" ry="12.5" style="stroke:#181818;stroke-width:0.5;" width="232" x="593" y="445.082"/><text fill="#000000" font-family="sans-serif" font-size="12" lengthAdjust="spacing" textLength="126" x="603" y="466.2207">Put Source Node and</text><text fill="#000000" font-family="sans-serif" font-size="12" font-style="italic" lengthAdjust="spacing" textLength="68" x="733" y="466.2207">targetNode</text><text fill="#000000" font-family="sans-serif" font-size="12" lengthAdjust="spacing" textLength="10" x="805" y="466.2207">in</text><text fill="#000000" font-family="sans-serif" font-size="12" lengthAdjust="spacing" textLength="72" x="603" y="480.1895">IObject Map</text><text fill="#000000" font-family="sans-serif" font-size="12" font-style="italic" lengthAdjust="spacing" textLength="16" x="679" y="480.1895">hb</text><polygon fill="#F1F1F1" points="857,319.3086,1120,319.3086,1132,331.3086,1120,343.3086,857,343.3086,845,331.3086,857,319.3086" style="stroke:#181818;stroke-width:0.5;"/><text fill="#000000" font-family="sans-serif" font-size="11" lengthAdjust="spacing" textLength="21" x="992.5" y="353.519">yes</text><text fill="#000000" font-family="sans-serif" font-size="11" font-style="italic" lengthAdjust="spacing" textLength="63" x="857" y="335.1167">targetNode</text><text fill="#000000" font-family="sans-serif" font-size="11" lengthAdjust="spacing" textLength="196" x="924" y="335.1167">has greater than 1 Entering Edges</text><rect fill="#F1F1F1" height="33.9688" rx="12.5" ry="12.5" style="stroke:#181818;stroke-width:0.5;" width="188" x="894.5" y="376.1133"/><text fill="#000000" font-family="sans-serif" font-size="12" lengthAdjust="spacing" textLength="99" x="904.5" y="397.252">Create OListAND</text><text fill="#000000" font-family="sans-serif" font-size="12" font-style="italic" lengthAdjust="spacing" textLength="65" x="1007.5" y="397.252">andSource</text><rect fill="#F1F1F1" height="33.9688" rx="12.5" ry="12.5" style="stroke:#181818;stroke-width:0.5;" width="169" x="904" y="493.082"/><text fill="#000000" font-family="sans-serif" font-size="12" lengthAdjust="spacing" textLength="149" x="914" y="514.2207">Get Edge's Source Node</text><rect fill="#F1F1F1" height="33.9688" rx="12.5" ry="12.5" style="stroke:#181818;stroke-width:0.5;" width="212" x="882.5" y="562.0508"/><text fill="#000000" font-family="sans-serif" font-size="12" lengthAdjust="spacing" textLength="123" x="892.5" y="583.1895">Add Source Node to</text><text fill="#000000" font-family="sans-serif" font-size="12" font-style="italic" lengthAdjust="spacing" textLength="65" x="1019.5" y="583.1895">andSource</text><polygon fill="#F1F1F1" points="907.5,445.082,1069.5,445.082,1081.5,457.082,1069.5,469.082,907.5,469.082,895.5,457.082,907.5,445.082" style="stroke:#181818;stroke-width:0.5;"/><text fill="#000000" font-family="sans-serif" font-size="11" lengthAdjust="spacing" textLength="95" x="907.5" y="460.8901">For Each Edge in</text><text fill="#000000" font-family="sans-serif" font-size="11" font-style="italic" lengthAdjust="spacing" textLength="63" x="1006.5" y="460.8901">targetNode</text><rect fill="#F1F1F1" height="47.9375" rx="12.5" ry="12.5" style="stroke:#181818;stroke-width:0.5;" width="218" x="879.5" y="655.0195"/><text fill="#000000" font-family="sans-serif" font-size="12" lengthAdjust="spacing" textLength="17" x="889.5" y="676.1582">Put</text><text fill="#000000" font-family="sans-serif" font-size="12" font-style="italic" lengthAdjust="spacing" textLength="65" x="910.5" y="676.1582">andSource</text><text fill="#000000" font-family="sans-serif" font-size="12" lengthAdjust="spacing" textLength="22" x="979.5" y="676.1582">and</text><text fill="#000000" font-family="sans-serif" font-size="12" font-style="italic" lengthAdjust="spacing" textLength="68" x="1005.5" y="676.1582">targetNode</text><text fill="#000000" font-family="sans-serif" font-size="12" lengthAdjust="spacing" textLength="10" x="1077.5" y="676.1582">in</text><text fill="#000000" font-family="sans-serif" font-size="12" lengthAdjust="spacing" textLength="72" x="889.5" y="690.127">IObject Map</text><text fill="#000000" font-family="sans-serif" font-size="12" font-style="italic" lengthAdjust="spacing" textLength="16" x="965.5" y="690.127">hb</text><polygon fill="#F1F1F1" points="597.875,918.0586,609.875,930.0586,597.875,942.0586,585.875,930.0586,597.875,918.0586" style="stroke:#181818;stroke-width:0.5;"/><polygon fill="#F1F1F1" points="508.375,50,687.375,50,699.375,62,687.375,74,508.375,74,496.375,62,508.375,50" style="stroke:#181818;stroke-width:0.5;"/><text fill="#000000" font-family="sans-serif" font-size="11" lengthAdjust="spacing" textLength="21" x="601.875" y="84.2104">yes</text><text fill="#000000" font-family="sans-serif" font-size="11" font-style="italic" lengthAdjust="spacing" textLength="38" x="508.375" y="65.8081">source</text><text fill="#000000" font-family="sans-serif" font-size="11" lengthAdjust="spacing" textLength="137" x="550.375" y="65.8081">is an Instance of ONode</text><polygon fill="#F1F1F1" points="597.875,962.0586,609.875,974.0586,597.875,986.0586,585.875,974.0586,597.875,962.0586" style="stroke:#181818;stroke-width:0.5;"/><ellipse cx="597.875" cy="1017.0586" fill="none" rx="11" ry="11" style="stroke:#222222;stroke-width:1.0;"/><ellipse cx="597.875" cy="1017.0586" fill="#222222" rx="6" ry="6" style="stroke:#222222;stroke-width:1.0;"/><line style="stroke:#181818;stroke-width:1.0;" x1="597.875" x2="597.875" y1="132.3711" y2="152.3711"/><polygon fill="#181818" points="593.875,142.3711,597.875,152.3711,601.875,142.3711,597.875,146.3711" style="stroke:#181818;stroke-width:1.0;"/><line style="stroke:#181818;stroke-width:1.0;" x1="597.875" x2="597.875" y1="186.3398" y2="206.3398"/><polygon fill="#181818" points="593.875,196.3398,597.875,206.3398,601.875,196.3398,597.875,200.3398" style="stroke:#181818;stroke-width:1.0;"/><line style="stroke:#181818;stroke-width:1.0;" x1="160.5" x2="160.5" y1="362.2773" y2="397.2773"/><polygon fill="#181818" points="156.5,387.2773,160.5,397.2773,164.5,387.2773,160.5,391.2773" style="stroke:#181818;stroke-width:1.0;"/><line style="stroke:#181818;stroke-width:1.0;" x1="160.5" x2="160.5" y1="679.1523" y2="714.1523"/><polygon fill="#181818" points="156.5,704.1523,160.5,714.1523,164.5,704.1523,160.5,708.1523" style="stroke:#181818;stroke-width:1.0;"/><line style="stroke:#181818;stroke-width:1.0;" x1="160.5" x2="160.5" y1="621.1836" y2="645.1836"/><polygon fill="#181818" points="156.5,635.1836,160.5,645.1836,164.5,635.1836,160.5,639.1836" style="stroke:#181818;stroke-width:1.0;"/><line style="stroke:#181818;stroke-width:1.0;" x1="279" x2="293" y1="609.1836" y2="609.1836"/><polygon fill="#181818" points="289,686.6523,293,696.6523,297,686.6523,293,690.6523" style="stroke:#181818;stroke-width:1.0;"/><line style="stroke:#181818;stroke-width:1.0;" x1="293" x2="293" y1="609.1836" y2="780.1211"/><line style="stroke:#181818;stroke-width:1.0;" x1="293" x2="172.5" y1="780.1211" y2="780.1211"/><polygon fill="#181818" points="182.5,776.1211,172.5,780.1211,182.5,784.1211,178.5,780.1211" style="stroke:#181818;stroke-width:1.0;"/><line style="stroke:#181818;stroke-width:1.0;" x1="160.5" x2="160.5" y1="748.1211" y2="768.1211"/><polygon fill="#181818" points="156.5,758.1211,160.5,768.1211,164.5,758.1211,160.5,762.1211" style="stroke:#181818;stroke-width:1.0;"/><line style="stroke:#181818;stroke-width:1.0;" x1="160.5" x2="160.5" y1="562.1836" y2="597.1836"/><polygon fill="#181818" points="156.5,587.1836,160.5,597.1836,164.5,587.1836,160.5,591.1836" style="stroke:#181818;stroke-width:1.0;"/><line style="stroke:#181818;stroke-width:1.0;" x1="160.5" x2="160.5" y1="504.2148" y2="528.2148"/><polygon fill="#181818" points="156.5,518.2148,160.5,528.2148,164.5,518.2148,160.5,522.2148" style="stroke:#181818;stroke-width:1.0;"/><line style="stroke:#181818;stroke-width:1.0;" x1="160.5" x2="160.5" y1="792.1211" y2="802.1211"/><line style="stroke:#181818;stroke-width:1.0;" x1="160.5" x2="317" y1="802.1211" y2="802.1211"/><polygon fill="#181818" points="313,660.168,317,650.168,321,660.168,317,656.168" style="stroke:#181818;stroke-width:1.0;"/><line style="stroke:#181818;stroke-width:1.0;" x1="317" x2="317" y1="492.2148" y2="802.1211"/><line style="stroke:#181818;stroke-width:1.0;" x1="317" x2="270.5" y1="492.2148" y2="492.2148"/><polygon fill="#181818" points="280.5,488.2148,270.5,492.2148,280.5,496.2148,276.5,492.2148" style="stroke:#181818;stroke-width:1.0;"/><line style="stroke:#181818;stroke-width:1.0;" x1="50.5" x2="24" y1="492.2148" y2="492.2148"/><polygon fill="#181818" points="20,646.168,24,656.168,28,646.168,24,650.168" style="stroke:#181818;stroke-width:1.0;"/><line style="stroke:#181818;stroke-width:1.0;" x1="24" x2="24" y1="492.2148" y2="814.1211"/><line style="stroke:#181818;stroke-width:1.0;" x1="24" x2="160.5" y1="814.1211" y2="814.1211"/><line style="stroke:#181818;stroke-width:1.0;" x1="160.5" x2="160.5" y1="814.1211" y2="834.1211"/><polygon fill="#181818" points="156.5,824.1211,160.5,834.1211,164.5,824.1211,160.5,828.1211" style="stroke:#181818;stroke-width:1.0;"/><line style="stroke:#181818;stroke-width:1.0;" x1="160.5" x2="160.5" y1="445.2148" y2="480.2148"/><polygon fill="#181818" points="156.5,470.2148,160.5,480.2148,164.5,470.2148,160.5,474.2148" style="stroke:#181818;stroke-width:1.0;"/><line style="stroke:#181818;stroke-width:1.0;" x1="456" x2="456" y1="493.2148" y2="528.2148"/><polygon fill="#181818" points="452,518.2148,456,528.2148,460,518.2148,456,522.2148" style="stroke:#181818;stroke-width:1.0;"/><line style="stroke:#181818;stroke-width:1.0;" x1="456" x2="456" y1="421.2773" y2="445.2773"/><polygon fill="#181818" points="452,435.2773,456,445.2773,460,435.2773,456,439.2773" style="stroke:#181818;stroke-width:1.0;"/><line style="stroke:#181818;stroke-width:1.0;" x1="456" x2="456" y1="562.1836" y2="574.1836"/><line style="stroke:#181818;stroke-width:1.0;" x1="456" x2="563" y1="574.1836" y2="574.1836"/><polygon fill="#181818" points="559,501.7305,563,491.7305,567,501.7305,563,497.7305" style="stroke:#181818;stroke-width:1.0;"/><line style="stroke:#181818;stroke-width:1.0;" x1="563" x2="563" y1="409.2773" y2="574.1836"/><line style="stroke:#181818;stroke-width:1.0;" x1="563" x2="549" y1="409.2773" y2="409.2773"/><polygon fill="#181818" points="559,405.2773,549,409.2773,559,413.2773,555,409.2773" style="stroke:#181818;stroke-width:1.0;"/><line style="stroke:#181818;stroke-width:1.0;" x1="363" x2="349" y1="409.2773" y2="409.2773"/><polygon fill="#181818" points="345,487.7305,349,497.7305,353,487.7305,349,491.7305" style="stroke:#181818;stroke-width:1.0;"/><line style="stroke:#181818;stroke-width:1.0;" x1="349" x2="349" y1="409.2773" y2="586.1836"/><line style="stroke:#181818;stroke-width:1.0;" x1="349" x2="456" y1="586.1836" y2="586.1836"/><line style="stroke:#181818;stroke-width:1.0;" x1="456" x2="456" y1="586.1836" y2="621.1836"/><polygon fill="#181818" points="452,611.1836,456,621.1836,460,611.1836,456,615.1836" style="stroke:#181818;stroke-width:1.0;"/><line style="stroke:#181818;stroke-width:1.0;" x1="456" x2="456" y1="362.2773" y2="397.2773"/><polygon fill="#181818" points="452,387.2773,456,397.2773,460,387.2773,456,391.2773" style="stroke:#181818;stroke-width:1.0;"/><line style="stroke:#181818;stroke-width:1.0;" x1="203.25" x2="160.5" y1="306.3086" y2="306.3086"/><line style="stroke:#181818;stroke-width:1.0;" x1="160.5" x2="160.5" y1="306.3086" y2="328.3086"/><polygon fill="#181818" points="156.5,318.3086,160.5,328.3086,164.5,318.3086,160.5,322.3086" style="stroke:#181818;stroke-width:1.0;"/><line style="stroke:#181818;stroke-width:1.0;" x1="413.25" x2="456" y1="306.3086" y2="306.3086"/><line style="stroke:#181818;stroke-width:1.0;" x1="456" x2="456" y1="306.3086" y2="328.3086"/><polygon fill="#181818" points="452,318.3086,456,328.3086,460,318.3086,456,322.3086" style="stroke:#181818;stroke-width:1.0;"/><line style="stroke:#181818;stroke-width:1.0;" x1="160.5" x2="160.5" y1="882.0586" y2="900.0586"/><line style="stroke:#181818;stroke-width:1.0;" x1="160.5" x2="296.25" y1="900.0586" y2="900.0586"/><polygon fill="#181818" points="286.25,896.0586,296.25,900.0586,286.25,904.0586,290.25,900.0586" style="stroke:#181818;stroke-width:1.0;"/><line style="stroke:#181818;stroke-width:1.0;" x1="456" x2="456" y1="669.1211" y2="900.0586"/><line style="stroke:#181818;stroke-width:1.0;" x1="456" x2="320.25" y1="900.0586" y2="900.0586"/><polygon fill="#181818" points="330.25,896.0586,320.25,900.0586,330.25,904.0586,326.25,900.0586" style="stroke:#181818;stroke-width:1.0;"/><line style="stroke:#181818;stroke-width:1.0;" x1="709" x2="709" y1="410.082" y2="445.082"/><polygon fill="#181818" points="705,435.082,709,445.082,713,435.082,709,439.082" style="stroke:#181818;stroke-width:1.0;"/><line style="stroke:#181818;stroke-width:1.0;" x1="988.5" x2="988.5" y1="527.0508" y2="562.0508"/><polygon fill="#181818" points="984.5,552.0508,988.5,562.0508,992.5,552.0508,988.5,556.0508" style="stroke:#181818;stroke-width:1.0;"/><line style="stroke:#181818;stroke-width:1.0;" x1="988.5" x2="988.5" y1="469.082" y2="493.082"/><polygon fill="#181818" points="984.5,483.082,988.5,493.082,992.5,483.082,988.5,487.082" style="stroke:#181818;stroke-width:1.0;"/><line style="stroke:#181818;stroke-width:1.0;" x1="988.5" x2="988.5" y1="596.0195" y2="608.0195"/><line style="stroke:#181818;stroke-width:1.0;" x1="988.5" x2="1106.5" y1="608.0195" y2="608.0195"/><polygon fill="#181818" points="1102.5,542.5508,1106.5,532.5508,1110.5,542.5508,1106.5,538.5508" style="stroke:#181818;stroke-width:1.0;"/><line style="stroke:#181818;stroke-width:1.0;" x1="1106.5" x2="1106.5" y1="457.082" y2="608.0195"/><line style="stroke:#181818;stroke-width:1.0;" x1="1106.5" x2="1081.5" y1="457.082" y2="457.082"/><polygon fill="#181818" points="1091.5,453.082,1081.5,457.082,1091.5,461.082,1087.5,457.082" style="stroke:#181818;stroke-width:1.0;"/><line style="stroke:#181818;stroke-width:1.0;" x1="895.5" x2="870.5" y1="457.082" y2="457.082"/><polygon fill="#181818" points="866.5,528.5508,870.5,538.5508,874.5,528.5508,870.5,532.5508" style="stroke:#181818;stroke-width:1.0;"/><line style="stroke:#181818;stroke-width:1.0;" x1="870.5" x2="870.5" y1="457.082" y2="620.0195"/><line style="stroke:#181818;stroke-width:1.0;" x1="870.5" x2="988.5" y1="620.0195" y2="620.0195"/><line style="stroke:#181818;stroke-width:1.0;" x1="988.5" x2="988.5" y1="620.0195" y2="655.0195"/><polygon fill="#181818" points="984.5,645.0195,988.5,655.0195,992.5,645.0195,988.5,649.0195" style="stroke:#181818;stroke-width:1.0;"/><line style="stroke:#181818;stroke-width:1.0;" x1="988.5" x2="988.5" y1="410.082" y2="445.082"/><polygon fill="#181818" points="984.5,435.082,988.5,445.082,992.5,435.082,988.5,439.082" style="stroke:#181818;stroke-width:1.0;"/><line style="stroke:#181818;stroke-width:1.0;" x1="709" x2="709" y1="343.3086" y2="376.1133"/><polygon fill="#181818" points="705,366.1133,709,376.1133,713,366.1133,709,370.1133" style="stroke:#181818;stroke-width:1.0;"/><line style="stroke:#181818;stroke-width:1.0;" x1="709" x2="709" y1="493.0195" y2="773.957"/><polygon fill="#181818" points="705,763.957,709,773.957,713,763.957,709,767.957" style="stroke:#181818;stroke-width:1.0;"/><line style="stroke:#181818;stroke-width:1.0;" x1="988.5" x2="988.5" y1="343.3086" y2="376.1133"/><polygon fill="#181818" points="984.5,366.1133,988.5,376.1133,992.5,366.1133,988.5,370.1133" style="stroke:#181818;stroke-width:1.0;"/><line style="stroke:#181818;stroke-width:1.0;" x1="988.5" x2="988.5" y1="702.957" y2="773.957"/><polygon fill="#181818" points="984.5,763.957,988.5,773.957,992.5,763.957,988.5,767.957" style="stroke:#181818;stroke-width:1.0;"/><line style="stroke:#181818;stroke-width:1.0;" x1="812" x2="845" y1="331.3086" y2="331.3086"/><polygon fill="#181818" points="835,327.3086,845,331.3086,835,335.3086,839,331.3086" style="stroke:#181818;stroke-width:1.0;"/><line style="stroke:#181818;stroke-width:1.0;" x1="676.375" x2="709" y1="272.3086" y2="272.3086"/><line style="stroke:#181818;stroke-width:1.0;" x1="709" x2="709" y1="272.3086" y2="319.3086"/><polygon fill="#181818" points="705,309.3086,709,319.3086,713,309.3086,709,313.3086" style="stroke:#181818;stroke-width:1.0;"/><line style="stroke:#181818;stroke-width:1.0;" x1="1132" x2="1146" y1="331.3086" y2="331.3086"/><line style="stroke:#181818;stroke-width:1.0;" x1="1146" x2="1146" y1="331.3086" y2="773.957"/><polygon fill="#181818" points="1142,763.957,1146,773.957,1150,763.957,1146,767.957" style="stroke:#181818;stroke-width:1.0;"/><line style="stroke:#181818;stroke-width:1.0;" x1="709" x2="1146" y1="773.957" y2="773.957"/><line style="stroke:#181818;stroke-width:1.0;" x1="519.375" x2="308.25" y1="272.3086" y2="272.3086"/><line style="stroke:#181818;stroke-width:1.0;" x1="308.25" x2="308.25" y1="272.3086" y2="294.3086"/><polygon fill="#181818" points="304.25,284.3086,308.25,294.3086,312.25,284.3086,308.25,288.3086" style="stroke:#181818;stroke-width:1.0;"/><line style="stroke:#181818;stroke-width:1.0;" x1="308.25" x2="308.25" y1="912.0586" y2="930.0586"/><line style="stroke:#181818;stroke-width:1.0;" x1="308.25" x2="585.875" y1="930.0586" y2="930.0586"/><polygon fill="#181818" points="575.875,926.0586,585.875,930.0586,575.875,934.0586,579.875,930.0586" style="stroke:#181818;stroke-width:1.0;"/><line style="stroke:#181818;stroke-width:1.0;" x1="887.5" x2="887.5" y1="773.957" y2="930.0586"/><line style="stroke:#181818;stroke-width:1.0;" x1="887.5" x2="609.875" y1="930.0586" y2="930.0586"/><polygon fill="#181818" points="619.875,926.0586,609.875,930.0586,619.875,934.0586,615.875,930.0586" style="stroke:#181818;stroke-width:1.0;"/><line style="stroke:#181818;stroke-width:1.0;" x1="597.875" x2="597.875" y1="240.3086" y2="260.3086"/><polygon fill="#181818" points="593.875,250.3086,597.875,260.3086,601.875,250.3086,597.875,254.3086" style="stroke:#181818;stroke-width:1.0;"/><line style="stroke:#181818;stroke-width:1.0;" x1="597.875" x2="597.875" y1="74" y2="98.4023"/><polygon fill="#181818" points="593.875,88.4023,597.875,98.4023,601.875,88.4023,597.875,92.4023" style="stroke:#181818;stroke-width:1.0;"/><line style="stroke:#181818;stroke-width:1.0;" x1="699.375" x2="1164" y1="62" y2="62"/><polygon fill="#181818" points="1160,498.2305,1164,508.2305,1168,498.2305,1164,502.2305" style="stroke:#181818;stroke-width:1.0;"/><line style="stroke:#181818;stroke-width:1.0;" x1="1164" x2="1164" y1="62" y2="974.0586"/><line style="stroke:#181818;stroke-width:1.0;" x1="1164" x2="609.875" y1="974.0586" y2="974.0586"/><polygon fill="#181818" points="619.875,970.0586,609.875,974.0586,619.875,978.0586,615.875,974.0586" style="stroke:#181818;stroke-width:1.0;"/><line style="stroke:#181818;stroke-width:1.0;" x1="597.875" x2="597.875" y1="942.0586" y2="962.0586"/><polygon fill="#181818" points="593.875,952.0586,597.875,962.0586,601.875,952.0586,597.875,956.0586" style="stroke:#181818;stroke-width:1.0;"/><line style="stroke:#181818;stroke-width:1.0;" x1="597.875" x2="597.875" y1="30" y2="50"/><polygon fill="#181818" points="593.875,40,597.875,50,601.875,40,597.875,44" style="stroke:#181818;stroke-width:1.0;"/><line style="stroke:#181818;stroke-width:1.0;" x1="597.875" x2="597.875" y1="986.0586" y2="1006.0586"/><polygon fill="#181818" points="593.875,996.0586,597.875,1006.0586,601.875,996.0586,597.875,1000.0586" style="stroke:#181818;stroke-width:1.0;"/><!--SRC=[fPHDRuCm38Rl-HNUQVGKxLgqGzLrLQMjLEtKUmO6Cj449M7J_ltoGIkWi6hQ1L3YsC_xsa4RfWpXUKIfberAaLBW6fY0ZT26YHH1vf1iPOOpC2KAYBvHpyXyZGRUc2hiost6PBx8Cg3K-3MtP3CP2KUkkS7C1saRjLJ8349I6ou5gs2L5MYFIO59xhurfN7WaUAo0YMpJ71aLTF7w82t9Lta0wo4GSL5uTFtmSy0BroRP1y79GUVmaEIQB7REFArOdLvC3RyD8l9LyahZ9wbWXLBou3DXSlSFTmQurPTnBtkUsHnburIA7hUmUFT88UpSYpGKb7w6HnrFlqU65gHx5qaYepdxkbraFckCJ1mZeciTyZ98vla_GDJ0w-ijflbkyzLQOo4lFBoaZ2Kd72iFoAjOQrPjzimCMLNOaTaUarTaU4uiKoZAeDZPwr-qdfbRqxQOB0WL_8qA1u7n6xKDQ5rRR8FurY5xukoDFOY3nZrz7LOR9ziSWjmQ7y5_srYsw-kFD-iNebXjpgRVp7ZFE2NfpQo_W40]--></g></svg>