<?xml version="1.0" encoding="us-ascii" standalone="no"?><svg xmlns="http://www.w3.org/2000/svg" xmlns:xlink="http://www.w3.org/1999/xlink" contentStyleType="text/css" height="392px" preserveAspectRatio="none" style="width:316px;height:392px;background:#FFFFFF;" version="1.1" viewBox="0 0 316 392" width="316px" zoomAndPan="magnify"><defs/><g><ellipse cx="161.5" cy="20" fill="#222222" rx="10" ry="10" style="stroke:#222222;stroke-width:1.0;"/><rect fill="#F1F1F1" height="33.9688" rx="12.5" ry="12.5" style="stroke:#181818;stroke-width:0.5;" width="202" x="60.5" y="50"/><text fill="#000000" font-family="sans-serif" font-size="12" lengthAdjust="spacing" textLength="171" x="70.5" y="71.1387">Construct DepthFirstIterator,</text><text fill="#000000" font-family="sans-serif" font-size="12" font-style="italic" lengthAdjust="spacing" textLength="7" x="245.5" y="71.1387">k</text><rect fill="#F1F1F1" height="33.9688" rx="12.5" ry="12.5" style="stroke:#181818;stroke-width:0.5;" width="108" x="107.5" y="147.9688"/><text fill="#000000" font-family="sans-serif" font-size="12" lengthAdjust="spacing" textLength="88" x="117.5" y="169.1074">Get Next Node</text><rect fill="#F1F1F1" height="33.9688" rx="12.5" ry="12.5" style="stroke:#181818;stroke-width:0.5;" width="185" x="69" y="201.9375"/><text fill="#000000" font-family="sans-serif" font-size="12" lengthAdjust="spacing" textLength="165" x="79" y="223.0762">Print Node Name and Depth</text><rect fill="#F1F1F1" height="33.9688" rx="12.5" ry="12.5" style="stroke:#181818;stroke-width:0.5;" width="233" x="45" y="270.9063"/><text fill="#000000" font-family="sans-serif" font-size="12" lengthAdjust="spacing" textLength="213" x="55" y="292.0449">Set Node Class Attribute to marked</text><rect fill="#F1F1F1" height="33.9688" rx="12.5" ry="12.5" style="stroke:#181818;stroke-width:0.5;" width="55" x="134" y="324.875"/><text fill="#000000" font-family="sans-serif" font-size="12" lengthAdjust="spacing" textLength="35" x="144" y="346.0137">Sleep</text><polygon fill="#F1F1F1" points="128,103.9688,195,103.9688,207,115.9688,195,127.9688,128,127.9688,116,115.9688,128,103.9688" style="stroke:#181818;stroke-width:0.5;"/><text fill="#000000" font-family="sans-serif" font-size="11" font-style="italic" lengthAdjust="spacing" textLength="6" x="128" y="119.7769">k</text><text fill="#000000" font-family="sans-serif" font-size="11" lengthAdjust="spacing" textLength="57" x="138" y="119.7769">has Next?</text><ellipse cx="24" cy="158.9688" fill="none" rx="11" ry="11" style="stroke:#222222;stroke-width:1.0;"/><ellipse cx="24" cy="158.9688" fill="#222222" rx="6" ry="6" style="stroke:#222222;stroke-width:1.0;"/><line style="stroke:#181818;stroke-width:1.0;" x1="161.5" x2="161.5" y1="30" y2="50"/><polygon fill="#181818" points="157.5,40,161.5,50,165.5,40,161.5,44" style="stroke:#181818;stroke-width:1.0;"/><line style="stroke:#181818;stroke-width:1.0;" x1="161.5" x2="161.5" y1="181.9375" y2="201.9375"/><polygon fill="#181818" points="157.5,191.9375,161.5,201.9375,165.5,191.9375,161.5,195.9375" style="stroke:#181818;stroke-width:1.0;"/><line style="stroke:#181818;stroke-width:1.0;" x1="161.5" x2="161.5" y1="235.9063" y2="270.9063"/><polygon fill="#181818" points="157.5,260.9063,161.5,270.9063,165.5,260.9063,161.5,264.9063" style="stroke:#181818;stroke-width:1.0;"/><line style="stroke:#181818;stroke-width:1.0;" x1="161.5" x2="161.5" y1="304.875" y2="324.875"/><polygon fill="#181818" points="157.5,314.875,161.5,324.875,165.5,314.875,161.5,318.875" style="stroke:#181818;stroke-width:1.0;"/><line style="stroke:#181818;stroke-width:1.0;" x1="161.5" x2="161.5" y1="127.9688" y2="147.9688"/><polygon fill="#181818" points="157.5,137.9688,161.5,147.9688,165.5,137.9688,161.5,141.9688" style="stroke:#181818;stroke-width:1.0;"/><line style="stroke:#181818;stroke-width:1.0;" x1="161.5" x2="161.5" y1="358.8438" y2="368.8438"/><line style="stroke:#181818;stroke-width:1.0;" x1="161.5" x2="290" y1="368.8438" y2="368.8438"/><polygon fill="#181818" points="286,251.4063,290,241.4063,294,251.4063,290,247.4063" style="stroke:#181818;stroke-width:1.0;"/><line style="stroke:#181818;stroke-width:1.0;" x1="290" x2="290" y1="115.9688" y2="368.8438"/><line style="stroke:#181818;stroke-width:1.0;" x1="290" x2="207" y1="115.9688" y2="115.9688"/><polygon fill="#181818" points="217,111.9688,207,115.9688,217,119.9688,213,115.9688" style="stroke:#181818;stroke-width:1.0;"/><line style="stroke:#181818;stroke-width:1.0;" x1="116" x2="24" y1="115.9688" y2="115.9688"/><line style="stroke:#181818;stroke-width:1.0;" x1="24" x2="24" y1="115.9688" y2="147.9688"/><polygon fill="#181818" points="20,137.9688,24,147.9688,28,137.9688,24,141.9688" style="stroke:#181818;stroke-width:1.0;"/><line style="stroke:#181818;stroke-width:1.0;" x1="161.5" x2="161.5" y1="83.9688" y2="103.9688"/><polygon fill="#181818" points="157.5,93.9688,161.5,103.9688,165.5,93.9688,161.5,97.9688" style="stroke:#181818;stroke-width:1.0;"/><!--SRC=[BOt12i8m44Jl-OezAWYvjmUHYkAb5Fo2rImaj4tAxXJzV3NrDeytp1XOuPgkP8EkJz1P5iHBKiCDeeoY1_9-zBvrhvWcsLMWo4Qzl77Sk-Ogg9dw4gHrpQ0fRq0zpqASmpRxTNVvcsvYCpe1cXuhX51ePXqb_4gJoD8woQ5UEaDPFW00]--></g></svg>