<?xml version="1.0" encoding="us-ascii" standalone="no"?><svg xmlns="http://www.w3.org/2000/svg" xmlns:xlink="http://www.w3.org/1999/xlink" contentStyleType="text/css" height="364px" preserveAspectRatio="none" style="width:205px;height:364px;background:#FFFFFF;" version="1.1" viewBox="0 0 205 364" width="205px" zoomAndPan="magnify"><defs/><g><ellipse cx="101.5" cy="20" fill="#222222" rx="10" ry="10" style="stroke:#222222;stroke-width:1.0;"/><rect fill="#F1F1F1" height="33.9688" rx="12.5" ry="12.5" style="stroke:#181818;stroke-width:0.5;" width="181" x="11" y="50"/><text fill="#000000" font-family="sans-serif" font-size="12" lengthAdjust="spacing" textLength="161" x="21" y="71.1387">Create new Class ArrayList</text><rect fill="#F1F1F1" height="33.9688" rx="12.5" ry="12.5" style="stroke:#181818;stroke-width:0.5;" width="148" x="27.5" y="103.9688"/><text fill="#000000" font-family="sans-serif" font-size="12" lengthAdjust="spacing" textLength="128" x="37.5" y="125.1074">Add mainClass to List</text><rect fill="#F1F1F1" height="33.9688" rx="12.5" ry="12.5" style="stroke:#181818;stroke-width:0.5;" width="125" x="39" y="201.9375"/><text fill="#000000" font-family="sans-serif" font-size="12" lengthAdjust="spacing" textLength="105" x="49" y="223.0762">Add Parent to List</text><polygon fill="#F1F1F1" points="48,157.9375,155,157.9375,167,169.9375,155,181.9375,48,181.9375,36,169.9375,48,157.9375" style="stroke:#181818;stroke-width:0.5;"/><text fill="#000000" font-family="sans-serif" font-size="11" lengthAdjust="spacing" textLength="107" x="48" y="173.7456">Main has a Parent?</text><rect fill="#F1F1F1" height="33.9688" rx="12.5" ry="12.5" style="stroke:#181818;stroke-width:0.5;" width="82" x="60.5" y="277.9063"/><text fill="#000000" font-family="sans-serif" font-size="12" lengthAdjust="spacing" textLength="62" x="70.5" y="299.0449">Return List</text><ellipse cx="101.5" cy="342.875" fill="none" rx="11" ry="11" style="stroke:#222222;stroke-width:1.0;"/><ellipse cx="101.5" cy="342.875" fill="#222222" rx="6" ry="6" style="stroke:#222222;stroke-width:1.0;"/><line style="stroke:#181818;stroke-width:1.0;" x1="101.5" x2="101.5" y1="30" y2="50"/><polygon fill="#181818" points="97.5,40,101.5,50,105.5,40,101.5,44" style="stroke:#181818;stroke-width:1.0;"/><line style="stroke:#181818;stroke-width:1.0;" x1="101.5" x2="101.5" y1="83.9688" y2="103.9688"/><polygon fill="#181818" points="97.5,93.9688,101.5,103.9688,105.5,93.9688,101.5,97.9688" style="stroke:#181818;stroke-width:1.0;"/><line style="stroke:#181818;stroke-width:1.0;" x1="101.5" x2="101.5" y1="181.9375" y2="201.9375"/><polygon fill="#181818" points="97.5,191.9375,101.5,201.9375,105.5,191.9375,101.5,195.9375" style="stroke:#181818;stroke-width:1.0;"/><line style="stroke:#181818;stroke-width:1.0;" x1="101.5" x2="101.5" y1="235.9063" y2="245.9063"/><line style="stroke:#181818;stroke-width:1.0;" x1="101.5" x2="179" y1="245.9063" y2="245.9063"/><polygon fill="#181818" points="175,216.9219,179,206.9219,183,216.9219,179,212.9219" style="stroke:#181818;stroke-width:1.0;"/><line style="stroke:#181818;stroke-width:1.0;" x1="179" x2="179" y1="169.9375" y2="245.9063"/><line style="stroke:#181818;stroke-width:1.0;" x1="179" x2="167" y1="169.9375" y2="169.9375"/><polygon fill="#181818" points="177,165.9375,167,169.9375,177,173.9375,173,169.9375" style="stroke:#181818;stroke-width:1.0;"/><line style="stroke:#181818;stroke-width:1.0;" x1="36" x2="24" y1="169.9375" y2="169.9375"/><polygon fill="#181818" points="20,202.9219,24,212.9219,28,202.9219,24,206.9219" style="stroke:#181818;stroke-width:1.0;"/><line style="stroke:#181818;stroke-width:1.0;" x1="24" x2="24" y1="169.9375" y2="257.9063"/><line style="stroke:#181818;stroke-width:1.0;" x1="24" x2="101.5" y1="257.9063" y2="257.9063"/><line style="stroke:#181818;stroke-width:1.0;" x1="101.5" x2="101.5" y1="257.9063" y2="277.9063"/><polygon fill="#181818" points="97.5,267.9063,101.5,277.9063,105.5,267.9063,101.5,271.9063" style="stroke:#181818;stroke-width:1.0;"/><line style="stroke:#181818;stroke-width:1.0;" x1="101.5" x2="101.5" y1="137.9375" y2="157.9375"/><polygon fill="#181818" points="97.5,147.9375,101.5,157.9375,105.5,147.9375,101.5,151.9375" style="stroke:#181818;stroke-width:1.0;"/><line style="stroke:#181818;stroke-width:1.0;" x1="101.5" x2="101.5" y1="311.875" y2="331.875"/><polygon fill="#181818" points="97.5,321.875,101.5,331.875,105.5,321.875,101.5,325.875" style="stroke:#181818;stroke-width:1.0;"/><!--SRC=[HOj12e0m30JlVKME-eLw4F6g8FuWq40BDKeIAVvUiOB7dTbHGp7dHo4q0gO2OqPL64Jmcf9Qv_mG0coOk1hReV8IKwPcVWH4L41OK8YjRsjHrtyd3c_X_4fs2dzORJzk]--></g></svg>