<svg xmlns="http://www.w3.org/2000/svg" xmlns:xlink="http://www.w3.org/1999/xlink" contentStyleType="text/css" height="526px" preserveAspectRatio="none" style="width:722px;height:526px;background:#FFFFFF;" version="1.1" viewBox="0 0 722 526" width="722px" zoomAndPan="magnify"><defs/><g><ellipse cx="361.0459" cy="20" fill="#222222" rx="10" ry="10" style="stroke:#222222;stroke-width:1.0;"/><rect fill="#555555" height="6" rx="2.5" ry="2.5" style="stroke:#555555;stroke-width:1.0;" width="700.0918" x="11" y="50"/><rect fill="#F1F1F1" height="33.9688" rx="12.5" ry="12.5" style="stroke:#181818;stroke-width:0.5;" width="143.3047" x="64.915" y="76"/><text fill="#000000" font-family="sans-serif" font-size="12" lengthAdjust="spacing" textLength="123.3047" x="74.915" y="97.1387">Create Resource Set</text><rect fill="#F1F1F1" height="33.9688" rx="12.5" ry="12.5" style="stroke:#181818;stroke-width:0.5;" width="227.1348" x="23" y="144.9688"/><text fill="#000000" font-family="sans-serif" font-size="12" lengthAdjust="spacing" textLength="207.1348" x="33" y="166.1074">Load Resource with Dependencies</text><rect fill="#F1F1F1" height="33.9688" rx="12.5" ry="12.5" style="stroke:#181818;stroke-width:0.5;" width="109.3789" x="81.8779" y="213.9375"/><text fill="#000000" font-family="sans-serif" font-size="12" lengthAdjust="spacing" textLength="89.3789" x="91.8779" y="235.0762">Create File URI</text><rect fill="#F1F1F1" height="33.9688" rx="12.5" ry="12.5" style="stroke:#181818;stroke-width:0.5;" width="140.1055" x="66.5146" y="282.9063"/><text fill="#000000" font-family="sans-serif" font-size="12" lengthAdjust="spacing" textLength="120.1055" x="76.5146" y="304.0449">Construct SysMLUtil</text><rect fill="#F1F1F1" height="33.9688" rx="12.5" ry="12.5" style="stroke:#181818;stroke-width:0.5;" width="167.7676" x="52.6836" y="351.875"/><text fill="#000000" font-family="sans-serif" font-size="12" lengthAdjust="spacing" textLength="147.7676" x="62.6836" y="373.0137">Construct SysMLAdapter</text><rect fill="#F1F1F1" height="33.9688" rx="12.5" ry="12.5" style="stroke:#181818;stroke-width:0.5;" width="208.2148" x="260.1348" y="116.4688"/><text fill="#000000" font-family="sans-serif" font-size="12" lengthAdjust="spacing" textLength="188.2148" x="270.1348" y="137.6074">Catch File Not Found Exception</text><rect fill="#F1F1F1" height="33.9688" rx="12.5" ry="12.5" style="stroke:#181818;stroke-width:0.5;" width="133.3906" x="297.5469" y="185.4375"/><text fill="#000000" font-family="sans-serif" font-size="12" lengthAdjust="spacing" textLength="113.3906" x="307.5469" y="206.5762">Add Error Message</text><rect fill="#F1F1F1" height="33.9688" rx="12.5" ry="12.5" style="stroke:#181818;stroke-width:0.5;" width="95.6094" x="316.4375" y="254.4063"/><text fill="#000000" font-family="sans-serif" font-size="12" lengthAdjust="spacing" textLength="75.6094" x="326.4375" y="275.5449">Return False</text><ellipse cx="364.2422" cy="334.375" fill="none" rx="11" ry="11" style="stroke:#222222;stroke-width:1.0;"/><ellipse cx="364.2422" cy="334.375" fill="#222222" rx="6" ry="6" style="stroke:#222222;stroke-width:1.0;"/><rect fill="#F1F1F1" height="33.9688" rx="12.5" ry="12.5" style="stroke:#181818;stroke-width:0.5;" width="220.7422" x="478.3496" y="116.4688"/><text fill="#000000" font-family="sans-serif" font-size="12" lengthAdjust="spacing" textLength="200.7422" x="488.3496" y="137.6074">Catch UML Model Error Exception</text><rect fill="#F1F1F1" height="33.9688" rx="12.5" ry="12.5" style="stroke:#181818;stroke-width:0.5;" width="133.3906" x="522.0254" y="185.4375"/><text fill="#000000" font-family="sans-serif" font-size="12" lengthAdjust="spacing" textLength="113.3906" x="532.0254" y="206.5762">Add Error Message</text><rect fill="#F1F1F1" height="33.9688" rx="12.5" ry="12.5" style="stroke:#181818;stroke-width:0.5;" width="95.6094" x="540.916" y="254.4063"/><text fill="#000000" font-family="sans-serif" font-size="12" lengthAdjust="spacing" textLength="75.6094" x="550.916" y="275.5449">Return False</text><ellipse cx="588.7207" cy="334.375" fill="none" rx="11" ry="11" style="stroke:#222222;stroke-width:1.0;"/><ellipse cx="588.7207" cy="334.375" fill="#222222" rx="6" ry="6" style="stroke:#222222;stroke-width:1.0;"/><polygon fill="#F1F1F1" points="361.0459,395.8438,373.0459,407.8438,361.0459,419.8438,349.0459,407.8438,361.0459,395.8438" style="stroke:#181818;stroke-width:0.5;"/><rect fill="#F1F1F1" height="33.9688" rx="12.5" ry="12.5" style="stroke:#181818;stroke-width:0.5;" width="91.6367" x="315.2275" y="439.8438"/><text fill="#000000" font-family="sans-serif" font-size="12" lengthAdjust="spacing" textLength="71.6367" x="325.2275" y="460.9824">Return True</text><ellipse cx="361.0459" cy="504.8125" fill="none" rx="11" ry="11" style="stroke:#222222;stroke-width:1.0;"/><ellipse cx="361.0459" cy="504.8125" fill="#222222" rx="6" ry="6" style="stroke:#222222;stroke-width:1.0;"/><line style="stroke:#181818;stroke-width:1.0;" x1="136.5674" x2="136.5674" y1="109.9688" y2="144.9688"/><polygon fill="#181818" points="132.5674,134.9688,136.5674,144.9688,140.5674,134.9688,136.5674,138.9688" style="stroke:#181818;stroke-width:1.0;"/><line style="stroke:#181818;stroke-width:1.0;" x1="136.5674" x2="136.5674" y1="178.9375" y2="213.9375"/><polygon fill="#181818" points="132.5674,203.9375,136.5674,213.9375,140.5674,203.9375,136.5674,207.9375" style="stroke:#181818;stroke-width:1.0;"/><line style="stroke:#181818;stroke-width:1.0;" x1="136.5674" x2="136.5674" y1="247.9063" y2="282.9063"/><polygon fill="#181818" points="132.5674,272.9063,136.5674,282.9063,140.5674,272.9063,136.5674,276.9063" style="stroke:#181818;stroke-width:1.0;"/><line style="stroke:#181818;stroke-width:1.0;" x1="136.5674" x2="136.5674" y1="316.875" y2="351.875"/><polygon fill="#181818" points="132.5674,341.875,136.5674,351.875,140.5674,341.875,136.5674,345.875" style="stroke:#181818;stroke-width:1.0;"/><line style="stroke:#181818;stroke-width:1.0;" x1="364.2422" x2="364.2422" y1="150.4375" y2="185.4375"/><polygon fill="#181818" points="360.2422,175.4375,364.2422,185.4375,368.2422,175.4375,364.2422,179.4375" style="stroke:#181818;stroke-width:1.0;"/><line style="stroke:#181818;stroke-width:1.0;" x1="364.2422" x2="364.2422" y1="219.4063" y2="254.4063"/><polygon fill="#181818" points="360.2422,244.4063,364.2422,254.4063,368.2422,244.4063,364.2422,248.4063" style="stroke:#181818;stroke-width:1.0;"/><line style="stroke:#181818;stroke-width:1.0;" x1="364.2422" x2="364.2422" y1="288.375" y2="323.375"/><polygon fill="#181818" points="360.2422,313.375,364.2422,323.375,368.2422,313.375,364.2422,317.375" style="stroke:#181818;stroke-width:1.0;"/><line style="stroke:#181818;stroke-width:1.0;" x1="588.7207" x2="588.7207" y1="150.4375" y2="185.4375"/><polygon fill="#181818" points="584.7207,175.4375,588.7207,185.4375,592.7207,175.4375,588.7207,179.4375" style="stroke:#181818;stroke-width:1.0;"/><line style="stroke:#181818;stroke-width:1.0;" x1="588.7207" x2="588.7207" y1="219.4063" y2="254.4063"/><polygon fill="#181818" points="584.7207,244.4063,588.7207,254.4063,592.7207,244.4063,588.7207,248.4063" style="stroke:#181818;stroke-width:1.0;"/><line style="stroke:#181818;stroke-width:1.0;" x1="588.7207" x2="588.7207" y1="288.375" y2="323.375"/><polygon fill="#181818" points="584.7207,313.375,588.7207,323.375,592.7207,313.375,588.7207,317.375" style="stroke:#181818;stroke-width:1.0;"/><line style="stroke:#181818;stroke-width:1.0;" x1="136.5674" x2="136.5674" y1="56" y2="76"/><polygon fill="#181818" points="132.5674,66,136.5674,76,140.5674,66,136.5674,70" style="stroke:#181818;stroke-width:1.0;"/><line style="stroke:#181818;stroke-width:1.0;" x1="364.2422" x2="364.2422" y1="56" y2="116.4688"/><polygon fill="#181818" points="360.2422,106.4688,364.2422,116.4688,368.2422,106.4688,364.2422,110.4688" style="stroke:#181818;stroke-width:1.0;"/><line style="stroke:#181818;stroke-width:1.0;" x1="588.7207" x2="588.7207" y1="56" y2="116.4688"/><polygon fill="#181818" points="584.7207,106.4688,588.7207,116.4688,592.7207,106.4688,588.7207,110.4688" style="stroke:#181818;stroke-width:1.0;"/><line style="stroke:#181818;stroke-width:1.0;" x1="136.5674" x2="136.5674" y1="385.8438" y2="407.8438"/><line style="stroke:#181818;stroke-width:1.0;" x1="136.5674" x2="349.0459" y1="407.8438" y2="407.8438"/><polygon fill="#181818" points="339.0459,403.8438,349.0459,407.8438,339.0459,411.8438,343.0459,407.8438" style="stroke:#181818;stroke-width:1.0;"/><line style="stroke:#181818;stroke-width:1.0;" x1="361.0459" x2="361.0459" y1="30" y2="50"/><polygon fill="#181818" points="357.0459,40,361.0459,50,365.0459,40,361.0459,44" style="stroke:#181818;stroke-width:1.0;"/><line style="stroke:#181818;stroke-width:1.0;" x1="361.0459" x2="361.0459" y1="419.8438" y2="439.8438"/><polygon fill="#181818" points="357.0459,429.8438,361.0459,439.8438,365.0459,429.8438,361.0459,433.8438" style="stroke:#181818;stroke-width:1.0;"/><line style="stroke:#181818;stroke-width:1.0;" x1="361.0459" x2="361.0459" y1="473.8125" y2="493.8125"/><polygon fill="#181818" points="357.0459,483.8125,361.0459,493.8125,365.0459,483.8125,361.0459,487.8125" style="stroke:#181818;stroke-width:1.0;"/><!--SRC=[dOz1JiD034NNv1G-HxEgQ2CX9IpIvW3Mp2ST4SQHxL7XzcGAg9kkMFhzxoVRdDMRDz7tvcdth607ZJ0f6a0dUBlXNZZUuJNvXGvOaIDoIB3sljcb1JIDBpSasLnBS3fzsT1FdfO7U1zvTMXxEu5uvfHhYJrSVcolujH9oP6Edm6h9ybLiuyRK1Mb0MOyey8HNZHJnulLsLpMHzvfw6cGYENNy3_nzZzzG6SqV_5PovRMy1i0]--></g></svg>