<svg xmlns="http://www.w3.org/2000/svg" xmlns:xlink="http://www.w3.org/1999/xlink" contentStyleType="text/css" height="684px" preserveAspectRatio="none" style="width:638px;height:684px;background:#FFFFFF;" version="1.1" viewBox="0 0 638 684" width="638px" zoomAndPan="magnify"><defs/><g><ellipse cx="325.3584" cy="20" fill="#222222" rx="10" ry="10" style="stroke:#222222;stroke-width:1.0;"/><rect fill="#F1F1F1" height="33.9688" rx="12.5" ry="12.5" style="stroke:#181818;stroke-width:0.5;" width="125.9316" x="262.3926" y="50"/><text fill="#000000" font-family="sans-serif" font-size="12" lengthAdjust="spacing" textLength="105.9316" x="272.3926" y="71.1387">Construct ToAlloy</text><rect fill="#F1F1F1" height="33.9688" rx="12.5" ry="12.5" style="stroke:#181818;stroke-width:0.5;" width="209.6445" x="220.5361" y="103.9688"/><text fill="#000000" font-family="sans-serif" font-size="12" lengthAdjust="spacing" textLength="189.6445" x="230.5361" y="125.1074">Create errorMessages ArrayList</text><rect fill="#F1F1F1" height="33.9688" rx="12.5" ry="12.5" style="stroke:#181818;stroke-width:0.5;" width="181.4551" x="234.6309" y="157.9375"/><text fill="#000000" font-family="sans-serif" font-size="12" lengthAdjust="spacing" textLength="161.4551" x="244.6309" y="179.0762">Create messages ArrayList</text><rect fill="#F1F1F1" height="33.9688" rx="12.5" ry="12.5" style="stroke:#181818;stroke-width:0.5;" width="183.248" x="233.7344" y="211.9063"/><text fill="#000000" font-family="sans-serif" font-size="12" lengthAdjust="spacing" textLength="163.248" x="243.7344" y="233.0449">Set parameterFields to null</text><rect fill="#555555" height="6" rx="2.5" ry="2.5" style="stroke:#555555;stroke-width:1.0;" width="616.7168" x="11" y="265.875"/><rect fill="#F1F1F1" height="33.9688" rx="12.5" ry="12.5" style="stroke:#181818;stroke-width:0.5;" width="156.4355" x="151.9009" y="335.875"/><text fill="#000000" font-family="sans-serif" font-size="12" lengthAdjust="spacing" textLength="136.4355" x="161.9009" y="357.0137">ToAlloy createAlloyFile</text><polygon fill="#F1F1F1" points="147.5139,404.8438,312.7234,404.8438,324.7234,416.8438,312.7234,428.8438,147.5139,428.8438,135.5139,416.8438,147.5139,404.8438" style="stroke:#181818;stroke-width:0.5;"/><text fill="#000000" font-family="sans-serif" font-size="11" lengthAdjust="spacing" textLength="165.2095" x="147.5139" y="420.6519">Alloy File created successfully</text><text fill="#000000" font-family="sans-serif" font-size="11" lengthAdjust="spacing" textLength="13.7017" x="324.7234" y="414.2495">no</text><rect fill="#F1F1F1" height="33.9688" rx="12.5" ry="12.5" style="stroke:#181818;stroke-width:0.5;" width="189.1426" x="23" y="438.8438"/><text fill="#000000" font-family="sans-serif" font-size="12" lengthAdjust="spacing" textLength="169.1426" x="33" y="459.9824">Add message File is created</text><rect fill="#F1F1F1" height="33.9688" rx="12.5" ry="12.5" style="stroke:#181818;stroke-width:0.5;" width="221.0469" x="232.1426" y="438.8438"/><text fill="#000000" font-family="sans-serif" font-size="12" lengthAdjust="spacing" textLength="201.0469" x="242.1426" y="459.9824">Add message Failed to create file</text><polygon fill="#F1F1F1" points="230.1187,478.8125,242.1187,490.8125,230.1187,502.8125,218.1187,490.8125,230.1187,478.8125" style="stroke:#181818;stroke-width:0.5;"/><polygon fill="#F1F1F1" points="177.9465,291.875,282.2908,291.875,294.2908,303.875,282.2908,315.875,177.9465,315.875,165.9465,303.875,177.9465,291.875" style="stroke:#181818;stroke-width:0.5;"/><text fill="#000000" font-family="sans-serif" font-size="11" lengthAdjust="spacing" textLength="104.3442" x="177.9465" y="307.6831">CreateAlloy != null</text><polygon fill="#F1F1F1" points="230.1187,526.8125,242.1187,538.8125,230.1187,550.8125,218.1187,538.8125,230.1187,526.8125" style="stroke:#181818;stroke-width:0.5;"/><rect fill="#F1F1F1" height="33.9688" rx="12.5" ry="12.5" style="stroke:#181818;stroke-width:0.5;" width="111.3242" x="174.4565" y="581.8438"/><text fill="#000000" font-family="sans-serif" font-size="12" lengthAdjust="spacing" textLength="91.3242" x="184.4565" y="602.9824">Return success</text><ellipse cx="230.1187" cy="646.8125" fill="none" rx="11" ry="11" style="stroke:#222222;stroke-width:1.0;"/><ellipse cx="230.1187" cy="646.8125" fill="#222222" rx="6" ry="6" style="stroke:#222222;stroke-width:1.0;"/><rect fill="#F1F1F1" height="33.9688" rx="12.5" ry="12.5" style="stroke:#181818;stroke-width:0.5;" width="130.707" x="483.0996" y="367.875"/><text fill="#000000" font-family="sans-serif" font-size="12" lengthAdjust="spacing" textLength="110.707" x="493.0996" y="389.0137">Catch IOException</text><rect fill="#F1F1F1" height="33.9688" rx="12.5" ry="12.5" style="stroke:#181818;stroke-width:0.5;" width="134.5273" x="481.1895" y="436.8438"/><text fill="#000000" font-family="sans-serif" font-size="12" lengthAdjust="spacing" textLength="114.5273" x="491.1895" y="457.9824">Add error message</text><rect fill="#F1F1F1" height="33.9688" rx="12.5" ry="12.5" style="stroke:#181818;stroke-width:0.5;" width="92.9316" x="501.9873" y="505.8125"/><text fill="#000000" font-family="sans-serif" font-size="12" lengthAdjust="spacing" textLength="72.9316" x="511.9873" y="526.9512">Return false</text><ellipse cx="548.4531" cy="581.8125" fill="none" rx="11" ry="11" style="stroke:#222222;stroke-width:1.0;"/><ellipse cx="548.4531" cy="581.8125" fill="#222222" rx="6" ry="6" style="stroke:#222222;stroke-width:1.0;"/><rect fill="#555555" height="6" rx="2.5" ry="2.5" style="stroke:#555555;stroke-width:1.0;" width="616.7168" x="11" y="667.8125"/><line style="stroke:#181818;stroke-width:1.0;" x1="325.3584" x2="325.3584" y1="30" y2="50"/><polygon fill="#181818" points="321.3584,40,325.3584,50,329.3584,40,325.3584,44" style="stroke:#181818;stroke-width:1.0;"/><line style="stroke:#181818;stroke-width:1.0;" x1="325.3584" x2="325.3584" y1="83.9688" y2="103.9688"/><polygon fill="#181818" points="321.3584,93.9688,325.3584,103.9688,329.3584,93.9688,325.3584,97.9688" style="stroke:#181818;stroke-width:1.0;"/><line style="stroke:#181818;stroke-width:1.0;" x1="325.3584" x2="325.3584" y1="137.9375" y2="157.9375"/><polygon fill="#181818" points="321.3584,147.9375,325.3584,157.9375,329.3584,147.9375,325.3584,151.9375" style="stroke:#181818;stroke-width:1.0;"/><line style="stroke:#181818;stroke-width:1.0;" x1="325.3584" x2="325.3584" y1="191.9063" y2="211.9063"/><polygon fill="#181818" points="321.3584,201.9063,325.3584,211.9063,329.3584,201.9063,325.3584,205.9063" style="stroke:#181818;stroke-width:1.0;"/><line style="stroke:#181818;stroke-width:1.0;" x1="135.5139" x2="117.5713" y1="416.8438" y2="416.8438"/><line style="stroke:#181818;stroke-width:1.0;" x1="117.5713" x2="117.5713" y1="416.8438" y2="438.8438"/><polygon fill="#181818" points="113.5713,428.8438,117.5713,438.8438,121.5713,428.8438,117.5713,432.8438" style="stroke:#181818;stroke-width:1.0;"/><line style="stroke:#181818;stroke-width:1.0;" x1="324.7234" x2="342.666" y1="416.8438" y2="416.8438"/><line style="stroke:#181818;stroke-width:1.0;" x1="342.666" x2="342.666" y1="416.8438" y2="438.8438"/><polygon fill="#181818" points="338.666,428.8438,342.666,438.8438,346.666,428.8438,342.666,432.8438" style="stroke:#181818;stroke-width:1.0;"/><line style="stroke:#181818;stroke-width:1.0;" x1="117.5713" x2="117.5713" y1="472.8125" y2="490.8125"/><line style="stroke:#181818;stroke-width:1.0;" x1="117.5713" x2="218.1187" y1="490.8125" y2="490.8125"/><polygon fill="#181818" points="208.1187,486.8125,218.1187,490.8125,208.1187,494.8125,212.1187,490.8125" style="stroke:#181818;stroke-width:1.0;"/><line style="stroke:#181818;stroke-width:1.0;" x1="342.666" x2="342.666" y1="472.8125" y2="490.8125"/><line style="stroke:#181818;stroke-width:1.0;" x1="342.666" x2="242.1187" y1="490.8125" y2="490.8125"/><polygon fill="#181818" points="252.1187,486.8125,242.1187,490.8125,252.1187,494.8125,248.1187,490.8125" style="stroke:#181818;stroke-width:1.0;"/><line style="stroke:#181818;stroke-width:1.0;" x1="230.1187" x2="230.1187" y1="369.8438" y2="404.8438"/><polygon fill="#181818" points="226.1187,394.8438,230.1187,404.8438,234.1187,394.8438,230.1187,398.8438" style="stroke:#181818;stroke-width:1.0;"/><line style="stroke:#181818;stroke-width:1.0;" x1="230.1187" x2="230.1187" y1="315.875" y2="335.875"/><polygon fill="#181818" points="226.1187,325.875,230.1187,335.875,234.1187,325.875,230.1187,329.875" style="stroke:#181818;stroke-width:1.0;"/><line style="stroke:#181818;stroke-width:1.0;" x1="294.2908" x2="467.1895" y1="303.875" y2="303.875"/><polygon fill="#181818" points="463.1895,409.3438,467.1895,419.3438,471.1895,409.3438,467.1895,413.3438" style="stroke:#181818;stroke-width:1.0;"/><line style="stroke:#181818;stroke-width:1.0;" x1="467.1895" x2="467.1895" y1="303.875" y2="538.8125"/><line style="stroke:#181818;stroke-width:1.0;" x1="467.1895" x2="242.1187" y1="538.8125" y2="538.8125"/><polygon fill="#181818" points="252.1187,534.8125,242.1187,538.8125,252.1187,542.8125,248.1187,538.8125" style="stroke:#181818;stroke-width:1.0;"/><line style="stroke:#181818;stroke-width:1.0;" x1="230.1187" x2="230.1187" y1="502.8125" y2="526.8125"/><polygon fill="#181818" points="226.1187,516.8125,230.1187,526.8125,234.1187,516.8125,230.1187,520.8125" style="stroke:#181818;stroke-width:1.0;"/><line style="stroke:#181818;stroke-width:1.0;" x1="230.1187" x2="230.1187" y1="550.8125" y2="581.8438"/><polygon fill="#181818" points="226.1187,571.8438,230.1187,581.8438,234.1187,571.8438,230.1187,575.8438" style="stroke:#181818;stroke-width:1.0;"/><line style="stroke:#181818;stroke-width:1.0;" x1="230.1187" x2="230.1187" y1="615.8125" y2="635.8125"/><polygon fill="#181818" points="226.1187,625.8125,230.1187,635.8125,234.1187,625.8125,230.1187,629.8125" style="stroke:#181818;stroke-width:1.0;"/><line style="stroke:#181818;stroke-width:1.0;" x1="548.4531" x2="548.4531" y1="401.8438" y2="436.8438"/><polygon fill="#181818" points="544.4531,426.8438,548.4531,436.8438,552.4531,426.8438,548.4531,430.8438" style="stroke:#181818;stroke-width:1.0;"/><line style="stroke:#181818;stroke-width:1.0;" x1="548.4531" x2="548.4531" y1="470.8125" y2="505.8125"/><polygon fill="#181818" points="544.4531,495.8125,548.4531,505.8125,552.4531,495.8125,548.4531,499.8125" style="stroke:#181818;stroke-width:1.0;"/><line style="stroke:#181818;stroke-width:1.0;" x1="548.4531" x2="548.4531" y1="539.7813" y2="570.8125"/><polygon fill="#181818" points="544.4531,560.8125,548.4531,570.8125,552.4531,560.8125,548.4531,564.8125" style="stroke:#181818;stroke-width:1.0;"/><line style="stroke:#181818;stroke-width:1.0;" x1="230.1187" x2="230.1187" y1="271.875" y2="291.875"/><polygon fill="#181818" points="226.1187,281.875,230.1187,291.875,234.1187,281.875,230.1187,285.875" style="stroke:#181818;stroke-width:1.0;"/><line style="stroke:#181818;stroke-width:1.0;" x1="548.4531" x2="548.4531" y1="271.875" y2="367.875"/><polygon fill="#181818" points="544.4531,357.875,548.4531,367.875,552.4531,357.875,548.4531,361.875" style="stroke:#181818;stroke-width:1.0;"/><line style="stroke:#181818;stroke-width:1.0;" x1="325.3584" x2="325.3584" y1="245.875" y2="265.875"/><polygon fill="#181818" points="321.3584,255.875,325.3584,265.875,329.3584,255.875,325.3584,259.875" style="stroke:#181818;stroke-width:1.0;"/><!--SRC=[RP1DQiGm38NNoIdKtVGAALs4eGE5baAd5n2sF3Nrs45IO7Bx-Y-qYraPz3wzzsHHP1s7wPYYAAz6uIlD8QJjgGoPK0c8EV4xYU2516PctDwyw3_YUbSyayA2Z5TIufEdO0KqGLn3oB9B_3CEtXsQHms5X-SgFux3CFKYOFxqam-KLyjMqygW0nPaDIONSTbWAmx3D5kxTskebvqkDXI43Z7TOJ73jfHjDBWUJD5wD-xFz4cwSjo3Co2QbdOQu0LzB7SSKSqtl7wyt0mjwbCiHZMkVkmUMgVTq65krkr-0G00]--></g></svg>