<?xml version="1.0" encoding="us-ascii" standalone="no"?><svg xmlns="http://www.w3.org/2000/svg" xmlns:xlink="http://www.w3.org/1999/xlink" contentStyleType="text/css" height="565px" preserveAspectRatio="none" style="width:239px;height:565px;background:#FFFFFF;" version="1.1" viewBox="0 0 239 565" width="239px" zoomAndPan="magnify"><defs/><g><ellipse cx="118.5" cy="20" fill="#222222" rx="10" ry="10" style="stroke:#222222;stroke-width:1.0;"/><rect fill="#F1F1F1" height="33.9688" rx="12.5" ry="12.5" style="stroke:#181818;stroke-width:0.5;" width="159" x="39" y="50"/><text fill="#000000" font-family="sans-serif" font-size="12" lengthAdjust="spacing" textLength="126" x="49" y="71.1387">Create New ArrayList</text><text fill="#000000" font-family="sans-serif" font-size="12" font-style="italic" lengthAdjust="spacing" textLength="9" x="179" y="71.1387">ls</text><rect fill="#F1F1F1" height="33.9688" rx="12.5" ry="12.5" style="stroke:#181818;stroke-width:0.5;" width="150" x="43.5" y="103.9688"/><text fill="#000000" font-family="sans-serif" font-size="12" lengthAdjust="spacing" textLength="120" x="53.5" y="125.1074">Create Empty String</text><text fill="#000000" font-family="sans-serif" font-size="12" font-style="italic" lengthAdjust="spacing" textLength="6" x="177.5" y="125.1074">s</text><rect fill="#F1F1F1" height="33.9688" rx="12.5" ry="12.5" style="stroke:#181818;stroke-width:0.5;" width="165" x="36" y="201.9375"/><text fill="#000000" font-family="sans-serif" font-size="12" lengthAdjust="spacing" textLength="135" x="46" y="223.0762">Add Current IObject to</text><text fill="#000000" font-family="sans-serif" font-size="12" font-style="italic" lengthAdjust="spacing" textLength="6" x="185" y="223.0762">s</text><polygon fill="#F1F1F1" points="55.5,157.9375,181.5,157.9375,193.5,169.9375,181.5,181.9375,55.5,181.9375,43.5,169.9375,55.5,157.9375" style="stroke:#181818;stroke-width:0.5;"/><text fill="#000000" font-family="sans-serif" font-size="11" lengthAdjust="spacing" textLength="106" x="55.5" y="173.7456">For Each IObject in</text><text fill="#000000" font-family="sans-serif" font-size="11" font-style="italic" lengthAdjust="spacing" textLength="16" x="165.5" y="173.7456">list</text><rect fill="#F1F1F1" height="33.9688" rx="12.5" ry="12.5" style="stroke:#181818;stroke-width:0.5;" width="95" x="71" y="326.3086"/><text fill="#000000" font-family="sans-serif" font-size="12" lengthAdjust="spacing" textLength="65" x="81" y="347.4473">Trim String</text><text fill="#000000" font-family="sans-serif" font-size="12" font-style="italic" lengthAdjust="spacing" textLength="6" x="150" y="347.4473">s</text><polygon fill="#F1F1F1" points="77,277.9063,160,277.9063,172,289.9063,160,301.9063,77,301.9063,65,289.9063,77,277.9063" style="stroke:#181818;stroke-width:0.5;"/><text fill="#000000" font-family="sans-serif" font-size="11" lengthAdjust="spacing" textLength="21" x="122.5" y="312.1167">yes</text><text fill="#000000" font-family="sans-serif" font-size="11" font-style="italic" lengthAdjust="spacing" textLength="6" x="77" y="293.7144">s</text><text fill="#000000" font-family="sans-serif" font-size="11" lengthAdjust="spacing" textLength="73" x="87" y="293.7144">Starts with +</text><polygon fill="#F1F1F1" points="118.5,380.2773,130.5,392.2773,118.5,404.2773,106.5,392.2773,118.5,380.2773" style="stroke:#181818;stroke-width:0.5;"/><rect fill="#F1F1F1" height="33.9688" rx="12.5" ry="12.5" style="stroke:#181818;stroke-width:0.5;" width="83" x="77" y="424.2773"/><text fill="#000000" font-family="sans-serif" font-size="12" lengthAdjust="spacing" textLength="24" x="87" y="445.416">Add</text><text fill="#000000" font-family="sans-serif" font-size="12" font-style="italic" lengthAdjust="spacing" textLength="6" x="115" y="445.416">s</text><text fill="#000000" font-family="sans-serif" font-size="12" lengthAdjust="spacing" textLength="12" x="125" y="445.416">to</text><text fill="#000000" font-family="sans-serif" font-size="12" font-style="italic" lengthAdjust="spacing" textLength="9" x="141" y="445.416">ls</text><rect fill="#F1F1F1" height="33.9688" rx="12.5" ry="12.5" style="stroke:#181818;stroke-width:0.5;" width="71" x="83" y="478.2461"/><text fill="#000000" font-family="sans-serif" font-size="12" lengthAdjust="spacing" textLength="38" x="93" y="499.3848">Return</text><text fill="#000000" font-family="sans-serif" font-size="12" font-style="italic" lengthAdjust="spacing" textLength="9" x="135" y="499.3848">ls</text><ellipse cx="118.5" cy="543.2148" fill="none" rx="11" ry="11" style="stroke:#222222;stroke-width:1.0;"/><ellipse cx="118.5" cy="543.2148" fill="#222222" rx="6" ry="6" style="stroke:#222222;stroke-width:1.0;"/><line style="stroke:#181818;stroke-width:1.0;" x1="118.5" x2="118.5" y1="30" y2="50"/><polygon fill="#181818" points="114.5,40,118.5,50,122.5,40,118.5,44" style="stroke:#181818;stroke-width:1.0;"/><line style="stroke:#181818;stroke-width:1.0;" x1="118.5" x2="118.5" y1="83.9688" y2="103.9688"/><polygon fill="#181818" points="114.5,93.9688,118.5,103.9688,122.5,93.9688,118.5,97.9688" style="stroke:#181818;stroke-width:1.0;"/><line style="stroke:#181818;stroke-width:1.0;" x1="118.5" x2="118.5" y1="181.9375" y2="201.9375"/><polygon fill="#181818" points="114.5,191.9375,118.5,201.9375,122.5,191.9375,118.5,195.9375" style="stroke:#181818;stroke-width:1.0;"/><line style="stroke:#181818;stroke-width:1.0;" x1="118.5" x2="118.5" y1="235.9063" y2="245.9063"/><line style="stroke:#181818;stroke-width:1.0;" x1="118.5" x2="213" y1="245.9063" y2="245.9063"/><polygon fill="#181818" points="209,216.9219,213,206.9219,217,216.9219,213,212.9219" style="stroke:#181818;stroke-width:1.0;"/><line style="stroke:#181818;stroke-width:1.0;" x1="213" x2="213" y1="169.9375" y2="245.9063"/><line style="stroke:#181818;stroke-width:1.0;" x1="213" x2="193.5" y1="169.9375" y2="169.9375"/><polygon fill="#181818" points="203.5,165.9375,193.5,169.9375,203.5,173.9375,199.5,169.9375" style="stroke:#181818;stroke-width:1.0;"/><line style="stroke:#181818;stroke-width:1.0;" x1="43.5" x2="24" y1="169.9375" y2="169.9375"/><polygon fill="#181818" points="20,202.9219,24,212.9219,28,202.9219,24,206.9219" style="stroke:#181818;stroke-width:1.0;"/><line style="stroke:#181818;stroke-width:1.0;" x1="24" x2="24" y1="169.9375" y2="257.9063"/><line style="stroke:#181818;stroke-width:1.0;" x1="24" x2="118.5" y1="257.9063" y2="257.9063"/><line style="stroke:#181818;stroke-width:1.0;" x1="118.5" x2="118.5" y1="257.9063" y2="277.9063"/><polygon fill="#181818" points="114.5,267.9063,118.5,277.9063,122.5,267.9063,118.5,271.9063" style="stroke:#181818;stroke-width:1.0;"/><line style="stroke:#181818;stroke-width:1.0;" x1="118.5" x2="118.5" y1="137.9375" y2="157.9375"/><polygon fill="#181818" points="114.5,147.9375,118.5,157.9375,122.5,147.9375,118.5,151.9375" style="stroke:#181818;stroke-width:1.0;"/><line style="stroke:#181818;stroke-width:1.0;" x1="118.5" x2="118.5" y1="301.9063" y2="326.3086"/><polygon fill="#181818" points="114.5,316.3086,118.5,326.3086,122.5,316.3086,118.5,320.3086" style="stroke:#181818;stroke-width:1.0;"/><line style="stroke:#181818;stroke-width:1.0;" x1="172" x2="184" y1="289.9063" y2="289.9063"/><polygon fill="#181818" points="180,333.293,184,343.293,188,333.293,184,337.293" style="stroke:#181818;stroke-width:1.0;"/><line style="stroke:#181818;stroke-width:1.0;" x1="184" x2="184" y1="289.9063" y2="392.2773"/><line style="stroke:#181818;stroke-width:1.0;" x1="184" x2="130.5" y1="392.2773" y2="392.2773"/><polygon fill="#181818" points="140.5,388.2773,130.5,392.2773,140.5,396.2773,136.5,392.2773" style="stroke:#181818;stroke-width:1.0;"/><line style="stroke:#181818;stroke-width:1.0;" x1="118.5" x2="118.5" y1="360.2773" y2="380.2773"/><polygon fill="#181818" points="114.5,370.2773,118.5,380.2773,122.5,370.2773,118.5,374.2773" style="stroke:#181818;stroke-width:1.0;"/><line style="stroke:#181818;stroke-width:1.0;" x1="118.5" x2="118.5" y1="404.2773" y2="424.2773"/><polygon fill="#181818" points="114.5,414.2773,118.5,424.2773,122.5,414.2773,118.5,418.2773" style="stroke:#181818;stroke-width:1.0;"/><line style="stroke:#181818;stroke-width:1.0;" x1="118.5" x2="118.5" y1="458.2461" y2="478.2461"/><polygon fill="#181818" points="114.5,468.2461,118.5,478.2461,122.5,468.2461,118.5,472.2461" style="stroke:#181818;stroke-width:1.0;"/><line style="stroke:#181818;stroke-width:1.0;" x1="118.5" x2="118.5" y1="512.2148" y2="532.2148"/><polygon fill="#181818" points="114.5,522.2148,118.5,532.2148,122.5,522.2148,118.5,526.2148" style="stroke:#181818;stroke-width:1.0;"/><!--SRC=[NOx13e8m44Jl_OezbdZe7K-4O69YD55_eC9Yrq0XsoM4lxSMvU1nTsRUJ13BelAIqGh26MSecEroeY1WJ1UCsMzgrO-om4sO_3EAIPiTTQWF0qDbQmV7o-E5jG3vJpf2ZCbKNZGDb1CpUjaSClmGw9j4KTJgz8eLSLI0cSJ1BWDnw44l62BgpjJ_JOXvQjUIDPxGt-bNb8dzTWSPnZS0]--></g></svg>