<?xml version="1.0" encoding="us-ascii" standalone="no"?><svg xmlns="http://www.w3.org/2000/svg" xmlns:xlink="http://www.w3.org/1999/xlink" contentStyleType="text/css" height="335px" preserveAspectRatio="none" style="width:289px;height:335px;background:#FFFFFF;" version="1.1" viewBox="0 0 289 335" width="289px" zoomAndPan="magnify"><defs/><g><ellipse cx="155" cy="20" fill="#222222" rx="10" ry="10" style="stroke:#222222;stroke-width:1.0;"/><rect fill="#F1F1F1" height="33.9688" rx="12.5" ry="12.5" style="stroke:#181818;stroke-width:0.5;" width="163" x="73.5" y="50"/><text fill="#000000" font-family="sans-serif" font-size="12" lengthAdjust="spacing" textLength="130" x="83.5" y="71.1387">Create New ArrayList,</text><text fill="#000000" font-family="sans-serif" font-size="12" font-style="italic" lengthAdjust="spacing" textLength="9" x="217.5" y="71.1387">ls</text><rect fill="#F1F1F1" height="33.9688" rx="12.5" ry="12.5" style="stroke:#181818;stroke-width:0.5;" width="220" x="45" y="147.9688"/><text fill="#000000" font-family="sans-serif" font-size="12" lengthAdjust="spacing" textLength="200" x="55" y="169.1074">Turn Current IObject to String List</text><rect fill="#F1F1F1" height="33.9688" rx="12.5" ry="12.5" style="stroke:#181818;stroke-width:0.5;" width="112" x="99" y="245.9375"/><text fill="#000000" font-family="sans-serif" font-size="12" lengthAdjust="spacing" textLength="79" x="109" y="267.0762">Add String to</text><text fill="#000000" font-family="sans-serif" font-size="12" font-style="italic" lengthAdjust="spacing" textLength="9" x="192" y="267.0762">ls</text><polygon fill="#F1F1F1" points="83.5,201.9375,226.5,201.9375,238.5,213.9375,226.5,225.9375,83.5,225.9375,71.5,213.9375,83.5,201.9375" style="stroke:#181818;stroke-width:0.5;"/><text fill="#000000" font-family="sans-serif" font-size="11" lengthAdjust="spacing" textLength="143" x="83.5" y="217.7456">For Each String in IObject</text><polygon fill="#F1F1F1" points="92,103.9688,218,103.9688,230,115.9688,218,127.9688,92,127.9688,80,115.9688,92,103.9688" style="stroke:#181818;stroke-width:0.5;"/><text fill="#000000" font-family="sans-serif" font-size="11" lengthAdjust="spacing" textLength="106" x="92" y="119.7769">For Each IObject in</text><text fill="#000000" font-family="sans-serif" font-size="11" font-style="italic" lengthAdjust="spacing" textLength="16" x="202" y="119.7769">list</text><ellipse cx="24" cy="158.9688" fill="none" rx="11" ry="11" style="stroke:#222222;stroke-width:1.0;"/><ellipse cx="24" cy="158.9688" fill="#222222" rx="6" ry="6" style="stroke:#222222;stroke-width:1.0;"/><line style="stroke:#181818;stroke-width:1.0;" x1="155" x2="155" y1="30" y2="50"/><polygon fill="#181818" points="151,40,155,50,159,40,155,44" style="stroke:#181818;stroke-width:1.0;"/><line style="stroke:#181818;stroke-width:1.0;" x1="155" x2="155" y1="225.9375" y2="245.9375"/><polygon fill="#181818" points="151,235.9375,155,245.9375,159,235.9375,155,239.9375" style="stroke:#181818;stroke-width:1.0;"/><line style="stroke:#181818;stroke-width:1.0;" x1="155" x2="155" y1="279.9063" y2="289.9063"/><line style="stroke:#181818;stroke-width:1.0;" x1="155" x2="250.5" y1="289.9063" y2="289.9063"/><polygon fill="#181818" points="246.5,260.9219,250.5,250.9219,254.5,260.9219,250.5,256.9219" style="stroke:#181818;stroke-width:1.0;"/><line style="stroke:#181818;stroke-width:1.0;" x1="250.5" x2="250.5" y1="213.9375" y2="289.9063"/><line style="stroke:#181818;stroke-width:1.0;" x1="250.5" x2="238.5" y1="213.9375" y2="213.9375"/><polygon fill="#181818" points="248.5,209.9375,238.5,213.9375,248.5,217.9375,244.5,213.9375" style="stroke:#181818;stroke-width:1.0;"/><line style="stroke:#181818;stroke-width:1.0;" x1="71.5" x2="59.5" y1="213.9375" y2="213.9375"/><polygon fill="#181818" points="55.5,246.9219,59.5,256.9219,63.5,246.9219,59.5,250.9219" style="stroke:#181818;stroke-width:1.0;"/><line style="stroke:#181818;stroke-width:1.0;" x1="59.5" x2="59.5" y1="213.9375" y2="301.9063"/><line style="stroke:#181818;stroke-width:1.0;" x1="59.5" x2="277" y1="301.9063" y2="301.9063"/><line style="stroke:#181818;stroke-width:1.0;" x1="277" x2="277" y1="115.9688" y2="301.9063"/><line style="stroke:#181818;stroke-width:1.0;" x1="277" x2="230" y1="115.9688" y2="115.9688"/><polygon fill="#181818" points="240,111.9688,230,115.9688,240,119.9688,236,115.9688" style="stroke:#181818;stroke-width:1.0;"/><line style="stroke:#181818;stroke-width:1.0;" x1="155" x2="155" y1="181.9375" y2="201.9375"/><polygon fill="#181818" points="151,191.9375,155,201.9375,159,191.9375,155,195.9375" style="stroke:#181818;stroke-width:1.0;"/><line style="stroke:#181818;stroke-width:1.0;" x1="155" x2="155" y1="127.9688" y2="147.9688"/><polygon fill="#181818" points="151,137.9688,155,147.9688,159,137.9688,155,141.9688" style="stroke:#181818;stroke-width:1.0;"/><line style="stroke:#181818;stroke-width:1.0;" x1="80" x2="24" y1="115.9688" y2="115.9688"/><line style="stroke:#181818;stroke-width:1.0;" x1="24" x2="24" y1="115.9688" y2="147.9688"/><polygon fill="#181818" points="20,137.9688,24,147.9688,28,137.9688,24,141.9688" style="stroke:#181818;stroke-width:1.0;"/><line style="stroke:#181818;stroke-width:1.0;" x1="155" x2="155" y1="83.9688" y2="103.9688"/><polygon fill="#181818" points="151,93.9688,155,103.9688,159,93.9688,155,97.9688" style="stroke:#181818;stroke-width:1.0;"/><!--SRC=[POv12i9034NtSug_L12ohwjI50JHXLvWx0GxKZAIIIdUtgcqkd0NalSUoURLNDKeUsESU4Ijwb_7c6q3eZuJRTtOnPvN-wJO-RR3uNnxS6k8CX6595gxwZgee1bKMUoBMCB5DCeTK_6lDDzAQ1PAfmvXsHTxUO4bVDpVa2qztm00]--></g></svg>