<?xml version="1.0" encoding="us-ascii" standalone="no"?><svg xmlns="http://www.w3.org/2000/svg" xmlns:xlink="http://www.w3.org/1999/xlink" contentStyleType="text/css" height="629px" preserveAspectRatio="none" style="width:528px;height:629px;background:#FFFFFF;" version="1.1" viewBox="0 0 528 629" width="528px" zoomAndPan="magnify"><defs/><g><ellipse cx="273" cy="20" fill="#222222" rx="10" ry="10" style="stroke:#222222;stroke-width:1.0;"/><rect fill="#F1F1F1" height="33.9688" rx="12.5" ry="12.5" style="stroke:#181818;stroke-width:0.5;" width="180" x="183" y="50"/><text fill="#000000" font-family="sans-serif" font-size="12" lengthAdjust="spacing" textLength="129" x="193" y="71.1387">Create New HashMap</text><text fill="#000000" font-family="sans-serif" font-size="12" font-style="italic" lengthAdjust="spacing" textLength="27" x="326" y="71.1387">map</text><rect fill="#F1F1F1" height="33.9688" rx="12.5" ry="12.5" style="stroke:#181818;stroke-width:0.5;" width="190" x="178" y="103.9688"/><text fill="#000000" font-family="sans-serif" font-size="12" lengthAdjust="spacing" textLength="126" x="188" y="125.1074">Create New ArrayList</text><text fill="#000000" font-family="sans-serif" font-size="12" font-style="italic" lengthAdjust="spacing" textLength="40" x="318" y="125.1074">names</text><polygon fill="#F1F1F1" points="159.5,201.9375,386.5,201.9375,398.5,213.9375,386.5,225.9375,159.5,225.9375,147.5,213.9375,159.5,201.9375" style="stroke:#181818;stroke-width:0.5;"/><text fill="#000000" font-family="sans-serif" font-size="11" lengthAdjust="spacing" textLength="227" x="159.5" y="217.7456">Current IObject is an Instance of ONode</text><text fill="#000000" font-family="sans-serif" font-size="11" lengthAdjust="spacing" textLength="21" x="126.5" y="211.3433">yes</text><text fill="#000000" font-family="sans-serif" font-size="11" lengthAdjust="spacing" textLength="14" x="398.5" y="211.3433">no</text><rect fill="#F1F1F1" height="33.9688" rx="12.5" ry="12.5" style="stroke:#181818;stroke-width:0.5;" width="177" x="49" y="235.9375"/><text fill="#000000" font-family="sans-serif" font-size="12" lengthAdjust="spacing" textLength="126" x="59" y="257.0762">Put Current IObject in</text><text fill="#000000" font-family="sans-serif" font-size="12" font-style="italic" lengthAdjust="spacing" textLength="27" x="189" y="257.0762">map</text><rect fill="#F1F1F1" height="33.9688" rx="12.5" ry="12.5" style="stroke:#181818;stroke-width:0.5;" width="199" x="38" y="303.4063"/><text fill="#000000" font-family="sans-serif" font-size="12" lengthAdjust="spacing" textLength="135" x="48" y="324.5449">Add Current IObject to</text><text fill="#000000" font-family="sans-serif" font-size="12" font-style="italic" lengthAdjust="spacing" textLength="40" x="187" y="324.5449">names</text><rect fill="#F1F1F1" height="33.9688" rx="12.5" ry="12.5" style="stroke:#181818;stroke-width:0.5;" width="159" x="329" y="235.9375"/><text fill="#000000" font-family="sans-serif" font-size="12" lengthAdjust="spacing" textLength="139" x="339" y="257.0762">Print Not supported yet</text><polygon fill="#F1F1F1" points="273,343.375,285,355.375,273,367.375,261,355.375,273,343.375" style="stroke:#181818;stroke-width:0.5;"/><polygon fill="#F1F1F1" points="210,157.9375,336,157.9375,348,169.9375,336,181.9375,210,181.9375,198,169.9375,210,157.9375" style="stroke:#181818;stroke-width:0.5;"/><text fill="#000000" font-family="sans-serif" font-size="11" lengthAdjust="spacing" textLength="106" x="210" y="173.7456">For Each IObject in</text><text fill="#000000" font-family="sans-serif" font-size="11" font-style="italic" lengthAdjust="spacing" textLength="16" x="320" y="173.7456">list</text><rect fill="#F1F1F1" height="33.9688" rx="12.5" ry="12.5" style="stroke:#181818;stroke-width:0.5;" width="89" x="228.5" y="409.375"/><text fill="#000000" font-family="sans-serif" font-size="12" lengthAdjust="spacing" textLength="25" x="238.5" y="430.5137">Sort</text><text fill="#000000" font-family="sans-serif" font-size="12" font-style="italic" lengthAdjust="spacing" textLength="40" x="267.5" y="430.5137">names</text><rect fill="#F1F1F1" height="33.9688" rx="12.5" ry="12.5" style="stroke:#181818;stroke-width:0.5;" width="199" x="173.5" y="463.3438"/><text fill="#000000" font-family="sans-serif" font-size="12" lengthAdjust="spacing" textLength="54" x="183.5" y="484.4824">Instatiate</text><text fill="#000000" font-family="sans-serif" font-size="12" font-style="italic" lengthAdjust="spacing" textLength="17" x="241.5" y="484.4824">list</text><text fill="#000000" font-family="sans-serif" font-size="12" lengthAdjust="spacing" textLength="100" x="262.5" y="484.4824">as New ArrayList</text><rect fill="#F1F1F1" height="33.9688" rx="12.5" ry="12.5" style="stroke:#181818;stroke-width:0.5;" width="120" x="213" y="561.3125"/><text fill="#000000" font-family="sans-serif" font-size="12" lengthAdjust="spacing" textLength="79" x="223" y="582.4512">Add String to</text><text fill="#000000" font-family="sans-serif" font-size="12" font-style="italic" lengthAdjust="spacing" textLength="17" x="306" y="582.4512">list</text><polygon fill="#F1F1F1" points="202.5,517.3125,343.5,517.3125,355.5,529.3125,343.5,541.3125,202.5,541.3125,190.5,529.3125,202.5,517.3125" style="stroke:#181818;stroke-width:0.5;"/><text fill="#000000" font-family="sans-serif" font-size="11" lengthAdjust="spacing" textLength="99" x="202.5" y="533.1206">For Each String in</text><text fill="#000000" font-family="sans-serif" font-size="11" font-style="italic" lengthAdjust="spacing" textLength="38" x="305.5" y="533.1206">names</text><ellipse cx="179.5" cy="572.3125" fill="none" rx="11" ry="11" style="stroke:#222222;stroke-width:1.0;"/><ellipse cx="179.5" cy="572.3125" fill="#222222" rx="6" ry="6" style="stroke:#222222;stroke-width:1.0;"/><line style="stroke:#181818;stroke-width:1.0;" x1="273" x2="273" y1="30" y2="50"/><polygon fill="#181818" points="269,40,273,50,277,40,273,44" style="stroke:#181818;stroke-width:1.0;"/><line style="stroke:#181818;stroke-width:1.0;" x1="273" x2="273" y1="83.9688" y2="103.9688"/><polygon fill="#181818" points="269,93.9688,273,103.9688,277,93.9688,273,97.9688" style="stroke:#181818;stroke-width:1.0;"/><line style="stroke:#181818;stroke-width:1.0;" x1="137.5" x2="137.5" y1="269.9063" y2="303.4063"/><polygon fill="#181818" points="133.5,293.4063,137.5,303.4063,141.5,293.4063,137.5,297.4063" style="stroke:#181818;stroke-width:1.0;"/><line style="stroke:#181818;stroke-width:1.0;" x1="147.5" x2="137.5" y1="213.9375" y2="213.9375"/><line style="stroke:#181818;stroke-width:1.0;" x1="137.5" x2="137.5" y1="213.9375" y2="235.9375"/><polygon fill="#181818" points="133.5,225.9375,137.5,235.9375,141.5,225.9375,137.5,229.9375" style="stroke:#181818;stroke-width:1.0;"/><line style="stroke:#181818;stroke-width:1.0;" x1="398.5" x2="408.5" y1="213.9375" y2="213.9375"/><line style="stroke:#181818;stroke-width:1.0;" x1="408.5" x2="408.5" y1="213.9375" y2="235.9375"/><polygon fill="#181818" points="404.5,225.9375,408.5,235.9375,412.5,225.9375,408.5,229.9375" style="stroke:#181818;stroke-width:1.0;"/><line style="stroke:#181818;stroke-width:1.0;" x1="137.5" x2="137.5" y1="337.375" y2="355.375"/><line style="stroke:#181818;stroke-width:1.0;" x1="137.5" x2="261" y1="355.375" y2="355.375"/><polygon fill="#181818" points="251,351.375,261,355.375,251,359.375,255,355.375" style="stroke:#181818;stroke-width:1.0;"/><line style="stroke:#181818;stroke-width:1.0;" x1="408.5" x2="408.5" y1="269.9063" y2="355.375"/><line style="stroke:#181818;stroke-width:1.0;" x1="408.5" x2="285" y1="355.375" y2="355.375"/><polygon fill="#181818" points="295,351.375,285,355.375,295,359.375,291,355.375" style="stroke:#181818;stroke-width:1.0;"/><line style="stroke:#181818;stroke-width:1.0;" x1="273" x2="273" y1="181.9375" y2="201.9375"/><polygon fill="#181818" points="269,191.9375,273,201.9375,277,191.9375,273,195.9375" style="stroke:#181818;stroke-width:1.0;"/><line style="stroke:#181818;stroke-width:1.0;" x1="273" x2="273" y1="367.375" y2="377.375"/><line style="stroke:#181818;stroke-width:1.0;" x1="273" x2="502" y1="377.375" y2="377.375"/><polygon fill="#181818" points="498,283.4063,502,273.4063,506,283.4063,502,279.4063" style="stroke:#181818;stroke-width:1.0;"/><line style="stroke:#181818;stroke-width:1.0;" x1="502" x2="502" y1="169.9375" y2="377.375"/><line style="stroke:#181818;stroke-width:1.0;" x1="502" x2="348" y1="169.9375" y2="169.9375"/><polygon fill="#181818" points="358,165.9375,348,169.9375,358,173.9375,354,169.9375" style="stroke:#181818;stroke-width:1.0;"/><line style="stroke:#181818;stroke-width:1.0;" x1="198" x2="24" y1="169.9375" y2="169.9375"/><polygon fill="#181818" points="20,269.4063,24,279.4063,28,269.4063,24,273.4063" style="stroke:#181818;stroke-width:1.0;"/><line style="stroke:#181818;stroke-width:1.0;" x1="24" x2="24" y1="169.9375" y2="389.375"/><line style="stroke:#181818;stroke-width:1.0;" x1="24" x2="273" y1="389.375" y2="389.375"/><line style="stroke:#181818;stroke-width:1.0;" x1="273" x2="273" y1="389.375" y2="409.375"/><polygon fill="#181818" points="269,399.375,273,409.375,277,399.375,273,403.375" style="stroke:#181818;stroke-width:1.0;"/><line style="stroke:#181818;stroke-width:1.0;" x1="273" x2="273" y1="137.9375" y2="157.9375"/><polygon fill="#181818" points="269,147.9375,273,157.9375,277,147.9375,273,151.9375" style="stroke:#181818;stroke-width:1.0;"/><line style="stroke:#181818;stroke-width:1.0;" x1="273" x2="273" y1="443.3438" y2="463.3438"/><polygon fill="#181818" points="269,453.3438,273,463.3438,277,453.3438,273,457.3438" style="stroke:#181818;stroke-width:1.0;"/><line style="stroke:#181818;stroke-width:1.0;" x1="273" x2="273" y1="541.3125" y2="561.3125"/><polygon fill="#181818" points="269,551.3125,273,561.3125,277,551.3125,273,555.3125" style="stroke:#181818;stroke-width:1.0;"/><line style="stroke:#181818;stroke-width:1.0;" x1="273" x2="273" y1="595.2813" y2="605.2813"/><line style="stroke:#181818;stroke-width:1.0;" x1="273" x2="367.5" y1="605.2813" y2="605.2813"/><polygon fill="#181818" points="363.5,576.2969,367.5,566.2969,371.5,576.2969,367.5,572.2969" style="stroke:#181818;stroke-width:1.0;"/><line style="stroke:#181818;stroke-width:1.0;" x1="367.5" x2="367.5" y1="529.3125" y2="605.2813"/><line style="stroke:#181818;stroke-width:1.0;" x1="367.5" x2="355.5" y1="529.3125" y2="529.3125"/><polygon fill="#181818" points="365.5,525.3125,355.5,529.3125,365.5,533.3125,361.5,529.3125" style="stroke:#181818;stroke-width:1.0;"/><line style="stroke:#181818;stroke-width:1.0;" x1="190.5" x2="179.5" y1="529.3125" y2="529.3125"/><line style="stroke:#181818;stroke-width:1.0;" x1="179.5" x2="179.5" y1="529.3125" y2="561.3125"/><polygon fill="#181818" points="175.5,551.3125,179.5,561.3125,183.5,551.3125,179.5,555.3125" style="stroke:#181818;stroke-width:1.0;"/><line style="stroke:#181818;stroke-width:1.0;" x1="273" x2="273" y1="497.3125" y2="517.3125"/><polygon fill="#181818" points="269,507.3125,273,517.3125,277,507.3125,273,511.3125" style="stroke:#181818;stroke-width:1.0;"/><!--SRC=[PP11Zi8m34NtFOMNxIhxia881D9CGU84fd6d6HKdYbsXtfwq1L7KJJR_vVlPeXWrAtUHK0agUi0HfVt50CRSCHYp-GgtCUBmuqHJp7Wd6O57wphA3px27kiMJkVRFzKAZXFK9TQO8dDDlkjZ9DPFBe0C9nP5hWby0-VAMof0MsB81v8YAo-zmkeZB-Isrgu0zKizweHozcDPT8cgl8Bq8VYeP64WJGXRruplj4fMNbEsh2WdItNZ6Tux0ShtILQ7k6gQzpVhlggAMVYLJ9vps-OpNTI79m00]--></g></svg>