<?xml version="1.0" encoding="us-ascii" standalone="no"?><svg xmlns="http://www.w3.org/2000/svg" xmlns:xlink="http://www.w3.org/1999/xlink" contentStyleType="text/css" height="310px" preserveAspectRatio="none" style="width:239px;height:310px;background:#FFFFFF;" version="1.1" viewBox="0 0 239 310" width="239px" zoomAndPan="magnify"><defs/><g><ellipse cx="118.5" cy="20" fill="#222222" rx="10" ry="10" style="stroke:#222222;stroke-width:1.0;"/><rect fill="#F1F1F1" height="33.9688" rx="12.5" ry="12.5" style="stroke:#181818;stroke-width:0.5;" width="128" x="54.5" y="50"/><text fill="#000000" font-family="sans-serif" font-size="12" lengthAdjust="spacing" textLength="79" x="64.5" y="71.1387">Create String</text><text fill="#000000" font-family="sans-serif" font-size="12" font-style="italic" lengthAdjust="spacing" textLength="6" x="147.5" y="71.1387">s</text><text fill="#000000" font-family="sans-serif" font-size="12" lengthAdjust="spacing" textLength="15" x="157.5" y="71.1387">"("</text><rect fill="#F1F1F1" height="33.9688" rx="12.5" ry="12.5" style="stroke:#181818;stroke-width:0.5;" width="165" x="36" y="147.9688"/><text fill="#000000" font-family="sans-serif" font-size="12" lengthAdjust="spacing" textLength="135" x="46" y="169.1074">Add Current IObject to</text><text fill="#000000" font-family="sans-serif" font-size="12" font-style="italic" lengthAdjust="spacing" textLength="6" x="185" y="169.1074">s</text><polygon fill="#F1F1F1" points="55.5,103.9688,181.5,103.9688,193.5,115.9688,181.5,127.9688,55.5,127.9688,43.5,115.9688,55.5,103.9688" style="stroke:#181818;stroke-width:0.5;"/><text fill="#000000" font-family="sans-serif" font-size="11" lengthAdjust="spacing" textLength="106" x="55.5" y="119.7769">For Each IObject in</text><text fill="#000000" font-family="sans-serif" font-size="11" font-style="italic" lengthAdjust="spacing" textLength="16" x="165.5" y="119.7769">list</text><rect fill="#F1F1F1" height="33.9688" rx="12.5" ry="12.5" style="stroke:#181818;stroke-width:0.5;" width="107" x="65" y="223.9375"/><text fill="#000000" font-family="sans-serif" font-size="12" lengthAdjust="spacing" textLength="77" x="75" y="245.0762">Return String</text><text fill="#000000" font-family="sans-serif" font-size="12" font-style="italic" lengthAdjust="spacing" textLength="6" x="156" y="245.0762">s</text><ellipse cx="118.5" cy="288.9063" fill="none" rx="11" ry="11" style="stroke:#222222;stroke-width:1.0;"/><ellipse cx="118.5" cy="288.9063" fill="#222222" rx="6" ry="6" style="stroke:#222222;stroke-width:1.0;"/><line style="stroke:#181818;stroke-width:1.0;" x1="118.5" x2="118.5" y1="30" y2="50"/><polygon fill="#181818" points="114.5,40,118.5,50,122.5,40,118.5,44" style="stroke:#181818;stroke-width:1.0;"/><line style="stroke:#181818;stroke-width:1.0;" x1="118.5" x2="118.5" y1="127.9688" y2="147.9688"/><polygon fill="#181818" points="114.5,137.9688,118.5,147.9688,122.5,137.9688,118.5,141.9688" style="stroke:#181818;stroke-width:1.0;"/><line style="stroke:#181818;stroke-width:1.0;" x1="118.5" x2="118.5" y1="181.9375" y2="191.9375"/><line style="stroke:#181818;stroke-width:1.0;" x1="118.5" x2="213" y1="191.9375" y2="191.9375"/><polygon fill="#181818" points="209,162.9531,213,152.9531,217,162.9531,213,158.9531" style="stroke:#181818;stroke-width:1.0;"/><line style="stroke:#181818;stroke-width:1.0;" x1="213" x2="213" y1="115.9688" y2="191.9375"/><line style="stroke:#181818;stroke-width:1.0;" x1="213" x2="193.5" y1="115.9688" y2="115.9688"/><polygon fill="#181818" points="203.5,111.9688,193.5,115.9688,203.5,119.9688,199.5,115.9688" style="stroke:#181818;stroke-width:1.0;"/><line style="stroke:#181818;stroke-width:1.0;" x1="43.5" x2="24" y1="115.9688" y2="115.9688"/><polygon fill="#181818" points="20,148.9531,24,158.9531,28,148.9531,24,152.9531" style="stroke:#181818;stroke-width:1.0;"/><line style="stroke:#181818;stroke-width:1.0;" x1="24" x2="24" y1="115.9688" y2="203.9375"/><line style="stroke:#181818;stroke-width:1.0;" x1="24" x2="118.5" y1="203.9375" y2="203.9375"/><line style="stroke:#181818;stroke-width:1.0;" x1="118.5" x2="118.5" y1="203.9375" y2="223.9375"/><polygon fill="#181818" points="114.5,213.9375,118.5,223.9375,122.5,213.9375,118.5,217.9375" style="stroke:#181818;stroke-width:1.0;"/><line style="stroke:#181818;stroke-width:1.0;" x1="118.5" x2="118.5" y1="83.9688" y2="103.9688"/><polygon fill="#181818" points="114.5,93.9688,118.5,103.9688,122.5,93.9688,118.5,97.9688" style="stroke:#181818;stroke-width:1.0;"/><line style="stroke:#181818;stroke-width:1.0;" x1="118.5" x2="118.5" y1="257.9063" y2="277.9063"/><polygon fill="#181818" points="114.5,267.9063,118.5,277.9063,122.5,267.9063,118.5,271.9063" style="stroke:#181818;stroke-width:1.0;"/><!--SRC=[LSqn2i9044RXVaunf8hLzBkL10KhmPnWantCIfYLsJzuVSM0OF_uNaDoK1XS4vH7UB4xYpGHxlekqcifg_RdwdnAyyANw_JG6Lpi4wsbGUH0uPWp3vkx6du5wiv4KijVXS9DiRdzNI8rrESR]--></g></svg>