<?xml version="1.0" encoding="us-ascii" standalone="no"?><svg xmlns="http://www.w3.org/2000/svg" xmlns:xlink="http://www.w3.org/1999/xlink" contentStyleType="text/css" height="190px" preserveAspectRatio="none" style="width:204px;height:190px;background:#FFFFFF;" version="1.1" viewBox="0 0 204 190" width="204px" zoomAndPan="magnify"><defs/><g><ellipse cx="102" cy="20" fill="#222222" rx="10" ry="10" style="stroke:#222222;stroke-width:1.0;"/><rect fill="#F1F1F1" height="33.9688" rx="12.5" ry="12.5" style="stroke:#181818;stroke-width:0.5;" width="182" x="11" y="50"/><text fill="#000000" font-family="sans-serif" font-size="12" lengthAdjust="spacing" textLength="93" x="21" y="71.1387">Subtract 1 from</text><text fill="#000000" font-family="sans-serif" font-size="12" font-style="italic" lengthAdjust="spacing" textLength="65" x="118" y="71.1387">numOneOf</text><rect fill="#F1F1F1" height="33.9688" rx="12.5" ry="12.5" style="stroke:#181818;stroke-width:0.5;" width="127" x="38.5" y="103.9688"/><text fill="#000000" font-family="sans-serif" font-size="12" lengthAdjust="spacing" textLength="38" x="48.5" y="125.1074">Return</text><text fill="#000000" font-family="sans-serif" font-size="12" font-style="italic" lengthAdjust="spacing" textLength="65" x="90.5" y="125.1074">numOneOf</text><ellipse cx="102" cy="168.9375" fill="none" rx="11" ry="11" style="stroke:#222222;stroke-width:1.0;"/><ellipse cx="102" cy="168.9375" fill="#222222" rx="6" ry="6" style="stroke:#222222;stroke-width:1.0;"/><line style="stroke:#181818;stroke-width:1.0;" x1="102" x2="102" y1="30" y2="50"/><polygon fill="#181818" points="98,40,102,50,106,40,102,44" style="stroke:#181818;stroke-width:1.0;"/><line style="stroke:#181818;stroke-width:1.0;" x1="102" x2="102" y1="83.9688" y2="103.9688"/><polygon fill="#181818" points="98,93.9688,102,103.9688,106,93.9688,102,97.9688" style="stroke:#181818;stroke-width:1.0;"/><line style="stroke:#181818;stroke-width:1.0;" x1="102" x2="102" y1="137.9375" y2="157.9375"/><polygon fill="#181818" points="98,147.9375,102,157.9375,106,147.9375,102,151.9375" style="stroke:#181818;stroke-width:1.0;"/><!--SRC=[Aov9B2hXiWekJIefIamkKJ1KI2lAprNGryyhpVNFI_LFqzUtvh8AIYqfBSf34oqkoIy00000]--></g></svg>