<?xml version="1.0" encoding="us-ascii" standalone="no"?><svg xmlns="http://www.w3.org/2000/svg" xmlns:xlink="http://www.w3.org/1999/xlink" contentStyleType="text/css" height="190px" preserveAspectRatio="none" style="width:168px;height:190px;background:#FFFFFF;" version="1.1" viewBox="0 0 168 190" width="168px" zoomAndPan="magnify"><defs/><g><ellipse cx="84" cy="20" fill="#222222" rx="10" ry="10" style="stroke:#222222;stroke-width:1.0;"/><rect fill="#F1F1F1" height="33.9688" rx="12.5" ry="12.5" style="stroke:#181818;stroke-width:0.5;" width="146" x="11" y="50"/><text fill="#000000" font-family="sans-serif" font-size="12" lengthAdjust="spacing" textLength="21" x="21" y="71.1387">Get</text><text fill="#000000" font-family="sans-serif" font-size="12" font-style="italic" lengthAdjust="spacing" textLength="8" x="46" y="71.1387">n</text><text fill="#000000" font-family="sans-serif" font-size="12" lengthAdjust="spacing" textLength="89" x="58" y="71.1387">Attribute Name</text><rect fill="#F1F1F1" height="33.9688" rx="12.5" ry="12.5" style="stroke:#181818;stroke-width:0.5;" width="96" x="36" y="103.9688"/><text fill="#000000" font-family="sans-serif" font-size="12" lengthAdjust="spacing" textLength="76" x="46" y="125.1074">Return Name</text><ellipse cx="84" cy="168.9375" fill="none" rx="11" ry="11" style="stroke:#222222;stroke-width:1.0;"/><ellipse cx="84" cy="168.9375" fill="#222222" rx="6" ry="6" style="stroke:#222222;stroke-width:1.0;"/><line style="stroke:#181818;stroke-width:1.0;" x1="84" x2="84" y1="30" y2="50"/><polygon fill="#181818" points="80,40,84,50,88,40,84,44" style="stroke:#181818;stroke-width:1.0;"/><line style="stroke:#181818;stroke-width:1.0;" x1="84" x2="84" y1="83.9688" y2="103.9688"/><polygon fill="#181818" points="80,93.9688,84,103.9688,88,93.9688,84,97.9688" style="stroke:#181818;stroke-width:1.0;"/><line style="stroke:#181818;stroke-width:1.0;" x1="84" x2="84" y1="137.9375" y2="157.9375"/><polygon fill="#181818" points="80,147.9375,84,157.9375,88,147.9375,84,151.9375" style="stroke:#181818;stroke-width:1.0;"/><!--SRC=[Aov9B2hXid9FBL7Gry_JrrTmB2afoamgBKbLy4lCJRNciWfABIajoeFoYalo2m00]--></g></svg>