<?xml version="1.0" encoding="us-ascii" standalone="no"?><svg xmlns="http://www.w3.org/2000/svg" xmlns:xlink="http://www.w3.org/1999/xlink" contentStyleType="text/css" height="631px" preserveAspectRatio="none" style="width:206px;height:631px;background:#FFFFFF;" version="1.1" viewBox="0 0 206 631" width="206px" zoomAndPan="magnify"><defs/><g><ellipse cx="91" cy="20" fill="#222222" rx="10" ry="10" style="stroke:#222222;stroke-width:1.0;"/><rect fill="#F1F1F1" height="33.9688" rx="12.5" ry="12.5" style="stroke:#181818;stroke-width:0.5;" width="124" x="29" y="50"/><text fill="#000000" font-family="sans-serif" font-size="12" lengthAdjust="spacing" textLength="104" x="39" y="71.1387">Create Command</text><rect fill="#F1F1F1" height="33.9688" rx="12.5" ry="12.5" style="stroke:#181818;stroke-width:0.5;" width="160" x="11" y="103.9688"/><text fill="#000000" font-family="sans-serif" font-size="12" lengthAdjust="spacing" textLength="140" x="21" y="125.1074">Add Command to Array</text><rect fill="#F1F1F1" height="33.9688" rx="12.5" ry="12.5" style="stroke:#181818;stroke-width:0.5;" width="154" x="14" y="157.9375"/><text fill="#000000" font-family="sans-serif" font-size="12" lengthAdjust="spacing" textLength="134" x="24" y="179.0762">Construct AlloyModule</text><rect fill="#F1F1F1" height="33.9688" rx="12.5" ry="12.5" style="stroke:#181818;stroke-width:0.5;" width="141" x="20.5" y="211.9063"/><text fill="#000000" font-family="sans-serif" font-size="12" lengthAdjust="spacing" textLength="121" x="30.5" y="233.0449">Construct Translator</text><rect fill="#F1F1F1" height="33.9688" rx="12.5" ry="12.5" style="stroke:#181818;stroke-width:0.5;" width="151" x="15.5" y="309.875"/><text fill="#000000" font-family="sans-serif" font-size="12" lengthAdjust="spacing" textLength="131" x="25.5" y="331.0137">Get File Absolute Path</text><rect fill="#F1F1F1" height="33.9688" rx="12.5" ry="12.5" style="stroke:#181818;stroke-width:0.5;" width="158" x="12" y="363.8438"/><text fill="#000000" font-family="sans-serif" font-size="12" lengthAdjust="spacing" textLength="138" x="22" y="384.9824">Generate File Contents</text><rect fill="#F1F1F1" height="33.9688" rx="12.5" ry="12.5" style="stroke:#181818;stroke-width:0.5;" width="157" x="12.5" y="426.3281"/><text fill="#000000" font-family="sans-serif" font-size="12" lengthAdjust="spacing" textLength="137" x="22.5" y="447.4668">Return OutputFileName</text><ellipse cx="91" cy="491.2969" fill="none" rx="11" ry="11" style="stroke:#222222;stroke-width:1.0;"/><ellipse cx="91" cy="491.2969" fill="#222222" rx="6" ry="6" style="stroke:#222222;stroke-width:1.0;"/><polygon fill="#F1F1F1" points="42,265.875,140,265.875,152,277.875,140,289.875,42,289.875,30,277.875,42,265.875" style="stroke:#181818;stroke-width:0.5;"/><text fill="#000000" font-family="sans-serif" font-size="11" lengthAdjust="spacing" textLength="98" x="42" y="281.6831">outputFile != null</text><rect fill="#F1F1F1" height="33.9688" rx="12.5" ry="12.5" style="stroke:#181818;stroke-width:0.5;" width="148" x="17" y="544.2969"/><text fill="#000000" font-family="sans-serif" font-size="12" lengthAdjust="spacing" textLength="128" x="27" y="565.4355">Return "No outputfile"</text><ellipse cx="91" cy="609.2656" fill="none" rx="11" ry="11" style="stroke:#222222;stroke-width:1.0;"/><ellipse cx="91" cy="609.2656" fill="#222222" rx="6" ry="6" style="stroke:#222222;stroke-width:1.0;"/><line style="stroke:#181818;stroke-width:1.0;" x1="91" x2="91" y1="30" y2="50"/><polygon fill="#181818" points="87,40,91,50,95,40,91,44" style="stroke:#181818;stroke-width:1.0;"/><line style="stroke:#181818;stroke-width:1.0;" x1="91" x2="91" y1="83.9688" y2="103.9688"/><polygon fill="#181818" points="87,93.9688,91,103.9688,95,93.9688,91,97.9688" style="stroke:#181818;stroke-width:1.0;"/><line style="stroke:#181818;stroke-width:1.0;" x1="91" x2="91" y1="137.9375" y2="157.9375"/><polygon fill="#181818" points="87,147.9375,91,157.9375,95,147.9375,91,151.9375" style="stroke:#181818;stroke-width:1.0;"/><line style="stroke:#181818;stroke-width:1.0;" x1="91" x2="91" y1="191.9063" y2="211.9063"/><polygon fill="#181818" points="87,201.9063,91,211.9063,95,201.9063,91,205.9063" style="stroke:#181818;stroke-width:1.0;"/><line style="stroke:#181818;stroke-width:1.0;" x1="91" x2="91" y1="343.8438" y2="363.8438"/><polygon fill="#181818" points="87,353.8438,91,363.8438,95,353.8438,91,357.8438" style="stroke:#181818;stroke-width:1.0;"/><line style="stroke:#181818;stroke-width:1.0;" x1="91" x2="91" y1="397.8125" y2="426.3281"/><polygon fill="#181818" points="87,416.3281,91,426.3281,95,416.3281,91,420.3281" style="stroke:#181818;stroke-width:1.0;"/><line style="stroke:#181818;stroke-width:1.0;" x1="91" x2="91" y1="460.2969" y2="480.2969"/><polygon fill="#181818" points="87,470.2969,91,480.2969,95,470.2969,91,474.2969" style="stroke:#181818;stroke-width:1.0;"/><line style="stroke:#181818;stroke-width:1.0;" x1="91" x2="91" y1="289.875" y2="309.875"/><polygon fill="#181818" points="87,299.875,91,309.875,95,299.875,91,303.875" style="stroke:#181818;stroke-width:1.0;"/><line style="stroke:#181818;stroke-width:1.0;" x1="152" x2="180" y1="277.875" y2="277.875"/><polygon fill="#181818" points="176,396.3281,180,406.3281,184,396.3281,180,400.3281" style="stroke:#181818;stroke-width:1.0;"/><line style="stroke:#181818;stroke-width:1.0;" x1="180" x2="180" y1="277.875" y2="524.2969"/><line style="stroke:#181818;stroke-width:1.0;" x1="180" x2="91" y1="524.2969" y2="524.2969"/><line style="stroke:#181818;stroke-width:1.0;" x1="91" x2="91" y1="524.2969" y2="544.2969"/><polygon fill="#181818" points="87,534.2969,91,544.2969,95,534.2969,91,538.2969" style="stroke:#181818;stroke-width:1.0;"/><line style="stroke:#181818;stroke-width:1.0;" x1="91" x2="91" y1="245.875" y2="265.875"/><polygon fill="#181818" points="87,255.875,91,265.875,95,255.875,91,259.875" style="stroke:#181818;stroke-width:1.0;"/><line style="stroke:#181818;stroke-width:1.0;" x1="91" x2="91" y1="578.2656" y2="598.2656"/><polygon fill="#181818" points="87,588.2656,91,598.2656,95,588.2656,91,592.2656" style="stroke:#181818;stroke-width:1.0;"/><!--SRC=[LOvD2i9038NtSuhObLwXnSLGq9K_Y1U8Jeg5QL8ocKLlxxJ5Wijyt-Ez94CrLxTAQ0Ij30DoQ5pjG_XTO09U5QU2M-5acjy6FaQPBX9of3_-LEGKqKGRrtUmbsnZjbCV2NP7u1pZmTLdCbYGVoM9kIpVqJxDB9Xq_cInfTM8BHNn8ClASDlQhZYKuMGoEkBGTrkakWgiers9LMlc2m00]--></g></svg>