<?xml version="1.0" encoding="us-ascii" standalone="no"?><svg xmlns="http://www.w3.org/2000/svg" xmlns:xlink="http://www.w3.org/1999/xlink" contentStyleType="text/css" height="362px" preserveAspectRatio="none" style="width:220px;height:362px;background:#FFFFFF;" version="1.1" viewBox="0 0 220 362" width="220px" zoomAndPan="magnify"><defs/><g><ellipse cx="114" cy="20" fill="#222222" rx="10" ry="10" style="stroke:#222222;stroke-width:1.0;"/><rect fill="#F1F1F1" height="33.9688" rx="12.5" ry="12.5" style="stroke:#181818;stroke-width:0.5;" width="102" x="63" y="50"/><text fill="#000000" font-family="sans-serif" font-size="12" lengthAdjust="spacing" textLength="82" x="73" y="71.1387">Get Signature</text><rect fill="#F1F1F1" height="33.9688" rx="12.5" ry="12.5" style="stroke:#181818;stroke-width:0.5;" width="139" x="44.5" y="103.9688"/><text fill="#000000" font-family="sans-serif" font-size="12" lengthAdjust="spacing" textLength="119" x="54.5" y="125.1074">Make ExprVar Class</text><rect fill="#F1F1F1" height="33.9688" rx="12.5" ry="12.5" style="stroke:#181818;stroke-width:0.5;" width="129" x="49.5" y="157.9375"/><text fill="#000000" font-family="sans-serif" font-size="12" lengthAdjust="spacing" textLength="109" x="59.5" y="179.0762">Get Field from Sig</text><polygon fill="#F1F1F1" points="80.5,211.9063,147.5,211.9063,159.5,223.9063,147.5,235.9063,80.5,235.9063,68.5,223.9063,80.5,211.9063" style="stroke:#181818;stroke-width:0.5;"/><text fill="#000000" font-family="sans-serif" font-size="11" lengthAdjust="spacing" textLength="67" x="80.5" y="227.7144">field != null</text><text fill="#000000" font-family="sans-serif" font-size="11" lengthAdjust="spacing" textLength="21" x="47.5" y="221.312">yes</text><text fill="#000000" font-family="sans-serif" font-size="11" lengthAdjust="spacing" textLength="14" x="159.5" y="221.312">no</text><rect fill="#F1F1F1" height="33.9688" rx="12.5" ry="12.5" style="stroke:#181818;stroke-width:0.5;" width="95" x="11" y="245.9063"/><text fill="#000000" font-family="sans-serif" font-size="12" lengthAdjust="spacing" textLength="75" x="21" y="267.0449">Add Outputs</text><rect fill="#F1F1F1" height="33.9688" rx="12.5" ry="12.5" style="stroke:#181818;stroke-width:0.5;" width="79" x="130" y="245.9063"/><text fill="#000000" font-family="sans-serif" font-size="12" lengthAdjust="spacing" textLength="59" x="140" y="267.0449">Print Error</text><polygon fill="#F1F1F1" points="114,285.875,126,297.875,114,309.875,102,297.875,114,285.875" style="stroke:#181818;stroke-width:0.5;"/><ellipse cx="114" cy="340.875" fill="none" rx="11" ry="11" style="stroke:#222222;stroke-width:1.0;"/><ellipse cx="114" cy="340.875" fill="#222222" rx="6" ry="6" style="stroke:#222222;stroke-width:1.0;"/><line style="stroke:#181818;stroke-width:1.0;" x1="114" x2="114" y1="30" y2="50"/><polygon fill="#181818" points="110,40,114,50,118,40,114,44" style="stroke:#181818;stroke-width:1.0;"/><line style="stroke:#181818;stroke-width:1.0;" x1="114" x2="114" y1="83.9688" y2="103.9688"/><polygon fill="#181818" points="110,93.9688,114,103.9688,118,93.9688,114,97.9688" style="stroke:#181818;stroke-width:1.0;"/><line style="stroke:#181818;stroke-width:1.0;" x1="114" x2="114" y1="137.9375" y2="157.9375"/><polygon fill="#181818" points="110,147.9375,114,157.9375,118,147.9375,114,151.9375" style="stroke:#181818;stroke-width:1.0;"/><line style="stroke:#181818;stroke-width:1.0;" x1="68.5" x2="58.5" y1="223.9063" y2="223.9063"/><line style="stroke:#181818;stroke-width:1.0;" x1="58.5" x2="58.5" y1="223.9063" y2="245.9063"/><polygon fill="#181818" points="54.5,235.9063,58.5,245.9063,62.5,235.9063,58.5,239.9063" style="stroke:#181818;stroke-width:1.0;"/><line style="stroke:#181818;stroke-width:1.0;" x1="159.5" x2="169.5" y1="223.9063" y2="223.9063"/><line style="stroke:#181818;stroke-width:1.0;" x1="169.5" x2="169.5" y1="223.9063" y2="245.9063"/><polygon fill="#181818" points="165.5,235.9063,169.5,245.9063,173.5,235.9063,169.5,239.9063" style="stroke:#181818;stroke-width:1.0;"/><line style="stroke:#181818;stroke-width:1.0;" x1="58.5" x2="58.5" y1="279.875" y2="297.875"/><line style="stroke:#181818;stroke-width:1.0;" x1="58.5" x2="102" y1="297.875" y2="297.875"/><polygon fill="#181818" points="92,293.875,102,297.875,92,301.875,96,297.875" style="stroke:#181818;stroke-width:1.0;"/><line style="stroke:#181818;stroke-width:1.0;" x1="169.5" x2="169.5" y1="279.875" y2="297.875"/><line style="stroke:#181818;stroke-width:1.0;" x1="169.5" x2="126" y1="297.875" y2="297.875"/><polygon fill="#181818" points="136,293.875,126,297.875,136,301.875,132,297.875" style="stroke:#181818;stroke-width:1.0;"/><line style="stroke:#181818;stroke-width:1.0;" x1="114" x2="114" y1="191.9063" y2="211.9063"/><polygon fill="#181818" points="110,201.9063,114,211.9063,118,201.9063,114,205.9063" style="stroke:#181818;stroke-width:1.0;"/><line style="stroke:#181818;stroke-width:1.0;" x1="114" x2="114" y1="309.875" y2="329.875"/><polygon fill="#181818" points="110,319.875,114,329.875,118,319.875,114,323.875" style="stroke:#181818;stroke-width:1.0;"/><!--SRC=[9Sp12W8X483XkqyntTnNK3eiiNMA5eBkWcD9DihC2FNssNRz-Fb50wjn9rIuvZi5xOpUk7Du8YplnhV0S2X1nF-ZOyOI8N5z_NflSWARDjljWNef4-W32Um7PJ9kZX4kNLlNCS0Y29Rgy9KpAIpCbOTJpCc8rlO5]--></g></svg>