<?xml version="1.0" encoding="us-ascii" standalone="no"?><svg xmlns="http://www.w3.org/2000/svg" xmlns:xlink="http://www.w3.org/1999/xlink" contentStyleType="text/css" height="254px" preserveAspectRatio="none" style="width:295px;height:254px;background:#FFFFFF;" version="1.1" viewBox="0 0 295 254" width="295px" zoomAndPan="magnify"><defs/><g><ellipse cx="171.25" cy="20" fill="#222222" rx="10" ry="10" style="stroke:#222222;stroke-width:1.0;"/><rect fill="#F1F1F1" height="33.9688" rx="12.5" ry="12.5" style="stroke:#181818;stroke-width:0.5;" width="129" x="106.75" y="50"/><text fill="#000000" font-family="sans-serif" font-size="12" lengthAdjust="spacing" textLength="109" x="116.75" y="71.1387">Get Field from Sig</text><polygon fill="#F1F1F1" points="137.75,103.9688,204.75,103.9688,216.75,115.9688,204.75,127.9688,137.75,127.9688,125.75,115.9688,137.75,103.9688" style="stroke:#181818;stroke-width:0.5;"/><text fill="#000000" font-family="sans-serif" font-size="11" lengthAdjust="spacing" textLength="67" x="137.75" y="119.7769">field != null</text><text fill="#000000" font-family="sans-serif" font-size="11" lengthAdjust="spacing" textLength="21" x="104.75" y="113.3745">yes</text><text fill="#000000" font-family="sans-serif" font-size="11" lengthAdjust="spacing" textLength="14" x="216.75" y="113.3745">no</text><rect fill="#F1F1F1" height="33.9688" rx="12.5" ry="12.5" style="stroke:#181818;stroke-width:0.5;" width="174" x="11" y="137.9688"/><text fill="#000000" font-family="sans-serif" font-size="12" lengthAdjust="spacing" textLength="154" x="21" y="159.1074">Add Cardinality Constraint</text><rect fill="#F1F1F1" height="33.9688" rx="12.5" ry="12.5" style="stroke:#181818;stroke-width:0.5;" width="79" x="205" y="137.9688"/><text fill="#000000" font-family="sans-serif" font-size="12" lengthAdjust="spacing" textLength="59" x="215" y="159.1074">Print Error</text><polygon fill="#F1F1F1" points="171.25,177.9375,183.25,189.9375,171.25,201.9375,159.25,189.9375,171.25,177.9375" style="stroke:#181818;stroke-width:0.5;"/><ellipse cx="171.25" cy="232.9375" fill="none" rx="11" ry="11" style="stroke:#222222;stroke-width:1.0;"/><ellipse cx="171.25" cy="232.9375" fill="#222222" rx="6" ry="6" style="stroke:#222222;stroke-width:1.0;"/><line style="stroke:#181818;stroke-width:1.0;" x1="171.25" x2="171.25" y1="30" y2="50"/><polygon fill="#181818" points="167.25,40,171.25,50,175.25,40,171.25,44" style="stroke:#181818;stroke-width:1.0;"/><line style="stroke:#181818;stroke-width:1.0;" x1="125.75" x2="98" y1="115.9688" y2="115.9688"/><line style="stroke:#181818;stroke-width:1.0;" x1="98" x2="98" y1="115.9688" y2="137.9688"/><polygon fill="#181818" points="94,127.9688,98,137.9688,102,127.9688,98,131.9688" style="stroke:#181818;stroke-width:1.0;"/><line style="stroke:#181818;stroke-width:1.0;" x1="216.75" x2="244.5" y1="115.9688" y2="115.9688"/><line style="stroke:#181818;stroke-width:1.0;" x1="244.5" x2="244.5" y1="115.9688" y2="137.9688"/><polygon fill="#181818" points="240.5,127.9688,244.5,137.9688,248.5,127.9688,244.5,131.9688" style="stroke:#181818;stroke-width:1.0;"/><line style="stroke:#181818;stroke-width:1.0;" x1="98" x2="98" y1="171.9375" y2="189.9375"/><line style="stroke:#181818;stroke-width:1.0;" x1="98" x2="159.25" y1="189.9375" y2="189.9375"/><polygon fill="#181818" points="149.25,185.9375,159.25,189.9375,149.25,193.9375,153.25,189.9375" style="stroke:#181818;stroke-width:1.0;"/><line style="stroke:#181818;stroke-width:1.0;" x1="244.5" x2="244.5" y1="171.9375" y2="189.9375"/><line style="stroke:#181818;stroke-width:1.0;" x1="244.5" x2="183.25" y1="189.9375" y2="189.9375"/><polygon fill="#181818" points="193.25,185.9375,183.25,189.9375,193.25,193.9375,189.25,189.9375" style="stroke:#181818;stroke-width:1.0;"/><line style="stroke:#181818;stroke-width:1.0;" x1="171.25" x2="171.25" y1="83.9688" y2="103.9688"/><polygon fill="#181818" points="167.25,93.9688,171.25,103.9688,175.25,93.9688,171.25,97.9688" style="stroke:#181818;stroke-width:1.0;"/><line style="stroke:#181818;stroke-width:1.0;" x1="171.25" x2="171.25" y1="201.9375" y2="221.9375"/><polygon fill="#181818" points="167.25,211.9375,171.25,221.9375,175.25,211.9375,171.25,215.9375" style="stroke:#181818;stroke-width:1.0;"/><!--SRC=[7Sf12i903030UruHRzilj7YGKhqAlc1XipOG4qdYeR_ludMOoEe9yuCIxqpIiBjzyCNl1RXZwN-xN55_8XFcJehbe9XWlhM6Q_N6MeNpmDKqqYjhBa0ILDJ6Ule0tDpD1slZ3f7sFG40]--></g></svg>