<?xml version="1.0" encoding="us-ascii" standalone="no"?><svg xmlns="http://www.w3.org/2000/svg" xmlns:xlink="http://www.w3.org/1999/xlink" contentStyleType="text/css" height="337px" preserveAspectRatio="none" style="width:225px;height:337px;background:#FFFFFF;" version="1.1" viewBox="0 0 225 337" width="225px" zoomAndPan="magnify"><defs/><g><ellipse cx="103.5" cy="20" fill="#222222" rx="10" ry="10" style="stroke:#222222;stroke-width:1.0;"/><rect fill="#F1F1F1" height="33.9688" rx="12.5" ry="12.5" style="stroke:#181818;stroke-width:0.5;" width="159" x="24" y="50"/><text fill="#000000" font-family="sans-serif" font-size="12" lengthAdjust="spacing" textLength="139" x="34" y="71.1387">Get First Field from Sig</text><rect fill="#F1F1F1" height="33.9688" rx="12.5" ry="12.5" style="stroke:#181818;stroke-width:0.5;" width="179" x="14" y="103.9688"/><text fill="#000000" font-family="sans-serif" font-size="12" lengthAdjust="spacing" textLength="159" x="24" y="125.1074">Get Second Field from Sig</text><rect fill="#F1F1F1" height="33.9688" rx="12.5" ry="12.5" style="stroke:#181818;stroke-width:0.5;" width="87" x="60" y="206.3398"/><text fill="#000000" font-family="sans-serif" font-size="12" lengthAdjust="spacing" textLength="67" x="70" y="227.4785">Add Equals</text><polygon fill="#F1F1F1" points="32,157.9375,175,157.9375,187,169.9375,175,181.9375,32,181.9375,20,169.9375,32,157.9375" style="stroke:#181818;stroke-width:0.5;"/><text fill="#000000" font-family="sans-serif" font-size="11" lengthAdjust="spacing" textLength="21" x="107.5" y="192.1479">yes</text><text fill="#000000" font-family="sans-serif" font-size="11" lengthAdjust="spacing" textLength="143" x="32" y="173.7456">field 1 and field 2 != null</text><polygon fill="#F1F1F1" points="103.5,260.3086,115.5,272.3086,103.5,284.3086,91.5,272.3086,103.5,260.3086" style="stroke:#181818;stroke-width:0.5;"/><ellipse cx="103.5" cy="315.3086" fill="none" rx="11" ry="11" style="stroke:#222222;stroke-width:1.0;"/><ellipse cx="103.5" cy="315.3086" fill="#222222" rx="6" ry="6" style="stroke:#222222;stroke-width:1.0;"/><line style="stroke:#181818;stroke-width:1.0;" x1="103.5" x2="103.5" y1="30" y2="50"/><polygon fill="#181818" points="99.5,40,103.5,50,107.5,40,103.5,44" style="stroke:#181818;stroke-width:1.0;"/><line style="stroke:#181818;stroke-width:1.0;" x1="103.5" x2="103.5" y1="83.9688" y2="103.9688"/><polygon fill="#181818" points="99.5,93.9688,103.5,103.9688,107.5,93.9688,103.5,97.9688" style="stroke:#181818;stroke-width:1.0;"/><line style="stroke:#181818;stroke-width:1.0;" x1="103.5" x2="103.5" y1="181.9375" y2="206.3398"/><polygon fill="#181818" points="99.5,196.3398,103.5,206.3398,107.5,196.3398,103.5,200.3398" style="stroke:#181818;stroke-width:1.0;"/><line style="stroke:#181818;stroke-width:1.0;" x1="187" x2="199" y1="169.9375" y2="169.9375"/><polygon fill="#181818" points="195,213.3242,199,223.3242,203,213.3242,199,217.3242" style="stroke:#181818;stroke-width:1.0;"/><line style="stroke:#181818;stroke-width:1.0;" x1="199" x2="199" y1="169.9375" y2="272.3086"/><line style="stroke:#181818;stroke-width:1.0;" x1="199" x2="115.5" y1="272.3086" y2="272.3086"/><polygon fill="#181818" points="125.5,268.3086,115.5,272.3086,125.5,276.3086,121.5,272.3086" style="stroke:#181818;stroke-width:1.0;"/><line style="stroke:#181818;stroke-width:1.0;" x1="103.5" x2="103.5" y1="240.3086" y2="260.3086"/><polygon fill="#181818" points="99.5,250.3086,103.5,260.3086,107.5,250.3086,103.5,254.3086" style="stroke:#181818;stroke-width:1.0;"/><line style="stroke:#181818;stroke-width:1.0;" x1="103.5" x2="103.5" y1="137.9375" y2="157.9375"/><polygon fill="#181818" points="99.5,147.9375,103.5,157.9375,107.5,147.9375,103.5,151.9375" style="stroke:#181818;stroke-width:1.0;"/><line style="stroke:#181818;stroke-width:1.0;" x1="103.5" x2="103.5" y1="284.3086" y2="304.3086"/><polygon fill="#181818" points="99.5,294.3086,103.5,304.3086,107.5,294.3086,103.5,298.3086" style="stroke:#181818;stroke-width:1.0;"/><!--SRC=[Aov9B2hXid9FBL5moomg1f6fEIaAQKNvkGh1cUdM4AdWrEJyl1GCkSmq1Oqqi9YXGY9G7i8sKb2qLSWhpSdHL2Z9ICrJqAXCBTRaid9CIL5mBInDp2csvahDIybCuoekoIy00000]--></g></svg>