<?xml version="1.0" encoding="us-ascii" standalone="no"?><svg xmlns="http://www.w3.org/2000/svg" xmlns:xlink="http://www.w3.org/1999/xlink" contentStyleType="text/css" height="230px" preserveAspectRatio="none" style="width:326px;height:230px;background:#FFFFFF;" version="1.1" viewBox="0 0 326 230" width="326px" zoomAndPan="magnify"><defs/><g><ellipse cx="161.5" cy="20" fill="#222222" rx="10" ry="10" style="stroke:#222222;stroke-width:1.0;"/><rect fill="#F1F1F1" height="33.9688" rx="12.5" ry="12.5" style="stroke:#181818;stroke-width:0.5;" width="102" x="110.5" y="94"/><text fill="#000000" font-family="sans-serif" font-size="12" lengthAdjust="spacing" textLength="82" x="120.5" y="115.1387">Get Signature</text><rect fill="#F1F1F1" height="33.9688" rx="12.5" ry="12.5" style="stroke:#181818;stroke-width:0.5;" width="83" x="120" y="162.9688"/><text fill="#000000" font-family="sans-serif" font-size="12" lengthAdjust="spacing" textLength="63" x="130" y="184.1074">Add Steps</text><polygon fill="#F1F1F1" points="47,50,276,50,288,62,276,74,47,74,35,62,47,50" style="stroke:#181818;stroke-width:0.5;"/><text fill="#000000" font-family="sans-serif" font-size="11" lengthAdjust="spacing" textLength="229" x="47" y="65.8081">stepPropertiesBySig has another value?</text><ellipse cx="24" cy="105" fill="none" rx="11" ry="11" style="stroke:#222222;stroke-width:1.0;"/><ellipse cx="24" cy="105" fill="#222222" rx="6" ry="6" style="stroke:#222222;stroke-width:1.0;"/><line style="stroke:#181818;stroke-width:1.0;" x1="161.5" x2="161.5" y1="127.9688" y2="162.9688"/><polygon fill="#181818" points="157.5,152.9688,161.5,162.9688,165.5,152.9688,161.5,156.9688" style="stroke:#181818;stroke-width:1.0;"/><line style="stroke:#181818;stroke-width:1.0;" x1="161.5" x2="161.5" y1="74" y2="94"/><polygon fill="#181818" points="157.5,84,161.5,94,165.5,84,161.5,88" style="stroke:#181818;stroke-width:1.0;"/><line style="stroke:#181818;stroke-width:1.0;" x1="161.5" x2="161.5" y1="196.9375" y2="206.9375"/><line style="stroke:#181818;stroke-width:1.0;" x1="161.5" x2="300" y1="206.9375" y2="206.9375"/><polygon fill="#181818" points="296,143.4688,300,133.4688,304,143.4688,300,139.4688" style="stroke:#181818;stroke-width:1.0;"/><line style="stroke:#181818;stroke-width:1.0;" x1="300" x2="300" y1="62" y2="206.9375"/><line style="stroke:#181818;stroke-width:1.0;" x1="300" x2="288" y1="62" y2="62"/><polygon fill="#181818" points="298,58,288,62,298,66,294,62" style="stroke:#181818;stroke-width:1.0;"/><line style="stroke:#181818;stroke-width:1.0;" x1="35" x2="24" y1="62" y2="62"/><line style="stroke:#181818;stroke-width:1.0;" x1="24" x2="24" y1="62" y2="94"/><polygon fill="#181818" points="20,84,24,94,28,84,24,88" style="stroke:#181818;stroke-width:1.0;"/><line style="stroke:#181818;stroke-width:1.0;" x1="161.5" x2="161.5" y1="30" y2="50"/><polygon fill="#181818" points="157.5,40,161.5,50,165.5,40,161.5,44" style="stroke:#181818;stroke-width:1.0;"/><!--SRC=[7Smn2e0m34RXFQV8g5VGGNHn5Jn1e3-sKDgIHCNRAywFxvcBEjqnPNJcQ9lM1lK4Mvuz7Hp5M4hr2ELByecffs65ynUB-AaOQPX3uFt3DX9A-6TaNjiB]--></g></svg>