<?xml version="1.0" encoding="us-ascii" standalone="no"?><svg xmlns="http://www.w3.org/2000/svg" xmlns:xlink="http://www.w3.org/1999/xlink" contentStyleType="text/css" height="526px" preserveAspectRatio="none" style="width:242px;height:526px;background:#FFFFFF;" version="1.1" viewBox="0 0 242 526" width="242px" zoomAndPan="magnify"><defs/><g><text fill="#000000" font-family="sans-serif" font-size="14" font-weight="bold" lengthAdjust="spacing" textLength="199" x="20" y="32.9951">generateAlsFileContents</text><ellipse cx="121" cy="57.2969" fill="#222222" rx="10" ry="10" style="stroke:#222222;stroke-width:1.0;"/><rect fill="#F1F1F1" height="33.9688" rx="12.5" ry="12.5" style="stroke:#181818;stroke-width:0.5;" width="141" x="50.5" y="87.2969"/><text fill="#000000" font-family="sans-serif" font-size="12" lengthAdjust="spacing" textLength="121" x="60.5" y="108.4355">Create StringBuilder</text><rect fill="#F1F1F1" height="33.9688" rx="12.5" ry="12.5" style="stroke:#181818;stroke-width:0.5;" width="153" x="44.5" y="141.2656"/><text fill="#000000" font-family="sans-serif" font-size="12" lengthAdjust="spacing" textLength="133" x="54.5" y="162.4043">Append Common Title</text><rect fill="#F1F1F1" height="33.9688" rx="12.5" ry="12.5" style="stroke:#181818;stroke-width:0.5;" width="135" x="53.5" y="195.2344"/><text fill="#000000" font-family="sans-serif" font-size="12" lengthAdjust="spacing" textLength="115" x="63.5" y="216.373">Append Signatures</text><rect fill="#F1F1F1" height="33.9688" rx="12.5" ry="12.5" style="stroke:#181818;stroke-width:0.5;" width="103" x="69.5" y="249.2031"/><text fill="#000000" font-family="sans-serif" font-size="12" lengthAdjust="spacing" textLength="83" x="79.5" y="270.3418">Append Facts</text><rect fill="#F1F1F1" height="33.9688" rx="12.5" ry="12.5" style="stroke:#181818;stroke-width:0.5;" width="134" x="54" y="303.1719"/><text fill="#000000" font-family="sans-serif" font-size="12" lengthAdjust="spacing" textLength="114" x="64" y="324.3105">Append Predicates</text><rect fill="#F1F1F1" height="47.9375" rx="12.5" ry="12.5" style="stroke:#181818;stroke-width:0.5;" width="154" x="44" y="357.1406"/><text fill="#000000" font-family="sans-serif" font-size="12" lengthAdjust="spacing" textLength="134" x="54" y="378.2793">Create PrintWriter with</text><text fill="#000000" font-family="sans-serif" font-size="12" lengthAdjust="spacing" textLength="65" x="54" y="392.248">Output File</text><rect fill="#F1F1F1" height="47.9375" rx="12.5" ry="12.5" style="stroke:#181818;stroke-width:0.5;" width="142" x="50" y="425.0781"/><text fill="#000000" font-family="sans-serif" font-size="12" lengthAdjust="spacing" textLength="122" x="60" y="446.2168">Print StringBuilder to</text><text fill="#000000" font-family="sans-serif" font-size="12" lengthAdjust="spacing" textLength="65" x="60" y="460.1855">Output File</text><ellipse cx="121" cy="504.0156" fill="none" rx="11" ry="11" style="stroke:#222222;stroke-width:1.0;"/><ellipse cx="121" cy="504.0156" fill="#222222" rx="6" ry="6" style="stroke:#222222;stroke-width:1.0;"/><line style="stroke:#181818;stroke-width:1.0;" x1="121" x2="121" y1="67.2969" y2="87.2969"/><polygon fill="#181818" points="117,77.2969,121,87.2969,125,77.2969,121,81.2969" style="stroke:#181818;stroke-width:1.0;"/><line style="stroke:#181818;stroke-width:1.0;" x1="121" x2="121" y1="121.2656" y2="141.2656"/><polygon fill="#181818" points="117,131.2656,121,141.2656,125,131.2656,121,135.2656" style="stroke:#181818;stroke-width:1.0;"/><line style="stroke:#181818;stroke-width:1.0;" x1="121" x2="121" y1="175.2344" y2="195.2344"/><polygon fill="#181818" points="117,185.2344,121,195.2344,125,185.2344,121,189.2344" style="stroke:#181818;stroke-width:1.0;"/><line style="stroke:#181818;stroke-width:1.0;" x1="121" x2="121" y1="229.2031" y2="249.2031"/><polygon fill="#181818" points="117,239.2031,121,249.2031,125,239.2031,121,243.2031" style="stroke:#181818;stroke-width:1.0;"/><line style="stroke:#181818;stroke-width:1.0;" x1="121" x2="121" y1="283.1719" y2="303.1719"/><polygon fill="#181818" points="117,293.1719,121,303.1719,125,293.1719,121,297.1719" style="stroke:#181818;stroke-width:1.0;"/><line style="stroke:#181818;stroke-width:1.0;" x1="121" x2="121" y1="337.1406" y2="357.1406"/><polygon fill="#181818" points="117,347.1406,121,357.1406,125,347.1406,121,351.1406" style="stroke:#181818;stroke-width:1.0;"/><line style="stroke:#181818;stroke-width:1.0;" x1="121" x2="121" y1="405.0781" y2="425.0781"/><polygon fill="#181818" points="117,415.0781,121,425.0781,125,415.0781,121,419.0781" style="stroke:#181818;stroke-width:1.0;"/><line style="stroke:#181818;stroke-width:1.0;" x1="121" x2="121" y1="473.0156" y2="493.0156"/><polygon fill="#181818" points="117,483.0156,121,493.0156,125,483.0156,121,487.0156" style="stroke:#181818;stroke-width:1.0;"/><!--SRC=[NOwn2iCm34HtVuM-evtIGDO6KkXiOk4A7Dd8P_hxTKA7jAEU7dS7GMAAh6mUFAGwIU8nArXHNOKtEBgCnlrB2qmqtfgam7RjV2Y5DT2OjoqhFVQi4ruagaSphYSu-HNdUpOEilRq0twBvjw3fmdOw2ruaQDxGscWVTuk7iRl84B-zofo-G00]--></g></svg>