<?xml version="1.0" encoding="us-ascii" standalone="no"?><svg xmlns="http://www.w3.org/2000/svg" xmlns:xlink="http://www.w3.org/1999/xlink" contentStyleType="text/css" height="1236px" preserveAspectRatio="none" style="width:492px;height:1236px;background:#FFFFFF;" version="1.1" viewBox="0 0 492 1236" width="492px" zoomAndPan="magnify"><defs/><g><ellipse cx="276.125" cy="20" fill="#222222" rx="10" ry="10" style="stroke:#222222;stroke-width:1.0;"/><rect fill="#F1F1F1" height="33.9688" rx="12.5" ry="12.5" style="stroke:#181818;stroke-width:0.5;" width="100" x="226.125" y="50"/><text fill="#000000" font-family="sans-serif" font-size="12" lengthAdjust="spacing" textLength="20" x="236.125" y="71.1387">Set</text><text fill="#000000" font-family="sans-serif" font-size="12" font-style="italic" lengthAdjust="spacing" textLength="16" x="260.125" y="71.1387">viz</text><text fill="#000000" font-family="sans-serif" font-size="12" lengthAdjust="spacing" textLength="36" x="280.125" y="71.1387">to null</text><rect fill="#F1F1F1" height="33.9688" rx="12.5" ry="12.5" style="stroke:#181818;stroke-width:0.5;" width="144" x="204.125" y="103.9688"/><text fill="#000000" font-family="sans-serif" font-size="12" lengthAdjust="spacing" textLength="124" x="214.125" y="125.1074">Construct A4Options</text><rect fill="#F1F1F1" height="33.9688" rx="12.5" ry="12.5" style="stroke:#181818;stroke-width:0.5;" width="179" x="186.625" y="157.9375"/><text fill="#000000" font-family="sans-serif" font-size="12" lengthAdjust="spacing" textLength="159" x="196.625" y="179.0762">Set A4Options Parameters</text><rect fill="#F1F1F1" height="33.9688" rx="12.5" ry="12.5" style="stroke:#181818;stroke-width:0.5;" width="150" x="201.125" y="211.9063"/><text fill="#000000" font-family="sans-serif" font-size="12" lengthAdjust="spacing" textLength="130" x="211.125" y="233.0449">Construct A4Reporter</text><rect fill="#F1F1F1" height="33.9688" rx="12.5" ry="12.5" style="stroke:#181818;stroke-width:0.5;" width="205" x="173.625" y="265.875"/><text fill="#000000" font-family="sans-serif" font-size="12" lengthAdjust="spacing" textLength="185" x="183.625" y="287.0137">Set A4Options Solver to SAT4J</text><rect fill="#F1F1F1" height="33.9688" rx="12.5" ry="12.5" style="stroke:#181818;stroke-width:0.5;" width="232" x="160.125" y="319.8438"/><text fill="#000000" font-family="sans-serif" font-size="12" lengthAdjust="spacing" textLength="212" x="170.125" y="340.9824">Execute Command from A4Solution</text><rect fill="#F1F1F1" height="33.9688" rx="12.5" ry="12.5" style="stroke:#181818;stroke-width:0.5;" width="123" x="214.625" y="373.8125"/><text fill="#000000" font-family="sans-serif" font-size="12" lengthAdjust="spacing" textLength="103" x="224.625" y="394.9512">Print Answer Title</text><rect fill="#F1F1F1" height="33.9688" rx="12.5" ry="12.5" style="stroke:#181818;stroke-width:0.5;" width="94" x="229.125" y="427.7813"/><text fill="#000000" font-family="sans-serif" font-size="12" lengthAdjust="spacing" textLength="74" x="239.125" y="448.9199">Print Answer</text><rect fill="#F1F1F1" height="33.9688" rx="12.5" ry="12.5" style="stroke:#181818;stroke-width:0.5;" width="141" x="205.625" y="481.75"/><text fill="#000000" font-family="sans-serif" font-size="12" lengthAdjust="spacing" textLength="44" x="215.625" y="502.8887">Update</text><text fill="#000000" font-family="sans-serif" font-size="12" font-style="italic" lengthAdjust="spacing" textLength="73" x="263.625" y="502.8887">previousAns</text><polygon fill="#F1F1F1" points="184.125,535.7188,368.125,535.7188,380.125,547.7188,368.125,559.7188,184.125,559.7188,172.125,547.7188,184.125,535.7188" style="stroke:#181818;stroke-width:0.5;"/><text fill="#000000" font-family="sans-serif" font-size="11" lengthAdjust="spacing" textLength="184" x="184.125" y="551.5269">A4Solution Answer is Satisfiable</text><text fill="#000000" font-family="sans-serif" font-size="11" lengthAdjust="spacing" textLength="14" x="380.125" y="545.1245">no</text><rect fill="#F1F1F1" height="33.9688" rx="12.5" ry="12.5" style="stroke:#181818;stroke-width:0.5;" width="148" x="83.75" y="569.7188"/><text fill="#000000" font-family="sans-serif" font-size="12" lengthAdjust="spacing" textLength="128" x="93.75" y="590.8574">Print Solution Number</text><rect fill="#F1F1F1" height="33.9688" rx="12.5" ry="12.5" style="stroke:#181818;stroke-width:0.5;" width="154" x="80.75" y="623.6875"/><text fill="#000000" font-family="sans-serif" font-size="12" lengthAdjust="spacing" textLength="134" x="90.75" y="644.8262">Print All Answer Atoms</text><rect fill="#F1F1F1" height="33.9688" rx="12.5" ry="12.5" style="stroke:#181818;stroke-width:0.5;" width="94" x="110.75" y="677.6563"/><text fill="#000000" font-family="sans-serif" font-size="12" lengthAdjust="spacing" textLength="74" x="120.75" y="698.7949">Print Answer</text><rect fill="#F1F1F1" height="33.9688" rx="12.5" ry="12.5" style="stroke:#181818;stroke-width:0.5;" width="80" x="117.75" y="731.625"/><text fill="#000000" font-family="sans-serif" font-size="12" lengthAdjust="spacing" textLength="60" x="127.75" y="752.7637">Write XML</text><polygon fill="#F1F1F1" points="126.25,785.5938,189.25,785.5938,201.25,797.5938,189.25,809.5938,126.25,809.5938,114.25,797.5938,126.25,785.5938" style="stroke:#181818;stroke-width:0.5;"/><text fill="#000000" font-family="sans-serif" font-size="11" lengthAdjust="spacing" textLength="63" x="126.25" y="801.4019">viz == null</text><text fill="#000000" font-family="sans-serif" font-size="11" lengthAdjust="spacing" textLength="21" x="93.25" y="794.9995">yes</text><text fill="#000000" font-family="sans-serif" font-size="11" lengthAdjust="spacing" textLength="14" x="201.25" y="794.9995">no</text><rect fill="#F1F1F1" height="33.9688" rx="12.5" ry="12.5" style="stroke:#181818;stroke-width:0.5;" width="150" x="11" y="819.5938"/><text fill="#000000" font-family="sans-serif" font-size="12" lengthAdjust="spacing" textLength="130" x="21" y="840.7324">Construct New VizGUI</text><rect fill="#F1F1F1" height="33.9688" rx="12.5" ry="12.5" style="stroke:#181818;stroke-width:0.5;" width="97" x="181" y="819.5938"/><text fill="#000000" font-family="sans-serif" font-size="12" lengthAdjust="spacing" textLength="29" x="191" y="840.7324">Load</text><text fill="#000000" font-family="sans-serif" font-size="12" font-style="italic" lengthAdjust="spacing" textLength="16" x="224" y="840.7324">viz</text><text fill="#000000" font-family="sans-serif" font-size="12" lengthAdjust="spacing" textLength="24" x="244" y="840.7324">XML</text><polygon fill="#F1F1F1" points="157.75,859.5625,169.75,871.5625,157.75,883.5625,145.75,871.5625,157.75,859.5625" style="stroke:#181818;stroke-width:0.5;"/><rect fill="#F1F1F1" height="33.9688" rx="12.5" ry="12.5" style="stroke:#181818;stroke-width:0.5;" width="143" x="86.25" y="903.5625"/><text fill="#000000" font-family="sans-serif" font-size="12" lengthAdjust="spacing" textLength="123" x="96.25" y="924.7012">Create AlloyInstance</text><rect fill="#F1F1F1" height="33.9688" rx="12.5" ry="12.5" style="stroke:#181818;stroke-width:0.5;" width="94" x="110.75" y="957.5313"/><text fill="#000000" font-family="sans-serif" font-size="12" lengthAdjust="spacing" textLength="74" x="120.75" y="978.6699">Print Answer</text><rect fill="#F1F1F1" height="33.9688" rx="12.5" ry="12.5" style="stroke:#181818;stroke-width:0.5;" width="128" x="93.75" y="1011.5"/><text fill="#000000" font-family="sans-serif" font-size="12" lengthAdjust="spacing" textLength="108" x="103.75" y="1032.6387">Print AlloyInstance</text><rect fill="#F1F1F1" height="33.9688" rx="12.5" ry="12.5" style="stroke:#181818;stroke-width:0.5;" width="115" x="100.25" y="1065.4688"/><text fill="#000000" font-family="sans-serif" font-size="12" lengthAdjust="spacing" textLength="95" x="110.25" y="1086.6074">Print AlloyModel</text><rect fill="#F1F1F1" height="33.9688" rx="12.5" ry="12.5" style="stroke:#181818;stroke-width:0.5;" width="176" x="69.75" y="1119.4375"/><text fill="#000000" font-family="sans-serif" font-size="12" lengthAdjust="spacing" textLength="156" x="79.75" y="1140.5762">Write AlloyInstance to File</text><rect fill="#F1F1F1" height="33.9688" rx="12.5" ry="12.5" style="stroke:#181818;stroke-width:0.5;" width="173" x="308" y="569.7188"/><text fill="#000000" font-family="sans-serif" font-size="12" lengthAdjust="spacing" textLength="153" x="318" y="590.8574">Print No Satisfied Solution</text><polygon fill="#F1F1F1" points="276.125,1159.4063,288.125,1171.4063,276.125,1183.4063,264.125,1171.4063,276.125,1159.4063" style="stroke:#181818;stroke-width:0.5;"/><ellipse cx="276.125" cy="1214.4063" fill="none" rx="11" ry="11" style="stroke:#222222;stroke-width:1.0;"/><ellipse cx="276.125" cy="1214.4063" fill="#222222" rx="6" ry="6" style="stroke:#222222;stroke-width:1.0;"/><line style="stroke:#181818;stroke-width:1.0;" x1="276.125" x2="276.125" y1="30" y2="50"/><polygon fill="#181818" points="272.125,40,276.125,50,280.125,40,276.125,44" style="stroke:#181818;stroke-width:1.0;"/><line style="stroke:#181818;stroke-width:1.0;" x1="276.125" x2="276.125" y1="83.9688" y2="103.9688"/><polygon fill="#181818" points="272.125,93.9688,276.125,103.9688,280.125,93.9688,276.125,97.9688" style="stroke:#181818;stroke-width:1.0;"/><line style="stroke:#181818;stroke-width:1.0;" x1="276.125" x2="276.125" y1="137.9375" y2="157.9375"/><polygon fill="#181818" points="272.125,147.9375,276.125,157.9375,280.125,147.9375,276.125,151.9375" style="stroke:#181818;stroke-width:1.0;"/><line style="stroke:#181818;stroke-width:1.0;" x1="276.125" x2="276.125" y1="191.9063" y2="211.9063"/><polygon fill="#181818" points="272.125,201.9063,276.125,211.9063,280.125,201.9063,276.125,205.9063" style="stroke:#181818;stroke-width:1.0;"/><line style="stroke:#181818;stroke-width:1.0;" x1="276.125" x2="276.125" y1="245.875" y2="265.875"/><polygon fill="#181818" points="272.125,255.875,276.125,265.875,280.125,255.875,276.125,259.875" style="stroke:#181818;stroke-width:1.0;"/><line style="stroke:#181818;stroke-width:1.0;" x1="276.125" x2="276.125" y1="299.8438" y2="319.8438"/><polygon fill="#181818" points="272.125,309.8438,276.125,319.8438,280.125,309.8438,276.125,313.8438" style="stroke:#181818;stroke-width:1.0;"/><line style="stroke:#181818;stroke-width:1.0;" x1="276.125" x2="276.125" y1="353.8125" y2="373.8125"/><polygon fill="#181818" points="272.125,363.8125,276.125,373.8125,280.125,363.8125,276.125,367.8125" style="stroke:#181818;stroke-width:1.0;"/><line style="stroke:#181818;stroke-width:1.0;" x1="276.125" x2="276.125" y1="407.7813" y2="427.7813"/><polygon fill="#181818" points="272.125,417.7813,276.125,427.7813,280.125,417.7813,276.125,421.7813" style="stroke:#181818;stroke-width:1.0;"/><line style="stroke:#181818;stroke-width:1.0;" x1="276.125" x2="276.125" y1="461.75" y2="481.75"/><polygon fill="#181818" points="272.125,471.75,276.125,481.75,280.125,471.75,276.125,475.75" style="stroke:#181818;stroke-width:1.0;"/><line style="stroke:#181818;stroke-width:1.0;" x1="157.75" x2="157.75" y1="603.6875" y2="623.6875"/><polygon fill="#181818" points="153.75,613.6875,157.75,623.6875,161.75,613.6875,157.75,617.6875" style="stroke:#181818;stroke-width:1.0;"/><line style="stroke:#181818;stroke-width:1.0;" x1="157.75" x2="157.75" y1="657.6563" y2="677.6563"/><polygon fill="#181818" points="153.75,667.6563,157.75,677.6563,161.75,667.6563,157.75,671.6563" style="stroke:#181818;stroke-width:1.0;"/><line style="stroke:#181818;stroke-width:1.0;" x1="157.75" x2="157.75" y1="711.625" y2="731.625"/><polygon fill="#181818" points="153.75,721.625,157.75,731.625,161.75,721.625,157.75,725.625" style="stroke:#181818;stroke-width:1.0;"/><line style="stroke:#181818;stroke-width:1.0;" x1="114.25" x2="86" y1="797.5938" y2="797.5938"/><line style="stroke:#181818;stroke-width:1.0;" x1="86" x2="86" y1="797.5938" y2="819.5938"/><polygon fill="#181818" points="82,809.5938,86,819.5938,90,809.5938,86,813.5938" style="stroke:#181818;stroke-width:1.0;"/><line style="stroke:#181818;stroke-width:1.0;" x1="201.25" x2="229.5" y1="797.5938" y2="797.5938"/><line style="stroke:#181818;stroke-width:1.0;" x1="229.5" x2="229.5" y1="797.5938" y2="819.5938"/><polygon fill="#181818" points="225.5,809.5938,229.5,819.5938,233.5,809.5938,229.5,813.5938" style="stroke:#181818;stroke-width:1.0;"/><line style="stroke:#181818;stroke-width:1.0;" x1="86" x2="86" y1="853.5625" y2="871.5625"/><line style="stroke:#181818;stroke-width:1.0;" x1="86" x2="145.75" y1="871.5625" y2="871.5625"/><polygon fill="#181818" points="135.75,867.5625,145.75,871.5625,135.75,875.5625,139.75,871.5625" style="stroke:#181818;stroke-width:1.0;"/><line style="stroke:#181818;stroke-width:1.0;" x1="229.5" x2="229.5" y1="853.5625" y2="871.5625"/><line style="stroke:#181818;stroke-width:1.0;" x1="229.5" x2="169.75" y1="871.5625" y2="871.5625"/><polygon fill="#181818" points="179.75,867.5625,169.75,871.5625,179.75,875.5625,175.75,871.5625" style="stroke:#181818;stroke-width:1.0;"/><line style="stroke:#181818;stroke-width:1.0;" x1="157.75" x2="157.75" y1="765.5938" y2="785.5938"/><polygon fill="#181818" points="153.75,775.5938,157.75,785.5938,161.75,775.5938,157.75,779.5938" style="stroke:#181818;stroke-width:1.0;"/><line style="stroke:#181818;stroke-width:1.0;" x1="157.75" x2="157.75" y1="883.5625" y2="903.5625"/><polygon fill="#181818" points="153.75,893.5625,157.75,903.5625,161.75,893.5625,157.75,897.5625" style="stroke:#181818;stroke-width:1.0;"/><line style="stroke:#181818;stroke-width:1.0;" x1="157.75" x2="157.75" y1="937.5313" y2="957.5313"/><polygon fill="#181818" points="153.75,947.5313,157.75,957.5313,161.75,947.5313,157.75,951.5313" style="stroke:#181818;stroke-width:1.0;"/><line style="stroke:#181818;stroke-width:1.0;" x1="157.75" x2="157.75" y1="991.5" y2="1011.5"/><polygon fill="#181818" points="153.75,1001.5,157.75,1011.5,161.75,1001.5,157.75,1005.5" style="stroke:#181818;stroke-width:1.0;"/><line style="stroke:#181818;stroke-width:1.0;" x1="157.75" x2="157.75" y1="1045.4688" y2="1065.4688"/><polygon fill="#181818" points="153.75,1055.4688,157.75,1065.4688,161.75,1055.4688,157.75,1059.4688" style="stroke:#181818;stroke-width:1.0;"/><line style="stroke:#181818;stroke-width:1.0;" x1="157.75" x2="157.75" y1="1099.4375" y2="1119.4375"/><polygon fill="#181818" points="153.75,1109.4375,157.75,1119.4375,161.75,1109.4375,157.75,1113.4375" style="stroke:#181818;stroke-width:1.0;"/><line style="stroke:#181818;stroke-width:1.0;" x1="172.125" x2="157.75" y1="547.7188" y2="547.7188"/><line style="stroke:#181818;stroke-width:1.0;" x1="157.75" x2="157.75" y1="547.7188" y2="569.7188"/><polygon fill="#181818" points="153.75,559.7188,157.75,569.7188,161.75,559.7188,157.75,563.7188" style="stroke:#181818;stroke-width:1.0;"/><line style="stroke:#181818;stroke-width:1.0;" x1="380.125" x2="394.5" y1="547.7188" y2="547.7188"/><line style="stroke:#181818;stroke-width:1.0;" x1="394.5" x2="394.5" y1="547.7188" y2="569.7188"/><polygon fill="#181818" points="390.5,559.7188,394.5,569.7188,398.5,559.7188,394.5,563.7188" style="stroke:#181818;stroke-width:1.0;"/><line style="stroke:#181818;stroke-width:1.0;" x1="157.75" x2="157.75" y1="1153.4063" y2="1171.4063"/><line style="stroke:#181818;stroke-width:1.0;" x1="157.75" x2="264.125" y1="1171.4063" y2="1171.4063"/><polygon fill="#181818" points="254.125,1167.4063,264.125,1171.4063,254.125,1175.4063,258.125,1171.4063" style="stroke:#181818;stroke-width:1.0;"/><line style="stroke:#181818;stroke-width:1.0;" x1="394.5" x2="394.5" y1="603.6875" y2="1171.4063"/><line style="stroke:#181818;stroke-width:1.0;" x1="394.5" x2="288.125" y1="1171.4063" y2="1171.4063"/><polygon fill="#181818" points="298.125,1167.4063,288.125,1171.4063,298.125,1175.4063,294.125,1171.4063" style="stroke:#181818;stroke-width:1.0;"/><line style="stroke:#181818;stroke-width:1.0;" x1="276.125" x2="276.125" y1="515.7188" y2="535.7188"/><polygon fill="#181818" points="272.125,525.7188,276.125,535.7188,280.125,525.7188,276.125,529.7188" style="stroke:#181818;stroke-width:1.0;"/><line style="stroke:#181818;stroke-width:1.0;" x1="276.125" x2="276.125" y1="1183.4063" y2="1203.4063"/><polygon fill="#181818" points="272.125,1193.4063,276.125,1203.4063,280.125,1193.4063,276.125,1197.4063" style="stroke:#181818;stroke-width:1.0;"/><!--SRC=[RL4zRy8m4DtpApp2v8M9Y252RGK2YXfeknfoKKzoV95z2OLVtqlIX1OOx_o-_2wmyHnDKs2bTOqNhHMJSfMrSJITamligoEhPF9QCieOTzXXLblZJG4CFjmGtg0aB_ixHags1j_OfCbkifJtfsyuLWngJaLXNAPoJuKG15Wr545iFJhHSE4ap1soXPkbZFioCoAYTUcXHgg2l6WTHvYFhbgz1aeEmnXoD0SBurviW6sguj2g_ffOspCJfYBSktzu5FFFzQerb2RLRDRsE5Ry1KwDpX36VnlQm4czu-LbluWZi056ZkHzHIORBj6gWSim5wA7vdSIXCuBqJ3k-A238UqZKBDTKmPsYFiFs5pa6Pjcht4wveRwiY1JrwjqoG9J-GC0]--></g></svg>