<?xml version="1.0" encoding="us-ascii" standalone="no"?><svg xmlns="http://www.w3.org/2000/svg" xmlns:xlink="http://www.w3.org/1999/xlink" contentStyleType="text/css" height="1236px" preserveAspectRatio="none" style="width:490px;height:1236px;background:#FFFFFF;" version="1.1" viewBox="0 0 490 1236" width="490px" zoomAndPan="magnify"><defs/><g><ellipse cx="267.375" cy="20" fill="#222222" rx="10" ry="10" style="stroke:#222222;stroke-width:1.0;"/><rect fill="#F1F1F1" height="33.9688" rx="12.5" ry="12.5" style="stroke:#181818;stroke-width:0.5;" width="100" x="217.375" y="50"/><text fill="#000000" font-family="sans-serif" font-size="12" lengthAdjust="spacing" textLength="20" x="227.375" y="71.1387">Set</text><text fill="#000000" font-family="sans-serif" font-size="12" font-style="italic" lengthAdjust="spacing" textLength="16" x="251.375" y="71.1387">viz</text><text fill="#000000" font-family="sans-serif" font-size="12" lengthAdjust="spacing" textLength="36" x="271.375" y="71.1387">to null</text><rect fill="#F1F1F1" height="33.9688" rx="12.5" ry="12.5" style="stroke:#181818;stroke-width:0.5;" width="144" x="195.375" y="103.9688"/><text fill="#000000" font-family="sans-serif" font-size="12" lengthAdjust="spacing" textLength="124" x="205.375" y="125.1074">Construct A4Options</text><rect fill="#F1F1F1" height="33.9688" rx="12.5" ry="12.5" style="stroke:#181818;stroke-width:0.5;" width="179" x="177.875" y="157.9375"/><text fill="#000000" font-family="sans-serif" font-size="12" lengthAdjust="spacing" textLength="159" x="187.875" y="179.0762">Set A4Options Parameters</text><rect fill="#F1F1F1" height="33.9688" rx="12.5" ry="12.5" style="stroke:#181818;stroke-width:0.5;" width="152" x="191.375" y="211.9063"/><text fill="#000000" font-family="sans-serif" font-size="12" lengthAdjust="spacing" textLength="132" x="201.375" y="233.0449">COnstruct A4Reporter</text><rect fill="#F1F1F1" height="33.9688" rx="12.5" ry="12.5" style="stroke:#181818;stroke-width:0.5;" width="205" x="164.875" y="265.875"/><text fill="#000000" font-family="sans-serif" font-size="12" lengthAdjust="spacing" textLength="185" x="174.875" y="287.0137">Set A4Options Solver to SAT4J</text><rect fill="#F1F1F1" height="33.9688" rx="12.5" ry="12.5" style="stroke:#181818;stroke-width:0.5;" width="232" x="151.375" y="319.8438"/><text fill="#000000" font-family="sans-serif" font-size="12" lengthAdjust="spacing" textLength="212" x="161.375" y="340.9824">Execute Command from A4Solution</text><rect fill="#F1F1F1" height="33.9688" rx="12.5" ry="12.5" style="stroke:#181818;stroke-width:0.5;" width="123" x="205.875" y="373.8125"/><text fill="#000000" font-family="sans-serif" font-size="12" lengthAdjust="spacing" textLength="103" x="215.875" y="394.9512">Print Answer Title</text><rect fill="#F1F1F1" height="33.9688" rx="12.5" ry="12.5" style="stroke:#181818;stroke-width:0.5;" width="162" x="186.375" y="427.7813"/><text fill="#000000" font-family="sans-serif" font-size="12" lengthAdjust="spacing" textLength="142" x="196.375" y="448.9199">Print A4Solution Answer</text><rect fill="#F1F1F1" height="33.9688" rx="12.5" ry="12.5" style="stroke:#181818;stroke-width:0.5;" width="250" x="142.375" y="481.75"/><text fill="#000000" font-family="sans-serif" font-size="12" lengthAdjust="spacing" textLength="20" x="152.375" y="502.8887">Set</text><text fill="#000000" font-family="sans-serif" font-size="12" font-style="italic" lengthAdjust="spacing" textLength="73" x="176.375" y="502.8887">previousAns</text><text fill="#000000" font-family="sans-serif" font-size="12" lengthAdjust="spacing" textLength="129" x="253.375" y="502.8887">to A4Solution Answer</text><polygon fill="#F1F1F1" points="175.375,535.7188,359.375,535.7188,371.375,547.7188,359.375,559.7188,175.375,559.7188,163.375,547.7188,175.375,535.7188" style="stroke:#181818;stroke-width:0.5;"/><text fill="#000000" font-family="sans-serif" font-size="11" lengthAdjust="spacing" textLength="184" x="175.375" y="551.5269">A4Solution Answer is Satisfiable</text><text fill="#000000" font-family="sans-serif" font-size="11" lengthAdjust="spacing" textLength="21" x="142.375" y="545.1245">yes</text><text fill="#000000" font-family="sans-serif" font-size="11" lengthAdjust="spacing" textLength="14" x="371.375" y="545.1245">no</text><rect fill="#F1F1F1" height="33.9688" rx="12.5" ry="12.5" style="stroke:#181818;stroke-width:0.5;" width="148" x="68.25" y="569.7188"/><text fill="#000000" font-family="sans-serif" font-size="12" lengthAdjust="spacing" textLength="128" x="78.25" y="590.8574">Print Solution Number</text><rect fill="#F1F1F1" height="33.9688" rx="12.5" ry="12.5" style="stroke:#181818;stroke-width:0.5;" width="168" x="58.25" y="623.6875"/><text fill="#000000" font-family="sans-serif" font-size="12" lengthAdjust="spacing" textLength="148" x="68.25" y="644.8262">Print All Atoms in Answer</text><rect fill="#F1F1F1" height="33.9688" rx="12.5" ry="12.5" style="stroke:#181818;stroke-width:0.5;" width="94" x="95.25" y="677.6563"/><text fill="#000000" font-family="sans-serif" font-size="12" lengthAdjust="spacing" textLength="74" x="105.25" y="698.7949">Print Answer</text><rect fill="#F1F1F1" height="33.9688" rx="12.5" ry="12.5" style="stroke:#181818;stroke-width:0.5;" width="145" x="69.75" y="731.625"/><text fill="#000000" font-family="sans-serif" font-size="12" lengthAdjust="spacing" textLength="125" x="79.75" y="752.7637">Write Answer to XML</text><polygon fill="#F1F1F1" points="111.25,785.5938,173.25,785.5938,185.25,797.5938,173.25,809.5938,111.25,809.5938,99.25,797.5938,111.25,785.5938" style="stroke:#181818;stroke-width:0.5;"/><text fill="#000000" font-family="sans-serif" font-size="11" font-style="italic" lengthAdjust="spacing" textLength="16" x="111.25" y="801.4019">viz</text><text fill="#000000" font-family="sans-serif" font-size="11" lengthAdjust="spacing" textLength="42" x="131.25" y="801.4019">== null</text><text fill="#000000" font-family="sans-serif" font-size="11" lengthAdjust="spacing" textLength="21" x="78.25" y="794.9995">yes</text><text fill="#000000" font-family="sans-serif" font-size="11" lengthAdjust="spacing" textLength="14" x="185.25" y="794.9995">no</text><rect fill="#F1F1F1" height="33.9688" rx="12.5" ry="12.5" style="stroke:#181818;stroke-width:0.5;" width="120" x="11" y="819.5938"/><text fill="#000000" font-family="sans-serif" font-size="12" lengthAdjust="spacing" textLength="100" x="21" y="840.7324">Construct VizGUI</text><rect fill="#F1F1F1" height="33.9688" rx="12.5" ry="12.5" style="stroke:#181818;stroke-width:0.5;" width="125" x="151" y="819.5938"/><text fill="#000000" font-family="sans-serif" font-size="12" lengthAdjust="spacing" textLength="89" x="161" y="840.7324">Load XML from</text><text fill="#000000" font-family="sans-serif" font-size="12" font-style="italic" lengthAdjust="spacing" textLength="16" x="250" y="840.7324">viz</text><polygon fill="#F1F1F1" points="142.25,859.5625,154.25,871.5625,142.25,883.5625,130.25,871.5625,142.25,859.5625" style="stroke:#181818;stroke-width:0.5;"/><rect fill="#F1F1F1" height="33.9688" rx="12.5" ry="12.5" style="stroke:#181818;stroke-width:0.5;" width="143" x="70.75" y="903.5625"/><text fill="#000000" font-family="sans-serif" font-size="12" lengthAdjust="spacing" textLength="123" x="80.75" y="924.7012">Create AlloyInstance</text><rect fill="#F1F1F1" height="33.9688" rx="12.5" ry="12.5" style="stroke:#181818;stroke-width:0.5;" width="162" x="61.25" y="957.5313"/><text fill="#000000" font-family="sans-serif" font-size="12" lengthAdjust="spacing" textLength="142" x="71.25" y="978.6699">Print A4Solution Answer</text><rect fill="#F1F1F1" height="33.9688" rx="12.5" ry="12.5" style="stroke:#181818;stroke-width:0.5;" width="128" x="78.25" y="1011.5"/><text fill="#000000" font-family="sans-serif" font-size="12" lengthAdjust="spacing" textLength="108" x="88.25" y="1032.6387">Print AlloyInstance</text><rect fill="#F1F1F1" height="33.9688" rx="12.5" ry="12.5" style="stroke:#181818;stroke-width:0.5;" width="115" x="84.75" y="1065.4688"/><text fill="#000000" font-family="sans-serif" font-size="12" lengthAdjust="spacing" textLength="95" x="94.75" y="1086.6074">Print AlloyModel</text><rect fill="#F1F1F1" height="33.9688" rx="12.5" ry="12.5" style="stroke:#181818;stroke-width:0.5;" width="176" x="54.25" y="1119.4375"/><text fill="#000000" font-family="sans-serif" font-size="12" lengthAdjust="spacing" textLength="156" x="64.25" y="1140.5762">Write AlloyInstance to File</text><rect fill="#F1F1F1" height="33.9688" rx="12.5" ry="12.5" style="stroke:#181818;stroke-width:0.5;" width="173" x="306" y="569.7188"/><text fill="#000000" font-family="sans-serif" font-size="12" lengthAdjust="spacing" textLength="153" x="316" y="590.8574">Print No Satisfied Solution</text><polygon fill="#F1F1F1" points="267.375,1159.4063,279.375,1171.4063,267.375,1183.4063,255.375,1171.4063,267.375,1159.4063" style="stroke:#181818;stroke-width:0.5;"/><ellipse cx="267.375" cy="1214.4063" fill="none" rx="11" ry="11" style="stroke:#222222;stroke-width:1.0;"/><ellipse cx="267.375" cy="1214.4063" fill="#222222" rx="6" ry="6" style="stroke:#222222;stroke-width:1.0;"/><line style="stroke:#181818;stroke-width:1.0;" x1="267.375" x2="267.375" y1="30" y2="50"/><polygon fill="#181818" points="263.375,40,267.375,50,271.375,40,267.375,44" style="stroke:#181818;stroke-width:1.0;"/><line style="stroke:#181818;stroke-width:1.0;" x1="267.375" x2="267.375" y1="83.9688" y2="103.9688"/><polygon fill="#181818" points="263.375,93.9688,267.375,103.9688,271.375,93.9688,267.375,97.9688" style="stroke:#181818;stroke-width:1.0;"/><line style="stroke:#181818;stroke-width:1.0;" x1="267.375" x2="267.375" y1="137.9375" y2="157.9375"/><polygon fill="#181818" points="263.375,147.9375,267.375,157.9375,271.375,147.9375,267.375,151.9375" style="stroke:#181818;stroke-width:1.0;"/><line style="stroke:#181818;stroke-width:1.0;" x1="267.375" x2="267.375" y1="191.9063" y2="211.9063"/><polygon fill="#181818" points="263.375,201.9063,267.375,211.9063,271.375,201.9063,267.375,205.9063" style="stroke:#181818;stroke-width:1.0;"/><line style="stroke:#181818;stroke-width:1.0;" x1="267.375" x2="267.375" y1="245.875" y2="265.875"/><polygon fill="#181818" points="263.375,255.875,267.375,265.875,271.375,255.875,267.375,259.875" style="stroke:#181818;stroke-width:1.0;"/><line style="stroke:#181818;stroke-width:1.0;" x1="267.375" x2="267.375" y1="299.8438" y2="319.8438"/><polygon fill="#181818" points="263.375,309.8438,267.375,319.8438,271.375,309.8438,267.375,313.8438" style="stroke:#181818;stroke-width:1.0;"/><line style="stroke:#181818;stroke-width:1.0;" x1="267.375" x2="267.375" y1="353.8125" y2="373.8125"/><polygon fill="#181818" points="263.375,363.8125,267.375,373.8125,271.375,363.8125,267.375,367.8125" style="stroke:#181818;stroke-width:1.0;"/><line style="stroke:#181818;stroke-width:1.0;" x1="267.375" x2="267.375" y1="407.7813" y2="427.7813"/><polygon fill="#181818" points="263.375,417.7813,267.375,427.7813,271.375,417.7813,267.375,421.7813" style="stroke:#181818;stroke-width:1.0;"/><line style="stroke:#181818;stroke-width:1.0;" x1="267.375" x2="267.375" y1="461.75" y2="481.75"/><polygon fill="#181818" points="263.375,471.75,267.375,481.75,271.375,471.75,267.375,475.75" style="stroke:#181818;stroke-width:1.0;"/><line style="stroke:#181818;stroke-width:1.0;" x1="142.25" x2="142.25" y1="603.6875" y2="623.6875"/><polygon fill="#181818" points="138.25,613.6875,142.25,623.6875,146.25,613.6875,142.25,617.6875" style="stroke:#181818;stroke-width:1.0;"/><line style="stroke:#181818;stroke-width:1.0;" x1="142.25" x2="142.25" y1="657.6563" y2="677.6563"/><polygon fill="#181818" points="138.25,667.6563,142.25,677.6563,146.25,667.6563,142.25,671.6563" style="stroke:#181818;stroke-width:1.0;"/><line style="stroke:#181818;stroke-width:1.0;" x1="142.25" x2="142.25" y1="711.625" y2="731.625"/><polygon fill="#181818" points="138.25,721.625,142.25,731.625,146.25,721.625,142.25,725.625" style="stroke:#181818;stroke-width:1.0;"/><line style="stroke:#181818;stroke-width:1.0;" x1="99.25" x2="71" y1="797.5938" y2="797.5938"/><line style="stroke:#181818;stroke-width:1.0;" x1="71" x2="71" y1="797.5938" y2="819.5938"/><polygon fill="#181818" points="67,809.5938,71,819.5938,75,809.5938,71,813.5938" style="stroke:#181818;stroke-width:1.0;"/><line style="stroke:#181818;stroke-width:1.0;" x1="185.25" x2="213.5" y1="797.5938" y2="797.5938"/><line style="stroke:#181818;stroke-width:1.0;" x1="213.5" x2="213.5" y1="797.5938" y2="819.5938"/><polygon fill="#181818" points="209.5,809.5938,213.5,819.5938,217.5,809.5938,213.5,813.5938" style="stroke:#181818;stroke-width:1.0;"/><line style="stroke:#181818;stroke-width:1.0;" x1="71" x2="71" y1="853.5625" y2="871.5625"/><line style="stroke:#181818;stroke-width:1.0;" x1="71" x2="130.25" y1="871.5625" y2="871.5625"/><polygon fill="#181818" points="120.25,867.5625,130.25,871.5625,120.25,875.5625,124.25,871.5625" style="stroke:#181818;stroke-width:1.0;"/><line style="stroke:#181818;stroke-width:1.0;" x1="213.5" x2="213.5" y1="853.5625" y2="871.5625"/><line style="stroke:#181818;stroke-width:1.0;" x1="213.5" x2="154.25" y1="871.5625" y2="871.5625"/><polygon fill="#181818" points="164.25,867.5625,154.25,871.5625,164.25,875.5625,160.25,871.5625" style="stroke:#181818;stroke-width:1.0;"/><line style="stroke:#181818;stroke-width:1.0;" x1="142.25" x2="142.25" y1="765.5938" y2="785.5938"/><polygon fill="#181818" points="138.25,775.5938,142.25,785.5938,146.25,775.5938,142.25,779.5938" style="stroke:#181818;stroke-width:1.0;"/><line style="stroke:#181818;stroke-width:1.0;" x1="142.25" x2="142.25" y1="883.5625" y2="903.5625"/><polygon fill="#181818" points="138.25,893.5625,142.25,903.5625,146.25,893.5625,142.25,897.5625" style="stroke:#181818;stroke-width:1.0;"/><line style="stroke:#181818;stroke-width:1.0;" x1="142.25" x2="142.25" y1="937.5313" y2="957.5313"/><polygon fill="#181818" points="138.25,947.5313,142.25,957.5313,146.25,947.5313,142.25,951.5313" style="stroke:#181818;stroke-width:1.0;"/><line style="stroke:#181818;stroke-width:1.0;" x1="142.25" x2="142.25" y1="991.5" y2="1011.5"/><polygon fill="#181818" points="138.25,1001.5,142.25,1011.5,146.25,1001.5,142.25,1005.5" style="stroke:#181818;stroke-width:1.0;"/><line style="stroke:#181818;stroke-width:1.0;" x1="142.25" x2="142.25" y1="1045.4688" y2="1065.4688"/><polygon fill="#181818" points="138.25,1055.4688,142.25,1065.4688,146.25,1055.4688,142.25,1059.4688" style="stroke:#181818;stroke-width:1.0;"/><line style="stroke:#181818;stroke-width:1.0;" x1="142.25" x2="142.25" y1="1099.4375" y2="1119.4375"/><polygon fill="#181818" points="138.25,1109.4375,142.25,1119.4375,146.25,1109.4375,142.25,1113.4375" style="stroke:#181818;stroke-width:1.0;"/><line style="stroke:#181818;stroke-width:1.0;" x1="163.375" x2="142.25" y1="547.7188" y2="547.7188"/><line style="stroke:#181818;stroke-width:1.0;" x1="142.25" x2="142.25" y1="547.7188" y2="569.7188"/><polygon fill="#181818" points="138.25,559.7188,142.25,569.7188,146.25,559.7188,142.25,563.7188" style="stroke:#181818;stroke-width:1.0;"/><line style="stroke:#181818;stroke-width:1.0;" x1="371.375" x2="392.5" y1="547.7188" y2="547.7188"/><line style="stroke:#181818;stroke-width:1.0;" x1="392.5" x2="392.5" y1="547.7188" y2="569.7188"/><polygon fill="#181818" points="388.5,559.7188,392.5,569.7188,396.5,559.7188,392.5,563.7188" style="stroke:#181818;stroke-width:1.0;"/><line style="stroke:#181818;stroke-width:1.0;" x1="142.25" x2="142.25" y1="1153.4063" y2="1171.4063"/><line style="stroke:#181818;stroke-width:1.0;" x1="142.25" x2="255.375" y1="1171.4063" y2="1171.4063"/><polygon fill="#181818" points="245.375,1167.4063,255.375,1171.4063,245.375,1175.4063,249.375,1171.4063" style="stroke:#181818;stroke-width:1.0;"/><line style="stroke:#181818;stroke-width:1.0;" x1="392.5" x2="392.5" y1="603.6875" y2="1171.4063"/><line style="stroke:#181818;stroke-width:1.0;" x1="392.5" x2="279.375" y1="1171.4063" y2="1171.4063"/><polygon fill="#181818" points="289.375,1167.4063,279.375,1171.4063,289.375,1175.4063,285.375,1171.4063" style="stroke:#181818;stroke-width:1.0;"/><line style="stroke:#181818;stroke-width:1.0;" x1="267.375" x2="267.375" y1="515.7188" y2="535.7188"/><polygon fill="#181818" points="263.375,525.7188,267.375,535.7188,271.375,525.7188,267.375,529.7188" style="stroke:#181818;stroke-width:1.0;"/><line style="stroke:#181818;stroke-width:1.0;" x1="267.375" x2="267.375" y1="1183.4063" y2="1203.4063"/><polygon fill="#181818" points="263.375,1193.4063,267.375,1203.4063,271.375,1193.4063,267.375,1197.4063" style="stroke:#181818;stroke-width:1.0;"/><!--SRC=[VL7BRi903Bpp5Jx2AHTEZJWWr5PKl5JeuxeGHxMqMKUx3YryVRq9IQX0FTgUySpOGOoNmSCM1PBaIESa0M5mbRNfu676BeYl3WBJyReKqZ9ji5qD6-DDWO8-ZcRhdl2A9Nljtp2sR8_eeynskXk_wFpn1m-L8CouA8pB8FTSA461LQGeOkF9wGuNlfMv8x7ODplSPPwsSKgFH-8gQBk9TGTA-V2c2wGcZL38oUmjZa2-qC7mX67KYdQCLLNiQycB6MjXAbm4e2ixr-wr_F2aOIzQQkjpkQYDj0-OJEe7_DNjV_5Ev-UtUJf06n26ZdMuO9F5DVNbBciKu3BAbUdHH3rh-JJN9SOT_hzU5-KUFdQNdA7jWrm3OvudYk-9zXft3NF5xL4nW_wrZSaWNFu2]--></g></svg>