<?xml version="1.0" encoding="us-ascii" standalone="no"?><svg xmlns="http://www.w3.org/2000/svg" xmlns:xlink="http://www.w3.org/1999/xlink" contentStyleType="text/css" height="1025px" preserveAspectRatio="none" style="width:351px;height:1025px;background:#FFFFFF;" version="1.1" viewBox="0 0 351 1025" width="351px" zoomAndPan="magnify"><defs/><g><ellipse cx="174.5" cy="20" fill="#222222" rx="10" ry="10" style="stroke:#222222;stroke-width:1.0;"/><rect fill="#F1F1F1" height="33.9688" rx="12.5" ry="12.5" style="stroke:#181818;stroke-width:0.5;" width="144" x="102.5" y="50"/><text fill="#000000" font-family="sans-serif" font-size="12" lengthAdjust="spacing" textLength="124" x="112.5" y="71.1387">Construct A4Options</text><rect fill="#F1F1F1" height="33.9688" rx="12.5" ry="12.5" style="stroke:#181818;stroke-width:0.5;" width="179" x="85" y="103.9688"/><text fill="#000000" font-family="sans-serif" font-size="12" lengthAdjust="spacing" textLength="159" x="95" y="125.1074">Set A4Options Parameters</text><rect fill="#F1F1F1" height="33.9688" rx="12.5" ry="12.5" style="stroke:#181818;stroke-width:0.5;" width="239" x="55" y="157.9375"/><text fill="#000000" font-family="sans-serif" font-size="12" lengthAdjust="spacing" textLength="219" x="65" y="179.0762">Execute Command from A4Solutions</text><rect fill="#F1F1F1" height="33.9688" rx="12.5" ry="12.5" style="stroke:#181818;stroke-width:0.5;" width="110" x="119.5" y="211.9063"/><text fill="#000000" font-family="sans-serif" font-size="12" lengthAdjust="spacing" textLength="90" x="129.5" y="233.0449">Create counter</text><rect fill="#F1F1F1" height="33.9688" rx="12.5" ry="12.5" style="stroke:#181818;stroke-width:0.5;" width="143" x="103" y="265.875"/><text fill="#000000" font-family="sans-serif" font-size="12" lengthAdjust="spacing" textLength="123" x="113" y="287.0137">Instantiate FileWriter</text><rect fill="#F1F1F1" height="33.9688" rx="12.5" ry="12.5" style="stroke:#181818;stroke-width:0.5;" width="183" x="83" y="319.8438"/><text fill="#000000" font-family="sans-serif" font-size="12" lengthAdjust="spacing" textLength="163" x="93" y="340.9824">Create New LinkedHashSet</text><rect fill="#F1F1F1" height="33.9688" rx="12.5" ry="12.5" style="stroke:#181818;stroke-width:0.5;" width="249" x="50" y="417.8125"/><text fill="#000000" font-family="sans-serif" font-size="12" lengthAdjust="spacing" textLength="229" x="60" y="438.9512">Get Uniqueness of A4Solution Answer</text><rect fill="#F1F1F1" height="33.9688" rx="12.5" ry="12.5" style="stroke:#181818;stroke-width:0.5;" width="169" x="90" y="471.7813"/><text fill="#000000" font-family="sans-serif" font-size="12" lengthAdjust="spacing" textLength="149" x="100" y="492.9199">Print Answer Uniqueness</text><rect fill="#F1F1F1" height="47.9375" rx="12.5" ry="12.5" style="stroke:#181818;stroke-width:0.5;" width="277" x="36" y="540.75"/><text fill="#000000" font-family="sans-serif" font-size="12" lengthAdjust="spacing" textLength="229" x="46" y="561.8887">Replace all BinaryLinkSig, TransferSig,</text><text fill="#000000" font-family="sans-serif" font-size="12" lengthAdjust="spacing" textLength="257" x="46" y="575.8574">and TransferBeforeSig in A4Solution String</text><rect fill="#F1F1F1" height="33.9688" rx="12.5" ry="12.5" style="stroke:#181818;stroke-width:0.5;" width="200" x="74.5" y="608.6875"/><text fill="#000000" font-family="sans-serif" font-size="12" lengthAdjust="spacing" textLength="180" x="84.5" y="629.8262">Go to next A4Solution Answer</text><polygon fill="#F1F1F1" points="79.5,373.8125,269.5,373.8125,281.5,385.8125,269.5,397.8125,79.5,397.8125,67.5,385.8125,79.5,373.8125" style="stroke:#181818;stroke-width:0.5;"/><text fill="#000000" font-family="sans-serif" font-size="11" lengthAdjust="spacing" textLength="190" x="79.5" y="389.6206">A4Solutions Answer is Satisfiable</text><rect fill="#F1F1F1" height="33.9688" rx="12.5" ry="12.5" style="stroke:#181818;stroke-width:0.5;" width="158" x="95.5" y="733.0586"/><text fill="#000000" font-family="sans-serif" font-size="12" lengthAdjust="spacing" textLength="138" x="105.5" y="754.1973">Print No Solution Found</text><polygon fill="#F1F1F1" points="136.5,684.6563,212.5,684.6563,224.5,696.6563,212.5,708.6563,136.5,708.6563,124.5,696.6563,136.5,684.6563" style="stroke:#181818;stroke-width:0.5;"/><text fill="#000000" font-family="sans-serif" font-size="11" lengthAdjust="spacing" textLength="21" x="178.5" y="718.8667">yes</text><text fill="#000000" font-family="sans-serif" font-size="11" lengthAdjust="spacing" textLength="76" x="136.5" y="700.4644">counter == 0</text><polygon fill="#F1F1F1" points="174.5,787.0273,186.5,799.0273,174.5,811.0273,162.5,799.0273,174.5,787.0273" style="stroke:#181818;stroke-width:0.5;"/><rect fill="#F1F1F1" height="33.9688" rx="12.5" ry="12.5" style="stroke:#181818;stroke-width:0.5;" width="134" x="107.5" y="831.0273"/><text fill="#000000" font-family="sans-serif" font-size="12" lengthAdjust="spacing" textLength="114" x="117.5" y="852.166">Print # of Solutions</text><rect fill="#F1F1F1" height="33.9688" rx="12.5" ry="12.5" style="stroke:#181818;stroke-width:0.5;" width="180" x="84.5" y="884.9961"/><text fill="#000000" font-family="sans-serif" font-size="12" lengthAdjust="spacing" textLength="160" x="94.5" y="906.1348">Print # of Unique Solutions</text><rect fill="#F1F1F1" height="33.9688" rx="12.5" ry="12.5" style="stroke:#181818;stroke-width:0.5;" width="236" x="56.5" y="938.9648"/><text fill="#000000" font-family="sans-serif" font-size="12" lengthAdjust="spacing" textLength="216" x="66.5" y="960.1035">Print # of Unique Modified Solutions</text><ellipse cx="174.5" cy="1003.9336" fill="none" rx="11" ry="11" style="stroke:#222222;stroke-width:1.0;"/><ellipse cx="174.5" cy="1003.9336" fill="#222222" rx="6" ry="6" style="stroke:#222222;stroke-width:1.0;"/><line style="stroke:#181818;stroke-width:1.0;" x1="174.5" x2="174.5" y1="30" y2="50"/><polygon fill="#181818" points="170.5,40,174.5,50,178.5,40,174.5,44" style="stroke:#181818;stroke-width:1.0;"/><line style="stroke:#181818;stroke-width:1.0;" x1="174.5" x2="174.5" y1="83.9688" y2="103.9688"/><polygon fill="#181818" points="170.5,93.9688,174.5,103.9688,178.5,93.9688,174.5,97.9688" style="stroke:#181818;stroke-width:1.0;"/><line style="stroke:#181818;stroke-width:1.0;" x1="174.5" x2="174.5" y1="137.9375" y2="157.9375"/><polygon fill="#181818" points="170.5,147.9375,174.5,157.9375,178.5,147.9375,174.5,151.9375" style="stroke:#181818;stroke-width:1.0;"/><line style="stroke:#181818;stroke-width:1.0;" x1="174.5" x2="174.5" y1="191.9063" y2="211.9063"/><polygon fill="#181818" points="170.5,201.9063,174.5,211.9063,178.5,201.9063,174.5,205.9063" style="stroke:#181818;stroke-width:1.0;"/><line style="stroke:#181818;stroke-width:1.0;" x1="174.5" x2="174.5" y1="245.875" y2="265.875"/><polygon fill="#181818" points="170.5,255.875,174.5,265.875,178.5,255.875,174.5,259.875" style="stroke:#181818;stroke-width:1.0;"/><line style="stroke:#181818;stroke-width:1.0;" x1="174.5" x2="174.5" y1="299.8438" y2="319.8438"/><polygon fill="#181818" points="170.5,309.8438,174.5,319.8438,178.5,309.8438,174.5,313.8438" style="stroke:#181818;stroke-width:1.0;"/><line style="stroke:#181818;stroke-width:1.0;" x1="174.5" x2="174.5" y1="451.7813" y2="471.7813"/><polygon fill="#181818" points="170.5,461.7813,174.5,471.7813,178.5,461.7813,174.5,465.7813" style="stroke:#181818;stroke-width:1.0;"/><line style="stroke:#181818;stroke-width:1.0;" x1="174.5" x2="174.5" y1="505.75" y2="540.75"/><polygon fill="#181818" points="170.5,530.75,174.5,540.75,178.5,530.75,174.5,534.75" style="stroke:#181818;stroke-width:1.0;"/><line style="stroke:#181818;stroke-width:1.0;" x1="174.5" x2="174.5" y1="588.6875" y2="608.6875"/><polygon fill="#181818" points="170.5,598.6875,174.5,608.6875,178.5,598.6875,174.5,602.6875" style="stroke:#181818;stroke-width:1.0;"/><line style="stroke:#181818;stroke-width:1.0;" x1="174.5" x2="174.5" y1="397.8125" y2="417.8125"/><polygon fill="#181818" points="170.5,407.8125,174.5,417.8125,178.5,407.8125,174.5,411.8125" style="stroke:#181818;stroke-width:1.0;"/><line style="stroke:#181818;stroke-width:1.0;" x1="174.5" x2="174.5" y1="642.6563" y2="652.6563"/><line style="stroke:#181818;stroke-width:1.0;" x1="174.5" x2="325" y1="652.6563" y2="652.6563"/><polygon fill="#181818" points="321,528.2344,325,518.2344,329,528.2344,325,524.2344" style="stroke:#181818;stroke-width:1.0;"/><line style="stroke:#181818;stroke-width:1.0;" x1="325" x2="325" y1="385.8125" y2="652.6563"/><line style="stroke:#181818;stroke-width:1.0;" x1="325" x2="281.5" y1="385.8125" y2="385.8125"/><polygon fill="#181818" points="291.5,381.8125,281.5,385.8125,291.5,389.8125,287.5,385.8125" style="stroke:#181818;stroke-width:1.0;"/><line style="stroke:#181818;stroke-width:1.0;" x1="67.5" x2="24" y1="385.8125" y2="385.8125"/><polygon fill="#181818" points="20,514.2344,24,524.2344,28,514.2344,24,518.2344" style="stroke:#181818;stroke-width:1.0;"/><line style="stroke:#181818;stroke-width:1.0;" x1="24" x2="24" y1="385.8125" y2="664.6563"/><line style="stroke:#181818;stroke-width:1.0;" x1="24" x2="174.5" y1="664.6563" y2="664.6563"/><line style="stroke:#181818;stroke-width:1.0;" x1="174.5" x2="174.5" y1="664.6563" y2="684.6563"/><polygon fill="#181818" points="170.5,674.6563,174.5,684.6563,178.5,674.6563,174.5,678.6563" style="stroke:#181818;stroke-width:1.0;"/><line style="stroke:#181818;stroke-width:1.0;" x1="174.5" x2="174.5" y1="353.8125" y2="373.8125"/><polygon fill="#181818" points="170.5,363.8125,174.5,373.8125,178.5,363.8125,174.5,367.8125" style="stroke:#181818;stroke-width:1.0;"/><line style="stroke:#181818;stroke-width:1.0;" x1="174.5" x2="174.5" y1="708.6563" y2="733.0586"/><polygon fill="#181818" points="170.5,723.0586,174.5,733.0586,178.5,723.0586,174.5,727.0586" style="stroke:#181818;stroke-width:1.0;"/><line style="stroke:#181818;stroke-width:1.0;" x1="224.5" x2="263.5" y1="696.6563" y2="696.6563"/><polygon fill="#181818" points="259.5,740.043,263.5,750.043,267.5,740.043,263.5,744.043" style="stroke:#181818;stroke-width:1.0;"/><line style="stroke:#181818;stroke-width:1.0;" x1="263.5" x2="263.5" y1="696.6563" y2="799.0273"/><line style="stroke:#181818;stroke-width:1.0;" x1="263.5" x2="186.5" y1="799.0273" y2="799.0273"/><polygon fill="#181818" points="196.5,795.0273,186.5,799.0273,196.5,803.0273,192.5,799.0273" style="stroke:#181818;stroke-width:1.0;"/><line style="stroke:#181818;stroke-width:1.0;" x1="174.5" x2="174.5" y1="767.0273" y2="787.0273"/><polygon fill="#181818" points="170.5,777.0273,174.5,787.0273,178.5,777.0273,174.5,781.0273" style="stroke:#181818;stroke-width:1.0;"/><line style="stroke:#181818;stroke-width:1.0;" x1="174.5" x2="174.5" y1="811.0273" y2="831.0273"/><polygon fill="#181818" points="170.5,821.0273,174.5,831.0273,178.5,821.0273,174.5,825.0273" style="stroke:#181818;stroke-width:1.0;"/><line style="stroke:#181818;stroke-width:1.0;" x1="174.5" x2="174.5" y1="864.9961" y2="884.9961"/><polygon fill="#181818" points="170.5,874.9961,174.5,884.9961,178.5,874.9961,174.5,878.9961" style="stroke:#181818;stroke-width:1.0;"/><line style="stroke:#181818;stroke-width:1.0;" x1="174.5" x2="174.5" y1="918.9648" y2="938.9648"/><polygon fill="#181818" points="170.5,928.9648,174.5,938.9648,178.5,928.9648,174.5,932.9648" style="stroke:#181818;stroke-width:1.0;"/><line style="stroke:#181818;stroke-width:1.0;" x1="174.5" x2="174.5" y1="972.9336" y2="992.9336"/><polygon fill="#181818" points="170.5,982.9336,174.5,992.9336,178.5,982.9336,174.5,986.9336" style="stroke:#181818;stroke-width:1.0;"/><!--SRC=[XL0zJyD03DtpAoonD1830rEh3cr52nAKYe2OZyJNMYI-u7FKzj_Zj0tSWCJez-7txAXED1il0aULhbIOtJwtIZPEid61oGmR9wv1HUcfkmEMdI8iGjCuhi1BQ4nRXBeRt0j1PueoT6mc0nuimx5IZowfndUXCt5Hhd4FZyIVMDsxkBFmIRRVcMwKx8KPnpqAK8J2AKLFxgF6F1klhEiRqrU7Z352y4cRYycIDaAimuvVkJ4lsDQkH71r3NDY9yU-Ia7RQtWLnz6Zz4FM7pi0S_H1q60WJkCAjPYjBLq5q02C1_sh3N9rkYyZFxfy2QPJkCb1TyWmEcBCXyhh03_-fMchavtym5_r5wVVJ-3pdV-mJy6s4LQfB6felm40]--></g></svg>