<?xml version="1.0" encoding="us-ascii" standalone="no"?><svg xmlns="http://www.w3.org/2000/svg" xmlns:xlink="http://www.w3.org/1999/xlink" contentStyleType="text/css" height="794px" preserveAspectRatio="none" style="width:495px;height:794px;background:#FFFFFF;" version="1.1" viewBox="0 0 495 794" width="495px" zoomAndPan="magnify"><defs/><g><ellipse cx="262.25" cy="20" fill="#222222" rx="10" ry="10" style="stroke:#222222;stroke-width:1.0;"/><rect fill="#F1F1F1" height="33.9688" rx="12.5" ry="12.5" style="stroke:#181818;stroke-width:0.5;" width="181" x="171.75" y="50"/><text fill="#000000" font-family="sans-serif" font-size="12" lengthAdjust="spacing" textLength="161" x="181.75" y="71.1387">Get the A4Solution Answer</text><rect fill="#F1F1F1" height="33.9688" rx="12.5" ry="12.5" style="stroke:#181818;stroke-width:0.5;" width="179" x="172.75" y="103.9688"/><text fill="#000000" font-family="sans-serif" font-size="12" lengthAdjust="spacing" textLength="60" x="182.75" y="125.1074">Increment</text><text fill="#000000" font-family="sans-serif" font-size="12" font-style="italic" lengthAdjust="spacing" textLength="95" x="246.75" y="125.1074">solutionCounter</text><polygon fill="#F1F1F1" points="170.25,157.9375,354.25,157.9375,366.25,169.9375,354.25,181.9375,170.25,181.9375,158.25,169.9375,170.25,157.9375" style="stroke:#181818;stroke-width:0.5;"/><text fill="#000000" font-family="sans-serif" font-size="11" lengthAdjust="spacing" textLength="184" x="170.25" y="173.7456">A4Solution Answer is Satisfiable</text><text fill="#000000" font-family="sans-serif" font-size="11" lengthAdjust="spacing" textLength="21" x="137.25" y="167.3433">yes</text><text fill="#000000" font-family="sans-serif" font-size="11" lengthAdjust="spacing" textLength="14" x="366.25" y="167.3433">no</text><rect fill="#F1F1F1" height="33.9688" rx="12.5" ry="12.5" style="stroke:#181818;stroke-width:0.5;" width="148" x="65" y="191.9375"/><text fill="#000000" font-family="sans-serif" font-size="12" lengthAdjust="spacing" textLength="128" x="75" y="213.0762">Print Solution Number</text><rect fill="#F1F1F1" height="33.9688" rx="12.5" ry="12.5" style="stroke:#181818;stroke-width:0.5;" width="139" x="69.5" y="245.9063"/><text fill="#000000" font-family="sans-serif" font-size="12" lengthAdjust="spacing" textLength="119" x="79.5" y="267.0449">Print Solution Atoms</text><rect fill="#F1F1F1" height="33.9688" rx="12.5" ry="12.5" style="stroke:#181818;stroke-width:0.5;" width="80" x="99" y="299.875"/><text fill="#000000" font-family="sans-serif" font-size="12" lengthAdjust="spacing" textLength="60" x="109" y="321.0137">Write XML</text><rect fill="#F1F1F1" height="33.9688" rx="12.5" ry="12.5" style="stroke:#181818;stroke-width:0.5;" width="77" x="100.5" y="353.8438"/><text fill="#000000" font-family="sans-serif" font-size="12" lengthAdjust="spacing" textLength="57" x="110.5" y="374.9824">Load XML</text><rect fill="#F1F1F1" height="33.9688" rx="12.5" ry="12.5" style="stroke:#181818;stroke-width:0.5;" width="143" x="67.5" y="407.8125"/><text fill="#000000" font-family="sans-serif" font-size="12" lengthAdjust="spacing" textLength="123" x="77.5" y="428.9512">Create AlloyInstance</text><rect fill="#F1F1F1" height="33.9688" rx="12.5" ry="12.5" style="stroke:#181818;stroke-width:0.5;" width="150" x="64" y="461.7813"/><text fill="#000000" font-family="sans-serif" font-size="12" lengthAdjust="spacing" textLength="130" x="74" y="482.9199">Print Satisfied Answer</text><rect fill="#F1F1F1" height="33.9688" rx="12.5" ry="12.5" style="stroke:#181818;stroke-width:0.5;" width="128" x="75" y="515.75"/><text fill="#000000" font-family="sans-serif" font-size="12" lengthAdjust="spacing" textLength="108" x="85" y="536.8887">Print AlloyInstance</text><rect fill="#F1F1F1" height="33.9688" rx="12.5" ry="12.5" style="stroke:#181818;stroke-width:0.5;" width="115" x="81.5" y="569.7188"/><text fill="#000000" font-family="sans-serif" font-size="12" lengthAdjust="spacing" textLength="95" x="91.5" y="590.8574">Print AlloyModel</text><rect fill="#F1F1F1" height="33.9688" rx="12.5" ry="12.5" style="stroke:#181818;stroke-width:0.5;" width="176" x="51" y="623.6875"/><text fill="#000000" font-family="sans-serif" font-size="12" lengthAdjust="spacing" textLength="156" x="61" y="644.8262">Write AlloyInstance to File</text><rect fill="#F1F1F1" height="33.9688" rx="12.5" ry="12.5" style="stroke:#181818;stroke-width:0.5;" width="256" x="11" y="677.6563"/><text fill="#000000" font-family="sans-serif" font-size="12" lengthAdjust="spacing" textLength="75" x="21" y="698.7949">Set Attribute</text><text fill="#000000" font-family="sans-serif" font-size="12" font-style="italic" lengthAdjust="spacing" textLength="73" x="100" y="698.7949">previousAns</text><text fill="#000000" font-family="sans-serif" font-size="12" lengthAdjust="spacing" textLength="80" x="177" y="698.7949">to A4Solution</text><rect fill="#F1F1F1" height="33.9688" rx="12.5" ry="12.5" style="stroke:#181818;stroke-width:0.5;" width="197" x="287" y="191.9375"/><text fill="#000000" font-family="sans-serif" font-size="12" lengthAdjust="spacing" textLength="177" x="297" y="213.0762">Print Answer is not Satisfiable</text><rect fill="#F1F1F1" height="33.9688" rx="12.5" ry="12.5" style="stroke:#181818;stroke-width:0.5;" width="145" x="313" y="245.9063"/><text fill="#000000" font-family="sans-serif" font-size="12" lengthAdjust="spacing" textLength="125" x="323" y="267.0449">Write Answer to XML</text><polygon fill="#F1F1F1" points="262.25,717.625,274.25,729.625,262.25,741.625,250.25,729.625,262.25,717.625" style="stroke:#181818;stroke-width:0.5;"/><ellipse cx="262.25" cy="772.625" fill="none" rx="11" ry="11" style="stroke:#222222;stroke-width:1.0;"/><ellipse cx="262.25" cy="772.625" fill="#222222" rx="6" ry="6" style="stroke:#222222;stroke-width:1.0;"/><line style="stroke:#181818;stroke-width:1.0;" x1="262.25" x2="262.25" y1="30" y2="50"/><polygon fill="#181818" points="258.25,40,262.25,50,266.25,40,262.25,44" style="stroke:#181818;stroke-width:1.0;"/><line style="stroke:#181818;stroke-width:1.0;" x1="262.25" x2="262.25" y1="83.9688" y2="103.9688"/><polygon fill="#181818" points="258.25,93.9688,262.25,103.9688,266.25,93.9688,262.25,97.9688" style="stroke:#181818;stroke-width:1.0;"/><line style="stroke:#181818;stroke-width:1.0;" x1="139" x2="139" y1="225.9063" y2="245.9063"/><polygon fill="#181818" points="135,235.9063,139,245.9063,143,235.9063,139,239.9063" style="stroke:#181818;stroke-width:1.0;"/><line style="stroke:#181818;stroke-width:1.0;" x1="139" x2="139" y1="279.875" y2="299.875"/><polygon fill="#181818" points="135,289.875,139,299.875,143,289.875,139,293.875" style="stroke:#181818;stroke-width:1.0;"/><line style="stroke:#181818;stroke-width:1.0;" x1="139" x2="139" y1="333.8438" y2="353.8438"/><polygon fill="#181818" points="135,343.8438,139,353.8438,143,343.8438,139,347.8438" style="stroke:#181818;stroke-width:1.0;"/><line style="stroke:#181818;stroke-width:1.0;" x1="139" x2="139" y1="387.8125" y2="407.8125"/><polygon fill="#181818" points="135,397.8125,139,407.8125,143,397.8125,139,401.8125" style="stroke:#181818;stroke-width:1.0;"/><line style="stroke:#181818;stroke-width:1.0;" x1="139" x2="139" y1="441.7813" y2="461.7813"/><polygon fill="#181818" points="135,451.7813,139,461.7813,143,451.7813,139,455.7813" style="stroke:#181818;stroke-width:1.0;"/><line style="stroke:#181818;stroke-width:1.0;" x1="139" x2="139" y1="495.75" y2="515.75"/><polygon fill="#181818" points="135,505.75,139,515.75,143,505.75,139,509.75" style="stroke:#181818;stroke-width:1.0;"/><line style="stroke:#181818;stroke-width:1.0;" x1="139" x2="139" y1="549.7188" y2="569.7188"/><polygon fill="#181818" points="135,559.7188,139,569.7188,143,559.7188,139,563.7188" style="stroke:#181818;stroke-width:1.0;"/><line style="stroke:#181818;stroke-width:1.0;" x1="139" x2="139" y1="603.6875" y2="623.6875"/><polygon fill="#181818" points="135,613.6875,139,623.6875,143,613.6875,139,617.6875" style="stroke:#181818;stroke-width:1.0;"/><line style="stroke:#181818;stroke-width:1.0;" x1="139" x2="139" y1="657.6563" y2="677.6563"/><polygon fill="#181818" points="135,667.6563,139,677.6563,143,667.6563,139,671.6563" style="stroke:#181818;stroke-width:1.0;"/><line style="stroke:#181818;stroke-width:1.0;" x1="385.5" x2="385.5" y1="225.9063" y2="245.9063"/><polygon fill="#181818" points="381.5,235.9063,385.5,245.9063,389.5,235.9063,385.5,239.9063" style="stroke:#181818;stroke-width:1.0;"/><line style="stroke:#181818;stroke-width:1.0;" x1="158.25" x2="139" y1="169.9375" y2="169.9375"/><line style="stroke:#181818;stroke-width:1.0;" x1="139" x2="139" y1="169.9375" y2="191.9375"/><polygon fill="#181818" points="135,181.9375,139,191.9375,143,181.9375,139,185.9375" style="stroke:#181818;stroke-width:1.0;"/><line style="stroke:#181818;stroke-width:1.0;" x1="366.25" x2="385.5" y1="169.9375" y2="169.9375"/><line style="stroke:#181818;stroke-width:1.0;" x1="385.5" x2="385.5" y1="169.9375" y2="191.9375"/><polygon fill="#181818" points="381.5,181.9375,385.5,191.9375,389.5,181.9375,385.5,185.9375" style="stroke:#181818;stroke-width:1.0;"/><line style="stroke:#181818;stroke-width:1.0;" x1="139" x2="139" y1="711.625" y2="729.625"/><line style="stroke:#181818;stroke-width:1.0;" x1="139" x2="250.25" y1="729.625" y2="729.625"/><polygon fill="#181818" points="240.25,725.625,250.25,729.625,240.25,733.625,244.25,729.625" style="stroke:#181818;stroke-width:1.0;"/><line style="stroke:#181818;stroke-width:1.0;" x1="385.5" x2="385.5" y1="279.875" y2="729.625"/><line style="stroke:#181818;stroke-width:1.0;" x1="385.5" x2="274.25" y1="729.625" y2="729.625"/><polygon fill="#181818" points="284.25,725.625,274.25,729.625,284.25,733.625,280.25,729.625" style="stroke:#181818;stroke-width:1.0;"/><line style="stroke:#181818;stroke-width:1.0;" x1="262.25" x2="262.25" y1="137.9375" y2="157.9375"/><polygon fill="#181818" points="258.25,147.9375,262.25,157.9375,266.25,147.9375,262.25,151.9375" style="stroke:#181818;stroke-width:1.0;"/><line style="stroke:#181818;stroke-width:1.0;" x1="262.25" x2="262.25" y1="741.625" y2="761.625"/><polygon fill="#181818" points="258.25,751.625,262.25,761.625,266.25,751.625,262.25,755.625" style="stroke:#181818;stroke-width:1.0;"/><!--SRC=[RL0zQyCm4DtrApGwavPEzYG2BO6a53oagnoVwO5y5tIdblpxo7Qm-xKTxzu7xuc6fAP-0RNw0TO_jHop8fFr95-G6bCVw99W15Bhd3o-Uywaa9nh30xL7vL5iMrGb0535s4tUPEjRY0xKxybB5whuZMFtPpp2_VAenJud531lf-EvJvow1_dFa4ek8-HRmSI3NI1pMJ9XdvhiJp-fy_eYNk8QzuFebMspnWdGLk6yge9krnOpbqJV29dAJdEJRnjYyP05AY8ryxRECJwVQ0jTc4KdxabK8-34UNh7G00]--></g></svg>