<?xml version="1.0" encoding="us-ascii" standalone="no"?><svg xmlns="http://www.w3.org/2000/svg" xmlns:xlink="http://www.w3.org/1999/xlink" contentStyleType="text/css" height="391px" preserveAspectRatio="none" style="width:279px;height:391px;background:#FFFFFF;" version="1.1" viewBox="0 0 279 391" width="279px" zoomAndPan="magnify"><defs/><g><!--class edu.gatech.gtri.obm.translator.alloy.tofile.ASTVisitor--><a href="ASTVisitor.html" target="_top" title="ASTVisitor.html" xlink:actuate="onRequest" xlink:href="ASTVisitor.html" xlink:show="new" xlink:title="ASTVisitor.html" xlink:type="simple"><g id="elem_edu.gatech.gtri.obm.translator.alloy.tofile.ASTVisitor"><rect codeLine="5" fill="#F1F1F1" height="257.7969" id="edu.gatech.gtri.obm.translator.alloy.tofile.ASTVisitor" rx="2.5" ry="2.5" style="stroke:#181818;stroke-width:0.5;" width="265" x="7" y="108"/><ellipse cx="36.85" cy="126.9688" fill="#ADD1B2" rx="11" ry="11" style="stroke:#181818;stroke-width:1.0;"/><path d="M39.8188,132.6094 Q39.2406,132.9063 38.6,133.0469 Q37.9594,133.2031 37.2563,133.2031 Q34.7563,133.2031 33.4281,131.5625 Q32.1156,129.9063 32.1156,126.7813 Q32.1156,123.6563 33.4281,122 Q34.7563,120.3438 37.2563,120.3438 Q37.9594,120.3438 38.6,120.5 Q39.2563,120.6563 39.8188,120.9531 L39.8188,123.6719 Q39.1938,123.0938 38.6,122.8281 Q38.0063,122.5469 37.3813,122.5469 Q36.0375,122.5469 35.35,123.625 Q34.6625,124.6875 34.6625,126.7813 Q34.6625,128.875 35.35,129.9531 Q36.0375,131.0156 37.3813,131.0156 Q38.0063,131.0156 38.6,130.75 Q39.1938,130.4688 39.8188,129.8906 L39.8188,132.6094 Z " fill="#000000"/><text fill="#000000" font-family="sans-serif" font-size="14" lengthAdjust="spacing" textLength="69" x="119.65" y="125.9951">ASTVisitor</text><text fill="#000000" font-family="sans-serif" font-size="10" lengthAdjust="spacing" textLength="200" x="54.15" y="138.5791">edu.gatech.gtri.obm.translator.alloy.tofile</text><line style="stroke:#181818;stroke-width:0.5;" x1="8" x2="271" y1="145.9375" y2="145.9375"/><ellipse cx="18" cy="159.5859" fill="#84BE84" rx="3" ry="3" style="stroke:#038048;stroke-width:1.0;"/><text fill="#000000" font-family="sans-serif" font-size="14" lengthAdjust="spacing" textLength="239" x="27" y="162.9326">getMap(): Map&lt;Expr, List&lt;Expr&gt;&gt;</text><ellipse cx="18" cy="175.8828" fill="#84BE84" rx="3" ry="3" style="stroke:#038048;stroke-width:1.0;"/><text fill="#000000" font-family="sans-serif" font-size="14" lengthAdjust="spacing" textLength="131" x="27" y="179.2295">printVisitInfo(): void</text><ellipse cx="18" cy="192.1797" fill="#84BE84" rx="3" ry="3" style="stroke:#038048;stroke-width:1.0;"/><text fill="#000000" font-family="sans-serif" font-size="14" lengthAdjust="spacing" textLength="147" x="27" y="195.5264">visit(ExprBinary): Expr</text><ellipse cx="18" cy="208.4766" fill="#84BE84" rx="3" ry="3" style="stroke:#038048;stroke-width:1.0;"/><text fill="#000000" font-family="sans-serif" font-size="14" lengthAdjust="spacing" textLength="128" x="27" y="211.8232">visit(ExprList): Expr</text><ellipse cx="18" cy="224.7734" fill="#84BE84" rx="3" ry="3" style="stroke:#038048;stroke-width:1.0;"/><text fill="#000000" font-family="sans-serif" font-size="14" lengthAdjust="spacing" textLength="129" x="27" y="228.1201">visit(ExprCall): Expr</text><ellipse cx="18" cy="241.0703" fill="#84BE84" rx="3" ry="3" style="stroke:#038048;stroke-width:1.0;"/><text fill="#000000" font-family="sans-serif" font-size="14" lengthAdjust="spacing" textLength="168" x="27" y="244.417">visit(ExprConstant): Expr</text><ellipse cx="18" cy="257.3672" fill="#84BE84" rx="3" ry="3" style="stroke:#038048;stroke-width:1.0;"/><text fill="#000000" font-family="sans-serif" font-size="14" lengthAdjust="spacing" textLength="126" x="27" y="260.7139">visit(ExprITE): Expr</text><ellipse cx="18" cy="273.6641" fill="#84BE84" rx="3" ry="3" style="stroke:#038048;stroke-width:1.0;"/><text fill="#000000" font-family="sans-serif" font-size="14" lengthAdjust="spacing" textLength="126" x="27" y="277.0107">visit(ExprLet): Expr</text><ellipse cx="18" cy="289.9609" fill="#84BE84" rx="3" ry="3" style="stroke:#038048;stroke-width:1.0;"/><text fill="#000000" font-family="sans-serif" font-size="14" lengthAdjust="spacing" textLength="121" x="27" y="293.3076">visit(ExprQt): Expr</text><ellipse cx="18" cy="306.2578" fill="#84BE84" rx="3" ry="3" style="stroke:#038048;stroke-width:1.0;"/><text fill="#000000" font-family="sans-serif" font-size="14" lengthAdjust="spacing" textLength="144" x="27" y="309.6045">visit(ExprUnary): Expr</text><ellipse cx="18" cy="322.5547" fill="#84BE84" rx="3" ry="3" style="stroke:#038048;stroke-width:1.0;"/><text fill="#000000" font-family="sans-serif" font-size="14" lengthAdjust="spacing" textLength="127" x="27" y="325.9014">visit(ExprVar): Expr</text><ellipse cx="18" cy="338.8516" fill="#84BE84" rx="3" ry="3" style="stroke:#038048;stroke-width:1.0;"/><text fill="#000000" font-family="sans-serif" font-size="14" lengthAdjust="spacing" textLength="96" x="27" y="342.1982">visit(Sig): Expr</text><ellipse cx="18" cy="355.1484" fill="#84BE84" rx="3" ry="3" style="stroke:#038048;stroke-width:1.0;"/><text fill="#000000" font-family="sans-serif" font-size="14" lengthAdjust="spacing" textLength="107" x="27" y="358.4951">visit(Field): Expr</text></g></a><!--class edu.mit.csail.sdg.ast.VisitQuery--><g id="elem_edu.mit.csail.sdg.ast.VisitQuery"><rect codeLine="21" fill="#F1F1F1" height="37.9375" id="edu.mit.csail.sdg.ast.VisitQuery" rx="2.5" ry="2.5" style="stroke:#181818;stroke-width:0.5;" width="166" x="56.5" y="10"/><ellipse cx="71.5" cy="28.9688" fill="#A9DCDF" rx="11" ry="11" style="stroke:#181818;stroke-width:1.0;"/><path d="M71.6094,24.3125 L70.4531,29.3906 L72.7813,29.3906 L71.6094,24.3125 Z M70.125,22.0781 L73.1094,22.0781 L76.4688,34.4688 L74.0156,34.4688 L73.25,31.4063 L69.9688,31.4063 L69.2188,34.4688 L66.7813,34.4688 L70.125,22.0781 Z " fill="#000000"/><text fill="#000000" font-family="sans-serif" font-size="14" font-style="italic" lengthAdjust="spacing" textLength="70" x="101.5" y="27.9951">VisitQuery</text><text fill="#000000" font-family="sans-serif" font-size="10" font-style="italic" lengthAdjust="spacing" textLength="102" x="85.5" y="40.5791">edu.mit.csail.sdg.ast</text><rect fill="#FFFFFF" height="15.9688" style="stroke:#181818;stroke-width:1.0;stroke-dasharray:2.0,2.0;" width="30" x="195.5" y="7"/><text fill="#000000" font-family="sans-serif" font-size="12" font-style="italic" lengthAdjust="spacing" textLength="28" x="196.5" y="19.1387">Expr</text></g><!--reverse link edu.mit.csail.sdg.ast.VisitQuery to edu.gatech.gtri.obm.translator.alloy.tofile.ASTVisitor--><g id="link_edu.mit.csail.sdg.ast.VisitQuery_edu.gatech.gtri.obm.translator.alloy.tofile.ASTVisitor"><path codeLine="23" d="M139.5,66.28 C139.5,80.76 139.5,84.39 139.5,107.89 " fill="none" id="edu.mit.csail.sdg.ast.VisitQuery-backto-edu.gatech.gtri.obm.translator.alloy.tofile.ASTVisitor" style="stroke:#181818;stroke-width:1.0;"/><polygon fill="none" points="139.5,48.28,133.5,66.28,145.5,66.28,139.5,48.28" style="stroke:#181818;stroke-width:1.0;"/></g><text fill="#888888" font-family="sans-serif" font-size="10" lengthAdjust="spacing" textLength="186" x="39.5" y="381.0791">UMLDoclet 2.1.1, PlantUML 1.2023.12</text><!--SRC=[dLDTQy8m57tVhxW80sKQvjYJI64V3WI5YSuNvqDiRzj0cfJaAki-_lkITgn3PsNhIvfppZqtuPu005WaK3n3c_CGvvXpmqaRK5hXcQCX5H42PZaL40kKaTr7CwHKExZ4GycjXTRGYbSSzA-3c_bYAQnmZi_g2xmCCDgoX1E6AKl82AOt6IF3bPM-DUDIweAHZeN45d0BVz2pkY6iLlM6fPJ9zHhUobFwxo91clAytHc0MuQZbznqOI8ibRz1K0jp8nILFcCLQr-mqoAg-PsdshxgLYXk2YVmczy4th-1ldDNQQAriiHLayDuCMfgZqsrioRowSJDbjmSOUSYES8y-3pzv3wg4F6DTUCDwI1DvH1cMpJ5NfeoGIoqN4XceuHnIz-vEM1ORL9DkkfvIWl3zrxldqciNWOgGWEnrdvvcaxkTIZTsxjYVTRlmgDqWtKedE_GMA5Lk_C9]--></g></svg>