<?xml version="1.0" encoding="us-ascii" standalone="no"?><svg xmlns="http://www.w3.org/2000/svg" xmlns:xlink="http://www.w3.org/1999/xlink" contentStyleType="text/css" height="465px" preserveAspectRatio="none" style="width:618px;height:465px;background:#FFFFFF;" version="1.1" viewBox="0 0 618 465" width="618px" zoomAndPan="magnify"><defs/><g><!--cluster edu.gatech.gtri.obm.translator.alloy.tofile--><g id="cluster_edu.gatech.gtri.obm.translator.alloy.tofile"><path d="M8.5,129 L337.5,129 A3.75,3.75 0 0 1 340,131.5 L347,151.2969 L608.5,151.2969 A2.5,2.5 0 0 1 611,153.7969 L611,437.5 A2.5,2.5 0 0 1 608.5,440 L8.5,440 A2.5,2.5 0 0 1 6,437.5 L6,131.5 A2.5,2.5 0 0 1 8.5,129 " fill="none" style="stroke:#000000;stroke-width:1.5;"/><line style="stroke:#000000;stroke-width:1.5;" x1="6" x2="347" y1="151.2969" y2="151.2969"/><text fill="#000000" font-family="sans-serif" font-size="14" font-weight="bold" lengthAdjust="spacing" textLength="328" x="10" y="143.9951">edu.gatech.gtri.obm.translator.alloy.tofile</text></g><!--cluster edu.mit.csail.sdg.ast--><g id="cluster_edu.mit.csail.sdg.ast"><path d="M375.5,6 L538.5,6 A3.75,3.75 0 0 1 541,8.5 L548,28.2969 L548.5,28.2969 A2.5,2.5 0 0 1 551,30.7969 L551,102.5 A2.5,2.5 0 0 1 548.5,105 L375.5,105 A2.5,2.5 0 0 1 373,102.5 L373,8.5 A2.5,2.5 0 0 1 375.5,6 " fill="none" style="stroke:#000000;stroke-width:1.5;"/><line style="stroke:#000000;stroke-width:1.5;" x1="373" x2="548" y1="28.2969" y2="28.2969"/><text fill="#000000" font-family="sans-serif" font-size="14" font-weight="bold" lengthAdjust="spacing" textLength="162" x="377" y="20.9951">edu.mit.csail.sdg.ast</text></g><!--class ASTVisitor--><a href="ASTVisitor.html" target="_top" title="ASTVisitor.html" xlink:actuate="onRequest" xlink:href="ASTVisitor.html" xlink:show="new" xlink:title="ASTVisitor.html" xlink:type="simple"><g id="elem_ASTVisitor"><rect codeLine="5" fill="#F1F1F1" height="259.8594" id="ASTVisitor" rx="2.5" ry="2.5" style="stroke:#181818;stroke-width:0.5;" width="265" x="329.5" y="164"/><ellipse cx="423.25" cy="180" fill="#ADD1B2" rx="11" ry="11" style="stroke:#181818;stroke-width:1.0;"/><path d="M426.2188,185.6406 Q425.6406,185.9375 425,186.0781 Q424.3594,186.2344 423.6563,186.2344 Q421.1563,186.2344 419.8281,184.5938 Q418.5156,182.9375 418.5156,179.8125 Q418.5156,176.6875 419.8281,175.0313 Q421.1563,173.375 423.6563,173.375 Q424.3594,173.375 425,173.5313 Q425.6563,173.6875 426.2188,173.9844 L426.2188,176.7031 Q425.5938,176.125 425,175.8594 Q424.4063,175.5781 423.7813,175.5781 Q422.4375,175.5781 421.75,176.6563 Q421.0625,177.7188 421.0625,179.8125 Q421.0625,181.9063 421.75,182.9844 Q422.4375,184.0469 423.7813,184.0469 Q424.4063,184.0469 425,183.7813 Q425.5938,183.5 426.2188,182.9219 L426.2188,185.6406 Z " fill="#000000"/><text fill="#000000" font-family="sans-serif" font-size="14" lengthAdjust="spacing" textLength="69" x="443.75" y="184.8467">ASTVisitor</text><line style="stroke:#181818;stroke-width:0.5;" x1="330.5" x2="593.5" y1="196" y2="196"/><line style="stroke:#181818;stroke-width:0.5;" x1="330.5" x2="593.5" y1="204" y2="204"/><ellipse cx="340.5" cy="217.6484" fill="#84BE84" rx="3" ry="3" style="stroke:#038048;stroke-width:1.0;"/><text fill="#000000" font-family="sans-serif" font-size="14" lengthAdjust="spacing" textLength="239" x="349.5" y="220.9951">getMap(): Map&lt;Expr, List&lt;Expr&gt;&gt;</text><ellipse cx="340.5" cy="233.9453" fill="#84BE84" rx="3" ry="3" style="stroke:#038048;stroke-width:1.0;"/><text fill="#000000" font-family="sans-serif" font-size="14" lengthAdjust="spacing" textLength="131" x="349.5" y="237.292">printVisitInfo(): void</text><ellipse cx="340.5" cy="250.2422" fill="#84BE84" rx="3" ry="3" style="stroke:#038048;stroke-width:1.0;"/><text fill="#000000" font-family="sans-serif" font-size="14" lengthAdjust="spacing" textLength="147" x="349.5" y="253.5889">visit(ExprBinary): Expr</text><ellipse cx="340.5" cy="266.5391" fill="#84BE84" rx="3" ry="3" style="stroke:#038048;stroke-width:1.0;"/><text fill="#000000" font-family="sans-serif" font-size="14" lengthAdjust="spacing" textLength="128" x="349.5" y="269.8857">visit(ExprList): Expr</text><ellipse cx="340.5" cy="282.8359" fill="#84BE84" rx="3" ry="3" style="stroke:#038048;stroke-width:1.0;"/><text fill="#000000" font-family="sans-serif" font-size="14" lengthAdjust="spacing" textLength="129" x="349.5" y="286.1826">visit(ExprCall): Expr</text><ellipse cx="340.5" cy="299.1328" fill="#84BE84" rx="3" ry="3" style="stroke:#038048;stroke-width:1.0;"/><text fill="#000000" font-family="sans-serif" font-size="14" lengthAdjust="spacing" textLength="168" x="349.5" y="302.4795">visit(ExprConstant): Expr</text><ellipse cx="340.5" cy="315.4297" fill="#84BE84" rx="3" ry="3" style="stroke:#038048;stroke-width:1.0;"/><text fill="#000000" font-family="sans-serif" font-size="14" lengthAdjust="spacing" textLength="126" x="349.5" y="318.7764">visit(ExprITE): Expr</text><ellipse cx="340.5" cy="331.7266" fill="#84BE84" rx="3" ry="3" style="stroke:#038048;stroke-width:1.0;"/><text fill="#000000" font-family="sans-serif" font-size="14" lengthAdjust="spacing" textLength="126" x="349.5" y="335.0732">visit(ExprLet): Expr</text><ellipse cx="340.5" cy="348.0234" fill="#84BE84" rx="3" ry="3" style="stroke:#038048;stroke-width:1.0;"/><text fill="#000000" font-family="sans-serif" font-size="14" lengthAdjust="spacing" textLength="121" x="349.5" y="351.3701">visit(ExprQt): Expr</text><ellipse cx="340.5" cy="364.3203" fill="#84BE84" rx="3" ry="3" style="stroke:#038048;stroke-width:1.0;"/><text fill="#000000" font-family="sans-serif" font-size="14" lengthAdjust="spacing" textLength="144" x="349.5" y="367.667">visit(ExprUnary): Expr</text><ellipse cx="340.5" cy="380.6172" fill="#84BE84" rx="3" ry="3" style="stroke:#038048;stroke-width:1.0;"/><text fill="#000000" font-family="sans-serif" font-size="14" lengthAdjust="spacing" textLength="127" x="349.5" y="383.9639">visit(ExprVar): Expr</text><ellipse cx="340.5" cy="396.9141" fill="#84BE84" rx="3" ry="3" style="stroke:#038048;stroke-width:1.0;"/><text fill="#000000" font-family="sans-serif" font-size="14" lengthAdjust="spacing" textLength="96" x="349.5" y="400.2607">visit(Sig): Expr</text><ellipse cx="340.5" cy="413.2109" fill="#84BE84" rx="3" ry="3" style="stroke:#038048;stroke-width:1.0;"/><text fill="#000000" font-family="sans-serif" font-size="14" lengthAdjust="spacing" textLength="107" x="349.5" y="416.5576">visit(Field): Expr</text></g></a><!--class AlloyModule--><a href="AlloyModule.html" target="_top" title="AlloyModule.html" xlink:actuate="onRequest" xlink:href="AlloyModule.html" xlink:show="new" xlink:title="AlloyModule.html" xlink:type="simple"><g id="elem_AlloyModule"><rect codeLine="21" fill="#F1F1F1" height="113.1875" id="AlloyModule" rx="2.5" ry="2.5" style="stroke:#181818;stroke-width:0.5;" width="272" x="22" y="237.5"/><ellipse cx="112.75" cy="253.5" fill="#ADD1B2" rx="11" ry="11" style="stroke:#181818;stroke-width:1.0;"/><path d="M115.7188,259.1406 Q115.1406,259.4375 114.5,259.5781 Q113.8594,259.7344 113.1563,259.7344 Q110.6563,259.7344 109.3281,258.0938 Q108.0156,256.4375 108.0156,253.3125 Q108.0156,250.1875 109.3281,248.5313 Q110.6563,246.875 113.1563,246.875 Q113.8594,246.875 114.5,247.0313 Q115.1563,247.1875 115.7188,247.4844 L115.7188,250.2031 Q115.0938,249.625 114.5,249.3594 Q113.9063,249.0781 113.2813,249.0781 Q111.9375,249.0781 111.25,250.1563 Q110.5625,251.2188 110.5625,253.3125 Q110.5625,255.4063 111.25,256.4844 Q111.9375,257.5469 113.2813,257.5469 Q113.9063,257.5469 114.5,257.2813 Q115.0938,257 115.7188,256.4219 L115.7188,259.1406 Z " fill="#000000"/><text fill="#000000" font-family="sans-serif" font-size="14" lengthAdjust="spacing" textLength="82" x="133.25" y="258.3467">AlloyModule</text><line style="stroke:#181818;stroke-width:0.5;" x1="23" x2="293" y1="269.5" y2="269.5"/><line style="stroke:#181818;stroke-width:0.5;" x1="23" x2="293" y1="277.5" y2="277.5"/><ellipse cx="33" cy="291.1484" fill="#84BE84" rx="3" ry="3" style="stroke:#038048;stroke-width:1.0;"/><text fill="#000000" font-family="sans-serif" font-size="14" lengthAdjust="spacing" textLength="246" x="42" y="294.4951">AlloyModule(String, List&lt;Sig&gt;, Expr)</text><ellipse cx="33" cy="307.4453" fill="#84BE84" rx="3" ry="3" style="stroke:#038048;stroke-width:1.0;"/><text fill="#000000" font-family="sans-serif" font-size="14" lengthAdjust="spacing" textLength="173" x="42" y="310.792">getModuleName(): String</text><ellipse cx="33" cy="323.7422" fill="#84BE84" rx="3" ry="3" style="stroke:#038048;stroke-width:1.0;"/><text fill="#000000" font-family="sans-serif" font-size="14" lengthAdjust="spacing" textLength="109" x="42" y="327.0889">getFacts(): Expr</text><ellipse cx="33" cy="340.0391" fill="#84BE84" rx="3" ry="3" style="stroke:#038048;stroke-width:1.0;"/><text fill="#000000" font-family="sans-serif" font-size="14" lengthAdjust="spacing" textLength="184" x="42" y="343.3857">getSignatures(): List&lt;Sig&gt;</text></g></a><!--class VisitQuery--><g id="elem_VisitQuery"><rect codeLine="31" fill="#F1F1F1" height="48" id="VisitQuery" rx="2.5" ry="2.5" style="stroke:#181818;stroke-width:0.5;" width="113" x="405.5" y="41"/><ellipse cx="420.5" cy="57" fill="#A9DCDF" rx="11" ry="11" style="stroke:#181818;stroke-width:1.0;"/><path d="M420.6094,52.3438 L419.4531,57.4219 L421.7813,57.4219 L420.6094,52.3438 Z M419.125,50.1094 L422.1094,50.1094 L425.4688,62.5 L423.0156,62.5 L422.25,59.4375 L418.9688,59.4375 L418.2188,62.5 L415.7813,62.5 L419.125,50.1094 Z " fill="#000000"/><text fill="#000000" font-family="sans-serif" font-size="14" font-style="italic" lengthAdjust="spacing" textLength="70" x="434.5" y="61.8467">VisitQuery</text><rect fill="#FFFFFF" height="15.9688" style="stroke:#181818;stroke-width:1.0;stroke-dasharray:2.0,2.0;" width="9" x="512.5" y="38"/><text fill="#000000" font-family="sans-serif" font-size="12" font-style="italic" lengthAdjust="spacing" textLength="7" x="513.5" y="50.1387">T</text><line style="stroke:#181818;stroke-width:0.5;" x1="406.5" x2="517.5" y1="73" y2="73"/><line style="stroke:#181818;stroke-width:0.5;" x1="406.5" x2="517.5" y1="81" y2="81"/></g><!--reverse link VisitQuery to ASTVisitor--><g id="link_VisitQuery_ASTVisitor"><path codeLine="34" d="M462,107.02 C462,125.44 462,134.9 462,163.75 " fill="none" id="VisitQuery-backto-ASTVisitor" style="stroke:#181818;stroke-width:1.0;"/><polygon fill="none" points="462,89.02,456,107.02,468,107.02,462,89.02" style="stroke:#181818;stroke-width:1.0;"/></g><text fill="#888888" font-family="sans-serif" font-size="10" lengthAdjust="spacing" textLength="186" x="209" y="455.2822">UMLDoclet 2.1.1, PlantUML 1.2023.12</text><!--SRC=[bPDTQy8m58Rl_HMv6LIc0NTPHDY7Wg1ZuiVDyEAOnXgM9YKvbSdcVrzIPQrMxLOeQNAUyvwSyXv22B4StPk20TI6X66ZuGv92km3OavubD4OaBCDZT48gbS9HGFAIezJa5BlAEgra9ny7LBzmoHOInwdiuMmmkk-lnSRki54BfUE9wNdFkOuXZHeXiGjtVvdQbfa92pcdxtUAPmQeJ3N6wgrzabRBQ9JPkl3WSz-4WhCpa5-SmtojMgGPzTl7QALHL1rIiDPl-uwl4vZKWVC_z3r0imDOYhY6z61u38wZ-yhBl0U6UieSnPnDYXsLtnG8eAfyvoAZpvmb-crycBDgdDo_XKIxhrmIAj00s1eWuiDkQYJLu2PuJdoM_6yiNrrG1A1b5aGajeefc2nr1Aih9iNXiUVaLjsad6pwyvwPRsBEc5OyAJxtMx_Pnx3i1Yvl0JZ2haXQwtzCX-FNZIJRleVQ8TsMkHDEjkwKtAtvSOAhOBc3m00]--></g></svg>