<?xml version="1.0" encoding="us-ascii" standalone="no"?><svg xmlns="http://www.w3.org/2000/svg" xmlns:xlink="http://www.w3.org/1999/xlink" contentStyleType="text/css" height="392px" preserveAspectRatio="none" style="width:270px;height:392px;background:#FFFFFF;" version="1.1" viewBox="0 0 270 392" width="270px" zoomAndPan="magnify"><defs/><g><ellipse cx="139.5" cy="20" fill="#222222" rx="10" ry="10" style="stroke:#222222;stroke-width:1.0;"/><rect fill="#F1F1F1" height="33.9688" rx="12.5" ry="12.5" style="stroke:#181818;stroke-width:0.5;" width="213" x="33" y="50"/><text fill="#000000" font-family="sans-serif" font-size="12" lengthAdjust="spacing" textLength="182" x="43" y="71.1387">Construct BreadthFirstIterator,</text><text fill="#000000" font-family="sans-serif" font-size="12" font-style="italic" lengthAdjust="spacing" textLength="7" x="229" y="71.1387">k</text><rect fill="#F1F1F1" height="33.9688" rx="12.5" ry="12.5" style="stroke:#181818;stroke-width:0.5;" width="108" x="85.5" y="147.9688"/><text fill="#000000" font-family="sans-serif" font-size="12" lengthAdjust="spacing" textLength="88" x="95.5" y="169.1074">Get Next Node</text><rect fill="#F1F1F1" height="33.9688" rx="12.5" ry="12.5" style="stroke:#181818;stroke-width:0.5;" width="185" x="47" y="201.9375"/><text fill="#000000" font-family="sans-serif" font-size="12" lengthAdjust="spacing" textLength="165" x="57" y="223.0762">Print Node Name and Depth</text><rect fill="#F1F1F1" height="33.9688" rx="12.5" ry="12.5" style="stroke:#181818;stroke-width:0.5;" width="178" x="50.5" y="270.9063"/><text fill="#000000" font-family="sans-serif" font-size="12" lengthAdjust="spacing" textLength="158" x="60.5" y="292.0449">Set Node Class to marked</text><rect fill="#F1F1F1" height="33.9688" rx="12.5" ry="12.5" style="stroke:#181818;stroke-width:0.5;" width="55" x="112" y="324.875"/><text fill="#000000" font-family="sans-serif" font-size="12" lengthAdjust="spacing" textLength="35" x="122" y="346.0137">Sleep</text><polygon fill="#F1F1F1" points="106,103.9688,173,103.9688,185,115.9688,173,127.9688,106,127.9688,94,115.9688,106,103.9688" style="stroke:#181818;stroke-width:0.5;"/><text fill="#000000" font-family="sans-serif" font-size="11" font-style="italic" lengthAdjust="spacing" textLength="6" x="106" y="119.7769">k</text><text fill="#000000" font-family="sans-serif" font-size="11" lengthAdjust="spacing" textLength="57" x="116" y="119.7769">has Next?</text><ellipse cx="24" cy="158.9688" fill="none" rx="11" ry="11" style="stroke:#222222;stroke-width:1.0;"/><ellipse cx="24" cy="158.9688" fill="#222222" rx="6" ry="6" style="stroke:#222222;stroke-width:1.0;"/><line style="stroke:#181818;stroke-width:1.0;" x1="139.5" x2="139.5" y1="30" y2="50"/><polygon fill="#181818" points="135.5,40,139.5,50,143.5,40,139.5,44" style="stroke:#181818;stroke-width:1.0;"/><line style="stroke:#181818;stroke-width:1.0;" x1="139.5" x2="139.5" y1="181.9375" y2="201.9375"/><polygon fill="#181818" points="135.5,191.9375,139.5,201.9375,143.5,191.9375,139.5,195.9375" style="stroke:#181818;stroke-width:1.0;"/><line style="stroke:#181818;stroke-width:1.0;" x1="139.5" x2="139.5" y1="235.9063" y2="270.9063"/><polygon fill="#181818" points="135.5,260.9063,139.5,270.9063,143.5,260.9063,139.5,264.9063" style="stroke:#181818;stroke-width:1.0;"/><line style="stroke:#181818;stroke-width:1.0;" x1="139.5" x2="139.5" y1="304.875" y2="324.875"/><polygon fill="#181818" points="135.5,314.875,139.5,324.875,143.5,314.875,139.5,318.875" style="stroke:#181818;stroke-width:1.0;"/><line style="stroke:#181818;stroke-width:1.0;" x1="139.5" x2="139.5" y1="127.9688" y2="147.9688"/><polygon fill="#181818" points="135.5,137.9688,139.5,147.9688,143.5,137.9688,139.5,141.9688" style="stroke:#181818;stroke-width:1.0;"/><line style="stroke:#181818;stroke-width:1.0;" x1="139.5" x2="139.5" y1="358.8438" y2="368.8438"/><line style="stroke:#181818;stroke-width:1.0;" x1="139.5" x2="244" y1="368.8438" y2="368.8438"/><polygon fill="#181818" points="240,251.4063,244,241.4063,248,251.4063,244,247.4063" style="stroke:#181818;stroke-width:1.0;"/><line style="stroke:#181818;stroke-width:1.0;" x1="244" x2="244" y1="115.9688" y2="368.8438"/><line style="stroke:#181818;stroke-width:1.0;" x1="244" x2="185" y1="115.9688" y2="115.9688"/><polygon fill="#181818" points="195,111.9688,185,115.9688,195,119.9688,191,115.9688" style="stroke:#181818;stroke-width:1.0;"/><line style="stroke:#181818;stroke-width:1.0;" x1="94" x2="24" y1="115.9688" y2="115.9688"/><line style="stroke:#181818;stroke-width:1.0;" x1="24" x2="24" y1="115.9688" y2="147.9688"/><polygon fill="#181818" points="20,137.9688,24,147.9688,28,137.9688,24,141.9688" style="stroke:#181818;stroke-width:1.0;"/><line style="stroke:#181818;stroke-width:1.0;" x1="139.5" x2="139.5" y1="83.9688" y2="103.9688"/><polygon fill="#181818" points="135.5,93.9688,139.5,103.9688,143.5,93.9688,139.5,97.9688" style="stroke:#181818;stroke-width:1.0;"/><!--SRC=[BSsn2i9048JX_fvYImNX-gGGZ2WsGV095c_WGfAxi3kYZwz6k_dvYd6gCJHTBKvxt2a7WoRcqs3E2s7AQZk9SOon3SyyJDYi8LbTUhoutuRc3AvR-fhGXkPgG_c5z3f3j2GvOc7-s0r_wIPr5rQPrKQaBqt0qWQKj1u5PrtU]--></g></svg>