<?xml version="1.0" encoding="us-ascii" standalone="no"?><svg xmlns="http://www.w3.org/2000/svg" xmlns:xlink="http://www.w3.org/1999/xlink" contentStyleType="text/css" height="894px" preserveAspectRatio="none" style="width:214px;height:894px;background:#FFFFFF;" version="1.1" viewBox="0 0 214 894" width="214px" zoomAndPan="magnify"><defs/><g><ellipse cx="107" cy="20" fill="#222222" rx="10" ry="10" style="stroke:#222222;stroke-width:1.0;"/><rect fill="#F1F1F1" height="33.9688" rx="12.5" ry="12.5" style="stroke:#181818;stroke-width:0.5;" width="105" x="54.5" y="50"/><text fill="#000000" font-family="sans-serif" font-size="12" lengthAdjust="spacing" textLength="85" x="64.5" y="71.1387">Print loop Title</text><rect fill="#F1F1F1" height="33.9688" rx="12.5" ry="12.5" style="stroke:#181818;stroke-width:0.5;" width="151" x="31.5" y="103.9688"/><text fill="#000000" font-family="sans-serif" font-size="12" lengthAdjust="spacing" textLength="80" x="41.5" y="125.1074">Create Node,</text><text fill="#000000" font-family="sans-serif" font-size="12" font-style="italic" lengthAdjust="spacing" textLength="47" x="125.5" y="125.1074">p0Node</text><rect fill="#F1F1F1" height="33.9688" rx="12.5" ry="12.5" style="stroke:#181818;stroke-width:0.5;" width="108" x="53" y="157.9375"/><text fill="#000000" font-family="sans-serif" font-size="12" lengthAdjust="spacing" textLength="21" x="63" y="179.0762">Get</text><text fill="#000000" font-family="sans-serif" font-size="12" font-style="italic" lengthAdjust="spacing" textLength="47" x="88" y="179.0762">p0Node</text><text fill="#000000" font-family="sans-serif" font-size="12" lengthAdjust="spacing" textLength="12" x="139" y="179.0762">ID</text><rect fill="#F1F1F1" height="33.9688" rx="12.5" ry="12.5" style="stroke:#181818;stroke-width:0.5;" width="151" x="31.5" y="211.9063"/><text fill="#000000" font-family="sans-serif" font-size="12" lengthAdjust="spacing" textLength="80" x="41.5" y="233.0449">Create Node,</text><text fill="#000000" font-family="sans-serif" font-size="12" font-style="italic" lengthAdjust="spacing" textLength="47" x="125.5" y="233.0449">p1Node</text><rect fill="#F1F1F1" height="33.9688" rx="12.5" ry="12.5" style="stroke:#181818;stroke-width:0.5;" width="108" x="53" y="265.875"/><text fill="#000000" font-family="sans-serif" font-size="12" lengthAdjust="spacing" textLength="21" x="63" y="287.0137">Get</text><text fill="#000000" font-family="sans-serif" font-size="12" font-style="italic" lengthAdjust="spacing" textLength="47" x="88" y="287.0137">p1Node</text><text fill="#000000" font-family="sans-serif" font-size="12" lengthAdjust="spacing" textLength="12" x="139" y="287.0137">ID</text><rect fill="#F1F1F1" height="33.9688" rx="12.5" ry="12.5" style="stroke:#181818;stroke-width:0.5;" width="151" x="31.5" y="319.8438"/><text fill="#000000" font-family="sans-serif" font-size="12" lengthAdjust="spacing" textLength="80" x="41.5" y="340.9824">Create Node,</text><text fill="#000000" font-family="sans-serif" font-size="12" font-style="italic" lengthAdjust="spacing" textLength="47" x="125.5" y="340.9824">p2Node</text><rect fill="#F1F1F1" height="33.9688" rx="12.5" ry="12.5" style="stroke:#181818;stroke-width:0.5;" width="108" x="53" y="373.8125"/><text fill="#000000" font-family="sans-serif" font-size="12" lengthAdjust="spacing" textLength="21" x="63" y="394.9512">Get</text><text fill="#000000" font-family="sans-serif" font-size="12" font-style="italic" lengthAdjust="spacing" textLength="47" x="88" y="394.9512">p2Node</text><text fill="#000000" font-family="sans-serif" font-size="12" lengthAdjust="spacing" textLength="12" x="139" y="394.9512">ID</text><rect fill="#F1F1F1" height="33.9688" rx="12.5" ry="12.5" style="stroke:#181818;stroke-width:0.5;" width="151" x="31.5" y="427.7813"/><text fill="#000000" font-family="sans-serif" font-size="12" lengthAdjust="spacing" textLength="80" x="41.5" y="448.9199">Create Node,</text><text fill="#000000" font-family="sans-serif" font-size="12" font-style="italic" lengthAdjust="spacing" textLength="47" x="125.5" y="448.9199">p3Node</text><rect fill="#F1F1F1" height="33.9688" rx="12.5" ry="12.5" style="stroke:#181818;stroke-width:0.5;" width="108" x="53" y="481.75"/><text fill="#000000" font-family="sans-serif" font-size="12" lengthAdjust="spacing" textLength="21" x="63" y="502.8887">Get</text><text fill="#000000" font-family="sans-serif" font-size="12" font-style="italic" lengthAdjust="spacing" textLength="47" x="88" y="502.8887">p3Node</text><text fill="#000000" font-family="sans-serif" font-size="12" lengthAdjust="spacing" textLength="12" x="139" y="502.8887">ID</text><rect fill="#F1F1F1" height="47.9375" rx="12.5" ry="12.5" style="stroke:#181818;stroke-width:0.5;" width="192" x="11" y="535.7188"/><text fill="#000000" font-family="sans-serif" font-size="12" lengthAdjust="spacing" textLength="75" x="21" y="556.8574">Add Edge to</text><text fill="#000000" font-family="sans-serif" font-size="12" font-style="italic" lengthAdjust="spacing" textLength="36" x="100" y="556.8574">graph</text><text fill="#000000" font-family="sans-serif" font-size="12" lengthAdjust="spacing" textLength="53" x="140" y="556.8574">between</text><text fill="#000000" font-family="sans-serif" font-size="12" lengthAdjust="spacing" textLength="104" x="21" y="570.8262">p1 and p2 Nodes</text><rect fill="#F1F1F1" height="47.9375" rx="12.5" ry="12.5" style="stroke:#181818;stroke-width:0.5;" width="192" x="11" y="603.6563"/><text fill="#000000" font-family="sans-serif" font-size="12" lengthAdjust="spacing" textLength="75" x="21" y="624.7949">Add Edge to</text><text fill="#000000" font-family="sans-serif" font-size="12" font-style="italic" lengthAdjust="spacing" textLength="36" x="100" y="624.7949">graph</text><text fill="#000000" font-family="sans-serif" font-size="12" lengthAdjust="spacing" textLength="53" x="140" y="624.7949">between</text><text fill="#000000" font-family="sans-serif" font-size="12" lengthAdjust="spacing" textLength="105" x="21" y="638.7637">p2 and p3 Nodes</text><rect fill="#F1F1F1" height="47.9375" rx="12.5" ry="12.5" style="stroke:#181818;stroke-width:0.5;" width="192" x="11" y="671.5938"/><text fill="#000000" font-family="sans-serif" font-size="12" lengthAdjust="spacing" textLength="75" x="21" y="692.7324">Add Edge to</text><text fill="#000000" font-family="sans-serif" font-size="12" font-style="italic" lengthAdjust="spacing" textLength="36" x="100" y="692.7324">graph</text><text fill="#000000" font-family="sans-serif" font-size="12" lengthAdjust="spacing" textLength="53" x="140" y="692.7324">between</text><text fill="#000000" font-family="sans-serif" font-size="12" lengthAdjust="spacing" textLength="105" x="21" y="706.7012">p2 and p2 Nodes</text><rect fill="#F1F1F1" height="47.9375" rx="12.5" ry="12.5" style="stroke:#181818;stroke-width:0.5;" width="178" x="18" y="739.5313"/><text fill="#000000" font-family="sans-serif" font-size="12" lengthAdjust="spacing" textLength="158" x="28" y="760.6699">Set oneof Attribute to true</text><text fill="#000000" font-family="sans-serif" font-size="12" lengthAdjust="spacing" textLength="80" x="28" y="774.6387">For All Edges</text><rect fill="#F1F1F1" height="33.9688" rx="12.5" ry="12.5" style="stroke:#181818;stroke-width:0.5;" width="109" x="52.5" y="807.4688"/><text fill="#000000" font-family="sans-serif" font-size="12" lengthAdjust="spacing" textLength="89" x="62.5" y="828.6074">Return p1Node</text><ellipse cx="107" cy="872.4375" fill="none" rx="11" ry="11" style="stroke:#222222;stroke-width:1.0;"/><ellipse cx="107" cy="872.4375" fill="#222222" rx="6" ry="6" style="stroke:#222222;stroke-width:1.0;"/><line style="stroke:#181818;stroke-width:1.0;" x1="107" x2="107" y1="30" y2="50"/><polygon fill="#181818" points="103,40,107,50,111,40,107,44" style="stroke:#181818;stroke-width:1.0;"/><line style="stroke:#181818;stroke-width:1.0;" x1="107" x2="107" y1="83.9688" y2="103.9688"/><polygon fill="#181818" points="103,93.9688,107,103.9688,111,93.9688,107,97.9688" style="stroke:#181818;stroke-width:1.0;"/><line style="stroke:#181818;stroke-width:1.0;" x1="107" x2="107" y1="137.9375" y2="157.9375"/><polygon fill="#181818" points="103,147.9375,107,157.9375,111,147.9375,107,151.9375" style="stroke:#181818;stroke-width:1.0;"/><line style="stroke:#181818;stroke-width:1.0;" x1="107" x2="107" y1="191.9063" y2="211.9063"/><polygon fill="#181818" points="103,201.9063,107,211.9063,111,201.9063,107,205.9063" style="stroke:#181818;stroke-width:1.0;"/><line style="stroke:#181818;stroke-width:1.0;" x1="107" x2="107" y1="245.875" y2="265.875"/><polygon fill="#181818" points="103,255.875,107,265.875,111,255.875,107,259.875" style="stroke:#181818;stroke-width:1.0;"/><line style="stroke:#181818;stroke-width:1.0;" x1="107" x2="107" y1="299.8438" y2="319.8438"/><polygon fill="#181818" points="103,309.8438,107,319.8438,111,309.8438,107,313.8438" style="stroke:#181818;stroke-width:1.0;"/><line style="stroke:#181818;stroke-width:1.0;" x1="107" x2="107" y1="353.8125" y2="373.8125"/><polygon fill="#181818" points="103,363.8125,107,373.8125,111,363.8125,107,367.8125" style="stroke:#181818;stroke-width:1.0;"/><line style="stroke:#181818;stroke-width:1.0;" x1="107" x2="107" y1="407.7813" y2="427.7813"/><polygon fill="#181818" points="103,417.7813,107,427.7813,111,417.7813,107,421.7813" style="stroke:#181818;stroke-width:1.0;"/><line style="stroke:#181818;stroke-width:1.0;" x1="107" x2="107" y1="461.75" y2="481.75"/><polygon fill="#181818" points="103,471.75,107,481.75,111,471.75,107,475.75" style="stroke:#181818;stroke-width:1.0;"/><line style="stroke:#181818;stroke-width:1.0;" x1="107" x2="107" y1="515.7188" y2="535.7188"/><polygon fill="#181818" points="103,525.7188,107,535.7188,111,525.7188,107,529.7188" style="stroke:#181818;stroke-width:1.0;"/><line style="stroke:#181818;stroke-width:1.0;" x1="107" x2="107" y1="583.6563" y2="603.6563"/><polygon fill="#181818" points="103,593.6563,107,603.6563,111,593.6563,107,597.6563" style="stroke:#181818;stroke-width:1.0;"/><line style="stroke:#181818;stroke-width:1.0;" x1="107" x2="107" y1="651.5938" y2="671.5938"/><polygon fill="#181818" points="103,661.5938,107,671.5938,111,661.5938,107,665.5938" style="stroke:#181818;stroke-width:1.0;"/><line style="stroke:#181818;stroke-width:1.0;" x1="107" x2="107" y1="719.5313" y2="739.5313"/><polygon fill="#181818" points="103,729.5313,107,739.5313,111,729.5313,107,733.5313" style="stroke:#181818;stroke-width:1.0;"/><line style="stroke:#181818;stroke-width:1.0;" x1="107" x2="107" y1="787.4688" y2="807.4688"/><polygon fill="#181818" points="103,797.4688,107,807.4688,111,797.4688,107,801.4688" style="stroke:#181818;stroke-width:1.0;"/><line style="stroke:#181818;stroke-width:1.0;" x1="107" x2="107" y1="841.4375" y2="861.4375"/><polygon fill="#181818" points="103,851.4375,107,861.4375,111,851.4375,107,855.4375" style="stroke:#181818;stroke-width:1.0;"/><!--SRC=[bT1D2i8m40NWVKun1n1YqrsxAlxXHaIzG4f6BOHCc4xn-gRjmbAaucx8-_8OfXNBeeepDq704qMuDUAnLCM6qGh2YHokGEkuxYUjKt90cJp0SVj5PtETBMaprsP9vtETJtNb7EpS0q4ePG-syPcY6kM565JCm0O7qGnrxMzlHf__wJ_zrxGZ1QGxL2BSr9qCNuKxL7jYgBmV-dfxGUaum7YiKhL2yGq0]--></g></svg>