<?xml version="1.0" encoding="us-ascii" standalone="no"?><svg xmlns="http://www.w3.org/2000/svg" xmlns:xlink="http://www.w3.org/1999/xlink" contentStyleType="text/css" height="369px" preserveAspectRatio="none" style="width:322px;height:369px;background:#FFFFFF;" version="1.1" viewBox="0 0 322 369" width="322px" zoomAndPan="magnify"><defs/><g><ellipse cx="161" cy="20" fill="#222222" rx="10" ry="10" style="stroke:#222222;stroke-width:1.0;"/><rect fill="#F1F1F1" height="33.9688" rx="12.5" ry="12.5" style="stroke:#181818;stroke-width:0.5;" width="142" x="90" y="142.4023"/><text fill="#000000" font-family="sans-serif" font-size="12" lengthAdjust="spacing" textLength="122" x="100" y="163.541">Return Current Node</text><ellipse cx="161" cy="207.3711" fill="none" rx="11" ry="11" style="stroke:#222222;stroke-width:1.0;"/><ellipse cx="161" cy="207.3711" fill="#222222" rx="6" ry="6" style="stroke:#222222;stroke-width:1.0;"/><polygon fill="#F1F1F1" points="48,94,274,94,286,106,274,118,48,118,36,106,48,94" style="stroke:#181818;stroke-width:0.5;"/><text fill="#000000" font-family="sans-serif" font-size="11" lengthAdjust="spacing" textLength="21" x="165" y="128.2104">yes</text><text fill="#000000" font-family="sans-serif" font-size="11" lengthAdjust="spacing" textLength="155" x="48" y="109.8081">Current Node Name Equals</text><text fill="#000000" font-family="sans-serif" font-size="11" font-style="italic" lengthAdjust="spacing" textLength="67" x="207" y="109.8081">_nodeName</text><polygon fill="#F1F1F1" points="94.5,50,227.5,50,239.5,62,227.5,74,94.5,74,82.5,62,94.5,50" style="stroke:#181818;stroke-width:0.5;"/><text fill="#000000" font-family="sans-serif" font-size="11" lengthAdjust="spacing" textLength="96" x="94.5" y="65.8081">For Each Node in</text><text fill="#000000" font-family="sans-serif" font-size="11" font-style="italic" lengthAdjust="spacing" textLength="33" x="194.5" y="65.8081">graph</text><rect fill="#F1F1F1" height="33.9688" rx="12.5" ry="12.5" style="stroke:#181818;stroke-width:0.5;" width="82" x="120" y="282.3711"/><text fill="#000000" font-family="sans-serif" font-size="12" lengthAdjust="spacing" textLength="62" x="130" y="303.5098">Return null</text><ellipse cx="161" cy="347.3398" fill="none" rx="11" ry="11" style="stroke:#222222;stroke-width:1.0;"/><ellipse cx="161" cy="347.3398" fill="#222222" rx="6" ry="6" style="stroke:#222222;stroke-width:1.0;"/><line style="stroke:#181818;stroke-width:1.0;" x1="161" x2="161" y1="176.3711" y2="196.3711"/><polygon fill="#181818" points="157,186.3711,161,196.3711,165,186.3711,161,190.3711" style="stroke:#181818;stroke-width:1.0;"/><line style="stroke:#181818;stroke-width:1.0;" x1="161" x2="161" y1="118" y2="142.4023"/><polygon fill="#181818" points="157,132.4023,161,142.4023,165,132.4023,161,136.4023" style="stroke:#181818;stroke-width:1.0;"/><line style="stroke:#181818;stroke-width:1.0;" x1="286" x2="310" y1="106" y2="106"/><line style="stroke:#181818;stroke-width:1.0;" x1="310" x2="310" y1="62" y2="106"/><line style="stroke:#181818;stroke-width:1.0;" x1="310" x2="239.5" y1="62" y2="62"/><polygon fill="#181818" points="249.5,58,239.5,62,249.5,66,245.5,62" style="stroke:#181818;stroke-width:1.0;"/><line style="stroke:#181818;stroke-width:1.0;" x1="161" x2="161" y1="74" y2="94"/><polygon fill="#181818" points="157,84,161,94,165,84,161,88" style="stroke:#181818;stroke-width:1.0;"/><line style="stroke:#181818;stroke-width:1.0;" x1="82.5" x2="24" y1="62" y2="62"/><polygon fill="#181818" points="20,162.8867,24,172.8867,28,162.8867,24,166.8867" style="stroke:#181818;stroke-width:1.0;"/><line style="stroke:#181818;stroke-width:1.0;" x1="24" x2="24" y1="62" y2="262.3711"/><line style="stroke:#181818;stroke-width:1.0;" x1="24" x2="161" y1="262.3711" y2="262.3711"/><line style="stroke:#181818;stroke-width:1.0;" x1="161" x2="161" y1="262.3711" y2="282.3711"/><polygon fill="#181818" points="157,272.3711,161,282.3711,165,272.3711,161,276.3711" style="stroke:#181818;stroke-width:1.0;"/><line style="stroke:#181818;stroke-width:1.0;" x1="161" x2="161" y1="30" y2="50"/><polygon fill="#181818" points="157,40,161,50,165,40,161,44" style="stroke:#181818;stroke-width:1.0;"/><line style="stroke:#181818;stroke-width:1.0;" x1="161" x2="161" y1="316.3398" y2="336.3398"/><polygon fill="#181818" points="157,326.3398,161,336.3398,165,326.3398,161,330.3398" style="stroke:#181818;stroke-width:1.0;"/><!--SRC=[JOsn3i8m34HtVuN7TCeE8ofZX_u0igXB8WMdTHnL_NjIAY6M6zwzqnKZDTX2JEpkMR6dPy0XJunHqFkNqXAyxo3ExbPLMUni1tepzckbL9hsaCOEr5Iqm89kvzB1PMIhAlW_lKAnl03B5ESZlzy_KsfAf_41]--></g></svg>