<?xml version="1.0" encoding="us-ascii" standalone="no"?><svg xmlns="http://www.w3.org/2000/svg" xmlns:xlink="http://www.w3.org/1999/xlink" contentStyleType="text/css" height="352px" preserveAspectRatio="none" style="width:238px;height:352px;background:#FFFFFF;" version="1.1" viewBox="0 0 238 352" width="238px" zoomAndPan="magnify"><defs/><g><ellipse cx="106.5" cy="20" fill="#222222" rx="10" ry="10" style="stroke:#222222;stroke-width:1.0;"/><rect fill="#F1F1F1" height="33.9688" rx="12.5" ry="12.5" style="stroke:#181818;stroke-width:0.5;" width="100" x="56.5" y="98.4023"/><text fill="#000000" font-family="sans-serif" font-size="12" lengthAdjust="spacing" textLength="80" x="66.5" y="119.541">Create Graph</text><rect fill="#F1F1F1" height="33.9688" rx="12.5" ry="12.5" style="stroke:#181818;stroke-width:0.5;" width="191" x="11" y="167.3711"/><text fill="#000000" font-family="sans-serif" font-size="12" lengthAdjust="spacing" textLength="20" x="21" y="188.5098">Set</text><text fill="#000000" font-family="sans-serif" font-size="12" font-style="italic" lengthAdjust="spacing" textLength="36" x="45" y="188.5098">graph</text><text fill="#000000" font-family="sans-serif" font-size="12" lengthAdjust="spacing" textLength="107" x="85" y="188.5098">Attribute to Graph</text><polygon fill="#F1F1F1" points="67,50,146,50,158,62,146,74,67,74,55,62,67,50" style="stroke:#181818;stroke-width:0.5;"/><text fill="#000000" font-family="sans-serif" font-size="11" lengthAdjust="spacing" textLength="21" x="110.5" y="84.2104">yes</text><text fill="#000000" font-family="sans-serif" font-size="11" font-style="italic" lengthAdjust="spacing" textLength="33" x="67" y="65.8081">graph</text><text fill="#000000" font-family="sans-serif" font-size="11" lengthAdjust="spacing" textLength="42" x="104" y="65.8081">== null</text><polygon fill="#F1F1F1" points="106.5,221.3398,118.5,233.3398,106.5,245.3398,94.5,233.3398,106.5,221.3398" style="stroke:#181818;stroke-width:0.5;"/><rect fill="#F1F1F1" height="33.9688" rx="12.5" ry="12.5" style="stroke:#181818;stroke-width:0.5;" width="98" x="57.5" y="265.3398"/><text fill="#000000" font-family="sans-serif" font-size="12" lengthAdjust="spacing" textLength="38" x="67.5" y="286.4785">Return</text><text fill="#000000" font-family="sans-serif" font-size="12" font-style="italic" lengthAdjust="spacing" textLength="36" x="109.5" y="286.4785">graph</text><ellipse cx="106.5" cy="330.3086" fill="none" rx="11" ry="11" style="stroke:#222222;stroke-width:1.0;"/><ellipse cx="106.5" cy="330.3086" fill="#222222" rx="6" ry="6" style="stroke:#222222;stroke-width:1.0;"/><line style="stroke:#181818;stroke-width:1.0;" x1="106.5" x2="106.5" y1="132.3711" y2="167.3711"/><polygon fill="#181818" points="102.5,157.3711,106.5,167.3711,110.5,157.3711,106.5,161.3711" style="stroke:#181818;stroke-width:1.0;"/><line style="stroke:#181818;stroke-width:1.0;" x1="106.5" x2="106.5" y1="74" y2="98.4023"/><polygon fill="#181818" points="102.5,88.4023,106.5,98.4023,110.5,88.4023,106.5,92.4023" style="stroke:#181818;stroke-width:1.0;"/><line style="stroke:#181818;stroke-width:1.0;" x1="158" x2="212" y1="62" y2="62"/><polygon fill="#181818" points="208,139.8711,212,149.8711,216,139.8711,212,143.8711" style="stroke:#181818;stroke-width:1.0;"/><line style="stroke:#181818;stroke-width:1.0;" x1="212" x2="212" y1="62" y2="233.3398"/><line style="stroke:#181818;stroke-width:1.0;" x1="212" x2="118.5" y1="233.3398" y2="233.3398"/><polygon fill="#181818" points="128.5,229.3398,118.5,233.3398,128.5,237.3398,124.5,233.3398" style="stroke:#181818;stroke-width:1.0;"/><line style="stroke:#181818;stroke-width:1.0;" x1="106.5" x2="106.5" y1="201.3398" y2="221.3398"/><polygon fill="#181818" points="102.5,211.3398,106.5,221.3398,110.5,211.3398,106.5,215.3398" style="stroke:#181818;stroke-width:1.0;"/><line style="stroke:#181818;stroke-width:1.0;" x1="106.5" x2="106.5" y1="30" y2="50"/><polygon fill="#181818" points="102.5,40,106.5,50,110.5,40,106.5,44" style="stroke:#181818;stroke-width:1.0;"/><line style="stroke:#181818;stroke-width:1.0;" x1="106.5" x2="106.5" y1="245.3398" y2="265.3398"/><polygon fill="#181818" points="102.5,255.3398,106.5,265.3398,110.5,255.3398,106.5,259.3398" style="stroke:#181818;stroke-width:1.0;"/><line style="stroke:#181818;stroke-width:1.0;" x1="106.5" x2="106.5" y1="299.3086" y2="319.3086"/><polygon fill="#181818" points="102.5,309.3086,106.5,319.3086,110.5,309.3086,106.5,313.3086" style="stroke:#181818;stroke-width:1.0;"/><!--SRC=[HSin3e0W40NHVa-nfLRq60fZOQydmBWA2K6pV0flhnR6UjuKU0N5hJ5cLty6OzWvpZMbbX4aStD9QSaEAXx2usiwihE0_wC7D2xrwJW-8dcD6zb9K3N_jgE2uxm1]--></g></svg>