<?xml version="1.0" encoding="us-ascii" standalone="no"?><svg xmlns="http://www.w3.org/2000/svg" xmlns:xlink="http://www.w3.org/1999/xlink" contentStyleType="text/css" height="704px" preserveAspectRatio="none" style="width:242px;height:704px;background:#FFFFFF;" version="1.1" viewBox="0 0 242 704" width="242px" zoomAndPan="magnify"><defs/><g><ellipse cx="121" cy="20" fill="#222222" rx="10" ry="10" style="stroke:#222222;stroke-width:1.0;"/><rect fill="#F1F1F1" height="33.9688" rx="12.5" ry="12.5" style="stroke:#181818;stroke-width:0.5;" width="129" x="56.5" y="50"/><text fill="#000000" font-family="sans-serif" font-size="12" lengthAdjust="spacing" textLength="109" x="66.5" y="71.1387">Print decision Title</text><rect fill="#F1F1F1" height="33.9688" rx="12.5" ry="12.5" style="stroke:#181818;stroke-width:0.5;" width="151" x="45.5" y="103.9688"/><text fill="#000000" font-family="sans-serif" font-size="12" lengthAdjust="spacing" textLength="80" x="55.5" y="125.1074">Create Node,</text><text fill="#000000" font-family="sans-serif" font-size="12" font-style="italic" lengthAdjust="spacing" textLength="47" x="139.5" y="125.1074">p0Node</text><rect fill="#F1F1F1" height="33.9688" rx="12.5" ry="12.5" style="stroke:#181818;stroke-width:0.5;" width="108" x="67" y="157.9375"/><text fill="#000000" font-family="sans-serif" font-size="12" lengthAdjust="spacing" textLength="21" x="77" y="179.0762">Get</text><text fill="#000000" font-family="sans-serif" font-size="12" font-style="italic" lengthAdjust="spacing" textLength="47" x="102" y="179.0762">p0Node</text><text fill="#000000" font-family="sans-serif" font-size="12" lengthAdjust="spacing" textLength="12" x="153" y="179.0762">ID</text><rect fill="#F1F1F1" height="33.9688" rx="12.5" ry="12.5" style="stroke:#181818;stroke-width:0.5;" width="151" x="45.5" y="211.9063"/><text fill="#000000" font-family="sans-serif" font-size="12" lengthAdjust="spacing" textLength="80" x="55.5" y="233.0449">Create Node,</text><text fill="#000000" font-family="sans-serif" font-size="12" font-style="italic" lengthAdjust="spacing" textLength="47" x="139.5" y="233.0449">p1Node</text><rect fill="#F1F1F1" height="33.9688" rx="12.5" ry="12.5" style="stroke:#181818;stroke-width:0.5;" width="108" x="67" y="265.875"/><text fill="#000000" font-family="sans-serif" font-size="12" lengthAdjust="spacing" textLength="21" x="77" y="287.0137">Get</text><text fill="#000000" font-family="sans-serif" font-size="12" font-style="italic" lengthAdjust="spacing" textLength="47" x="102" y="287.0137">p1Node</text><text fill="#000000" font-family="sans-serif" font-size="12" lengthAdjust="spacing" textLength="12" x="153" y="287.0137">ID</text><rect fill="#F1F1F1" height="33.9688" rx="12.5" ry="12.5" style="stroke:#181818;stroke-width:0.5;" width="151" x="45.5" y="319.8438"/><text fill="#000000" font-family="sans-serif" font-size="12" lengthAdjust="spacing" textLength="80" x="55.5" y="340.9824">Create Node,</text><text fill="#000000" font-family="sans-serif" font-size="12" font-style="italic" lengthAdjust="spacing" textLength="47" x="139.5" y="340.9824">p2Node</text><rect fill="#F1F1F1" height="33.9688" rx="12.5" ry="12.5" style="stroke:#181818;stroke-width:0.5;" width="108" x="67" y="373.8125"/><text fill="#000000" font-family="sans-serif" font-size="12" lengthAdjust="spacing" textLength="21" x="77" y="394.9512">Get</text><text fill="#000000" font-family="sans-serif" font-size="12" font-style="italic" lengthAdjust="spacing" textLength="47" x="102" y="394.9512">p2Node</text><text fill="#000000" font-family="sans-serif" font-size="12" lengthAdjust="spacing" textLength="12" x="153" y="394.9512">ID</text><rect fill="#F1F1F1" height="47.9375" rx="12.5" ry="12.5" style="stroke:#181818;stroke-width:0.5;" width="192" x="25" y="427.7813"/><text fill="#000000" font-family="sans-serif" font-size="12" lengthAdjust="spacing" textLength="75" x="35" y="448.9199">Add Edge to</text><text fill="#000000" font-family="sans-serif" font-size="12" font-style="italic" lengthAdjust="spacing" textLength="36" x="114" y="448.9199">graph</text><text fill="#000000" font-family="sans-serif" font-size="12" lengthAdjust="spacing" textLength="53" x="154" y="448.9199">between</text><text fill="#000000" font-family="sans-serif" font-size="12" lengthAdjust="spacing" textLength="104" x="35" y="462.8887">p0 and p1 Nodes</text><rect fill="#F1F1F1" height="47.9375" rx="12.5" ry="12.5" style="stroke:#181818;stroke-width:0.5;" width="192" x="25" y="495.7188"/><text fill="#000000" font-family="sans-serif" font-size="12" lengthAdjust="spacing" textLength="75" x="35" y="516.8574">Add Edge to</text><text fill="#000000" font-family="sans-serif" font-size="12" font-style="italic" lengthAdjust="spacing" textLength="36" x="114" y="516.8574">graph</text><text fill="#000000" font-family="sans-serif" font-size="12" lengthAdjust="spacing" textLength="53" x="154" y="516.8574">between</text><text fill="#000000" font-family="sans-serif" font-size="12" lengthAdjust="spacing" textLength="105" x="35" y="530.8262">p0 and p2 Nodes</text><rect fill="#F1F1F1" height="33.9688" rx="12.5" ry="12.5" style="stroke:#181818;stroke-width:0.5;" width="220" x="11" y="563.6563"/><text fill="#000000" font-family="sans-serif" font-size="12" lengthAdjust="spacing" textLength="200" x="21" y="584.7949">Set Edge Attributes oneof to true</text><rect fill="#F1F1F1" height="33.9688" rx="12.5" ry="12.5" style="stroke:#181818;stroke-width:0.5;" width="110" x="66" y="617.625"/><text fill="#000000" font-family="sans-serif" font-size="12" lengthAdjust="spacing" textLength="90" x="76" y="638.7637">Return p0Node</text><ellipse cx="121" cy="682.5938" fill="none" rx="11" ry="11" style="stroke:#222222;stroke-width:1.0;"/><ellipse cx="121" cy="682.5938" fill="#222222" rx="6" ry="6" style="stroke:#222222;stroke-width:1.0;"/><line style="stroke:#181818;stroke-width:1.0;" x1="121" x2="121" y1="30" y2="50"/><polygon fill="#181818" points="117,40,121,50,125,40,121,44" style="stroke:#181818;stroke-width:1.0;"/><line style="stroke:#181818;stroke-width:1.0;" x1="121" x2="121" y1="83.9688" y2="103.9688"/><polygon fill="#181818" points="117,93.9688,121,103.9688,125,93.9688,121,97.9688" style="stroke:#181818;stroke-width:1.0;"/><line style="stroke:#181818;stroke-width:1.0;" x1="121" x2="121" y1="137.9375" y2="157.9375"/><polygon fill="#181818" points="117,147.9375,121,157.9375,125,147.9375,121,151.9375" style="stroke:#181818;stroke-width:1.0;"/><line style="stroke:#181818;stroke-width:1.0;" x1="121" x2="121" y1="191.9063" y2="211.9063"/><polygon fill="#181818" points="117,201.9063,121,211.9063,125,201.9063,121,205.9063" style="stroke:#181818;stroke-width:1.0;"/><line style="stroke:#181818;stroke-width:1.0;" x1="121" x2="121" y1="245.875" y2="265.875"/><polygon fill="#181818" points="117,255.875,121,265.875,125,255.875,121,259.875" style="stroke:#181818;stroke-width:1.0;"/><line style="stroke:#181818;stroke-width:1.0;" x1="121" x2="121" y1="299.8438" y2="319.8438"/><polygon fill="#181818" points="117,309.8438,121,319.8438,125,309.8438,121,313.8438" style="stroke:#181818;stroke-width:1.0;"/><line style="stroke:#181818;stroke-width:1.0;" x1="121" x2="121" y1="353.8125" y2="373.8125"/><polygon fill="#181818" points="117,363.8125,121,373.8125,125,363.8125,121,367.8125" style="stroke:#181818;stroke-width:1.0;"/><line style="stroke:#181818;stroke-width:1.0;" x1="121" x2="121" y1="407.7813" y2="427.7813"/><polygon fill="#181818" points="117,417.7813,121,427.7813,125,417.7813,121,421.7813" style="stroke:#181818;stroke-width:1.0;"/><line style="stroke:#181818;stroke-width:1.0;" x1="121" x2="121" y1="475.7188" y2="495.7188"/><polygon fill="#181818" points="117,485.7188,121,495.7188,125,485.7188,121,489.7188" style="stroke:#181818;stroke-width:1.0;"/><line style="stroke:#181818;stroke-width:1.0;" x1="121" x2="121" y1="543.6563" y2="563.6563"/><polygon fill="#181818" points="117,553.6563,121,563.6563,125,553.6563,121,557.6563" style="stroke:#181818;stroke-width:1.0;"/><line style="stroke:#181818;stroke-width:1.0;" x1="121" x2="121" y1="597.625" y2="617.625"/><polygon fill="#181818" points="117,607.625,121,617.625,125,607.625,121,611.625" style="stroke:#181818;stroke-width:1.0;"/><line style="stroke:#181818;stroke-width:1.0;" x1="121" x2="121" y1="651.5938" y2="671.5938"/><polygon fill="#181818" points="117,661.5938,121,671.5938,125,661.5938,121,665.5938" style="stroke:#181818;stroke-width:1.0;"/><!--SRC=[ZT312i8m30RWUvyY3o1qst4x3HNn8gA-G6VZB4XRqd_u-dOJP0mHRo7_HqAIO0IgFehp8CjNbrpmT75uSAFgjR01qo5ONf7MiHWhhNEoOymQjDzyqULIbxzqjTJLNBVMqjRsJ0WvwyN4UuuwnfFPgrYGyPPYEOrBV_lguyzvv-HRG5mtW1C5p-4s3e0CupTEZ44ylOzkL4A8Bm00]--></g></svg>