<?xml version="1.0" encoding="us-ascii" standalone="no"?><svg xmlns="http://www.w3.org/2000/svg" xmlns:xlink="http://www.w3.org/1999/xlink" contentStyleType="text/css" height="1093px" preserveAspectRatio="none" style="width:1194px;height:1093px;background:#FFFFFF;" version="1.1" viewBox="0 0 1194 1093" width="1194px" zoomAndPan="magnify"><defs/><g><ellipse cx="603.25" cy="20" fill="#222222" rx="10" ry="10" style="stroke:#222222;stroke-width:1.0;"/><rect fill="#F1F1F1" height="33.9688" rx="12.5" ry="12.5" style="stroke:#181818;stroke-width:0.5;" width="124" x="541.25" y="98.4023"/><text fill="#000000" font-family="sans-serif" font-size="12" lengthAdjust="spacing" textLength="104" x="551.25" y="119.541">Get Source Node</text><rect fill="#F1F1F1" height="33.9688" rx="12.5" ry="12.5" style="stroke:#181818;stroke-width:0.5;" width="89" x="558.75" y="152.3711"/><text fill="#000000" font-family="sans-serif" font-size="12" lengthAdjust="spacing" textLength="25" x="568.75" y="173.5098">Print</text><text fill="#000000" font-family="sans-serif" font-size="12" font-style="italic" lengthAdjust="spacing" textLength="40" x="597.75" y="173.5098">source</text><rect fill="#F1F1F1" height="33.9688" rx="12.5" ry="12.5" style="stroke:#181818;stroke-width:0.5;" width="223" x="491.75" y="206.3398"/><text fill="#000000" font-family="sans-serif" font-size="12" lengthAdjust="spacing" textLength="24" x="501.75" y="227.4785">Add</text><text fill="#000000" font-family="sans-serif" font-size="12" font-style="italic" lengthAdjust="spacing" textLength="71" x="529.75" y="227.4785">sourceNode</text><text fill="#000000" font-family="sans-serif" font-size="12" lengthAdjust="spacing" textLength="100" x="604.75" y="227.4785">to Visited Nodes</text><rect fill="#F1F1F1" height="33.9688" rx="12.5" ry="12.5" style="stroke:#181818;stroke-width:0.5;" width="225" x="490.75" y="260.3086"/><text fill="#000000" font-family="sans-serif" font-size="12" lengthAdjust="spacing" textLength="129" x="500.75" y="281.4473">Create Optional Edge</text><text fill="#000000" font-family="sans-serif" font-size="12" font-style="italic" lengthAdjust="spacing" textLength="72" x="633.75" y="281.4473">oneOfEdges</text><polygon fill="#F1F1F1" points="536.75,314.2773,669.75,314.2773,681.75,326.2773,669.75,338.2773,536.75,338.2773,524.75,326.2773,536.75,314.2773" style="stroke:#181818;stroke-width:0.5;"/><text fill="#000000" font-family="sans-serif" font-size="11" font-style="italic" lengthAdjust="spacing" textLength="61" x="536.75" y="330.0854">onOfEdges</text><text fill="#000000" font-family="sans-serif" font-size="11" lengthAdjust="spacing" textLength="68" x="601.75" y="330.0854">has a Value</text><text fill="#000000" font-family="sans-serif" font-size="11" lengthAdjust="spacing" textLength="21" x="503.75" y="323.6831">yes</text><text fill="#000000" font-family="sans-serif" font-size="11" lengthAdjust="spacing" textLength="14" x="681.75" y="323.6831">no</text><polygon fill="#F1F1F1" points="221.5,348.2773,405.5,348.2773,417.5,360.2773,405.5,372.2773,221.5,372.2773,209.5,360.2773,221.5,348.2773" style="stroke:#181818;stroke-width:0.5;"/><text fill="#000000" font-family="sans-serif" font-size="11" font-style="italic" lengthAdjust="spacing" textLength="67" x="221.5" y="364.0854">sourceNode</text><text fill="#000000" font-family="sans-serif" font-size="11" lengthAdjust="spacing" textLength="113" x="292.5" y="364.0854">has 1 Leaving Edge</text><text fill="#000000" font-family="sans-serif" font-size="11" lengthAdjust="spacing" textLength="21" x="188.5" y="357.6831">yes</text><text fill="#000000" font-family="sans-serif" font-size="11" lengthAdjust="spacing" textLength="14" x="417.5" y="357.6831">no</text><rect fill="#F1F1F1" height="33.9688" rx="12.5" ry="12.5" style="stroke:#181818;stroke-width:0.5;" width="111" x="108.5" y="382.2773"/><text fill="#000000" font-family="sans-serif" font-size="12" lengthAdjust="spacing" textLength="91" x="118.5" y="403.416">Create OListOR</text><rect fill="#F1F1F1" height="47.9375" rx="12.5" ry="12.5" style="stroke:#181818;stroke-width:0.5;" width="146" x="91" y="451.2461"/><text fill="#000000" font-family="sans-serif" font-size="12" lengthAdjust="spacing" textLength="100" x="101" y="472.3848">Get Target Node</text><text fill="#000000" font-family="sans-serif" font-size="12" lengthAdjust="spacing" textLength="126" x="101" y="486.3535">(API to GraphStream)</text><rect fill="#F1F1F1" height="33.9688" rx="12.5" ry="12.5" style="stroke:#181818;stroke-width:0.5;" width="192" x="68" y="582.1836"/><text fill="#000000" font-family="sans-serif" font-size="12" lengthAdjust="spacing" textLength="172" x="78" y="603.3223">Get the Edge's Source Node</text><rect fill="#F1F1F1" height="33.9688" rx="12.5" ry="12.5" style="stroke:#181818;stroke-width:0.5;" width="234" x="47" y="699.1523"/><text fill="#000000" font-family="sans-serif" font-size="12" lengthAdjust="spacing" textLength="171" x="57" y="720.291">Add Current Source Node to</text><text fill="#000000" font-family="sans-serif" font-size="12" font-style="italic" lengthAdjust="spacing" textLength="39" x="232" y="720.291">visited</text><rect fill="#F1F1F1" height="33.9688" rx="12.5" ry="12.5" style="stroke:#181818;stroke-width:0.5;" width="252" x="38" y="768.1211"/><text fill="#000000" font-family="sans-serif" font-size="12" lengthAdjust="spacing" textLength="171" x="48" y="789.2598">Add Current Source Node to</text><text fill="#000000" font-family="sans-serif" font-size="12" font-style="italic" lengthAdjust="spacing" textLength="57" x="223" y="789.2598">sourceOR</text><polygon fill="#F1F1F1" points="57.5,651.1523,270.5,651.1523,282.5,663.1523,270.5,675.1523,57.5,675.1523,45.5,663.1523,57.5,651.1523" style="stroke:#181818;stroke-width:0.5;"/><text fill="#000000" font-family="sans-serif" font-size="11" lengthAdjust="spacing" textLength="213" x="57.5" y="666.9604">Current Source Node =! Target Node</text><polygon fill="#F1F1F1" points="164,822.0898,176,834.0898,164,846.0898,152,834.0898,164,822.0898" style="stroke:#181818;stroke-width:0.5;"/><polygon fill="#F1F1F1" points="67.5,534.1836,260.5,534.1836,272.5,546.1836,260.5,558.1836,67.5,558.1836,55.5,546.1836,67.5,534.1836" style="stroke:#181818;stroke-width:0.5;"/><text fill="#000000" font-family="sans-serif" font-size="11" lengthAdjust="spacing" textLength="193" x="67.5" y="549.9917">For Each Edge in the Target Node</text><rect fill="#F1F1F1" height="47.9375" rx="12.5" ry="12.5" style="stroke:#181818;stroke-width:0.5;" width="210" x="59" y="888.0898"/><text fill="#000000" font-family="sans-serif" font-size="12" lengthAdjust="spacing" textLength="17" x="69" y="909.2285">Put</text><text fill="#000000" font-family="sans-serif" font-size="12" font-style="italic" lengthAdjust="spacing" textLength="57" x="90" y="909.2285">sourceOR</text><text fill="#000000" font-family="sans-serif" font-size="12" lengthAdjust="spacing" textLength="22" x="151" y="909.2285">and</text><text fill="#000000" font-family="sans-serif" font-size="12" font-style="italic" lengthAdjust="spacing" textLength="68" x="177" y="909.2285">targetNode</text><text fill="#000000" font-family="sans-serif" font-size="12" lengthAdjust="spacing" textLength="10" x="249" y="909.2285">in</text><text fill="#000000" font-family="sans-serif" font-size="12" lengthAdjust="spacing" textLength="72" x="69" y="923.1973">IObject Map</text><text fill="#000000" font-family="sans-serif" font-size="12" font-style="italic" lengthAdjust="spacing" textLength="16" x="145" y="923.1973">hb</text><rect fill="#F1F1F1" height="33.9688" rx="12.5" ry="12.5" style="stroke:#181818;stroke-width:0.5;" width="169" x="378.5" y="382.2773"/><text fill="#000000" font-family="sans-serif" font-size="12" lengthAdjust="spacing" textLength="91" x="388.5" y="403.416">Create OListOR</text><text fill="#000000" font-family="sans-serif" font-size="12" font-style="italic" lengthAdjust="spacing" textLength="54" x="483.5" y="403.416">targetOR</text><rect fill="#F1F1F1" height="47.9375" rx="12.5" ry="12.5" style="stroke:#181818;stroke-width:0.5;" width="165" x="380.5" y="499.2461"/><text fill="#000000" font-family="sans-serif" font-size="12" lengthAdjust="spacing" textLength="145" x="390.5" y="520.3848">Get Edge's Target Node</text><text fill="#000000" font-family="sans-serif" font-size="12" lengthAdjust="spacing" textLength="126" x="390.5" y="534.3535">(API to GraphStream)</text><rect fill="#F1F1F1" height="33.9688" rx="12.5" ry="12.5" style="stroke:#181818;stroke-width:0.5;" width="190" x="368" y="582.1836"/><text fill="#000000" font-family="sans-serif" font-size="12" lengthAdjust="spacing" textLength="24" x="378" y="603.3223">Add</text><text fill="#000000" font-family="sans-serif" font-size="12" font-style="italic" lengthAdjust="spacing" textLength="68" x="406" y="603.3223">targetNode</text><text fill="#000000" font-family="sans-serif" font-size="12" lengthAdjust="spacing" textLength="12" x="478" y="603.3223">to</text><text fill="#000000" font-family="sans-serif" font-size="12" font-style="italic" lengthAdjust="spacing" textLength="54" x="494" y="603.3223">targetOR</text><polygon fill="#F1F1F1" points="380,451.2461,546,451.2461,558,463.2461,546,475.2461,380,475.2461,368,463.2461,380,451.2461" style="stroke:#181818;stroke-width:0.5;"/><text fill="#000000" font-family="sans-serif" font-size="11" lengthAdjust="spacing" textLength="95" x="380" y="467.0542">For Each Edge in</text><text fill="#000000" font-family="sans-serif" font-size="11" font-style="italic" lengthAdjust="spacing" textLength="67" x="479" y="467.0542">sourceNode</text><rect fill="#F1F1F1" height="47.9375" rx="12.5" ry="12.5" style="stroke:#181818;stroke-width:0.5;" width="165" x="380.5" y="675.1523"/><text fill="#000000" font-family="sans-serif" font-size="12" lengthAdjust="spacing" textLength="17" x="390.5" y="696.291">Put</text><text fill="#000000" font-family="sans-serif" font-size="12" font-style="italic" lengthAdjust="spacing" textLength="40" x="411.5" y="696.291">source</text><text fill="#000000" font-family="sans-serif" font-size="12" lengthAdjust="spacing" textLength="22" x="455.5" y="696.291">and</text><text fill="#000000" font-family="sans-serif" font-size="12" font-style="italic" lengthAdjust="spacing" textLength="54" x="481.5" y="696.291">targetOR</text><text fill="#000000" font-family="sans-serif" font-size="12" lengthAdjust="spacing" textLength="86" x="390.5" y="710.2598">in IObject Map</text><text fill="#000000" font-family="sans-serif" font-size="12" font-style="italic" lengthAdjust="spacing" textLength="16" x="480.5" y="710.2598">hb</text><polygon fill="#F1F1F1" points="313.5,942.0273,325.5,954.0273,313.5,966.0273,301.5,954.0273,313.5,942.0273" style="stroke:#181818;stroke-width:0.5;"/><polygon fill="#F1F1F1" points="621.5,373.2773,805.5,373.2773,817.5,385.2773,805.5,397.2773,621.5,397.2773,609.5,385.2773,621.5,373.2773" style="stroke:#181818;stroke-width:0.5;"/><text fill="#000000" font-family="sans-serif" font-size="11" lengthAdjust="spacing" textLength="21" x="717.5" y="407.4878">yes</text><text fill="#000000" font-family="sans-serif" font-size="11" font-style="italic" lengthAdjust="spacing" textLength="67" x="621.5" y="389.0854">sourceNode</text><text fill="#000000" font-family="sans-serif" font-size="11" lengthAdjust="spacing" textLength="113" x="692.5" y="389.0854">has 1 Leaving Edge</text><rect fill="#F1F1F1" height="33.9688" rx="12.5" ry="12.5" style="stroke:#181818;stroke-width:0.5;" width="227" x="600" y="430.082"/><text fill="#000000" font-family="sans-serif" font-size="12" lengthAdjust="spacing" textLength="132" x="610" y="451.2207">Get Target Node from</text><text fill="#000000" font-family="sans-serif" font-size="12" font-style="italic" lengthAdjust="spacing" textLength="71" x="746" y="451.2207">sourceNode</text><rect fill="#F1F1F1" height="47.9375" rx="12.5" ry="12.5" style="stroke:#181818;stroke-width:0.5;" width="200" x="613.5" y="499.0508"/><text fill="#000000" font-family="sans-serif" font-size="12" lengthAdjust="spacing" textLength="17" x="623.5" y="520.1895">Put</text><text fill="#000000" font-family="sans-serif" font-size="12" font-style="italic" lengthAdjust="spacing" textLength="40" x="644.5" y="520.1895">source</text><text fill="#000000" font-family="sans-serif" font-size="12" lengthAdjust="spacing" textLength="115" x="688.5" y="520.1895">and Target Node in</text><text fill="#000000" font-family="sans-serif" font-size="12" lengthAdjust="spacing" textLength="72" x="623.5" y="534.1582">IObject Map</text><text fill="#000000" font-family="sans-serif" font-size="12" font-style="italic" lengthAdjust="spacing" textLength="16" x="699.5" y="534.1582">hb</text><polygon fill="#F1F1F1" points="859,373.2773,1124,373.2773,1136,385.2773,1124,397.2773,859,397.2773,847,385.2773,859,373.2773" style="stroke:#181818;stroke-width:0.5;"/><text fill="#000000" font-family="sans-serif" font-size="11" lengthAdjust="spacing" textLength="21" x="995.5" y="407.4878">yes</text><text fill="#000000" font-family="sans-serif" font-size="11" font-style="italic" lengthAdjust="spacing" textLength="67" x="859" y="389.0854">sourceNode</text><text fill="#000000" font-family="sans-serif" font-size="11" lengthAdjust="spacing" textLength="194" x="930" y="389.0854">has greater than 1 Leaving Edges</text><rect fill="#F1F1F1" height="33.9688" rx="12.5" ry="12.5" style="stroke:#181818;stroke-width:0.5;" width="186" x="898.5" y="430.082"/><text fill="#000000" font-family="sans-serif" font-size="12" lengthAdjust="spacing" textLength="99" x="908.5" y="451.2207">Create OListAND</text><text fill="#000000" font-family="sans-serif" font-size="12" font-style="italic" lengthAdjust="spacing" textLength="63" x="1011.5" y="451.2207">targetAND</text><rect fill="#F1F1F1" height="33.9688" rx="12.5" ry="12.5" style="stroke:#181818;stroke-width:0.5;" width="165" x="909" y="547.0508"/><text fill="#000000" font-family="sans-serif" font-size="12" lengthAdjust="spacing" textLength="145" x="919" y="568.1895">Get Edge's Target Node</text><rect fill="#F1F1F1" height="33.9688" rx="12.5" ry="12.5" style="stroke:#181818;stroke-width:0.5;" width="206" x="888.5" y="616.0195"/><text fill="#000000" font-family="sans-serif" font-size="12" lengthAdjust="spacing" textLength="119" x="898.5" y="637.1582">Add Target Node to</text><text fill="#000000" font-family="sans-serif" font-size="12" font-style="italic" lengthAdjust="spacing" textLength="63" x="1021.5" y="637.1582">targetAND</text><polygon fill="#F1F1F1" points="908.5,499.0508,1074.5,499.0508,1086.5,511.0508,1074.5,523.0508,908.5,523.0508,896.5,511.0508,908.5,499.0508" style="stroke:#181818;stroke-width:0.5;"/><text fill="#000000" font-family="sans-serif" font-size="11" lengthAdjust="spacing" textLength="95" x="908.5" y="514.8589">For Each Edge in</text><text fill="#000000" font-family="sans-serif" font-size="11" font-style="italic" lengthAdjust="spacing" textLength="67" x="1007.5" y="514.8589">sourceNode</text><rect fill="#F1F1F1" height="47.9375" rx="12.5" ry="12.5" style="stroke:#181818;stroke-width:0.5;" width="188" x="897.5" y="708.9883"/><text fill="#000000" font-family="sans-serif" font-size="12" lengthAdjust="spacing" textLength="17" x="907.5" y="730.127">Put</text><text fill="#000000" font-family="sans-serif" font-size="12" font-style="italic" lengthAdjust="spacing" textLength="40" x="928.5" y="730.127">source</text><text fill="#000000" font-family="sans-serif" font-size="12" lengthAdjust="spacing" textLength="22" x="972.5" y="730.127">and</text><text fill="#000000" font-family="sans-serif" font-size="12" font-style="italic" lengthAdjust="spacing" textLength="63" x="998.5" y="730.127">targetAND</text><text fill="#000000" font-family="sans-serif" font-size="12" lengthAdjust="spacing" textLength="10" x="1065.5" y="730.127">in</text><text fill="#000000" font-family="sans-serif" font-size="12" lengthAdjust="spacing" textLength="72" x="907.5" y="744.0957">IObject Map</text><text fill="#000000" font-family="sans-serif" font-size="12" font-style="italic" lengthAdjust="spacing" textLength="16" x="983.5" y="744.0957">hb</text><polygon fill="#F1F1F1" points="603.25,972.0273,615.25,984.0273,603.25,996.0273,591.25,984.0273,603.25,972.0273" style="stroke:#181818;stroke-width:0.5;"/><polygon fill="#F1F1F1" points="513.75,50,692.75,50,704.75,62,692.75,74,513.75,74,501.75,62,513.75,50" style="stroke:#181818;stroke-width:0.5;"/><text fill="#000000" font-family="sans-serif" font-size="11" lengthAdjust="spacing" textLength="21" x="607.25" y="84.2104">yes</text><text fill="#000000" font-family="sans-serif" font-size="11" font-style="italic" lengthAdjust="spacing" textLength="38" x="513.75" y="65.8081">source</text><text fill="#000000" font-family="sans-serif" font-size="11" lengthAdjust="spacing" textLength="137" x="555.75" y="65.8081">is an Instance of ONode</text><polygon fill="#F1F1F1" points="603.25,1016.0273,615.25,1028.0273,603.25,1040.0273,591.25,1028.0273,603.25,1016.0273" style="stroke:#181818;stroke-width:0.5;"/><ellipse cx="603.25" cy="1071.0273" fill="none" rx="11" ry="11" style="stroke:#222222;stroke-width:1.0;"/><ellipse cx="603.25" cy="1071.0273" fill="#222222" rx="6" ry="6" style="stroke:#222222;stroke-width:1.0;"/><line style="stroke:#181818;stroke-width:1.0;" x1="603.25" x2="603.25" y1="132.3711" y2="152.3711"/><polygon fill="#181818" points="599.25,142.3711,603.25,152.3711,607.25,142.3711,603.25,146.3711" style="stroke:#181818;stroke-width:1.0;"/><line style="stroke:#181818;stroke-width:1.0;" x1="603.25" x2="603.25" y1="186.3398" y2="206.3398"/><polygon fill="#181818" points="599.25,196.3398,603.25,206.3398,607.25,196.3398,603.25,200.3398" style="stroke:#181818;stroke-width:1.0;"/><line style="stroke:#181818;stroke-width:1.0;" x1="603.25" x2="603.25" y1="240.3086" y2="260.3086"/><polygon fill="#181818" points="599.25,250.3086,603.25,260.3086,607.25,250.3086,603.25,254.3086" style="stroke:#181818;stroke-width:1.0;"/><line style="stroke:#181818;stroke-width:1.0;" x1="164" x2="164" y1="416.2461" y2="451.2461"/><polygon fill="#181818" points="160,441.2461,164,451.2461,168,441.2461,164,445.2461" style="stroke:#181818;stroke-width:1.0;"/><line style="stroke:#181818;stroke-width:1.0;" x1="164" x2="164" y1="733.1211" y2="768.1211"/><polygon fill="#181818" points="160,758.1211,164,768.1211,168,758.1211,164,762.1211" style="stroke:#181818;stroke-width:1.0;"/><line style="stroke:#181818;stroke-width:1.0;" x1="164" x2="164" y1="675.1523" y2="699.1523"/><polygon fill="#181818" points="160,689.1523,164,699.1523,168,689.1523,164,693.1523" style="stroke:#181818;stroke-width:1.0;"/><line style="stroke:#181818;stroke-width:1.0;" x1="282.5" x2="300" y1="663.1523" y2="663.1523"/><polygon fill="#181818" points="296,740.6211,300,750.6211,304,740.6211,300,744.6211" style="stroke:#181818;stroke-width:1.0;"/><line style="stroke:#181818;stroke-width:1.0;" x1="300" x2="300" y1="663.1523" y2="834.0898"/><line style="stroke:#181818;stroke-width:1.0;" x1="300" x2="176" y1="834.0898" y2="834.0898"/><polygon fill="#181818" points="186,830.0898,176,834.0898,186,838.0898,182,834.0898" style="stroke:#181818;stroke-width:1.0;"/><line style="stroke:#181818;stroke-width:1.0;" x1="164" x2="164" y1="802.0898" y2="822.0898"/><polygon fill="#181818" points="160,812.0898,164,822.0898,168,812.0898,164,816.0898" style="stroke:#181818;stroke-width:1.0;"/><line style="stroke:#181818;stroke-width:1.0;" x1="164" x2="164" y1="616.1523" y2="651.1523"/><polygon fill="#181818" points="160,641.1523,164,651.1523,168,641.1523,164,645.1523" style="stroke:#181818;stroke-width:1.0;"/><line style="stroke:#181818;stroke-width:1.0;" x1="164" x2="164" y1="558.1836" y2="582.1836"/><polygon fill="#181818" points="160,572.1836,164,582.1836,168,572.1836,164,576.1836" style="stroke:#181818;stroke-width:1.0;"/><line style="stroke:#181818;stroke-width:1.0;" x1="164" x2="164" y1="846.0898" y2="856.0898"/><line style="stroke:#181818;stroke-width:1.0;" x1="164" x2="324" y1="856.0898" y2="856.0898"/><polygon fill="#181818" points="320,714.1367,324,704.1367,328,714.1367,324,710.1367" style="stroke:#181818;stroke-width:1.0;"/><line style="stroke:#181818;stroke-width:1.0;" x1="324" x2="324" y1="546.1836" y2="856.0898"/><line style="stroke:#181818;stroke-width:1.0;" x1="324" x2="272.5" y1="546.1836" y2="546.1836"/><polygon fill="#181818" points="282.5,542.1836,272.5,546.1836,282.5,550.1836,278.5,546.1836" style="stroke:#181818;stroke-width:1.0;"/><line style="stroke:#181818;stroke-width:1.0;" x1="55.5" x2="24" y1="546.1836" y2="546.1836"/><polygon fill="#181818" points="20,700.1367,24,710.1367,28,700.1367,24,704.1367" style="stroke:#181818;stroke-width:1.0;"/><line style="stroke:#181818;stroke-width:1.0;" x1="24" x2="24" y1="546.1836" y2="868.0898"/><line style="stroke:#181818;stroke-width:1.0;" x1="24" x2="164" y1="868.0898" y2="868.0898"/><line style="stroke:#181818;stroke-width:1.0;" x1="164" x2="164" y1="868.0898" y2="888.0898"/><polygon fill="#181818" points="160,878.0898,164,888.0898,168,878.0898,164,882.0898" style="stroke:#181818;stroke-width:1.0;"/><line style="stroke:#181818;stroke-width:1.0;" x1="164" x2="164" y1="499.1836" y2="534.1836"/><polygon fill="#181818" points="160,524.1836,164,534.1836,168,524.1836,164,528.1836" style="stroke:#181818;stroke-width:1.0;"/><line style="stroke:#181818;stroke-width:1.0;" x1="463" x2="463" y1="547.1836" y2="582.1836"/><polygon fill="#181818" points="459,572.1836,463,582.1836,467,572.1836,463,576.1836" style="stroke:#181818;stroke-width:1.0;"/><line style="stroke:#181818;stroke-width:1.0;" x1="463" x2="463" y1="475.2461" y2="499.2461"/><polygon fill="#181818" points="459,489.2461,463,499.2461,467,489.2461,463,493.2461" style="stroke:#181818;stroke-width:1.0;"/><line style="stroke:#181818;stroke-width:1.0;" x1="463" x2="463" y1="616.1523" y2="628.1523"/><line style="stroke:#181818;stroke-width:1.0;" x1="463" x2="570" y1="628.1523" y2="628.1523"/><polygon fill="#181818" points="566,555.6992,570,545.6992,574,555.6992,570,551.6992" style="stroke:#181818;stroke-width:1.0;"/><line style="stroke:#181818;stroke-width:1.0;" x1="570" x2="570" y1="463.2461" y2="628.1523"/><line style="stroke:#181818;stroke-width:1.0;" x1="570" x2="558" y1="463.2461" y2="463.2461"/><polygon fill="#181818" points="568,459.2461,558,463.2461,568,467.2461,564,463.2461" style="stroke:#181818;stroke-width:1.0;"/><line style="stroke:#181818;stroke-width:1.0;" x1="368" x2="356" y1="463.2461" y2="463.2461"/><polygon fill="#181818" points="352,541.6992,356,551.6992,360,541.6992,356,545.6992" style="stroke:#181818;stroke-width:1.0;"/><line style="stroke:#181818;stroke-width:1.0;" x1="356" x2="356" y1="463.2461" y2="640.1523"/><line style="stroke:#181818;stroke-width:1.0;" x1="356" x2="463" y1="640.1523" y2="640.1523"/><line style="stroke:#181818;stroke-width:1.0;" x1="463" x2="463" y1="640.1523" y2="675.1523"/><polygon fill="#181818" points="459,665.1523,463,675.1523,467,665.1523,463,669.1523" style="stroke:#181818;stroke-width:1.0;"/><line style="stroke:#181818;stroke-width:1.0;" x1="463" x2="463" y1="416.2461" y2="451.2461"/><polygon fill="#181818" points="459,441.2461,463,451.2461,467,441.2461,463,445.2461" style="stroke:#181818;stroke-width:1.0;"/><line style="stroke:#181818;stroke-width:1.0;" x1="209.5" x2="164" y1="360.2773" y2="360.2773"/><line style="stroke:#181818;stroke-width:1.0;" x1="164" x2="164" y1="360.2773" y2="382.2773"/><polygon fill="#181818" points="160,372.2773,164,382.2773,168,372.2773,164,376.2773" style="stroke:#181818;stroke-width:1.0;"/><line style="stroke:#181818;stroke-width:1.0;" x1="417.5" x2="463" y1="360.2773" y2="360.2773"/><line style="stroke:#181818;stroke-width:1.0;" x1="463" x2="463" y1="360.2773" y2="382.2773"/><polygon fill="#181818" points="459,372.2773,463,382.2773,467,372.2773,463,376.2773" style="stroke:#181818;stroke-width:1.0;"/><line style="stroke:#181818;stroke-width:1.0;" x1="164" x2="164" y1="936.0273" y2="954.0273"/><line style="stroke:#181818;stroke-width:1.0;" x1="164" x2="301.5" y1="954.0273" y2="954.0273"/><polygon fill="#181818" points="291.5,950.0273,301.5,954.0273,291.5,958.0273,295.5,954.0273" style="stroke:#181818;stroke-width:1.0;"/><line style="stroke:#181818;stroke-width:1.0;" x1="463" x2="463" y1="723.0898" y2="954.0273"/><line style="stroke:#181818;stroke-width:1.0;" x1="463" x2="325.5" y1="954.0273" y2="954.0273"/><polygon fill="#181818" points="335.5,950.0273,325.5,954.0273,335.5,958.0273,331.5,954.0273" style="stroke:#181818;stroke-width:1.0;"/><line style="stroke:#181818;stroke-width:1.0;" x1="713.5" x2="713.5" y1="464.0508" y2="499.0508"/><polygon fill="#181818" points="709.5,489.0508,713.5,499.0508,717.5,489.0508,713.5,493.0508" style="stroke:#181818;stroke-width:1.0;"/><line style="stroke:#181818;stroke-width:1.0;" x1="991.5" x2="991.5" y1="581.0195" y2="616.0195"/><polygon fill="#181818" points="987.5,606.0195,991.5,616.0195,995.5,606.0195,991.5,610.0195" style="stroke:#181818;stroke-width:1.0;"/><line style="stroke:#181818;stroke-width:1.0;" x1="991.5" x2="991.5" y1="523.0508" y2="547.0508"/><polygon fill="#181818" points="987.5,537.0508,991.5,547.0508,995.5,537.0508,991.5,541.0508" style="stroke:#181818;stroke-width:1.0;"/><line style="stroke:#181818;stroke-width:1.0;" x1="991.5" x2="991.5" y1="649.9883" y2="661.9883"/><line style="stroke:#181818;stroke-width:1.0;" x1="991.5" x2="1106.5" y1="661.9883" y2="661.9883"/><polygon fill="#181818" points="1102.5,596.5195,1106.5,586.5195,1110.5,596.5195,1106.5,592.5195" style="stroke:#181818;stroke-width:1.0;"/><line style="stroke:#181818;stroke-width:1.0;" x1="1106.5" x2="1106.5" y1="511.0508" y2="661.9883"/><line style="stroke:#181818;stroke-width:1.0;" x1="1106.5" x2="1086.5" y1="511.0508" y2="511.0508"/><polygon fill="#181818" points="1096.5,507.0508,1086.5,511.0508,1096.5,515.0508,1092.5,511.0508" style="stroke:#181818;stroke-width:1.0;"/><line style="stroke:#181818;stroke-width:1.0;" x1="896.5" x2="876.5" y1="511.0508" y2="511.0508"/><polygon fill="#181818" points="872.5,582.5195,876.5,592.5195,880.5,582.5195,876.5,586.5195" style="stroke:#181818;stroke-width:1.0;"/><line style="stroke:#181818;stroke-width:1.0;" x1="876.5" x2="876.5" y1="511.0508" y2="673.9883"/><line style="stroke:#181818;stroke-width:1.0;" x1="876.5" x2="991.5" y1="673.9883" y2="673.9883"/><line style="stroke:#181818;stroke-width:1.0;" x1="991.5" x2="991.5" y1="673.9883" y2="708.9883"/><polygon fill="#181818" points="987.5,698.9883,991.5,708.9883,995.5,698.9883,991.5,702.9883" style="stroke:#181818;stroke-width:1.0;"/><line style="stroke:#181818;stroke-width:1.0;" x1="991.5" x2="991.5" y1="464.0508" y2="499.0508"/><polygon fill="#181818" points="987.5,489.0508,991.5,499.0508,995.5,489.0508,991.5,493.0508" style="stroke:#181818;stroke-width:1.0;"/><line style="stroke:#181818;stroke-width:1.0;" x1="713.5" x2="713.5" y1="397.2773" y2="430.082"/><polygon fill="#181818" points="709.5,420.082,713.5,430.082,717.5,420.082,713.5,424.082" style="stroke:#181818;stroke-width:1.0;"/><line style="stroke:#181818;stroke-width:1.0;" x1="713.5" x2="713.5" y1="546.9883" y2="827.9258"/><polygon fill="#181818" points="709.5,817.9258,713.5,827.9258,717.5,817.9258,713.5,821.9258" style="stroke:#181818;stroke-width:1.0;"/><line style="stroke:#181818;stroke-width:1.0;" x1="991.5" x2="991.5" y1="397.2773" y2="430.082"/><polygon fill="#181818" points="987.5,420.082,991.5,430.082,995.5,420.082,991.5,424.082" style="stroke:#181818;stroke-width:1.0;"/><line style="stroke:#181818;stroke-width:1.0;" x1="991.5" x2="991.5" y1="756.9258" y2="827.9258"/><polygon fill="#181818" points="987.5,817.9258,991.5,827.9258,995.5,817.9258,991.5,821.9258" style="stroke:#181818;stroke-width:1.0;"/><line style="stroke:#181818;stroke-width:1.0;" x1="817.5" x2="847" y1="385.2773" y2="385.2773"/><polygon fill="#181818" points="837,381.2773,847,385.2773,837,389.2773,841,385.2773" style="stroke:#181818;stroke-width:1.0;"/><line style="stroke:#181818;stroke-width:1.0;" x1="681.75" x2="713.5" y1="326.2773" y2="326.2773"/><line style="stroke:#181818;stroke-width:1.0;" x1="713.5" x2="713.5" y1="326.2773" y2="373.2773"/><polygon fill="#181818" points="709.5,363.2773,713.5,373.2773,717.5,363.2773,713.5,367.2773" style="stroke:#181818;stroke-width:1.0;"/><line style="stroke:#181818;stroke-width:1.0;" x1="1136" x2="1150" y1="385.2773" y2="385.2773"/><line style="stroke:#181818;stroke-width:1.0;" x1="1150" x2="1150" y1="385.2773" y2="827.9258"/><polygon fill="#181818" points="1146,817.9258,1150,827.9258,1154,817.9258,1150,821.9258" style="stroke:#181818;stroke-width:1.0;"/><line style="stroke:#181818;stroke-width:1.0;" x1="713.5" x2="1150" y1="827.9258" y2="827.9258"/><line style="stroke:#181818;stroke-width:1.0;" x1="524.75" x2="313.5" y1="326.2773" y2="326.2773"/><line style="stroke:#181818;stroke-width:1.0;" x1="313.5" x2="313.5" y1="326.2773" y2="348.2773"/><polygon fill="#181818" points="309.5,338.2773,313.5,348.2773,317.5,338.2773,313.5,342.2773" style="stroke:#181818;stroke-width:1.0;"/><line style="stroke:#181818;stroke-width:1.0;" x1="313.5" x2="313.5" y1="966.0273" y2="984.0273"/><line style="stroke:#181818;stroke-width:1.0;" x1="313.5" x2="591.25" y1="984.0273" y2="984.0273"/><polygon fill="#181818" points="581.25,980.0273,591.25,984.0273,581.25,988.0273,585.25,984.0273" style="stroke:#181818;stroke-width:1.0;"/><line style="stroke:#181818;stroke-width:1.0;" x1="893" x2="893" y1="827.9258" y2="984.0273"/><line style="stroke:#181818;stroke-width:1.0;" x1="893" x2="615.25" y1="984.0273" y2="984.0273"/><polygon fill="#181818" points="625.25,980.0273,615.25,984.0273,625.25,988.0273,621.25,984.0273" style="stroke:#181818;stroke-width:1.0;"/><line style="stroke:#181818;stroke-width:1.0;" x1="603.25" x2="603.25" y1="294.2773" y2="314.2773"/><polygon fill="#181818" points="599.25,304.2773,603.25,314.2773,607.25,304.2773,603.25,308.2773" style="stroke:#181818;stroke-width:1.0;"/><line style="stroke:#181818;stroke-width:1.0;" x1="603.25" x2="603.25" y1="74" y2="98.4023"/><polygon fill="#181818" points="599.25,88.4023,603.25,98.4023,607.25,88.4023,603.25,92.4023" style="stroke:#181818;stroke-width:1.0;"/><line style="stroke:#181818;stroke-width:1.0;" x1="704.75" x2="1168" y1="62" y2="62"/><polygon fill="#181818" points="1164,517.7148,1168,527.7148,1172,517.7148,1168,521.7148" style="stroke:#181818;stroke-width:1.0;"/><line style="stroke:#181818;stroke-width:1.0;" x1="1168" x2="1168" y1="62" y2="1028.0273"/><line style="stroke:#181818;stroke-width:1.0;" x1="1168" x2="615.25" y1="1028.0273" y2="1028.0273"/><polygon fill="#181818" points="625.25,1024.0273,615.25,1028.0273,625.25,1032.0273,621.25,1028.0273" style="stroke:#181818;stroke-width:1.0;"/><line style="stroke:#181818;stroke-width:1.0;" x1="603.25" x2="603.25" y1="996.0273" y2="1016.0273"/><polygon fill="#181818" points="599.25,1006.0273,603.25,1016.0273,607.25,1006.0273,603.25,1010.0273" style="stroke:#181818;stroke-width:1.0;"/><line style="stroke:#181818;stroke-width:1.0;" x1="603.25" x2="603.25" y1="30" y2="50"/><polygon fill="#181818" points="599.25,40,603.25,50,607.25,40,603.25,44" style="stroke:#181818;stroke-width:1.0;"/><line style="stroke:#181818;stroke-width:1.0;" x1="603.25" x2="603.25" y1="1040.0273" y2="1060.0273"/><polygon fill="#181818" points="599.25,1050.0273,603.25,1060.0273,607.25,1050.0273,603.25,1054.0273" style="stroke:#181818;stroke-width:1.0;"/><!--SRC=[fLCzRuCm4Dtv5TUfP49TWpf4QHf5IaEKLDaTEC0LiP5jKlNVzsm81Gfggow0x7Ttx-FGXYdZyTGF0Yqh5MCG0DV016o4Dap423A5Q2SJd879KO3_WNhcpTTeuEWgm5w6tdolk33mrOUE5adI7bWKDJSIJbnpWuchquHQAcG68IeDbu8Li4eof38fC4hjjxQz74KfsXF86T644okgFhEEbcQaHJx05jcLYynrxqkvpTzoRQ93M6jxPIgZbstX-OlznX9VArRcHqFmoopqtdDUeFyi5QnOdDUikR2TkyMDLVRK8kvrtpLYkwoKGj5p4nxl1ZsiasD0OXK4rzhGrl99O6rBTB1850bFxTFfeFWgqqFG3jZmZAFHE4dol4rqViFOm0ihwJe_krw5Hb_8RrwszVN82SVwSJM6DMRz74EpP3sUJcntyhZCWKWBzOZFgCBQhPlElo_POASWLV8oK1wEikiMSJ5f_pYZpCMXY0dzqNrwUledMEoUMbFe-__HDIbrfNGYQaRyAYE7dVJXjjBjKnjPVW80]--></g></svg>