<?xml version="1.0" encoding="us-ascii" standalone="no"?><svg xmlns="http://www.w3.org/2000/svg" xmlns:xlink="http://www.w3.org/1999/xlink" contentStyleType="text/css" height="508px" preserveAspectRatio="none" style="width:473px;height:508px;background:#FFFFFF;" version="1.1" viewBox="0 0 473 508" width="473px" zoomAndPan="magnify"><defs/><g><ellipse cx="225.75" cy="20" fill="#222222" rx="10" ry="10" style="stroke:#222222;stroke-width:1.0;"/><rect fill="#F1F1F1" height="47.9375" rx="12.5" ry="12.5" style="stroke:#181818;stroke-width:0.5;" width="203" x="124.25" y="50"/><text fill="#000000" font-family="sans-serif" font-size="12" lengthAdjust="spacing" textLength="183" x="134.25" y="71.1387">Set Graph styleSheet Attribute</text><text fill="#000000" font-family="sans-serif" font-size="12" lengthAdjust="spacing" textLength="12" x="134.25" y="85.1074">to</text><text fill="#000000" font-family="sans-serif" font-size="12" font-style="italic" lengthAdjust="spacing" textLength="63" x="150.25" y="85.1074">styleSheet</text><rect fill="#F1F1F1" height="33.9688" rx="12.5" ry="12.5" style="stroke:#181818;stroke-width:0.5;" width="202" x="124.75" y="161.9375"/><text fill="#000000" font-family="sans-serif" font-size="12" lengthAdjust="spacing" textLength="182" x="134.75" y="183.0762">Set Node Label to Node Name</text><polygon fill="#F1F1F1" points="159.25,117.9375,292.25,117.9375,304.25,129.9375,292.25,141.9375,159.25,141.9375,147.25,129.9375,159.25,117.9375" style="stroke:#181818;stroke-width:0.5;"/><text fill="#000000" font-family="sans-serif" font-size="11" lengthAdjust="spacing" textLength="96" x="159.25" y="133.7456">For Each Node in</text><text fill="#000000" font-family="sans-serif" font-size="11" font-style="italic" lengthAdjust="spacing" textLength="33" x="259.25" y="133.7456">graph</text><polygon fill="#F1F1F1" points="152.25,281.9063,299.25,281.9063,311.25,293.9063,299.25,305.9063,152.25,305.9063,140.25,293.9063,152.25,281.9063" style="stroke:#181818;stroke-width:0.5;"/><text fill="#000000" font-family="sans-serif" font-size="11" lengthAdjust="spacing" textLength="147" x="152.25" y="297.7144">Edge has OneOf Attribute</text><text fill="#000000" font-family="sans-serif" font-size="11" lengthAdjust="spacing" textLength="21" x="119.25" y="291.312">yes</text><text fill="#000000" font-family="sans-serif" font-size="11" lengthAdjust="spacing" textLength="14" x="311.25" y="291.312">no</text><rect fill="#F1F1F1" height="33.9688" rx="12.5" ry="12.5" style="stroke:#181818;stroke-width:0.5;" width="168" x="38" y="315.9063"/><text fill="#000000" font-family="sans-serif" font-size="12" lengthAdjust="spacing" textLength="148" x="48" y="337.0449">Set Edge Label to oneOf</text><rect fill="#F1F1F1" height="33.9688" rx="12.5" ry="12.5" style="stroke:#181818;stroke-width:0.5;" width="207" x="226" y="315.9063"/><text fill="#000000" font-family="sans-serif" font-size="12" lengthAdjust="spacing" textLength="187" x="236" y="337.0449">Set Edge Label to Empty String</text><polygon fill="#F1F1F1" points="225.75,355.875,237.75,367.875,225.75,379.875,213.75,367.875,225.75,355.875" style="stroke:#181818;stroke-width:0.5;"/><polygon fill="#F1F1F1" points="159.75,237.9063,291.75,237.9063,303.75,249.9063,291.75,261.9063,159.75,261.9063,147.75,249.9063,159.75,237.9063" style="stroke:#181818;stroke-width:0.5;"/><text fill="#000000" font-family="sans-serif" font-size="11" lengthAdjust="spacing" textLength="95" x="159.75" y="253.7144">For Each Edge in</text><text fill="#000000" font-family="sans-serif" font-size="11" font-style="italic" lengthAdjust="spacing" textLength="33" x="258.75" y="253.7144">graph</text><rect fill="#F1F1F1" height="33.9688" rx="12.5" ry="12.5" style="stroke:#181818;stroke-width:0.5;" width="104" x="173.75" y="421.875"/><text fill="#000000" font-family="sans-serif" font-size="12" lengthAdjust="spacing" textLength="84" x="183.75" y="443.0137">Display Graph</text><ellipse cx="225.75" cy="486.8438" fill="none" rx="11" ry="11" style="stroke:#222222;stroke-width:1.0;"/><ellipse cx="225.75" cy="486.8438" fill="#222222" rx="6" ry="6" style="stroke:#222222;stroke-width:1.0;"/><line style="stroke:#181818;stroke-width:1.0;" x1="225.75" x2="225.75" y1="30" y2="50"/><polygon fill="#181818" points="221.75,40,225.75,50,229.75,40,225.75,44" style="stroke:#181818;stroke-width:1.0;"/><line style="stroke:#181818;stroke-width:1.0;" x1="225.75" x2="225.75" y1="141.9375" y2="161.9375"/><polygon fill="#181818" points="221.75,151.9375,225.75,161.9375,229.75,151.9375,225.75,155.9375" style="stroke:#181818;stroke-width:1.0;"/><line style="stroke:#181818;stroke-width:1.0;" x1="225.75" x2="225.75" y1="195.9063" y2="205.9063"/><line style="stroke:#181818;stroke-width:1.0;" x1="225.75" x2="338.75" y1="205.9063" y2="205.9063"/><polygon fill="#181818" points="334.75,176.9219,338.75,166.9219,342.75,176.9219,338.75,172.9219" style="stroke:#181818;stroke-width:1.0;"/><line style="stroke:#181818;stroke-width:1.0;" x1="338.75" x2="338.75" y1="129.9375" y2="205.9063"/><line style="stroke:#181818;stroke-width:1.0;" x1="338.75" x2="304.25" y1="129.9375" y2="129.9375"/><polygon fill="#181818" points="314.25,125.9375,304.25,129.9375,314.25,133.9375,310.25,129.9375" style="stroke:#181818;stroke-width:1.0;"/><line style="stroke:#181818;stroke-width:1.0;" x1="147.25" x2="112.75" y1="129.9375" y2="129.9375"/><polygon fill="#181818" points="108.75,162.9219,112.75,172.9219,116.75,162.9219,112.75,166.9219" style="stroke:#181818;stroke-width:1.0;"/><line style="stroke:#181818;stroke-width:1.0;" x1="112.75" x2="112.75" y1="129.9375" y2="217.9063"/><line style="stroke:#181818;stroke-width:1.0;" x1="112.75" x2="225.75" y1="217.9063" y2="217.9063"/><line style="stroke:#181818;stroke-width:1.0;" x1="225.75" x2="225.75" y1="217.9063" y2="237.9063"/><polygon fill="#181818" points="221.75,227.9063,225.75,237.9063,229.75,227.9063,225.75,231.9063" style="stroke:#181818;stroke-width:1.0;"/><line style="stroke:#181818;stroke-width:1.0;" x1="225.75" x2="225.75" y1="97.9375" y2="117.9375"/><polygon fill="#181818" points="221.75,107.9375,225.75,117.9375,229.75,107.9375,225.75,111.9375" style="stroke:#181818;stroke-width:1.0;"/><line style="stroke:#181818;stroke-width:1.0;" x1="140.25" x2="122" y1="293.9063" y2="293.9063"/><line style="stroke:#181818;stroke-width:1.0;" x1="122" x2="122" y1="293.9063" y2="315.9063"/><polygon fill="#181818" points="118,305.9063,122,315.9063,126,305.9063,122,309.9063" style="stroke:#181818;stroke-width:1.0;"/><line style="stroke:#181818;stroke-width:1.0;" x1="311.25" x2="329.5" y1="293.9063" y2="293.9063"/><line style="stroke:#181818;stroke-width:1.0;" x1="329.5" x2="329.5" y1="293.9063" y2="315.9063"/><polygon fill="#181818" points="325.5,305.9063,329.5,315.9063,333.5,305.9063,329.5,309.9063" style="stroke:#181818;stroke-width:1.0;"/><line style="stroke:#181818;stroke-width:1.0;" x1="122" x2="122" y1="349.875" y2="367.875"/><line style="stroke:#181818;stroke-width:1.0;" x1="122" x2="213.75" y1="367.875" y2="367.875"/><polygon fill="#181818" points="203.75,363.875,213.75,367.875,203.75,371.875,207.75,367.875" style="stroke:#181818;stroke-width:1.0;"/><line style="stroke:#181818;stroke-width:1.0;" x1="329.5" x2="329.5" y1="349.875" y2="367.875"/><line style="stroke:#181818;stroke-width:1.0;" x1="329.5" x2="237.75" y1="367.875" y2="367.875"/><polygon fill="#181818" points="247.75,363.875,237.75,367.875,247.75,371.875,243.75,367.875" style="stroke:#181818;stroke-width:1.0;"/><line style="stroke:#181818;stroke-width:1.0;" x1="225.75" x2="225.75" y1="261.9063" y2="281.9063"/><polygon fill="#181818" points="221.75,271.9063,225.75,281.9063,229.75,271.9063,225.75,275.9063" style="stroke:#181818;stroke-width:1.0;"/><line style="stroke:#181818;stroke-width:1.0;" x1="225.75" x2="225.75" y1="379.875" y2="389.875"/><line style="stroke:#181818;stroke-width:1.0;" x1="225.75" x2="447" y1="389.875" y2="389.875"/><polygon fill="#181818" points="443,328.8906,447,318.8906,451,328.8906,447,324.8906" style="stroke:#181818;stroke-width:1.0;"/><line style="stroke:#181818;stroke-width:1.0;" x1="447" x2="447" y1="249.9063" y2="389.875"/><line style="stroke:#181818;stroke-width:1.0;" x1="447" x2="303.75" y1="249.9063" y2="249.9063"/><polygon fill="#181818" points="313.75,245.9063,303.75,249.9063,313.75,253.9063,309.75,249.9063" style="stroke:#181818;stroke-width:1.0;"/><line style="stroke:#181818;stroke-width:1.0;" x1="147.75" x2="24" y1="249.9063" y2="249.9063"/><polygon fill="#181818" points="20,314.8906,24,324.8906,28,314.8906,24,318.8906" style="stroke:#181818;stroke-width:1.0;"/><line style="stroke:#181818;stroke-width:1.0;" x1="24" x2="24" y1="249.9063" y2="401.875"/><line style="stroke:#181818;stroke-width:1.0;" x1="24" x2="225.75" y1="401.875" y2="401.875"/><line style="stroke:#181818;stroke-width:1.0;" x1="225.75" x2="225.75" y1="401.875" y2="421.875"/><polygon fill="#181818" points="221.75,411.875,225.75,421.875,229.75,411.875,225.75,415.875" style="stroke:#181818;stroke-width:1.0;"/><line style="stroke:#181818;stroke-width:1.0;" x1="225.75" x2="225.75" y1="455.8438" y2="475.8438"/><polygon fill="#181818" points="221.75,465.8438,225.75,475.8438,229.75,465.8438,225.75,469.8438" style="stroke:#181818;stroke-width:1.0;"/><!--SRC=[RP2n3eCW54LtlkADEB7hrAIsIwE3Nu3rAIG815xJyFT5R6fYEd8vEVVcHPA1M3qWmJr8ho1ICZWepC65AEZnHSZ8WH37Zn0DUojjaDzSW5O-5NHkGj0sOykc4QBQfIL_o14DP4bvTNB5Xg6TYk8iQgVbBD8pBwcI4NgB_Nmigu0KMk09uxUmaBz2j-6vp4Jarlr5sjLJWY4BxL9cwVaOLrzrz4Qc_JWDY-Jy1m00]--></g></svg>