<?xml version="1.0" encoding="us-ascii" standalone="no"?><svg xmlns="http://www.w3.org/2000/svg" xmlns:xlink="http://www.w3.org/1999/xlink" contentStyleType="text/css" height="1234px" preserveAspectRatio="none" style="width:281px;height:1234px;background:#FFFFFF;" version="1.1" viewBox="0 0 281 1234" width="281px" zoomAndPan="magnify"><defs/><g><ellipse cx="140.5" cy="20" fill="#222222" rx="10" ry="10" style="stroke:#222222;stroke-width:1.0;"/><rect fill="#F1F1F1" height="33.9688" rx="12.5" ry="12.5" style="stroke:#181818;stroke-width:0.5;" width="259" x="11" y="50"/><text fill="#000000" font-family="sans-serif" font-size="12" lengthAdjust="spacing" textLength="239" x="21" y="71.1387">Print fork-&gt;join-&gt;decision-&gt;merge Title</text><rect fill="#F1F1F1" height="33.9688" rx="12.5" ry="12.5" style="stroke:#181818;stroke-width:0.5;" width="136" x="72.5" y="103.9688"/><text fill="#000000" font-family="sans-serif" font-size="12" lengthAdjust="spacing" textLength="96" x="82.5" y="125.1074">Create Node ID,</text><text fill="#000000" font-family="sans-serif" font-size="12" font-style="italic" lengthAdjust="spacing" textLength="16" x="182.5" y="125.1074">p0</text><rect fill="#F1F1F1" height="33.9688" rx="12.5" ry="12.5" style="stroke:#181818;stroke-width:0.5;" width="136" x="72.5" y="157.9375"/><text fill="#000000" font-family="sans-serif" font-size="12" lengthAdjust="spacing" textLength="96" x="82.5" y="179.0762">Create Node ID,</text><text fill="#000000" font-family="sans-serif" font-size="12" font-style="italic" lengthAdjust="spacing" textLength="16" x="182.5" y="179.0762">p1</text><rect fill="#F1F1F1" height="33.9688" rx="12.5" ry="12.5" style="stroke:#181818;stroke-width:0.5;" width="136" x="72.5" y="211.9063"/><text fill="#000000" font-family="sans-serif" font-size="12" lengthAdjust="spacing" textLength="96" x="82.5" y="233.0449">Create Node ID,</text><text fill="#000000" font-family="sans-serif" font-size="12" font-style="italic" lengthAdjust="spacing" textLength="16" x="182.5" y="233.0449">p2</text><rect fill="#F1F1F1" height="33.9688" rx="12.5" ry="12.5" style="stroke:#181818;stroke-width:0.5;" width="136" x="72.5" y="265.875"/><text fill="#000000" font-family="sans-serif" font-size="12" lengthAdjust="spacing" textLength="96" x="82.5" y="287.0137">Create Node ID,</text><text fill="#000000" font-family="sans-serif" font-size="12" font-style="italic" lengthAdjust="spacing" textLength="16" x="182.5" y="287.0137">p3</text><rect fill="#F1F1F1" height="33.9688" rx="12.5" ry="12.5" style="stroke:#181818;stroke-width:0.5;" width="136" x="72.5" y="319.8438"/><text fill="#000000" font-family="sans-serif" font-size="12" lengthAdjust="spacing" textLength="96" x="82.5" y="340.9824">Create Node ID,</text><text fill="#000000" font-family="sans-serif" font-size="12" font-style="italic" lengthAdjust="spacing" textLength="16" x="182.5" y="340.9824">p4</text><rect fill="#F1F1F1" height="33.9688" rx="12.5" ry="12.5" style="stroke:#181818;stroke-width:0.5;" width="136" x="72.5" y="373.8125"/><text fill="#000000" font-family="sans-serif" font-size="12" lengthAdjust="spacing" textLength="96" x="82.5" y="394.9512">Create Node ID,</text><text fill="#000000" font-family="sans-serif" font-size="12" font-style="italic" lengthAdjust="spacing" textLength="16" x="182.5" y="394.9512">p5</text><rect fill="#F1F1F1" height="33.9688" rx="12.5" ry="12.5" style="stroke:#181818;stroke-width:0.5;" width="136" x="72.5" y="427.7813"/><text fill="#000000" font-family="sans-serif" font-size="12" lengthAdjust="spacing" textLength="96" x="82.5" y="448.9199">Create Node ID,</text><text fill="#000000" font-family="sans-serif" font-size="12" font-style="italic" lengthAdjust="spacing" textLength="16" x="182.5" y="448.9199">p6</text><rect fill="#F1F1F1" height="33.9688" rx="12.5" ry="12.5" style="stroke:#181818;stroke-width:0.5;" width="136" x="72.5" y="481.75"/><text fill="#000000" font-family="sans-serif" font-size="12" lengthAdjust="spacing" textLength="96" x="82.5" y="502.8887">Create Node ID,</text><text fill="#000000" font-family="sans-serif" font-size="12" font-style="italic" lengthAdjust="spacing" textLength="16" x="182.5" y="502.8887">p7</text><rect fill="#F1F1F1" height="47.9375" rx="12.5" ry="12.5" style="stroke:#181818;stroke-width:0.5;" width="192" x="44.5" y="535.7188"/><text fill="#000000" font-family="sans-serif" font-size="12" lengthAdjust="spacing" textLength="75" x="54.5" y="556.8574">Add Edge to</text><text fill="#000000" font-family="sans-serif" font-size="12" font-style="italic" lengthAdjust="spacing" textLength="36" x="133.5" y="556.8574">graph</text><text fill="#000000" font-family="sans-serif" font-size="12" lengthAdjust="spacing" textLength="53" x="173.5" y="556.8574">between</text><text fill="#000000" font-family="sans-serif" font-size="12" font-style="italic" lengthAdjust="spacing" textLength="16" x="54.5" y="570.8262">p1</text><text fill="#000000" font-family="sans-serif" font-size="12" lengthAdjust="spacing" textLength="22" x="74.5" y="570.8262">and</text><text fill="#000000" font-family="sans-serif" font-size="12" font-style="italic" lengthAdjust="spacing" textLength="16" x="100.5" y="570.8262">p2</text><rect fill="#F1F1F1" height="47.9375" rx="12.5" ry="12.5" style="stroke:#181818;stroke-width:0.5;" width="192" x="44.5" y="603.6563"/><text fill="#000000" font-family="sans-serif" font-size="12" lengthAdjust="spacing" textLength="75" x="54.5" y="624.7949">Add Edge to</text><text fill="#000000" font-family="sans-serif" font-size="12" font-style="italic" lengthAdjust="spacing" textLength="36" x="133.5" y="624.7949">graph</text><text fill="#000000" font-family="sans-serif" font-size="12" lengthAdjust="spacing" textLength="53" x="173.5" y="624.7949">between</text><text fill="#000000" font-family="sans-serif" font-size="12" font-style="italic" lengthAdjust="spacing" textLength="16" x="54.5" y="638.7637">p1</text><text fill="#000000" font-family="sans-serif" font-size="12" lengthAdjust="spacing" textLength="22" x="74.5" y="638.7637">and</text><text fill="#000000" font-family="sans-serif" font-size="12" font-style="italic" lengthAdjust="spacing" textLength="16" x="100.5" y="638.7637">p3</text><rect fill="#F1F1F1" height="47.9375" rx="12.5" ry="12.5" style="stroke:#181818;stroke-width:0.5;" width="192" x="44.5" y="671.5938"/><text fill="#000000" font-family="sans-serif" font-size="12" lengthAdjust="spacing" textLength="75" x="54.5" y="692.7324">Add Edge to</text><text fill="#000000" font-family="sans-serif" font-size="12" font-style="italic" lengthAdjust="spacing" textLength="36" x="133.5" y="692.7324">graph</text><text fill="#000000" font-family="sans-serif" font-size="12" lengthAdjust="spacing" textLength="53" x="173.5" y="692.7324">between</text><text fill="#000000" font-family="sans-serif" font-size="12" font-style="italic" lengthAdjust="spacing" textLength="16" x="54.5" y="706.7012">p2</text><text fill="#000000" font-family="sans-serif" font-size="12" lengthAdjust="spacing" textLength="22" x="74.5" y="706.7012">and</text><text fill="#000000" font-family="sans-serif" font-size="12" font-style="italic" lengthAdjust="spacing" textLength="16" x="100.5" y="706.7012">p4</text><rect fill="#F1F1F1" height="47.9375" rx="12.5" ry="12.5" style="stroke:#181818;stroke-width:0.5;" width="192" x="44.5" y="739.5313"/><text fill="#000000" font-family="sans-serif" font-size="12" lengthAdjust="spacing" textLength="75" x="54.5" y="760.6699">Add Edge to</text><text fill="#000000" font-family="sans-serif" font-size="12" font-style="italic" lengthAdjust="spacing" textLength="36" x="133.5" y="760.6699">graph</text><text fill="#000000" font-family="sans-serif" font-size="12" lengthAdjust="spacing" textLength="53" x="173.5" y="760.6699">between</text><text fill="#000000" font-family="sans-serif" font-size="12" font-style="italic" lengthAdjust="spacing" textLength="16" x="54.5" y="774.6387">p3</text><text fill="#000000" font-family="sans-serif" font-size="12" lengthAdjust="spacing" textLength="22" x="74.5" y="774.6387">and</text><text fill="#000000" font-family="sans-serif" font-size="12" font-style="italic" lengthAdjust="spacing" textLength="16" x="100.5" y="774.6387">p5</text><rect fill="#F1F1F1" height="47.9375" rx="12.5" ry="12.5" style="stroke:#181818;stroke-width:0.5;" width="192" x="44.5" y="807.4688"/><text fill="#000000" font-family="sans-serif" font-size="12" lengthAdjust="spacing" textLength="75" x="54.5" y="828.6074">Add Edge to</text><text fill="#000000" font-family="sans-serif" font-size="12" font-style="italic" lengthAdjust="spacing" textLength="36" x="133.5" y="828.6074">graph</text><text fill="#000000" font-family="sans-serif" font-size="12" lengthAdjust="spacing" textLength="53" x="173.5" y="828.6074">between</text><text fill="#000000" font-family="sans-serif" font-size="12" font-style="italic" lengthAdjust="spacing" textLength="16" x="54.5" y="842.5762">p4</text><text fill="#000000" font-family="sans-serif" font-size="12" lengthAdjust="spacing" textLength="22" x="74.5" y="842.5762">and</text><text fill="#000000" font-family="sans-serif" font-size="12" font-style="italic" lengthAdjust="spacing" textLength="16" x="100.5" y="842.5762">p5</text><rect fill="#F1F1F1" height="47.9375" rx="12.5" ry="12.5" style="stroke:#181818;stroke-width:0.5;" width="192" x="44.5" y="875.4063"/><text fill="#000000" font-family="sans-serif" font-size="12" lengthAdjust="spacing" textLength="75" x="54.5" y="896.5449">Add Edge to</text><text fill="#000000" font-family="sans-serif" font-size="12" font-style="italic" lengthAdjust="spacing" textLength="36" x="133.5" y="896.5449">graph</text><text fill="#000000" font-family="sans-serif" font-size="12" lengthAdjust="spacing" textLength="53" x="173.5" y="896.5449">between</text><text fill="#000000" font-family="sans-serif" font-size="12" font-style="italic" lengthAdjust="spacing" textLength="16" x="54.5" y="910.5137">p4</text><text fill="#000000" font-family="sans-serif" font-size="12" lengthAdjust="spacing" textLength="22" x="74.5" y="910.5137">and</text><text fill="#000000" font-family="sans-serif" font-size="12" font-style="italic" lengthAdjust="spacing" textLength="16" x="100.5" y="910.5137">p6</text><rect fill="#F1F1F1" height="47.9375" rx="12.5" ry="12.5" style="stroke:#181818;stroke-width:0.5;" width="192" x="44.5" y="943.3438"/><text fill="#000000" font-family="sans-serif" font-size="12" lengthAdjust="spacing" textLength="75" x="54.5" y="964.4824">Add Edge to</text><text fill="#000000" font-family="sans-serif" font-size="12" font-style="italic" lengthAdjust="spacing" textLength="36" x="133.5" y="964.4824">graph</text><text fill="#000000" font-family="sans-serif" font-size="12" lengthAdjust="spacing" textLength="53" x="173.5" y="964.4824">between</text><text fill="#000000" font-family="sans-serif" font-size="12" font-style="italic" lengthAdjust="spacing" textLength="16" x="54.5" y="978.4512">p5</text><text fill="#000000" font-family="sans-serif" font-size="12" lengthAdjust="spacing" textLength="22" x="74.5" y="978.4512">and</text><text fill="#000000" font-family="sans-serif" font-size="12" font-style="italic" lengthAdjust="spacing" textLength="16" x="100.5" y="978.4512">p7</text><rect fill="#F1F1F1" height="47.9375" rx="12.5" ry="12.5" style="stroke:#181818;stroke-width:0.5;" width="192" x="44.5" y="1011.2813"/><text fill="#000000" font-family="sans-serif" font-size="12" lengthAdjust="spacing" textLength="75" x="54.5" y="1032.4199">Add Edge to</text><text fill="#000000" font-family="sans-serif" font-size="12" font-style="italic" lengthAdjust="spacing" textLength="36" x="133.5" y="1032.4199">graph</text><text fill="#000000" font-family="sans-serif" font-size="12" lengthAdjust="spacing" textLength="53" x="173.5" y="1032.4199">between</text><text fill="#000000" font-family="sans-serif" font-size="12" font-style="italic" lengthAdjust="spacing" textLength="16" x="54.5" y="1046.3887">p6</text><text fill="#000000" font-family="sans-serif" font-size="12" lengthAdjust="spacing" textLength="22" x="74.5" y="1046.3887">and</text><text fill="#000000" font-family="sans-serif" font-size="12" font-style="italic" lengthAdjust="spacing" textLength="16" x="100.5" y="1046.3887">p7</text><rect fill="#F1F1F1" height="47.9375" rx="12.5" ry="12.5" style="stroke:#181818;stroke-width:0.5;" width="240" x="20.5" y="1079.2188"/><text fill="#000000" font-family="sans-serif" font-size="12" lengthAdjust="spacing" textLength="179" x="30.5" y="1100.3574">Set oneof Attribute to true for</text><text fill="#000000" font-family="sans-serif" font-size="12" lengthAdjust="spacing" textLength="38" x="30.5" y="1114.3262">Edges</text><text fill="#000000" font-family="sans-serif" font-size="12" font-style="italic" lengthAdjust="spacing" textLength="32" x="72.5" y="1114.3262">p4p5</text><text fill="#000000" font-family="sans-serif" font-size="12" lengthAdjust="spacing" textLength="4" x="104.5" y="1114.3262">,</text><text fill="#000000" font-family="sans-serif" font-size="12" font-style="italic" lengthAdjust="spacing" textLength="32" x="112.5" y="1114.3262">p4p6</text><text fill="#000000" font-family="sans-serif" font-size="12" lengthAdjust="spacing" textLength="4" x="144.5" y="1114.3262">,</text><text fill="#000000" font-family="sans-serif" font-size="12" font-style="italic" lengthAdjust="spacing" textLength="32" x="152.5" y="1114.3262">p5p7</text><text fill="#000000" font-family="sans-serif" font-size="12" lengthAdjust="spacing" textLength="30" x="184.5" y="1114.3262">, and</text><text fill="#000000" font-family="sans-serif" font-size="12" font-style="italic" lengthAdjust="spacing" textLength="32" x="218.5" y="1114.3262">p6p7</text><rect fill="#F1F1F1" height="33.9688" rx="12.5" ry="12.5" style="stroke:#181818;stroke-width:0.5;" width="109" x="86" y="1147.1563"/><text fill="#000000" font-family="sans-serif" font-size="12" lengthAdjust="spacing" textLength="89" x="96" y="1168.2949">Return p1Node</text><ellipse cx="140.5" cy="1212.125" fill="none" rx="11" ry="11" style="stroke:#222222;stroke-width:1.0;"/><ellipse cx="140.5" cy="1212.125" fill="#222222" rx="6" ry="6" style="stroke:#222222;stroke-width:1.0;"/><line style="stroke:#181818;stroke-width:1.0;" x1="140.5" x2="140.5" y1="30" y2="50"/><polygon fill="#181818" points="136.5,40,140.5,50,144.5,40,140.5,44" style="stroke:#181818;stroke-width:1.0;"/><line style="stroke:#181818;stroke-width:1.0;" x1="140.5" x2="140.5" y1="83.9688" y2="103.9688"/><polygon fill="#181818" points="136.5,93.9688,140.5,103.9688,144.5,93.9688,140.5,97.9688" style="stroke:#181818;stroke-width:1.0;"/><line style="stroke:#181818;stroke-width:1.0;" x1="140.5" x2="140.5" y1="137.9375" y2="157.9375"/><polygon fill="#181818" points="136.5,147.9375,140.5,157.9375,144.5,147.9375,140.5,151.9375" style="stroke:#181818;stroke-width:1.0;"/><line style="stroke:#181818;stroke-width:1.0;" x1="140.5" x2="140.5" y1="191.9063" y2="211.9063"/><polygon fill="#181818" points="136.5,201.9063,140.5,211.9063,144.5,201.9063,140.5,205.9063" style="stroke:#181818;stroke-width:1.0;"/><line style="stroke:#181818;stroke-width:1.0;" x1="140.5" x2="140.5" y1="245.875" y2="265.875"/><polygon fill="#181818" points="136.5,255.875,140.5,265.875,144.5,255.875,140.5,259.875" style="stroke:#181818;stroke-width:1.0;"/><line style="stroke:#181818;stroke-width:1.0;" x1="140.5" x2="140.5" y1="299.8438" y2="319.8438"/><polygon fill="#181818" points="136.5,309.8438,140.5,319.8438,144.5,309.8438,140.5,313.8438" style="stroke:#181818;stroke-width:1.0;"/><line style="stroke:#181818;stroke-width:1.0;" x1="140.5" x2="140.5" y1="353.8125" y2="373.8125"/><polygon fill="#181818" points="136.5,363.8125,140.5,373.8125,144.5,363.8125,140.5,367.8125" style="stroke:#181818;stroke-width:1.0;"/><line style="stroke:#181818;stroke-width:1.0;" x1="140.5" x2="140.5" y1="407.7813" y2="427.7813"/><polygon fill="#181818" points="136.5,417.7813,140.5,427.7813,144.5,417.7813,140.5,421.7813" style="stroke:#181818;stroke-width:1.0;"/><line style="stroke:#181818;stroke-width:1.0;" x1="140.5" x2="140.5" y1="461.75" y2="481.75"/><polygon fill="#181818" points="136.5,471.75,140.5,481.75,144.5,471.75,140.5,475.75" style="stroke:#181818;stroke-width:1.0;"/><line style="stroke:#181818;stroke-width:1.0;" x1="140.5" x2="140.5" y1="515.7188" y2="535.7188"/><polygon fill="#181818" points="136.5,525.7188,140.5,535.7188,144.5,525.7188,140.5,529.7188" style="stroke:#181818;stroke-width:1.0;"/><line style="stroke:#181818;stroke-width:1.0;" x1="140.5" x2="140.5" y1="583.6563" y2="603.6563"/><polygon fill="#181818" points="136.5,593.6563,140.5,603.6563,144.5,593.6563,140.5,597.6563" style="stroke:#181818;stroke-width:1.0;"/><line style="stroke:#181818;stroke-width:1.0;" x1="140.5" x2="140.5" y1="651.5938" y2="671.5938"/><polygon fill="#181818" points="136.5,661.5938,140.5,671.5938,144.5,661.5938,140.5,665.5938" style="stroke:#181818;stroke-width:1.0;"/><line style="stroke:#181818;stroke-width:1.0;" x1="140.5" x2="140.5" y1="719.5313" y2="739.5313"/><polygon fill="#181818" points="136.5,729.5313,140.5,739.5313,144.5,729.5313,140.5,733.5313" style="stroke:#181818;stroke-width:1.0;"/><line style="stroke:#181818;stroke-width:1.0;" x1="140.5" x2="140.5" y1="787.4688" y2="807.4688"/><polygon fill="#181818" points="136.5,797.4688,140.5,807.4688,144.5,797.4688,140.5,801.4688" style="stroke:#181818;stroke-width:1.0;"/><line style="stroke:#181818;stroke-width:1.0;" x1="140.5" x2="140.5" y1="855.4063" y2="875.4063"/><polygon fill="#181818" points="136.5,865.4063,140.5,875.4063,144.5,865.4063,140.5,869.4063" style="stroke:#181818;stroke-width:1.0;"/><line style="stroke:#181818;stroke-width:1.0;" x1="140.5" x2="140.5" y1="923.3438" y2="943.3438"/><polygon fill="#181818" points="136.5,933.3438,140.5,943.3438,144.5,933.3438,140.5,937.3438" style="stroke:#181818;stroke-width:1.0;"/><line style="stroke:#181818;stroke-width:1.0;" x1="140.5" x2="140.5" y1="991.2813" y2="1011.2813"/><polygon fill="#181818" points="136.5,1001.2813,140.5,1011.2813,144.5,1001.2813,140.5,1005.2813" style="stroke:#181818;stroke-width:1.0;"/><line style="stroke:#181818;stroke-width:1.0;" x1="140.5" x2="140.5" y1="1059.2188" y2="1079.2188"/><polygon fill="#181818" points="136.5,1069.2188,140.5,1079.2188,144.5,1069.2188,140.5,1073.2188" style="stroke:#181818;stroke-width:1.0;"/><line style="stroke:#181818;stroke-width:1.0;" x1="140.5" x2="140.5" y1="1127.1563" y2="1147.1563"/><polygon fill="#181818" points="136.5,1137.1563,140.5,1147.1563,144.5,1137.1563,140.5,1141.1563" style="stroke:#181818;stroke-width:1.0;"/><line style="stroke:#181818;stroke-width:1.0;" x1="140.5" x2="140.5" y1="1181.125" y2="1201.125"/><polygon fill="#181818" points="136.5,1191.125,140.5,1201.125,144.5,1191.125,140.5,1195.125" style="stroke:#181818;stroke-width:1.0;"/><!--SRC=[fP9B2i8m48RtESKSG8dQXw0WYBfm8w9Ue9fHuoCfqobUtwOL2s8WuYxau_ipCvc2Cs8nMfCs34TBr-xaOhNfJXGUTA5jTReZdH1sccyu5gCPOSO8AwiGblCEI9dtfFmE-Zumy8781s8VI7mWzO5X3QPAmK9LZR6jBa-KvMSfOO_yG3IYAHuoezfoVp6YC6FG6d6O4RL64cR4_nXfc96qHk1qqqzZYmpMe3t2b9dqlkHQPYhHxIK85rVKatBFDKlXOfejS2cTTzMlp0roIGRolll-iIZOvay0]--></g></svg>