<?xml version="1.0" encoding="us-ascii" standalone="no"?><svg xmlns="http://www.w3.org/2000/svg" xmlns:xlink="http://www.w3.org/1999/xlink" contentStyleType="text/css" height="487px" preserveAspectRatio="none" style="width:354px;height:487px;background:#FFFFFF;" version="1.1" viewBox="0 0 354 487" width="354px" zoomAndPan="magnify"><defs/><g><ellipse cx="176" cy="20" fill="#222222" rx="10" ry="10" style="stroke:#222222;stroke-width:1.0;"/><rect fill="#F1F1F1" height="33.9688" rx="12.5" ry="12.5" style="stroke:#181818;stroke-width:0.5;" width="193" x="79.5" y="50"/><text fill="#000000" font-family="sans-serif" font-size="12" lengthAdjust="spacing" textLength="130" x="89.5" y="71.1387">Create Node HashSet</text><text fill="#000000" font-family="sans-serif" font-size="12" font-style="italic" lengthAdjust="spacing" textLength="39" x="223.5" y="71.1387">visited</text><rect fill="#F1F1F1" height="33.9688" rx="12.5" ry="12.5" style="stroke:#181818;stroke-width:0.5;" width="182" x="85" y="103.9688"/><text fill="#000000" font-family="sans-serif" font-size="12" lengthAdjust="spacing" textLength="146" x="95" y="125.1074">Create IObject HashMap</text><text fill="#000000" font-family="sans-serif" font-size="12" font-style="italic" lengthAdjust="spacing" textLength="12" x="245" y="125.1074">fn</text><rect fill="#F1F1F1" height="33.9688" rx="12.5" ry="12.5" style="stroke:#181818;stroke-width:0.5;" width="169" x="91.5" y="157.9375"/><text fill="#000000" font-family="sans-serif" font-size="12" lengthAdjust="spacing" textLength="130" x="101.5" y="179.0762">Create Optional Node</text><text fill="#000000" font-family="sans-serif" font-size="12" font-style="italic" lengthAdjust="spacing" textLength="15" x="235.5" y="179.0762">op</text><rect fill="#F1F1F1" height="33.9688" rx="12.5" ry="12.5" style="stroke:#181818;stroke-width:0.5;" width="280" x="36" y="255.9063"/><text fill="#000000" font-family="sans-serif" font-size="12" lengthAdjust="spacing" textLength="42" x="46" y="277.0449">Search</text><text fill="#000000" font-family="sans-serif" font-size="12" font-style="italic" lengthAdjust="spacing" textLength="36" x="92" y="277.0449">graph</text><text fill="#000000" font-family="sans-serif" font-size="12" lengthAdjust="spacing" textLength="174" x="132" y="277.0449">for Happens Before Function</text><rect fill="#F1F1F1" height="33.9688" rx="12.5" ry="12.5" style="stroke:#181818;stroke-width:0.5;" width="201" x="75.5" y="324.875"/><text fill="#000000" font-family="sans-serif" font-size="12" lengthAdjust="spacing" textLength="20" x="85.5" y="346.0137">Set</text><text fill="#000000" font-family="sans-serif" font-size="12" font-style="italic" lengthAdjust="spacing" textLength="15" x="109.5" y="346.0137">op</text><text fill="#000000" font-family="sans-serif" font-size="12" lengthAdjust="spacing" textLength="56" x="128.5" y="346.0137">to visited</text><text fill="#000000" font-family="sans-serif" font-size="12" font-style="italic" lengthAdjust="spacing" textLength="36" x="188.5" y="346.0137">graph</text><text fill="#000000" font-family="sans-serif" font-size="12" lengthAdjust="spacing" textLength="38" x="228.5" y="346.0137">nodes</text><polygon fill="#F1F1F1" points="132.5,211.9063,219.5,211.9063,231.5,223.9063,219.5,235.9063,132.5,235.9063,120.5,223.9063,132.5,211.9063" style="stroke:#181818;stroke-width:0.5;"/><text fill="#000000" font-family="sans-serif" font-size="11" font-style="italic" lengthAdjust="spacing" textLength="14" x="132.5" y="227.7144">op</text><text fill="#000000" font-family="sans-serif" font-size="11" lengthAdjust="spacing" textLength="69" x="150.5" y="227.7144">Has a Value</text><rect fill="#F1F1F1" height="33.9688" rx="12.5" ry="12.5" style="stroke:#181818;stroke-width:0.5;" width="74" x="139" y="400.8438"/><text fill="#000000" font-family="sans-serif" font-size="12" lengthAdjust="spacing" textLength="38" x="149" y="421.9824">Return</text><text fill="#000000" font-family="sans-serif" font-size="12" font-style="italic" lengthAdjust="spacing" textLength="12" x="191" y="421.9824">fn</text><ellipse cx="176" cy="465.8125" fill="none" rx="11" ry="11" style="stroke:#222222;stroke-width:1.0;"/><ellipse cx="176" cy="465.8125" fill="#222222" rx="6" ry="6" style="stroke:#222222;stroke-width:1.0;"/><line style="stroke:#181818;stroke-width:1.0;" x1="176" x2="176" y1="30" y2="50"/><polygon fill="#181818" points="172,40,176,50,180,40,176,44" style="stroke:#181818;stroke-width:1.0;"/><line style="stroke:#181818;stroke-width:1.0;" x1="176" x2="176" y1="83.9688" y2="103.9688"/><polygon fill="#181818" points="172,93.9688,176,103.9688,180,93.9688,176,97.9688" style="stroke:#181818;stroke-width:1.0;"/><line style="stroke:#181818;stroke-width:1.0;" x1="176" x2="176" y1="137.9375" y2="157.9375"/><polygon fill="#181818" points="172,147.9375,176,157.9375,180,147.9375,176,151.9375" style="stroke:#181818;stroke-width:1.0;"/><line style="stroke:#181818;stroke-width:1.0;" x1="176" x2="176" y1="289.875" y2="324.875"/><polygon fill="#181818" points="172,314.875,176,324.875,180,314.875,176,318.875" style="stroke:#181818;stroke-width:1.0;"/><line style="stroke:#181818;stroke-width:1.0;" x1="176" x2="176" y1="235.9063" y2="255.9063"/><polygon fill="#181818" points="172,245.9063,176,255.9063,180,245.9063,176,249.9063" style="stroke:#181818;stroke-width:1.0;"/><line style="stroke:#181818;stroke-width:1.0;" x1="176" x2="176" y1="358.8438" y2="368.8438"/><line style="stroke:#181818;stroke-width:1.0;" x1="176" x2="328" y1="368.8438" y2="368.8438"/><polygon fill="#181818" points="324,305.375,328,295.375,332,305.375,328,301.375" style="stroke:#181818;stroke-width:1.0;"/><line style="stroke:#181818;stroke-width:1.0;" x1="328" x2="328" y1="223.9063" y2="368.8438"/><line style="stroke:#181818;stroke-width:1.0;" x1="328" x2="231.5" y1="223.9063" y2="223.9063"/><polygon fill="#181818" points="241.5,219.9063,231.5,223.9063,241.5,227.9063,237.5,223.9063" style="stroke:#181818;stroke-width:1.0;"/><line style="stroke:#181818;stroke-width:1.0;" x1="120.5" x2="24" y1="223.9063" y2="223.9063"/><polygon fill="#181818" points="20,291.375,24,301.375,28,291.375,24,295.375" style="stroke:#181818;stroke-width:1.0;"/><line style="stroke:#181818;stroke-width:1.0;" x1="24" x2="24" y1="223.9063" y2="380.8438"/><line style="stroke:#181818;stroke-width:1.0;" x1="24" x2="176" y1="380.8438" y2="380.8438"/><line style="stroke:#181818;stroke-width:1.0;" x1="176" x2="176" y1="380.8438" y2="400.8438"/><polygon fill="#181818" points="172,390.8438,176,400.8438,180,390.8438,176,394.8438" style="stroke:#181818;stroke-width:1.0;"/><line style="stroke:#181818;stroke-width:1.0;" x1="176" x2="176" y1="191.9063" y2="211.9063"/><polygon fill="#181818" points="172,201.9063,176,211.9063,180,201.9063,176,205.9063" style="stroke:#181818;stroke-width:1.0;"/><line style="stroke:#181818;stroke-width:1.0;" x1="176" x2="176" y1="434.8125" y2="454.8125"/><polygon fill="#181818" points="172,444.8125,176,454.8125,180,444.8125,176,448.8125" style="stroke:#181818;stroke-width:1.0;"/><!--SRC=[JOwz3i8m38JtF8L7cBAt6qW81gX49NRJkYIeSgp4XTSdQL7LyNJV_IJ5gAOwHa8bk8MUu8p9jQHWxSSdhzHRMw_4fNc-gTCPkg9aQE2jtuZwm3WkLTO6AUxN-P5sYofHG7ZWED7UL2rXx5mcNn75PNi8CICYn0aEb1N1QUAkrDO5rtyhQ83_mKsQysog3N4_RvhgJZf5Ndyc3V83]--></g></svg>