<?xml version="1.0" encoding="us-ascii" standalone="no"?><svg xmlns="http://www.w3.org/2000/svg" xmlns:xlink="http://www.w3.org/1999/xlink" contentStyleType="text/css" height="190px" preserveAspectRatio="none" style="width:118px;height:190px;background:#FFFFFF;" version="1.1" viewBox="0 0 118 190" width="118px" zoomAndPan="magnify"><defs/><g><ellipse cx="59" cy="20" fill="#222222" rx="10" ry="10" style="stroke:#222222;stroke-width:1.0;"/><rect fill="#F1F1F1" height="33.9688" rx="12.5" ry="12.5" style="stroke:#181818;stroke-width:0.5;" width="79" x="19.5" y="50"/><text fill="#000000" font-family="sans-serif" font-size="12" lengthAdjust="spacing" textLength="59" x="29.5" y="71.1387">Get Name</text><rect fill="#F1F1F1" height="33.9688" rx="12.5" ry="12.5" style="stroke:#181818;stroke-width:0.5;" width="96" x="11" y="103.9688"/><text fill="#000000" font-family="sans-serif" font-size="12" lengthAdjust="spacing" textLength="76" x="21" y="125.1074">Return Name</text><ellipse cx="59" cy="168.9375" fill="none" rx="11" ry="11" style="stroke:#222222;stroke-width:1.0;"/><ellipse cx="59" cy="168.9375" fill="#222222" rx="6" ry="6" style="stroke:#222222;stroke-width:1.0;"/><line style="stroke:#181818;stroke-width:1.0;" x1="59" x2="59" y1="30" y2="50"/><polygon fill="#181818" points="55,40,59,50,63,40,59,44" style="stroke:#181818;stroke-width:1.0;"/><line style="stroke:#181818;stroke-width:1.0;" x1="59" x2="59" y1="83.9688" y2="103.9688"/><polygon fill="#181818" points="55,93.9688,59,103.9688,63,93.9688,59,97.9688" style="stroke:#181818;stroke-width:1.0;"/><line style="stroke:#181818;stroke-width:1.0;" x1="59" x2="59" y1="137.9375" y2="157.9375"/><polygon fill="#181818" points="55,147.9375,59,157.9375,63,147.9375,59,151.9375" style="stroke:#181818;stroke-width:1.0;"/><!--SRC=[Aov9B2hXid9FBL7mIynDjUQo2aejAItAW_AAI_8B0000]--></g></svg>