<?xml version="1.0" encoding="us-ascii" standalone="no"?><svg xmlns="http://www.w3.org/2000/svg" xmlns:xlink="http://www.w3.org/1999/xlink" contentStyleType="text/css" height="369px" preserveAspectRatio="none" style="width:318px;height:369px;background:#FFFFFF;" version="1.1" viewBox="0 0 318 369" width="318px" zoomAndPan="magnify"><defs/><g><ellipse cx="159" cy="20" fill="#222222" rx="10" ry="10" style="stroke:#222222;stroke-width:1.0;"/><rect fill="#F1F1F1" height="33.9688" rx="12.5" ry="12.5" style="stroke:#181818;stroke-width:0.5;" width="106" x="106" y="142.4023"/><text fill="#000000" font-family="sans-serif" font-size="12" lengthAdjust="spacing" textLength="86" x="116" y="163.541">Return Module</text><ellipse cx="159" cy="207.3711" fill="none" rx="11" ry="11" style="stroke:#222222;stroke-width:1.0;"/><ellipse cx="159" cy="207.3711" fill="#222222" rx="6" ry="6" style="stroke:#222222;stroke-width:1.0;"/><polygon fill="#F1F1F1" points="48,94,270,94,282,106,270,118,48,118,36,106,48,94" style="stroke:#181818;stroke-width:0.5;"/><text fill="#000000" font-family="sans-serif" font-size="11" lengthAdjust="spacing" textLength="21" x="163" y="128.2104">yes</text><text fill="#000000" font-family="sans-serif" font-size="11" lengthAdjust="spacing" textLength="222" x="48" y="109.8081">Current Module == Module Looking For</text><polygon fill="#F1F1F1" points="85.5,50,232.5,50,244.5,62,232.5,74,85.5,74,73.5,62,85.5,50" style="stroke:#181818;stroke-width:0.5;"/><text fill="#000000" font-family="sans-serif" font-size="11" lengthAdjust="spacing" textLength="147" x="85.5" y="65.8081">For All Modules in module</text><rect fill="#F1F1F1" height="33.9688" rx="12.5" ry="12.5" style="stroke:#181818;stroke-width:0.5;" width="82" x="118" y="282.3711"/><text fill="#000000" font-family="sans-serif" font-size="12" lengthAdjust="spacing" textLength="62" x="128" y="303.5098">Return null</text><ellipse cx="159" cy="347.3398" fill="none" rx="11" ry="11" style="stroke:#222222;stroke-width:1.0;"/><ellipse cx="159" cy="347.3398" fill="#222222" rx="6" ry="6" style="stroke:#222222;stroke-width:1.0;"/><line style="stroke:#181818;stroke-width:1.0;" x1="159" x2="159" y1="176.3711" y2="196.3711"/><polygon fill="#181818" points="155,186.3711,159,196.3711,163,186.3711,159,190.3711" style="stroke:#181818;stroke-width:1.0;"/><line style="stroke:#181818;stroke-width:1.0;" x1="159" x2="159" y1="118" y2="142.4023"/><polygon fill="#181818" points="155,132.4023,159,142.4023,163,132.4023,159,136.4023" style="stroke:#181818;stroke-width:1.0;"/><line style="stroke:#181818;stroke-width:1.0;" x1="282" x2="306" y1="106" y2="106"/><line style="stroke:#181818;stroke-width:1.0;" x1="306" x2="306" y1="62" y2="106"/><line style="stroke:#181818;stroke-width:1.0;" x1="306" x2="244.5" y1="62" y2="62"/><polygon fill="#181818" points="254.5,58,244.5,62,254.5,66,250.5,62" style="stroke:#181818;stroke-width:1.0;"/><line style="stroke:#181818;stroke-width:1.0;" x1="159" x2="159" y1="74" y2="94"/><polygon fill="#181818" points="155,84,159,94,163,84,159,88" style="stroke:#181818;stroke-width:1.0;"/><line style="stroke:#181818;stroke-width:1.0;" x1="73.5" x2="24" y1="62" y2="62"/><polygon fill="#181818" points="20,162.8867,24,172.8867,28,162.8867,24,166.8867" style="stroke:#181818;stroke-width:1.0;"/><line style="stroke:#181818;stroke-width:1.0;" x1="24" x2="24" y1="62" y2="262.3711"/><line style="stroke:#181818;stroke-width:1.0;" x1="24" x2="159" y1="262.3711" y2="262.3711"/><line style="stroke:#181818;stroke-width:1.0;" x1="159" x2="159" y1="262.3711" y2="282.3711"/><polygon fill="#181818" points="155,272.3711,159,282.3711,163,272.3711,159,276.3711" style="stroke:#181818;stroke-width:1.0;"/><line style="stroke:#181818;stroke-width:1.0;" x1="159" x2="159" y1="30" y2="50"/><polygon fill="#181818" points="155,40,159,50,163,40,159,44" style="stroke:#181818;stroke-width:1.0;"/><line style="stroke:#181818;stroke-width:1.0;" x1="159" x2="159" y1="316.3398" y2="336.3398"/><polygon fill="#181818" points="155,326.3398,159,336.3398,163,326.3398,159,330.3398" style="stroke:#181818;stroke-width:1.0;"/><!--SRC=[FOr12i9034NtEKMMCrTGkf22gxhn1a9J6qmJoMIGtjvQssu-3_xx_18F3_YCB9IkvdWHmPlrLQWWAquhPk01KrlTIMEhiMbswinUh4zSzXbZ9CKqKybmkbDKrqqxGmbx0sdFmo_NpyFHAl8tlW00]--></g></svg>