<?xml version="1.0" encoding="us-ascii" standalone="no"?><svg xmlns="http://www.w3.org/2000/svg" xmlns:xlink="http://www.w3.org/1999/xlink" contentStyleType="text/css" height="298px" preserveAspectRatio="none" style="width:267px;height:298px;background:#FFFFFF;" version="1.1" viewBox="0 0 267 298" width="267px" zoomAndPan="magnify"><defs/><g><ellipse cx="133.5" cy="20" fill="#222222" rx="10" ry="10" style="stroke:#222222;stroke-width:1.0;"/><rect fill="#F1F1F1" height="33.9688" rx="12.5" ry="12.5" style="stroke:#181818;stroke-width:0.5;" width="192" x="37.5" y="50"/><text fill="#000000" font-family="sans-serif" font-size="12" lengthAdjust="spacing" textLength="172" x="47.5" y="71.1387">Create new CommandScope</text><rect fill="#F1F1F1" height="33.9688" rx="12.5" ry="12.5" style="stroke:#181818;stroke-width:0.5;" width="245" x="11" y="103.9688"/><text fill="#000000" font-family="sans-serif" font-size="12" lengthAdjust="spacing" textLength="225" x="21" y="125.1074">Create Iterable from CommandScope</text><rect fill="#F1F1F1" height="33.9688" rx="12.5" ry="12.5" style="stroke:#181818;stroke-width:0.5;" width="154" x="56.5" y="157.9375"/><text fill="#000000" font-family="sans-serif" font-size="12" lengthAdjust="spacing" textLength="134" x="66.5" y="179.0762">Create New Command</text><rect fill="#F1F1F1" height="33.9688" rx="12.5" ry="12.5" style="stroke:#181818;stroke-width:0.5;" width="49" x="109" y="211.9063"/><text fill="#000000" font-family="sans-serif" font-size="12" lengthAdjust="spacing" textLength="29" x="119" y="233.0449">RunX</text><ellipse cx="133.5" cy="276.875" fill="none" rx="11" ry="11" style="stroke:#222222;stroke-width:1.0;"/><ellipse cx="133.5" cy="276.875" fill="#222222" rx="6" ry="6" style="stroke:#222222;stroke-width:1.0;"/><line style="stroke:#181818;stroke-width:1.0;" x1="133.5" x2="133.5" y1="30" y2="50"/><polygon fill="#181818" points="129.5,40,133.5,50,137.5,40,133.5,44" style="stroke:#181818;stroke-width:1.0;"/><line style="stroke:#181818;stroke-width:1.0;" x1="133.5" x2="133.5" y1="83.9688" y2="103.9688"/><polygon fill="#181818" points="129.5,93.9688,133.5,103.9688,137.5,93.9688,133.5,97.9688" style="stroke:#181818;stroke-width:1.0;"/><line style="stroke:#181818;stroke-width:1.0;" x1="133.5" x2="133.5" y1="137.9375" y2="157.9375"/><polygon fill="#181818" points="129.5,147.9375,133.5,157.9375,137.5,147.9375,133.5,151.9375" style="stroke:#181818;stroke-width:1.0;"/><line style="stroke:#181818;stroke-width:1.0;" x1="133.5" x2="133.5" y1="191.9063" y2="211.9063"/><polygon fill="#181818" points="129.5,201.9063,133.5,211.9063,137.5,201.9063,133.5,205.9063" style="stroke:#181818;stroke-width:1.0;"/><line style="stroke:#181818;stroke-width:1.0;" x1="133.5" x2="133.5" y1="245.875" y2="265.875"/><polygon fill="#181818" points="129.5,255.875,133.5,265.875,137.5,255.875,133.5,259.875" style="stroke:#181818;stroke-width:1.0;"/><!--SRC=[Aov9B2hXid8kIaqiILN8IorNSCxFpKtCImbEpYz8jORBU9Qa5YKcvQGgf1Nbv-9GuuVG3HGCAisBiEOgBial0000]--></g></svg>