<?xml version="1.0" encoding="us-ascii" standalone="no"?><svg xmlns="http://www.w3.org/2000/svg" xmlns:xlink="http://www.w3.org/1999/xlink" contentStyleType="text/css" height="228px" preserveAspectRatio="none" style="width:391px;height:228px;background:#FFFFFF;" version="1.1" viewBox="0 0 391 228" width="391px" zoomAndPan="magnify"><defs/><g><ellipse cx="197" cy="20" fill="#222222" rx="10" ry="10" style="stroke:#222222;stroke-width:1.0;"/><polygon fill="#F1F1F1" points="80,50,314,50,326,75.6094,314,101.2188,80,101.2188,68,75.6094,80,50" style="stroke:#181818;stroke-width:0.5;"/><text fill="#000000" font-family="sans-serif" font-size="11" lengthAdjust="spacing" textLength="132" x="80" y="60.2104">parentName == null or</text><text fill="#000000" font-family="sans-serif" font-size="11" lengthAdjust="spacing" textLength="234" x="80" y="73.0151">parentName == "BehaviorOccurence" or</text><text fill="#000000" font-family="sans-serif" font-size="11" lengthAdjust="spacing" textLength="187" x="80" y="85.8198">parentName == "Occurrence" or</text><text fill="#000000" font-family="sans-serif" font-size="11" lengthAdjust="spacing" textLength="157" x="80" y="98.6245">parentName == "Anything"</text><text fill="#000000" font-family="sans-serif" font-size="11" lengthAdjust="spacing" textLength="21" x="47" y="73.0151">yes</text><text fill="#000000" font-family="sans-serif" font-size="11" lengthAdjust="spacing" textLength="14" x="326" y="73.0151">no</text><rect fill="#F1F1F1" height="33.9688" rx="12.5" ry="12.5" style="stroke:#181818;stroke-width:0.5;" width="94" x="11" y="111.2188"/><text fill="#000000" font-family="sans-serif" font-size="12" lengthAdjust="spacing" textLength="74" x="21" y="132.3574">Return False</text><rect fill="#F1F1F1" height="33.9688" rx="12.5" ry="12.5" style="stroke:#181818;stroke-width:0.5;" width="89" x="291.5" y="111.2188"/><text fill="#000000" font-family="sans-serif" font-size="12" lengthAdjust="spacing" textLength="69" x="301.5" y="132.3574">Return True</text><polygon fill="#F1F1F1" points="197,151.1875,209,163.1875,197,175.1875,185,163.1875,197,151.1875" style="stroke:#181818;stroke-width:0.5;"/><ellipse cx="197" cy="206.1875" fill="none" rx="11" ry="11" style="stroke:#222222;stroke-width:1.0;"/><ellipse cx="197" cy="206.1875" fill="#222222" rx="6" ry="6" style="stroke:#222222;stroke-width:1.0;"/><line style="stroke:#181818;stroke-width:1.0;" x1="68" x2="58" y1="75.6094" y2="75.6094"/><line style="stroke:#181818;stroke-width:1.0;" x1="58" x2="58" y1="75.6094" y2="111.2188"/><polygon fill="#181818" points="54,101.2188,58,111.2188,62,101.2188,58,105.2188" style="stroke:#181818;stroke-width:1.0;"/><line style="stroke:#181818;stroke-width:1.0;" x1="326" x2="336" y1="75.6094" y2="75.6094"/><line style="stroke:#181818;stroke-width:1.0;" x1="336" x2="336" y1="75.6094" y2="111.2188"/><polygon fill="#181818" points="332,101.2188,336,111.2188,340,101.2188,336,105.2188" style="stroke:#181818;stroke-width:1.0;"/><line style="stroke:#181818;stroke-width:1.0;" x1="58" x2="58" y1="145.1875" y2="163.1875"/><line style="stroke:#181818;stroke-width:1.0;" x1="58" x2="185" y1="163.1875" y2="163.1875"/><polygon fill="#181818" points="175,159.1875,185,163.1875,175,167.1875,179,163.1875" style="stroke:#181818;stroke-width:1.0;"/><line style="stroke:#181818;stroke-width:1.0;" x1="336" x2="336" y1="145.1875" y2="163.1875"/><line style="stroke:#181818;stroke-width:1.0;" x1="336" x2="209" y1="163.1875" y2="163.1875"/><polygon fill="#181818" points="219,159.1875,209,163.1875,219,167.1875,215,163.1875" style="stroke:#181818;stroke-width:1.0;"/><line style="stroke:#181818;stroke-width:1.0;" x1="197" x2="197" y1="30" y2="50"/><polygon fill="#181818" points="193,40,197,50,201,40,197,44" style="stroke:#181818;stroke-width:1.0;"/><line style="stroke:#181818;stroke-width:1.0;" x1="197" x2="197" y1="175.1875" y2="195.1875"/><polygon fill="#181818" points="193,185.1875,197,195.1875,201,185.1875,197,189.1875" style="stroke:#181818;stroke-width:1.0;"/><!--SRC=[TSen3i8m38NXtQUmCgLN07M0WR58Y0jOgKiYfKxbE4YzFQKBGeBb3T__gf4QfCalf2msqCpOzoWjPomAt-hE7EcPYbv3Q5i8x7wSzlYtdcIrcEJXEhJ8Wdxbsi7XnjPKy4AvyX5uMo_butTjRvOnJL2jB2y0]--></g></svg>