<?xml version="1.0" encoding="us-ascii" standalone="no"?><svg xmlns="http://www.w3.org/2000/svg" xmlns:xlink="http://www.w3.org/1999/xlink" contentStyleType="text/css" height="528px" preserveAspectRatio="none" style="width:262px;height:528px;background:#FFFFFF;" version="1.1" viewBox="0 0 262 528" width="262px" zoomAndPan="magnify"><defs/><g><ellipse cx="131" cy="20" fill="#222222" rx="10" ry="10" style="stroke:#222222;stroke-width:1.0;"/><rect fill="#F1F1F1" height="33.9688" rx="12.5" ry="12.5" style="stroke:#181818;stroke-width:0.5;" width="224" x="19" y="50"/><text fill="#000000" font-family="sans-serif" font-size="12" lengthAdjust="spacing" textLength="204" x="29" y="71.1387">Get nonZeroDurationOnlyFunction</text><rect fill="#F1F1F1" height="33.9688" rx="12.5" ry="12.5" style="stroke:#181818;stroke-width:0.5;" width="224" x="19" y="103.9688"/><text fill="#000000" font-family="sans-serif" font-size="12" lengthAdjust="spacing" textLength="204" x="29" y="125.1074">Call nonZeroDurationOnlyFunction</text><rect fill="#F1F1F1" height="33.9688" rx="12.5" ry="12.5" style="stroke:#181818;stroke-width:0.5;" width="149" x="56.5" y="157.9375"/><text fill="#000000" font-family="sans-serif" font-size="12" lengthAdjust="spacing" textLength="129" x="66.5" y="179.0762">Get Transfer Function</text><rect fill="#F1F1F1" height="33.9688" rx="12.5" ry="12.5" style="stroke:#181818;stroke-width:0.5;" width="221" x="20.5" y="211.9063"/><text fill="#000000" font-family="sans-serif" font-size="12" lengthAdjust="spacing" textLength="201" x="30.5" y="233.0449">Create suppressTransferFunction</text><rect fill="#F1F1F1" height="33.9688" rx="12.5" ry="12.5" style="stroke:#181818;stroke-width:0.5;" width="159" x="51.5" y="265.875"/><text fill="#000000" font-family="sans-serif" font-size="12" lengthAdjust="spacing" textLength="139" x="61.5" y="287.0137">Call suppressTransfers</text><rect fill="#F1F1F1" height="33.9688" rx="12.5" ry="12.5" style="stroke:#181818;stroke-width:0.5;" width="193" x="34.5" y="319.8438"/><text fill="#000000" font-family="sans-serif" font-size="12" lengthAdjust="spacing" textLength="173" x="44.5" y="340.9824">Get Inputs/Outputs Functions</text><rect fill="#F1F1F1" height="33.9688" rx="12.5" ry="12.5" style="stroke:#181818;stroke-width:0.5;" width="180" x="41" y="373.8125"/><text fill="#000000" font-family="sans-serif" font-size="12" lengthAdjust="spacing" textLength="160" x="51" y="394.9512">Call suppressI/O Functions</text><rect fill="#F1F1F1" height="47.9375" rx="12.5" ry="12.5" style="stroke:#181818;stroke-width:0.5;" width="240" x="11" y="427.7813"/><text fill="#000000" font-family="sans-serif" font-size="12" lengthAdjust="spacing" textLength="220" x="21" y="448.9199">Return nonZero, suppressTransfers,</text><text fill="#000000" font-family="sans-serif" font-size="12" lengthAdjust="spacing" textLength="174" x="21" y="462.8887">and suppressIO Expressions</text><ellipse cx="131" cy="506.7188" fill="none" rx="11" ry="11" style="stroke:#222222;stroke-width:1.0;"/><ellipse cx="131" cy="506.7188" fill="#222222" rx="6" ry="6" style="stroke:#222222;stroke-width:1.0;"/><line style="stroke:#181818;stroke-width:1.0;" x1="131" x2="131" y1="30" y2="50"/><polygon fill="#181818" points="127,40,131,50,135,40,131,44" style="stroke:#181818;stroke-width:1.0;"/><line style="stroke:#181818;stroke-width:1.0;" x1="131" x2="131" y1="83.9688" y2="103.9688"/><polygon fill="#181818" points="127,93.9688,131,103.9688,135,93.9688,131,97.9688" style="stroke:#181818;stroke-width:1.0;"/><line style="stroke:#181818;stroke-width:1.0;" x1="131" x2="131" y1="137.9375" y2="157.9375"/><polygon fill="#181818" points="127,147.9375,131,157.9375,135,147.9375,131,151.9375" style="stroke:#181818;stroke-width:1.0;"/><line style="stroke:#181818;stroke-width:1.0;" x1="131" x2="131" y1="191.9063" y2="211.9063"/><polygon fill="#181818" points="127,201.9063,131,211.9063,135,201.9063,131,205.9063" style="stroke:#181818;stroke-width:1.0;"/><line style="stroke:#181818;stroke-width:1.0;" x1="131" x2="131" y1="245.875" y2="265.875"/><polygon fill="#181818" points="127,255.875,131,265.875,135,255.875,131,259.875" style="stroke:#181818;stroke-width:1.0;"/><line style="stroke:#181818;stroke-width:1.0;" x1="131" x2="131" y1="299.8438" y2="319.8438"/><polygon fill="#181818" points="127,309.8438,131,319.8438,135,309.8438,131,313.8438" style="stroke:#181818;stroke-width:1.0;"/><line style="stroke:#181818;stroke-width:1.0;" x1="131" x2="131" y1="353.8125" y2="373.8125"/><polygon fill="#181818" points="127,363.8125,131,373.8125,135,363.8125,131,367.8125" style="stroke:#181818;stroke-width:1.0;"/><line style="stroke:#181818;stroke-width:1.0;" x1="131" x2="131" y1="407.7813" y2="427.7813"/><polygon fill="#181818" points="127,417.7813,131,427.7813,135,417.7813,131,421.7813" style="stroke:#181818;stroke-width:1.0;"/><line style="stroke:#181818;stroke-width:1.0;" x1="131" x2="131" y1="475.7188" y2="495.7188"/><polygon fill="#181818" points="127,485.7188,131,495.7188,135,485.7188,131,489.7188" style="stroke:#181818;stroke-width:1.0;"/><!--SRC=[XOuv2iCm44LxdK87CBXtocou4eHKxePa0W4n4hD0V7kZ9CuY5wxcm__lCQB0wheZggT40tBQ6OFU4mMAuy7eKlB6TLk8SMLI96S6aXko_qKPGT6BvSmeCazgUTtBMzbJDfKsc9Rx4KlDzMtuAq-enZJ_t2pzZGEwVl7WzuzdUl6YAKy0]--></g></svg>