<?xml version="1.0" encoding="us-ascii" standalone="no"?><svg xmlns="http://www.w3.org/2000/svg" xmlns:xlink="http://www.w3.org/1999/xlink" contentStyleType="text/css" height="308px" preserveAspectRatio="none" style="width:303px;height:308px;background:#FFFFFF;" version="1.1" viewBox="0 0 303 308" width="303px" zoomAndPan="magnify"><defs/><g><ellipse cx="150" cy="20" fill="#222222" rx="10" ry="10" style="stroke:#222222;stroke-width:1.0;"/><rect fill="#F1F1F1" height="33.9688" rx="12.5" ry="12.5" style="stroke:#181818;stroke-width:0.5;" width="168" x="66" y="94"/><text fill="#000000" font-family="sans-serif" font-size="12" lengthAdjust="spacing" textLength="148" x="76" y="115.1387">Print Sub node and class</text><rect fill="#F1F1F1" height="33.9688" rx="12.5" ry="12.5" style="stroke:#181818;stroke-width:0.5;" width="159" x="70.5" y="196.3711"/><text fill="#000000" font-family="sans-serif" font-size="12" lengthAdjust="spacing" textLength="139" x="80.5" y="217.5098">printExpr with subnode</text><polygon fill="#F1F1F1" points="59,147.9688,241,147.9688,253,159.9688,241,171.9688,59,171.9688,47,159.9688,59,147.9688" style="stroke:#181818;stroke-width:0.5;"/><text fill="#000000" font-family="sans-serif" font-size="11" lengthAdjust="spacing" textLength="21" x="154" y="182.1792">yes</text><text fill="#000000" font-family="sans-serif" font-size="11" lengthAdjust="spacing" textLength="182" x="59" y="163.7769">subnode has nested subnodes?</text><polygon fill="#F1F1F1" points="150,250.3398,162,262.3398,150,274.3398,138,262.3398,150,250.3398" style="stroke:#181818;stroke-width:0.5;"/><polygon fill="#F1F1F1" points="71,50,229,50,241,62,229,74,71,74,59,62,71,50" style="stroke:#181818;stroke-width:0.5;"/><text fill="#000000" font-family="sans-serif" font-size="11" lengthAdjust="spacing" textLength="158" x="71" y="65.8081">for all expression subnodes</text><text fill="#000000" font-family="sans-serif" font-size="11" lengthAdjust="spacing" textLength="37" x="22" y="59.4058">empty</text><ellipse cx="24" cy="105" fill="none" rx="11" ry="11" style="stroke:#222222;stroke-width:1.0;"/><ellipse cx="24" cy="105" fill="#222222" rx="6" ry="6" style="stroke:#222222;stroke-width:1.0;"/><line style="stroke:#181818;stroke-width:1.0;" x1="150" x2="150" y1="171.9688" y2="196.3711"/><polygon fill="#181818" points="146,186.3711,150,196.3711,154,186.3711,150,190.3711" style="stroke:#181818;stroke-width:1.0;"/><line style="stroke:#181818;stroke-width:1.0;" x1="253" x2="265" y1="159.9688" y2="159.9688"/><polygon fill="#181818" points="261,203.3555,265,213.3555,269,203.3555,265,207.3555" style="stroke:#181818;stroke-width:1.0;"/><line style="stroke:#181818;stroke-width:1.0;" x1="265" x2="265" y1="159.9688" y2="262.3398"/><line style="stroke:#181818;stroke-width:1.0;" x1="265" x2="162" y1="262.3398" y2="262.3398"/><polygon fill="#181818" points="172,258.3398,162,262.3398,172,266.3398,168,262.3398" style="stroke:#181818;stroke-width:1.0;"/><line style="stroke:#181818;stroke-width:1.0;" x1="150" x2="150" y1="230.3398" y2="250.3398"/><polygon fill="#181818" points="146,240.3398,150,250.3398,154,240.3398,150,244.3398" style="stroke:#181818;stroke-width:1.0;"/><line style="stroke:#181818;stroke-width:1.0;" x1="150" x2="150" y1="127.9688" y2="147.9688"/><polygon fill="#181818" points="146,137.9688,150,147.9688,154,137.9688,150,141.9688" style="stroke:#181818;stroke-width:1.0;"/><line style="stroke:#181818;stroke-width:1.0;" x1="150" x2="150" y1="74" y2="94"/><polygon fill="#181818" points="146,84,150,94,154,84,150,88" style="stroke:#181818;stroke-width:1.0;"/><line style="stroke:#181818;stroke-width:1.0;" x1="150" x2="150" y1="274.3398" y2="284.3398"/><line style="stroke:#181818;stroke-width:1.0;" x1="150" x2="277" y1="284.3398" y2="284.3398"/><polygon fill="#181818" points="273,176.8711,277,166.8711,281,176.8711,277,172.8711" style="stroke:#181818;stroke-width:1.0;"/><line style="stroke:#181818;stroke-width:1.0;" x1="277" x2="277" y1="62" y2="284.3398"/><line style="stroke:#181818;stroke-width:1.0;" x1="277" x2="241" y1="62" y2="62"/><polygon fill="#181818" points="251,58,241,62,251,66,247,62" style="stroke:#181818;stroke-width:1.0;"/><line style="stroke:#181818;stroke-width:1.0;" x1="59" x2="24" y1="62" y2="62"/><line style="stroke:#181818;stroke-width:1.0;" x1="24" x2="24" y1="62" y2="94"/><polygon fill="#181818" points="20,84,24,94,28,84,24,88" style="stroke:#181818;stroke-width:1.0;"/><line style="stroke:#181818;stroke-width:1.0;" x1="150" x2="150" y1="30" y2="50"/><polygon fill="#181818" points="146,40,150,50,154,40,150,44" style="stroke:#181818;stroke-width:1.0;"/><!--SRC=[FOwn3i8m44FtV8N7z1VemCIEn1UavAAS52vHxghIlwUfWCM3PJzRBNHpM-P2FjMEK0hetJgfSXNekaYDf9Ext3kBuR4k60w2H3nBK9qT9__D8GU5a1h5V_KwmJ89_7vYsi3SZWLiRFcNcXr9v3Jq_09FhsRxvDHg-m00]--></g></svg>