<?xml version="1.0" encoding="us-ascii" standalone="no"?><svg xmlns="http://www.w3.org/2000/svg" xmlns:xlink="http://www.w3.org/1999/xlink" contentStyleType="text/css" height="215px" preserveAspectRatio="none" style="width:233px;height:215px;background:#FFFFFF;" version="1.1" viewBox="0 0 233 215" width="233px" zoomAndPan="magnify"><defs/><g><ellipse cx="115" cy="20" fill="#222222" rx="10" ry="10" style="stroke:#222222;stroke-width:1.0;"/><rect fill="#F1F1F1" height="33.9688" rx="12.5" ry="12.5" style="stroke:#181818;stroke-width:0.5;" width="147" x="41.5" y="50"/><text fill="#000000" font-family="sans-serif" font-size="12" lengthAdjust="spacing" textLength="127" x="51.5" y="71.1387">Print allFunc Title Line</text><rect fill="#F1F1F1" height="33.9688" rx="12.5" ry="12.5" style="stroke:#181818;stroke-width:0.5;" width="99" x="65.5" y="147.9688"/><text fill="#000000" font-family="sans-serif" font-size="12" lengthAdjust="spacing" textLength="79" x="75.5" y="169.1074">Print Function</text><polygon fill="#F1F1F1" points="47,103.9688,183,103.9688,195,115.9688,183,127.9688,47,127.9688,35,115.9688,47,103.9688" style="stroke:#181818;stroke-width:0.5;"/><text fill="#000000" font-family="sans-serif" font-size="11" lengthAdjust="spacing" textLength="136" x="47" y="119.7769">For all Module Functions</text><ellipse cx="24" cy="158.9688" fill="none" rx="11" ry="11" style="stroke:#222222;stroke-width:1.0;"/><ellipse cx="24" cy="158.9688" fill="#222222" rx="6" ry="6" style="stroke:#222222;stroke-width:1.0;"/><line style="stroke:#181818;stroke-width:1.0;" x1="115" x2="115" y1="30" y2="50"/><polygon fill="#181818" points="111,40,115,50,119,40,115,44" style="stroke:#181818;stroke-width:1.0;"/><line style="stroke:#181818;stroke-width:1.0;" x1="115" x2="115" y1="127.9688" y2="147.9688"/><polygon fill="#181818" points="111,137.9688,115,147.9688,119,137.9688,115,141.9688" style="stroke:#181818;stroke-width:1.0;"/><line style="stroke:#181818;stroke-width:1.0;" x1="115" x2="115" y1="181.9375" y2="191.9375"/><line style="stroke:#181818;stroke-width:1.0;" x1="115" x2="207" y1="191.9375" y2="191.9375"/><polygon fill="#181818" points="203,162.9531,207,152.9531,211,162.9531,207,158.9531" style="stroke:#181818;stroke-width:1.0;"/><line style="stroke:#181818;stroke-width:1.0;" x1="207" x2="207" y1="115.9688" y2="191.9375"/><line style="stroke:#181818;stroke-width:1.0;" x1="207" x2="195" y1="115.9688" y2="115.9688"/><polygon fill="#181818" points="205,111.9688,195,115.9688,205,119.9688,201,115.9688" style="stroke:#181818;stroke-width:1.0;"/><line style="stroke:#181818;stroke-width:1.0;" x1="35" x2="24" y1="115.9688" y2="115.9688"/><line style="stroke:#181818;stroke-width:1.0;" x1="24" x2="24" y1="115.9688" y2="147.9688"/><polygon fill="#181818" points="20,137.9688,24,147.9688,28,137.9688,24,141.9688" style="stroke:#181818;stroke-width:1.0;"/><line style="stroke:#181818;stroke-width:1.0;" x1="115" x2="115" y1="83.9688" y2="103.9688"/><polygon fill="#181818" points="111,93.9688,115,103.9688,119,93.9688,115,97.9688" style="stroke:#181818;stroke-width:1.0;"/><!--SRC=[Aov9B2hXiWeeoimhKKZCoN4hpKjM2CaioKbLyCdCIxNcAi_8p4dLSCil0iag-EQdb0AbGAfAClFpYZLXMc4YrbofUIbWFLp59Va50000]--></g></svg>