<?xml version="1.0" encoding="us-ascii" standalone="no"?><svg xmlns="http://www.w3.org/2000/svg" xmlns:xlink="http://www.w3.org/1999/xlink" contentStyleType="text/css" height="645px" preserveAspectRatio="none" style="width:253px;height:645px;background:#FFFFFF;" version="1.1" viewBox="0 0 253 645" width="253px" zoomAndPan="magnify"><defs/><g><ellipse cx="126.5" cy="20" fill="#222222" rx="10" ry="10" style="stroke:#222222;stroke-width:1.0;"/><rect fill="#F1F1F1" height="33.9688" rx="12.5" ry="12.5" style="stroke:#181818;stroke-width:0.5;" width="103" x="75" y="50"/><text fill="#000000" font-family="sans-serif" font-size="12" lengthAdjust="spacing" textLength="83" x="85" y="71.1387">Make ExprVar</text><rect fill="#F1F1F1" height="33.9688" rx="12.5" ry="12.5" style="stroke:#181818;stroke-width:0.5;" width="97" x="78" y="152.3711"/><text fill="#000000" font-family="sans-serif" font-size="12" lengthAdjust="spacing" textLength="77" x="88" y="173.5098">to = ExprVar</text><polygon fill="#F1F1F1" points="98,103.9688,155,103.9688,167,115.9688,155,127.9688,98,127.9688,86,115.9688,98,103.9688" style="stroke:#181818;stroke-width:0.5;"/><text fill="#000000" font-family="sans-serif" font-size="11" lengthAdjust="spacing" textLength="21" x="130.5" y="138.1792">yes</text><text fill="#000000" font-family="sans-serif" font-size="11" lengthAdjust="spacing" textLength="57" x="98" y="119.7769">to == null</text><text fill="#000000" font-family="sans-serif" font-size="11" lengthAdjust="spacing" textLength="14" x="167" y="113.3745">no</text><polygon fill="#F1F1F1" points="126.5,206.3398,138.5,218.3398,126.5,230.3398,114.5,218.3398,126.5,206.3398" style="stroke:#181818;stroke-width:0.5;"/><rect fill="#F1F1F1" height="33.9688" rx="12.5" ry="12.5" style="stroke:#181818;stroke-width:0.5;" width="113" x="70" y="298.7422"/><text fill="#000000" font-family="sans-serif" font-size="12" lengthAdjust="spacing" textLength="93" x="80" y="319.8809">from = ExprVar</text><polygon fill="#F1F1F1" points="90.5,250.3398,162.5,250.3398,174.5,262.3398,162.5,274.3398,90.5,274.3398,78.5,262.3398,90.5,250.3398" style="stroke:#181818;stroke-width:0.5;"/><text fill="#000000" font-family="sans-serif" font-size="11" lengthAdjust="spacing" textLength="21" x="130.5" y="284.5503">yes</text><text fill="#000000" font-family="sans-serif" font-size="11" lengthAdjust="spacing" textLength="72" x="90.5" y="266.1479">from == null</text><text fill="#000000" font-family="sans-serif" font-size="11" lengthAdjust="spacing" textLength="14" x="174.5" y="259.7456">no</text><polygon fill="#F1F1F1" points="126.5,352.7109,138.5,364.7109,126.5,376.7109,114.5,364.7109,126.5,352.7109" style="stroke:#181818;stroke-width:0.5;"/><rect fill="#F1F1F1" height="33.9688" rx="12.5" ry="12.5" style="stroke:#181818;stroke-width:0.5;" width="141" x="56" y="396.7109"/><text fill="#000000" font-family="sans-serif" font-size="12" lengthAdjust="spacing" textLength="121" x="66" y="417.8496">Call FunctionFiltered</text><rect fill="#F1F1F1" height="33.9688" rx="12.5" ry="12.5" style="stroke:#181818;stroke-width:0.5;" width="145" x="54" y="450.6797"/><text fill="#000000" font-family="sans-serif" font-size="12" lengthAdjust="spacing" textLength="125" x="64" y="471.8184">Create new ArrayList</text><rect fill="#F1F1F1" height="33.9688" rx="12.5" ry="12.5" style="stroke:#181818;stroke-width:0.5;" width="161" x="46" y="504.6484"/><text fill="#000000" font-family="sans-serif" font-size="12" lengthAdjust="spacing" textLength="141" x="56" y="525.7871">Create new Declaration</text><rect fill="#F1F1F1" height="33.9688" rx="12.5" ry="12.5" style="stroke:#181818;stroke-width:0.5;" width="231" x="11" y="558.6172"/><text fill="#000000" font-family="sans-serif" font-size="12" lengthAdjust="spacing" textLength="211" x="21" y="579.7559">Add Called Function to Overall Fact</text><ellipse cx="126.5" cy="623.5859" fill="none" rx="11" ry="11" style="stroke:#222222;stroke-width:1.0;"/><ellipse cx="126.5" cy="623.5859" fill="#222222" rx="6" ry="6" style="stroke:#222222;stroke-width:1.0;"/><line style="stroke:#181818;stroke-width:1.0;" x1="126.5" x2="126.5" y1="30" y2="50"/><polygon fill="#181818" points="122.5,40,126.5,50,130.5,40,126.5,44" style="stroke:#181818;stroke-width:1.0;"/><line style="stroke:#181818;stroke-width:1.0;" x1="126.5" x2="126.5" y1="127.9688" y2="152.3711"/><polygon fill="#181818" points="122.5,142.3711,126.5,152.3711,130.5,142.3711,126.5,146.3711" style="stroke:#181818;stroke-width:1.0;"/><line style="stroke:#181818;stroke-width:1.0;" x1="167" x2="185" y1="115.9688" y2="115.9688"/><polygon fill="#181818" points="181,159.3555,185,169.3555,189,159.3555,185,163.3555" style="stroke:#181818;stroke-width:1.0;"/><line style="stroke:#181818;stroke-width:1.0;" x1="185" x2="185" y1="115.9688" y2="218.3398"/><line style="stroke:#181818;stroke-width:1.0;" x1="185" x2="138.5" y1="218.3398" y2="218.3398"/><polygon fill="#181818" points="148.5,214.3398,138.5,218.3398,148.5,222.3398,144.5,218.3398" style="stroke:#181818;stroke-width:1.0;"/><line style="stroke:#181818;stroke-width:1.0;" x1="126.5" x2="126.5" y1="186.3398" y2="206.3398"/><polygon fill="#181818" points="122.5,196.3398,126.5,206.3398,130.5,196.3398,126.5,200.3398" style="stroke:#181818;stroke-width:1.0;"/><line style="stroke:#181818;stroke-width:1.0;" x1="126.5" x2="126.5" y1="83.9688" y2="103.9688"/><polygon fill="#181818" points="122.5,93.9688,126.5,103.9688,130.5,93.9688,126.5,97.9688" style="stroke:#181818;stroke-width:1.0;"/><line style="stroke:#181818;stroke-width:1.0;" x1="126.5" x2="126.5" y1="274.3398" y2="298.7422"/><polygon fill="#181818" points="122.5,288.7422,126.5,298.7422,130.5,288.7422,126.5,292.7422" style="stroke:#181818;stroke-width:1.0;"/><line style="stroke:#181818;stroke-width:1.0;" x1="174.5" x2="193" y1="262.3398" y2="262.3398"/><polygon fill="#181818" points="189,305.7266,193,315.7266,197,305.7266,193,309.7266" style="stroke:#181818;stroke-width:1.0;"/><line style="stroke:#181818;stroke-width:1.0;" x1="193" x2="193" y1="262.3398" y2="364.7109"/><line style="stroke:#181818;stroke-width:1.0;" x1="193" x2="138.5" y1="364.7109" y2="364.7109"/><polygon fill="#181818" points="148.5,360.7109,138.5,364.7109,148.5,368.7109,144.5,364.7109" style="stroke:#181818;stroke-width:1.0;"/><line style="stroke:#181818;stroke-width:1.0;" x1="126.5" x2="126.5" y1="332.7109" y2="352.7109"/><polygon fill="#181818" points="122.5,342.7109,126.5,352.7109,130.5,342.7109,126.5,346.7109" style="stroke:#181818;stroke-width:1.0;"/><line style="stroke:#181818;stroke-width:1.0;" x1="126.5" x2="126.5" y1="230.3398" y2="250.3398"/><polygon fill="#181818" points="122.5,240.3398,126.5,250.3398,130.5,240.3398,126.5,244.3398" style="stroke:#181818;stroke-width:1.0;"/><line style="stroke:#181818;stroke-width:1.0;" x1="126.5" x2="126.5" y1="376.7109" y2="396.7109"/><polygon fill="#181818" points="122.5,386.7109,126.5,396.7109,130.5,386.7109,126.5,390.7109" style="stroke:#181818;stroke-width:1.0;"/><line style="stroke:#181818;stroke-width:1.0;" x1="126.5" x2="126.5" y1="430.6797" y2="450.6797"/><polygon fill="#181818" points="122.5,440.6797,126.5,450.6797,130.5,440.6797,126.5,444.6797" style="stroke:#181818;stroke-width:1.0;"/><line style="stroke:#181818;stroke-width:1.0;" x1="126.5" x2="126.5" y1="484.6484" y2="504.6484"/><polygon fill="#181818" points="122.5,494.6484,126.5,504.6484,130.5,494.6484,126.5,498.6484" style="stroke:#181818;stroke-width:1.0;"/><line style="stroke:#181818;stroke-width:1.0;" x1="126.5" x2="126.5" y1="538.6172" y2="558.6172"/><polygon fill="#181818" points="122.5,548.6172,126.5,558.6172,130.5,548.6172,126.5,552.6172" style="stroke:#181818;stroke-width:1.0;"/><line style="stroke:#181818;stroke-width:1.0;" x1="126.5" x2="126.5" y1="592.5859" y2="612.5859"/><polygon fill="#181818" points="122.5,602.5859,126.5,612.5859,130.5,602.5859,126.5,606.5859" style="stroke:#181818;stroke-width:1.0;"/><!--SRC=[ROun3i8m34NtdC9ZUeLM7IgW4uYDtMfS4H6Sod61tfu49A0Iw_j-_pifYfhwW1U2tMEI4qfZ_0XM8xGjy1n21Nec1hjGganT-FUIGYAm72j3xFoOJJjAlFvNtybQ_d7h3OO0_So3-iYz3qf2hibS29M0wGwT22vxdtIDjpG452nU3Zhde7IH-xH1Vlju8taju93rf75w0W00]--></g></svg>