<?xml version="1.0" encoding="us-ascii" standalone="no"?><svg xmlns="http://www.w3.org/2000/svg" xmlns:xlink="http://www.w3.org/1999/xlink" contentStyleType="text/css" height="731px" preserveAspectRatio="none" style="width:260px;height:731px;background:#FFFFFF;" version="1.1" viewBox="0 0 260 731" width="260px" zoomAndPan="magnify"><defs/><g><ellipse cx="128" cy="20" fill="#222222" rx="10" ry="10" style="stroke:#222222;stroke-width:1.0;"/><rect fill="#F1F1F1" height="33.9688" rx="12.5" ry="12.5" style="stroke:#181818;stroke-width:0.5;" width="91" x="82.5" y="142.4023"/><text fill="#000000" font-family="sans-serif" font-size="12" lengthAdjust="spacing" textLength="71" x="92.5" y="163.541">Return Field</text><ellipse cx="128" cy="207.3711" fill="none" rx="11" ry="11" style="stroke:#222222;stroke-width:1.0;"/><ellipse cx="128" cy="207.3711" fill="#222222" rx="6" ry="6" style="stroke:#222222;stroke-width:1.0;"/><polygon fill="#F1F1F1" points="48,94,208,94,220,106,208,118,48,118,36,106,48,94" style="stroke:#181818;stroke-width:0.5;"/><text fill="#000000" font-family="sans-serif" font-size="11" lengthAdjust="spacing" textLength="21" x="132" y="128.2104">yes</text><text fill="#000000" font-family="sans-serif" font-size="11" lengthAdjust="spacing" textLength="160" x="48" y="109.8081">current field == fieldName?</text><polygon fill="#F1F1F1" points="64,50,192,50,204,62,192,74,64,74,52,62,64,50" style="stroke:#181818;stroke-width:0.5;"/><text fill="#000000" font-family="sans-serif" font-size="11" lengthAdjust="spacing" textLength="128" x="64" y="65.8081">for all Signature Fields</text><rect fill="#F1F1F1" height="33.9688" rx="12.5" ry="12.5" style="stroke:#181818;stroke-width:0.5;" width="109" x="73.5" y="326.3711"/><text fill="#000000" font-family="sans-serif" font-size="12" lengthAdjust="spacing" textLength="89" x="83.5" y="347.5098">Print sig.parent</text><rect fill="#F1F1F1" height="33.9688" rx="12.5" ry="12.5" style="stroke:#181818;stroke-width:0.5;" width="170" x="43" y="380.3398"/><text fill="#000000" font-family="sans-serif" font-size="12" lengthAdjust="spacing" textLength="150" x="53" y="401.4785">Get Field from sig.parent</text><rect fill="#F1F1F1" height="75.875" rx="12.5" ry="12.5" style="stroke:#181818;stroke-width:0.5;" width="146" x="55" y="482.7109"/><text fill="#000000" font-family="sans-serif" font-size="12" lengthAdjust="spacing" textLength="71" x="65" y="503.8496">Return Field</text><text fill="#000000" font-family="sans-serif" font-size="12" lengthAdjust="spacing" textLength="27" x="65" y="517.8184">stop</text><text fill="#000000" font-family="sans-serif" font-size="12" lengthAdjust="spacing" textLength="55" x="65" y="531.7871">else (no)</text><text fill="#000000" font-family="sans-serif" font-size="12" lengthAdjust="spacing" textLength="126" x="65" y="545.7559">:Set sig to sig.parent</text><polygon fill="#F1F1F1" points="94.5,434.3086,161.5,434.3086,173.5,446.3086,161.5,458.3086,94.5,458.3086,82.5,446.3086,94.5,434.3086" style="stroke:#181818;stroke-width:0.5;"/><text fill="#000000" font-family="sans-serif" font-size="11" lengthAdjust="spacing" textLength="21" x="132" y="468.519">yes</text><text fill="#000000" font-family="sans-serif" font-size="11" lengthAdjust="spacing" textLength="67" x="94.5" y="450.1167">field != null</text><polygon fill="#F1F1F1" points="128,578.5859,140,590.5859,128,602.5859,116,590.5859,128,578.5859" style="stroke:#181818;stroke-width:0.5;"/><polygon fill="#F1F1F1" points="76,282.3711,180,282.3711,192,294.3711,180,306.3711,76,306.3711,64,294.3711,76,282.3711" style="stroke:#181818;stroke-width:0.5;"/><text fill="#000000" font-family="sans-serif" font-size="11" lengthAdjust="spacing" textLength="104" x="76" y="298.1792">sig.parent != null?</text><rect fill="#F1F1F1" height="33.9688" rx="12.5" ry="12.5" style="stroke:#181818;stroke-width:0.5;" width="82" x="87" y="644.5859"/><text fill="#000000" font-family="sans-serif" font-size="12" lengthAdjust="spacing" textLength="62" x="97" y="665.7246">Return null</text><ellipse cx="128" cy="709.5547" fill="none" rx="11" ry="11" style="stroke:#222222;stroke-width:1.0;"/><ellipse cx="128" cy="709.5547" fill="#222222" rx="6" ry="6" style="stroke:#222222;stroke-width:1.0;"/><line style="stroke:#181818;stroke-width:1.0;" x1="128" x2="128" y1="176.3711" y2="196.3711"/><polygon fill="#181818" points="124,186.3711,128,196.3711,132,186.3711,128,190.3711" style="stroke:#181818;stroke-width:1.0;"/><line style="stroke:#181818;stroke-width:1.0;" x1="128" x2="128" y1="118" y2="142.4023"/><polygon fill="#181818" points="124,132.4023,128,142.4023,132,132.4023,128,136.4023" style="stroke:#181818;stroke-width:1.0;"/><line style="stroke:#181818;stroke-width:1.0;" x1="220" x2="243" y1="106" y2="106"/><line style="stroke:#181818;stroke-width:1.0;" x1="243" x2="243" y1="62" y2="106"/><line style="stroke:#181818;stroke-width:1.0;" x1="243" x2="204" y1="62" y2="62"/><polygon fill="#181818" points="214,58,204,62,214,66,210,62" style="stroke:#181818;stroke-width:1.0;"/><line style="stroke:#181818;stroke-width:1.0;" x1="128" x2="128" y1="74" y2="94"/><polygon fill="#181818" points="124,84,128,94,132,84,128,88" style="stroke:#181818;stroke-width:1.0;"/><line style="stroke:#181818;stroke-width:1.0;" x1="52" x2="24" y1="62" y2="62"/><polygon fill="#181818" points="20,162.8867,24,172.8867,28,162.8867,24,166.8867" style="stroke:#181818;stroke-width:1.0;"/><line style="stroke:#181818;stroke-width:1.0;" x1="24" x2="24" y1="62" y2="262.3711"/><line style="stroke:#181818;stroke-width:1.0;" x1="24" x2="128" y1="262.3711" y2="262.3711"/><line style="stroke:#181818;stroke-width:1.0;" x1="128" x2="128" y1="262.3711" y2="282.3711"/><polygon fill="#181818" points="124,272.3711,128,282.3711,132,272.3711,128,276.3711" style="stroke:#181818;stroke-width:1.0;"/><line style="stroke:#181818;stroke-width:1.0;" x1="128" x2="128" y1="30" y2="50"/><polygon fill="#181818" points="124,40,128,50,132,40,128,44" style="stroke:#181818;stroke-width:1.0;"/><line style="stroke:#181818;stroke-width:1.0;" x1="128" x2="128" y1="360.3398" y2="380.3398"/><polygon fill="#181818" points="124,370.3398,128,380.3398,132,370.3398,128,374.3398" style="stroke:#181818;stroke-width:1.0;"/><line style="stroke:#181818;stroke-width:1.0;" x1="128" x2="128" y1="458.3086" y2="482.7109"/><polygon fill="#181818" points="124,472.7109,128,482.7109,132,472.7109,128,476.7109" style="stroke:#181818;stroke-width:1.0;"/><line style="stroke:#181818;stroke-width:1.0;" x1="173.5" x2="211" y1="446.3086" y2="446.3086"/><polygon fill="#181818" points="207,510.6484,211,520.6484,215,510.6484,211,514.6484" style="stroke:#181818;stroke-width:1.0;"/><line style="stroke:#181818;stroke-width:1.0;" x1="211" x2="211" y1="446.3086" y2="590.5859"/><line style="stroke:#181818;stroke-width:1.0;" x1="211" x2="140" y1="590.5859" y2="590.5859"/><polygon fill="#181818" points="150,586.5859,140,590.5859,150,594.5859,146,590.5859" style="stroke:#181818;stroke-width:1.0;"/><line style="stroke:#181818;stroke-width:1.0;" x1="128" x2="128" y1="558.5859" y2="578.5859"/><polygon fill="#181818" points="124,568.5859,128,578.5859,132,568.5859,128,572.5859" style="stroke:#181818;stroke-width:1.0;"/><line style="stroke:#181818;stroke-width:1.0;" x1="128" x2="128" y1="414.3086" y2="434.3086"/><polygon fill="#181818" points="124,424.3086,128,434.3086,132,424.3086,128,428.3086" style="stroke:#181818;stroke-width:1.0;"/><line style="stroke:#181818;stroke-width:1.0;" x1="128" x2="128" y1="306.3711" y2="326.3711"/><polygon fill="#181818" points="124,316.3711,128,326.3711,132,316.3711,128,320.3711" style="stroke:#181818;stroke-width:1.0;"/><line style="stroke:#181818;stroke-width:1.0;" x1="128" x2="128" y1="602.5859" y2="612.5859"/><line style="stroke:#181818;stroke-width:1.0;" x1="128" x2="234" y1="612.5859" y2="612.5859"/><polygon fill="#181818" points="230,449.6797,234,439.6797,238,449.6797,234,445.6797" style="stroke:#181818;stroke-width:1.0;"/><line style="stroke:#181818;stroke-width:1.0;" x1="234" x2="234" y1="294.3711" y2="612.5859"/><line style="stroke:#181818;stroke-width:1.0;" x1="234" x2="192" y1="294.3711" y2="294.3711"/><polygon fill="#181818" points="202,290.3711,192,294.3711,202,298.3711,198,294.3711" style="stroke:#181818;stroke-width:1.0;"/><line style="stroke:#181818;stroke-width:1.0;" x1="64" x2="31" y1="294.3711" y2="294.3711"/><polygon fill="#181818" points="27,435.6797,31,445.6797,35,435.6797,31,439.6797" style="stroke:#181818;stroke-width:1.0;"/><line style="stroke:#181818;stroke-width:1.0;" x1="31" x2="31" y1="294.3711" y2="624.5859"/><line style="stroke:#181818;stroke-width:1.0;" x1="31" x2="128" y1="624.5859" y2="624.5859"/><line style="stroke:#181818;stroke-width:1.0;" x1="128" x2="128" y1="624.5859" y2="644.5859"/><polygon fill="#181818" points="124,634.5859,128,644.5859,132,634.5859,128,638.5859" style="stroke:#181818;stroke-width:1.0;"/><line style="stroke:#181818;stroke-width:1.0;" x1="128" x2="128" y1="678.5547" y2="698.5547"/><polygon fill="#181818" points="124,688.5547,128,698.5547,132,688.5547,128,692.5547" style="stroke:#181818;stroke-width:1.0;"/><!--SRC=[TOz12i8m44NtESMuIpSUeALqfpiHUu9W9-r0cfJ95F7sfab55Do4C7_- -t-Y61RrcCWXQ1iOZ7FGq-YDh8nm8dH3h1HPVL-PqGlORGHjMpuNCsDNWKpeGJynhTOtJ5PVh8sA4XQ5VY2xlJcenEb8ut4ncNbemQ_ETSbzPKg3ZzQe-enIQ60vp5yQsTGwIplYVnNOgxYOBlKXgJtc893mnVmf-uPiz7BE2m00]--></g></svg>