<?xml version="1.0" encoding="us-ascii" standalone="no"?><svg xmlns="http://www.w3.org/2000/svg" xmlns:xlink="http://www.w3.org/1999/xlink" contentStyleType="text/css" height="352px" preserveAspectRatio="none" style="width:258px;height:352px;background:#FFFFFF;" version="1.1" viewBox="0 0 258 352" width="258px" zoomAndPan="magnify"><defs/><g><ellipse cx="129" cy="20" fill="#222222" rx="10" ry="10" style="stroke:#222222;stroke-width:1.0;"/><rect fill="#F1F1F1" height="33.9688" rx="12.5" ry="12.5" style="stroke:#181818;stroke-width:0.5;" width="103" x="77.5" y="50"/><text fill="#000000" font-family="sans-serif" font-size="12" lengthAdjust="spacing" textLength="83" x="87.5" y="71.1387">Make ExprVar</text><rect fill="#F1F1F1" height="33.9688" rx="12.5" ry="12.5" style="stroke:#181818;stroke-width:0.5;" width="143" x="57.5" y="103.9688"/><text fill="#000000" font-family="sans-serif" font-size="12" lengthAdjust="spacing" textLength="123" x="67.5" y="125.1074">Call funcFilteredExpr</text><rect fill="#F1F1F1" height="33.9688" rx="12.5" ry="12.5" style="stroke:#181818;stroke-width:0.5;" width="145" x="56.5" y="157.9375"/><text fill="#000000" font-family="sans-serif" font-size="12" lengthAdjust="spacing" textLength="125" x="66.5" y="179.0762">Create new ArrayList</text><rect fill="#F1F1F1" height="33.9688" rx="12.5" ry="12.5" style="stroke:#181818;stroke-width:0.5;" width="161" x="48.5" y="211.9063"/><text fill="#000000" font-family="sans-serif" font-size="12" lengthAdjust="spacing" textLength="141" x="58.5" y="233.0449">Create new Declaration</text><rect fill="#F1F1F1" height="33.9688" rx="12.5" ry="12.5" style="stroke:#181818;stroke-width:0.5;" width="236" x="11" y="265.875"/><text fill="#000000" font-family="sans-serif" font-size="12" lengthAdjust="spacing" textLength="216" x="21" y="287.0137">Add FunctionFiltered to Overall Fact</text><ellipse cx="129" cy="330.8438" fill="none" rx="11" ry="11" style="stroke:#222222;stroke-width:1.0;"/><ellipse cx="129" cy="330.8438" fill="#222222" rx="6" ry="6" style="stroke:#222222;stroke-width:1.0;"/><line style="stroke:#181818;stroke-width:1.0;" x1="129" x2="129" y1="30" y2="50"/><polygon fill="#181818" points="125,40,129,50,133,40,129,44" style="stroke:#181818;stroke-width:1.0;"/><line style="stroke:#181818;stroke-width:1.0;" x1="129" x2="129" y1="83.9688" y2="103.9688"/><polygon fill="#181818" points="125,93.9688,129,103.9688,133,93.9688,129,97.9688" style="stroke:#181818;stroke-width:1.0;"/><line style="stroke:#181818;stroke-width:1.0;" x1="129" x2="129" y1="137.9375" y2="157.9375"/><polygon fill="#181818" points="125,147.9375,129,157.9375,133,147.9375,129,151.9375" style="stroke:#181818;stroke-width:1.0;"/><line style="stroke:#181818;stroke-width:1.0;" x1="129" x2="129" y1="191.9063" y2="211.9063"/><polygon fill="#181818" points="125,201.9063,129,211.9063,133,201.9063,129,205.9063" style="stroke:#181818;stroke-width:1.0;"/><line style="stroke:#181818;stroke-width:1.0;" x1="129" x2="129" y1="245.875" y2="265.875"/><polygon fill="#181818" points="125,255.875,129,265.875,133,255.875,129,259.875" style="stroke:#181818;stroke-width:1.0;"/><line style="stroke:#181818;stroke-width:1.0;" x1="129" x2="129" y1="299.8438" y2="319.8438"/><polygon fill="#181818" points="125,309.8438,129,319.8438,133,309.8438,129,313.8438" style="stroke:#181818;stroke-width:1.0;"/><!--SRC=[LOqx3iCW44HxdsBFOLTM4gfOxjAFO2qX8x26pU_sWIA5otcZULCDj65SiAlSFWSVu3IC5wGaspDx5vCfDVIgSofC9UjRPXBVUwnsnbVr2OJ5abinXo2kQNhygyIAh2zblt3mRL-j73y0]--></g></svg>