<?xml version="1.0" encoding="us-ascii" standalone="no"?><svg xmlns="http://www.w3.org/2000/svg" xmlns:xlink="http://www.w3.org/1999/xlink" contentStyleType="text/css" height="161px" preserveAspectRatio="none" style="width:253px;height:161px;background:#FFFFFF;" version="1.1" viewBox="0 0 253 161" width="253px" zoomAndPan="magnify"><defs/><g><ellipse cx="128.5" cy="20" fill="#222222" rx="10" ry="10" style="stroke:#222222;stroke-width:1.0;"/><rect fill="#F1F1F1" height="33.9688" rx="12.5" ry="12.5" style="stroke:#181818;stroke-width:0.5;" width="163" x="47" y="94"/><text fill="#000000" font-family="sans-serif" font-size="12" lengthAdjust="spacing" textLength="143" x="57" y="115.1387">Print Name and Function</text><polygon fill="#F1F1F1" points="53.5,50,203.5,50,215.5,62,203.5,74,53.5,74,41.5,62,53.5,50" style="stroke:#181818;stroke-width:0.5;"/><text fill="#000000" font-family="sans-serif" font-size="11" lengthAdjust="spacing" textLength="150" x="53.5" y="65.8081">For all Functions in Module</text><ellipse cx="24" cy="105" fill="none" rx="11" ry="11" style="stroke:#222222;stroke-width:1.0;"/><ellipse cx="24" cy="105" fill="#222222" rx="6" ry="6" style="stroke:#222222;stroke-width:1.0;"/><line style="stroke:#181818;stroke-width:1.0;" x1="128.5" x2="128.5" y1="74" y2="94"/><polygon fill="#181818" points="124.5,84,128.5,94,132.5,84,128.5,88" style="stroke:#181818;stroke-width:1.0;"/><line style="stroke:#181818;stroke-width:1.0;" x1="128.5" x2="128.5" y1="127.9688" y2="137.9688"/><line style="stroke:#181818;stroke-width:1.0;" x1="128.5" x2="227.5" y1="137.9688" y2="137.9688"/><polygon fill="#181818" points="223.5,108.9844,227.5,98.9844,231.5,108.9844,227.5,104.9844" style="stroke:#181818;stroke-width:1.0;"/><line style="stroke:#181818;stroke-width:1.0;" x1="227.5" x2="227.5" y1="62" y2="137.9688"/><line style="stroke:#181818;stroke-width:1.0;" x1="227.5" x2="215.5" y1="62" y2="62"/><polygon fill="#181818" points="225.5,58,215.5,62,225.5,66,221.5,62" style="stroke:#181818;stroke-width:1.0;"/><line style="stroke:#181818;stroke-width:1.0;" x1="41.5" x2="24" y1="62" y2="62"/><line style="stroke:#181818;stroke-width:1.0;" x1="24" x2="24" y1="62" y2="94"/><polygon fill="#181818" points="20,84,24,94,28,84,24,88" style="stroke:#181818;stroke-width:1.0;"/><line style="stroke:#181818;stroke-width:1.0;" x1="128.5" x2="128.5" y1="30" y2="50"/><polygon fill="#181818" points="124.5,40,128.5,50,132.5,40,128.5,44" style="stroke:#181818;stroke-width:1.0;"/><!--SRC=[Aov9B2hXAi_8p4dLSCilKaZCoL5mAyrBBidCpojMoCnJyCrFASr9rUIo2YZAp2jHy4lCJLL8p4k1AxBcIirB0UldAYx9Bm00]--></g></svg>