<?xml version="1.0" encoding="us-ascii" standalone="no"?><svg xmlns="http://www.w3.org/2000/svg" xmlns:xlink="http://www.w3.org/1999/xlink" contentStyleType="text/css" height="918px" preserveAspectRatio="none" style="width:464px;height:918px;background:#FFFFFF;" version="1.1" viewBox="0 0 464 918" width="464px" zoomAndPan="magnify"><defs/><g><ellipse cx="224.5" cy="20" fill="#222222" rx="10" ry="10" style="stroke:#222222;stroke-width:1.0;"/><rect fill="#F1F1F1" height="33.9688" rx="12.5" ry="12.5" style="stroke:#181818;stroke-width:0.5;" width="103" x="173" y="50"/><text fill="#000000" font-family="sans-serif" font-size="12" lengthAdjust="spacing" textLength="83" x="183" y="71.1387">Make ExprVar</text><rect fill="#F1F1F1" height="33.9688" rx="12.5" ry="12.5" style="stroke:#181818;stroke-width:0.5;" width="141" x="154" y="103.9688"/><text fill="#000000" font-family="sans-serif" font-size="12" lengthAdjust="spacing" textLength="121" x="164" y="125.1074">Call osteps Function</text><rect fill="#F1F1F1" height="33.9688" rx="12.5" ry="12.5" style="stroke:#181818;stroke-width:0.5;" width="162" x="143.5" y="157.9375"/><text fill="#000000" font-family="sans-serif" font-size="12" lengthAdjust="spacing" textLength="142" x="153.5" y="179.0762">Create New Declaration</text><rect fill="#F1F1F1" height="33.9688" rx="12.5" ry="12.5" style="stroke:#181818;stroke-width:0.5;" width="149" x="150" y="211.9063"/><text fill="#000000" font-family="sans-serif" font-size="12" lengthAdjust="spacing" textLength="129" x="160" y="233.0449">Create new Array List</text><rect fill="#F1F1F1" height="33.9688" rx="12.5" ry="12.5" style="stroke:#181818;stroke-width:0.5;" width="117" x="166" y="265.875"/><text fill="#000000" font-family="sans-serif" font-size="12" lengthAdjust="spacing" textLength="97" x="176" y="287.0137">Sort Step Fields</text><polygon fill="#F1F1F1" points="193,456.2461,256,456.2461,268,468.2461,256,480.2461,193,480.2461,181,468.2461,193,456.2461" style="stroke:#181818;stroke-width:0.5;"/><text fill="#000000" font-family="sans-serif" font-size="11" lengthAdjust="spacing" textLength="63" x="193" y="472.0542">expr = null</text><text fill="#000000" font-family="sans-serif" font-size="11" lengthAdjust="spacing" textLength="23" x="158" y="465.6519">true</text><text fill="#000000" font-family="sans-serif" font-size="11" lengthAdjust="spacing" textLength="28" x="268" y="465.6519">false</text><rect fill="#F1F1F1" height="33.9688" rx="12.5" ry="12.5" style="stroke:#181818;stroke-width:0.5;" width="152" x="56" y="490.2461"/><text fill="#000000" font-family="sans-serif" font-size="12" lengthAdjust="spacing" textLength="132" x="66" y="511.3848">Join Field to Signature</text><rect fill="#F1F1F1" height="47.9375" rx="12.5" ry="12.5" style="stroke:#181818;stroke-width:0.5;" width="178" x="228" y="490.2461"/><text fill="#000000" font-family="sans-serif" font-size="12" lengthAdjust="spacing" textLength="144" x="238" y="511.3848">Add Field to Expression</text><text fill="#000000" font-family="sans-serif" font-size="12" lengthAdjust="spacing" textLength="158" x="238" y="525.3535">and Join Field to Signature</text><rect fill="#F1F1F1" height="33.9688" rx="12.5" ry="12.5" style="stroke:#181818;stroke-width:0.5;" width="55" x="289.5" y="566.6992"/><text fill="#000000" font-family="sans-serif" font-size="12" lengthAdjust="spacing" textLength="35" x="299.5" y="587.8379">Break</text><polygon fill="#F1F1F1" points="224.5,606.668,236.5,618.668,224.5,630.668,212.5,618.668,224.5,606.668" style="stroke:#181818;stroke-width:0.5;"/><polygon fill="#F1F1F1" points="139.5,407.8438,309.5,407.8438,321.5,419.8438,309.5,431.8438,139.5,431.8438,127.5,419.8438,139.5,407.8438" style="stroke:#181818;stroke-width:0.5;"/><text fill="#000000" font-family="sans-serif" font-size="11" lengthAdjust="spacing" textLength="21" x="228.5" y="442.0542">yes</text><text fill="#000000" font-family="sans-serif" font-size="11" lengthAdjust="spacing" textLength="170" x="139.5" y="423.6519">Signature Field == Step Field</text><polygon fill="#F1F1F1" points="224.5,650.668,236.5,662.668,224.5,674.668,212.5,662.668,224.5,650.668" style="stroke:#181818;stroke-width:0.5;"/><polygon fill="#F1F1F1" points="159,363.8438,290,363.8438,302,375.8438,290,387.8438,159,387.8438,147,375.8438,159,363.8438" style="stroke:#181818;stroke-width:0.5;"/><text fill="#000000" font-family="sans-serif" font-size="11" lengthAdjust="spacing" textLength="131" x="159" y="379.6519">For All Signature Fields</text><polygon fill="#F1F1F1" points="173.5,319.8438,275.5,319.8438,287.5,331.8438,275.5,343.8438,173.5,343.8438,161.5,331.8438,173.5,319.8438" style="stroke:#181818;stroke-width:0.5;"/><text fill="#000000" font-family="sans-serif" font-size="11" lengthAdjust="spacing" textLength="102" x="173.5" y="335.6519">For all Step Fields</text><rect fill="#F1F1F1" height="33.9688" rx="12.5" ry="12.5" style="stroke:#181818;stroke-width:0.5;" width="167" x="141" y="787.0703"/><text fill="#000000" font-family="sans-serif" font-size="12" lengthAdjust="spacing" textLength="147" x="151" y="808.209">Add Both to Overall Fact</text><polygon fill="#F1F1F1" points="191,738.668,258,738.668,270,750.668,258,762.668,191,762.668,179,750.668,191,738.668" style="stroke:#181818;stroke-width:0.5;"/><text fill="#000000" font-family="sans-serif" font-size="11" lengthAdjust="spacing" textLength="21" x="228.5" y="772.8784">yes</text><text fill="#000000" font-family="sans-serif" font-size="11" lengthAdjust="spacing" textLength="67" x="191" y="754.4761">Expr != null</text><polygon fill="#F1F1F1" points="224.5,841.0391,236.5,853.0391,224.5,865.0391,212.5,853.0391,224.5,841.0391" style="stroke:#181818;stroke-width:0.5;"/><ellipse cx="224.5" cy="896.0391" fill="none" rx="11" ry="11" style="stroke:#222222;stroke-width:1.0;"/><ellipse cx="224.5" cy="896.0391" fill="#222222" rx="6" ry="6" style="stroke:#222222;stroke-width:1.0;"/><line style="stroke:#181818;stroke-width:1.0;" x1="224.5" x2="224.5" y1="30" y2="50"/><polygon fill="#181818" points="220.5,40,224.5,50,228.5,40,224.5,44" style="stroke:#181818;stroke-width:1.0;"/><line style="stroke:#181818;stroke-width:1.0;" x1="224.5" x2="224.5" y1="83.9688" y2="103.9688"/><polygon fill="#181818" points="220.5,93.9688,224.5,103.9688,228.5,93.9688,224.5,97.9688" style="stroke:#181818;stroke-width:1.0;"/><line style="stroke:#181818;stroke-width:1.0;" x1="224.5" x2="224.5" y1="137.9375" y2="157.9375"/><polygon fill="#181818" points="220.5,147.9375,224.5,157.9375,228.5,147.9375,224.5,151.9375" style="stroke:#181818;stroke-width:1.0;"/><line style="stroke:#181818;stroke-width:1.0;" x1="224.5" x2="224.5" y1="191.9063" y2="211.9063"/><polygon fill="#181818" points="220.5,201.9063,224.5,211.9063,228.5,201.9063,224.5,205.9063" style="stroke:#181818;stroke-width:1.0;"/><line style="stroke:#181818;stroke-width:1.0;" x1="224.5" x2="224.5" y1="245.875" y2="265.875"/><polygon fill="#181818" points="220.5,255.875,224.5,265.875,228.5,255.875,224.5,259.875" style="stroke:#181818;stroke-width:1.0;"/><line style="stroke:#181818;stroke-width:1.0;" x1="317" x2="317" y1="538.1836" y2="566.6992"/><polygon fill="#181818" points="313,556.6992,317,566.6992,321,556.6992,317,560.6992" style="stroke:#181818;stroke-width:1.0;"/><line style="stroke:#181818;stroke-width:1.0;" x1="181" x2="132" y1="468.2461" y2="468.2461"/><line style="stroke:#181818;stroke-width:1.0;" x1="132" x2="132" y1="468.2461" y2="490.2461"/><polygon fill="#181818" points="128,480.2461,132,490.2461,136,480.2461,132,484.2461" style="stroke:#181818;stroke-width:1.0;"/><line style="stroke:#181818;stroke-width:1.0;" x1="268" x2="317" y1="468.2461" y2="468.2461"/><line style="stroke:#181818;stroke-width:1.0;" x1="317" x2="317" y1="468.2461" y2="490.2461"/><polygon fill="#181818" points="313,480.2461,317,490.2461,321,480.2461,317,484.2461" style="stroke:#181818;stroke-width:1.0;"/><line style="stroke:#181818;stroke-width:1.0;" x1="132" x2="132" y1="524.2148" y2="618.668"/><line style="stroke:#181818;stroke-width:1.0;" x1="132" x2="212.5" y1="618.668" y2="618.668"/><polygon fill="#181818" points="202.5,614.668,212.5,618.668,202.5,622.668,206.5,618.668" style="stroke:#181818;stroke-width:1.0;"/><line style="stroke:#181818;stroke-width:1.0;" x1="317" x2="317" y1="600.668" y2="618.668"/><line style="stroke:#181818;stroke-width:1.0;" x1="317" x2="236.5" y1="618.668" y2="618.668"/><polygon fill="#181818" points="246.5,614.668,236.5,618.668,246.5,622.668,242.5,618.668" style="stroke:#181818;stroke-width:1.0;"/><line style="stroke:#181818;stroke-width:1.0;" x1="224.5" x2="224.5" y1="431.8438" y2="456.2461"/><polygon fill="#181818" points="220.5,446.2461,224.5,456.2461,228.5,446.2461,224.5,450.2461" style="stroke:#181818;stroke-width:1.0;"/><line style="stroke:#181818;stroke-width:1.0;" x1="321.5" x2="420" y1="419.8438" y2="419.8438"/><polygon fill="#181818" points="416,536.6992,420,546.6992,424,536.6992,420,540.6992" style="stroke:#181818;stroke-width:1.0;"/><line style="stroke:#181818;stroke-width:1.0;" x1="420" x2="420" y1="419.8438" y2="662.668"/><line style="stroke:#181818;stroke-width:1.0;" x1="420" x2="236.5" y1="662.668" y2="662.668"/><polygon fill="#181818" points="246.5,658.668,236.5,662.668,246.5,666.668,242.5,662.668" style="stroke:#181818;stroke-width:1.0;"/><line style="stroke:#181818;stroke-width:1.0;" x1="224.5" x2="224.5" y1="630.668" y2="650.668"/><polygon fill="#181818" points="220.5,640.668,224.5,650.668,228.5,640.668,224.5,644.668" style="stroke:#181818;stroke-width:1.0;"/><line style="stroke:#181818;stroke-width:1.0;" x1="224.5" x2="224.5" y1="387.8438" y2="407.8438"/><polygon fill="#181818" points="220.5,397.8438,224.5,407.8438,228.5,397.8438,224.5,401.8438" style="stroke:#181818;stroke-width:1.0;"/><line style="stroke:#181818;stroke-width:1.0;" x1="224.5" x2="224.5" y1="674.668" y2="684.668"/><line style="stroke:#181818;stroke-width:1.0;" x1="224.5" x2="438" y1="684.668" y2="684.668"/><polygon fill="#181818" points="434,544.6992,438,534.6992,442,544.6992,438,540.6992" style="stroke:#181818;stroke-width:1.0;"/><line style="stroke:#181818;stroke-width:1.0;" x1="438" x2="438" y1="375.8438" y2="684.668"/><line style="stroke:#181818;stroke-width:1.0;" x1="438" x2="302" y1="375.8438" y2="375.8438"/><polygon fill="#181818" points="312,371.8438,302,375.8438,312,379.8438,308,375.8438" style="stroke:#181818;stroke-width:1.0;"/><line style="stroke:#181818;stroke-width:1.0;" x1="147" x2="42" y1="375.8438" y2="375.8438"/><polygon fill="#181818" points="38,530.6992,42,540.6992,46,530.6992,42,534.6992" style="stroke:#181818;stroke-width:1.0;"/><line style="stroke:#181818;stroke-width:1.0;" x1="42" x2="42" y1="375.8438" y2="696.668"/><line style="stroke:#181818;stroke-width:1.0;" x1="42" x2="450" y1="696.668" y2="696.668"/><line style="stroke:#181818;stroke-width:1.0;" x1="450" x2="450" y1="331.8438" y2="696.668"/><line style="stroke:#181818;stroke-width:1.0;" x1="450" x2="287.5" y1="331.8438" y2="331.8438"/><polygon fill="#181818" points="297.5,327.8438,287.5,331.8438,297.5,335.8438,293.5,331.8438" style="stroke:#181818;stroke-width:1.0;"/><line style="stroke:#181818;stroke-width:1.0;" x1="224.5" x2="224.5" y1="343.8438" y2="363.8438"/><polygon fill="#181818" points="220.5,353.8438,224.5,363.8438,228.5,353.8438,224.5,357.8438" style="stroke:#181818;stroke-width:1.0;"/><line style="stroke:#181818;stroke-width:1.0;" x1="161.5" x2="24" y1="331.8438" y2="331.8438"/><polygon fill="#181818" points="20,518.6992,24,528.6992,28,518.6992,24,522.6992" style="stroke:#181818;stroke-width:1.0;"/><line style="stroke:#181818;stroke-width:1.0;" x1="24" x2="24" y1="331.8438" y2="718.668"/><line style="stroke:#181818;stroke-width:1.0;" x1="24" x2="224.5" y1="718.668" y2="718.668"/><line style="stroke:#181818;stroke-width:1.0;" x1="224.5" x2="224.5" y1="718.668" y2="738.668"/><polygon fill="#181818" points="220.5,728.668,224.5,738.668,228.5,728.668,224.5,732.668" style="stroke:#181818;stroke-width:1.0;"/><line style="stroke:#181818;stroke-width:1.0;" x1="224.5" x2="224.5" y1="299.8438" y2="319.8438"/><polygon fill="#181818" points="220.5,309.8438,224.5,319.8438,228.5,309.8438,224.5,313.8438" style="stroke:#181818;stroke-width:1.0;"/><line style="stroke:#181818;stroke-width:1.0;" x1="224.5" x2="224.5" y1="762.668" y2="787.0703"/><polygon fill="#181818" points="220.5,777.0703,224.5,787.0703,228.5,777.0703,224.5,781.0703" style="stroke:#181818;stroke-width:1.0;"/><line style="stroke:#181818;stroke-width:1.0;" x1="270" x2="318" y1="750.668" y2="750.668"/><polygon fill="#181818" points="314,794.0547,318,804.0547,322,794.0547,318,798.0547" style="stroke:#181818;stroke-width:1.0;"/><line style="stroke:#181818;stroke-width:1.0;" x1="318" x2="318" y1="750.668" y2="853.0391"/><line style="stroke:#181818;stroke-width:1.0;" x1="318" x2="236.5" y1="853.0391" y2="853.0391"/><polygon fill="#181818" points="246.5,849.0391,236.5,853.0391,246.5,857.0391,242.5,853.0391" style="stroke:#181818;stroke-width:1.0;"/><line style="stroke:#181818;stroke-width:1.0;" x1="224.5" x2="224.5" y1="821.0391" y2="841.0391"/><polygon fill="#181818" points="220.5,831.0391,224.5,841.0391,228.5,831.0391,224.5,835.0391" style="stroke:#181818;stroke-width:1.0;"/><line style="stroke:#181818;stroke-width:1.0;" x1="224.5" x2="224.5" y1="865.0391" y2="885.0391"/><polygon fill="#181818" points="220.5,875.0391,224.5,885.0391,228.5,875.0391,224.5,879.0391" style="stroke:#181818;stroke-width:1.0;"/><!--SRC=[TP3DJiCm383lUGfpQr-XLGyTq0CQx329kzMuD5gKL8wxiRV7AOnsI5miov_r-IS9ifZg5Ky4pvyJloFNfdf4xo4ceIb1DuTUN0ovp8H2y4ONUABU8-Cz20fQPhp2tYNH-Z6om54rq3doDjNcCZfFHHSPyeWDAZUepSXz19IPwPUxeVXJXARPA4gGaG8KL_fk9Zq76WYpzpSaF5DfgfVemez1uZgfDkGJ5GDgrAxMshKf_uPIqdF1OB3mhwBQwIzEgWhM3MjSZbiJNIyRuU5-lsNrPV0kofZDXpDn_bI7lToaIUBq1G00]--></g></svg>