<?xml version="1.0" encoding="us-ascii" standalone="no"?><svg xmlns="http://www.w3.org/2000/svg" xmlns:xlink="http://www.w3.org/1999/xlink" contentStyleType="text/css" height="190px" preserveAspectRatio="none" style="width:175px;height:190px;background:#FFFFFF;" version="1.1" viewBox="0 0 175 190" width="175px" zoomAndPan="magnify"><defs/><g><ellipse cx="87.5" cy="20" fill="#222222" rx="10" ry="10" style="stroke:#222222;stroke-width:1.0;"/><rect fill="#F1F1F1" height="33.9688" rx="12.5" ry="12.5" style="stroke:#181818;stroke-width:0.5;" width="119" x="28" y="50"/><text fill="#000000" font-family="sans-serif" font-size="12" lengthAdjust="spacing" textLength="99" x="38" y="71.1387">Print title All Sigs</text><rect fill="#F1F1F1" height="33.9688" rx="12.5" ry="12.5" style="stroke:#181818;stroke-width:0.5;" width="153" x="11" y="103.9688"/><text fill="#000000" font-family="sans-serif" font-size="12" lengthAdjust="spacing" textLength="133" x="21" y="125.1074">Print List of Signatures</text><ellipse cx="87.5" cy="168.9375" fill="none" rx="11" ry="11" style="stroke:#222222;stroke-width:1.0;"/><ellipse cx="87.5" cy="168.9375" fill="#222222" rx="6" ry="6" style="stroke:#222222;stroke-width:1.0;"/><line style="stroke:#181818;stroke-width:1.0;" x1="87.5" x2="87.5" y1="30" y2="50"/><polygon fill="#181818" points="83.5,40,87.5,50,91.5,40,87.5,44" style="stroke:#181818;stroke-width:1.0;"/><line style="stroke:#181818;stroke-width:1.0;" x1="87.5" x2="87.5" y1="83.9688" y2="103.9688"/><polygon fill="#181818" points="83.5,93.9688,87.5,103.9688,91.5,93.9688,87.5,97.9688" style="stroke:#181818;stroke-width:1.0;"/><line style="stroke:#181818;stroke-width:1.0;" x1="87.5" x2="87.5" y1="137.9375" y2="157.9375"/><polygon fill="#181818" points="83.5,147.9375,87.5,157.9375,91.5,147.9375,87.5,151.9375" style="stroke:#181818;stroke-width:1.0;"/><!--SRC=[Aov9B2hXiWeeoimhKIZ9BCb9LN3CoL48pamljeO9-sGMboZafu44yn9BIejIWLB59Va50000]--></g></svg>