<?xml version="1.0" encoding="us-ascii" standalone="no"?><svg xmlns="http://www.w3.org/2000/svg" xmlns:xlink="http://www.w3.org/1999/xlink" contentStyleType="text/css" height="215px" preserveAspectRatio="none" style="width:277px;height:215px;background:#FFFFFF;" version="1.1" viewBox="0 0 277 215" width="277px" zoomAndPan="magnify"><defs/><g><ellipse cx="142" cy="20" fill="#222222" rx="10" ry="10" style="stroke:#222222;stroke-width:1.0;"/><rect fill="#F1F1F1" height="33.9688" rx="12.5" ry="12.5" style="stroke:#181818;stroke-width:0.5;" width="170" x="57" y="50"/><text fill="#000000" font-family="sans-serif" font-size="12" lengthAdjust="spacing" textLength="150" x="67" y="71.1387">Print Title Reachable Sigs</text><rect fill="#F1F1F1" height="33.9688" rx="12.5" ry="12.5" style="stroke:#181818;stroke-width:0.5;" width="194" x="45" y="147.9688"/><text fill="#000000" font-family="sans-serif" font-size="12" lengthAdjust="spacing" textLength="174" x="55" y="169.1074">Print Signature and Attributes</text><polygon fill="#F1F1F1" points="62.5,103.9688,221.5,103.9688,233.5,115.9688,221.5,127.9688,62.5,127.9688,50.5,115.9688,62.5,103.9688" style="stroke:#181818;stroke-width:0.5;"/><text fill="#000000" font-family="sans-serif" font-size="11" lengthAdjust="spacing" textLength="159" x="62.5" y="119.7769">For All Signatures in Module</text><ellipse cx="24" cy="158.9688" fill="none" rx="11" ry="11" style="stroke:#222222;stroke-width:1.0;"/><ellipse cx="24" cy="158.9688" fill="#222222" rx="6" ry="6" style="stroke:#222222;stroke-width:1.0;"/><line style="stroke:#181818;stroke-width:1.0;" x1="142" x2="142" y1="30" y2="50"/><polygon fill="#181818" points="138,40,142,50,146,40,142,44" style="stroke:#181818;stroke-width:1.0;"/><line style="stroke:#181818;stroke-width:1.0;" x1="142" x2="142" y1="127.9688" y2="147.9688"/><polygon fill="#181818" points="138,137.9688,142,147.9688,146,137.9688,142,141.9688" style="stroke:#181818;stroke-width:1.0;"/><line style="stroke:#181818;stroke-width:1.0;" x1="142" x2="142" y1="181.9375" y2="191.9375"/><line style="stroke:#181818;stroke-width:1.0;" x1="142" x2="251" y1="191.9375" y2="191.9375"/><polygon fill="#181818" points="247,162.9531,251,152.9531,255,162.9531,251,158.9531" style="stroke:#181818;stroke-width:1.0;"/><line style="stroke:#181818;stroke-width:1.0;" x1="251" x2="251" y1="115.9688" y2="191.9375"/><line style="stroke:#181818;stroke-width:1.0;" x1="251" x2="233.5" y1="115.9688" y2="115.9688"/><polygon fill="#181818" points="243.5,111.9688,233.5,115.9688,243.5,119.9688,239.5,115.9688" style="stroke:#181818;stroke-width:1.0;"/><line style="stroke:#181818;stroke-width:1.0;" x1="50.5" x2="24" y1="115.9688" y2="115.9688"/><line style="stroke:#181818;stroke-width:1.0;" x1="24" x2="24" y1="115.9688" y2="147.9688"/><polygon fill="#181818" points="20,137.9688,24,147.9688,28,137.9688,24,141.9688" style="stroke:#181818;stroke-width:1.0;"/><line style="stroke:#181818;stroke-width:1.0;" x1="142" x2="142" y1="83.9688" y2="103.9688"/><polygon fill="#181818" points="138,93.9688,142,103.9688,146,93.9688,142,97.9688" style="stroke:#181818;stroke-width:1.0;"/><!--SRC=[FSmn2iCm38NXtQVGs5oXdR9q2vIc5r1Y4Gk4NEHdUlqcXMPx_0- -1WwawoFKGI-52Js5ryBBlcRTsYrzYffSxZLeD3kQCtf88tMQQkucmnyuJsBFD0AXIuViY7Z-EQcXlhy0]--></g></svg>