<?xml version="1.0" encoding="us-ascii" standalone="no"?><svg xmlns="http://www.w3.org/2000/svg" xmlns:xlink="http://www.w3.org/1999/xlink" contentStyleType="text/css" height="284px" preserveAspectRatio="none" style="width:246px;height:284px;background:#FFFFFF;" version="1.1" viewBox="0 0 246 284" width="246px" zoomAndPan="magnify"><defs/><g><ellipse cx="126.5" cy="20" fill="#222222" rx="10" ry="10" style="stroke:#222222;stroke-width:1.0;"/><rect fill="#F1F1F1" height="33.9688" rx="12.5" ry="12.5" style="stroke:#181818;stroke-width:0.5;" width="161" x="46" y="50"/><text fill="#000000" font-family="sans-serif" font-size="12" lengthAdjust="spacing" textLength="141" x="56" y="71.1387">Print title Module.AllFact</text><rect fill="#F1F1F1" height="33.9688" rx="12.5" ry="12.5" style="stroke:#181818;stroke-width:0.5;" width="143" x="55" y="147.9688"/><text fill="#000000" font-family="sans-serif" font-size="12" lengthAdjust="spacing" textLength="123" x="65" y="169.1074">Print First Half of Pair</text><rect fill="#F1F1F1" height="33.9688" rx="12.5" ry="12.5" style="stroke:#181818;stroke-width:0.5;" width="163" x="45" y="216.9375"/><text fill="#000000" font-family="sans-serif" font-size="12" lengthAdjust="spacing" textLength="143" x="55" y="238.0762">Print Second Half of Pair</text><polygon fill="#F1F1F1" points="59,103.9688,194,103.9688,206,115.9688,194,127.9688,59,127.9688,47,115.9688,59,103.9688" style="stroke:#181818;stroke-width:0.5;"/><text fill="#000000" font-family="sans-serif" font-size="11" lengthAdjust="spacing" textLength="135" x="59" y="119.7769">for All Module Fact Pairs</text><ellipse cx="24" cy="158.9688" fill="none" rx="11" ry="11" style="stroke:#222222;stroke-width:1.0;"/><ellipse cx="24" cy="158.9688" fill="#222222" rx="6" ry="6" style="stroke:#222222;stroke-width:1.0;"/><line style="stroke:#181818;stroke-width:1.0;" x1="126.5" x2="126.5" y1="30" y2="50"/><polygon fill="#181818" points="122.5,40,126.5,50,130.5,40,126.5,44" style="stroke:#181818;stroke-width:1.0;"/><line style="stroke:#181818;stroke-width:1.0;" x1="126.5" x2="126.5" y1="181.9375" y2="216.9375"/><polygon fill="#181818" points="122.5,206.9375,126.5,216.9375,130.5,206.9375,126.5,210.9375" style="stroke:#181818;stroke-width:1.0;"/><line style="stroke:#181818;stroke-width:1.0;" x1="126.5" x2="126.5" y1="127.9688" y2="147.9688"/><polygon fill="#181818" points="122.5,137.9688,126.5,147.9688,130.5,137.9688,126.5,141.9688" style="stroke:#181818;stroke-width:1.0;"/><line style="stroke:#181818;stroke-width:1.0;" x1="126.5" x2="126.5" y1="250.9063" y2="260.9063"/><line style="stroke:#181818;stroke-width:1.0;" x1="126.5" x2="220" y1="260.9063" y2="260.9063"/><polygon fill="#181818" points="216,197.4375,220,187.4375,224,197.4375,220,193.4375" style="stroke:#181818;stroke-width:1.0;"/><line style="stroke:#181818;stroke-width:1.0;" x1="220" x2="220" y1="115.9688" y2="260.9063"/><line style="stroke:#181818;stroke-width:1.0;" x1="220" x2="206" y1="115.9688" y2="115.9688"/><polygon fill="#181818" points="216,111.9688,206,115.9688,216,119.9688,212,115.9688" style="stroke:#181818;stroke-width:1.0;"/><line style="stroke:#181818;stroke-width:1.0;" x1="47" x2="24" y1="115.9688" y2="115.9688"/><line style="stroke:#181818;stroke-width:1.0;" x1="24" x2="24" y1="115.9688" y2="147.9688"/><polygon fill="#181818" points="20,137.9688,24,147.9688,28,137.9688,24,141.9688" style="stroke:#181818;stroke-width:1.0;"/><line style="stroke:#181818;stroke-width:1.0;" x1="126.5" x2="126.5" y1="83.9688" y2="103.9688"/><polygon fill="#181818" points="122.5,93.9688,126.5,103.9688,130.5,93.9688,126.5,97.9688" style="stroke:#181818;stroke-width:1.0;"/><!--SRC=[Aov9B2hXiWeeoimhKIZ9BCb9LV3DJodDITLppCbnIqmkiUOgpyZCITL8oozI00f1PHL0KWe1YPb5nPemtMv0Jec2Hs9Eca9-6bZE6YOLd9gSdvU29fUQbm8scgku9By00000]--></g></svg>