<?xml version="1.0" encoding="us-ascii" standalone="no"?><svg xmlns="http://www.w3.org/2000/svg" xmlns:xlink="http://www.w3.org/1999/xlink" contentStyleType="text/css" height="500px" preserveAspectRatio="none" style="width:313px;height:500px;background:#FFFFFF;" version="1.1" viewBox="0 0 313 500" width="313px" zoomAndPan="magnify"><defs/><g><ellipse cx="156.5" cy="20" fill="#222222" rx="10" ry="10" style="stroke:#222222;stroke-width:1.0;"/><rect fill="#F1F1F1" height="33.9688" rx="12.5" ry="12.5" style="stroke:#181818;stroke-width:0.5;" width="291" x="11" y="50"/><text fill="#000000" font-family="sans-serif" font-size="12" lengthAdjust="spacing" textLength="271" x="21" y="71.1387">Print title All getAllReachableUserDefinedSigs</text><rect fill="#F1F1F1" height="33.9688" rx="12.5" ry="12.5" style="stroke:#181818;stroke-width:0.5;" width="194" x="59.5" y="147.9688"/><text fill="#000000" font-family="sans-serif" font-size="12" lengthAdjust="spacing" textLength="174" x="69.5" y="169.1074">Print Signature and Attributes</text><rect fill="#F1F1F1" height="33.9688" rx="12.5" ry="12.5" style="stroke:#181818;stroke-width:0.5;" width="98" x="107.5" y="201.9375"/><text fill="#000000" font-family="sans-serif" font-size="12" lengthAdjust="spacing" textLength="78" x="117.5" y="223.0762">Print Children</text><rect fill="#F1F1F1" height="33.9688" rx="12.5" ry="12.5" style="stroke:#181818;stroke-width:0.5;" width="129" x="92" y="255.9063"/><text fill="#000000" font-family="sans-serif" font-size="12" lengthAdjust="spacing" textLength="109" x="102" y="277.0449">Print Descendents</text><rect fill="#F1F1F1" height="33.9688" rx="12.5" ry="12.5" style="stroke:#181818;stroke-width:0.5;" width="157" x="78" y="324.875"/><text fill="#000000" font-family="sans-serif" font-size="12" lengthAdjust="spacing" textLength="137" x="88" y="346.0137">Print Field Declarations</text><rect fill="#F1F1F1" height="33.9688" rx="12.5" ry="12.5" style="stroke:#181818;stroke-width:0.5;" width="85" x="114" y="378.8438"/><text fill="#000000" font-family="sans-serif" font-size="12" lengthAdjust="spacing" textLength="65" x="124" y="399.9824">Print Fields</text><rect fill="#F1F1F1" height="33.9688" rx="12.5" ry="12.5" style="stroke:#181818;stroke-width:0.5;" width="81" x="116" y="432.8125"/><text fill="#000000" font-family="sans-serif" font-size="12" lengthAdjust="spacing" textLength="61" x="126" y="453.9512">Print Facts</text><polygon fill="#F1F1F1" points="78.5,103.9688,234.5,103.9688,246.5,115.9688,234.5,127.9688,78.5,127.9688,66.5,115.9688,78.5,103.9688" style="stroke:#181818;stroke-width:0.5;"/><text fill="#000000" font-family="sans-serif" font-size="11" lengthAdjust="spacing" textLength="156" x="78.5" y="119.7769">for all Signatures in Module</text><ellipse cx="36.5" cy="158.9688" fill="none" rx="11" ry="11" style="stroke:#222222;stroke-width:1.0;"/><ellipse cx="36.5" cy="158.9688" fill="#222222" rx="6" ry="6" style="stroke:#222222;stroke-width:1.0;"/><line style="stroke:#181818;stroke-width:1.0;" x1="156.5" x2="156.5" y1="30" y2="50"/><polygon fill="#181818" points="152.5,40,156.5,50,160.5,40,156.5,44" style="stroke:#181818;stroke-width:1.0;"/><line style="stroke:#181818;stroke-width:1.0;" x1="156.5" x2="156.5" y1="181.9375" y2="201.9375"/><polygon fill="#181818" points="152.5,191.9375,156.5,201.9375,160.5,191.9375,156.5,195.9375" style="stroke:#181818;stroke-width:1.0;"/><line style="stroke:#181818;stroke-width:1.0;" x1="156.5" x2="156.5" y1="235.9063" y2="255.9063"/><polygon fill="#181818" points="152.5,245.9063,156.5,255.9063,160.5,245.9063,156.5,249.9063" style="stroke:#181818;stroke-width:1.0;"/><line style="stroke:#181818;stroke-width:1.0;" x1="156.5" x2="156.5" y1="289.875" y2="324.875"/><polygon fill="#181818" points="152.5,314.875,156.5,324.875,160.5,314.875,156.5,318.875" style="stroke:#181818;stroke-width:1.0;"/><line style="stroke:#181818;stroke-width:1.0;" x1="156.5" x2="156.5" y1="358.8438" y2="378.8438"/><polygon fill="#181818" points="152.5,368.8438,156.5,378.8438,160.5,368.8438,156.5,372.8438" style="stroke:#181818;stroke-width:1.0;"/><line style="stroke:#181818;stroke-width:1.0;" x1="156.5" x2="156.5" y1="412.8125" y2="432.8125"/><polygon fill="#181818" points="152.5,422.8125,156.5,432.8125,160.5,422.8125,156.5,426.8125" style="stroke:#181818;stroke-width:1.0;"/><line style="stroke:#181818;stroke-width:1.0;" x1="156.5" x2="156.5" y1="127.9688" y2="147.9688"/><polygon fill="#181818" points="152.5,137.9688,156.5,147.9688,160.5,137.9688,156.5,141.9688" style="stroke:#181818;stroke-width:1.0;"/><line style="stroke:#181818;stroke-width:1.0;" x1="156.5" x2="156.5" y1="466.7813" y2="476.7813"/><line style="stroke:#181818;stroke-width:1.0;" x1="156.5" x2="265.5" y1="476.7813" y2="476.7813"/><polygon fill="#181818" points="261.5,305.375,265.5,295.375,269.5,305.375,265.5,301.375" style="stroke:#181818;stroke-width:1.0;"/><line style="stroke:#181818;stroke-width:1.0;" x1="265.5" x2="265.5" y1="115.9688" y2="476.7813"/><line style="stroke:#181818;stroke-width:1.0;" x1="265.5" x2="246.5" y1="115.9688" y2="115.9688"/><polygon fill="#181818" points="256.5,111.9688,246.5,115.9688,256.5,119.9688,252.5,115.9688" style="stroke:#181818;stroke-width:1.0;"/><line style="stroke:#181818;stroke-width:1.0;" x1="66.5" x2="36.5" y1="115.9688" y2="115.9688"/><line style="stroke:#181818;stroke-width:1.0;" x1="36.5" x2="36.5" y1="115.9688" y2="147.9688"/><polygon fill="#181818" points="32.5,137.9688,36.5,147.9688,40.5,137.9688,36.5,141.9688" style="stroke:#181818;stroke-width:1.0;"/><line style="stroke:#181818;stroke-width:1.0;" x1="156.5" x2="156.5" y1="83.9688" y2="103.9688"/><polygon fill="#181818" points="152.5,93.9688,156.5,103.9688,160.5,93.9688,156.5,97.9688" style="stroke:#181818;stroke-width:1.0;"/><!--SRC=[NOvD2i9038NtFKMMUWLT5OixGHGFaCwyje4XbKoArpUAVxWAUU_BHwgpURCvcgYJYnTGMmgDy1WdS9guBxXKM8T15FaiOzqsjqc2N0sp4GSUeR8lXagYT9ZpKh1-MpybiMPgtKtwnH6M5x0BMJRe9-XG4pH3_Glj1IL7ameRkypwL_sid1vt8NX-sLIVhtS0]--></g></svg>