<?xml version="1.0" encoding="us-ascii" standalone="no"?><svg xmlns="http://www.w3.org/2000/svg" xmlns:xlink="http://www.w3.org/1999/xlink" contentStyleType="text/css" height="244px" preserveAspectRatio="none" style="width:218px;height:244px;background:#FFFFFF;" version="1.1" viewBox="0 0 218 244" width="218px" zoomAndPan="magnify"><defs/><g><ellipse cx="109" cy="20" fill="#222222" rx="10" ry="10" style="stroke:#222222;stroke-width:1.0;"/><rect fill="#F1F1F1" height="33.9688" rx="12.5" ry="12.5" style="stroke:#181818;stroke-width:0.5;" width="196" x="11" y="50"/><text fill="#000000" font-family="sans-serif" font-size="12" lengthAdjust="spacing" textLength="176" x="21" y="71.1387">Call bijectionFiltered Function</text><rect fill="#F1F1F1" height="33.9688" rx="12.5" ry="12.5" style="stroke:#181818;stroke-width:0.5;" width="161" x="28.5" y="103.9688"/><text fill="#000000" font-family="sans-serif" font-size="12" lengthAdjust="spacing" textLength="141" x="38.5" y="125.1074">Create new Declaration</text><rect fill="#F1F1F1" height="33.9688" rx="12.5" ry="12.5" style="stroke:#181818;stroke-width:0.5;" width="191" x="13.5" y="157.9375"/><text fill="#000000" font-family="sans-serif" font-size="12" lengthAdjust="spacing" textLength="171" x="23.5" y="179.0762">Add Bijection to Overall Fact</text><ellipse cx="109" cy="222.9063" fill="none" rx="11" ry="11" style="stroke:#222222;stroke-width:1.0;"/><ellipse cx="109" cy="222.9063" fill="#222222" rx="6" ry="6" style="stroke:#222222;stroke-width:1.0;"/><line style="stroke:#181818;stroke-width:1.0;" x1="109" x2="109" y1="30" y2="50"/><polygon fill="#181818" points="105,40,109,50,113,40,109,44" style="stroke:#181818;stroke-width:1.0;"/><line style="stroke:#181818;stroke-width:1.0;" x1="109" x2="109" y1="83.9688" y2="103.9688"/><polygon fill="#181818" points="105,93.9688,109,103.9688,113,93.9688,109,97.9688" style="stroke:#181818;stroke-width:1.0;"/><line style="stroke:#181818;stroke-width:1.0;" x1="109" x2="109" y1="137.9375" y2="157.9375"/><polygon fill="#181818" points="105,147.9375,109,157.9375,113,147.9375,109,151.9375" style="stroke:#181818;stroke-width:1.0;"/><line style="stroke:#181818;stroke-width:1.0;" x1="109" x2="109" y1="191.9063" y2="211.9063"/><polygon fill="#181818" points="105,201.9063,109,211.9063,113,201.9063,109,205.9063" style="stroke:#181818;stroke-width:1.0;"/><!--SRC=[DOmv3e0m30JxlCBl81M7ql86asmHP2N8CV1z3a6xCxFDMCrr8ulGabT4oxM4B0P5eh2NT_2teM035Pmq8GehVw1FYOQ_9Aiq7z3dBd0qxvhLxG80]--></g></svg>