<?xml version="1.0" encoding="us-ascii" standalone="no"?><svg xmlns="http://www.w3.org/2000/svg" xmlns:xlink="http://www.w3.org/1999/xlink" contentStyleType="text/css" height="284px" preserveAspectRatio="none" style="width:246px;height:284px;background:#FFFFFF;" version="1.1" viewBox="0 0 246 284" width="246px" zoomAndPan="magnify"><defs/><g><ellipse cx="124" cy="20" fill="#222222" rx="10" ry="10" style="stroke:#222222;stroke-width:1.0;"/><rect fill="#F1F1F1" height="33.9688" rx="12.5" ry="12.5" style="stroke:#181818;stroke-width:0.5;" width="203" x="22.5" y="50"/><text fill="#000000" font-family="sans-serif" font-size="12" lengthAdjust="spacing" textLength="183" x="32.5" y="71.1387">Print title Module.AllCommands</text><rect fill="#F1F1F1" height="33.9688" rx="12.5" ry="12.5" style="stroke:#181818;stroke-width:0.5;" width="147" x="50.5" y="147.9688"/><text fill="#000000" font-family="sans-serif" font-size="12" lengthAdjust="spacing" textLength="127" x="60.5" y="169.1074">Print Command Name</text><rect fill="#F1F1F1" height="33.9688" rx="12.5" ry="12.5" style="stroke:#181818;stroke-width:0.5;" width="154" x="47" y="216.9375"/><text fill="#000000" font-family="sans-serif" font-size="12" lengthAdjust="spacing" textLength="134" x="57" y="238.0762">Print Command Details</text><polygon fill="#F1F1F1" points="51.5,103.9688,196.5,103.9688,208.5,115.9688,196.5,127.9688,51.5,127.9688,39.5,115.9688,51.5,103.9688" style="stroke:#181818;stroke-width:0.5;"/><text fill="#000000" font-family="sans-serif" font-size="11" lengthAdjust="spacing" textLength="145" x="51.5" y="119.7769">for all Module Commands</text><ellipse cx="24" cy="158.9688" fill="none" rx="11" ry="11" style="stroke:#222222;stroke-width:1.0;"/><ellipse cx="24" cy="158.9688" fill="#222222" rx="6" ry="6" style="stroke:#222222;stroke-width:1.0;"/><line style="stroke:#181818;stroke-width:1.0;" x1="124" x2="124" y1="30" y2="50"/><polygon fill="#181818" points="120,40,124,50,128,40,124,44" style="stroke:#181818;stroke-width:1.0;"/><line style="stroke:#181818;stroke-width:1.0;" x1="124" x2="124" y1="181.9375" y2="216.9375"/><polygon fill="#181818" points="120,206.9375,124,216.9375,128,206.9375,124,210.9375" style="stroke:#181818;stroke-width:1.0;"/><line style="stroke:#181818;stroke-width:1.0;" x1="124" x2="124" y1="127.9688" y2="147.9688"/><polygon fill="#181818" points="120,137.9688,124,147.9688,128,137.9688,124,141.9688" style="stroke:#181818;stroke-width:1.0;"/><line style="stroke:#181818;stroke-width:1.0;" x1="124" x2="124" y1="250.9063" y2="260.9063"/><line style="stroke:#181818;stroke-width:1.0;" x1="124" x2="220.5" y1="260.9063" y2="260.9063"/><polygon fill="#181818" points="216.5,197.4375,220.5,187.4375,224.5,197.4375,220.5,193.4375" style="stroke:#181818;stroke-width:1.0;"/><line style="stroke:#181818;stroke-width:1.0;" x1="220.5" x2="220.5" y1="115.9688" y2="260.9063"/><line style="stroke:#181818;stroke-width:1.0;" x1="220.5" x2="208.5" y1="115.9688" y2="115.9688"/><polygon fill="#181818" points="218.5,111.9688,208.5,115.9688,218.5,119.9688,214.5,115.9688" style="stroke:#181818;stroke-width:1.0;"/><line style="stroke:#181818;stroke-width:1.0;" x1="39.5" x2="24" y1="115.9688" y2="115.9688"/><line style="stroke:#181818;stroke-width:1.0;" x1="24" x2="24" y1="115.9688" y2="147.9688"/><polygon fill="#181818" points="20,137.9688,24,147.9688,28,137.9688,24,141.9688" style="stroke:#181818;stroke-width:1.0;"/><line style="stroke:#181818;stroke-width:1.0;" x1="124" x2="124" y1="83.9688" y2="103.9688"/><polygon fill="#181818" points="120,93.9688,124,103.9688,128,93.9688,124,97.9688" style="stroke:#181818;stroke-width:1.0;"/><!--SRC=[Aov9B2hXiWeeoimhKIZ9BCb9LV3DJodDITLppCbnpi_DJSnBARRcAi_8p4dLICilKaZCoO6gK819QyBqGmKK_19pKwtH1LrIIn8pSu1cfUQbW8tZAYx9Bm00]--></g></svg>