<?xml version="1.0" encoding="us-ascii" standalone="no"?><svg xmlns="http://www.w3.org/2000/svg" xmlns:xlink="http://www.w3.org/1999/xlink" contentStyleType="text/css" height="369px" preserveAspectRatio="none" style="width:346px;height:369px;background:#FFFFFF;" version="1.1" viewBox="0 0 346 369" width="346px" zoomAndPan="magnify"><defs/><g><ellipse cx="173" cy="20" fill="#222222" rx="10" ry="10" style="stroke:#222222;stroke-width:1.0;"/><rect fill="#F1F1F1" height="33.9688" rx="12.5" ry="12.5" style="stroke:#181818;stroke-width:0.5;" width="119" x="113.5" y="142.4023"/><text fill="#000000" font-family="sans-serif" font-size="12" lengthAdjust="spacing" textLength="99" x="123.5" y="163.541">Return Signature</text><ellipse cx="173" cy="207.3711" fill="none" rx="11" ry="11" style="stroke:#222222;stroke-width:1.0;"/><ellipse cx="173" cy="207.3711" fill="#222222" rx="6" ry="6" style="stroke:#222222;stroke-width:1.0;"/><polygon fill="#F1F1F1" points="48,94,298,94,310,106,298,118,48,118,36,106,48,94" style="stroke:#181818;stroke-width:0.5;"/><text fill="#000000" font-family="sans-serif" font-size="11" lengthAdjust="spacing" textLength="21" x="177" y="128.2104">yes</text><text fill="#000000" font-family="sans-serif" font-size="11" lengthAdjust="spacing" textLength="250" x="48" y="109.8081">Current Signature == Looking For Signature</text><polygon fill="#F1F1F1" points="83.5,50,262.5,50,274.5,62,262.5,74,83.5,74,71.5,62,83.5,50" style="stroke:#181818;stroke-width:0.5;"/><text fill="#000000" font-family="sans-serif" font-size="11" lengthAdjust="spacing" textLength="179" x="83.5" y="65.8081">for all Signatures in the Module</text><rect fill="#F1F1F1" height="33.9688" rx="12.5" ry="12.5" style="stroke:#181818;stroke-width:0.5;" width="82" x="132" y="282.3711"/><text fill="#000000" font-family="sans-serif" font-size="12" lengthAdjust="spacing" textLength="62" x="142" y="303.5098">Return null</text><ellipse cx="173" cy="347.3398" fill="none" rx="11" ry="11" style="stroke:#222222;stroke-width:1.0;"/><ellipse cx="173" cy="347.3398" fill="#222222" rx="6" ry="6" style="stroke:#222222;stroke-width:1.0;"/><line style="stroke:#181818;stroke-width:1.0;" x1="173" x2="173" y1="176.3711" y2="196.3711"/><polygon fill="#181818" points="169,186.3711,173,196.3711,177,186.3711,173,190.3711" style="stroke:#181818;stroke-width:1.0;"/><line style="stroke:#181818;stroke-width:1.0;" x1="173" x2="173" y1="118" y2="142.4023"/><polygon fill="#181818" points="169,132.4023,173,142.4023,177,132.4023,173,136.4023" style="stroke:#181818;stroke-width:1.0;"/><line style="stroke:#181818;stroke-width:1.0;" x1="310" x2="334" y1="106" y2="106"/><line style="stroke:#181818;stroke-width:1.0;" x1="334" x2="334" y1="62" y2="106"/><line style="stroke:#181818;stroke-width:1.0;" x1="334" x2="274.5" y1="62" y2="62"/><polygon fill="#181818" points="284.5,58,274.5,62,284.5,66,280.5,62" style="stroke:#181818;stroke-width:1.0;"/><line style="stroke:#181818;stroke-width:1.0;" x1="173" x2="173" y1="74" y2="94"/><polygon fill="#181818" points="169,84,173,94,177,84,173,88" style="stroke:#181818;stroke-width:1.0;"/><line style="stroke:#181818;stroke-width:1.0;" x1="71.5" x2="24" y1="62" y2="62"/><polygon fill="#181818" points="20,162.8867,24,172.8867,28,162.8867,24,166.8867" style="stroke:#181818;stroke-width:1.0;"/><line style="stroke:#181818;stroke-width:1.0;" x1="24" x2="24" y1="62" y2="262.3711"/><line style="stroke:#181818;stroke-width:1.0;" x1="24" x2="173" y1="262.3711" y2="262.3711"/><line style="stroke:#181818;stroke-width:1.0;" x1="173" x2="173" y1="262.3711" y2="282.3711"/><polygon fill="#181818" points="169,272.3711,173,282.3711,177,272.3711,173,276.3711" style="stroke:#181818;stroke-width:1.0;"/><line style="stroke:#181818;stroke-width:1.0;" x1="173" x2="173" y1="30" y2="50"/><polygon fill="#181818" points="169,40,173,50,177,40,173,44" style="stroke:#181818;stroke-width:1.0;"/><line style="stroke:#181818;stroke-width:1.0;" x1="173" x2="173" y1="316.3398" y2="336.3398"/><polygon fill="#181818" points="169,326.3398,173,336.3398,177,326.3398,173,330.3398" style="stroke:#181818;stroke-width:1.0;"/><!--SRC=[HOwn3i8m34HtVuN7v1T0dP2OO84lY5IdjR1iv3X2_7rRaDhbXhjtfsjHFE0pir2gvbX4yCcJbkXE3LanPiAxZLqe0zTqwUwaSK0u37WpUx5EU5qNzY1lLSNqfPRXzA3LqoCzGmjx0-d8TTFVXHtJBl8d5W00]--></g></svg>