<?xml version="1.0" encoding="us-ascii" standalone="no"?><svg xmlns="http://www.w3.org/2000/svg" xmlns:xlink="http://www.w3.org/1999/xlink" contentStyleType="text/css" height="190px" preserveAspectRatio="none" style="width:229px;height:190px;background:#FFFFFF;" version="1.1" viewBox="0 0 229 190" width="229px" zoomAndPan="magnify"><defs/><g><ellipse cx="114.5" cy="20" fill="#222222" rx="10" ry="10" style="stroke:#222222;stroke-width:1.0;"/><rect fill="#F1F1F1" height="33.9688" rx="12.5" ry="12.5" style="stroke:#181818;stroke-width:0.5;" width="161" x="34" y="50"/><text fill="#000000" font-family="sans-serif" font-size="12" lengthAdjust="spacing" textLength="141" x="44" y="71.1387">Create new Declaration</text><rect fill="#F1F1F1" height="33.9688" rx="12.5" ry="12.5" style="stroke:#181818;stroke-width:0.5;" width="207" x="11" y="103.9688"/><text fill="#000000" font-family="sans-serif" font-size="12" lengthAdjust="spacing" textLength="187" x="21" y="125.1074">Add Constraints to Overall Fact</text><ellipse cx="114.5" cy="168.9375" fill="none" rx="11" ry="11" style="stroke:#222222;stroke-width:1.0;"/><ellipse cx="114.5" cy="168.9375" fill="#222222" rx="6" ry="6" style="stroke:#222222;stroke-width:1.0;"/><line style="stroke:#181818;stroke-width:1.0;" x1="114.5" x2="114.5" y1="30" y2="50"/><polygon fill="#181818" points="110.5,40,114.5,50,118.5,40,114.5,44" style="stroke:#181818;stroke-width:1.0;"/><line style="stroke:#181818;stroke-width:1.0;" x1="114.5" x2="114.5" y1="83.9688" y2="103.9688"/><polygon fill="#181818" points="110.5,93.9688,114.5,103.9688,118.5,93.9688,114.5,97.9688" style="stroke:#181818;stroke-width:1.0;"/><line style="stroke:#181818;stroke-width:1.0;" x1="114.5" x2="114.5" y1="137.9375" y2="157.9375"/><polygon fill="#181818" points="110.5,147.9375,114.5,157.9375,118.5,147.9375,114.5,151.9375" style="stroke:#181818;stroke-width:1.0;"/><!--SRC=[1S6n2S0m30J0tbDe3hiA3capmsEhC1WfI4-oVkwI29RQGq4LqqzE7Hi1BhTMwZ6dTBTaO1bJw7A_6jXRBWosalJd1m00]--></g></svg>