<?xml version="1.0" encoding="us-ascii" standalone="no"?><svg xmlns="http://www.w3.org/2000/svg" xmlns:xlink="http://www.w3.org/1999/xlink" contentStyleType="text/css" height="284px" preserveAspectRatio="none" style="width:246px;height:284px;background:#FFFFFF;" version="1.1" viewBox="0 0 246 284" width="246px" zoomAndPan="magnify"><defs/><g><ellipse cx="127" cy="20" fill="#222222" rx="10" ry="10" style="stroke:#222222;stroke-width:1.0;"/><rect fill="#F1F1F1" height="33.9688" rx="12.5" ry="12.5" style="stroke:#181818;stroke-width:0.5;" width="164" x="45" y="50"/><text fill="#000000" font-family="sans-serif" font-size="12" lengthAdjust="spacing" textLength="144" x="55" y="71.1387">Print Title Module.AllFact</text><rect fill="#F1F1F1" height="33.9688" rx="12.5" ry="12.5" style="stroke:#181818;stroke-width:0.5;" width="143" x="55.5" y="147.9688"/><text fill="#000000" font-family="sans-serif" font-size="12" lengthAdjust="spacing" textLength="123" x="65.5" y="169.1074">Print First Half of Pair</text><rect fill="#F1F1F1" height="33.9688" rx="12.5" ry="12.5" style="stroke:#181818;stroke-width:0.5;" width="163" x="45.5" y="216.9375"/><text fill="#000000" font-family="sans-serif" font-size="12" lengthAdjust="spacing" textLength="143" x="55.5" y="238.0762">Print Second Half of Pair</text><polygon fill="#F1F1F1" points="58.5,103.9688,195.5,103.9688,207.5,115.9688,195.5,127.9688,58.5,127.9688,46.5,115.9688,58.5,103.9688" style="stroke:#181818;stroke-width:0.5;"/><text fill="#000000" font-family="sans-serif" font-size="11" lengthAdjust="spacing" textLength="137" x="58.5" y="119.7769">For All Module Fact Pairs</text><ellipse cx="24" cy="158.9688" fill="none" rx="11" ry="11" style="stroke:#222222;stroke-width:1.0;"/><ellipse cx="24" cy="158.9688" fill="#222222" rx="6" ry="6" style="stroke:#222222;stroke-width:1.0;"/><line style="stroke:#181818;stroke-width:1.0;" x1="127" x2="127" y1="30" y2="50"/><polygon fill="#181818" points="123,40,127,50,131,40,127,44" style="stroke:#181818;stroke-width:1.0;"/><line style="stroke:#181818;stroke-width:1.0;" x1="127" x2="127" y1="181.9375" y2="216.9375"/><polygon fill="#181818" points="123,206.9375,127,216.9375,131,206.9375,127,210.9375" style="stroke:#181818;stroke-width:1.0;"/><line style="stroke:#181818;stroke-width:1.0;" x1="127" x2="127" y1="127.9688" y2="147.9688"/><polygon fill="#181818" points="123,137.9688,127,147.9688,131,137.9688,127,141.9688" style="stroke:#181818;stroke-width:1.0;"/><line style="stroke:#181818;stroke-width:1.0;" x1="127" x2="127" y1="250.9063" y2="260.9063"/><line style="stroke:#181818;stroke-width:1.0;" x1="127" x2="220.5" y1="260.9063" y2="260.9063"/><polygon fill="#181818" points="216.5,197.4375,220.5,187.4375,224.5,197.4375,220.5,193.4375" style="stroke:#181818;stroke-width:1.0;"/><line style="stroke:#181818;stroke-width:1.0;" x1="220.5" x2="220.5" y1="115.9688" y2="260.9063"/><line style="stroke:#181818;stroke-width:1.0;" x1="220.5" x2="207.5" y1="115.9688" y2="115.9688"/><polygon fill="#181818" points="217.5,111.9688,207.5,115.9688,217.5,119.9688,213.5,115.9688" style="stroke:#181818;stroke-width:1.0;"/><line style="stroke:#181818;stroke-width:1.0;" x1="46.5" x2="24" y1="115.9688" y2="115.9688"/><line style="stroke:#181818;stroke-width:1.0;" x1="24" x2="24" y1="115.9688" y2="147.9688"/><polygon fill="#181818" points="20,137.9688,24,147.9688,28,137.9688,24,141.9688" style="stroke:#181818;stroke-width:1.0;"/><line style="stroke:#181818;stroke-width:1.0;" x1="127" x2="127" y1="83.9688" y2="103.9688"/><polygon fill="#181818" points="123,93.9688,127,103.9688,131,93.9688,127,97.9688" style="stroke:#181818;stroke-width:1.0;"/><!--SRC=[Aov9B2hXiWeeoimhKGZ9BCb9LV3DJodDITLppCbnIqmkiUOgpyZCITLmoozI00f1PHL0KWe1YPb5nPemtMv0Jec2Hs9Eca9-6bZE6YOLd9gSdvU29fUQbm8scgku9By00000]--></g></svg>