<?xml version="1.0" encoding="us-ascii" standalone="no"?><svg xmlns="http://www.w3.org/2000/svg" xmlns:xlink="http://www.w3.org/1999/xlink" contentStyleType="text/css" height="389px" preserveAspectRatio="none" style="width:266px;height:389px;background:#FFFFFF;" version="1.1" viewBox="0 0 266 389" width="266px" zoomAndPan="magnify"><defs/><g><ellipse cx="144.5" cy="20" fill="#222222" rx="10" ry="10" style="stroke:#222222;stroke-width:1.0;"/><rect fill="#F1F1F1" height="33.9688" rx="12.5" ry="12.5" style="stroke:#181818;stroke-width:0.5;" width="119" x="85" y="50"/><text fill="#000000" font-family="sans-serif" font-size="12" lengthAdjust="spacing" textLength="99" x="95" y="71.1387">Print title All Sigs</text><rect fill="#F1F1F1" height="33.9688" rx="12.5" ry="12.5" style="stroke:#181818;stroke-width:0.5;" width="153" x="68" y="103.9688"/><text fill="#000000" font-family="sans-serif" font-size="12" lengthAdjust="spacing" textLength="133" x="78" y="125.1074">Print List of Signatures</text><rect fill="#F1F1F1" height="33.9688" rx="12.5" ry="12.5" style="stroke:#181818;stroke-width:0.5;" width="142" x="73.5" y="201.9375"/><text fill="#000000" font-family="sans-serif" font-size="12" lengthAdjust="spacing" textLength="122" x="83.5" y="223.0762">Print Signature Label</text><rect fill="#F1F1F1" height="33.9688" rx="12.5" ry="12.5" style="stroke:#181818;stroke-width:0.5;" width="139" x="75" y="299.9063"/><text fill="#000000" font-family="sans-serif" font-size="12" lengthAdjust="spacing" textLength="119" x="85" y="321.0449">Print Signature Field</text><polygon fill="#F1F1F1" points="73,255.9063,216,255.9063,228,267.9063,216,279.9063,73,279.9063,61,267.9063,73,255.9063" style="stroke:#181818;stroke-width:0.5;"/><text fill="#000000" font-family="sans-serif" font-size="11" lengthAdjust="spacing" textLength="143" x="73" y="271.7144">for every Signature Field</text><polygon fill="#F1F1F1" points="89,157.9375,200,157.9375,212,169.9375,200,181.9375,89,181.9375,77,169.9375,89,157.9375" style="stroke:#181818;stroke-width:0.5;"/><text fill="#000000" font-family="sans-serif" font-size="11" lengthAdjust="spacing" textLength="111" x="89" y="173.7456">for Every Signature</text><ellipse cx="24" cy="212.9375" fill="none" rx="11" ry="11" style="stroke:#222222;stroke-width:1.0;"/><ellipse cx="24" cy="212.9375" fill="#222222" rx="6" ry="6" style="stroke:#222222;stroke-width:1.0;"/><line style="stroke:#181818;stroke-width:1.0;" x1="144.5" x2="144.5" y1="30" y2="50"/><polygon fill="#181818" points="140.5,40,144.5,50,148.5,40,144.5,44" style="stroke:#181818;stroke-width:1.0;"/><line style="stroke:#181818;stroke-width:1.0;" x1="144.5" x2="144.5" y1="83.9688" y2="103.9688"/><polygon fill="#181818" points="140.5,93.9688,144.5,103.9688,148.5,93.9688,144.5,97.9688" style="stroke:#181818;stroke-width:1.0;"/><line style="stroke:#181818;stroke-width:1.0;" x1="144.5" x2="144.5" y1="279.9063" y2="299.9063"/><polygon fill="#181818" points="140.5,289.9063,144.5,299.9063,148.5,289.9063,144.5,293.9063" style="stroke:#181818;stroke-width:1.0;"/><line style="stroke:#181818;stroke-width:1.0;" x1="144.5" x2="144.5" y1="333.875" y2="343.875"/><line style="stroke:#181818;stroke-width:1.0;" x1="144.5" x2="240" y1="343.875" y2="343.875"/><polygon fill="#181818" points="236,314.8906,240,304.8906,244,314.8906,240,310.8906" style="stroke:#181818;stroke-width:1.0;"/><line style="stroke:#181818;stroke-width:1.0;" x1="240" x2="240" y1="267.9063" y2="343.875"/><line style="stroke:#181818;stroke-width:1.0;" x1="240" x2="228" y1="267.9063" y2="267.9063"/><polygon fill="#181818" points="238,263.9063,228,267.9063,238,271.9063,234,267.9063" style="stroke:#181818;stroke-width:1.0;"/><line style="stroke:#181818;stroke-width:1.0;" x1="61" x2="49" y1="267.9063" y2="267.9063"/><polygon fill="#181818" points="45,300.8906,49,310.8906,53,300.8906,49,304.8906" style="stroke:#181818;stroke-width:1.0;"/><line style="stroke:#181818;stroke-width:1.0;" x1="49" x2="49" y1="267.9063" y2="355.875"/><line style="stroke:#181818;stroke-width:1.0;" x1="49" x2="252" y1="355.875" y2="355.875"/><line style="stroke:#181818;stroke-width:1.0;" x1="252" x2="252" y1="169.9375" y2="355.875"/><line style="stroke:#181818;stroke-width:1.0;" x1="252" x2="212" y1="169.9375" y2="169.9375"/><polygon fill="#181818" points="222,165.9375,212,169.9375,222,173.9375,218,169.9375" style="stroke:#181818;stroke-width:1.0;"/><line style="stroke:#181818;stroke-width:1.0;" x1="144.5" x2="144.5" y1="235.9063" y2="255.9063"/><polygon fill="#181818" points="140.5,245.9063,144.5,255.9063,148.5,245.9063,144.5,249.9063" style="stroke:#181818;stroke-width:1.0;"/><line style="stroke:#181818;stroke-width:1.0;" x1="144.5" x2="144.5" y1="181.9375" y2="201.9375"/><polygon fill="#181818" points="140.5,191.9375,144.5,201.9375,148.5,191.9375,144.5,195.9375" style="stroke:#181818;stroke-width:1.0;"/><line style="stroke:#181818;stroke-width:1.0;" x1="77" x2="24" y1="169.9375" y2="169.9375"/><line style="stroke:#181818;stroke-width:1.0;" x1="24" x2="24" y1="169.9375" y2="201.9375"/><polygon fill="#181818" points="20,191.9375,24,201.9375,28,191.9375,24,195.9375" style="stroke:#181818;stroke-width:1.0;"/><line style="stroke:#181818;stroke-width:1.0;" x1="144.5" x2="144.5" y1="137.9375" y2="157.9375"/><polygon fill="#181818" points="140.5,147.9375,144.5,157.9375,148.5,147.9375,144.5,151.9375" style="stroke:#181818;stroke-width:1.0;"/><!--SRC=[RSjD3a1038RXlLDqoHLOMR2oa3Z1YA99CoET8cwFYPz8x9htw-FLY4PfBMGLb9GHScPeQF3PdIlo2gu_epKw2nxJEjBn6lTEe5XGjdTCRlOKg4oBV9b0y4kW9EJk1uQUHMYxOD_3gvjs]--></g></svg>