<?xml version="1.0" encoding="us-ascii" standalone="no"?><svg xmlns="http://www.w3.org/2000/svg" xmlns:xlink="http://www.w3.org/1999/xlink" contentStyleType="text/css" height="352px" preserveAspectRatio="none" style="width:236px;height:352px;background:#FFFFFF;" version="1.1" viewBox="0 0 236 352" width="236px" zoomAndPan="magnify"><defs/><g><ellipse cx="109" cy="20" fill="#222222" rx="10" ry="10" style="stroke:#222222;stroke-width:1.0;"/><rect fill="#F1F1F1" height="33.9688" rx="12.5" ry="12.5" style="stroke:#181818;stroke-width:0.5;" width="134" x="42" y="98.4023"/><text fill="#000000" font-family="sans-serif" font-size="12" lengthAdjust="spacing" textLength="114" x="52" y="119.541">Find Index of Slash</text><rect fill="#F1F1F1" height="33.9688" rx="12.5" ry="12.5" style="stroke:#181818;stroke-width:0.5;" width="106" x="56" y="167.3711"/><text fill="#000000" font-family="sans-serif" font-size="12" lengthAdjust="spacing" textLength="86" x="66" y="188.5098">Remove Index</text><polygon fill="#F1F1F1" points="32,50,186,50,198,62,186,74,32,74,20,62,32,50" style="stroke:#181818;stroke-width:0.5;"/><text fill="#000000" font-family="sans-serif" font-size="11" lengthAdjust="spacing" textLength="21" x="113" y="84.2104">yes</text><text fill="#000000" font-family="sans-serif" font-size="11" lengthAdjust="spacing" textLength="154" x="32" y="65.8081">Signature Contains a Slash</text><polygon fill="#F1F1F1" points="109,221.3398,121,233.3398,109,245.3398,97,233.3398,109,221.3398" style="stroke:#181818;stroke-width:0.5;"/><rect fill="#F1F1F1" height="33.9688" rx="12.5" ry="12.5" style="stroke:#181818;stroke-width:0.5;" width="119" x="49.5" y="265.3398"/><text fill="#000000" font-family="sans-serif" font-size="12" lengthAdjust="spacing" textLength="99" x="59.5" y="286.4785">Return Signature</text><ellipse cx="109" cy="330.3086" fill="none" rx="11" ry="11" style="stroke:#222222;stroke-width:1.0;"/><ellipse cx="109" cy="330.3086" fill="#222222" rx="6" ry="6" style="stroke:#222222;stroke-width:1.0;"/><line style="stroke:#181818;stroke-width:1.0;" x1="109" x2="109" y1="132.3711" y2="167.3711"/><polygon fill="#181818" points="105,157.3711,109,167.3711,113,157.3711,109,161.3711" style="stroke:#181818;stroke-width:1.0;"/><line style="stroke:#181818;stroke-width:1.0;" x1="109" x2="109" y1="74" y2="98.4023"/><polygon fill="#181818" points="105,88.4023,109,98.4023,113,88.4023,109,92.4023" style="stroke:#181818;stroke-width:1.0;"/><line style="stroke:#181818;stroke-width:1.0;" x1="198" x2="210" y1="62" y2="62"/><polygon fill="#181818" points="206,139.8711,210,149.8711,214,139.8711,210,143.8711" style="stroke:#181818;stroke-width:1.0;"/><line style="stroke:#181818;stroke-width:1.0;" x1="210" x2="210" y1="62" y2="233.3398"/><line style="stroke:#181818;stroke-width:1.0;" x1="210" x2="121" y1="233.3398" y2="233.3398"/><polygon fill="#181818" points="131,229.3398,121,233.3398,131,237.3398,127,233.3398" style="stroke:#181818;stroke-width:1.0;"/><line style="stroke:#181818;stroke-width:1.0;" x1="109" x2="109" y1="201.3398" y2="221.3398"/><polygon fill="#181818" points="105,211.3398,109,221.3398,113,211.3398,109,215.3398" style="stroke:#181818;stroke-width:1.0;"/><line style="stroke:#181818;stroke-width:1.0;" x1="109" x2="109" y1="30" y2="50"/><polygon fill="#181818" points="105,40,109,50,113,40,109,44" style="stroke:#181818;stroke-width:1.0;"/><line style="stroke:#181818;stroke-width:1.0;" x1="109" x2="109" y1="245.3398" y2="265.3398"/><polygon fill="#181818" points="105,255.3398,109,265.3398,113,255.3398,109,259.3398" style="stroke:#181818;stroke-width:1.0;"/><line style="stroke:#181818;stroke-width:1.0;" x1="109" x2="109" y1="299.3086" y2="319.3086"/><polygon fill="#181818" points="105,309.3086,109,319.3086,113,309.3086,109,313.3086" style="stroke:#181818;stroke-width:1.0;"/><!--SRC=[FOn12eD034NtESLVEbVeB0k2Mpr1O38Qq8oOjBItRqLm-zxZUV0Hf1NTfBDnl0x1ircmceCnhUnBGYnYwBxYYO17hrOmM94FMhsIVF9HjlQMosGIArhffF-fuTvdycZx3m00]--></g></svg>