<?xml version="1.0" encoding="us-ascii" standalone="no"?><svg xmlns="http://www.w3.org/2000/svg" xmlns:xlink="http://www.w3.org/1999/xlink" contentStyleType="text/css" height="228px" preserveAspectRatio="none" style="width:388px;height:228px;background:#FFFFFF;" version="1.1" viewBox="0 0 388 228" width="388px" zoomAndPan="magnify"><defs/><g><ellipse cx="195.5" cy="20" fill="#222222" rx="10" ry="10" style="stroke:#222222;stroke-width:1.0;"/><polygon fill="#F1F1F1" points="78.5,50,312.5,50,324.5,75.6094,312.5,101.2188,78.5,101.2188,66.5,75.6094,78.5,50" style="stroke:#181818;stroke-width:0.5;"/><text fill="#000000" font-family="sans-serif" font-size="11" lengthAdjust="spacing" textLength="132" x="78.5" y="60.2104">parentName == null or</text><text fill="#000000" font-family="sans-serif" font-size="11" lengthAdjust="spacing" textLength="234" x="78.5" y="73.0151">parentName == "BehaviorOccurence" or</text><text fill="#000000" font-family="sans-serif" font-size="11" lengthAdjust="spacing" textLength="187" x="78.5" y="85.8198">parentName == "Occurrence" or</text><text fill="#000000" font-family="sans-serif" font-size="11" lengthAdjust="spacing" textLength="157" x="78.5" y="98.6245">parentName == "Anything"</text><text fill="#000000" font-family="sans-serif" font-size="11" lengthAdjust="spacing" textLength="21" x="45.5" y="73.0151">yes</text><text fill="#000000" font-family="sans-serif" font-size="11" lengthAdjust="spacing" textLength="14" x="324.5" y="73.0151">no</text><rect fill="#F1F1F1" height="33.9688" rx="12.5" ry="12.5" style="stroke:#181818;stroke-width:0.5;" width="91" x="11" y="111.2188"/><text fill="#000000" font-family="sans-serif" font-size="12" lengthAdjust="spacing" textLength="71" x="21" y="132.3574">Return false</text><rect fill="#F1F1F1" height="33.9688" rx="12.5" ry="12.5" style="stroke:#181818;stroke-width:0.5;" width="86" x="291.5" y="111.2188"/><text fill="#000000" font-family="sans-serif" font-size="12" lengthAdjust="spacing" textLength="66" x="301.5" y="132.3574">Return true</text><polygon fill="#F1F1F1" points="195.5,151.1875,207.5,163.1875,195.5,175.1875,183.5,163.1875,195.5,151.1875" style="stroke:#181818;stroke-width:0.5;"/><ellipse cx="195.5" cy="206.1875" fill="none" rx="11" ry="11" style="stroke:#222222;stroke-width:1.0;"/><ellipse cx="195.5" cy="206.1875" fill="#222222" rx="6" ry="6" style="stroke:#222222;stroke-width:1.0;"/><line style="stroke:#181818;stroke-width:1.0;" x1="66.5" x2="56.5" y1="75.6094" y2="75.6094"/><line style="stroke:#181818;stroke-width:1.0;" x1="56.5" x2="56.5" y1="75.6094" y2="111.2188"/><polygon fill="#181818" points="52.5,101.2188,56.5,111.2188,60.5,101.2188,56.5,105.2188" style="stroke:#181818;stroke-width:1.0;"/><line style="stroke:#181818;stroke-width:1.0;" x1="324.5" x2="334.5" y1="75.6094" y2="75.6094"/><line style="stroke:#181818;stroke-width:1.0;" x1="334.5" x2="334.5" y1="75.6094" y2="111.2188"/><polygon fill="#181818" points="330.5,101.2188,334.5,111.2188,338.5,101.2188,334.5,105.2188" style="stroke:#181818;stroke-width:1.0;"/><line style="stroke:#181818;stroke-width:1.0;" x1="56.5" x2="56.5" y1="145.1875" y2="163.1875"/><line style="stroke:#181818;stroke-width:1.0;" x1="56.5" x2="183.5" y1="163.1875" y2="163.1875"/><polygon fill="#181818" points="173.5,159.1875,183.5,163.1875,173.5,167.1875,177.5,163.1875" style="stroke:#181818;stroke-width:1.0;"/><line style="stroke:#181818;stroke-width:1.0;" x1="334.5" x2="334.5" y1="145.1875" y2="163.1875"/><line style="stroke:#181818;stroke-width:1.0;" x1="334.5" x2="207.5" y1="163.1875" y2="163.1875"/><polygon fill="#181818" points="217.5,159.1875,207.5,163.1875,217.5,167.1875,213.5,163.1875" style="stroke:#181818;stroke-width:1.0;"/><line style="stroke:#181818;stroke-width:1.0;" x1="195.5" x2="195.5" y1="30" y2="50"/><polygon fill="#181818" points="191.5,40,195.5,50,199.5,40,195.5,44" style="stroke:#181818;stroke-width:1.0;"/><line style="stroke:#181818;stroke-width:1.0;" x1="195.5" x2="195.5" y1="175.1875" y2="195.1875"/><polygon fill="#181818" points="191.5,185.1875,195.5,195.1875,199.5,185.1875,195.5,189.1875" style="stroke:#181818;stroke-width:1.0;"/><!--SRC=[TSf12W8n38NXVKuHkkfSGPc57a316uHEQWir7T9KwErdT2E2RjxY-rypKeCS_KhAOXTwCCupIYy5gyAtkZCdUkQgrn3w7WAx7wTt_5jFCYnbkRi9BR6W7zmcEDpOkWf6AesFmFjwgHytxI-M9KTeLjSD]--></g></svg>