<?xml version="1.0" encoding="us-ascii" standalone="no"?><svg xmlns="http://www.w3.org/2000/svg" xmlns:xlink="http://www.w3.org/1999/xlink" contentStyleType="text/css" height="389px" preserveAspectRatio="none" style="width:267px;height:389px;background:#FFFFFF;" version="1.1" viewBox="0 0 267 389" width="267px" zoomAndPan="magnify"><defs/><g><ellipse cx="145" cy="20" fill="#222222" rx="10" ry="10" style="stroke:#222222;stroke-width:1.0;"/><rect fill="#F1F1F1" height="33.9688" rx="12.5" ry="12.5" style="stroke:#181818;stroke-width:0.5;" width="122" x="84" y="50"/><text fill="#000000" font-family="sans-serif" font-size="12" lengthAdjust="spacing" textLength="102" x="94" y="71.1387">Print Title All Sigs</text><rect fill="#F1F1F1" height="33.9688" rx="12.5" ry="12.5" style="stroke:#181818;stroke-width:0.5;" width="153" x="68.5" y="103.9688"/><text fill="#000000" font-family="sans-serif" font-size="12" lengthAdjust="spacing" textLength="133" x="78.5" y="125.1074">Print List of Signatures</text><rect fill="#F1F1F1" height="33.9688" rx="12.5" ry="12.5" style="stroke:#181818;stroke-width:0.5;" width="142" x="74" y="201.9375"/><text fill="#000000" font-family="sans-serif" font-size="12" lengthAdjust="spacing" textLength="122" x="84" y="223.0762">Print Signature Label</text><rect fill="#F1F1F1" height="33.9688" rx="12.5" ry="12.5" style="stroke:#181818;stroke-width:0.5;" width="139" x="75.5" y="299.9063"/><text fill="#000000" font-family="sans-serif" font-size="12" lengthAdjust="spacing" textLength="119" x="85.5" y="321.0449">Print Signature Field</text><polygon fill="#F1F1F1" points="73,255.9063,217,255.9063,229,267.9063,217,279.9063,73,279.9063,61,267.9063,73,255.9063" style="stroke:#181818;stroke-width:0.5;"/><text fill="#000000" font-family="sans-serif" font-size="11" lengthAdjust="spacing" textLength="144" x="73" y="271.7144">For Every Signature Field</text><polygon fill="#F1F1F1" points="89.5,157.9375,200.5,157.9375,212.5,169.9375,200.5,181.9375,89.5,181.9375,77.5,169.9375,89.5,157.9375" style="stroke:#181818;stroke-width:0.5;"/><text fill="#000000" font-family="sans-serif" font-size="11" lengthAdjust="spacing" textLength="111" x="89.5" y="173.7456">for Every Signature</text><ellipse cx="24" cy="212.9375" fill="none" rx="11" ry="11" style="stroke:#222222;stroke-width:1.0;"/><ellipse cx="24" cy="212.9375" fill="#222222" rx="6" ry="6" style="stroke:#222222;stroke-width:1.0;"/><line style="stroke:#181818;stroke-width:1.0;" x1="145" x2="145" y1="30" y2="50"/><polygon fill="#181818" points="141,40,145,50,149,40,145,44" style="stroke:#181818;stroke-width:1.0;"/><line style="stroke:#181818;stroke-width:1.0;" x1="145" x2="145" y1="83.9688" y2="103.9688"/><polygon fill="#181818" points="141,93.9688,145,103.9688,149,93.9688,145,97.9688" style="stroke:#181818;stroke-width:1.0;"/><line style="stroke:#181818;stroke-width:1.0;" x1="145" x2="145" y1="279.9063" y2="299.9063"/><polygon fill="#181818" points="141,289.9063,145,299.9063,149,289.9063,145,293.9063" style="stroke:#181818;stroke-width:1.0;"/><line style="stroke:#181818;stroke-width:1.0;" x1="145" x2="145" y1="333.875" y2="343.875"/><line style="stroke:#181818;stroke-width:1.0;" x1="145" x2="241" y1="343.875" y2="343.875"/><polygon fill="#181818" points="237,314.8906,241,304.8906,245,314.8906,241,310.8906" style="stroke:#181818;stroke-width:1.0;"/><line style="stroke:#181818;stroke-width:1.0;" x1="241" x2="241" y1="267.9063" y2="343.875"/><line style="stroke:#181818;stroke-width:1.0;" x1="241" x2="229" y1="267.9063" y2="267.9063"/><polygon fill="#181818" points="239,263.9063,229,267.9063,239,271.9063,235,267.9063" style="stroke:#181818;stroke-width:1.0;"/><line style="stroke:#181818;stroke-width:1.0;" x1="61" x2="49" y1="267.9063" y2="267.9063"/><polygon fill="#181818" points="45,300.8906,49,310.8906,53,300.8906,49,304.8906" style="stroke:#181818;stroke-width:1.0;"/><line style="stroke:#181818;stroke-width:1.0;" x1="49" x2="49" y1="267.9063" y2="355.875"/><line style="stroke:#181818;stroke-width:1.0;" x1="49" x2="253" y1="355.875" y2="355.875"/><line style="stroke:#181818;stroke-width:1.0;" x1="253" x2="253" y1="169.9375" y2="355.875"/><line style="stroke:#181818;stroke-width:1.0;" x1="253" x2="212.5" y1="169.9375" y2="169.9375"/><polygon fill="#181818" points="222.5,165.9375,212.5,169.9375,222.5,173.9375,218.5,169.9375" style="stroke:#181818;stroke-width:1.0;"/><line style="stroke:#181818;stroke-width:1.0;" x1="145" x2="145" y1="235.9063" y2="255.9063"/><polygon fill="#181818" points="141,245.9063,145,255.9063,149,245.9063,145,249.9063" style="stroke:#181818;stroke-width:1.0;"/><line style="stroke:#181818;stroke-width:1.0;" x1="145" x2="145" y1="181.9375" y2="201.9375"/><polygon fill="#181818" points="141,191.9375,145,201.9375,149,191.9375,145,195.9375" style="stroke:#181818;stroke-width:1.0;"/><line style="stroke:#181818;stroke-width:1.0;" x1="77.5" x2="24" y1="169.9375" y2="169.9375"/><line style="stroke:#181818;stroke-width:1.0;" x1="24" x2="24" y1="169.9375" y2="201.9375"/><polygon fill="#181818" points="20,191.9375,24,201.9375,28,191.9375,24,195.9375" style="stroke:#181818;stroke-width:1.0;"/><line style="stroke:#181818;stroke-width:1.0;" x1="145" x2="145" y1="137.9375" y2="157.9375"/><polygon fill="#181818" points="141,147.9375,145,157.9375,149,147.9375,145,151.9375" style="stroke:#181818;stroke-width:1.0;"/><!--SRC=[Aov9B2hXiWeeoimhKGZ9BCb9LN3CoL48pamljeO9-sGMboZafu44yn9BIejIWLBb6Pb0fHff-KKAhcMfHPK8IKsODhY8WazYKceEL8-66wOM1RVCr9mKB1h1ujPSgNafOBq8Hd59VW40]--></g></svg>