<?xml version="1.0" encoding="us-ascii" standalone="no"?><svg xmlns="http://www.w3.org/2000/svg" xmlns:xlink="http://www.w3.org/1999/xlink" contentStyleType="text/css" height="345px" preserveAspectRatio="none" style="width:386px;height:345px;background:#FFFFFF;" version="1.1" viewBox="0 0 386 345" width="386px" zoomAndPan="magnify"><defs/><g><ellipse cx="192" cy="20" fill="#222222" rx="10" ry="10" style="stroke:#222222;stroke-width:1.0;"/><rect fill="#F1F1F1" height="33.9688" rx="12.5" ry="12.5" style="stroke:#181818;stroke-width:0.5;" width="229" x="77.5" y="50"/><text fill="#000000" font-family="sans-serif" font-size="12" lengthAdjust="spacing" textLength="209" x="87.5" y="71.1387">Join p2 with mainSig to create plus</text><rect fill="#F1F1F1" height="33.9688" rx="12.5" ry="12.5" style="stroke:#181818;stroke-width:0.5;" width="312" x="36" y="147.9688"/><text fill="#000000" font-family="sans-serif" font-size="12" lengthAdjust="spacing" textLength="292" x="46" y="169.1074">Add current Sig.Field Joined to mainSig with plus</text><polygon fill="#F1F1F1" points="127,103.9688,257,103.9688,269,115.9688,257,127.9688,127,127.9688,115,115.9688,127,103.9688" style="stroke:#181818;stroke-width:0.5;"/><text fill="#000000" font-family="sans-serif" font-size="11" lengthAdjust="spacing" textLength="130" x="127" y="119.7769">For all Elements in p3s</text><rect fill="#F1F1F1" height="33.9688" rx="12.5" ry="12.5" style="stroke:#181818;stroke-width:0.5;" width="165" x="109.5" y="258.1411"/><text fill="#000000" font-family="sans-serif" font-size="12" lengthAdjust="spacing" textLength="145" x="119.5" y="279.2798">Create Bijection Filtered</text><ellipse cx="192" cy="323.1099" fill="none" rx="11" ry="11" style="stroke:#222222;stroke-width:1.0;"/><ellipse cx="192" cy="323.1099" fill="#222222" rx="6" ry="6" style="stroke:#222222;stroke-width:1.0;"/><line style="stroke:#181818;stroke-width:1.0;" x1="192" x2="192" y1="30" y2="50"/><polygon fill="#181818" points="188,40,192,50,196,40,192,44" style="stroke:#181818;stroke-width:1.0;"/><line style="stroke:#181818;stroke-width:1.0;" x1="192" x2="192" y1="127.9688" y2="147.9688"/><polygon fill="#181818" points="188,137.9688,192,147.9688,196,137.9688,192,141.9688" style="stroke:#181818;stroke-width:1.0;"/><line style="stroke:#181818;stroke-width:1.0;" x1="192" x2="192" y1="181.9375" y2="191.9375"/><line style="stroke:#181818;stroke-width:1.0;" x1="192" x2="360" y1="191.9375" y2="191.9375"/><polygon fill="#181818" points="356,162.9531,360,152.9531,364,162.9531,360,158.9531" style="stroke:#181818;stroke-width:1.0;"/><line style="stroke:#181818;stroke-width:1.0;" x1="360" x2="360" y1="115.9688" y2="191.9375"/><line style="stroke:#181818;stroke-width:1.0;" x1="360" x2="269" y1="115.9688" y2="115.9688"/><polygon fill="#181818" points="279,111.9688,269,115.9688,279,119.9688,275,115.9688" style="stroke:#181818;stroke-width:1.0;"/><line style="stroke:#181818;stroke-width:1.0;" x1="115" x2="24" y1="115.9688" y2="115.9688"/><polygon fill="#181818" points="20,148.9531,24,158.9531,28,148.9531,24,152.9531" style="stroke:#181818;stroke-width:1.0;"/><line style="stroke:#181818;stroke-width:1.0;" x1="24" x2="24" y1="115.9688" y2="203.9375"/><line style="stroke:#181818;stroke-width:1.0;" x1="24" x2="192" y1="203.9375" y2="203.9375"/><line style="stroke:#181818;stroke-width:1.0;" x1="192" x2="192" y1="83.9688" y2="103.9688"/><polygon fill="#181818" points="188,93.9688,192,103.9688,196,93.9688,192,97.9688" style="stroke:#181818;stroke-width:1.0;"/><line style="stroke:#181818;stroke-width:1.0;" x1="192" x2="192" y1="203.9375" y2="258.1411"/><polygon fill="#181818" points="188,248.1411,192,258.1411,196,248.1411,192,252.1411" style="stroke:#181818;stroke-width:1.0;"/><text fill="#000000" font-family="sans-serif" font-size="11" lengthAdjust="spacing" textLength="103" x="196" y="225.2422">_mainSig.join(_p1)</text><text fill="#000000" font-family="sans-serif" font-size="11" lengthAdjust="spacing" textLength="23" x="196" y="238.0469">plus</text><line style="stroke:#181818;stroke-width:1.0;" x1="192" x2="192" y1="292.1099" y2="312.1099"/><polygon fill="#181818" points="188,302.1099,192,312.1099,196,302.1099,192,306.1099" style="stroke:#181818;stroke-width:1.0;"/><!--SRC=[DOux3i8m44Hxds9AKX09w1892H0fQ3b0PCKhij76jkoDSdtoWNPdtflDQfEQwXNO8vuni_OOBVitVw01NIAhX2XJhitSiz2X2GbM14-XaRnchEGb5wQwEOTkIccvOk7BXaaSLZMvLVRtRYExahpRhEPuRNznEIp0eOsdmkoTwh4_SUU1EkNWqR0e9NAroHhY5m00]--></g></svg>