<?xml version="1.0" encoding="us-ascii" standalone="no"?><svg xmlns="http://www.w3.org/2000/svg" xmlns:xlink="http://www.w3.org/1999/xlink" contentStyleType="text/css" height="298px" preserveAspectRatio="none" style="width:332px;height:298px;background:#FFFFFF;" version="1.1" viewBox="0 0 332 298" width="332px" zoomAndPan="magnify"><defs/><g><ellipse cx="166" cy="20" fill="#222222" rx="10" ry="10" style="stroke:#222222;stroke-width:1.0;"/><rect fill="#F1F1F1" height="33.9688" rx="12.5" ry="12.5" style="stroke:#181818;stroke-width:0.5;" width="103" x="114.5" y="50"/><text fill="#000000" font-family="sans-serif" font-size="12" lengthAdjust="spacing" textLength="83" x="124.5" y="71.1387">Make Number</text><rect fill="#F1F1F1" height="33.9688" rx="12.5" ry="12.5" style="stroke:#181818;stroke-width:0.5;" width="197" x="67.5" y="103.9688"/><text fill="#000000" font-family="sans-serif" font-size="12" lengthAdjust="spacing" textLength="177" x="77.5" y="125.1074">Create Expression Cardinality</text><rect fill="#F1F1F1" height="33.9688" rx="12.5" ry="12.5" style="stroke:#181818;stroke-width:0.5;" width="310" x="11" y="157.9375"/><text fill="#000000" font-family="sans-serif" font-size="12" lengthAdjust="spacing" textLength="290" x="21" y="179.0762">Set Expression Cardinality Greater Than Number</text><rect fill="#F1F1F1" height="33.9688" rx="12.5" ry="12.5" style="stroke:#181818;stroke-width:0.5;" width="129" x="101.5" y="211.9063"/><text fill="#000000" font-family="sans-serif" font-size="12" lengthAdjust="spacing" textLength="109" x="111.5" y="233.0449">Return Expression</text><ellipse cx="166" cy="276.875" fill="none" rx="11" ry="11" style="stroke:#222222;stroke-width:1.0;"/><ellipse cx="166" cy="276.875" fill="#222222" rx="6" ry="6" style="stroke:#222222;stroke-width:1.0;"/><line style="stroke:#181818;stroke-width:1.0;" x1="166" x2="166" y1="30" y2="50"/><polygon fill="#181818" points="162,40,166,50,170,40,166,44" style="stroke:#181818;stroke-width:1.0;"/><line style="stroke:#181818;stroke-width:1.0;" x1="166" x2="166" y1="83.9688" y2="103.9688"/><polygon fill="#181818" points="162,93.9688,166,103.9688,170,93.9688,166,97.9688" style="stroke:#181818;stroke-width:1.0;"/><line style="stroke:#181818;stroke-width:1.0;" x1="166" x2="166" y1="137.9375" y2="157.9375"/><polygon fill="#181818" points="162,147.9375,166,157.9375,170,147.9375,166,151.9375" style="stroke:#181818;stroke-width:1.0;"/><line style="stroke:#181818;stroke-width:1.0;" x1="166" x2="166" y1="191.9063" y2="211.9063"/><polygon fill="#181818" points="162,201.9063,166,211.9063,170,201.9063,166,205.9063" style="stroke:#181818;stroke-width:1.0;"/><line style="stroke:#181818;stroke-width:1.0;" x1="166" x2="166" y1="245.875" y2="265.875"/><polygon fill="#181818" points="162,255.875,166,265.875,170,255.875,166,259.875" style="stroke:#181818;stroke-width:1.0;"/><!--SRC=[Aov9B2hXil9Dp4vLy2lDJKejikQoSYvAJIn9LN2jA2XABIxEpCzJS4uiIidCIyp9BAa4oWUdbk2GL707QorI2Cb8p4CO69HQKbgKXwJ7cgku9By00000]--></g></svg>