<?xml version="1.0" encoding="us-ascii" standalone="no"?><svg xmlns="http://www.w3.org/2000/svg" xmlns:xlink="http://www.w3.org/1999/xlink" contentStyleType="text/css" height="298px" preserveAspectRatio="none" style="width:302px;height:298px;background:#FFFFFF;" version="1.1" viewBox="0 0 302 298" width="302px" zoomAndPan="magnify"><defs/><g><ellipse cx="151" cy="20" fill="#222222" rx="10" ry="10" style="stroke:#222222;stroke-width:1.0;"/><rect fill="#F1F1F1" height="33.9688" rx="12.5" ry="12.5" style="stroke:#181818;stroke-width:0.5;" width="103" x="99.5" y="50"/><text fill="#000000" font-family="sans-serif" font-size="12" lengthAdjust="spacing" textLength="83" x="109.5" y="71.1387">Make Number</text><rect fill="#F1F1F1" height="33.9688" rx="12.5" ry="12.5" style="stroke:#181818;stroke-width:0.5;" width="197" x="52.5" y="103.9688"/><text fill="#000000" font-family="sans-serif" font-size="12" lengthAdjust="spacing" textLength="177" x="62.5" y="125.1074">Create Expression Cardinality</text><rect fill="#F1F1F1" height="33.9688" rx="12.5" ry="12.5" style="stroke:#181818;stroke-width:0.5;" width="280" x="11" y="157.9375"/><text fill="#000000" font-family="sans-serif" font-size="12" lengthAdjust="spacing" textLength="260" x="21" y="179.0762">Set Expression Cardinality Equal to Number</text><rect fill="#F1F1F1" height="33.9688" rx="12.5" ry="12.5" style="stroke:#181818;stroke-width:0.5;" width="129" x="86.5" y="211.9063"/><text fill="#000000" font-family="sans-serif" font-size="12" lengthAdjust="spacing" textLength="109" x="96.5" y="233.0449">Return Expression</text><ellipse cx="151" cy="276.875" fill="none" rx="11" ry="11" style="stroke:#222222;stroke-width:1.0;"/><ellipse cx="151" cy="276.875" fill="#222222" rx="6" ry="6" style="stroke:#222222;stroke-width:1.0;"/><line style="stroke:#181818;stroke-width:1.0;" x1="151" x2="151" y1="30" y2="50"/><polygon fill="#181818" points="147,40,151,50,155,40,151,44" style="stroke:#181818;stroke-width:1.0;"/><line style="stroke:#181818;stroke-width:1.0;" x1="151" x2="151" y1="83.9688" y2="103.9688"/><polygon fill="#181818" points="147,93.9688,151,103.9688,155,93.9688,151,97.9688" style="stroke:#181818;stroke-width:1.0;"/><line style="stroke:#181818;stroke-width:1.0;" x1="151" x2="151" y1="137.9375" y2="157.9375"/><polygon fill="#181818" points="147,147.9375,151,157.9375,155,147.9375,151,151.9375" style="stroke:#181818;stroke-width:1.0;"/><line style="stroke:#181818;stroke-width:1.0;" x1="151" x2="151" y1="191.9063" y2="211.9063"/><polygon fill="#181818" points="147,201.9063,151,211.9063,155,201.9063,151,205.9063" style="stroke:#181818;stroke-width:1.0;"/><line style="stroke:#181818;stroke-width:1.0;" x1="151" x2="151" y1="245.875" y2="265.875"/><polygon fill="#181818" points="147,255.875,151,265.875,155,255.875,151,259.875" style="stroke:#181818;stroke-width:1.0;"/><!--SRC=[Aov9B2hXil9Dp4vLy2lDJKejikQoSYvAJIn9LN2jA2XABIxEpCzJS4uiIidCIyp9BAa4oWUdbk2GL70jB4tCKIZ9HnWMb5fIMfI7fDwQgxWalm00]--></g></svg>