<?xml version="1.0" encoding="us-ascii" standalone="no"?><svg xmlns="http://www.w3.org/2000/svg" xmlns:xlink="http://www.w3.org/1999/xlink" contentStyleType="text/css" height="383px" preserveAspectRatio="none" style="width:526px;height:383px;background:#FFFFFF;" version="1.1" viewBox="0 0 526 383" width="526px" zoomAndPan="magnify"><defs/><g><!--class edu.gatech.gtri.obm.translator.alloy.fromxmi.ExprVisitor--><a href="ExprVisitor.html" target="_top" title="ExprVisitor.html" xlink:actuate="onRequest" xlink:href="ExprVisitor.html" xlink:show="new" xlink:title="ExprVisitor.html" xlink:type="simple"><g id="elem_edu.gatech.gtri.obm.translator.alloy.fromxmi.ExprVisitor"><rect codeLine="5" fill="#F1F1F1" height="249.5" id="edu.gatech.gtri.obm.translator.alloy.fromxmi.ExprVisitor" rx="2.5" ry="2.5" style="stroke:#181818;stroke-width:0.5;" width="512" x="7" y="108"/><ellipse cx="149.75" cy="126.9688" fill="#ADD1B2" rx="11" ry="11" style="stroke:#181818;stroke-width:1.0;"/><path d="M152.7188,132.6094 Q152.1406,132.9063 151.5,133.0469 Q150.8594,133.2031 150.1563,133.2031 Q147.6563,133.2031 146.3281,131.5625 Q145.0156,129.9063 145.0156,126.7813 Q145.0156,123.6563 146.3281,122 Q147.6563,120.3438 150.1563,120.3438 Q150.8594,120.3438 151.5,120.5 Q152.1563,120.6563 152.7188,120.9531 L152.7188,123.6719 Q152.0938,123.0938 151.5,122.8281 Q150.9063,122.5469 150.2813,122.5469 Q148.9375,122.5469 148.25,123.625 Q147.5625,124.6875 147.5625,126.7813 Q147.5625,128.875 148.25,129.9531 Q148.9375,131.0156 150.2813,131.0156 Q150.9063,131.0156 151.5,130.75 Q152.0938,130.4688 152.7188,129.8906 L152.7188,132.6094 Z " fill="#000000"/><text fill="#000000" font-family="sans-serif" font-size="14" lengthAdjust="spacing" textLength="72" x="243.25" y="125.9951">ExprVisitor</text><text fill="#000000" font-family="sans-serif" font-size="10" lengthAdjust="spacing" textLength="218" x="170.25" y="138.5791">edu.gatech.gtri.obm.translator.alloy.fromxmi</text><line style="stroke:#181818;stroke-width:0.5;" x1="8" x2="518" y1="145.9375" y2="145.9375"/><ellipse cx="18" cy="159.5859" fill="none" rx="3" ry="3" style="stroke:#038048;stroke-width:1.0;"/><text fill="#000000" font-family="sans-serif" font-size="14" lengthAdjust="spacing" textLength="130" x="27" y="162.9326">isRootSig: boolean</text><line style="stroke:#181818;stroke-width:0.5;" x1="8" x2="518" y1="170.2344" y2="170.2344"/><ellipse cx="18" cy="183.8828" fill="#84BE84" rx="3" ry="3" style="stroke:#038048;stroke-width:1.0;"/><text fill="#000000" font-family="sans-serif" font-size="14" lengthAdjust="spacing" textLength="246" x="27" y="187.2295">ExprVisitor(Set&lt;Expr&gt;, Set&lt;Field&gt;)</text><ellipse cx="18" cy="200.1797" fill="#84BE84" rx="3" ry="3" style="stroke:#038048;stroke-width:1.0;"/><text fill="#000000" font-family="sans-serif" font-size="14" lengthAdjust="spacing" textLength="157" x="27" y="203.5264">visit(ExprBinary): String</text><ellipse cx="18" cy="216.4766" fill="#84BE84" rx="3" ry="3" style="stroke:#038048;stroke-width:1.0;"/><text fill="#000000" font-family="sans-serif" font-size="14" lengthAdjust="spacing" textLength="139" x="27" y="219.8232">visit(ExprCall): String</text><ellipse cx="18" cy="232.7734" fill="#84BE84" rx="3" ry="3" style="stroke:#038048;stroke-width:1.0;"/><text fill="#000000" font-family="sans-serif" font-size="14" lengthAdjust="spacing" textLength="178" x="27" y="236.1201">visit(ExprConstant): String</text><ellipse cx="18" cy="249.0703" fill="#84BE84" rx="3" ry="3" style="stroke:#038048;stroke-width:1.0;"/><text fill="#000000" font-family="sans-serif" font-size="14" lengthAdjust="spacing" textLength="138" x="27" y="252.417">visit(ExprList): String</text><ellipse cx="18" cy="265.3672" fill="#84BE84" rx="3" ry="3" style="stroke:#038048;stroke-width:1.0;"/><text fill="#000000" font-family="sans-serif" font-size="14" lengthAdjust="spacing" textLength="131" x="27" y="268.7139">visit(ExprQt): String</text><ellipse cx="18" cy="281.6641" fill="#84BE84" rx="3" ry="3" style="stroke:#038048;stroke-width:1.0;"/><text fill="#000000" font-family="sans-serif" font-size="14" lengthAdjust="spacing" textLength="154" x="27" y="285.0107">visit(ExprUnary): String</text><ellipse cx="18" cy="297.9609" fill="#84BE84" rx="3" ry="3" style="stroke:#038048;stroke-width:1.0;"/><text fill="#000000" font-family="sans-serif" font-size="14" lengthAdjust="spacing" textLength="137" x="27" y="301.3076">visit(ExprVar): String</text><ellipse cx="18" cy="314.2578" fill="#84BE84" rx="3" ry="3" style="stroke:#038048;stroke-width:1.0;"/><text fill="#000000" font-family="sans-serif" font-size="14" lengthAdjust="spacing" textLength="106" x="27" y="317.6045">visit(Sig): String</text><ellipse cx="18" cy="330.5547" fill="#84BE84" rx="3" ry="3" style="stroke:#038048;stroke-width:1.0;"/><text fill="#000000" font-family="sans-serif" font-size="14" lengthAdjust="spacing" textLength="486" x="27" y="333.9014">sortFields(Field, Map&lt;String, List&lt;Field&gt;&gt;): Map&lt;String, List&lt;Field&gt;&gt;</text><ellipse cx="18" cy="346.8516" fill="#84BE84" rx="3" ry="3" style="stroke:#038048;stroke-width:1.0;"/><text fill="#000000" font-family="sans-serif" font-size="14" lengthAdjust="spacing" textLength="117" x="27" y="350.1982">visit(Field): String</text></g></a><!--class edu.mit.csail.sdg.ast.VisitQuery--><g id="elem_edu.mit.csail.sdg.ast.VisitQuery"><rect codeLine="20" fill="#F1F1F1" height="37.9375" id="edu.mit.csail.sdg.ast.VisitQuery" rx="2.5" ry="2.5" style="stroke:#181818;stroke-width:0.5;" width="175" x="175.5" y="10"/><ellipse cx="190.5" cy="28.9688" fill="#A9DCDF" rx="11" ry="11" style="stroke:#181818;stroke-width:1.0;"/><path d="M190.6094,24.3125 L189.4531,29.3906 L191.7813,29.3906 L190.6094,24.3125 Z M189.125,22.0781 L192.1094,22.0781 L195.4688,34.4688 L193.0156,34.4688 L192.25,31.4063 L188.9688,31.4063 L188.2188,34.4688 L185.7813,34.4688 L189.125,22.0781 Z " fill="#000000"/><text fill="#000000" font-family="sans-serif" font-size="14" font-style="italic" lengthAdjust="spacing" textLength="70" x="220.5" y="27.9951">VisitQuery</text><text fill="#000000" font-family="sans-serif" font-size="10" font-style="italic" lengthAdjust="spacing" textLength="102" x="204.5" y="40.5791">edu.mit.csail.sdg.ast</text><rect fill="#FFFFFF" height="15.9688" style="stroke:#181818;stroke-width:1.0;stroke-dasharray:2.0,2.0;" width="39" x="314.5" y="7"/><text fill="#000000" font-family="sans-serif" font-size="12" font-style="italic" lengthAdjust="spacing" textLength="37" x="315.5" y="19.1387">String</text></g><!--reverse link edu.mit.csail.sdg.ast.VisitQuery to edu.gatech.gtri.obm.translator.alloy.fromxmi.ExprVisitor--><g id="link_edu.mit.csail.sdg.ast.VisitQuery_edu.gatech.gtri.obm.translator.alloy.fromxmi.ExprVisitor"><path codeLine="22" d="M263,66.28 C263,80.75 263,84.36 263,107.72 " fill="none" id="edu.mit.csail.sdg.ast.VisitQuery-backto-edu.gatech.gtri.obm.translator.alloy.fromxmi.ExprVisitor" style="stroke:#181818;stroke-width:1.0;"/><polygon fill="none" points="263,48.28,257,66.28,269,66.28,263,48.28" style="stroke:#181818;stroke-width:1.0;"/></g><text fill="#888888" font-family="sans-serif" font-size="10" lengthAdjust="spacing" textLength="186" x="163" y="372.7822">UMLDoclet 2.1.1, PlantUML 1.2023.12</text><!--SRC=[dLFBRi8m4BptArP8bK05grGz8PH3NoUGIX5SA8SbB8abnuwy2u8-_hrEG8NogjfS7C_CUaVhCG00au35Z3Z7cFgKeqTn7gopT15eIFMKWB9SLZ3JPAQyZsOagGjmYSS6cQ7IPlr6hUPjzBZC_L2p3aU-sWrw7T5qhX8KYbELYDVAJJ8b7YsRehT2OznApRpBbfck03ByfK3jz8JHQ6UdKidCU0plfTNYkzByufpqTTA2YNE6q6wvdSfgdwHTxACw5BzFnIIYsbQxA7JLGd6dBVfLhGNzODGcnoJtmUzvWRCiQEMigAFvlA1tdXxywdE8_YGVHdQ4O-Ubd0rNowKENSpRQrKT2iURqKMX-1Irtwg4VpRxNASD9nnI4Cj1xCfhwyt9h_PIbsbHCQCsYgU9GfRlU1qmQdl8ncQqxlgR6jeVZSQ_8xj-HcI5FCn2DiCow7OUN6p2GxrHJTMimxC9uGWeN2x8itQsMli2]--></g></svg>