<?xml version="1.0" encoding="us-ascii" standalone="no"?><svg xmlns="http://www.w3.org/2000/svg" xmlns:xlink="http://www.w3.org/1999/xlink" contentStyleType="text/css" height="964px" preserveAspectRatio="none" style="width:2204px;height:964px;background:#FFFFFF;" version="1.1" viewBox="0 0 2204 964" width="2204px" zoomAndPan="magnify"><defs/><g><!--cluster edu.gatech.gtri.obm.translator.alloy.fromxmi--><g id="cluster_edu.gatech.gtri.obm.translator.alloy.fromxmi"><path d="M8.5,129 L361.5,129 A3.75,3.75 0 0 1 364,131.5 L371,151.2969 L2194.5,151.2969 A2.5,2.5 0 0 1 2197,153.7969 L2197,936.5 A2.5,2.5 0 0 1 2194.5,939 L8.5,939 A2.5,2.5 0 0 1 6,936.5 L6,131.5 A2.5,2.5 0 0 1 8.5,129 " fill="none" style="stroke:#000000;stroke-width:1.5;"/><line style="stroke:#000000;stroke-width:1.5;" x1="6" x2="371" y1="151.2969" y2="151.2969"/><text fill="#000000" font-family="sans-serif" font-size="14" font-weight="bold" lengthAdjust="spacing" textLength="352" x="10" y="143.9951">edu.gatech.gtri.obm.translator.alloy.fromxmi</text></g><!--cluster edu.mit.csail.sdg.ast--><g id="cluster_edu.mit.csail.sdg.ast"><path d="M191.5,6 L354.5,6 A3.75,3.75 0 0 1 357,8.5 L364,28.2969 L364.5,28.2969 A2.5,2.5 0 0 1 367,30.7969 L367,102.5 A2.5,2.5 0 0 1 364.5,105 L191.5,105 A2.5,2.5 0 0 1 189,102.5 L189,8.5 A2.5,2.5 0 0 1 191.5,6 " fill="none" style="stroke:#000000;stroke-width:1.5;"/><line style="stroke:#000000;stroke-width:1.5;" x1="189" x2="364" y1="28.2969" y2="28.2969"/><text fill="#000000" font-family="sans-serif" font-size="14" font-weight="bold" lengthAdjust="spacing" textLength="162" x="193" y="20.9951">edu.mit.csail.sdg.ast</text></g><!--class Translator--><a href="Translator.html" target="_top" title="Translator.html" xlink:actuate="onRequest" xlink:href="Translator.html" xlink:show="new" xlink:title="Translator.html" xlink:type="simple"><g id="elem_Translator"><rect codeLine="5" fill="#F1F1F1" height="80.5938" id="Translator" rx="2.5" ry="2.5" style="stroke:#181818;stroke-width:0.5;" width="373" x="569.5" y="375.5"/><ellipse cx="717.25" cy="391.5" fill="#ADD1B2" rx="11" ry="11" style="stroke:#181818;stroke-width:1.0;"/><path d="M720.2188,397.1406 Q719.6406,397.4375 719,397.5781 Q718.3594,397.7344 717.6563,397.7344 Q715.1563,397.7344 713.8281,396.0938 Q712.5156,394.4375 712.5156,391.3125 Q712.5156,388.1875 713.8281,386.5313 Q715.1563,384.875 717.6563,384.875 Q718.3594,384.875 719,385.0313 Q719.6563,385.1875 720.2188,385.4844 L720.2188,388.2031 Q719.5938,387.625 719,387.3594 Q718.4063,387.0781 717.7813,387.0781 Q716.4375,387.0781 715.75,388.1563 Q715.0625,389.2188 715.0625,391.3125 Q715.0625,393.4063 715.75,394.4844 Q716.4375,395.5469 717.7813,395.5469 Q718.4063,395.5469 719,395.2813 Q719.5938,395 720.2188,394.4219 L720.2188,397.1406 Z " fill="#000000"/><text fill="#000000" font-family="sans-serif" font-size="14" lengthAdjust="spacing" textLength="69" x="737.75" y="396.3467">Translator</text><line style="stroke:#181818;stroke-width:0.5;" x1="570.5" x2="941.5" y1="407.5" y2="407.5"/><line style="stroke:#181818;stroke-width:0.5;" x1="570.5" x2="941.5" y1="415.5" y2="415.5"/><ellipse cx="580.5" cy="429.1484" fill="#84BE84" rx="3" ry="3" style="stroke:#038048;stroke-width:1.0;"/><text fill="#000000" font-family="sans-serif" font-size="14" lengthAdjust="spacing" textLength="319" x="589.5" y="432.4951">Translator(Set&lt;Expr&gt;, Set&lt;Sig&gt;, Set&lt;Field&gt;)</text><ellipse cx="580.5" cy="445.4453" fill="#84BE84" rx="3" ry="3" style="stroke:#038048;stroke-width:1.0;"/><text fill="#000000" font-family="sans-serif" font-size="14" lengthAdjust="spacing" textLength="347" x="589.5" y="448.792">generateAlsFileContents(AlloyModule, String): void</text></g></a><!--class ToAlloy--><a href="ToAlloy.html" target="_top" title="ToAlloy.html" xlink:actuate="onRequest" xlink:href="ToAlloy.html" xlink:show="new" xlink:title="ToAlloy.html" xlink:type="simple"><g id="elem_ToAlloy"><rect codeLine="10" fill="#F1F1F1" height="504.3125" id="ToAlloy" rx="2.5" ry="2.5" style="stroke:#181818;stroke-width:0.5;" width="1203" x="977.5" y="164"/><ellipse cx="1550.25" cy="180" fill="#ADD1B2" rx="11" ry="11" style="stroke:#181818;stroke-width:1.0;"/><path d="M1553.2188,185.6406 Q1552.6406,185.9375 1552,186.0781 Q1551.3594,186.2344 1550.6563,186.2344 Q1548.1563,186.2344 1546.8281,184.5938 Q1545.5156,182.9375 1545.5156,179.8125 Q1545.5156,176.6875 1546.8281,175.0313 Q1548.1563,173.375 1550.6563,173.375 Q1551.3594,173.375 1552,173.5313 Q1552.6563,173.6875 1553.2188,173.9844 L1553.2188,176.7031 Q1552.5938,176.125 1552,175.8594 Q1551.4063,175.5781 1550.7813,175.5781 Q1549.4375,175.5781 1548.75,176.6563 Q1548.0625,177.7188 1548.0625,179.8125 Q1548.0625,181.9063 1548.75,182.9844 Q1549.4375,184.0469 1550.7813,184.0469 Q1551.4063,184.0469 1552,183.7813 Q1552.5938,183.5 1553.2188,182.9219 L1553.2188,185.6406 Z " fill="#000000"/><text fill="#000000" font-family="sans-serif" font-size="14" lengthAdjust="spacing" textLength="49" x="1570.75" y="184.8467">ToAlloy</text><line style="stroke:#181818;stroke-width:0.5;" x1="978.5" x2="2179.5" y1="196" y2="196"/><line style="stroke:#181818;stroke-width:0.5;" x1="978.5" x2="2179.5" y1="204" y2="204"/><ellipse cx="988.5" cy="217.6484" fill="#84BE84" rx="3" ry="3" style="stroke:#038048;stroke-width:1.0;"/><text fill="#000000" font-family="sans-serif" font-size="14" lengthAdjust="spacing" textLength="99" x="997.5" y="220.9951">ToAlloy(String)</text><ellipse cx="988.5" cy="233.9453" fill="#84BE84" rx="3" ry="3" style="stroke:#038048;stroke-width:1.0;"/><text fill="#000000" font-family="sans-serif" font-size="14" lengthAdjust="spacing" textLength="154" x="997.5" y="237.292">getSig(String): PrimSig</text><ellipse cx="988.5" cy="250.2422" fill="#84BE84" rx="3" ry="3" style="stroke:#038048;stroke-width:1.0;"/><text fill="#000000" font-family="sans-serif" font-size="14" lengthAdjust="spacing" textLength="382" x="997.5" y="253.5889">createSigOrReturnSig(String, PrimSig, boolean): PrimSig</text><ellipse cx="988.5" cy="266.5391" fill="#84BE84" rx="3" ry="3" style="stroke:#038048;stroke-width:1.0;"/><text fill="#000000" font-family="sans-serif" font-size="14" lengthAdjust="spacing" textLength="254" x="997.5" y="269.8857">createAlloySig(String, String): PrimSig</text><ellipse cx="988.5" cy="282.8359" fill="#84BE84" rx="3" ry="3" style="stroke:#038048;stroke-width:1.0;"/><text fill="#000000" font-family="sans-serif" font-size="14" lengthAdjust="spacing" textLength="377" x="997.5" y="286.1826">addDisjAlloyFields(List&lt;String&gt;, String, PrimSig): Field[]</text><ellipse cx="988.5" cy="299.1328" fill="#84BE84" rx="3" ry="3" style="stroke:#038048;stroke-width:1.0;"/><text fill="#000000" font-family="sans-serif" font-size="14" lengthAdjust="spacing" textLength="610" x="997.5" y="302.4795">createBijectionFilteredInputsOrOutputs(Sig, Field, Expr, Field, boolean, Func): Set&lt;Expr&gt;</text><ellipse cx="988.5" cy="315.4297" fill="#84BE84" rx="3" ry="3" style="stroke:#038048;stroke-width:1.0;"/><text fill="#000000" font-family="sans-serif" font-size="14" lengthAdjust="spacing" textLength="340" x="997.5" y="318.7764">createBijectionFiltered(Sig, Expr, Expr, Func): void</text><ellipse cx="988.5" cy="331.7266" fill="#84BE84" rx="3" ry="3" style="stroke:#038048;stroke-width:1.0;"/><text fill="#000000" font-family="sans-serif" font-size="14" lengthAdjust="spacing" textLength="554" x="997.5" y="335.0732">createFunctionFilteredHappensBeforeAndAddToOverallFact(Sig, Expr, Expr): void</text><ellipse cx="988.5" cy="348.0234" fill="#84BE84" rx="3" ry="3" style="stroke:#038048;stroke-width:1.0;"/><text fill="#000000" font-family="sans-serif" font-size="14" lengthAdjust="spacing" textLength="604" x="997.5" y="351.3701">createInverseFunctionFilteredHappensBeforeAndAddToOverallFact(Sig, Expr, Expr): void</text><ellipse cx="988.5" cy="364.3203" fill="#84BE84" rx="3" ry="3" style="stroke:#038048;stroke-width:1.0;"/><text fill="#000000" font-family="sans-serif" font-size="14" lengthAdjust="spacing" textLength="418" x="997.5" y="367.667">addCardinalityEqualConstraintToField(Field, PrimSig, int): void</text><ellipse cx="988.5" cy="380.6172" fill="#84BE84" rx="3" ry="3" style="stroke:#038048;stroke-width:1.0;"/><text fill="#000000" font-family="sans-serif" font-size="14" lengthAdjust="spacing" textLength="426" x="997.5" y="383.9639">addCardinalityEqualConstraintToField(String, PrimSig, int): void</text><ellipse cx="988.5" cy="396.9141" fill="#84BE84" rx="3" ry="3" style="stroke:#038048;stroke-width:1.0;"/><text fill="#000000" font-family="sans-serif" font-size="14" lengthAdjust="spacing" textLength="505" x="997.5" y="400.2607">addCardinalityGreaterThanEqualConstraintToField(Field, PrimSig, int): void</text><ellipse cx="988.5" cy="413.2109" fill="#84BE84" rx="3" ry="3" style="stroke:#038048;stroke-width:1.0;"/><text fill="#000000" font-family="sans-serif" font-size="14" lengthAdjust="spacing" textLength="513" x="997.5" y="416.5576">addCardinalityGreaterThanEqualConstraintToField(String, PrimSig, int): void</text><ellipse cx="988.5" cy="429.5078" fill="#84BE84" rx="3" ry="3" style="stroke:#038048;stroke-width:1.0;"/><text fill="#000000" font-family="sans-serif" font-size="14" lengthAdjust="spacing" textLength="619" x="997.5" y="432.8545">createFnForTransfer(PrimSig, Expr, String, String, List&lt;Set&lt;Field&gt;&gt;, boolean): Set&lt;Expr&gt;</text><ellipse cx="988.5" cy="445.8047" fill="#84BE84" rx="3" ry="3" style="stroke:#038048;stroke-width:1.0;"/><text fill="#000000" font-family="sans-serif" font-size="14" lengthAdjust="spacing" textLength="665" x="997.5" y="449.1514">createFnForTransferBefore(PrimSig, Expr, String, String, List&lt;Set&lt;Field&gt;&gt;, boolean): Set&lt;Expr&gt;</text><ellipse cx="988.5" cy="462.1016" fill="#84BE84" rx="3" ry="3" style="stroke:#038048;stroke-width:1.0;"/><text fill="#000000" font-family="sans-serif" font-size="14" lengthAdjust="spacing" textLength="398" x="997.5" y="465.4482">createNoInputsOrOutputsField(PrimSig, String, Func): void</text><ellipse cx="988.5" cy="478.3984" fill="#84BE84" rx="3" ry="3" style="stroke:#038048;stroke-width:1.0;"/><text fill="#000000" font-family="sans-serif" font-size="14" lengthAdjust="spacing" textLength="604" x="997.5" y="481.7451">addInOrOutputsAndNoInOrOutputsX(PrimSig, Set&lt;Field&gt;, boolean, boolean, Func): void</text><ellipse cx="988.5" cy="494.6953" fill="#84BE84" rx="3" ry="3" style="stroke:#038048;stroke-width:1.0;"/><text fill="#000000" font-family="sans-serif" font-size="14" lengthAdjust="spacing" textLength="401" x="997.5" y="498.042">createInOutClosure(PrimSig, Field, Set&lt;Field&gt;, Func): void</text><ellipse cx="988.5" cy="510.9922" fill="#84BE84" rx="3" ry="3" style="stroke:#038048;stroke-width:1.0;"/><text fill="#000000" font-family="sans-serif" font-size="14" lengthAdjust="spacing" textLength="344" x="997.5" y="514.3389">handleNoTransfer(Set&lt;Sig&gt;, Set&lt;PrimSig&gt;): void</text><ellipse cx="988.5" cy="527.2891" fill="#84BE84" rx="3" ry="3" style="stroke:#038048;stroke-width:1.0;"/><text fill="#000000" font-family="sans-serif" font-size="14" lengthAdjust="spacing" textLength="372" x="997.5" y="530.6357">handleStepClosure(Set&lt;String&gt;, Set&lt;PrimSig&gt;): void</text><ellipse cx="988.5" cy="543.5859" fill="#84BE84" rx="3" ry="3" style="stroke:#038048;stroke-width:1.0;"/><text fill="#000000" font-family="sans-serif" font-size="14" lengthAdjust="spacing" textLength="447" x="997.5" y="546.9326">addSteps(Map&lt;String, Set&lt;String&gt;&gt;, Set&lt;PrimSig&gt;): Set&lt;Sig&gt;</text><ellipse cx="988.5" cy="559.8828" fill="#84BE84" rx="3" ry="3" style="stroke:#038048;stroke-width:1.0;"/><text fill="#000000" font-family="sans-serif" font-size="14" lengthAdjust="spacing" textLength="437" x="997.5" y="563.2295">addRedefinedSubsettingAsFacts(PrimSig, Set&lt;Property&gt;): void</text><ellipse cx="988.5" cy="576.1797" fill="#84BE84" rx="3" ry="3" style="stroke:#038048;stroke-width:1.0;"/><text fill="#000000" font-family="sans-serif" font-size="14" lengthAdjust="spacing" textLength="1177" x="997.5" y="579.5264">handleNoInputsOutputs(HashMap&lt;String, Set&lt;String&gt;&gt;, HashMap&lt;String, Set&lt;String&gt;&gt;, Set&lt;String&gt;, Set&lt;String&gt;, Set&lt;PrimSig&gt;, Map&lt;String, NamedElement&gt;): void</text><ellipse cx="988.5" cy="592.4766" fill="#84BE84" rx="3" ry="3" style="stroke:#038048;stroke-width:1.0;"/><text fill="#000000" font-family="sans-serif" font-size="14" lengthAdjust="spacing" textLength="438" x="997.5" y="595.8232">getFlowTypeSig(HashMap&lt;String, Set&lt;String&gt;&gt;): Set&lt;String&gt;</text><ellipse cx="988.5" cy="608.7734" fill="#84BE84" rx="3" ry="3" style="stroke:#038048;stroke-width:1.0;"/><text fill="#000000" font-family="sans-serif" font-size="14" lengthAdjust="spacing" textLength="258" x="997.5" y="612.1201">addEqual(PrimSig, String, String): void</text><ellipse cx="988.5" cy="625.0703" fill="#84BE84" rx="3" ry="3" style="stroke:#038048;stroke-width:1.0;"/><text fill="#000000" font-family="sans-serif" font-size="14" lengthAdjust="spacing" textLength="283" x="997.5" y="628.417">createAlloyFile(File, Set&lt;Field&gt;): boolean</text><ellipse cx="988.5" cy="641.3672" fill="#84BE84" rx="3" ry="3" style="stroke:#038048;stroke-width:1.0;"/><text fill="#000000" font-family="sans-serif" font-size="14" lengthAdjust="spacing" text-decoration="underline" textLength="266" x="997.5" y="644.7139">addAlloyTransferField(String, Sig): Field</text><ellipse cx="988.5" cy="657.6641" fill="#84BE84" rx="3" ry="3" style="stroke:#038048;stroke-width:1.0;"/><text fill="#000000" font-family="sans-serif" font-size="14" lengthAdjust="spacing" textLength="235" x="997.5" y="661.0107">addFacts(String, Set&lt;Expr&gt;): void</text></g></a><!--class OBMXMI2Alloy--><a href="OBMXMI2Alloy.html" target="_top" title="OBMXMI2Alloy.html" xlink:actuate="onRequest" xlink:href="OBMXMI2Alloy.html" xlink:show="new" xlink:title="OBMXMI2Alloy.html" xlink:type="simple"><g id="elem_OBMXMI2Alloy"><rect codeLine="41" fill="#F1F1F1" height="194.6719" id="OBMXMI2Alloy" rx="2.5" ry="2.5" style="stroke:#181818;stroke-width:0.5;" width="512" x="500" y="728"/><ellipse cx="703.25" cy="744" fill="#ADD1B2" rx="11" ry="11" style="stroke:#181818;stroke-width:1.0;"/><path d="M706.2188,749.6406 Q705.6406,749.9375 705,750.0781 Q704.3594,750.2344 703.6563,750.2344 Q701.1563,750.2344 699.8281,748.5938 Q698.5156,746.9375 698.5156,743.8125 Q698.5156,740.6875 699.8281,739.0313 Q701.1563,737.375 703.6563,737.375 Q704.3594,737.375 705,737.5313 Q705.6563,737.6875 706.2188,737.9844 L706.2188,740.7031 Q705.5938,740.125 705,739.8594 Q704.4063,739.5781 703.7813,739.5781 Q702.4375,739.5781 701.75,740.6563 Q701.0625,741.7188 701.0625,743.8125 Q701.0625,745.9063 701.75,746.9844 Q702.4375,748.0469 703.7813,748.0469 Q704.4063,748.0469 705,747.7813 Q705.5938,747.5 706.2188,746.9219 L706.2188,749.6406 Z " fill="#000000"/><text fill="#000000" font-family="sans-serif" font-size="14" lengthAdjust="spacing" textLength="97" x="723.75" y="748.8467">OBMXMI2Alloy</text><line style="stroke:#181818;stroke-width:0.5;" x1="501" x2="1011" y1="760" y2="760"/><ellipse cx="511" cy="773.6484" fill="none" rx="3" ry="3" style="stroke:#038048;stroke-width:1.0;"/><text fill="#000000" font-family="sans-serif" font-size="14" lengthAdjust="spacing" text-decoration="underline" textLength="235" x="520" y="776.9951">STEREOTYPE_PAREMETER: String</text><ellipse cx="511" cy="789.9453" fill="none" rx="3" ry="3" style="stroke:#038048;stroke-width:1.0;"/><text fill="#000000" font-family="sans-serif" font-size="14" lengthAdjust="spacing" text-decoration="underline" textLength="229" x="520" y="793.292">STEREOTYPE_VALUETYPE: String</text><line style="stroke:#181818;stroke-width:0.5;" x1="501" x2="1011" y1="800.5938" y2="800.5938"/><ellipse cx="511" cy="814.2422" fill="#84BE84" rx="3" ry="3" style="stroke:#038048;stroke-width:1.0;"/><text fill="#000000" font-family="sans-serif" font-size="14" lengthAdjust="spacing" textLength="147" x="520" y="817.5889">OBMXMI2Alloy(String)</text><ellipse cx="511" cy="830.5391" fill="#84BE84" rx="3" ry="3" style="stroke:#038048;stroke-width:1.0;"/><text fill="#000000" font-family="sans-serif" font-size="14" lengthAdjust="spacing" textLength="275" x="520" y="833.8857">createAlloyFile(File, String, File): boolean</text><ellipse cx="511" cy="846.8359" fill="#84BE84" rx="3" ry="3" style="stroke:#038048;stroke-width:1.0;"/><text fill="#000000" font-family="sans-serif" font-size="14" lengthAdjust="spacing" textLength="178" x="520" y="850.1826">getErrorMessage(): String</text><ellipse cx="511" cy="863.1328" fill="#84BE84" rx="3" ry="3" style="stroke:#038048;stroke-width:1.0;"/><text fill="#000000" font-family="sans-serif" font-size="14" lengthAdjust="spacing" text-decoration="underline" textLength="486" x="520" y="866.4795">addToHashMap(Map&lt;String, Set&lt;String&gt;&gt;, String, Set&lt;String&gt;): void</text><ellipse cx="511" cy="879.4297" fill="#84BE84" rx="3" ry="3" style="stroke:#038048;stroke-width:1.0;"/><text fill="#000000" font-family="sans-serif" font-size="14" lengthAdjust="spacing" text-decoration="underline" textLength="407" x="520" y="882.7764">addToHashMap(Map&lt;Field, Set&lt;Field&gt;&gt;, Field, Field): void</text><ellipse cx="511" cy="895.7266" fill="#84BE84" rx="3" ry="3" style="stroke:#038048;stroke-width:1.0;"/><text fill="#000000" font-family="sans-serif" font-size="14" lengthAdjust="spacing" text-decoration="underline" textLength="386" x="520" y="899.0732">contains(Map&lt;Field, Set&lt;Field&gt;&gt;, Field, Field): boolean</text><ellipse cx="511" cy="912.0234" fill="#84BE84" rx="3" ry="3" style="stroke:#038048;stroke-width:1.0;"/><text fill="#000000" font-family="sans-serif" font-size="14" lengthAdjust="spacing" textLength="321" x="520" y="915.3701">addToSigToFactsMap(String, Set&lt;Expr&gt;): void</text></g></a><!--class ExprVisitor--><a href="ExprVisitor.html" target="_top" title="ExprVisitor.html" xlink:actuate="onRequest" xlink:href="ExprVisitor.html" xlink:show="new" xlink:title="ExprVisitor.html" xlink:type="simple"><g id="elem_ExprVisitor"><rect codeLine="53" fill="#F1F1F1" height="243.5625" id="ExprVisitor" rx="2.5" ry="2.5" style="stroke:#181818;stroke-width:0.5;" width="512" x="22" y="294"/><ellipse cx="237.75" cy="310" fill="#ADD1B2" rx="11" ry="11" style="stroke:#181818;stroke-width:1.0;"/><path d="M240.7188,315.6406 Q240.1406,315.9375 239.5,316.0781 Q238.8594,316.2344 238.1563,316.2344 Q235.6563,316.2344 234.3281,314.5938 Q233.0156,312.9375 233.0156,309.8125 Q233.0156,306.6875 234.3281,305.0313 Q235.6563,303.375 238.1563,303.375 Q238.8594,303.375 239.5,303.5313 Q240.1563,303.6875 240.7188,303.9844 L240.7188,306.7031 Q240.0938,306.125 239.5,305.8594 Q238.9063,305.5781 238.2813,305.5781 Q236.9375,305.5781 236.25,306.6563 Q235.5625,307.7188 235.5625,309.8125 Q235.5625,311.9063 236.25,312.9844 Q236.9375,314.0469 238.2813,314.0469 Q238.9063,314.0469 239.5,313.7813 Q240.0938,313.5 240.7188,312.9219 L240.7188,315.6406 Z " fill="#000000"/><text fill="#000000" font-family="sans-serif" font-size="14" lengthAdjust="spacing" textLength="72" x="258.25" y="314.8467">ExprVisitor</text><line style="stroke:#181818;stroke-width:0.5;" x1="23" x2="533" y1="326" y2="326"/><ellipse cx="33" cy="339.6484" fill="none" rx="3" ry="3" style="stroke:#038048;stroke-width:1.0;"/><text fill="#000000" font-family="sans-serif" font-size="14" lengthAdjust="spacing" textLength="130" x="42" y="342.9951">isRootSig: boolean</text><line style="stroke:#181818;stroke-width:0.5;" x1="23" x2="533" y1="350.2969" y2="350.2969"/><ellipse cx="33" cy="363.9453" fill="#84BE84" rx="3" ry="3" style="stroke:#038048;stroke-width:1.0;"/><text fill="#000000" font-family="sans-serif" font-size="14" lengthAdjust="spacing" textLength="246" x="42" y="367.292">ExprVisitor(Set&lt;Expr&gt;, Set&lt;Field&gt;)</text><ellipse cx="33" cy="380.2422" fill="#84BE84" rx="3" ry="3" style="stroke:#038048;stroke-width:1.0;"/><text fill="#000000" font-family="sans-serif" font-size="14" lengthAdjust="spacing" textLength="157" x="42" y="383.5889">visit(ExprBinary): String</text><ellipse cx="33" cy="396.5391" fill="#84BE84" rx="3" ry="3" style="stroke:#038048;stroke-width:1.0;"/><text fill="#000000" font-family="sans-serif" font-size="14" lengthAdjust="spacing" textLength="139" x="42" y="399.8857">visit(ExprCall): String</text><ellipse cx="33" cy="412.8359" fill="#84BE84" rx="3" ry="3" style="stroke:#038048;stroke-width:1.0;"/><text fill="#000000" font-family="sans-serif" font-size="14" lengthAdjust="spacing" textLength="178" x="42" y="416.1826">visit(ExprConstant): String</text><ellipse cx="33" cy="429.1328" fill="#84BE84" rx="3" ry="3" style="stroke:#038048;stroke-width:1.0;"/><text fill="#000000" font-family="sans-serif" font-size="14" lengthAdjust="spacing" textLength="138" x="42" y="432.4795">visit(ExprList): String</text><ellipse cx="33" cy="445.4297" fill="#84BE84" rx="3" ry="3" style="stroke:#038048;stroke-width:1.0;"/><text fill="#000000" font-family="sans-serif" font-size="14" lengthAdjust="spacing" textLength="131" x="42" y="448.7764">visit(ExprQt): String</text><ellipse cx="33" cy="461.7266" fill="#84BE84" rx="3" ry="3" style="stroke:#038048;stroke-width:1.0;"/><text fill="#000000" font-family="sans-serif" font-size="14" lengthAdjust="spacing" textLength="154" x="42" y="465.0732">visit(ExprUnary): String</text><ellipse cx="33" cy="478.0234" fill="#84BE84" rx="3" ry="3" style="stroke:#038048;stroke-width:1.0;"/><text fill="#000000" font-family="sans-serif" font-size="14" lengthAdjust="spacing" textLength="137" x="42" y="481.3701">visit(ExprVar): String</text><ellipse cx="33" cy="494.3203" fill="#84BE84" rx="3" ry="3" style="stroke:#038048;stroke-width:1.0;"/><text fill="#000000" font-family="sans-serif" font-size="14" lengthAdjust="spacing" textLength="106" x="42" y="497.667">visit(Sig): String</text><ellipse cx="33" cy="510.6172" fill="#84BE84" rx="3" ry="3" style="stroke:#038048;stroke-width:1.0;"/><text fill="#000000" font-family="sans-serif" font-size="14" lengthAdjust="spacing" textLength="486" x="42" y="513.9639">sortFields(Field, Map&lt;String, List&lt;Field&gt;&gt;): Map&lt;String, List&lt;Field&gt;&gt;</text><ellipse cx="33" cy="526.9141" fill="#84BE84" rx="3" ry="3" style="stroke:#038048;stroke-width:1.0;"/><text fill="#000000" font-family="sans-serif" font-size="14" lengthAdjust="spacing" textLength="117" x="42" y="530.2607">visit(Field): String</text></g></a><!--class VisitQuery--><g id="elem_VisitQuery"><rect codeLine="71" fill="#F1F1F1" height="48" id="VisitQuery" rx="2.5" ry="2.5" style="stroke:#181818;stroke-width:0.5;" width="113" x="221.5" y="41"/><ellipse cx="236.5" cy="57" fill="#A9DCDF" rx="11" ry="11" style="stroke:#181818;stroke-width:1.0;"/><path d="M236.6094,52.3438 L235.4531,57.4219 L237.7813,57.4219 L236.6094,52.3438 Z M235.125,50.1094 L238.1094,50.1094 L241.4688,62.5 L239.0156,62.5 L238.25,59.4375 L234.9688,59.4375 L234.2188,62.5 L231.7813,62.5 L235.125,50.1094 Z " fill="#000000"/><text fill="#000000" font-family="sans-serif" font-size="14" font-style="italic" lengthAdjust="spacing" textLength="70" x="250.5" y="61.8467">VisitQuery</text><rect fill="#FFFFFF" height="15.9688" style="stroke:#181818;stroke-width:1.0;stroke-dasharray:2.0,2.0;" width="9" x="328.5" y="38"/><text fill="#000000" font-family="sans-serif" font-size="12" font-style="italic" lengthAdjust="spacing" textLength="7" x="329.5" y="50.1387">T</text><line style="stroke:#181818;stroke-width:0.5;" x1="222.5" x2="333.5" y1="73" y2="73"/><line style="stroke:#181818;stroke-width:0.5;" x1="222.5" x2="333.5" y1="81" y2="81"/></g><!--reverse link VisitQuery to ExprVisitor--><g id="link_VisitQuery_ExprVisitor"><path codeLine="74" d="M278,107.17 C278,148.43 278,219.29 278,293.81 " fill="none" id="VisitQuery-backto-ExprVisitor" style="stroke:#181818;stroke-width:1.0;"/><polygon fill="none" points="278,89.17,272,107.17,284,107.17,278,89.17" style="stroke:#181818;stroke-width:1.0;"/></g><text fill="#888888" font-family="sans-serif" font-size="10" lengthAdjust="spacing" textLength="186" x="1002" y="954.2822">UMLDoclet 2.1.1, PlantUML 1.2023.12</text><!--SRC=[jLVRRjiu47tlL_1b0GLr1RIFGc30IULjWBXERIVe8WWAHg8TTcbIIrBP6ct-VOSKHLFMnMwnDP1Ob6RE70tFSCO88QI8Xhy2Iwo5H4dowXNSH0NE_iORWaXUnXkiIVOKRxIaiNZSnbfYhfWnZp5ZOXUlfTX-srBqlV8rdunXfT3AMwBx-_qYVj9Rzl00zYZulDuRH4kYpzDlXHoFaBbSqesxcbB2yl5Pqt53E07wPCBKb39oARWcNAjeOjZDH5uo0jv0ds_E4lGiQExzNrgKXVKoVAkhFhBLqyZ17XBIG3do8MyatSADfb4c2N26stEv8BgKVEyogZr6w548HZ0V1h5KGlVXo3ZFtrFrrNhPXAhecYf8i_KQr-wU1U1Oi_k7hk0Nz2l9D1KSSg-99FaLBqgjvd9UQdCHsVUm02DaDjKltBl1kkGP1F6xVbAO2hS2TB0LJ6E30mJpE0JuW8k2S7L1raAI2SydURuIysUG4cDJdEd300FGLnpSrE-90BjrYMLEEMPKxz9_Iin0uGgga7Az4ZQNaSkebmqy-dMmbWXFG_lJfaAkdZ3_NraUnpsPi1C2dmffJviraP5tglQXMK8ZL5M6Fth6OKaE2hOHfPB0RulrKHmKNPKN7wuEq5iXaF4hxhr1gWRHhpy7I9vTKB-7XTnV9W1uoOGgmrmuLOJ8lJYWWPp1w_hTQxO7XpaUy5rgKjGKhBC_z8xvGuwCiufck3ZtMxU7Q6FKv5eu2vAJDUKaNvQFq80rk4-KEH5KCzCtKXH4wjruC1bkxzrn-m6hftw6mqzR2UdCpWY521_nbkGf8rlekTqyeHrEcVXtjIjCkniaM2UjMhRoPkk_BUlktdxO8Cri49b_ZL4YgTNRyFkkDDOqUx5HhNUjkEQ94tJ75jbgFyEtjFLxT0IPNym-pwxUrND8kEmUHlPabwjqaSvNVzsaNsucYtIMmZfnwJdkSZUvlatDLQVBwv18zzpJa-pwy85LJxgDH58fXPmHfM3kZCwEiCQcapeX3TLZ-swNIWPmMuVJs1zOzciOBeDH51gLEXMgCpUM4mWDkfrHb67syw8oLdTKqMeM3rOzyorL2o7C5Dj3Aa0udDOxP_HdOniPgmjewtBNlS61sINCICUDp2Y0RRCVDZITzQZHf-CcjoTnlyDoqAOwDRgUAo6r6ycTD49ns_d0QGS0-XvrXQmLTX3KwUIb_QjlItMSAKnPhF9DZ9KE588VpG2MQQSjguDF9P6xyzKunEl4IPAzFJh_yURDJ_t8J990UJP81ds7IBG6kSBNxUpwlSWO_AXz5x-Dty9Co40VS1VzOKPq6CwZi_y0]--></g></svg>