<?xml version="1.0" encoding="us-ascii" standalone="no"?><svg xmlns="http://www.w3.org/2000/svg" xmlns:xlink="http://www.w3.org/1999/xlink" contentStyleType="text/css" height="850px" preserveAspectRatio="none" style="width:2343px;height:850px;background:#FFFFFF;" version="1.1" viewBox="0 0 2343 850" width="2343px" zoomAndPan="magnify"><defs/><g><!--cluster edu.gatech.gtri.obm.translator.alloy.fromxmi--><g id="cluster_edu.gatech.gtri.obm.translator.alloy.fromxmi"><path d="M8.5,129 L361.5,129 A3.75,3.75 0 0 1 364,131.5 L371,151.2969 L2333.5,151.2969 A2.5,2.5 0 0 1 2336,153.7969 L2336,822.5 A2.5,2.5 0 0 1 2333.5,825 L8.5,825 A2.5,2.5 0 0 1 6,822.5 L6,131.5 A2.5,2.5 0 0 1 8.5,129 " fill="none" style="stroke:#000000;stroke-width:1.5;"/><line style="stroke:#000000;stroke-width:1.5;" x1="6" x2="371" y1="151.2969" y2="151.2969"/><text fill="#000000" font-family="sans-serif" font-size="14" font-weight="bold" lengthAdjust="spacing" textLength="352" x="10" y="143.9951">edu.gatech.gtri.obm.translator.alloy.fromxmi</text></g><!--cluster edu.mit.csail.sdg.ast--><g id="cluster_edu.mit.csail.sdg.ast"><path d="M191.5,6 L354.5,6 A3.75,3.75 0 0 1 357,8.5 L364,28.2969 L364.5,28.2969 A2.5,2.5 0 0 1 367,30.7969 L367,102.5 A2.5,2.5 0 0 1 364.5,105 L191.5,105 A2.5,2.5 0 0 1 189,102.5 L189,8.5 A2.5,2.5 0 0 1 191.5,6 " fill="none" style="stroke:#000000;stroke-width:1.5;"/><line style="stroke:#000000;stroke-width:1.5;" x1="189" x2="364" y1="28.2969" y2="28.2969"/><text fill="#000000" font-family="sans-serif" font-size="14" font-weight="bold" lengthAdjust="spacing" textLength="162" x="193" y="20.9951">edu.mit.csail.sdg.ast</text></g><!--class ExprVisitor--><a href="ExprVisitor.html" target="_top" title="ExprVisitor.html" xlink:actuate="onRequest" xlink:href="ExprVisitor.html" xlink:show="new" xlink:title="ExprVisitor.html" xlink:type="simple"><g id="elem_ExprVisitor"><rect codeLine="5" fill="#F1F1F1" height="243.5625" id="ExprVisitor" rx="2.5" ry="2.5" style="stroke:#181818;stroke-width:0.5;" width="512" x="22" y="294"/><ellipse cx="237.75" cy="310" fill="#ADD1B2" rx="11" ry="11" style="stroke:#181818;stroke-width:1.0;"/><path d="M240.7188,315.6406 Q240.1406,315.9375 239.5,316.0781 Q238.8594,316.2344 238.1563,316.2344 Q235.6563,316.2344 234.3281,314.5938 Q233.0156,312.9375 233.0156,309.8125 Q233.0156,306.6875 234.3281,305.0313 Q235.6563,303.375 238.1563,303.375 Q238.8594,303.375 239.5,303.5313 Q240.1563,303.6875 240.7188,303.9844 L240.7188,306.7031 Q240.0938,306.125 239.5,305.8594 Q238.9063,305.5781 238.2813,305.5781 Q236.9375,305.5781 236.25,306.6563 Q235.5625,307.7188 235.5625,309.8125 Q235.5625,311.9063 236.25,312.9844 Q236.9375,314.0469 238.2813,314.0469 Q238.9063,314.0469 239.5,313.7813 Q240.0938,313.5 240.7188,312.9219 L240.7188,315.6406 Z " fill="#000000"/><text fill="#000000" font-family="sans-serif" font-size="14" lengthAdjust="spacing" textLength="72" x="258.25" y="314.8467">ExprVisitor</text><line style="stroke:#181818;stroke-width:0.5;" x1="23" x2="533" y1="326" y2="326"/><ellipse cx="33" cy="339.6484" fill="none" rx="3" ry="3" style="stroke:#038048;stroke-width:1.0;"/><text fill="#000000" font-family="sans-serif" font-size="14" lengthAdjust="spacing" textLength="130" x="42" y="342.9951">isRootSig: boolean</text><line style="stroke:#181818;stroke-width:0.5;" x1="23" x2="533" y1="350.2969" y2="350.2969"/><ellipse cx="33" cy="363.9453" fill="#84BE84" rx="3" ry="3" style="stroke:#038048;stroke-width:1.0;"/><text fill="#000000" font-family="sans-serif" font-size="14" lengthAdjust="spacing" textLength="246" x="42" y="367.292">ExprVisitor(Set&lt;Expr&gt;, Set&lt;Field&gt;)</text><ellipse cx="33" cy="380.2422" fill="#84BE84" rx="3" ry="3" style="stroke:#038048;stroke-width:1.0;"/><text fill="#000000" font-family="sans-serif" font-size="14" lengthAdjust="spacing" textLength="157" x="42" y="383.5889">visit(ExprBinary): String</text><ellipse cx="33" cy="396.5391" fill="#84BE84" rx="3" ry="3" style="stroke:#038048;stroke-width:1.0;"/><text fill="#000000" font-family="sans-serif" font-size="14" lengthAdjust="spacing" textLength="139" x="42" y="399.8857">visit(ExprCall): String</text><ellipse cx="33" cy="412.8359" fill="#84BE84" rx="3" ry="3" style="stroke:#038048;stroke-width:1.0;"/><text fill="#000000" font-family="sans-serif" font-size="14" lengthAdjust="spacing" textLength="178" x="42" y="416.1826">visit(ExprConstant): String</text><ellipse cx="33" cy="429.1328" fill="#84BE84" rx="3" ry="3" style="stroke:#038048;stroke-width:1.0;"/><text fill="#000000" font-family="sans-serif" font-size="14" lengthAdjust="spacing" textLength="138" x="42" y="432.4795">visit(ExprList): String</text><ellipse cx="33" cy="445.4297" fill="#84BE84" rx="3" ry="3" style="stroke:#038048;stroke-width:1.0;"/><text fill="#000000" font-family="sans-serif" font-size="14" lengthAdjust="spacing" textLength="131" x="42" y="448.7764">visit(ExprQt): String</text><ellipse cx="33" cy="461.7266" fill="#84BE84" rx="3" ry="3" style="stroke:#038048;stroke-width:1.0;"/><text fill="#000000" font-family="sans-serif" font-size="14" lengthAdjust="spacing" textLength="154" x="42" y="465.0732">visit(ExprUnary): String</text><ellipse cx="33" cy="478.0234" fill="#84BE84" rx="3" ry="3" style="stroke:#038048;stroke-width:1.0;"/><text fill="#000000" font-family="sans-serif" font-size="14" lengthAdjust="spacing" textLength="137" x="42" y="481.3701">visit(ExprVar): String</text><ellipse cx="33" cy="494.3203" fill="#84BE84" rx="3" ry="3" style="stroke:#038048;stroke-width:1.0;"/><text fill="#000000" font-family="sans-serif" font-size="14" lengthAdjust="spacing" textLength="106" x="42" y="497.667">visit(Sig): String</text><ellipse cx="33" cy="510.6172" fill="#84BE84" rx="3" ry="3" style="stroke:#038048;stroke-width:1.0;"/><text fill="#000000" font-family="sans-serif" font-size="14" lengthAdjust="spacing" textLength="486" x="42" y="513.9639">sortFields(Field, Map&lt;String, List&lt;Field&gt;&gt;): Map&lt;String, List&lt;Field&gt;&gt;</text><ellipse cx="33" cy="526.9141" fill="#84BE84" rx="3" ry="3" style="stroke:#038048;stroke-width:1.0;"/><text fill="#000000" font-family="sans-serif" font-size="14" lengthAdjust="spacing" textLength="117" x="42" y="530.2607">visit(Field): String</text></g></a><!--class OBMXMI2Alloy--><a href="OBMXMI2Alloy.html" target="_top" title="OBMXMI2Alloy.html" xlink:actuate="onRequest" xlink:href="OBMXMI2Alloy.html" xlink:show="new" xlink:title="OBMXMI2Alloy.html" xlink:type="simple"><g id="elem_OBMXMI2Alloy"><rect codeLine="20" fill="#F1F1F1" height="194.6719" id="OBMXMI2Alloy" rx="2.5" ry="2.5" style="stroke:#181818;stroke-width:0.5;" width="512" x="569" y="318.5"/><ellipse cx="772.25" cy="334.5" fill="#ADD1B2" rx="11" ry="11" style="stroke:#181818;stroke-width:1.0;"/><path d="M775.2188,340.1406 Q774.6406,340.4375 774,340.5781 Q773.3594,340.7344 772.6563,340.7344 Q770.1563,340.7344 768.8281,339.0938 Q767.5156,337.4375 767.5156,334.3125 Q767.5156,331.1875 768.8281,329.5313 Q770.1563,327.875 772.6563,327.875 Q773.3594,327.875 774,328.0313 Q774.6563,328.1875 775.2188,328.4844 L775.2188,331.2031 Q774.5938,330.625 774,330.3594 Q773.4063,330.0781 772.7813,330.0781 Q771.4375,330.0781 770.75,331.1563 Q770.0625,332.2188 770.0625,334.3125 Q770.0625,336.4063 770.75,337.4844 Q771.4375,338.5469 772.7813,338.5469 Q773.4063,338.5469 774,338.2813 Q774.5938,338 775.2188,337.4219 L775.2188,340.1406 Z " fill="#000000"/><text fill="#000000" font-family="sans-serif" font-size="14" lengthAdjust="spacing" textLength="97" x="792.75" y="339.3467">OBMXMI2Alloy</text><line style="stroke:#181818;stroke-width:0.5;" x1="570" x2="1080" y1="350.5" y2="350.5"/><ellipse cx="580" cy="364.1484" fill="none" rx="3" ry="3" style="stroke:#038048;stroke-width:1.0;"/><text fill="#000000" font-family="sans-serif" font-size="14" lengthAdjust="spacing" text-decoration="underline" textLength="235" x="589" y="367.4951">STEREOTYPE_PAREMETER: String</text><ellipse cx="580" cy="380.4453" fill="none" rx="3" ry="3" style="stroke:#038048;stroke-width:1.0;"/><text fill="#000000" font-family="sans-serif" font-size="14" lengthAdjust="spacing" text-decoration="underline" textLength="229" x="589" y="383.792">STEREOTYPE_VALUETYPE: String</text><line style="stroke:#181818;stroke-width:0.5;" x1="570" x2="1080" y1="391.0938" y2="391.0938"/><ellipse cx="580" cy="404.7422" fill="#84BE84" rx="3" ry="3" style="stroke:#038048;stroke-width:1.0;"/><text fill="#000000" font-family="sans-serif" font-size="14" lengthAdjust="spacing" textLength="147" x="589" y="408.0889">OBMXMI2Alloy(String)</text><ellipse cx="580" cy="421.0391" fill="#84BE84" rx="3" ry="3" style="stroke:#038048;stroke-width:1.0;"/><text fill="#000000" font-family="sans-serif" font-size="14" lengthAdjust="spacing" textLength="275" x="589" y="424.3857">createAlloyFile(File, String, File): boolean</text><ellipse cx="580" cy="437.3359" fill="#84BE84" rx="3" ry="3" style="stroke:#038048;stroke-width:1.0;"/><text fill="#000000" font-family="sans-serif" font-size="14" lengthAdjust="spacing" textLength="178" x="589" y="440.6826">getErrorMessage(): String</text><ellipse cx="580" cy="453.6328" fill="#84BE84" rx="3" ry="3" style="stroke:#038048;stroke-width:1.0;"/><text fill="#000000" font-family="sans-serif" font-size="14" lengthAdjust="spacing" text-decoration="underline" textLength="486" x="589" y="456.9795">addToHashMap(Map&lt;String, Set&lt;String&gt;&gt;, String, Set&lt;String&gt;): void</text><ellipse cx="580" cy="469.9297" fill="#84BE84" rx="3" ry="3" style="stroke:#038048;stroke-width:1.0;"/><text fill="#000000" font-family="sans-serif" font-size="14" lengthAdjust="spacing" text-decoration="underline" textLength="407" x="589" y="473.2764">addToHashMap(Map&lt;Field, Set&lt;Field&gt;&gt;, Field, Field): void</text><ellipse cx="580" cy="486.2266" fill="#84BE84" rx="3" ry="3" style="stroke:#038048;stroke-width:1.0;"/><text fill="#000000" font-family="sans-serif" font-size="14" lengthAdjust="spacing" text-decoration="underline" textLength="386" x="589" y="489.5732">contains(Map&lt;Field, Set&lt;Field&gt;&gt;, Field, Field): boolean</text><ellipse cx="580" cy="502.5234" fill="#84BE84" rx="3" ry="3" style="stroke:#038048;stroke-width:1.0;"/><text fill="#000000" font-family="sans-serif" font-size="14" lengthAdjust="spacing" textLength="321" x="589" y="505.8701">addToSigToFactsMap(String, Set&lt;Expr&gt;): void</text></g></a><!--class ToAlloy--><a href="ToAlloy.html" target="_top" title="ToAlloy.html" xlink:actuate="onRequest" xlink:href="ToAlloy.html" xlink:show="new" xlink:title="ToAlloy.html" xlink:type="simple"><g id="elem_ToAlloy"><rect codeLine="32" fill="#F1F1F1" height="504.3125" id="ToAlloy" rx="2.5" ry="2.5" style="stroke:#181818;stroke-width:0.5;" width="1203" x="1116.5" y="164"/><ellipse cx="1689.25" cy="180" fill="#ADD1B2" rx="11" ry="11" style="stroke:#181818;stroke-width:1.0;"/><path d="M1692.2188,185.6406 Q1691.6406,185.9375 1691,186.0781 Q1690.3594,186.2344 1689.6563,186.2344 Q1687.1563,186.2344 1685.8281,184.5938 Q1684.5156,182.9375 1684.5156,179.8125 Q1684.5156,176.6875 1685.8281,175.0313 Q1687.1563,173.375 1689.6563,173.375 Q1690.3594,173.375 1691,173.5313 Q1691.6563,173.6875 1692.2188,173.9844 L1692.2188,176.7031 Q1691.5938,176.125 1691,175.8594 Q1690.4063,175.5781 1689.7813,175.5781 Q1688.4375,175.5781 1687.75,176.6563 Q1687.0625,177.7188 1687.0625,179.8125 Q1687.0625,181.9063 1687.75,182.9844 Q1688.4375,184.0469 1689.7813,184.0469 Q1690.4063,184.0469 1691,183.7813 Q1691.5938,183.5 1692.2188,182.9219 L1692.2188,185.6406 Z " fill="#000000"/><text fill="#000000" font-family="sans-serif" font-size="14" lengthAdjust="spacing" textLength="49" x="1709.75" y="184.8467">ToAlloy</text><line style="stroke:#181818;stroke-width:0.5;" x1="1117.5" x2="2318.5" y1="196" y2="196"/><line style="stroke:#181818;stroke-width:0.5;" x1="1117.5" x2="2318.5" y1="204" y2="204"/><ellipse cx="1127.5" cy="217.6484" fill="#84BE84" rx="3" ry="3" style="stroke:#038048;stroke-width:1.0;"/><text fill="#000000" font-family="sans-serif" font-size="14" lengthAdjust="spacing" textLength="99" x="1136.5" y="220.9951">ToAlloy(String)</text><ellipse cx="1127.5" cy="233.9453" fill="#84BE84" rx="3" ry="3" style="stroke:#038048;stroke-width:1.0;"/><text fill="#000000" font-family="sans-serif" font-size="14" lengthAdjust="spacing" textLength="154" x="1136.5" y="237.292">getSig(String): PrimSig</text><ellipse cx="1127.5" cy="250.2422" fill="#84BE84" rx="3" ry="3" style="stroke:#038048;stroke-width:1.0;"/><text fill="#000000" font-family="sans-serif" font-size="14" lengthAdjust="spacing" textLength="382" x="1136.5" y="253.5889">createSigOrReturnSig(String, PrimSig, boolean): PrimSig</text><ellipse cx="1127.5" cy="266.5391" fill="#84BE84" rx="3" ry="3" style="stroke:#038048;stroke-width:1.0;"/><text fill="#000000" font-family="sans-serif" font-size="14" lengthAdjust="spacing" textLength="254" x="1136.5" y="269.8857">createAlloySig(String, String): PrimSig</text><ellipse cx="1127.5" cy="282.8359" fill="#84BE84" rx="3" ry="3" style="stroke:#038048;stroke-width:1.0;"/><text fill="#000000" font-family="sans-serif" font-size="14" lengthAdjust="spacing" textLength="377" x="1136.5" y="286.1826">addDisjAlloyFields(List&lt;String&gt;, String, PrimSig): Field[]</text><ellipse cx="1127.5" cy="299.1328" fill="#84BE84" rx="3" ry="3" style="stroke:#038048;stroke-width:1.0;"/><text fill="#000000" font-family="sans-serif" font-size="14" lengthAdjust="spacing" textLength="610" x="1136.5" y="302.4795">createBijectionFilteredInputsOrOutputs(Sig, Field, Expr, Field, boolean, Func): Set&lt;Expr&gt;</text><ellipse cx="1127.5" cy="315.4297" fill="#84BE84" rx="3" ry="3" style="stroke:#038048;stroke-width:1.0;"/><text fill="#000000" font-family="sans-serif" font-size="14" lengthAdjust="spacing" textLength="340" x="1136.5" y="318.7764">createBijectionFiltered(Sig, Expr, Expr, Func): void</text><ellipse cx="1127.5" cy="331.7266" fill="#84BE84" rx="3" ry="3" style="stroke:#038048;stroke-width:1.0;"/><text fill="#000000" font-family="sans-serif" font-size="14" lengthAdjust="spacing" textLength="554" x="1136.5" y="335.0732">createFunctionFilteredHappensBeforeAndAddToOverallFact(Sig, Expr, Expr): void</text><ellipse cx="1127.5" cy="348.0234" fill="#84BE84" rx="3" ry="3" style="stroke:#038048;stroke-width:1.0;"/><text fill="#000000" font-family="sans-serif" font-size="14" lengthAdjust="spacing" textLength="604" x="1136.5" y="351.3701">createInverseFunctionFilteredHappensBeforeAndAddToOverallFact(Sig, Expr, Expr): void</text><ellipse cx="1127.5" cy="364.3203" fill="#84BE84" rx="3" ry="3" style="stroke:#038048;stroke-width:1.0;"/><text fill="#000000" font-family="sans-serif" font-size="14" lengthAdjust="spacing" textLength="418" x="1136.5" y="367.667">addCardinalityEqualConstraintToField(Field, PrimSig, int): void</text><ellipse cx="1127.5" cy="380.6172" fill="#84BE84" rx="3" ry="3" style="stroke:#038048;stroke-width:1.0;"/><text fill="#000000" font-family="sans-serif" font-size="14" lengthAdjust="spacing" textLength="426" x="1136.5" y="383.9639">addCardinalityEqualConstraintToField(String, PrimSig, int): void</text><ellipse cx="1127.5" cy="396.9141" fill="#84BE84" rx="3" ry="3" style="stroke:#038048;stroke-width:1.0;"/><text fill="#000000" font-family="sans-serif" font-size="14" lengthAdjust="spacing" textLength="505" x="1136.5" y="400.2607">addCardinalityGreaterThanEqualConstraintToField(Field, PrimSig, int): void</text><ellipse cx="1127.5" cy="413.2109" fill="#84BE84" rx="3" ry="3" style="stroke:#038048;stroke-width:1.0;"/><text fill="#000000" font-family="sans-serif" font-size="14" lengthAdjust="spacing" textLength="513" x="1136.5" y="416.5576">addCardinalityGreaterThanEqualConstraintToField(String, PrimSig, int): void</text><ellipse cx="1127.5" cy="429.5078" fill="#84BE84" rx="3" ry="3" style="stroke:#038048;stroke-width:1.0;"/><text fill="#000000" font-family="sans-serif" font-size="14" lengthAdjust="spacing" textLength="619" x="1136.5" y="432.8545">createFnForTransfer(PrimSig, Expr, String, String, List&lt;Set&lt;Field&gt;&gt;, boolean): Set&lt;Expr&gt;</text><ellipse cx="1127.5" cy="445.8047" fill="#84BE84" rx="3" ry="3" style="stroke:#038048;stroke-width:1.0;"/><text fill="#000000" font-family="sans-serif" font-size="14" lengthAdjust="spacing" textLength="665" x="1136.5" y="449.1514">createFnForTransferBefore(PrimSig, Expr, String, String, List&lt;Set&lt;Field&gt;&gt;, boolean): Set&lt;Expr&gt;</text><ellipse cx="1127.5" cy="462.1016" fill="#84BE84" rx="3" ry="3" style="stroke:#038048;stroke-width:1.0;"/><text fill="#000000" font-family="sans-serif" font-size="14" lengthAdjust="spacing" textLength="398" x="1136.5" y="465.4482">createNoInputsOrOutputsField(PrimSig, String, Func): void</text><ellipse cx="1127.5" cy="478.3984" fill="#84BE84" rx="3" ry="3" style="stroke:#038048;stroke-width:1.0;"/><text fill="#000000" font-family="sans-serif" font-size="14" lengthAdjust="spacing" textLength="604" x="1136.5" y="481.7451">addInOrOutputsAndNoInOrOutputsX(PrimSig, Set&lt;Field&gt;, boolean, boolean, Func): void</text><ellipse cx="1127.5" cy="494.6953" fill="#84BE84" rx="3" ry="3" style="stroke:#038048;stroke-width:1.0;"/><text fill="#000000" font-family="sans-serif" font-size="14" lengthAdjust="spacing" textLength="401" x="1136.5" y="498.042">createInOutClosure(PrimSig, Field, Set&lt;Field&gt;, Func): void</text><ellipse cx="1127.5" cy="510.9922" fill="#84BE84" rx="3" ry="3" style="stroke:#038048;stroke-width:1.0;"/><text fill="#000000" font-family="sans-serif" font-size="14" lengthAdjust="spacing" textLength="344" x="1136.5" y="514.3389">handleNoTransfer(Set&lt;Sig&gt;, Set&lt;PrimSig&gt;): void</text><ellipse cx="1127.5" cy="527.2891" fill="#84BE84" rx="3" ry="3" style="stroke:#038048;stroke-width:1.0;"/><text fill="#000000" font-family="sans-serif" font-size="14" lengthAdjust="spacing" textLength="372" x="1136.5" y="530.6357">handleStepClosure(Set&lt;String&gt;, Set&lt;PrimSig&gt;): void</text><ellipse cx="1127.5" cy="543.5859" fill="#84BE84" rx="3" ry="3" style="stroke:#038048;stroke-width:1.0;"/><text fill="#000000" font-family="sans-serif" font-size="14" lengthAdjust="spacing" textLength="447" x="1136.5" y="546.9326">addSteps(Map&lt;String, Set&lt;String&gt;&gt;, Set&lt;PrimSig&gt;): Set&lt;Sig&gt;</text><ellipse cx="1127.5" cy="559.8828" fill="#84BE84" rx="3" ry="3" style="stroke:#038048;stroke-width:1.0;"/><text fill="#000000" font-family="sans-serif" font-size="14" lengthAdjust="spacing" textLength="437" x="1136.5" y="563.2295">addRedefinedSubsettingAsFacts(PrimSig, Set&lt;Property&gt;): void</text><ellipse cx="1127.5" cy="576.1797" fill="#84BE84" rx="3" ry="3" style="stroke:#038048;stroke-width:1.0;"/><text fill="#000000" font-family="sans-serif" font-size="14" lengthAdjust="spacing" textLength="1177" x="1136.5" y="579.5264">handleNoInputsOutputs(HashMap&lt;String, Set&lt;String&gt;&gt;, HashMap&lt;String, Set&lt;String&gt;&gt;, Set&lt;String&gt;, Set&lt;String&gt;, Set&lt;PrimSig&gt;, Map&lt;String, NamedElement&gt;): void</text><ellipse cx="1127.5" cy="592.4766" fill="#84BE84" rx="3" ry="3" style="stroke:#038048;stroke-width:1.0;"/><text fill="#000000" font-family="sans-serif" font-size="14" lengthAdjust="spacing" textLength="438" x="1136.5" y="595.8232">getFlowTypeSig(HashMap&lt;String, Set&lt;String&gt;&gt;): Set&lt;String&gt;</text><ellipse cx="1127.5" cy="608.7734" fill="#84BE84" rx="3" ry="3" style="stroke:#038048;stroke-width:1.0;"/><text fill="#000000" font-family="sans-serif" font-size="14" lengthAdjust="spacing" textLength="258" x="1136.5" y="612.1201">addEqual(PrimSig, String, String): void</text><ellipse cx="1127.5" cy="625.0703" fill="#84BE84" rx="3" ry="3" style="stroke:#038048;stroke-width:1.0;"/><text fill="#000000" font-family="sans-serif" font-size="14" lengthAdjust="spacing" textLength="283" x="1136.5" y="628.417">createAlloyFile(File, Set&lt;Field&gt;): boolean</text><ellipse cx="1127.5" cy="641.3672" fill="#84BE84" rx="3" ry="3" style="stroke:#038048;stroke-width:1.0;"/><text fill="#000000" font-family="sans-serif" font-size="14" lengthAdjust="spacing" text-decoration="underline" textLength="266" x="1136.5" y="644.7139">addAlloyTransferField(String, Sig): Field</text><ellipse cx="1127.5" cy="657.6641" fill="#84BE84" rx="3" ry="3" style="stroke:#038048;stroke-width:1.0;"/><text fill="#000000" font-family="sans-serif" font-size="14" lengthAdjust="spacing" textLength="235" x="1136.5" y="661.0107">addFacts(String, Set&lt;Expr&gt;): void</text></g></a><!--class Translator--><a href="Translator.html" target="_top" title="Translator.html" xlink:actuate="onRequest" xlink:href="Translator.html" xlink:show="new" xlink:title="Translator.html" xlink:type="simple"><g id="elem_Translator"><rect codeLine="63" fill="#F1F1F1" height="80.5938" id="Translator" rx="2.5" ry="2.5" style="stroke:#181818;stroke-width:0.5;" width="373" x="638.5" y="728"/><ellipse cx="786.25" cy="744" fill="#ADD1B2" rx="11" ry="11" style="stroke:#181818;stroke-width:1.0;"/><path d="M789.2188,749.6406 Q788.6406,749.9375 788,750.0781 Q787.3594,750.2344 786.6563,750.2344 Q784.1563,750.2344 782.8281,748.5938 Q781.5156,746.9375 781.5156,743.8125 Q781.5156,740.6875 782.8281,739.0313 Q784.1563,737.375 786.6563,737.375 Q787.3594,737.375 788,737.5313 Q788.6563,737.6875 789.2188,737.9844 L789.2188,740.7031 Q788.5938,740.125 788,739.8594 Q787.4063,739.5781 786.7813,739.5781 Q785.4375,739.5781 784.75,740.6563 Q784.0625,741.7188 784.0625,743.8125 Q784.0625,745.9063 784.75,746.9844 Q785.4375,748.0469 786.7813,748.0469 Q787.4063,748.0469 788,747.7813 Q788.5938,747.5 789.2188,746.9219 L789.2188,749.6406 Z " fill="#000000"/><text fill="#000000" font-family="sans-serif" font-size="14" lengthAdjust="spacing" textLength="69" x="806.75" y="748.8467">Translator</text><line style="stroke:#181818;stroke-width:0.5;" x1="639.5" x2="1010.5" y1="760" y2="760"/><line style="stroke:#181818;stroke-width:0.5;" x1="639.5" x2="1010.5" y1="768" y2="768"/><ellipse cx="649.5" cy="781.6484" fill="#84BE84" rx="3" ry="3" style="stroke:#038048;stroke-width:1.0;"/><text fill="#000000" font-family="sans-serif" font-size="14" lengthAdjust="spacing" textLength="319" x="658.5" y="784.9951">Translator(Set&lt;Expr&gt;, Set&lt;Sig&gt;, Set&lt;Field&gt;)</text><ellipse cx="649.5" cy="797.9453" fill="#84BE84" rx="3" ry="3" style="stroke:#038048;stroke-width:1.0;"/><text fill="#000000" font-family="sans-serif" font-size="14" lengthAdjust="spacing" textLength="347" x="658.5" y="801.292">generateAlsFileContents(AlloyModule, String): void</text></g></a><!--class VisitQuery--><g id="elem_VisitQuery"><rect codeLine="71" fill="#F1F1F1" height="48" id="VisitQuery" rx="2.5" ry="2.5" style="stroke:#181818;stroke-width:0.5;" width="113" x="221.5" y="41"/><ellipse cx="236.5" cy="57" fill="#A9DCDF" rx="11" ry="11" style="stroke:#181818;stroke-width:1.0;"/><path d="M236.6094,52.3438 L235.4531,57.4219 L237.7813,57.4219 L236.6094,52.3438 Z M235.125,50.1094 L238.1094,50.1094 L241.4688,62.5 L239.0156,62.5 L238.25,59.4375 L234.9688,59.4375 L234.2188,62.5 L231.7813,62.5 L235.125,50.1094 Z " fill="#000000"/><text fill="#000000" font-family="sans-serif" font-size="14" font-style="italic" lengthAdjust="spacing" textLength="70" x="250.5" y="61.8467">VisitQuery</text><rect fill="#FFFFFF" height="15.9688" style="stroke:#181818;stroke-width:1.0;stroke-dasharray:2.0,2.0;" width="9" x="328.5" y="38"/><text fill="#000000" font-family="sans-serif" font-size="12" font-style="italic" lengthAdjust="spacing" textLength="7" x="329.5" y="50.1387">T</text><line style="stroke:#181818;stroke-width:0.5;" x1="222.5" x2="333.5" y1="73" y2="73"/><line style="stroke:#181818;stroke-width:0.5;" x1="222.5" x2="333.5" y1="81" y2="81"/></g><!--reverse link VisitQuery to ExprVisitor--><g id="link_VisitQuery_ExprVisitor"><path codeLine="74" d="M278,107.17 C278,148.43 278,219.29 278,293.81 " fill="none" id="VisitQuery-backto-ExprVisitor" style="stroke:#181818;stroke-width:1.0;"/><polygon fill="none" points="278,89.17,272,107.17,284,107.17,278,89.17" style="stroke:#181818;stroke-width:1.0;"/></g><text fill="#888888" font-family="sans-serif" font-size="10" lengthAdjust="spacing" textLength="186" x="1071.5" y="840.2822">UMLDoclet 2.1.1, PlantUML 1.2023.12</text><!--SRC=[jLTjRzCw5FxEh_0Nf5IKIF0ncYfr8xrCMkbeimaqJSXBtCpSrCwrdK45- -ySEqxYD2yjw5AfRHoVy_YyFCV7HWWXIHHySoomuW85mOiNy1BbEFuNfmIHfF1Jh4ZywATAK9y_x7mbC9EP5lTnbl6zlnLyztr7qOzILt_Y34k9mk-vkAMIQkIxEsVaFwfTTdyF6iZvlA9opRdQq3H03vnd1BFsl8FWROWwq-FP5Ed71ILPCfkqvP-qhAUbpYd3OZy9q0QyOEcGs0KuT5o8CwamKqS5hwWyBlJnkCZDIRRVOZ4g0s4Tc9TSA1C_wPc_ALhY_AoKd2BjXGtl3026flgMD5FTHPyFUR8wNtvQNhwTQpO1KTnXFrD-G08KZP_HgqqKhiDLzFaw_78zNuVB4CQzNlQgtCwlRaBzr1yOrn2l53XWM2m8L8SHMD2CUFfdYghuwD5aWCifKQ4GN2o9b51ftkI8rJX98luUoqT8WEScGRE_V9xDcgMTju3yn6boAgwbG5DKC-s8ULVbSmGkvanXokIfKBsnCJO1NoE-mB6IsZBNBrFsXsPqI1NnYa_sQM3JiRFz-OKiWHtLN82k1Tt1YpuImEkLM1DL2DQeJ2kDQUNfE8WnnLKVNna2zOxAhvP_fe9DJThCDtImse1ZnExk-nO_frz9h2Xdm5j514akMLuekHAhGka7p_XX4wYJK0-iRp0kMAoPN6Nff6LAt1BGmfOm7PvP13tj0hp7UKwOF2TRBiYS9NFDdzKJ4R2TQmOTBZ02VSb0JVwT5I1R5rWaq8eoglRXVmNEJ2yHK30AkAvZMUt0DMseQJH_2DOXuMbe_vXGYEWHi__LokEu9njiYS0MN4JwFB8bmgkLoZoqIyXsgzPUr9JaA65RgvGK-6jhVU07HLV6fLwkRYr35G8HlsIrDb1L8zRZJmvIRPrJluU5F5mc07YHSLcuiUZizoCum84a0tVhx9cEHLDxdhEOin7TZI9vPOBJxaxGXnXfPJdMHziObN4Td3L9o9OoacoA1pXAAr2VIzErsf6-5ZmdGkrdey6mkRVRhUtA0nQEptO2qXkTzadl0zwH9Cp8ZZ3LRoUqmqN6lqNxNBUxKGEhe9N3JjnC_NTfNRUx8U9rZbhDsR__CD4wwHZjYd7j7SVfZXrZotp-mH6alYdfKqXpRHeuYDG2XvURfYnwhpafOT28T6oa3WhigWeoA3tZxP8dHNCc7J3vkNlhsr7bnnBJp9T9wcEf77FnWzwsOsNTD5UoZmKH-xDevkBruWH18u_EVhv-_LkNp21mBe5caHXy9G9juUO8VpVBgtSypk1I-zP_ux-1JfB1LGtUefUwiKDBzoQ_0000]--></g></svg>