<?xml version="1.0" encoding="us-ascii" standalone="no"?><svg xmlns="http://www.w3.org/2000/svg" xmlns:xlink="http://www.w3.org/1999/xlink" contentStyleType="text/css" height="406px" preserveAspectRatio="none" style="width:264px;height:406px;background:#FFFFFF;" version="1.1" viewBox="0 0 264 406" width="264px" zoomAndPan="magnify"><defs/><g><ellipse cx="132" cy="20" fill="#222222" rx="10" ry="10" style="stroke:#222222;stroke-width:1.0;"/><rect fill="#F1F1F1" height="33.9688" rx="12.5" ry="12.5" style="stroke:#181818;stroke-width:0.5;" width="155" x="54.5" y="50"/><text fill="#000000" font-family="sans-serif" font-size="12" lengthAdjust="spacing" textLength="135" x="64.5" y="71.1387">Get Source Field Type</text><rect fill="#F1F1F1" height="33.9688" rx="12.5" ry="12.5" style="stroke:#181818;stroke-width:0.5;" width="151" x="56.5" y="103.9688"/><text fill="#000000" font-family="sans-serif" font-size="12" lengthAdjust="spacing" textLength="131" x="66.5" y="125.1074">Get Target Field Type</text><rect fill="#F1F1F1" height="33.9688" rx="12.5" ry="12.5" style="stroke:#181818;stroke-width:0.5;" width="212" x="26" y="157.9375"/><text fill="#000000" font-family="sans-serif" font-size="12" lengthAdjust="spacing" textLength="192" x="36" y="179.0762">Create Source Bijection Filtered</text><rect fill="#F1F1F1" height="33.9688" rx="12.5" ry="12.5" style="stroke:#181818;stroke-width:0.5;" width="208" x="28" y="211.9063"/><text fill="#000000" font-family="sans-serif" font-size="12" lengthAdjust="spacing" textLength="188" x="38" y="233.0449">Create Target Bijection Filtered</text><rect fill="#F1F1F1" height="33.9688" rx="12.5" ry="12.5" style="stroke:#181818;stroke-width:0.5;" width="192" x="36" y="265.875"/><text fill="#000000" font-family="sans-serif" font-size="12" lengthAdjust="spacing" textLength="172" x="46" y="287.0137">Create Sub Setting Item Rule</text><rect fill="#F1F1F1" height="33.9688" rx="12.5" ry="12.5" style="stroke:#181818;stroke-width:0.5;" width="242" x="11" y="319.8438"/><text fill="#000000" font-family="sans-serif" font-size="12" lengthAdjust="spacing" textLength="222" x="21" y="340.9824">Create Source is Before Target Field</text><ellipse cx="132" cy="384.8125" fill="none" rx="11" ry="11" style="stroke:#222222;stroke-width:1.0;"/><ellipse cx="132" cy="384.8125" fill="#222222" rx="6" ry="6" style="stroke:#222222;stroke-width:1.0;"/><line style="stroke:#181818;stroke-width:1.0;" x1="132" x2="132" y1="30" y2="50"/><polygon fill="#181818" points="128,40,132,50,136,40,132,44" style="stroke:#181818;stroke-width:1.0;"/><line style="stroke:#181818;stroke-width:1.0;" x1="132" x2="132" y1="83.9688" y2="103.9688"/><polygon fill="#181818" points="128,93.9688,132,103.9688,136,93.9688,132,97.9688" style="stroke:#181818;stroke-width:1.0;"/><line style="stroke:#181818;stroke-width:1.0;" x1="132" x2="132" y1="137.9375" y2="157.9375"/><polygon fill="#181818" points="128,147.9375,132,157.9375,136,147.9375,132,151.9375" style="stroke:#181818;stroke-width:1.0;"/><line style="stroke:#181818;stroke-width:1.0;" x1="132" x2="132" y1="191.9063" y2="211.9063"/><polygon fill="#181818" points="128,201.9063,132,211.9063,136,201.9063,132,205.9063" style="stroke:#181818;stroke-width:1.0;"/><line style="stroke:#181818;stroke-width:1.0;" x1="132" x2="132" y1="245.875" y2="265.875"/><polygon fill="#181818" points="128,255.875,132,265.875,136,255.875,132,259.875" style="stroke:#181818;stroke-width:1.0;"/><line style="stroke:#181818;stroke-width:1.0;" x1="132" x2="132" y1="299.8438" y2="319.8438"/><polygon fill="#181818" points="128,309.8438,132,319.8438,136,309.8438,132,313.8438" style="stroke:#181818;stroke-width:1.0;"/><line style="stroke:#181818;stroke-width:1.0;" x1="132" x2="132" y1="353.8125" y2="373.8125"/><polygon fill="#181818" points="128,363.8125,132,373.8125,136,363.8125,132,367.8125" style="stroke:#181818;stroke-width:1.0;"/><!--SRC=[VOv12eCm54JtdkAVGtSMB6uRBn1rAbzI8p-JXRUlq4gHWgk1uJrc4hsnAE-Wk9XjW3IAC4gthQW-VUTjskFKtmoUE9HQPmpKkEnG80pZ3_dQLuZBlJYGkapI4YzvvF0_eabgFAFXTAWg4kFw1W00]--></g></svg>