<?xml version="1.0" encoding="us-ascii" standalone="no"?><svg xmlns="http://www.w3.org/2000/svg" xmlns:xlink="http://www.w3.org/1999/xlink" contentStyleType="text/css" height="298px" preserveAspectRatio="none" style="width:224px;height:298px;background:#FFFFFF;" version="1.1" viewBox="0 0 224 298" width="224px" zoomAndPan="magnify"><defs/><g><ellipse cx="112" cy="20" fill="#222222" rx="10" ry="10" style="stroke:#222222;stroke-width:1.0;"/><rect fill="#F1F1F1" height="33.9688" rx="12.5" ry="12.5" style="stroke:#181818;stroke-width:0.5;" width="158" x="33" y="50"/><text fill="#000000" font-family="sans-serif" font-size="12" lengthAdjust="spacing" textLength="138" x="43" y="71.1387">Make ExprVar from Sig</text><rect fill="#F1F1F1" height="33.9688" rx="12.5" ry="12.5" style="stroke:#181818;stroke-width:0.5;" width="116" x="54" y="103.9688"/><text fill="#000000" font-family="sans-serif" font-size="12" lengthAdjust="spacing" textLength="96" x="64" y="125.1074">Create ArrayList</text><rect fill="#F1F1F1" height="33.9688" rx="12.5" ry="12.5" style="stroke:#181818;stroke-width:0.5;" width="161" x="31.5" y="157.9375"/><text fill="#000000" font-family="sans-serif" font-size="12" lengthAdjust="spacing" textLength="141" x="41.5" y="179.0762">Create new Declaration</text><rect fill="#F1F1F1" height="33.9688" rx="12.5" ry="12.5" style="stroke:#181818;stroke-width:0.5;" width="202" x="11" y="211.9063"/><text fill="#000000" font-family="sans-serif" font-size="12" lengthAdjust="spacing" textLength="182" x="21" y="233.0449">Add Cardinality to Overall Fact</text><ellipse cx="112" cy="276.875" fill="none" rx="11" ry="11" style="stroke:#222222;stroke-width:1.0;"/><ellipse cx="112" cy="276.875" fill="#222222" rx="6" ry="6" style="stroke:#222222;stroke-width:1.0;"/><line style="stroke:#181818;stroke-width:1.0;" x1="112" x2="112" y1="30" y2="50"/><polygon fill="#181818" points="108,40,112,50,116,40,112,44" style="stroke:#181818;stroke-width:1.0;"/><line style="stroke:#181818;stroke-width:1.0;" x1="112" x2="112" y1="83.9688" y2="103.9688"/><polygon fill="#181818" points="108,93.9688,112,103.9688,116,93.9688,112,97.9688" style="stroke:#181818;stroke-width:1.0;"/><line style="stroke:#181818;stroke-width:1.0;" x1="112" x2="112" y1="137.9375" y2="157.9375"/><polygon fill="#181818" points="108,147.9375,112,157.9375,116,147.9375,112,151.9375" style="stroke:#181818;stroke-width:1.0;"/><line style="stroke:#181818;stroke-width:1.0;" x1="112" x2="112" y1="191.9063" y2="211.9063"/><polygon fill="#181818" points="108,201.9063,112,211.9063,116,201.9063,112,205.9063" style="stroke:#181818;stroke-width:1.0;"/><line style="stroke:#181818;stroke-width:1.0;" x1="112" x2="112" y1="245.875" y2="265.875"/><polygon fill="#181818" points="108,255.875,112,265.875,116,255.875,112,259.875" style="stroke:#181818;stroke-width:1.0;"/><!--SRC=[HSin3i8m44JHFgUOSuGg2gG2KI3HZ-8DMc7iQBm2SdlIqVwdtuAAhh_mQJXzLzqfBAeltFnnwFfHnZ0C4hUpj_YdOXySRSuKmslPOKW98vMyC7jiY8hhsyISCN7UrnPr_G40]--></g></svg>