<?xml version="1.0" encoding="us-ascii" standalone="no"?><svg xmlns="http://www.w3.org/2000/svg" xmlns:xlink="http://www.w3.org/1999/xlink" contentStyleType="text/css" height="332px" preserveAspectRatio="none" style="width:215px;height:332px;background:#FFFFFF;" version="1.1" viewBox="0 0 215 332" width="215px" zoomAndPan="magnify"><defs/><g><ellipse cx="96" cy="20" fill="#222222" rx="10" ry="10" style="stroke:#222222;stroke-width:1.0;"/><rect fill="#F1F1F1" height="33.9688" rx="12.5" ry="12.5" style="stroke:#181818;stroke-width:0.5;" width="161" x="15.5" y="50"/><text fill="#000000" font-family="sans-serif" font-size="12" lengthAdjust="spacing" textLength="141" x="25.5" y="71.1387">Create new Declaration</text><rect fill="#F1F1F1" height="33.9688" rx="12.5" ry="12.5" style="stroke:#181818;stroke-width:0.5;" width="170" x="11" y="103.9688"/><text fill="#000000" font-family="sans-serif" font-size="12" lengthAdjust="spacing" textLength="150" x="21" y="125.1074">Join Signature to ExprVar</text><rect fill="#F1F1F1" height="33.9688" rx="12.5" ry="12.5" style="stroke:#181818;stroke-width:0.5;" width="167" x="12.5" y="201.9375"/><text fill="#000000" font-family="sans-serif" font-size="12" lengthAdjust="spacing" textLength="147" x="22.5" y="223.0762">Add Both to Overall Fact</text><polygon fill="#F1F1F1" points="62.5,157.9375,129.5,157.9375,141.5,169.9375,129.5,181.9375,62.5,181.9375,50.5,169.9375,62.5,157.9375" style="stroke:#181818;stroke-width:0.5;"/><text fill="#000000" font-family="sans-serif" font-size="11" lengthAdjust="spacing" textLength="67" x="62.5" y="173.7456">Expr != null</text><polygon fill="#F1F1F1" points="96,255.9063,108,267.9063,96,279.9063,84,267.9063,96,255.9063" style="stroke:#181818;stroke-width:0.5;"/><ellipse cx="96" cy="310.9063" fill="none" rx="11" ry="11" style="stroke:#222222;stroke-width:1.0;"/><ellipse cx="96" cy="310.9063" fill="#222222" rx="6" ry="6" style="stroke:#222222;stroke-width:1.0;"/><line style="stroke:#181818;stroke-width:1.0;" x1="96" x2="96" y1="30" y2="50"/><polygon fill="#181818" points="92,40,96,50,100,40,96,44" style="stroke:#181818;stroke-width:1.0;"/><line style="stroke:#181818;stroke-width:1.0;" x1="96" x2="96" y1="83.9688" y2="103.9688"/><polygon fill="#181818" points="92,93.9688,96,103.9688,100,93.9688,96,97.9688" style="stroke:#181818;stroke-width:1.0;"/><line style="stroke:#181818;stroke-width:1.0;" x1="96" x2="96" y1="181.9375" y2="201.9375"/><polygon fill="#181818" points="92,191.9375,96,201.9375,100,191.9375,96,195.9375" style="stroke:#181818;stroke-width:1.0;"/><line style="stroke:#181818;stroke-width:1.0;" x1="141.5" x2="189.5" y1="169.9375" y2="169.9375"/><polygon fill="#181818" points="185.5,208.9219,189.5,218.9219,193.5,208.9219,189.5,212.9219" style="stroke:#181818;stroke-width:1.0;"/><line style="stroke:#181818;stroke-width:1.0;" x1="189.5" x2="189.5" y1="169.9375" y2="267.9063"/><line style="stroke:#181818;stroke-width:1.0;" x1="189.5" x2="108" y1="267.9063" y2="267.9063"/><polygon fill="#181818" points="118,263.9063,108,267.9063,118,271.9063,114,267.9063" style="stroke:#181818;stroke-width:1.0;"/><line style="stroke:#181818;stroke-width:1.0;" x1="96" x2="96" y1="235.9063" y2="255.9063"/><polygon fill="#181818" points="92,245.9063,96,255.9063,100,245.9063,96,249.9063" style="stroke:#181818;stroke-width:1.0;"/><line style="stroke:#181818;stroke-width:1.0;" x1="96" x2="96" y1="137.9375" y2="157.9375"/><polygon fill="#181818" points="92,147.9375,96,157.9375,100,147.9375,96,151.9375" style="stroke:#181818;stroke-width:1.0;"/><line style="stroke:#181818;stroke-width:1.0;" x1="96" x2="96" y1="279.9063" y2="299.9063"/><polygon fill="#181818" points="92,289.9063,96,299.9063,100,289.9063,96,293.9063" style="stroke:#181818;stroke-width:1.0;"/><!--SRC=[5Sez2W9130RGFgVuxFGACrZuMzXO2FPX9wk1a5coMVNuikM3DoT7KZc5S0fSlZZBO1oSshrIkNLrFFJbd4i8ikFoc-B9KKb7R5TWiuSlPZigXzPmxFbUt_qZmMQuyf2Ln9kED6UV_W00]--></g></svg>