<?xml version="1.0" encoding="us-ascii" standalone="no"?><svg xmlns="http://www.w3.org/2000/svg" xmlns:xlink="http://www.w3.org/1999/xlink" contentStyleType="text/css" height="423px" preserveAspectRatio="none" style="width:358px;height:423px;background:#FFFFFF;" version="1.1" viewBox="0 0 358 423" width="358px" zoomAndPan="magnify"><defs/><g><ellipse cx="179" cy="20" fill="#222222" rx="10" ry="10" style="stroke:#222222;stroke-width:1.0;"/><rect fill="#F1F1F1" height="33.9688" rx="12.5" ry="12.5" style="stroke:#181818;stroke-width:0.5;" width="114" x="122" y="94"/><text fill="#000000" font-family="sans-serif" font-size="12" lengthAdjust="spacing" textLength="94" x="132" y="115.1387">Print Field Label</text><rect fill="#F1F1F1" height="33.9688" rx="12.5" ry="12.5" style="stroke:#181818;stroke-width:0.5;" width="91" x="133.5" y="196.3711"/><text fill="#000000" font-family="sans-serif" font-size="12" lengthAdjust="spacing" textLength="71" x="143.5" y="217.5098">Return Field</text><ellipse cx="179" cy="261.3398" fill="none" rx="11" ry="11" style="stroke:#222222;stroke-width:1.0;"/><ellipse cx="179" cy="261.3398" fill="#222222" rx="6" ry="6" style="stroke:#222222;stroke-width:1.0;"/><polygon fill="#F1F1F1" points="48,147.9688,310,147.9688,322,159.9688,310,171.9688,48,171.9688,36,159.9688,48,147.9688" style="stroke:#181818;stroke-width:0.5;"/><text fill="#000000" font-family="sans-serif" font-size="11" lengthAdjust="spacing" textLength="21" x="183" y="182.1792">yes</text><text fill="#000000" font-family="sans-serif" font-size="11" lengthAdjust="spacing" textLength="262" x="48" y="163.7769">Current Field Label == Looking for Field Label</text><polygon fill="#F1F1F1" points="104,50,254,50,266,62,254,74,104,74,92,62,104,50" style="stroke:#181818;stroke-width:0.5;"/><text fill="#000000" font-family="sans-serif" font-size="11" lengthAdjust="spacing" textLength="150" x="104" y="65.8081">For all Functions in Module</text><rect fill="#F1F1F1" height="33.9688" rx="12.5" ry="12.5" style="stroke:#181818;stroke-width:0.5;" width="82" x="138" y="336.3398"/><text fill="#000000" font-family="sans-serif" font-size="12" lengthAdjust="spacing" textLength="62" x="148" y="357.4785">Return null</text><ellipse cx="179" cy="401.3086" fill="none" rx="11" ry="11" style="stroke:#222222;stroke-width:1.0;"/><ellipse cx="179" cy="401.3086" fill="#222222" rx="6" ry="6" style="stroke:#222222;stroke-width:1.0;"/><line style="stroke:#181818;stroke-width:1.0;" x1="179" x2="179" y1="230.3398" y2="250.3398"/><polygon fill="#181818" points="175,240.3398,179,250.3398,183,240.3398,179,244.3398" style="stroke:#181818;stroke-width:1.0;"/><line style="stroke:#181818;stroke-width:1.0;" x1="179" x2="179" y1="171.9688" y2="196.3711"/><polygon fill="#181818" points="175,186.3711,179,196.3711,183,186.3711,179,190.3711" style="stroke:#181818;stroke-width:1.0;"/><line style="stroke:#181818;stroke-width:1.0;" x1="322" x2="346" y1="159.9688" y2="159.9688"/><line style="stroke:#181818;stroke-width:1.0;" x1="346" x2="346" y1="62" y2="159.9688"/><line style="stroke:#181818;stroke-width:1.0;" x1="346" x2="266" y1="62" y2="62"/><polygon fill="#181818" points="276,58,266,62,276,66,272,62" style="stroke:#181818;stroke-width:1.0;"/><line style="stroke:#181818;stroke-width:1.0;" x1="179" x2="179" y1="127.9688" y2="147.9688"/><polygon fill="#181818" points="175,137.9688,179,147.9688,183,137.9688,179,141.9688" style="stroke:#181818;stroke-width:1.0;"/><line style="stroke:#181818;stroke-width:1.0;" x1="179" x2="179" y1="74" y2="94"/><polygon fill="#181818" points="175,84,179,94,183,84,179,88" style="stroke:#181818;stroke-width:1.0;"/><line style="stroke:#181818;stroke-width:1.0;" x1="92" x2="24" y1="62" y2="62"/><polygon fill="#181818" points="20,182.3711,24,192.3711,28,182.3711,24,186.3711" style="stroke:#181818;stroke-width:1.0;"/><line style="stroke:#181818;stroke-width:1.0;" x1="24" x2="24" y1="62" y2="316.3398"/><line style="stroke:#181818;stroke-width:1.0;" x1="24" x2="179" y1="316.3398" y2="316.3398"/><line style="stroke:#181818;stroke-width:1.0;" x1="179" x2="179" y1="316.3398" y2="336.3398"/><polygon fill="#181818" points="175,326.3398,179,336.3398,183,326.3398,179,330.3398" style="stroke:#181818;stroke-width:1.0;"/><line style="stroke:#181818;stroke-width:1.0;" x1="179" x2="179" y1="30" y2="50"/><polygon fill="#181818" points="175,40,179,50,183,40,179,44" style="stroke:#181818;stroke-width:1.0;"/><line style="stroke:#181818;stroke-width:1.0;" x1="179" x2="179" y1="370.3086" y2="390.3086"/><polygon fill="#181818" points="175,380.3086,179,390.3086,183,380.3086,179,384.3086" style="stroke:#181818;stroke-width:1.0;"/><!--SRC=[LOv12W8n34NtFKMMdIiup4heQWJn1jMcJZ0aagQ8jtTqG7JpD-_n-CspUNWin1YJ6cHcI5qkJYeDIE2WfJCEONSq4eT4o0NcV4OU0rM8-sw6_m2c2MRL6yaLwjhyGGFuWWBnYMrDdj2xoSR7q5pl0QLGVU_dqbUHphmPBm00]--></g></svg>