<?xml version="1.0" encoding="us-ascii" standalone="no"?><svg xmlns="http://www.w3.org/2000/svg" xmlns:xlink="http://www.w3.org/1999/xlink" contentStyleType="text/css" height="161px" preserveAspectRatio="none" style="width:280px;height:161px;background:#FFFFFF;" version="1.1" viewBox="0 0 280 161" width="280px" zoomAndPan="magnify"><defs/><g><ellipse cx="141" cy="20" fill="#222222" rx="10" ry="10" style="stroke:#222222;stroke-width:1.0;"/><rect fill="#F1F1F1" height="33.9688" rx="12.5" ry="12.5" style="stroke:#181818;stroke-width:0.5;" width="188" x="47" y="94"/><text fill="#000000" font-family="sans-serif" font-size="12" lengthAdjust="spacing" textLength="168" x="57" y="115.1387">Add Signature to allSigs List</text><polygon fill="#F1F1F1" points="51.5,50,230.5,50,242.5,62,230.5,74,51.5,74,39.5,62,51.5,50" style="stroke:#181818;stroke-width:0.5;"/><text fill="#000000" font-family="sans-serif" font-size="11" lengthAdjust="spacing" textLength="179" x="51.5" y="65.8081">for all Signatures in the Module</text><ellipse cx="24" cy="105" fill="none" rx="11" ry="11" style="stroke:#222222;stroke-width:1.0;"/><ellipse cx="24" cy="105" fill="#222222" rx="6" ry="6" style="stroke:#222222;stroke-width:1.0;"/><line style="stroke:#181818;stroke-width:1.0;" x1="141" x2="141" y1="74" y2="94"/><polygon fill="#181818" points="137,84,141,94,145,84,141,88" style="stroke:#181818;stroke-width:1.0;"/><line style="stroke:#181818;stroke-width:1.0;" x1="141" x2="141" y1="127.9688" y2="137.9688"/><line style="stroke:#181818;stroke-width:1.0;" x1="141" x2="254.5" y1="137.9688" y2="137.9688"/><polygon fill="#181818" points="250.5,108.9844,254.5,98.9844,258.5,108.9844,254.5,104.9844" style="stroke:#181818;stroke-width:1.0;"/><line style="stroke:#181818;stroke-width:1.0;" x1="254.5" x2="254.5" y1="62" y2="137.9688"/><line style="stroke:#181818;stroke-width:1.0;" x1="254.5" x2="242.5" y1="62" y2="62"/><polygon fill="#181818" points="252.5,58,242.5,62,252.5,66,248.5,62" style="stroke:#181818;stroke-width:1.0;"/><line style="stroke:#181818;stroke-width:1.0;" x1="39.5" x2="24" y1="62" y2="62"/><line style="stroke:#181818;stroke-width:1.0;" x1="24" x2="24" y1="62" y2="94"/><polygon fill="#181818" points="20,84,24,94,28,84,24,88" style="stroke:#181818;stroke-width:1.0;"/><line style="stroke:#181818;stroke-width:1.0;" x1="141" x2="141" y1="30" y2="50"/><polygon fill="#181818" points="137,40,141,50,145,40,141,44" style="stroke:#181818;stroke-width:1.0;"/><!--SRC=[Aov9B2hXAi_8p4dLICilKaZCoL48papFIomfBKejLiZCKoZ9I5NmpKyfpKdLvB9oJ4b1I2kKv8FK0_d52ZwPnINMNAbvAM2Zk8fByWi0]--></g></svg>