<?xml version="1.0" encoding="us-ascii" standalone="no"?><svg xmlns="http://www.w3.org/2000/svg" xmlns:xlink="http://www.w3.org/1999/xlink" contentStyleType="text/css" height="372px" preserveAspectRatio="none" style="width:793px;height:372px;background:#FFFFFF;" version="1.1" viewBox="0 0 793 372" width="793px" zoomAndPan="magnify"><defs/><g><ellipse cx="460.25" cy="20" fill="#222222" rx="10" ry="10" style="stroke:#222222;stroke-width:1.0;"/><polygon fill="#F1F1F1" points="375.25,50,545.25,50,557.25,62,545.25,74,375.25,74,363.25,62,375.25,50" style="stroke:#181818;stroke-width:0.5;"/><text fill="#000000" font-family="sans-serif" font-size="11" lengthAdjust="spacing" textLength="170" x="375.25" y="65.8081">Expr is instance of ExprBinary</text><text fill="#000000" font-family="sans-serif" font-size="11" lengthAdjust="spacing" textLength="21" x="342.25" y="59.4058">yes</text><text fill="#000000" font-family="sans-serif" font-size="11" lengthAdjust="spacing" textLength="14" x="557.25" y="59.4058">no</text><rect fill="#F1F1F1" height="33.9688" rx="12.5" ry="12.5" style="stroke:#181818;stroke-width:0.5;" width="248" x="137" y="84"/><text fill="#000000" font-family="sans-serif" font-size="12" lengthAdjust="spacing" textLength="228" x="147" y="105.1387">Add left side of ExprBinary to ExprVar</text><rect fill="#F1F1F1" height="33.9688" rx="12.5" ry="12.5" style="stroke:#181818;stroke-width:0.5;" width="256" x="133" y="137.9688"/><text fill="#000000" font-family="sans-serif" font-size="12" lengthAdjust="spacing" textLength="236" x="143" y="159.1074">Add right side of ExprBinary to ExprVar</text><polygon fill="#F1F1F1" points="178,191.9375,344,191.9375,356,203.9375,344,215.9375,178,215.9375,166,203.9375,178,191.9375" style="stroke:#181818;stroke-width:0.5;"/><text fill="#000000" font-family="sans-serif" font-size="11" lengthAdjust="spacing" textLength="166" x="178" y="207.7456">ExprBinary Operation is PLUS</text><text fill="#000000" font-family="sans-serif" font-size="11" lengthAdjust="spacing" textLength="21" x="145" y="201.3433">yes</text><text fill="#000000" font-family="sans-serif" font-size="11" lengthAdjust="spacing" textLength="14" x="356" y="201.3433">no</text><rect fill="#F1F1F1" height="33.9688" rx="12.5" ry="12.5" style="stroke:#181818;stroke-width:0.5;" width="242" x="11" y="225.9375"/><text fill="#000000" font-family="sans-serif" font-size="12" lengthAdjust="spacing" textLength="222" x="21" y="247.0762">Return Added left side and right side</text><rect fill="#F1F1F1" height="33.9688" rx="12.5" ry="12.5" style="stroke:#181818;stroke-width:0.5;" width="234" x="273" y="225.9375"/><text fill="#000000" font-family="sans-serif" font-size="12" lengthAdjust="spacing" textLength="214" x="283" y="247.0762">Return ExprBinary joined to ExprVar</text><polygon fill="#F1F1F1" points="261,265.9063,273,277.9063,261,289.9063,249,277.9063,261,265.9063" style="stroke:#181818;stroke-width:0.5;"/><rect fill="#F1F1F1" height="33.9688" rx="12.5" ry="12.5" style="stroke:#181818;stroke-width:0.5;" width="245" x="537" y="84"/><text fill="#000000" font-family="sans-serif" font-size="12" lengthAdjust="spacing" textLength="225" x="547" y="105.1387">Return original Expr joined to ExprVar</text><polygon fill="#F1F1F1" points="460.25,295.9063,472.25,307.9063,460.25,319.9063,448.25,307.9063,460.25,295.9063" style="stroke:#181818;stroke-width:0.5;"/><ellipse cx="460.25" cy="350.9063" fill="none" rx="11" ry="11" style="stroke:#222222;stroke-width:1.0;"/><ellipse cx="460.25" cy="350.9063" fill="#222222" rx="6" ry="6" style="stroke:#222222;stroke-width:1.0;"/><line style="stroke:#181818;stroke-width:1.0;" x1="261" x2="261" y1="117.9688" y2="137.9688"/><polygon fill="#181818" points="257,127.9688,261,137.9688,265,127.9688,261,131.9688" style="stroke:#181818;stroke-width:1.0;"/><line style="stroke:#181818;stroke-width:1.0;" x1="166" x2="132" y1="203.9375" y2="203.9375"/><line style="stroke:#181818;stroke-width:1.0;" x1="132" x2="132" y1="203.9375" y2="225.9375"/><polygon fill="#181818" points="128,215.9375,132,225.9375,136,215.9375,132,219.9375" style="stroke:#181818;stroke-width:1.0;"/><line style="stroke:#181818;stroke-width:1.0;" x1="356" x2="390" y1="203.9375" y2="203.9375"/><line style="stroke:#181818;stroke-width:1.0;" x1="390" x2="390" y1="203.9375" y2="225.9375"/><polygon fill="#181818" points="386,215.9375,390,225.9375,394,215.9375,390,219.9375" style="stroke:#181818;stroke-width:1.0;"/><line style="stroke:#181818;stroke-width:1.0;" x1="132" x2="132" y1="259.9063" y2="277.9063"/><line style="stroke:#181818;stroke-width:1.0;" x1="132" x2="249" y1="277.9063" y2="277.9063"/><polygon fill="#181818" points="239,273.9063,249,277.9063,239,281.9063,243,277.9063" style="stroke:#181818;stroke-width:1.0;"/><line style="stroke:#181818;stroke-width:1.0;" x1="390" x2="390" y1="259.9063" y2="277.9063"/><line style="stroke:#181818;stroke-width:1.0;" x1="390" x2="273" y1="277.9063" y2="277.9063"/><polygon fill="#181818" points="283,273.9063,273,277.9063,283,281.9063,279,277.9063" style="stroke:#181818;stroke-width:1.0;"/><line style="stroke:#181818;stroke-width:1.0;" x1="261" x2="261" y1="171.9375" y2="191.9375"/><polygon fill="#181818" points="257,181.9375,261,191.9375,265,181.9375,261,185.9375" style="stroke:#181818;stroke-width:1.0;"/><line style="stroke:#181818;stroke-width:1.0;" x1="363.25" x2="261" y1="62" y2="62"/><line style="stroke:#181818;stroke-width:1.0;" x1="261" x2="261" y1="62" y2="84"/><polygon fill="#181818" points="257,74,261,84,265,74,261,78" style="stroke:#181818;stroke-width:1.0;"/><line style="stroke:#181818;stroke-width:1.0;" x1="557.25" x2="659.5" y1="62" y2="62"/><line style="stroke:#181818;stroke-width:1.0;" x1="659.5" x2="659.5" y1="62" y2="84"/><polygon fill="#181818" points="655.5,74,659.5,84,663.5,74,659.5,78" style="stroke:#181818;stroke-width:1.0;"/><line style="stroke:#181818;stroke-width:1.0;" x1="261" x2="261" y1="289.9063" y2="307.9063"/><line style="stroke:#181818;stroke-width:1.0;" x1="261" x2="448.25" y1="307.9063" y2="307.9063"/><polygon fill="#181818" points="438.25,303.9063,448.25,307.9063,438.25,311.9063,442.25,307.9063" style="stroke:#181818;stroke-width:1.0;"/><line style="stroke:#181818;stroke-width:1.0;" x1="659.5" x2="659.5" y1="117.9688" y2="307.9063"/><line style="stroke:#181818;stroke-width:1.0;" x1="659.5" x2="472.25" y1="307.9063" y2="307.9063"/><polygon fill="#181818" points="482.25,303.9063,472.25,307.9063,482.25,311.9063,478.25,307.9063" style="stroke:#181818;stroke-width:1.0;"/><line style="stroke:#181818;stroke-width:1.0;" x1="460.25" x2="460.25" y1="30" y2="50"/><polygon fill="#181818" points="456.25,40,460.25,50,464.25,40,460.25,44" style="stroke:#181818;stroke-width:1.0;"/><line style="stroke:#181818;stroke-width:1.0;" x1="460.25" x2="460.25" y1="319.9063" y2="339.9063"/><polygon fill="#181818" points="456.25,329.9063,460.25,339.9063,464.25,329.9063,460.25,333.9063" style="stroke:#181818;stroke-width:1.0;"/><!--SRC=[XOv12i9034NtFKMMxHNiIi6Te2Yw7voCZPIaJ2BOspiT5QU2k4poNlvNSz4g2b2lxqC4KY1MStn6a03JRaNiujY0TSXGZwXDjLXw3pq60oN_1O99daukjaymqgNxIxuRl4xR0QCp4fuQxJR7mpn_ZtQB3EaxbaKSbsbjXRqYr2mVeuYu2d6oonB8daAsPfAadydfC_ZRKvFX0G00]--></g></svg>