<?xml version="1.0" encoding="us-ascii" standalone="no"?><svg xmlns="http://www.w3.org/2000/svg" xmlns:xlink="http://www.w3.org/1999/xlink" contentStyleType="text/css" height="367px" preserveAspectRatio="none" style="width:216px;height:367px;background:#FFFFFF;" version="1.1" viewBox="0 0 216 367" width="216px" zoomAndPan="magnify"><defs/><g><ellipse cx="93.5" cy="20" fill="#222222" rx="10" ry="10" style="stroke:#222222;stroke-width:1.0;"/><rect fill="#F1F1F1" height="33.9688" rx="12.5" ry="12.5" style="stroke:#181818;stroke-width:0.5;" width="165" x="11" y="84.2036"/><text fill="#000000" font-family="sans-serif" font-size="12" lengthAdjust="spacing" textLength="145" x="21" y="105.3423">Create Bijection Filtered</text><rect fill="#F1F1F1" height="33.9688" rx="12.5" ry="12.5" style="stroke:#181818;stroke-width:0.5;" width="165" x="11" y="172.376"/><text fill="#000000" font-family="sans-serif" font-size="12" lengthAdjust="spacing" textLength="145" x="21" y="193.5146">Create Bijection Filtered</text><rect fill="#F1F1F1" height="33.9688" rx="12.5" ry="12.5" style="stroke:#181818;stroke-width:0.5;" width="141" x="23" y="226.3447"/><text fill="#000000" font-family="sans-serif" font-size="12" lengthAdjust="spacing" textLength="121" x="33" y="247.4834">Add Exprs Together</text><rect fill="#F1F1F1" height="33.9688" rx="12.5" ry="12.5" style="stroke:#181818;stroke-width:0.5;" width="133" x="27" y="280.3135"/><text fill="#000000" font-family="sans-serif" font-size="12" lengthAdjust="spacing" textLength="113" x="37" y="301.4521">Return Added Expr</text><ellipse cx="93.5" cy="345.2822" fill="none" rx="11" ry="11" style="stroke:#222222;stroke-width:1.0;"/><ellipse cx="93.5" cy="345.2822" fill="#222222" rx="6" ry="6" style="stroke:#222222;stroke-width:1.0;"/><line style="stroke:#181818;stroke-width:1.0;" x1="93.5" x2="93.5" y1="30" y2="84.2036"/><polygon fill="#181818" points="89.5,74.2036,93.5,84.2036,97.5,74.2036,93.5,78.2036" style="stroke:#181818;stroke-width:1.0;"/><text fill="#000000" font-family="sans-serif" font-size="11" lengthAdjust="spacing" textLength="103" x="97.5" y="51.3047">_mainSig.join(_p1)</text><text fill="#000000" font-family="sans-serif" font-size="11" lengthAdjust="spacing" textLength="107" x="97.5" y="64.1094">_mainSig.join(_p2))</text><line style="stroke:#181818;stroke-width:1.0;" x1="93.5" x2="93.5" y1="118.1724" y2="172.376"/><polygon fill="#181818" points="89.5,162.376,93.5,172.376,97.5,162.376,93.5,166.376" style="stroke:#181818;stroke-width:1.0;"/><text fill="#000000" font-family="sans-serif" font-size="11" lengthAdjust="spacing" textLength="103" x="97.5" y="139.4771">_mainSig.join(_p1)</text><text fill="#000000" font-family="sans-serif" font-size="11" lengthAdjust="spacing" textLength="107" x="97.5" y="152.2817">_mainSig.join(_p3))</text><line style="stroke:#181818;stroke-width:1.0;" x1="93.5" x2="93.5" y1="206.3447" y2="226.3447"/><polygon fill="#181818" points="89.5,216.3447,93.5,226.3447,97.5,216.3447,93.5,220.3447" style="stroke:#181818;stroke-width:1.0;"/><line style="stroke:#181818;stroke-width:1.0;" x1="93.5" x2="93.5" y1="260.3135" y2="280.3135"/><polygon fill="#181818" points="89.5,270.3135,93.5,280.3135,97.5,270.3135,93.5,274.3135" style="stroke:#181818;stroke-width:1.0;"/><line style="stroke:#181818;stroke-width:1.0;" x1="93.5" x2="93.5" y1="314.2822" y2="334.2822"/><polygon fill="#181818" points="89.5,324.2822,93.5,334.2822,97.5,324.2822,93.5,328.2822" style="stroke:#181818;stroke-width:1.0;"/><!--SRC=[Aov9B2hXqhMBpqtCp0lEJDVBoi_CquWlCDJaGXSoqjIqvh9oBafDB4bLSChCIaqkoSpFKt3Bp2b9BKfDiIRE56D2fbWvfgGek5OK51KhXEIdfvPaf1O11ODIIqgByXI0SgaGMMkkufBy0W00]--></g></svg>