<?xml version="1.0" encoding="us-ascii" standalone="no"?><svg xmlns="http://www.w3.org/2000/svg" xmlns:xlink="http://www.w3.org/1999/xlink" contentStyleType="text/css" height="984px" preserveAspectRatio="none" style="width:531px;height:984px;background:#FFFFFF;" version="1.1" viewBox="0 0 531 984" width="531px" zoomAndPan="magnify"><defs/><g><ellipse cx="267.5" cy="20" fill="#222222" rx="10" ry="10" style="stroke:#222222;stroke-width:1.0;"/><rect fill="#F1F1F1" height="33.9688" rx="12.5" ry="12.5" style="stroke:#181818;stroke-width:0.5;" width="138" x="198.5" y="98.4023"/><text fill="#000000" font-family="sans-serif" font-size="12" lengthAdjust="spacing" textLength="118" x="208.5" y="119.541">Return Empty String</text><ellipse cx="267.5" cy="171.8867" fill="none" rx="11" ry="11" style="stroke:#222222;stroke-width:1.0;"/><ellipse cx="267.5" cy="171.8867" fill="#222222" rx="6" ry="6" style="stroke:#222222;stroke-width:1.0;"/><polygon fill="#F1F1F1" points="182.5,50,352.5,50,364.5,62,352.5,74,182.5,74,170.5,62,182.5,50" style="stroke:#181818;stroke-width:0.5;"/><text fill="#000000" font-family="sans-serif" font-size="11" lengthAdjust="spacing" textLength="21" x="271.5" y="84.2104">yes</text><text fill="#000000" font-family="sans-serif" font-size="11" font-style="italic" lengthAdjust="spacing" textLength="69" x="182.5" y="65.8081">ignoredExpr</text><text fill="#000000" font-family="sans-serif" font-size="11" lengthAdjust="spacing" textLength="97" x="255.5" y="65.8081">contains ExprCall</text><rect fill="#F1F1F1" height="33.9688" rx="12.5" ry="12.5" style="stroke:#181818;stroke-width:0.5;" width="148" x="193.5" y="224.8867"/><text fill="#000000" font-family="sans-serif" font-size="12" lengthAdjust="spacing" textLength="20" x="203.5" y="246.0254">Set</text><text fill="#000000" font-family="sans-serif" font-size="12" font-style="italic" lengthAdjust="spacing" textLength="55" x="227.5" y="246.0254">isRootSig</text><text fill="#000000" font-family="sans-serif" font-size="12" lengthAdjust="spacing" textLength="45" x="286.5" y="246.0254">to false</text><rect fill="#F1F1F1" height="47.9375" rx="12.5" ry="12.5" style="stroke:#181818;stroke-width:0.5;" width="179" x="178" y="278.8555"/><text fill="#000000" font-family="sans-serif" font-size="12" lengthAdjust="spacing" textLength="79" x="188" y="299.9941">Create String</text><text fill="#000000" font-family="sans-serif" font-size="12" font-style="italic" lengthAdjust="spacing" textLength="15" x="271" y="299.9941">op</text><text fill="#000000" font-family="sans-serif" font-size="12" lengthAdjust="spacing" textLength="57" x="290" y="299.9941">of ExprQt</text><text fill="#000000" font-family="sans-serif" font-size="12" lengthAdjust="spacing" textLength="60" x="188" y="313.9629">Operation</text><rect fill="#F1F1F1" height="33.9688" rx="12.5" ry="12.5" style="stroke:#181818;stroke-width:0.5;" width="153" x="191" y="346.793"/><text fill="#000000" font-family="sans-serif" font-size="12" lengthAdjust="spacing" textLength="20" x="201" y="367.9316">Set</text><text fill="#000000" font-family="sans-serif" font-size="12" font-style="italic" lengthAdjust="spacing" textLength="40" x="225" y="367.9316">names</text><text fill="#000000" font-family="sans-serif" font-size="12" lengthAdjust="spacing" textLength="65" x="269" y="367.9316">String to ""</text><rect fill="#F1F1F1" height="33.9688" rx="12.5" ry="12.5" style="stroke:#181818;stroke-width:0.5;" width="159" x="188" y="400.7617"/><text fill="#000000" font-family="sans-serif" font-size="12" lengthAdjust="spacing" textLength="20" x="198" y="421.9004">Set</text><text fill="#000000" font-family="sans-serif" font-size="12" font-style="italic" lengthAdjust="spacing" textLength="46" x="222" y="421.9004">sigType</text><text fill="#000000" font-family="sans-serif" font-size="12" lengthAdjust="spacing" textLength="65" x="272" y="421.9004">String to ""</text><rect fill="#F1F1F1" height="33.9688" rx="12.5" ry="12.5" style="stroke:#181818;stroke-width:0.5;" width="221" x="157" y="454.7305"/><text fill="#000000" font-family="sans-serif" font-size="12" lengthAdjust="spacing" textLength="79" x="167" y="475.8691">Create String</text><text fill="#000000" font-family="sans-serif" font-size="12" font-style="italic" lengthAdjust="spacing" textLength="22" x="250" y="475.8691">sub</text><text fill="#000000" font-family="sans-serif" font-size="12" lengthAdjust="spacing" textLength="92" x="276" y="475.8691">of ExprQt Body</text><rect fill="#F1F1F1" height="33.9688" rx="12.5" ry="12.5" style="stroke:#181818;stroke-width:0.5;" width="217" x="159" y="552.6992"/><text fill="#000000" font-family="sans-serif" font-size="12" lengthAdjust="spacing" textLength="20" x="169" y="573.8379">Set</text><text fill="#000000" font-family="sans-serif" font-size="12" font-style="italic" lengthAdjust="spacing" textLength="40" x="193" y="573.8379">names</text><text fill="#000000" font-family="sans-serif" font-size="12" lengthAdjust="spacing" textLength="129" x="237" y="573.8379">to Declaration Names</text><rect fill="#F1F1F1" height="33.9688" rx="12.5" ry="12.5" style="stroke:#181818;stroke-width:0.5;" width="258" x="138.5" y="606.668"/><text fill="#000000" font-family="sans-serif" font-size="12" lengthAdjust="spacing" textLength="238" x="148.5" y="627.8066">Create String of Declaration Expression</text><polygon fill="#F1F1F1" points="150,675.6367,385,675.6367,397,687.6367,385,699.6367,150,699.6367,138,687.6367,150,675.6367" style="stroke:#181818;stroke-width:0.5;"/><text fill="#000000" font-family="sans-serif" font-size="11" lengthAdjust="spacing" textLength="235" x="150" y="691.4448">Declaration Expression Contains a Space</text><text fill="#000000" font-family="sans-serif" font-size="11" lengthAdjust="spacing" textLength="21" x="117" y="685.0425">yes</text><text fill="#000000" font-family="sans-serif" font-size="11" lengthAdjust="spacing" textLength="14" x="397" y="685.0425">no</text><rect fill="#F1F1F1" height="47.9375" rx="12.5" ry="12.5" style="stroke:#181818;stroke-width:0.5;" width="180" x="38" y="709.6367"/><text fill="#000000" font-family="sans-serif" font-size="12" lengthAdjust="spacing" textLength="20" x="48" y="730.7754">Set</text><text fill="#000000" font-family="sans-serif" font-size="12" font-style="italic" lengthAdjust="spacing" textLength="46" x="72" y="730.7754">sigType</text><text fill="#000000" font-family="sans-serif" font-size="12" lengthAdjust="spacing" textLength="86" x="122" y="730.7754">Decl Expr with</text><text fill="#000000" font-family="sans-serif" font-size="12" lengthAdjust="spacing" textLength="99" x="48" y="744.7441">Space Removed</text><rect fill="#F1F1F1" height="33.9688" rx="12.5" ry="12.5" style="stroke:#181818;stroke-width:0.5;" width="168" x="323" y="709.6367"/><text fill="#000000" font-family="sans-serif" font-size="12" lengthAdjust="spacing" textLength="20" x="333" y="730.7754">Set</text><text fill="#000000" font-family="sans-serif" font-size="12" font-style="italic" lengthAdjust="spacing" textLength="46" x="357" y="730.7754">sigType</text><text fill="#000000" font-family="sans-serif" font-size="12" lengthAdjust="spacing" textLength="74" x="407" y="730.7754">to Decl Expr</text><polygon fill="#F1F1F1" points="267.5,763.5742,279.5,775.5742,267.5,787.5742,255.5,775.5742,267.5,763.5742" style="stroke:#181818;stroke-width:0.5;"/><polygon fill="#F1F1F1" points="181,508.6992,354,508.6992,366,520.6992,354,532.6992,181,532.6992,169,520.6992,181,508.6992" style="stroke:#181818;stroke-width:0.5;"/><text fill="#000000" font-family="sans-serif" font-size="11" lengthAdjust="spacing" textLength="173" x="181" y="524.5073">For Each Declaration in ExprQt</text><rect fill="#F1F1F1" height="33.9688" rx="12.5" ry="12.5" style="stroke:#181818;stroke-width:0.5;" width="141" x="197" y="829.5742"/><text fill="#000000" font-family="sans-serif" font-size="12" lengthAdjust="spacing" textLength="121" x="207" y="850.7129">Create StringBuilder</text><rect fill="#F1F1F1" height="47.9375" rx="12.5" ry="12.5" style="stroke:#181818;stroke-width:0.5;" width="233" x="151" y="883.543"/><text fill="#000000" font-family="sans-serif" font-size="12" lengthAdjust="spacing" textLength="213" x="161" y="904.6816">Return StringBuilder appended with</text><text fill="#000000" font-family="sans-serif" font-size="12" font-style="italic" lengthAdjust="spacing" textLength="147" x="161" y="918.6504">op, names, sigType, sub</text><ellipse cx="267.5" cy="962.4805" fill="none" rx="11" ry="11" style="stroke:#222222;stroke-width:1.0;"/><ellipse cx="267.5" cy="962.4805" fill="#222222" rx="6" ry="6" style="stroke:#222222;stroke-width:1.0;"/><line style="stroke:#181818;stroke-width:1.0;" x1="267.5" x2="267.5" y1="132.3711" y2="160.8867"/><polygon fill="#181818" points="263.5,150.8867,267.5,160.8867,271.5,150.8867,267.5,154.8867" style="stroke:#181818;stroke-width:1.0;"/><line style="stroke:#181818;stroke-width:1.0;" x1="267.5" x2="267.5" y1="74" y2="98.4023"/><polygon fill="#181818" points="263.5,88.4023,267.5,98.4023,271.5,88.4023,267.5,92.4023" style="stroke:#181818;stroke-width:1.0;"/><line style="stroke:#181818;stroke-width:1.0;" x1="364.5" x2="376.5" y1="62" y2="62"/><polygon fill="#181818" points="372.5,130.8867,376.5,140.8867,380.5,130.8867,376.5,134.8867" style="stroke:#181818;stroke-width:1.0;"/><line style="stroke:#181818;stroke-width:1.0;" x1="376.5" x2="376.5" y1="62" y2="204.8867"/><line style="stroke:#181818;stroke-width:1.0;" x1="376.5" x2="267.5" y1="204.8867" y2="204.8867"/><line style="stroke:#181818;stroke-width:1.0;" x1="267.5" x2="267.5" y1="204.8867" y2="224.8867"/><polygon fill="#181818" points="263.5,214.8867,267.5,224.8867,271.5,214.8867,267.5,218.8867" style="stroke:#181818;stroke-width:1.0;"/><line style="stroke:#181818;stroke-width:1.0;" x1="267.5" x2="267.5" y1="30" y2="50"/><polygon fill="#181818" points="263.5,40,267.5,50,271.5,40,267.5,44" style="stroke:#181818;stroke-width:1.0;"/><line style="stroke:#181818;stroke-width:1.0;" x1="267.5" x2="267.5" y1="258.8555" y2="278.8555"/><polygon fill="#181818" points="263.5,268.8555,267.5,278.8555,271.5,268.8555,267.5,272.8555" style="stroke:#181818;stroke-width:1.0;"/><line style="stroke:#181818;stroke-width:1.0;" x1="267.5" x2="267.5" y1="326.793" y2="346.793"/><polygon fill="#181818" points="263.5,336.793,267.5,346.793,271.5,336.793,267.5,340.793" style="stroke:#181818;stroke-width:1.0;"/><line style="stroke:#181818;stroke-width:1.0;" x1="267.5" x2="267.5" y1="380.7617" y2="400.7617"/><polygon fill="#181818" points="263.5,390.7617,267.5,400.7617,271.5,390.7617,267.5,394.7617" style="stroke:#181818;stroke-width:1.0;"/><line style="stroke:#181818;stroke-width:1.0;" x1="267.5" x2="267.5" y1="434.7305" y2="454.7305"/><polygon fill="#181818" points="263.5,444.7305,267.5,454.7305,271.5,444.7305,267.5,448.7305" style="stroke:#181818;stroke-width:1.0;"/><line style="stroke:#181818;stroke-width:1.0;" x1="267.5" x2="267.5" y1="586.668" y2="606.668"/><polygon fill="#181818" points="263.5,596.668,267.5,606.668,271.5,596.668,267.5,600.668" style="stroke:#181818;stroke-width:1.0;"/><line style="stroke:#181818;stroke-width:1.0;" x1="138" x2="128" y1="687.6367" y2="687.6367"/><line style="stroke:#181818;stroke-width:1.0;" x1="128" x2="128" y1="687.6367" y2="709.6367"/><polygon fill="#181818" points="124,699.6367,128,709.6367,132,699.6367,128,703.6367" style="stroke:#181818;stroke-width:1.0;"/><line style="stroke:#181818;stroke-width:1.0;" x1="397" x2="407" y1="687.6367" y2="687.6367"/><line style="stroke:#181818;stroke-width:1.0;" x1="407" x2="407" y1="687.6367" y2="709.6367"/><polygon fill="#181818" points="403,699.6367,407,709.6367,411,699.6367,407,703.6367" style="stroke:#181818;stroke-width:1.0;"/><line style="stroke:#181818;stroke-width:1.0;" x1="128" x2="128" y1="757.5742" y2="775.5742"/><line style="stroke:#181818;stroke-width:1.0;" x1="128" x2="255.5" y1="775.5742" y2="775.5742"/><polygon fill="#181818" points="245.5,771.5742,255.5,775.5742,245.5,779.5742,249.5,775.5742" style="stroke:#181818;stroke-width:1.0;"/><line style="stroke:#181818;stroke-width:1.0;" x1="407" x2="407" y1="743.6055" y2="775.5742"/><line style="stroke:#181818;stroke-width:1.0;" x1="407" x2="279.5" y1="775.5742" y2="775.5742"/><polygon fill="#181818" points="289.5,771.5742,279.5,775.5742,289.5,779.5742,285.5,775.5742" style="stroke:#181818;stroke-width:1.0;"/><line style="stroke:#181818;stroke-width:1.0;" x1="267.5" x2="267.5" y1="640.6367" y2="675.6367"/><polygon fill="#181818" points="263.5,665.6367,267.5,675.6367,271.5,665.6367,267.5,669.6367" style="stroke:#181818;stroke-width:1.0;"/><line style="stroke:#181818;stroke-width:1.0;" x1="267.5" x2="267.5" y1="532.6992" y2="552.6992"/><polygon fill="#181818" points="263.5,542.6992,267.5,552.6992,271.5,542.6992,267.5,546.6992" style="stroke:#181818;stroke-width:1.0;"/><line style="stroke:#181818;stroke-width:1.0;" x1="267.5" x2="267.5" y1="787.5742" y2="797.5742"/><line style="stroke:#181818;stroke-width:1.0;" x1="267.5" x2="505" y1="797.5742" y2="797.5742"/><polygon fill="#181818" points="501,660.6367,505,650.6367,509,660.6367,505,656.6367" style="stroke:#181818;stroke-width:1.0;"/><line style="stroke:#181818;stroke-width:1.0;" x1="505" x2="505" y1="520.6992" y2="797.5742"/><line style="stroke:#181818;stroke-width:1.0;" x1="505" x2="366" y1="520.6992" y2="520.6992"/><polygon fill="#181818" points="376,516.6992,366,520.6992,376,524.6992,372,520.6992" style="stroke:#181818;stroke-width:1.0;"/><line style="stroke:#181818;stroke-width:1.0;" x1="169" x2="24" y1="520.6992" y2="520.6992"/><polygon fill="#181818" points="20,646.6367,24,656.6367,28,646.6367,24,650.6367" style="stroke:#181818;stroke-width:1.0;"/><line style="stroke:#181818;stroke-width:1.0;" x1="24" x2="24" y1="520.6992" y2="809.5742"/><line style="stroke:#181818;stroke-width:1.0;" x1="24" x2="267.5" y1="809.5742" y2="809.5742"/><line style="stroke:#181818;stroke-width:1.0;" x1="267.5" x2="267.5" y1="809.5742" y2="829.5742"/><polygon fill="#181818" points="263.5,819.5742,267.5,829.5742,271.5,819.5742,267.5,823.5742" style="stroke:#181818;stroke-width:1.0;"/><line style="stroke:#181818;stroke-width:1.0;" x1="267.5" x2="267.5" y1="488.6992" y2="508.6992"/><polygon fill="#181818" points="263.5,498.6992,267.5,508.6992,271.5,498.6992,267.5,502.6992" style="stroke:#181818;stroke-width:1.0;"/><line style="stroke:#181818;stroke-width:1.0;" x1="267.5" x2="267.5" y1="863.543" y2="883.543"/><polygon fill="#181818" points="263.5,873.543,267.5,883.543,271.5,873.543,267.5,877.543" style="stroke:#181818;stroke-width:1.0;"/><line style="stroke:#181818;stroke-width:1.0;" x1="267.5" x2="267.5" y1="931.4805" y2="951.4805"/><polygon fill="#181818" points="263.5,941.4805,267.5,951.4805,271.5,941.4805,267.5,945.4805" style="stroke:#181818;stroke-width:1.0;"/><!--SRC=[RLBDReCm3BxdAQoUGAh47MvbtN7LobuW0mEHQ1mbxZhUVYPDfvRs4YNnznD_Jc3jMPa-AmepMFBOxN-TBmfeoR8sDi1ohlKqvS0ZMiXc3BagZyXdRs5_SZn3mzxOeLA1oIcqdUbLsI23Q8OZ4JTc44KcwFKKi59bxL4p9fx0o4cT-kZroUhWq6isPAkRZjKd3899397QRFwBmGnViyFdyjecdB_lVM17tLofosWcpDx9mrwt8xnXE-chFHYReFdw8M9n3_nOhfySnUaUj4XX2B4lIVnr2UfRy1eQfrjyp7tTyI8IsN0nF8AA53ZYYNwmgnHAtf1PUi5C7KHobQOcQqnZrSZkRAOE1NKR-yCrQEU4Y5rwmZBEBSIWjf3yPBDaV_qYVm00]--></g></svg>