<?xml version="1.0" encoding="us-ascii" standalone="no"?><svg xmlns="http://www.w3.org/2000/svg" xmlns:xlink="http://www.w3.org/1999/xlink" contentStyleType="text/css" height="254px" preserveAspectRatio="none" style="width:375px;height:254px;background:#FFFFFF;" version="1.1" viewBox="0 0 375 254" width="375px" zoomAndPan="magnify"><defs/><g><ellipse cx="186" cy="20" fill="#222222" rx="10" ry="10" style="stroke:#222222;stroke-width:1.0;"/><rect fill="#F1F1F1" height="33.9688" rx="12.5" ry="12.5" style="stroke:#181818;stroke-width:0.5;" width="148" x="112" y="50"/><text fill="#000000" font-family="sans-serif" font-size="12" lengthAdjust="spacing" textLength="20" x="122" y="71.1387">Set</text><text fill="#000000" font-family="sans-serif" font-size="12" font-style="italic" lengthAdjust="spacing" textLength="55" x="146" y="71.1387">isRootSig</text><text fill="#000000" font-family="sans-serif" font-size="12" lengthAdjust="spacing" textLength="45" x="205" y="71.1387">to false</text><polygon fill="#F1F1F1" points="102,103.9688,270,103.9688,282,115.9688,270,127.9688,102,127.9688,90,115.9688,102,103.9688" style="stroke:#181818;stroke-width:0.5;"/><text fill="#000000" font-family="sans-serif" font-size="11" font-style="italic" lengthAdjust="spacing" textLength="69" x="102" y="119.7769">ignoredExpr</text><text fill="#000000" font-family="sans-serif" font-size="11" lengthAdjust="spacing" textLength="95" x="175" y="119.7769">contains ExprVar</text><text fill="#000000" font-family="sans-serif" font-size="11" lengthAdjust="spacing" textLength="21" x="69" y="113.3745">yes</text><text fill="#000000" font-family="sans-serif" font-size="11" lengthAdjust="spacing" textLength="14" x="282" y="113.3745">no</text><rect fill="#F1F1F1" height="33.9688" rx="12.5" ry="12.5" style="stroke:#181818;stroke-width:0.5;" width="138" x="11" y="137.9688"/><text fill="#000000" font-family="sans-serif" font-size="12" lengthAdjust="spacing" textLength="118" x="21" y="159.1074">Return Empty String</text><rect fill="#F1F1F1" height="33.9688" rx="12.5" ry="12.5" style="stroke:#181818;stroke-width:0.5;" width="145" x="219.5" y="137.9688"/><text fill="#000000" font-family="sans-serif" font-size="12" lengthAdjust="spacing" textLength="125" x="229.5" y="159.1074">Return ExprVar Label</text><polygon fill="#F1F1F1" points="186,177.9375,198,189.9375,186,201.9375,174,189.9375,186,177.9375" style="stroke:#181818;stroke-width:0.5;"/><ellipse cx="186" cy="232.9375" fill="none" rx="11" ry="11" style="stroke:#222222;stroke-width:1.0;"/><ellipse cx="186" cy="232.9375" fill="#222222" rx="6" ry="6" style="stroke:#222222;stroke-width:1.0;"/><line style="stroke:#181818;stroke-width:1.0;" x1="186" x2="186" y1="30" y2="50"/><polygon fill="#181818" points="182,40,186,50,190,40,186,44" style="stroke:#181818;stroke-width:1.0;"/><line style="stroke:#181818;stroke-width:1.0;" x1="90" x2="80" y1="115.9688" y2="115.9688"/><line style="stroke:#181818;stroke-width:1.0;" x1="80" x2="80" y1="115.9688" y2="137.9688"/><polygon fill="#181818" points="76,127.9688,80,137.9688,84,127.9688,80,131.9688" style="stroke:#181818;stroke-width:1.0;"/><line style="stroke:#181818;stroke-width:1.0;" x1="282" x2="292" y1="115.9688" y2="115.9688"/><line style="stroke:#181818;stroke-width:1.0;" x1="292" x2="292" y1="115.9688" y2="137.9688"/><polygon fill="#181818" points="288,127.9688,292,137.9688,296,127.9688,292,131.9688" style="stroke:#181818;stroke-width:1.0;"/><line style="stroke:#181818;stroke-width:1.0;" x1="80" x2="80" y1="171.9375" y2="189.9375"/><line style="stroke:#181818;stroke-width:1.0;" x1="80" x2="174" y1="189.9375" y2="189.9375"/><polygon fill="#181818" points="164,185.9375,174,189.9375,164,193.9375,168,189.9375" style="stroke:#181818;stroke-width:1.0;"/><line style="stroke:#181818;stroke-width:1.0;" x1="292" x2="292" y1="171.9375" y2="189.9375"/><line style="stroke:#181818;stroke-width:1.0;" x1="292" x2="198" y1="189.9375" y2="189.9375"/><polygon fill="#181818" points="208,185.9375,198,189.9375,208,193.9375,204,189.9375" style="stroke:#181818;stroke-width:1.0;"/><line style="stroke:#181818;stroke-width:1.0;" x1="186" x2="186" y1="83.9688" y2="103.9688"/><polygon fill="#181818" points="182,93.9688,186,103.9688,190,93.9688,186,97.9688" style="stroke:#181818;stroke-width:1.0;"/><line style="stroke:#181818;stroke-width:1.0;" x1="186" x2="186" y1="201.9375" y2="221.9375"/><polygon fill="#181818" points="182,211.9375,186,221.9375,190,211.9375,186,215.9375" style="stroke:#181818;stroke-width:1.0;"/><!--SRC=[JSon3i8m34NHFL_XCPsojtCtfaPY3zG9beeTsKQYVqyG2-FJqRlcHJtC6HrI8jj4F5DB2LoWbiDm2LJZeCQYkA_lhWFlmbw83RxxMdG2Vo13FD6cC6_eBsLOdzrFoAx4RGauMf7bZtzNk9GR7iDvfnhCfNy0]--></g></svg>