<?xml version="1.0" encoding="us-ascii" standalone="no"?><svg xmlns="http://www.w3.org/2000/svg" xmlns:xlink="http://www.w3.org/1999/xlink" contentStyleType="text/css" height="1089px" preserveAspectRatio="none" style="width:300px;height:1089px;background:#FFFFFF;" version="1.1" viewBox="0 0 300 1089" width="300px" zoomAndPan="magnify"><defs/><g><ellipse cx="136.5" cy="20" fill="#222222" rx="10" ry="10" style="stroke:#222222;stroke-width:1.0;"/><rect fill="#F1F1F1" height="33.9688" rx="12.5" ry="12.5" style="stroke:#181818;stroke-width:0.5;" width="72" x="100.5" y="98.4023"/><text fill="#000000" font-family="sans-serif" font-size="12" lengthAdjust="spacing" textLength="52" x="110.5" y="119.541">Return ""</text><ellipse cx="136.5" cy="171.8867" fill="none" rx="11" ry="11" style="stroke:#222222;stroke-width:1.0;"/><ellipse cx="136.5" cy="171.8867" fill="#222222" rx="6" ry="6" style="stroke:#222222;stroke-width:1.0;"/><polygon fill="#F1F1F1" points="44,50,229,50,241,62,229,74,44,74,32,62,44,50" style="stroke:#181818;stroke-width:0.5;"/><text fill="#000000" font-family="sans-serif" font-size="11" lengthAdjust="spacing" textLength="21" x="140.5" y="84.2104">yes</text><text fill="#000000" font-family="sans-serif" font-size="11" font-style="italic" lengthAdjust="spacing" textLength="69" x="44" y="65.8081">ignoredExpr</text><text fill="#000000" font-family="sans-serif" font-size="11" lengthAdjust="spacing" textLength="112" x="117" y="65.8081">contains ExprBinary</text><rect fill="#F1F1F1" height="33.9688" rx="12.5" ry="12.5" style="stroke:#181818;stroke-width:0.5;" width="149" x="62" y="224.8867"/><text fill="#000000" font-family="sans-serif" font-size="12" lengthAdjust="spacing" textLength="129" x="72" y="246.0254">Set isRootSig to false</text><rect fill="#F1F1F1" height="33.9688" rx="12.5" ry="12.5" style="stroke:#181818;stroke-width:0.5;" width="141" x="66" y="278.8555"/><text fill="#000000" font-family="sans-serif" font-size="12" lengthAdjust="spacing" textLength="121" x="76" y="299.9941">Create StringBuilder</text><rect fill="#F1F1F1" height="33.9688" rx="12.5" ry="12.5" style="stroke:#181818;stroke-width:0.5;" width="182" x="45.5" y="381.2266"/><text fill="#000000" font-family="sans-serif" font-size="12" lengthAdjust="spacing" textLength="162" x="55.5" y="402.3652">Get Left Side of ExprBinary</text><rect fill="#F1F1F1" height="33.9688" rx="12.5" ry="12.5" style="stroke:#181818;stroke-width:0.5;" width="189" x="42" y="435.1953"/><text fill="#000000" font-family="sans-serif" font-size="12" lengthAdjust="spacing" textLength="169" x="52" y="456.334">Get Right Side of ExprBinary</text><rect fill="#F1F1F1" height="33.9688" rx="12.5" ry="12.5" style="stroke:#181818;stroke-width:0.5;" width="122" x="75.5" y="534.7734"/><text fill="#000000" font-family="sans-serif" font-size="12" lengthAdjust="spacing" textLength="102" x="85.5" y="555.9121">Return Right Side</text><ellipse cx="136.5" cy="607.8555" fill="none" rx="11" ry="11" style="stroke:#222222;stroke-width:1.0;"/><ellipse cx="136.5" cy="607.8555" fill="#222222" rx="6" ry="6" style="stroke:#222222;stroke-width:1.0;"/><polygon fill="#F1F1F1" points="32.5,489.1641,240.5,489.1641,252.5,501.9688,240.5,514.7734,32.5,514.7734,20.5,501.9688,32.5,489.1641" style="stroke:#181818;stroke-width:0.5;"/><text fill="#000000" font-family="sans-serif" font-size="11" lengthAdjust="spacing" textLength="121" x="32.5" y="499.3745">Left Side is "this" &amp;&amp;</text><text fill="#000000" font-family="sans-serif" font-size="11" lengthAdjust="spacing" textLength="208" x="32.5" y="512.1792">Right Side is an Instance of Sig.Field</text><rect fill="#F1F1F1" height="47.9375" rx="12.5" ry="12.5" style="stroke:#181818;stroke-width:0.5;" width="205" x="34" y="660.8555"/><text fill="#000000" font-family="sans-serif" font-size="12" lengthAdjust="spacing" textLength="185" x="44" y="681.9941">Return Left Side and Right Side</text><text fill="#000000" font-family="sans-serif" font-size="12" lengthAdjust="spacing" textLength="160" x="44" y="695.9629">Appended to StringBuilder</text><ellipse cx="136.5" cy="739.793" fill="none" rx="11" ry="11" style="stroke:#222222;stroke-width:1.0;"/><ellipse cx="136.5" cy="739.793" fill="#222222" rx="6" ry="6" style="stroke:#222222;stroke-width:1.0;"/><polygon fill="#F1F1F1" points="57.5,332.8242,215.5,332.8242,227.5,344.8242,215.5,356.8242,57.5,356.8242,45.5,344.8242,57.5,332.8242" style="stroke:#181818;stroke-width:0.5;"/><text fill="#000000" font-family="sans-serif" font-size="11" lengthAdjust="spacing" textLength="21" x="140.5" y="367.0347">yes</text><text fill="#000000" font-family="sans-serif" font-size="11" lengthAdjust="spacing" textLength="158" x="57.5" y="348.6323">ExprBinary Operation is Join</text><rect fill="#F1F1F1" height="33.9688" rx="12.5" ry="12.5" style="stroke:#181818;stroke-width:0.5;" width="228" x="22.5" y="792.793"/><text fill="#000000" font-family="sans-serif" font-size="12" lengthAdjust="spacing" textLength="208" x="32.5" y="813.9316">Get ExprBinary Operation to String</text><rect fill="#F1F1F1" height="33.9688" rx="12.5" ry="12.5" style="stroke:#181818;stroke-width:0.5;" width="206" x="33.5" y="890.7617"/><text fill="#000000" font-family="sans-serif" font-size="12" lengthAdjust="spacing" textLength="186" x="43.5" y="911.9004">Set Operation String to "not in"</text><polygon fill="#F1F1F1" points="46.5,846.7617,226.5,846.7617,238.5,858.7617,226.5,870.7617,46.5,870.7617,34.5,858.7617,46.5,846.7617" style="stroke:#181818;stroke-width:0.5;"/><text fill="#000000" font-family="sans-serif" font-size="11" lengthAdjust="spacing" textLength="180" x="46.5" y="862.5698">ExprBinary Operation is "not in"</text><polygon fill="#F1F1F1" points="136.5,944.7305,148.5,956.7305,136.5,968.7305,124.5,956.7305,136.5,944.7305" style="stroke:#181818;stroke-width:0.5;"/><rect fill="#F1F1F1" height="47.9375" rx="12.5" ry="12.5" style="stroke:#181818;stroke-width:0.5;" width="251" x="11" y="988.7305"/><text fill="#000000" font-family="sans-serif" font-size="12" lengthAdjust="spacing" textLength="231" x="21" y="1009.8691">Return Left Side, Operation, Right Side</text><text fill="#000000" font-family="sans-serif" font-size="12" lengthAdjust="spacing" textLength="160" x="21" y="1023.8379">Appended to StringBuilder</text><ellipse cx="136.5" cy="1067.668" fill="none" rx="11" ry="11" style="stroke:#222222;stroke-width:1.0;"/><ellipse cx="136.5" cy="1067.668" fill="#222222" rx="6" ry="6" style="stroke:#222222;stroke-width:1.0;"/><line style="stroke:#181818;stroke-width:1.0;" x1="136.5" x2="136.5" y1="132.3711" y2="160.8867"/><polygon fill="#181818" points="132.5,150.8867,136.5,160.8867,140.5,150.8867,136.5,154.8867" style="stroke:#181818;stroke-width:1.0;"/><line style="stroke:#181818;stroke-width:1.0;" x1="136.5" x2="136.5" y1="74" y2="98.4023"/><polygon fill="#181818" points="132.5,88.4023,136.5,98.4023,140.5,88.4023,136.5,92.4023" style="stroke:#181818;stroke-width:1.0;"/><line style="stroke:#181818;stroke-width:1.0;" x1="241" x2="253" y1="62" y2="62"/><polygon fill="#181818" points="249,130.8867,253,140.8867,257,130.8867,253,134.8867" style="stroke:#181818;stroke-width:1.0;"/><line style="stroke:#181818;stroke-width:1.0;" x1="253" x2="253" y1="62" y2="204.8867"/><line style="stroke:#181818;stroke-width:1.0;" x1="253" x2="136.5" y1="204.8867" y2="204.8867"/><line style="stroke:#181818;stroke-width:1.0;" x1="136.5" x2="136.5" y1="204.8867" y2="224.8867"/><polygon fill="#181818" points="132.5,214.8867,136.5,224.8867,140.5,214.8867,136.5,218.8867" style="stroke:#181818;stroke-width:1.0;"/><line style="stroke:#181818;stroke-width:1.0;" x1="136.5" x2="136.5" y1="30" y2="50"/><polygon fill="#181818" points="132.5,40,136.5,50,140.5,40,136.5,44" style="stroke:#181818;stroke-width:1.0;"/><line style="stroke:#181818;stroke-width:1.0;" x1="136.5" x2="136.5" y1="258.8555" y2="278.8555"/><polygon fill="#181818" points="132.5,268.8555,136.5,278.8555,140.5,268.8555,136.5,272.8555" style="stroke:#181818;stroke-width:1.0;"/><line style="stroke:#181818;stroke-width:1.0;" x1="136.5" x2="136.5" y1="415.1953" y2="435.1953"/><polygon fill="#181818" points="132.5,425.1953,136.5,435.1953,140.5,425.1953,136.5,429.1953" style="stroke:#181818;stroke-width:1.0;"/><line style="stroke:#181818;stroke-width:1.0;" x1="136.5" x2="136.5" y1="568.7422" y2="596.8555"/><polygon fill="#181818" points="132.5,586.8555,136.5,596.8555,140.5,586.8555,136.5,590.8555" style="stroke:#181818;stroke-width:1.0;"/><line style="stroke:#181818;stroke-width:1.0;" x1="136.5" x2="136.5" y1="514.7734" y2="534.7734"/><polygon fill="#181818" points="132.5,524.7734,136.5,534.7734,140.5,524.7734,136.5,528.7734" style="stroke:#181818;stroke-width:1.0;"/><line style="stroke:#181818;stroke-width:1.0;" x1="252.5" x2="264.5" y1="501.9688" y2="501.9688"/><polygon fill="#181818" points="260.5,566.8555,264.5,576.8555,268.5,566.8555,264.5,570.8555" style="stroke:#181818;stroke-width:1.0;"/><line style="stroke:#181818;stroke-width:1.0;" x1="264.5" x2="264.5" y1="501.9688" y2="640.8555"/><line style="stroke:#181818;stroke-width:1.0;" x1="264.5" x2="136.5" y1="640.8555" y2="640.8555"/><line style="stroke:#181818;stroke-width:1.0;" x1="136.5" x2="136.5" y1="640.8555" y2="660.8555"/><polygon fill="#181818" points="132.5,650.8555,136.5,660.8555,140.5,650.8555,136.5,654.8555" style="stroke:#181818;stroke-width:1.0;"/><line style="stroke:#181818;stroke-width:1.0;" x1="136.5" x2="136.5" y1="469.1641" y2="489.1641"/><polygon fill="#181818" points="132.5,479.1641,136.5,489.1641,140.5,479.1641,136.5,483.1641" style="stroke:#181818;stroke-width:1.0;"/><line style="stroke:#181818;stroke-width:1.0;" x1="136.5" x2="136.5" y1="708.793" y2="728.793"/><polygon fill="#181818" points="132.5,718.793,136.5,728.793,140.5,718.793,136.5,722.793" style="stroke:#181818;stroke-width:1.0;"/><line style="stroke:#181818;stroke-width:1.0;" x1="136.5" x2="136.5" y1="356.8242" y2="381.2266"/><polygon fill="#181818" points="132.5,371.2266,136.5,381.2266,140.5,371.2266,136.5,375.2266" style="stroke:#181818;stroke-width:1.0;"/><line style="stroke:#181818;stroke-width:1.0;" x1="227.5" x2="274.5" y1="344.8242" y2="344.8242"/><polygon fill="#181818" points="270.5,558.4531,274.5,568.4531,278.5,558.4531,274.5,562.4531" style="stroke:#181818;stroke-width:1.0;"/><line style="stroke:#181818;stroke-width:1.0;" x1="274.5" x2="274.5" y1="344.8242" y2="772.793"/><line style="stroke:#181818;stroke-width:1.0;" x1="274.5" x2="136.5" y1="772.793" y2="772.793"/><line style="stroke:#181818;stroke-width:1.0;" x1="136.5" x2="136.5" y1="772.793" y2="792.793"/><polygon fill="#181818" points="132.5,782.793,136.5,792.793,140.5,782.793,136.5,786.793" style="stroke:#181818;stroke-width:1.0;"/><line style="stroke:#181818;stroke-width:1.0;" x1="136.5" x2="136.5" y1="312.8242" y2="332.8242"/><polygon fill="#181818" points="132.5,322.8242,136.5,332.8242,140.5,322.8242,136.5,326.8242" style="stroke:#181818;stroke-width:1.0;"/><line style="stroke:#181818;stroke-width:1.0;" x1="136.5" x2="136.5" y1="870.7617" y2="890.7617"/><polygon fill="#181818" points="132.5,880.7617,136.5,890.7617,140.5,880.7617,136.5,884.7617" style="stroke:#181818;stroke-width:1.0;"/><line style="stroke:#181818;stroke-width:1.0;" x1="238.5" x2="250.5" y1="858.7617" y2="858.7617"/><polygon fill="#181818" points="246.5,897.7461,250.5,907.7461,254.5,897.7461,250.5,901.7461" style="stroke:#181818;stroke-width:1.0;"/><line style="stroke:#181818;stroke-width:1.0;" x1="250.5" x2="250.5" y1="858.7617" y2="956.7305"/><line style="stroke:#181818;stroke-width:1.0;" x1="250.5" x2="148.5" y1="956.7305" y2="956.7305"/><polygon fill="#181818" points="158.5,952.7305,148.5,956.7305,158.5,960.7305,154.5,956.7305" style="stroke:#181818;stroke-width:1.0;"/><line style="stroke:#181818;stroke-width:1.0;" x1="136.5" x2="136.5" y1="924.7305" y2="944.7305"/><polygon fill="#181818" points="132.5,934.7305,136.5,944.7305,140.5,934.7305,136.5,938.7305" style="stroke:#181818;stroke-width:1.0;"/><line style="stroke:#181818;stroke-width:1.0;" x1="136.5" x2="136.5" y1="826.7617" y2="846.7617"/><polygon fill="#181818" points="132.5,836.7617,136.5,846.7617,140.5,836.7617,136.5,840.7617" style="stroke:#181818;stroke-width:1.0;"/><line style="stroke:#181818;stroke-width:1.0;" x1="136.5" x2="136.5" y1="968.7305" y2="988.7305"/><polygon fill="#181818" points="132.5,978.7305,136.5,988.7305,140.5,978.7305,136.5,982.7305" style="stroke:#181818;stroke-width:1.0;"/><line style="stroke:#181818;stroke-width:1.0;" x1="136.5" x2="136.5" y1="1036.668" y2="1056.668"/><polygon fill="#181818" points="132.5,1046.668,136.5,1056.668,140.5,1046.668,136.5,1050.668" style="stroke:#181818;stroke-width:1.0;"/><!--SRC=[bL5DIyGm4BtdLmmvB2qizjwUN55H1A7z1M4pQGVA92IpuFvxKwkcAwlWCPdtCUzD4XD5aQkQXaRs4UtzMuXD0qVFOeWJBEy3iOdd6cH2XkgCgLPjZtAA35ftAeaF2jcIK-s00fHwxsMW4SI3CtF2JhLt4OqW31A9nyE9PeknMvoB0Rm6Z4R8SvQ0PqzyQVcOjL_G2Gna4RpRxDQjqvx6wVgO75I5c-MrJ9Gqx7PgGyh_Xk69anW-VcZa53SFXBCjaGl-ClhdkBWOjXkmkWqX8z4khVoeOIkpvBZQoJVjpzeq-tm1rlLwYp9RkOlA5wJxRVDzeUt_aU0T]--></g></svg>