<?xml version="1.0" encoding="us-ascii" standalone="no"?><svg xmlns="http://www.w3.org/2000/svg" xmlns:xlink="http://www.w3.org/1999/xlink" contentStyleType="text/css" height="254px" preserveAspectRatio="none" style="width:342px;height:254px;background:#FFFFFF;" version="1.1" viewBox="0 0 342 254" width="342px" zoomAndPan="magnify"><defs/><g><ellipse cx="153" cy="20" fill="#222222" rx="10" ry="10" style="stroke:#222222;stroke-width:1.0;"/><rect fill="#F1F1F1" height="33.9688" rx="12.5" ry="12.5" style="stroke:#181818;stroke-width:0.5;" width="148" x="79" y="50"/><text fill="#000000" font-family="sans-serif" font-size="12" lengthAdjust="spacing" textLength="20" x="89" y="71.1387">Set</text><text fill="#000000" font-family="sans-serif" font-size="12" font-style="italic" lengthAdjust="spacing" textLength="55" x="113" y="71.1387">isRootSig</text><text fill="#000000" font-family="sans-serif" font-size="12" lengthAdjust="spacing" textLength="45" x="172" y="71.1387">to false</text><polygon fill="#F1F1F1" points="69,103.9688,237,103.9688,249,115.9688,237,127.9688,69,127.9688,57,115.9688,69,103.9688" style="stroke:#181818;stroke-width:0.5;"/><text fill="#000000" font-family="sans-serif" font-size="11" font-style="italic" lengthAdjust="spacing" textLength="69" x="69" y="119.7769">ignoredExpr</text><text fill="#000000" font-family="sans-serif" font-size="11" lengthAdjust="spacing" textLength="95" x="142" y="119.7769">contains ExprVar</text><text fill="#000000" font-family="sans-serif" font-size="11" lengthAdjust="spacing" textLength="21" x="36" y="113.3745">yes</text><text fill="#000000" font-family="sans-serif" font-size="11" lengthAdjust="spacing" textLength="14" x="249" y="113.3745">no</text><rect fill="#F1F1F1" height="33.9688" rx="12.5" ry="12.5" style="stroke:#181818;stroke-width:0.5;" width="72" x="11" y="137.9688"/><text fill="#000000" font-family="sans-serif" font-size="12" lengthAdjust="spacing" textLength="52" x="21" y="159.1074">Return ""</text><rect fill="#F1F1F1" height="33.9688" rx="12.5" ry="12.5" style="stroke:#181818;stroke-width:0.5;" width="145" x="186.5" y="137.9688"/><text fill="#000000" font-family="sans-serif" font-size="12" lengthAdjust="spacing" textLength="125" x="196.5" y="159.1074">Return ExprVar Label</text><polygon fill="#F1F1F1" points="153,177.9375,165,189.9375,153,201.9375,141,189.9375,153,177.9375" style="stroke:#181818;stroke-width:0.5;"/><ellipse cx="153" cy="232.9375" fill="none" rx="11" ry="11" style="stroke:#222222;stroke-width:1.0;"/><ellipse cx="153" cy="232.9375" fill="#222222" rx="6" ry="6" style="stroke:#222222;stroke-width:1.0;"/><line style="stroke:#181818;stroke-width:1.0;" x1="153" x2="153" y1="30" y2="50"/><polygon fill="#181818" points="149,40,153,50,157,40,153,44" style="stroke:#181818;stroke-width:1.0;"/><line style="stroke:#181818;stroke-width:1.0;" x1="57" x2="47" y1="115.9688" y2="115.9688"/><line style="stroke:#181818;stroke-width:1.0;" x1="47" x2="47" y1="115.9688" y2="137.9688"/><polygon fill="#181818" points="43,127.9688,47,137.9688,51,127.9688,47,131.9688" style="stroke:#181818;stroke-width:1.0;"/><line style="stroke:#181818;stroke-width:1.0;" x1="249" x2="259" y1="115.9688" y2="115.9688"/><line style="stroke:#181818;stroke-width:1.0;" x1="259" x2="259" y1="115.9688" y2="137.9688"/><polygon fill="#181818" points="255,127.9688,259,137.9688,263,127.9688,259,131.9688" style="stroke:#181818;stroke-width:1.0;"/><line style="stroke:#181818;stroke-width:1.0;" x1="47" x2="47" y1="171.9375" y2="189.9375"/><line style="stroke:#181818;stroke-width:1.0;" x1="47" x2="141" y1="189.9375" y2="189.9375"/><polygon fill="#181818" points="131,185.9375,141,189.9375,131,193.9375,135,189.9375" style="stroke:#181818;stroke-width:1.0;"/><line style="stroke:#181818;stroke-width:1.0;" x1="259" x2="259" y1="171.9375" y2="189.9375"/><line style="stroke:#181818;stroke-width:1.0;" x1="259" x2="165" y1="189.9375" y2="189.9375"/><polygon fill="#181818" points="175,185.9375,165,189.9375,175,193.9375,171,189.9375" style="stroke:#181818;stroke-width:1.0;"/><line style="stroke:#181818;stroke-width:1.0;" x1="153" x2="153" y1="83.9688" y2="103.9688"/><polygon fill="#181818" points="149,93.9688,153,103.9688,157,93.9688,153,97.9688" style="stroke:#181818;stroke-width:1.0;"/><line style="stroke:#181818;stroke-width:1.0;" x1="153" x2="153" y1="201.9375" y2="221.9375"/><polygon fill="#181818" points="149,211.9375,153,221.9375,157,211.9375,153,215.9375" style="stroke:#181818;stroke-width:1.0;"/><!--SRC=[HSmn2uD030NW_Nv5S3gdstLswwJGFQqv6v14aXJgl-yL2exlVRpdWHPfM2YW5FPPDHRUIe5GgBWxZObhRhI96gtJvx26JvL05eTVlgFr42yIo2TvduQPucq2NJScQWzPz2h_0xZXW_Rcid9D7dfy0G00]--></g></svg>