<?xml version="1.0" encoding="us-ascii" standalone="no"?><svg xmlns="http://www.w3.org/2000/svg" xmlns:xlink="http://www.w3.org/1999/xlink" contentStyleType="text/css" height="1381px" preserveAspectRatio="none" style="width:545px;height:1381px;background:#FFFFFF;" version="1.1" viewBox="0 0 545 1381" width="545px" zoomAndPan="magnify"><defs/><g><ellipse cx="281.5" cy="20" fill="#222222" rx="10" ry="10" style="stroke:#222222;stroke-width:1.0;"/><rect fill="#F1F1F1" height="33.9688" rx="12.5" ry="12.5" style="stroke:#181818;stroke-width:0.5;" width="72" x="245.5" y="98.4023"/><text fill="#000000" font-family="sans-serif" font-size="12" lengthAdjust="spacing" textLength="52" x="255.5" y="119.541">Return ""</text><ellipse cx="281.5" cy="171.8867" fill="none" rx="11" ry="11" style="stroke:#222222;stroke-width:1.0;"/><ellipse cx="281.5" cy="171.8867" fill="#222222" rx="6" ry="6" style="stroke:#222222;stroke-width:1.0;"/><polygon fill="#F1F1F1" points="196.5,50,366.5,50,378.5,62,366.5,74,196.5,74,184.5,62,196.5,50" style="stroke:#181818;stroke-width:0.5;"/><text fill="#000000" font-family="sans-serif" font-size="11" lengthAdjust="spacing" textLength="21" x="285.5" y="84.2104">yes</text><text fill="#000000" font-family="sans-serif" font-size="11" font-style="italic" lengthAdjust="spacing" textLength="69" x="196.5" y="65.8081">ignoredExpr</text><text fill="#000000" font-family="sans-serif" font-size="11" lengthAdjust="spacing" textLength="97" x="269.5" y="65.8081">contains ExprCall</text><rect fill="#F1F1F1" height="33.9688" rx="12.5" ry="12.5" style="stroke:#181818;stroke-width:0.5;" width="148" x="207.5" y="224.8867"/><text fill="#000000" font-family="sans-serif" font-size="12" lengthAdjust="spacing" textLength="20" x="217.5" y="246.0254">Set</text><text fill="#000000" font-family="sans-serif" font-size="12" font-style="italic" lengthAdjust="spacing" textLength="55" x="241.5" y="246.0254">isRootSig</text><text fill="#000000" font-family="sans-serif" font-size="12" lengthAdjust="spacing" textLength="45" x="300.5" y="246.0254">to false</text><rect fill="#F1F1F1" height="33.9688" rx="12.5" ry="12.5" style="stroke:#181818;stroke-width:0.5;" width="178" x="192.5" y="328.8672"/><text fill="#000000" font-family="sans-serif" font-size="12" lengthAdjust="spacing" textLength="20" x="202.5" y="350.0059">Set</text><text fill="#000000" font-family="sans-serif" font-size="12" font-style="italic" lengthAdjust="spacing" textLength="85" x="226.5" y="350.0059">isRootExprList</text><text fill="#000000" font-family="sans-serif" font-size="12" lengthAdjust="spacing" textLength="45" x="315.5" y="350.0059">to false</text><rect fill="#F1F1F1" height="33.9688" rx="12.5" ry="12.5" style="stroke:#181818;stroke-width:0.5;" width="141" x="211" y="382.8359"/><text fill="#000000" font-family="sans-serif" font-size="12" lengthAdjust="spacing" textLength="121" x="221" y="403.9746">Create StringBuilder</text><polygon fill="#F1F1F1" points="184,480.8047,379,480.8047,391,492.8047,379,504.8047,184,504.8047,172,492.8047,184,480.8047" style="stroke:#181818;stroke-width:0.5;"/><text fill="#000000" font-family="sans-serif" font-size="11" font-style="italic" lengthAdjust="spacing" textLength="75" x="184" y="496.6128">ignoredExprs</text><text fill="#000000" font-family="sans-serif" font-size="11" lengthAdjust="spacing" textLength="116" x="263" y="496.6128">contains Current Arg</text><rect fill="#F1F1F1" height="33.9688" rx="12.5" ry="12.5" style="stroke:#181818;stroke-width:0.5;" width="184" x="189.5" y="573.8047"/><text fill="#000000" font-family="sans-serif" font-size="12" lengthAdjust="spacing" textLength="164" x="199.5" y="594.9434">Turn Current Arg into String</text><polygon fill="#F1F1F1" points="124,658.7734,227,658.7734,239,670.7734,227,682.7734,124,682.7734,112,670.7734,124,658.7734" style="stroke:#181818;stroke-width:0.5;"/><text fill="#000000" font-family="sans-serif" font-size="11" lengthAdjust="spacing" textLength="103" x="124" y="674.5815">Is Not Implicit Fact</text><rect fill="#F1F1F1" height="33.9688" rx="12.5" ry="12.5" style="stroke:#181818;stroke-width:0.5;" width="279" x="36" y="702.7734"/><text fill="#000000" font-family="sans-serif" font-size="12" lengthAdjust="spacing" textLength="259" x="46" y="723.9121">Append Fact with Fact Title to StringBuilder</text><polygon fill="#F1F1F1" points="366,658.7734,446,658.7734,458,670.7734,446,682.7734,366,682.7734,354,670.7734,366,658.7734" style="stroke:#181818;stroke-width:0.5;"/><text fill="#000000" font-family="sans-serif" font-size="11" lengthAdjust="spacing" textLength="80" x="366" y="674.5815">Is Implicit Fact</text><rect fill="#F1F1F1" height="33.9688" rx="12.5" ry="12.5" style="stroke:#181818;stroke-width:0.5;" width="142" x="335" y="702.7734"/><text fill="#000000" font-family="sans-serif" font-size="12" lengthAdjust="spacing" textLength="122" x="345" y="723.9121">Append Fact with '/t'</text><polygon fill="#F1F1F1" points="213.5,436.8047,349.5,436.8047,361.5,448.8047,349.5,460.8047,213.5,460.8047,201.5,448.8047,213.5,436.8047" style="stroke:#181818;stroke-width:0.5;"/><text fill="#000000" font-family="sans-serif" font-size="11" lengthAdjust="spacing" textLength="132" x="217.5" y="452.6128">For Each Arg is ExprList</text><rect fill="#F1F1F1" height="33.9688" rx="12.5" ry="12.5" style="stroke:#181818;stroke-width:0.5;" width="190" x="186.5" y="798.7422"/><text fill="#000000" font-family="sans-serif" font-size="12" lengthAdjust="spacing" textLength="170" x="196.5" y="819.8809">Return StringBuilder toString</text><ellipse cx="281.5" cy="863.7109" fill="none" rx="11" ry="11" style="stroke:#222222;stroke-width:1.0;"/><ellipse cx="281.5" cy="863.7109" fill="#222222" rx="6" ry="6" style="stroke:#222222;stroke-width:1.0;"/><polygon fill="#F1F1F1" points="235,278.8555,328,278.8555,340,291.6602,328,304.4648,235,304.4648,223,291.6602,235,278.8555" style="stroke:#181818;stroke-width:0.5;"/><text fill="#000000" font-family="sans-serif" font-size="11" lengthAdjust="spacing" textLength="21" x="285.5" y="314.6753">yes</text><text fill="#000000" font-family="sans-serif" font-size="11" lengthAdjust="spacing" textLength="93" x="235" y="289.0659">isRootExprList or</text><text fill="#000000" font-family="sans-serif" font-size="11" lengthAdjust="spacing" textLength="50" x="235" y="301.8706">isSigFact</text><rect fill="#F1F1F1" height="47.9375" rx="12.5" ry="12.5" style="stroke:#181818;stroke-width:0.5;" width="167" x="198" y="916.7109"/><text fill="#000000" font-family="sans-serif" font-size="12" lengthAdjust="spacing" textLength="147" x="208" y="937.8496">Create String Array from</text><text fill="#000000" font-family="sans-serif" font-size="12" lengthAdjust="spacing" textLength="109" x="208" y="951.8184">ExprList Args Size</text><rect fill="#F1F1F1" height="33.9688" rx="12.5" ry="12.5" style="stroke:#181818;stroke-width:0.5;" width="211" x="176" y="1028.6484"/><text fill="#000000" font-family="sans-serif" font-size="12" lengthAdjust="spacing" textLength="191" x="186" y="1049.7871">Add ExprList Arg to String Array</text><polygon fill="#F1F1F1" points="203.5,984.6484,359.5,984.6484,371.5,996.6484,359.5,1008.6484,203.5,1008.6484,191.5,996.6484,203.5,984.6484" style="stroke:#181818;stroke-width:0.5;"/><text fill="#000000" font-family="sans-serif" font-size="11" lengthAdjust="spacing" textLength="156" x="203.5" y="1000.4565">For Each Arg in String Array</text><rect fill="#F1F1F1" height="47.9375" rx="12.5" ry="12.5" style="stroke:#181818;stroke-width:0.5;" width="191" x="186" y="1104.6172"/><text fill="#000000" font-family="sans-serif" font-size="12" lengthAdjust="spacing" textLength="171" x="196" y="1125.7559">Create new StringBuilder for</text><text fill="#000000" font-family="sans-serif" font-size="12" lengthAdjust="spacing" textLength="67" x="196" y="1139.7246">Operations</text><rect fill="#F1F1F1" height="47.9375" rx="12.5" ry="12.5" style="stroke:#181818;stroke-width:0.5;" width="205" x="179" y="1172.5547"/><text fill="#000000" font-family="sans-serif" font-size="12" lengthAdjust="spacing" textLength="185" x="189" y="1193.6934">Append ExprList Operations to</text><text fill="#000000" font-family="sans-serif" font-size="12" lengthAdjust="spacing" textLength="77" x="189" y="1207.6621">StringBuilder</text><rect fill="#F1F1F1" height="33.9688" rx="12.5" ry="12.5" style="stroke:#181818;stroke-width:0.5;" width="263" x="150" y="1240.4922"/><text fill="#000000" font-family="sans-serif" font-size="12" lengthAdjust="spacing" textLength="243" x="160" y="1261.6309">Remove Empty Strings from String Array</text><rect fill="#F1F1F1" height="33.9688" rx="12.5" ry="12.5" style="stroke:#181818;stroke-width:0.5;" width="219" x="172" y="1294.4609"/><text fill="#000000" font-family="sans-serif" font-size="12" lengthAdjust="spacing" textLength="199" x="182" y="1315.5996">Return Operations Joined to Args</text><ellipse cx="281.5" cy="1359.4297" fill="none" rx="11" ry="11" style="stroke:#222222;stroke-width:1.0;"/><ellipse cx="281.5" cy="1359.4297" fill="#222222" rx="6" ry="6" style="stroke:#222222;stroke-width:1.0;"/><line style="stroke:#181818;stroke-width:1.0;" x1="281.5" x2="281.5" y1="132.3711" y2="160.8867"/><polygon fill="#181818" points="277.5,150.8867,281.5,160.8867,285.5,150.8867,281.5,154.8867" style="stroke:#181818;stroke-width:1.0;"/><line style="stroke:#181818;stroke-width:1.0;" x1="281.5" x2="281.5" y1="74" y2="98.4023"/><polygon fill="#181818" points="277.5,88.4023,281.5,98.4023,285.5,88.4023,281.5,92.4023" style="stroke:#181818;stroke-width:1.0;"/><line style="stroke:#181818;stroke-width:1.0;" x1="378.5" x2="390.5" y1="62" y2="62"/><polygon fill="#181818" points="386.5,130.8867,390.5,140.8867,394.5,130.8867,390.5,134.8867" style="stroke:#181818;stroke-width:1.0;"/><line style="stroke:#181818;stroke-width:1.0;" x1="390.5" x2="390.5" y1="62" y2="204.8867"/><line style="stroke:#181818;stroke-width:1.0;" x1="390.5" x2="281.5" y1="204.8867" y2="204.8867"/><line style="stroke:#181818;stroke-width:1.0;" x1="281.5" x2="281.5" y1="204.8867" y2="224.8867"/><polygon fill="#181818" points="277.5,214.8867,281.5,224.8867,285.5,214.8867,281.5,218.8867" style="stroke:#181818;stroke-width:1.0;"/><line style="stroke:#181818;stroke-width:1.0;" x1="281.5" x2="281.5" y1="30" y2="50"/><polygon fill="#181818" points="277.5,40,281.5,50,285.5,40,281.5,44" style="stroke:#181818;stroke-width:1.0;"/><line style="stroke:#181818;stroke-width:1.0;" x1="281.5" x2="281.5" y1="362.8359" y2="382.8359"/><polygon fill="#181818" points="277.5,372.8359,281.5,382.8359,285.5,372.8359,281.5,376.8359" style="stroke:#181818;stroke-width:1.0;"/><line style="stroke:#181818;stroke-width:1.0;" x1="281.5" x2="281.5" y1="504.8047" y2="527.8047"/><line style="stroke:#181818;stroke-width:1.0;" x1="281.5" x2="24" y1="527.8047" y2="527.8047"/><polygon fill="#181818" points="34,523.8047,24,527.8047,34,531.8047,30,527.8047" style="stroke:#181818;stroke-width:1.0;"/><line style="stroke:#181818;stroke-width:1.0;" x1="391" x2="403" y1="492.8047" y2="492.8047"/><polygon fill="#181818" points="399,514.8047,403,524.8047,407,514.8047,403,518.8047" style="stroke:#181818;stroke-width:1.0;"/><line style="stroke:#181818;stroke-width:1.0;" x1="403" x2="403" y1="492.8047" y2="553.8047"/><line style="stroke:#181818;stroke-width:1.0;" x1="403" x2="281.5" y1="553.8047" y2="553.8047"/><line style="stroke:#181818;stroke-width:1.0;" x1="281.5" x2="281.5" y1="553.8047" y2="573.8047"/><polygon fill="#181818" points="277.5,563.8047,281.5,573.8047,285.5,563.8047,281.5,567.8047" style="stroke:#181818;stroke-width:1.0;"/><line style="stroke:#181818;stroke-width:1.0;" x1="175.5" x2="175.5" y1="682.7734" y2="702.7734"/><polygon fill="#181818" points="171.5,692.7734,175.5,702.7734,179.5,692.7734,175.5,696.7734" style="stroke:#181818;stroke-width:1.0;"/><line style="stroke:#181818;stroke-width:1.0;" x1="175.5" x2="175.5" y1="736.7422" y2="756.7422"/><polygon fill="#181818" points="171.5,746.7422,175.5,756.7422,179.5,746.7422,175.5,750.7422" style="stroke:#181818;stroke-width:1.0;"/><line style="stroke:#181818;stroke-width:1.0;" x1="406" x2="406" y1="682.7734" y2="702.7734"/><polygon fill="#181818" points="402,692.7734,406,702.7734,410,692.7734,406,696.7734" style="stroke:#181818;stroke-width:1.0;"/><line style="stroke:#181818;stroke-width:1.0;" x1="406" x2="406" y1="736.7422" y2="756.7422"/><polygon fill="#181818" points="402,746.7422,406,756.7422,410,746.7422,406,750.7422" style="stroke:#181818;stroke-width:1.0;"/><line style="stroke:#181818;stroke-width:1.0;" x1="239" x2="354" y1="670.7734" y2="670.7734"/><polygon fill="#181818" points="344,666.7734,354,670.7734,344,674.7734,348,670.7734" style="stroke:#181818;stroke-width:1.0;"/><line style="stroke:#181818;stroke-width:1.0;" x1="281.5" x2="281.5" y1="607.7734" y2="642.7734"/><line style="stroke:#181818;stroke-width:1.0;" x1="281.5" x2="175.5" y1="642.7734" y2="642.7734"/><line style="stroke:#181818;stroke-width:1.0;" x1="175.5" x2="175.5" y1="642.7734" y2="658.7734"/><polygon fill="#181818" points="171.5,648.7734,175.5,658.7734,179.5,648.7734,175.5,652.7734" style="stroke:#181818;stroke-width:1.0;"/><line style="stroke:#181818;stroke-width:1.0;" x1="458" x2="491" y1="670.7734" y2="670.7734"/><line style="stroke:#181818;stroke-width:1.0;" x1="491" x2="491" y1="670.7734" y2="756.7422"/><polygon fill="#181818" points="487,746.7422,491,756.7422,495,746.7422,491,750.7422" style="stroke:#181818;stroke-width:1.0;"/><line style="stroke:#181818;stroke-width:1.0;" x1="175.5" x2="491" y1="756.7422" y2="756.7422"/><line style="stroke:#181818;stroke-width:1.0;" x1="281.5" x2="281.5" y1="460.8047" y2="480.8047"/><polygon fill="#181818" points="277.5,470.8047,281.5,480.8047,285.5,470.8047,281.5,474.8047" style="stroke:#181818;stroke-width:1.0;"/><line style="stroke:#181818;stroke-width:1.0;" x1="281.5" x2="281.5" y1="756.7422" y2="766.7422"/><line style="stroke:#181818;stroke-width:1.0;" x1="281.5" x2="509" y1="766.7422" y2="766.7422"/><polygon fill="#181818" points="505,638.7734,509,628.7734,513,638.7734,509,634.7734" style="stroke:#181818;stroke-width:1.0;"/><line style="stroke:#181818;stroke-width:1.0;" x1="509" x2="509" y1="448.8047" y2="766.7422"/><line style="stroke:#181818;stroke-width:1.0;" x1="509" x2="361.5" y1="448.8047" y2="448.8047"/><polygon fill="#181818" points="371.5,444.8047,361.5,448.8047,371.5,452.8047,367.5,448.8047" style="stroke:#181818;stroke-width:1.0;"/><line style="stroke:#181818;stroke-width:1.0;" x1="201.5" x2="24" y1="448.8047" y2="448.8047"/><polygon fill="#181818" points="20,624.7734,24,634.7734,28,624.7734,24,628.7734" style="stroke:#181818;stroke-width:1.0;"/><line style="stroke:#181818;stroke-width:1.0;" x1="24" x2="24" y1="448.8047" y2="778.7422"/><line style="stroke:#181818;stroke-width:1.0;" x1="24" x2="281.5" y1="778.7422" y2="778.7422"/><line style="stroke:#181818;stroke-width:1.0;" x1="281.5" x2="281.5" y1="778.7422" y2="798.7422"/><polygon fill="#181818" points="277.5,788.7422,281.5,798.7422,285.5,788.7422,281.5,792.7422" style="stroke:#181818;stroke-width:1.0;"/><line style="stroke:#181818;stroke-width:1.0;" x1="281.5" x2="281.5" y1="416.8047" y2="436.8047"/><polygon fill="#181818" points="277.5,426.8047,281.5,436.8047,285.5,426.8047,281.5,430.8047" style="stroke:#181818;stroke-width:1.0;"/><line style="stroke:#181818;stroke-width:1.0;" x1="281.5" x2="281.5" y1="832.7109" y2="852.7109"/><polygon fill="#181818" points="277.5,842.7109,281.5,852.7109,285.5,842.7109,281.5,846.7109" style="stroke:#181818;stroke-width:1.0;"/><line style="stroke:#181818;stroke-width:1.0;" x1="281.5" x2="281.5" y1="304.4648" y2="328.8672"/><polygon fill="#181818" points="277.5,318.8672,281.5,328.8672,285.5,318.8672,281.5,322.8672" style="stroke:#181818;stroke-width:1.0;"/><line style="stroke:#181818;stroke-width:1.0;" x1="340" x2="519" y1="291.6602" y2="291.6602"/><polygon fill="#181818" points="515,609.3867,519,619.3867,523,609.3867,519,613.3867" style="stroke:#181818;stroke-width:1.0;"/><line style="stroke:#181818;stroke-width:1.0;" x1="519" x2="519" y1="291.6602" y2="896.7109"/><line style="stroke:#181818;stroke-width:1.0;" x1="519" x2="281.5" y1="896.7109" y2="896.7109"/><line style="stroke:#181818;stroke-width:1.0;" x1="281.5" x2="281.5" y1="896.7109" y2="916.7109"/><polygon fill="#181818" points="277.5,906.7109,281.5,916.7109,285.5,906.7109,281.5,910.7109" style="stroke:#181818;stroke-width:1.0;"/><line style="stroke:#181818;stroke-width:1.0;" x1="281.5" x2="281.5" y1="258.8555" y2="278.8555"/><polygon fill="#181818" points="277.5,268.8555,281.5,278.8555,285.5,268.8555,281.5,272.8555" style="stroke:#181818;stroke-width:1.0;"/><line style="stroke:#181818;stroke-width:1.0;" x1="281.5" x2="281.5" y1="1008.6484" y2="1028.6484"/><polygon fill="#181818" points="277.5,1018.6484,281.5,1028.6484,285.5,1018.6484,281.5,1022.6484" style="stroke:#181818;stroke-width:1.0;"/><line style="stroke:#181818;stroke-width:1.0;" x1="281.5" x2="281.5" y1="1062.6172" y2="1072.6172"/><line style="stroke:#181818;stroke-width:1.0;" x1="281.5" x2="399" y1="1072.6172" y2="1072.6172"/><polygon fill="#181818" points="395,1043.6328,399,1033.6328,403,1043.6328,399,1039.6328" style="stroke:#181818;stroke-width:1.0;"/><line style="stroke:#181818;stroke-width:1.0;" x1="399" x2="399" y1="996.6484" y2="1072.6172"/><line style="stroke:#181818;stroke-width:1.0;" x1="399" x2="371.5" y1="996.6484" y2="996.6484"/><polygon fill="#181818" points="381.5,992.6484,371.5,996.6484,381.5,1000.6484,377.5,996.6484" style="stroke:#181818;stroke-width:1.0;"/><line style="stroke:#181818;stroke-width:1.0;" x1="191.5" x2="164" y1="996.6484" y2="996.6484"/><polygon fill="#181818" points="160,1029.6328,164,1039.6328,168,1029.6328,164,1033.6328" style="stroke:#181818;stroke-width:1.0;"/><line style="stroke:#181818;stroke-width:1.0;" x1="164" x2="164" y1="996.6484" y2="1084.6172"/><line style="stroke:#181818;stroke-width:1.0;" x1="164" x2="281.5" y1="1084.6172" y2="1084.6172"/><line style="stroke:#181818;stroke-width:1.0;" x1="281.5" x2="281.5" y1="1084.6172" y2="1104.6172"/><polygon fill="#181818" points="277.5,1094.6172,281.5,1104.6172,285.5,1094.6172,281.5,1098.6172" style="stroke:#181818;stroke-width:1.0;"/><line style="stroke:#181818;stroke-width:1.0;" x1="281.5" x2="281.5" y1="964.6484" y2="984.6484"/><polygon fill="#181818" points="277.5,974.6484,281.5,984.6484,285.5,974.6484,281.5,978.6484" style="stroke:#181818;stroke-width:1.0;"/><line style="stroke:#181818;stroke-width:1.0;" x1="281.5" x2="281.5" y1="1152.5547" y2="1172.5547"/><polygon fill="#181818" points="277.5,1162.5547,281.5,1172.5547,285.5,1162.5547,281.5,1166.5547" style="stroke:#181818;stroke-width:1.0;"/><line style="stroke:#181818;stroke-width:1.0;" x1="281.5" x2="281.5" y1="1220.4922" y2="1240.4922"/><polygon fill="#181818" points="277.5,1230.4922,281.5,1240.4922,285.5,1230.4922,281.5,1234.4922" style="stroke:#181818;stroke-width:1.0;"/><line style="stroke:#181818;stroke-width:1.0;" x1="281.5" x2="281.5" y1="1274.4609" y2="1294.4609"/><polygon fill="#181818" points="277.5,1284.4609,281.5,1294.4609,285.5,1284.4609,281.5,1288.4609" style="stroke:#181818;stroke-width:1.0;"/><line style="stroke:#181818;stroke-width:1.0;" x1="281.5" x2="281.5" y1="1328.4297" y2="1348.4297"/><polygon fill="#181818" points="277.5,1338.4297,281.5,1348.4297,285.5,1338.4297,281.5,1342.4297" style="stroke:#181818;stroke-width:1.0;"/><!--SRC=[XP51ReCm44NtFiKecuGLUrYbKIArgbefv08k330gs6WyQPgUlZO40kcY6uHb-_t_nauqYw9o4yTK6SjOxByxZcF8hH5Dna5OxtJJH20r6jXSqKKgEQASsS1gbIedjbDe2YfLag609xcZjP9HvJbYeTIDmpI431k1-4fEmB8YvuyTT2vB_9mp7b_0aXsZ5eHCc4prTAQcG4xLfQO6Dt2m37kTrx3b2cXm28ZeZwcRg-xEp6Wat8hKXm_u7BrEGNQs3MHybo6yDtjsy6O5djkkePm4UYMLRBlE4_eLN4ZguUz4qY1CWAazUZKg8S3-1QrZMQUtUlxRYq_Fik3weB7e_AaM0_HEhAzGicr1JU_ZHHraz8FZO9TpDOlBeMHHmFpoNN4uaiwQtk8DNXxQbZv3lNV8MiWQbqxk4_c-6GBKmn3z35hxXR1lExdUs6umMtOPXpN3lLWoM0HgK1_czGi0]--></g></svg>