<?xml version="1.0" encoding="us-ascii" standalone="no"?><svg xmlns="http://www.w3.org/2000/svg" xmlns:xlink="http://www.w3.org/1999/xlink" contentStyleType="text/css" height="919px" preserveAspectRatio="none" style="width:1598px;height:919px;background:#FFFFFF;" version="1.1" viewBox="0 0 1598 919" width="1598px" zoomAndPan="magnify"><defs/><g><ellipse cx="814" cy="20" fill="#222222" rx="10" ry="10" style="stroke:#222222;stroke-width:1.0;"/><rect fill="#F1F1F1" height="33.9688" rx="12.5" ry="12.5" style="stroke:#181818;stroke-width:0.5;" width="72" x="778" y="98.4023"/><text fill="#000000" font-family="sans-serif" font-size="12" lengthAdjust="spacing" textLength="52" x="788" y="119.541">Return ""</text><ellipse cx="814" cy="171.8867" fill="none" rx="11" ry="11" style="stroke:#222222;stroke-width:1.0;"/><ellipse cx="814" cy="171.8867" fill="#222222" rx="6" ry="6" style="stroke:#222222;stroke-width:1.0;"/><polygon fill="#F1F1F1" points="729,50,899,50,911,62,899,74,729,74,717,62,729,50" style="stroke:#181818;stroke-width:0.5;"/><text fill="#000000" font-family="sans-serif" font-size="11" lengthAdjust="spacing" textLength="21" x="818" y="84.2104">yes</text><text fill="#000000" font-family="sans-serif" font-size="11" font-style="italic" lengthAdjust="spacing" textLength="69" x="729" y="65.8081">ignoredExpr</text><text fill="#000000" font-family="sans-serif" font-size="11" lengthAdjust="spacing" textLength="97" x="802" y="65.8081">contains ExprCall</text><rect fill="#F1F1F1" height="33.9688" rx="12.5" ry="12.5" style="stroke:#181818;stroke-width:0.5;" width="148" x="740" y="224.8867"/><text fill="#000000" font-family="sans-serif" font-size="12" lengthAdjust="spacing" textLength="20" x="750" y="246.0254">Set</text><text fill="#000000" font-family="sans-serif" font-size="12" font-style="italic" lengthAdjust="spacing" textLength="55" x="774" y="246.0254">isRootSig</text><text fill="#000000" font-family="sans-serif" font-size="12" lengthAdjust="spacing" textLength="45" x="833" y="246.0254">to false</text><rect fill="#F1F1F1" height="47.9375" rx="12.5" ry="12.5" style="stroke:#181818;stroke-width:0.5;" width="148" x="740" y="327.2578"/><text fill="#000000" font-family="sans-serif" font-size="12" lengthAdjust="spacing" textLength="114" x="750" y="348.3965">visitThis ExprUnary</text><text fill="#000000" font-family="sans-serif" font-size="12" lengthAdjust="spacing" textLength="128" x="750" y="362.3652">(API to AlloyAnalyzer)</text><polygon fill="#F1F1F1" points="733.5,278.8555,894.5,278.8555,906.5,290.8555,894.5,302.8555,733.5,302.8555,721.5,290.8555,733.5,278.8555" style="stroke:#181818;stroke-width:0.5;"/><text fill="#000000" font-family="sans-serif" font-size="11" lengthAdjust="spacing" textLength="21" x="818" y="313.0659">yes</text><text fill="#000000" font-family="sans-serif" font-size="11" lengthAdjust="spacing" textLength="161" x="733.5" y="294.6636">ExprUnary Operator is NOOP</text><polygon fill="#F1F1F1" points="814,395.1953,826,407.1953,814,419.1953,802,407.1953,814,395.1953" style="stroke:#181818;stroke-width:0.5;"/><rect fill="#F1F1F1" height="33.9688" rx="12.5" ry="12.5" style="stroke:#181818;stroke-width:0.5;" width="141" x="743.5" y="439.1953"/><text fill="#000000" font-family="sans-serif" font-size="12" lengthAdjust="spacing" textLength="121" x="753.5" y="460.334">Create StringBuilder</text><rect fill="#F1F1F1" height="47.9375" rx="12.5" ry="12.5" style="stroke:#181818;stroke-width:0.5;" width="178" x="725" y="493.1641"/><text fill="#000000" font-family="sans-serif" font-size="12" lengthAdjust="spacing" textLength="79" x="735" y="514.3027">Create String</text><text fill="#000000" font-family="sans-serif" font-size="12" font-style="italic" lengthAdjust="spacing" textLength="20" x="818" y="514.3027">out</text><text fill="#000000" font-family="sans-serif" font-size="12" lengthAdjust="spacing" textLength="51" x="842" y="514.3027">from the</text><text fill="#000000" font-family="sans-serif" font-size="12" lengthAdjust="spacing" textLength="157" x="735" y="528.2715">ExprUnary Subexpression</text><rect fill="#F1F1F1" height="33.9688" rx="12.5" ry="12.5" style="stroke:#181818;stroke-width:0.5;" width="267" x="680.5" y="605.1016"/><text fill="#000000" font-family="sans-serif" font-size="12" lengthAdjust="spacing" textLength="20" x="690.5" y="626.2402">Set</text><text fill="#000000" font-family="sans-serif" font-size="12" font-style="italic" lengthAdjust="spacing" textLength="20" x="714.5" y="626.2402">out</text><text fill="#000000" font-family="sans-serif" font-size="12" lengthAdjust="spacing" textLength="199" x="738.5" y="626.2402">to be Surrounded by Parenthesis</text><polygon fill="#F1F1F1" points="690,561.1016,938,561.1016,950,573.1016,938,585.1016,690,585.1016,678,573.1016,690,561.1016" style="stroke:#181818;stroke-width:0.5;"/><text fill="#000000" font-family="sans-serif" font-size="11" lengthAdjust="spacing" textLength="248" x="690" y="576.9097">Subexpression is an Instance of ExprBinary</text><polygon fill="#F1F1F1" points="814,659.0703,826,671.0703,814,683.0703,802,671.0703,814,659.0703" style="stroke:#181818;stroke-width:0.5;"/><polygon fill="#F1F1F1" points="32,703.0703,227,703.0703,239,715.0703,227,727.0703,32,727.0703,20,715.0703,32,703.0703" style="stroke:#181818;stroke-width:0.5;"/><text fill="#000000" font-family="sans-serif" font-size="11" lengthAdjust="spacing" textLength="21" x="133.5" y="737.2808">yes</text><text fill="#000000" font-family="sans-serif" font-size="11" lengthAdjust="spacing" textLength="195" x="32" y="718.8784">ExprUnary Operation is Cardinality</text><rect fill="#F1F1F1" height="33.9688" rx="12.5" ry="12.5" style="stroke:#181818;stroke-width:0.5;" width="98" x="80.5" y="758.7808"/><text fill="#000000" font-family="sans-serif" font-size="12" lengthAdjust="spacing" textLength="54" x="90.5" y="779.9194">Add # to</text><text fill="#000000" font-family="sans-serif" font-size="12" font-style="italic" lengthAdjust="spacing" textLength="20" x="148.5" y="779.9194">out</text><polygon fill="#F1F1F1" points="271,703.0703,437,703.0703,449,715.0703,437,727.0703,271,727.0703,259,715.0703,271,703.0703" style="stroke:#181818;stroke-width:0.5;"/><text fill="#000000" font-family="sans-serif" font-size="11" lengthAdjust="spacing" textLength="21" x="358" y="737.2808">yes</text><text fill="#000000" font-family="sans-serif" font-size="11" lengthAdjust="spacing" textLength="166" x="271" y="718.8784">ExprUnary Operation is Setof</text><rect fill="#F1F1F1" height="33.9688" rx="12.5" ry="12.5" style="stroke:#181818;stroke-width:0.5;" width="107" x="300.5" y="758.7808"/><text fill="#000000" font-family="sans-serif" font-size="12" lengthAdjust="spacing" textLength="63" x="310.5" y="779.9194">Add set to</text><text fill="#000000" font-family="sans-serif" font-size="12" font-style="italic" lengthAdjust="spacing" textLength="20" x="377.5" y="779.9194">out</text><polygon fill="#F1F1F1" points="481,703.0703,635,703.0703,647,715.0703,635,727.0703,481,727.0703,469,715.0703,481,703.0703" style="stroke:#181818;stroke-width:0.5;"/><text fill="#000000" font-family="sans-serif" font-size="11" lengthAdjust="spacing" textLength="21" x="562" y="737.2808">yes</text><text fill="#000000" font-family="sans-serif" font-size="11" lengthAdjust="spacing" textLength="154" x="481" y="718.8784">ExprUnary Operation is Not</text><rect fill="#F1F1F1" height="33.9688" rx="12.5" ry="12.5" style="stroke:#181818;stroke-width:0.5;" width="107" x="504.5" y="758.7808"/><text fill="#000000" font-family="sans-serif" font-size="12" lengthAdjust="spacing" textLength="63" x="514.5" y="779.9194">Add not to</text><text fill="#000000" font-family="sans-serif" font-size="12" font-style="italic" lengthAdjust="spacing" textLength="20" x="581.5" y="779.9194">out</text><polygon fill="#F1F1F1" points="679,703.0703,829,703.0703,841,715.0703,829,727.0703,679,727.0703,667,715.0703,679,703.0703" style="stroke:#181818;stroke-width:0.5;"/><text fill="#000000" font-family="sans-serif" font-size="11" lengthAdjust="spacing" textLength="21" x="758" y="737.2808">yes</text><text fill="#000000" font-family="sans-serif" font-size="11" lengthAdjust="spacing" textLength="150" x="679" y="718.8784">ExprUnary Operation is No</text><rect fill="#F1F1F1" height="33.9688" rx="12.5" ry="12.5" style="stroke:#181818;stroke-width:0.5;" width="103" x="702.5" y="758.7808"/><text fill="#000000" font-family="sans-serif" font-size="12" lengthAdjust="spacing" textLength="59" x="712.5" y="779.9194">Add no to</text><text fill="#000000" font-family="sans-serif" font-size="12" font-style="italic" lengthAdjust="spacing" textLength="20" x="775.5" y="779.9194">out</text><polygon fill="#F1F1F1" points="873,703.0703,1051,703.0703,1063,715.0703,1051,727.0703,873,727.0703,861,715.0703,873,703.0703" style="stroke:#181818;stroke-width:0.5;"/><text fill="#000000" font-family="sans-serif" font-size="11" lengthAdjust="spacing" textLength="21" x="966" y="737.2808">yes</text><text fill="#000000" font-family="sans-serif" font-size="11" lengthAdjust="spacing" textLength="178" x="873" y="718.8784">ExprUnary Operation is Closure</text><rect fill="#F1F1F1" height="33.9688" rx="12.5" ry="12.5" style="stroke:#181818;stroke-width:0.5;" width="98" x="913" y="758.7808"/><text fill="#000000" font-family="sans-serif" font-size="12" lengthAdjust="spacing" textLength="54" x="923" y="779.9194">Add ^ to</text><text fill="#000000" font-family="sans-serif" font-size="12" font-style="italic" lengthAdjust="spacing" textLength="20" x="981" y="779.9194">out</text><polygon fill="#F1F1F1" points="1095,703.0703,1308,703.0703,1320,715.0703,1308,727.0703,1095,727.0703,1083,715.0703,1095,703.0703" style="stroke:#181818;stroke-width:0.5;"/><text fill="#000000" font-family="sans-serif" font-size="11" lengthAdjust="spacing" textLength="21" x="1205.5" y="737.2808">yes</text><text fill="#000000" font-family="sans-serif" font-size="11" lengthAdjust="spacing" textLength="213" x="1095" y="718.8784">ExprUnary Operation is One or Oneof</text><rect fill="#F1F1F1" height="33.9688" rx="12.5" ry="12.5" style="stroke:#181818;stroke-width:0.5;" width="111" x="1146" y="758.7808"/><text fill="#000000" font-family="sans-serif" font-size="12" lengthAdjust="spacing" textLength="67" x="1156" y="779.9194">Add one to</text><text fill="#000000" font-family="sans-serif" font-size="12" font-style="italic" lengthAdjust="spacing" textLength="20" x="1227" y="779.9194">out</text><polygon fill="#F1F1F1" points="1352,703.0703,1546,703.0703,1558,715.0703,1546,727.0703,1352,727.0703,1340,715.0703,1352,703.0703" style="stroke:#181818;stroke-width:0.5;"/><text fill="#000000" font-family="sans-serif" font-size="11" lengthAdjust="spacing" textLength="21" x="1453" y="737.2808">yes</text><text fill="#000000" font-family="sans-serif" font-size="11" lengthAdjust="spacing" textLength="194" x="1352" y="718.8784">ExprUnary Operation is Transpose</text><rect fill="#F1F1F1" height="33.9688" rx="12.5" ry="12.5" style="stroke:#181818;stroke-width:0.5;" width="98" x="1400" y="758.7808"/><text fill="#000000" font-family="sans-serif" font-size="12" lengthAdjust="spacing" textLength="54" x="1410" y="779.9194">Add ~ to</text><text fill="#000000" font-family="sans-serif" font-size="12" font-style="italic" lengthAdjust="spacing" textLength="20" x="1468" y="779.9194">out</text><rect fill="#F1F1F1" height="33.9688" rx="12.5" ry="12.5" style="stroke:#181818;stroke-width:0.5;" width="82" x="773" y="832.7495"/><text fill="#000000" font-family="sans-serif" font-size="12" lengthAdjust="spacing" textLength="38" x="783" y="853.8882">Return</text><text fill="#000000" font-family="sans-serif" font-size="12" font-style="italic" lengthAdjust="spacing" textLength="20" x="825" y="853.8882">out</text><ellipse cx="814" cy="897.7183" fill="none" rx="11" ry="11" style="stroke:#222222;stroke-width:1.0;"/><ellipse cx="814" cy="897.7183" fill="#222222" rx="6" ry="6" style="stroke:#222222;stroke-width:1.0;"/><line style="stroke:#181818;stroke-width:1.0;" x1="814" x2="814" y1="132.3711" y2="160.8867"/><polygon fill="#181818" points="810,150.8867,814,160.8867,818,150.8867,814,154.8867" style="stroke:#181818;stroke-width:1.0;"/><line style="stroke:#181818;stroke-width:1.0;" x1="814" x2="814" y1="74" y2="98.4023"/><polygon fill="#181818" points="810,88.4023,814,98.4023,818,88.4023,814,92.4023" style="stroke:#181818;stroke-width:1.0;"/><line style="stroke:#181818;stroke-width:1.0;" x1="911" x2="923" y1="62" y2="62"/><polygon fill="#181818" points="919,130.8867,923,140.8867,927,130.8867,923,134.8867" style="stroke:#181818;stroke-width:1.0;"/><line style="stroke:#181818;stroke-width:1.0;" x1="923" x2="923" y1="62" y2="204.8867"/><line style="stroke:#181818;stroke-width:1.0;" x1="923" x2="814" y1="204.8867" y2="204.8867"/><line style="stroke:#181818;stroke-width:1.0;" x1="814" x2="814" y1="204.8867" y2="224.8867"/><polygon fill="#181818" points="810,214.8867,814,224.8867,818,214.8867,814,218.8867" style="stroke:#181818;stroke-width:1.0;"/><line style="stroke:#181818;stroke-width:1.0;" x1="814" x2="814" y1="30" y2="50"/><polygon fill="#181818" points="810,40,814,50,818,40,814,44" style="stroke:#181818;stroke-width:1.0;"/><line style="stroke:#181818;stroke-width:1.0;" x1="814" x2="814" y1="302.8555" y2="327.2578"/><polygon fill="#181818" points="810,317.2578,814,327.2578,818,317.2578,814,321.2578" style="stroke:#181818;stroke-width:1.0;"/><line style="stroke:#181818;stroke-width:1.0;" x1="906.5" x2="918.5" y1="290.8555" y2="290.8555"/><polygon fill="#181818" points="914.5,341.2266,918.5,351.2266,922.5,341.2266,918.5,345.2266" style="stroke:#181818;stroke-width:1.0;"/><line style="stroke:#181818;stroke-width:1.0;" x1="918.5" x2="918.5" y1="290.8555" y2="407.1953"/><line style="stroke:#181818;stroke-width:1.0;" x1="918.5" x2="826" y1="407.1953" y2="407.1953"/><polygon fill="#181818" points="836,403.1953,826,407.1953,836,411.1953,832,407.1953" style="stroke:#181818;stroke-width:1.0;"/><line style="stroke:#181818;stroke-width:1.0;" x1="814" x2="814" y1="375.1953" y2="395.1953"/><polygon fill="#181818" points="810,385.1953,814,395.1953,818,385.1953,814,389.1953" style="stroke:#181818;stroke-width:1.0;"/><line style="stroke:#181818;stroke-width:1.0;" x1="814" x2="814" y1="258.8555" y2="278.8555"/><polygon fill="#181818" points="810,268.8555,814,278.8555,818,268.8555,814,272.8555" style="stroke:#181818;stroke-width:1.0;"/><line style="stroke:#181818;stroke-width:1.0;" x1="814" x2="814" y1="419.1953" y2="439.1953"/><polygon fill="#181818" points="810,429.1953,814,439.1953,818,429.1953,814,433.1953" style="stroke:#181818;stroke-width:1.0;"/><line style="stroke:#181818;stroke-width:1.0;" x1="814" x2="814" y1="473.1641" y2="493.1641"/><polygon fill="#181818" points="810,483.1641,814,493.1641,818,483.1641,814,487.1641" style="stroke:#181818;stroke-width:1.0;"/><line style="stroke:#181818;stroke-width:1.0;" x1="814" x2="814" y1="585.1016" y2="605.1016"/><polygon fill="#181818" points="810,595.1016,814,605.1016,818,595.1016,814,599.1016" style="stroke:#181818;stroke-width:1.0;"/><line style="stroke:#181818;stroke-width:1.0;" x1="950" x2="962" y1="573.1016" y2="573.1016"/><polygon fill="#181818" points="958,612.0859,962,622.0859,966,612.0859,962,616.0859" style="stroke:#181818;stroke-width:1.0;"/><line style="stroke:#181818;stroke-width:1.0;" x1="962" x2="962" y1="573.1016" y2="671.0703"/><line style="stroke:#181818;stroke-width:1.0;" x1="962" x2="826" y1="671.0703" y2="671.0703"/><polygon fill="#181818" points="836,667.0703,826,671.0703,836,675.0703,832,671.0703" style="stroke:#181818;stroke-width:1.0;"/><line style="stroke:#181818;stroke-width:1.0;" x1="814" x2="814" y1="639.0703" y2="659.0703"/><polygon fill="#181818" points="810,649.0703,814,659.0703,818,649.0703,814,653.0703" style="stroke:#181818;stroke-width:1.0;"/><line style="stroke:#181818;stroke-width:1.0;" x1="814" x2="814" y1="541.1016" y2="561.1016"/><polygon fill="#181818" points="810,551.1016,814,561.1016,818,551.1016,814,555.1016" style="stroke:#181818;stroke-width:1.0;"/><line style="stroke:#181818;stroke-width:1.0;" x1="129.5" x2="129.5" y1="727.0703" y2="758.7808"/><polygon fill="#181818" points="125.5,748.7808,129.5,758.7808,133.5,748.7808,129.5,752.7808" style="stroke:#181818;stroke-width:1.0;"/><line style="stroke:#181818;stroke-width:1.0;" x1="129.5" x2="129.5" y1="792.7495" y2="812.7495"/><polygon fill="#181818" points="125.5,802.7495,129.5,812.7495,133.5,802.7495,129.5,806.7495" style="stroke:#181818;stroke-width:1.0;"/><line style="stroke:#181818;stroke-width:1.0;" x1="354" x2="354" y1="727.0703" y2="758.7808"/><polygon fill="#181818" points="350,748.7808,354,758.7808,358,748.7808,354,752.7808" style="stroke:#181818;stroke-width:1.0;"/><line style="stroke:#181818;stroke-width:1.0;" x1="354" x2="354" y1="792.7495" y2="812.7495"/><polygon fill="#181818" points="350,802.7495,354,812.7495,358,802.7495,354,806.7495" style="stroke:#181818;stroke-width:1.0;"/><line style="stroke:#181818;stroke-width:1.0;" x1="558" x2="558" y1="727.0703" y2="758.7808"/><polygon fill="#181818" points="554,748.7808,558,758.7808,562,748.7808,558,752.7808" style="stroke:#181818;stroke-width:1.0;"/><line style="stroke:#181818;stroke-width:1.0;" x1="558" x2="558" y1="792.7495" y2="812.7495"/><polygon fill="#181818" points="554,802.7495,558,812.7495,562,802.7495,558,806.7495" style="stroke:#181818;stroke-width:1.0;"/><line style="stroke:#181818;stroke-width:1.0;" x1="754" x2="754" y1="727.0703" y2="758.7808"/><polygon fill="#181818" points="750,748.7808,754,758.7808,758,748.7808,754,752.7808" style="stroke:#181818;stroke-width:1.0;"/><line style="stroke:#181818;stroke-width:1.0;" x1="754" x2="754" y1="792.7495" y2="812.7495"/><polygon fill="#181818" points="750,802.7495,754,812.7495,758,802.7495,754,806.7495" style="stroke:#181818;stroke-width:1.0;"/><line style="stroke:#181818;stroke-width:1.0;" x1="962" x2="962" y1="727.0703" y2="758.7808"/><polygon fill="#181818" points="958,748.7808,962,758.7808,966,748.7808,962,752.7808" style="stroke:#181818;stroke-width:1.0;"/><line style="stroke:#181818;stroke-width:1.0;" x1="962" x2="962" y1="792.7495" y2="812.7495"/><polygon fill="#181818" points="958,802.7495,962,812.7495,966,802.7495,962,806.7495" style="stroke:#181818;stroke-width:1.0;"/><line style="stroke:#181818;stroke-width:1.0;" x1="1201.5" x2="1201.5" y1="727.0703" y2="758.7808"/><polygon fill="#181818" points="1197.5,748.7808,1201.5,758.7808,1205.5,748.7808,1201.5,752.7808" style="stroke:#181818;stroke-width:1.0;"/><line style="stroke:#181818;stroke-width:1.0;" x1="1201.5" x2="1201.5" y1="792.7495" y2="812.7495"/><polygon fill="#181818" points="1197.5,802.7495,1201.5,812.7495,1205.5,802.7495,1201.5,806.7495" style="stroke:#181818;stroke-width:1.0;"/><line style="stroke:#181818;stroke-width:1.0;" x1="1449" x2="1449" y1="727.0703" y2="758.7808"/><polygon fill="#181818" points="1445,748.7808,1449,758.7808,1453,748.7808,1449,752.7808" style="stroke:#181818;stroke-width:1.0;"/><line style="stroke:#181818;stroke-width:1.0;" x1="1449" x2="1449" y1="792.7495" y2="812.7495"/><polygon fill="#181818" points="1445,802.7495,1449,812.7495,1453,802.7495,1449,806.7495" style="stroke:#181818;stroke-width:1.0;"/><line style="stroke:#181818;stroke-width:1.0;" x1="239" x2="259" y1="715.0703" y2="715.0703"/><polygon fill="#181818" points="249,711.0703,259,715.0703,249,719.0703,253,715.0703" style="stroke:#181818;stroke-width:1.0;"/><line style="stroke:#181818;stroke-width:1.0;" x1="449" x2="469" y1="715.0703" y2="715.0703"/><polygon fill="#181818" points="459,711.0703,469,715.0703,459,719.0703,463,715.0703" style="stroke:#181818;stroke-width:1.0;"/><line style="stroke:#181818;stroke-width:1.0;" x1="647" x2="667" y1="715.0703" y2="715.0703"/><polygon fill="#181818" points="657,711.0703,667,715.0703,657,719.0703,661,715.0703" style="stroke:#181818;stroke-width:1.0;"/><line style="stroke:#181818;stroke-width:1.0;" x1="841" x2="861" y1="715.0703" y2="715.0703"/><polygon fill="#181818" points="851,711.0703,861,715.0703,851,719.0703,855,715.0703" style="stroke:#181818;stroke-width:1.0;"/><line style="stroke:#181818;stroke-width:1.0;" x1="1063" x2="1083" y1="715.0703" y2="715.0703"/><polygon fill="#181818" points="1073,711.0703,1083,715.0703,1073,719.0703,1077,715.0703" style="stroke:#181818;stroke-width:1.0;"/><line style="stroke:#181818;stroke-width:1.0;" x1="1320" x2="1340" y1="715.0703" y2="715.0703"/><polygon fill="#181818" points="1330,711.0703,1340,715.0703,1330,719.0703,1334,715.0703" style="stroke:#181818;stroke-width:1.0;"/><line style="stroke:#181818;stroke-width:1.0;" x1="814" x2="814" y1="683.0703" y2="688.0703"/><line style="stroke:#181818;stroke-width:1.0;" x1="814" x2="129.5" y1="688.0703" y2="688.0703"/><line style="stroke:#181818;stroke-width:1.0;" x1="129.5" x2="129.5" y1="688.0703" y2="703.0703"/><polygon fill="#181818" points="125.5,693.0703,129.5,703.0703,133.5,693.0703,129.5,697.0703" style="stroke:#181818;stroke-width:1.0;"/><line style="stroke:#181818;stroke-width:1.0;" x1="1558" x2="1572" y1="715.0703" y2="715.0703"/><line style="stroke:#181818;stroke-width:1.0;" x1="1572" x2="1572" y1="715.0703" y2="812.7495"/><polygon fill="#181818" points="1568,802.7495,1572,812.7495,1576,802.7495,1572,806.7495" style="stroke:#181818;stroke-width:1.0;"/><line style="stroke:#181818;stroke-width:1.0;" x1="129.5" x2="1572" y1="812.7495" y2="812.7495"/><line style="stroke:#181818;stroke-width:1.0;" x1="814" x2="814" y1="812.7495" y2="832.7495"/><polygon fill="#181818" points="810,822.7495,814,832.7495,818,822.7495,814,826.7495" style="stroke:#181818;stroke-width:1.0;"/><line style="stroke:#181818;stroke-width:1.0;" x1="814" x2="814" y1="866.7183" y2="886.7183"/><polygon fill="#181818" points="810,876.7183,814,886.7183,818,876.7183,814,880.7183" style="stroke:#181818;stroke-width:1.0;"/><!--SRC=[bPCzRy8m48Rt_0gBBZ1b9rE8Eh0GHEXQoP0BM7BlehjBrNJeRw_DHwkKL8B9ybb-tiTdMzIo9gwPfgax837KpnyjfwdP4wfrA2RE2-lzpEWHq4nxa5aotu1sZ6OooH9HQXF0sZN9l08rWIGR8gtS8N2KJ6EzG1P38ki5BVUcR86j4XidPbMMwo7ztOdJxT6Tqqyxacc-NaPQxZtrELhVVmBFicjomM0LJANiyB3edA-1ip_be4QT1gc6wIq69hz2LRU3C04HHtYI7LIYfqMpH56BUp3KdDGMBcwUNGz-fWV9NOZicAd36cgpwytQCc1852TNvP5-N88AotK0UwVzi2zvNPkdoBz41LHexV-WO4NDBKA2xFsG5Uaj0kann1ZX0K3XIJg6Myhh0v0Imxrn7CQQGc7rVjQMBKfBCgBqDSISd-Vbl_oKuwVv1W00]--></g></svg>