<?xml version="1.0" encoding="us-ascii" standalone="no"?><svg xmlns="http://www.w3.org/2000/svg" xmlns:xlink="http://www.w3.org/1999/xlink" contentStyleType="text/css" height="365px" preserveAspectRatio="none" style="width:252px;height:365px;background:#FFFFFF;" version="1.1" viewBox="0 0 252 365" width="252px" zoomAndPan="magnify"><defs/><g><ellipse cx="117" cy="20" fill="#222222" rx="10" ry="10" style="stroke:#222222;stroke-width:1.0;"/><rect fill="#F1F1F1" height="33.9688" rx="12.5" ry="12.5" style="stroke:#181818;stroke-width:0.5;" width="138" x="48" y="98.4023"/><text fill="#000000" font-family="sans-serif" font-size="12" lengthAdjust="spacing" textLength="118" x="58" y="119.541">Return Empty String</text><ellipse cx="117" cy="171.8867" fill="none" rx="11" ry="11" style="stroke:#222222;stroke-width:1.0;"/><ellipse cx="117" cy="171.8867" fill="#222222" rx="6" ry="6" style="stroke:#222222;stroke-width:1.0;"/><polygon fill="#F1F1F1" points="32,50,202,50,214,62,202,74,32,74,20,62,32,50" style="stroke:#181818;stroke-width:0.5;"/><text fill="#000000" font-family="sans-serif" font-size="11" lengthAdjust="spacing" textLength="21" x="121" y="84.2104">yes</text><text fill="#000000" font-family="sans-serif" font-size="11" font-style="italic" lengthAdjust="spacing" textLength="69" x="32" y="65.8081">ignoredExpr</text><text fill="#000000" font-family="sans-serif" font-size="11" lengthAdjust="spacing" textLength="97" x="105" y="65.8081">contains ExprCall</text><rect fill="#F1F1F1" height="33.9688" rx="12.5" ry="12.5" style="stroke:#181818;stroke-width:0.5;" width="148" x="43" y="224.8867"/><text fill="#000000" font-family="sans-serif" font-size="12" lengthAdjust="spacing" textLength="20" x="53" y="246.0254">Set</text><text fill="#000000" font-family="sans-serif" font-size="12" font-style="italic" lengthAdjust="spacing" textLength="55" x="77" y="246.0254">isRootSig</text><text fill="#000000" font-family="sans-serif" font-size="12" lengthAdjust="spacing" textLength="45" x="136" y="246.0254">to false</text><rect fill="#F1F1F1" height="33.9688" rx="12.5" ry="12.5" style="stroke:#181818;stroke-width:0.5;" width="192" x="21" y="278.8555"/><text fill="#000000" font-family="sans-serif" font-size="12" lengthAdjust="spacing" textLength="172" x="31" y="299.9941">Return ExprConstant toString</text><ellipse cx="117" cy="343.8242" fill="none" rx="11" ry="11" style="stroke:#222222;stroke-width:1.0;"/><ellipse cx="117" cy="343.8242" fill="#222222" rx="6" ry="6" style="stroke:#222222;stroke-width:1.0;"/><line style="stroke:#181818;stroke-width:1.0;" x1="117" x2="117" y1="132.3711" y2="160.8867"/><polygon fill="#181818" points="113,150.8867,117,160.8867,121,150.8867,117,154.8867" style="stroke:#181818;stroke-width:1.0;"/><line style="stroke:#181818;stroke-width:1.0;" x1="117" x2="117" y1="74" y2="98.4023"/><polygon fill="#181818" points="113,88.4023,117,98.4023,121,88.4023,117,92.4023" style="stroke:#181818;stroke-width:1.0;"/><line style="stroke:#181818;stroke-width:1.0;" x1="214" x2="226" y1="62" y2="62"/><polygon fill="#181818" points="222,130.8867,226,140.8867,230,130.8867,226,134.8867" style="stroke:#181818;stroke-width:1.0;"/><line style="stroke:#181818;stroke-width:1.0;" x1="226" x2="226" y1="62" y2="204.8867"/><line style="stroke:#181818;stroke-width:1.0;" x1="226" x2="117" y1="204.8867" y2="204.8867"/><line style="stroke:#181818;stroke-width:1.0;" x1="117" x2="117" y1="204.8867" y2="224.8867"/><polygon fill="#181818" points="113,214.8867,117,224.8867,121,214.8867,117,218.8867" style="stroke:#181818;stroke-width:1.0;"/><line style="stroke:#181818;stroke-width:1.0;" x1="117" x2="117" y1="30" y2="50"/><polygon fill="#181818" points="113,40,117,50,121,40,117,44" style="stroke:#181818;stroke-width:1.0;"/><line style="stroke:#181818;stroke-width:1.0;" x1="117" x2="117" y1="258.8555" y2="278.8555"/><polygon fill="#181818" points="113,268.8555,117,278.8555,121,268.8555,117,272.8555" style="stroke:#181818;stroke-width:1.0;"/><line style="stroke:#181818;stroke-width:1.0;" x1="117" x2="117" y1="312.8242" y2="332.8242"/><polygon fill="#181818" points="113,322.8242,117,332.8242,121,322.8242,117,326.8242" style="stroke:#181818;stroke-width:1.0;"/><!--SRC=[JSmn3iCW44JHdbDiQLVqTXdv0kO4A5u84jb5x4IARnzSnUNeQvuXThYI9kzB5kryRD_MlQUd2c8Hesi_OgqpuSL2qyasksLdVBhGzcuuAQ0NoQipQ7CiHqbk2GmQfksg22KF4KefLkFr_xve5KCKZ7ndVW00]--></g></svg>