<?xml version="1.0" encoding="us-ascii" standalone="no"?><svg xmlns="http://www.w3.org/2000/svg" xmlns:xlink="http://www.w3.org/1999/xlink" contentStyleType="text/css" height="380px" preserveAspectRatio="none" style="width:433px;height:380px;background:#FFFFFF;" version="1.1" viewBox="0 0 433 380" width="433px" zoomAndPan="magnify"><defs/><g><text fill="#000000" font-family="sans-serif" font-size="14" font-weight="bold" lengthAdjust="spacing" textLength="120" x="155.25" y="32.9951">createAlloyFile</text><ellipse cx="169.25" cy="57.2969" fill="#222222" rx="10" ry="10" style="stroke:#222222;stroke-width:1.0;"/><polygon fill="#F1F1F1" points="93.25,87.2969,245.25,87.2969,257.25,99.2969,245.25,111.2969,93.25,111.2969,81.25,99.2969,93.25,87.2969" style="stroke:#181818;stroke-width:0.5;"/><text fill="#000000" font-family="sans-serif" font-size="11" lengthAdjust="spacing" textLength="152" x="93.25" y="103.105">file !exists and !readable?</text><text fill="#000000" font-family="sans-serif" font-size="11" lengthAdjust="spacing" textLength="21" x="60.25" y="96.7026">yes</text><text fill="#000000" font-family="sans-serif" font-size="11" lengthAdjust="spacing" textLength="14" x="257.25" y="96.7026">no</text><rect fill="#F1F1F1" height="33.9688" rx="12.5" ry="12.5" style="stroke:#181818;stroke-width:0.5;" width="50" x="30.5" y="121.2969"/><text fill="#000000" font-family="sans-serif" font-size="12" lengthAdjust="spacing" textLength="30" x="40.5" y="142.4355">Error</text><rect fill="#F1F1F1" height="33.9688" rx="12.5" ry="12.5" style="stroke:#181818;stroke-width:0.5;" width="89" x="11" y="190.2656"/><text fill="#000000" font-family="sans-serif" font-size="12" lengthAdjust="spacing" textLength="69" x="21" y="211.4043">return false</text><ellipse cx="55.5" cy="270.2344" fill="none" rx="11" ry="11" style="stroke:#222222;stroke-width:1.0;"/><ellipse cx="55.5" cy="270.2344" fill="#222222" rx="6" ry="6" style="stroke:#222222;stroke-width:1.0;"/><polygon fill="#F1F1F1" points="211,121.2969,355,121.2969,367,133.2969,355,145.2969,211,145.2969,199,133.2969,211,121.2969" style="stroke:#181818;stroke-width:0.5;"/><text fill="#000000" font-family="sans-serif" font-size="11" lengthAdjust="spacing" textLength="144" x="211" y="137.105">loadOBMandCreateAlloy?</text><text fill="#000000" font-family="sans-serif" font-size="11" lengthAdjust="spacing" textLength="21" x="178" y="130.7026">yes</text><text fill="#000000" font-family="sans-serif" font-size="11" lengthAdjust="spacing" textLength="14" x="367" y="130.7026">no</text><rect fill="#F1F1F1" height="33.9688" rx="12.5" ry="12.5" style="stroke:#181818;stroke-width:0.5;" width="118" x="130" y="155.2969"/><text fill="#000000" font-family="sans-serif" font-size="12" lengthAdjust="spacing" textLength="98" x="140" y="176.4355">Create Alloy File</text><rect fill="#F1F1F1" height="33.9688" rx="12.5" ry="12.5" style="stroke:#181818;stroke-width:0.5;" width="103" x="137.5" y="224.2656"/><text fill="#000000" font-family="sans-serif" font-size="12" lengthAdjust="spacing" textLength="83" x="147.5" y="245.4043">Print Filename</text><rect fill="#F1F1F1" height="33.9688" rx="12.5" ry="12.5" style="stroke:#181818;stroke-width:0.5;" width="86" x="146" y="293.2344"/><text fill="#000000" font-family="sans-serif" font-size="12" lengthAdjust="spacing" textLength="66" x="156" y="314.373">Return true</text><ellipse cx="189" cy="358.2031" fill="none" rx="11" ry="11" style="stroke:#222222;stroke-width:1.0;"/><ellipse cx="189" cy="358.2031" fill="#222222" rx="6" ry="6" style="stroke:#222222;stroke-width:1.0;"/><rect fill="#F1F1F1" height="33.9688" rx="12.5" ry="12.5" style="stroke:#181818;stroke-width:0.5;" width="50" x="352" y="155.2969"/><text fill="#000000" font-family="sans-serif" font-size="12" lengthAdjust="spacing" textLength="30" x="362" y="176.4355">Error</text><rect fill="#F1F1F1" height="33.9688" rx="12.5" ry="12.5" style="stroke:#181818;stroke-width:0.5;" width="91" x="331.5" y="224.2656"/><text fill="#000000" font-family="sans-serif" font-size="12" lengthAdjust="spacing" textLength="71" x="341.5" y="245.4043">Return false</text><ellipse cx="377" cy="304.2344" fill="none" rx="11" ry="11" style="stroke:#222222;stroke-width:1.0;"/><ellipse cx="377" cy="304.2344" fill="#222222" rx="6" ry="6" style="stroke:#222222;stroke-width:1.0;"/><line style="stroke:#181818;stroke-width:1.0;" x1="55.5" x2="55.5" y1="155.2656" y2="190.2656"/><polygon fill="#181818" points="51.5,180.2656,55.5,190.2656,59.5,180.2656,55.5,184.2656" style="stroke:#181818;stroke-width:1.0;"/><line style="stroke:#181818;stroke-width:1.0;" x1="55.5" x2="55.5" y1="224.2344" y2="259.2344"/><polygon fill="#181818" points="51.5,249.2344,55.5,259.2344,59.5,249.2344,55.5,253.2344" style="stroke:#181818;stroke-width:1.0;"/><line style="stroke:#181818;stroke-width:1.0;" x1="189" x2="189" y1="189.2656" y2="224.2656"/><polygon fill="#181818" points="185,214.2656,189,224.2656,193,214.2656,189,218.2656" style="stroke:#181818;stroke-width:1.0;"/><line style="stroke:#181818;stroke-width:1.0;" x1="189" x2="189" y1="258.2344" y2="293.2344"/><polygon fill="#181818" points="185,283.2344,189,293.2344,193,283.2344,189,287.2344" style="stroke:#181818;stroke-width:1.0;"/><line style="stroke:#181818;stroke-width:1.0;" x1="189" x2="189" y1="327.2031" y2="347.2031"/><polygon fill="#181818" points="185,337.2031,189,347.2031,193,337.2031,189,341.2031" style="stroke:#181818;stroke-width:1.0;"/><line style="stroke:#181818;stroke-width:1.0;" x1="377" x2="377" y1="189.2656" y2="224.2656"/><polygon fill="#181818" points="373,214.2656,377,224.2656,381,214.2656,377,218.2656" style="stroke:#181818;stroke-width:1.0;"/><line style="stroke:#181818;stroke-width:1.0;" x1="377" x2="377" y1="258.2344" y2="293.2344"/><polygon fill="#181818" points="373,283.2344,377,293.2344,381,283.2344,377,287.2344" style="stroke:#181818;stroke-width:1.0;"/><line style="stroke:#181818;stroke-width:1.0;" x1="199" x2="189" y1="133.2969" y2="133.2969"/><line style="stroke:#181818;stroke-width:1.0;" x1="189" x2="189" y1="133.2969" y2="155.2969"/><polygon fill="#181818" points="185,145.2969,189,155.2969,193,145.2969,189,149.2969" style="stroke:#181818;stroke-width:1.0;"/><line style="stroke:#181818;stroke-width:1.0;" x1="367" x2="377" y1="133.2969" y2="133.2969"/><line style="stroke:#181818;stroke-width:1.0;" x1="377" x2="377" y1="133.2969" y2="155.2969"/><polygon fill="#181818" points="373,145.2969,377,155.2969,381,145.2969,377,149.2969" style="stroke:#181818;stroke-width:1.0;"/><line style="stroke:#181818;stroke-width:1.0;" x1="81.25" x2="55.5" y1="99.2969" y2="99.2969"/><line style="stroke:#181818;stroke-width:1.0;" x1="55.5" x2="55.5" y1="99.2969" y2="121.2969"/><polygon fill="#181818" points="51.5,111.2969,55.5,121.2969,59.5,111.2969,55.5,115.2969" style="stroke:#181818;stroke-width:1.0;"/><line style="stroke:#181818;stroke-width:1.0;" x1="257.25" x2="283" y1="99.2969" y2="99.2969"/><line style="stroke:#181818;stroke-width:1.0;" x1="283" x2="283" y1="99.2969" y2="121.2969"/><polygon fill="#181818" points="279,111.2969,283,121.2969,287,111.2969,283,115.2969" style="stroke:#181818;stroke-width:1.0;"/><line style="stroke:#181818;stroke-width:1.0;" x1="169.25" x2="169.25" y1="67.2969" y2="87.2969"/><polygon fill="#181818" points="165.25,77.2969,169.25,87.2969,173.25,77.2969,169.25,81.2969" style="stroke:#181818;stroke-width:1.0;"/><!--SRC=[NKxB3i8m3BltAy9j-uNjW0313O7uWq1JKIcqACqazlVqeJ69IsGxbksaA6hKAnCyX51fnnpdasSota7dCe0DVNpI11WiRBB9ufrfsuC-AK0tK-eD34UHA6C6GZf908USAFEayMqeO-X2pCQIoX7jPN_EUOUryoyGXlQ3-eIoQ2pgLNpGIWE-cdHhZIfJvRKHIcLhNBVzhCkunHkiTwRUBm00]--></g></svg>