<?xml version="1.0" encoding="us-ascii" standalone="no"?><svg xmlns="http://www.w3.org/2000/svg" xmlns:xlink="http://www.w3.org/1999/xlink" contentStyleType="text/css" height="503px" preserveAspectRatio="none" style="width:540px;height:503px;background:#FFFFFF;" version="1.1" viewBox="0 0 540 503" width="540px" zoomAndPan="magnify"><defs/><g><ellipse cx="308.5" cy="20" fill="#222222" rx="10" ry="10" style="stroke:#222222;stroke-width:1.0;"/><polygon fill="#F1F1F1" points="255.5,50,361.5,50,373.5,62,361.5,74,255.5,74,243.5,62,255.5,50" style="stroke:#181818;stroke-width:0.5;"/><text fill="#000000" font-family="sans-serif" font-size="11" lengthAdjust="spacing" textLength="106" x="255.5" y="65.8081">Sig Does Not Exist</text><text fill="#000000" font-family="sans-serif" font-size="11" lengthAdjust="spacing" textLength="21" x="222.5" y="59.4058">yes</text><text fill="#000000" font-family="sans-serif" font-size="11" lengthAdjust="spacing" textLength="14" x="373.5" y="59.4058">no</text><rect fill="#F1F1F1" height="33.9688" rx="12.5" ry="12.5" style="stroke:#181818;stroke-width:0.5;" width="108" x="121" y="84"/><text fill="#000000" font-family="sans-serif" font-size="12" lengthAdjust="spacing" textLength="88" x="131" y="105.1387">Create PrimSig</text><polygon fill="#F1F1F1" points="100.5,137.9688,249.5,137.9688,261.5,149.9688,249.5,161.9688,100.5,161.9688,88.5,149.9688,100.5,137.9688" style="stroke:#181818;stroke-width:0.5;"/><text fill="#000000" font-family="sans-serif" font-size="11" lengthAdjust="spacing" textLength="149" x="100.5" y="153.7769">Sig Does Not Have Parent</text><text fill="#000000" font-family="sans-serif" font-size="11" lengthAdjust="spacing" textLength="21" x="67.5" y="147.3745">yes</text><text fill="#000000" font-family="sans-serif" font-size="11" lengthAdjust="spacing" textLength="14" x="261.5" y="147.3745">no</text><rect fill="#F1F1F1" height="47.9375" rx="12.5" ry="12.5" style="stroke:#181818;stroke-width:0.5;" width="135" x="11" y="171.9688"/><text fill="#000000" font-family="sans-serif" font-size="12" lengthAdjust="spacing" textLength="81" x="21" y="193.1074">Create Sig as</text><text fill="#000000" font-family="sans-serif" font-size="12" lengthAdjust="spacing" textLength="115" x="21" y="207.0762">Child of Occurence</text><rect fill="#F1F1F1" height="47.9375" rx="12.5" ry="12.5" style="stroke:#181818;stroke-width:0.5;" width="106" x="218.5" y="171.9688"/><text fill="#000000" font-family="sans-serif" font-size="12" lengthAdjust="spacing" textLength="81" x="228.5" y="193.1074">Create Sig as</text><text fill="#000000" font-family="sans-serif" font-size="12" lengthAdjust="spacing" textLength="86" x="228.5" y="207.0762">Child of Parent</text><polygon fill="#F1F1F1" points="175,225.9063,187,237.9063,175,249.9063,163,237.9063,175,225.9063" style="stroke:#181818;stroke-width:0.5;"/><rect fill="#F1F1F1" height="33.9688" rx="12.5" ry="12.5" style="stroke:#181818;stroke-width:0.5;" width="188" x="81" y="318.3086"/><text fill="#000000" font-family="sans-serif" font-size="12" lengthAdjust="spacing" textLength="168" x="91" y="339.4473">Set moduleName Parameter</text><polygon fill="#F1F1F1" points="133.5,269.9063,216.5,269.9063,228.5,281.9063,216.5,293.9063,133.5,293.9063,121.5,281.9063,133.5,269.9063" style="stroke:#181818;stroke-width:0.5;"/><text fill="#000000" font-family="sans-serif" font-size="11" lengthAdjust="spacing" textLength="21" x="179" y="304.1167">yes</text><text fill="#000000" font-family="sans-serif" font-size="11" lengthAdjust="spacing" textLength="83" x="133.5" y="285.7144">Sig is Main Sig</text><polygon fill="#F1F1F1" points="175,372.2773,187,384.2773,175,396.2773,163,384.2773,175,372.2773" style="stroke:#181818;stroke-width:0.5;"/><rect fill="#F1F1F1" height="33.9688" rx="12.5" ry="12.5" style="stroke:#181818;stroke-width:0.5;" width="119" x="115.5" y="416.2773"/><text fill="#000000" font-family="sans-serif" font-size="12" lengthAdjust="spacing" textLength="99" x="125.5" y="437.416">Return Signature</text><ellipse cx="175" cy="481.2461" fill="none" rx="11" ry="11" style="stroke:#222222;stroke-width:1.0;"/><ellipse cx="175" cy="481.2461" fill="#222222" rx="6" ry="6" style="stroke:#222222;stroke-width:1.0;"/><rect fill="#F1F1F1" height="33.9688" rx="12.5" ry="12.5" style="stroke:#181818;stroke-width:0.5;" width="175" x="354.5" y="84"/><text fill="#000000" font-family="sans-serif" font-size="12" lengthAdjust="spacing" textLength="155" x="364.5" y="105.1387">Return Signature from List</text><ellipse cx="442" cy="148.9688" fill="none" rx="11" ry="11" style="stroke:#222222;stroke-width:1.0;"/><ellipse cx="442" cy="148.9688" fill="#222222" rx="6" ry="6" style="stroke:#222222;stroke-width:1.0;"/><line style="stroke:#181818;stroke-width:1.0;" x1="88.5" x2="78.5" y1="149.9688" y2="149.9688"/><line style="stroke:#181818;stroke-width:1.0;" x1="78.5" x2="78.5" y1="149.9688" y2="171.9688"/><polygon fill="#181818" points="74.5,161.9688,78.5,171.9688,82.5,161.9688,78.5,165.9688" style="stroke:#181818;stroke-width:1.0;"/><line style="stroke:#181818;stroke-width:1.0;" x1="261.5" x2="271.5" y1="149.9688" y2="149.9688"/><line style="stroke:#181818;stroke-width:1.0;" x1="271.5" x2="271.5" y1="149.9688" y2="171.9688"/><polygon fill="#181818" points="267.5,161.9688,271.5,171.9688,275.5,161.9688,271.5,165.9688" style="stroke:#181818;stroke-width:1.0;"/><line style="stroke:#181818;stroke-width:1.0;" x1="78.5" x2="78.5" y1="219.9063" y2="237.9063"/><line style="stroke:#181818;stroke-width:1.0;" x1="78.5" x2="163" y1="237.9063" y2="237.9063"/><polygon fill="#181818" points="153,233.9063,163,237.9063,153,241.9063,157,237.9063" style="stroke:#181818;stroke-width:1.0;"/><line style="stroke:#181818;stroke-width:1.0;" x1="271.5" x2="271.5" y1="219.9063" y2="237.9063"/><line style="stroke:#181818;stroke-width:1.0;" x1="271.5" x2="187" y1="237.9063" y2="237.9063"/><polygon fill="#181818" points="197,233.9063,187,237.9063,197,241.9063,193,237.9063" style="stroke:#181818;stroke-width:1.0;"/><line style="stroke:#181818;stroke-width:1.0;" x1="175" x2="175" y1="117.9688" y2="137.9688"/><polygon fill="#181818" points="171,127.9688,175,137.9688,179,127.9688,175,131.9688" style="stroke:#181818;stroke-width:1.0;"/><line style="stroke:#181818;stroke-width:1.0;" x1="175" x2="175" y1="293.9063" y2="318.3086"/><polygon fill="#181818" points="171,308.3086,175,318.3086,179,308.3086,175,312.3086" style="stroke:#181818;stroke-width:1.0;"/><line style="stroke:#181818;stroke-width:1.0;" x1="228.5" x2="279" y1="281.9063" y2="281.9063"/><polygon fill="#181818" points="275,325.293,279,335.293,283,325.293,279,329.293" style="stroke:#181818;stroke-width:1.0;"/><line style="stroke:#181818;stroke-width:1.0;" x1="279" x2="279" y1="281.9063" y2="384.2773"/><line style="stroke:#181818;stroke-width:1.0;" x1="279" x2="187" y1="384.2773" y2="384.2773"/><polygon fill="#181818" points="197,380.2773,187,384.2773,197,388.2773,193,384.2773" style="stroke:#181818;stroke-width:1.0;"/><line style="stroke:#181818;stroke-width:1.0;" x1="175" x2="175" y1="352.2773" y2="372.2773"/><polygon fill="#181818" points="171,362.2773,175,372.2773,179,362.2773,175,366.2773" style="stroke:#181818;stroke-width:1.0;"/><line style="stroke:#181818;stroke-width:1.0;" x1="175" x2="175" y1="249.9063" y2="269.9063"/><polygon fill="#181818" points="171,259.9063,175,269.9063,179,259.9063,175,263.9063" style="stroke:#181818;stroke-width:1.0;"/><line style="stroke:#181818;stroke-width:1.0;" x1="175" x2="175" y1="396.2773" y2="416.2773"/><polygon fill="#181818" points="171,406.2773,175,416.2773,179,406.2773,175,410.2773" style="stroke:#181818;stroke-width:1.0;"/><line style="stroke:#181818;stroke-width:1.0;" x1="175" x2="175" y1="450.2461" y2="470.2461"/><polygon fill="#181818" points="171,460.2461,175,470.2461,179,460.2461,175,464.2461" style="stroke:#181818;stroke-width:1.0;"/><line style="stroke:#181818;stroke-width:1.0;" x1="442" x2="442" y1="117.9688" y2="137.9688"/><polygon fill="#181818" points="438,127.9688,442,137.9688,446,127.9688,442,131.9688" style="stroke:#181818;stroke-width:1.0;"/><line style="stroke:#181818;stroke-width:1.0;" x1="243.5" x2="175" y1="62" y2="62"/><line style="stroke:#181818;stroke-width:1.0;" x1="175" x2="175" y1="62" y2="84"/><polygon fill="#181818" points="171,74,175,84,179,74,175,78" style="stroke:#181818;stroke-width:1.0;"/><line style="stroke:#181818;stroke-width:1.0;" x1="373.5" x2="442" y1="62" y2="62"/><line style="stroke:#181818;stroke-width:1.0;" x1="442" x2="442" y1="62" y2="84"/><polygon fill="#181818" points="438,74,442,84,446,74,442,78" style="stroke:#181818;stroke-width:1.0;"/><line style="stroke:#181818;stroke-width:1.0;" x1="308.5" x2="308.5" y1="30" y2="50"/><polygon fill="#181818" points="304.5,40,308.5,50,312.5,40,308.5,44" style="stroke:#181818;stroke-width:1.0;"/><!--SRC=[VP113e8m44NtFSLVmXLWYIOk58sSe86fDA6jwGn6Rs-B2oDHLvsax_zv6HOTHS4Q59szO1E8qGR1zcvPIiX87iM3k5IecaXQ2ATeNMBhBwcTlgL_7Sd_o6PQCnIQqKu3Wi6nx-V4zvJwQ68gVFZBlzepx0ThiiEYO1a7RNqEh3Pt971Xc2TgjLliqYCKtnNLcMIEIzRhD6KLbd3z45epC34uxDELQgKo_GG0]--></g></svg>