<?xml version="1.0" encoding="us-ascii" standalone="no"?><svg xmlns="http://www.w3.org/2000/svg" xmlns:xlink="http://www.w3.org/1999/xlink" contentStyleType="text/css" height="618px" preserveAspectRatio="none" style="width:388px;height:618px;background:#FFFFFF;" version="1.1" viewBox="0 0 388 618" width="388px" zoomAndPan="magnify"><defs/><g><ellipse cx="238.75" cy="20" fill="#222222" rx="10" ry="10" style="stroke:#222222;stroke-width:1.0;"/><rect fill="#F1F1F1" height="33.9688" rx="12.5" ry="12.5" style="stroke:#181818;stroke-width:0.5;" width="206" x="135.75" y="50"/><text fill="#000000" font-family="sans-serif" font-size="12" lengthAdjust="spacing" textLength="186" x="145.75" y="71.1387">Create fieldNames String Array</text><rect fill="#F1F1F1" height="33.9688" rx="12.5" ry="12.5" style="stroke:#181818;stroke-width:0.5;" width="210" x="133.75" y="103.9688"/><text fill="#000000" font-family="sans-serif" font-size="12" lengthAdjust="spacing" textLength="190" x="143.75" y="125.1074">Convert fieldNamesList to Array</text><rect fill="#F1F1F1" height="33.9688" rx="12.5" ry="12.5" style="stroke:#181818;stroke-width:0.5;" width="136" x="170.75" y="157.9375"/><text fill="#000000" font-family="sans-serif" font-size="12" lengthAdjust="spacing" textLength="116" x="180.75" y="179.0762">Instantiate Sig.Field</text><rect fill="#F1F1F1" height="33.9688" rx="12.5" ry="12.5" style="stroke:#181818;stroke-width:0.5;" width="121" x="178.25" y="211.9063"/><text fill="#000000" font-family="sans-serif" font-size="12" lengthAdjust="spacing" textLength="101" x="188.25" y="233.0449">Create Signature</text><polygon fill="#F1F1F1" points="181.75,265.875,295.75,265.875,307.75,277.875,295.75,289.875,181.75,289.875,169.75,277.875,181.75,265.875" style="stroke:#181818;stroke-width:0.5;"/><text fill="#000000" font-family="sans-serif" font-size="11" lengthAdjust="spacing" textLength="114" x="181.75" y="281.6831">Signature is not null</text><text fill="#000000" font-family="sans-serif" font-size="11" lengthAdjust="spacing" textLength="21" x="148.75" y="275.2808">yes</text><text fill="#000000" font-family="sans-serif" font-size="11" lengthAdjust="spacing" textLength="14" x="307.75" y="275.2808">no</text><rect fill="#F1F1F1" height="33.9688" rx="12.5" ry="12.5" style="stroke:#181818;stroke-width:0.5;" width="115" x="84" y="299.875"/><text fill="#000000" font-family="sans-serif" font-size="12" lengthAdjust="spacing" textLength="95" x="94" y="321.0137">Create Sig.Field</text><rect fill="#F1F1F1" height="33.9688" rx="12.5" ry="12.5" style="stroke:#181818;stroke-width:0.5;" width="82" x="100.5" y="402.2461"/><text fill="#000000" font-family="sans-serif" font-size="12" lengthAdjust="spacing" textLength="62" x="110.5" y="423.3848">Return null</text><ellipse cx="141.5" cy="478.7305" fill="none" rx="11" ry="11" style="stroke:#222222;stroke-width:1.0;"/><ellipse cx="141.5" cy="478.7305" fill="#222222" rx="6" ry="6" style="stroke:#222222;stroke-width:1.0;"/><polygon fill="#F1F1F1" points="32,353.8438,251,353.8438,263,365.8438,251,377.8438,32,377.8438,20,365.8438,32,353.8438" style="stroke:#181818;stroke-width:0.5;"/><text fill="#000000" font-family="sans-serif" font-size="11" lengthAdjust="spacing" textLength="21" x="145.5" y="388.0542">yes</text><text fill="#000000" font-family="sans-serif" font-size="11" lengthAdjust="spacing" textLength="219" x="32" y="369.6519">Sig.Field length ! = fieldNames length</text><rect fill="#F1F1F1" height="33.9688" rx="12.5" ry="12.5" style="stroke:#181818;stroke-width:0.5;" width="82" x="295" y="299.875"/><text fill="#000000" font-family="sans-serif" font-size="12" lengthAdjust="spacing" textLength="62" x="305" y="321.0137">Return null</text><ellipse cx="336" cy="364.8438" fill="none" rx="11" ry="11" style="stroke:#222222;stroke-width:1.0;"/><ellipse cx="336" cy="364.8438" fill="#222222" rx="6" ry="6" style="stroke:#222222;stroke-width:1.0;"/><rect fill="#F1F1F1" height="33.9688" rx="12.5" ry="12.5" style="stroke:#181818;stroke-width:0.5;" width="113" x="182.25" y="531.7305"/><text fill="#000000" font-family="sans-serif" font-size="12" lengthAdjust="spacing" textLength="93" x="192.25" y="552.8691">Return Sig.Field</text><ellipse cx="238.75" cy="596.6992" fill="none" rx="11" ry="11" style="stroke:#222222;stroke-width:1.0;"/><ellipse cx="238.75" cy="596.6992" fill="#222222" rx="6" ry="6" style="stroke:#222222;stroke-width:1.0;"/><line style="stroke:#181818;stroke-width:1.0;" x1="238.75" x2="238.75" y1="30" y2="50"/><polygon fill="#181818" points="234.75,40,238.75,50,242.75,40,238.75,44" style="stroke:#181818;stroke-width:1.0;"/><line style="stroke:#181818;stroke-width:1.0;" x1="238.75" x2="238.75" y1="83.9688" y2="103.9688"/><polygon fill="#181818" points="234.75,93.9688,238.75,103.9688,242.75,93.9688,238.75,97.9688" style="stroke:#181818;stroke-width:1.0;"/><line style="stroke:#181818;stroke-width:1.0;" x1="238.75" x2="238.75" y1="137.9375" y2="157.9375"/><polygon fill="#181818" points="234.75,147.9375,238.75,157.9375,242.75,147.9375,238.75,151.9375" style="stroke:#181818;stroke-width:1.0;"/><line style="stroke:#181818;stroke-width:1.0;" x1="238.75" x2="238.75" y1="191.9063" y2="211.9063"/><polygon fill="#181818" points="234.75,201.9063,238.75,211.9063,242.75,201.9063,238.75,205.9063" style="stroke:#181818;stroke-width:1.0;"/><line style="stroke:#181818;stroke-width:1.0;" x1="141.5" x2="141.5" y1="436.2148" y2="467.7305"/><polygon fill="#181818" points="137.5,457.7305,141.5,467.7305,145.5,457.7305,141.5,461.7305" style="stroke:#181818;stroke-width:1.0;"/><line style="stroke:#181818;stroke-width:1.0;" x1="141.5" x2="141.5" y1="377.8438" y2="402.2461"/><polygon fill="#181818" points="137.5,392.2461,141.5,402.2461,145.5,392.2461,141.5,396.2461" style="stroke:#181818;stroke-width:1.0;"/><line style="stroke:#181818;stroke-width:1.0;" x1="263" x2="275" y1="365.8438" y2="365.8438"/><polygon fill="#181818" points="271,437.7305,275,447.7305,279,437.7305,275,441.7305" style="stroke:#181818;stroke-width:1.0;"/><line style="stroke:#181818;stroke-width:1.0;" x1="275" x2="275" y1="365.8438" y2="516.7305"/><line style="stroke:#181818;stroke-width:1.0;" x1="275" x2="238.75" y1="516.7305" y2="516.7305"/><line style="stroke:#181818;stroke-width:1.0;" x1="238.75" x2="238.75" y1="516.7305" y2="531.7305"/><polygon fill="#181818" points="234.75,521.7305,238.75,531.7305,242.75,521.7305,238.75,525.7305" style="stroke:#181818;stroke-width:1.0;"/><line style="stroke:#181818;stroke-width:1.0;" x1="141.5" x2="141.5" y1="333.8438" y2="353.8438"/><polygon fill="#181818" points="137.5,343.8438,141.5,353.8438,145.5,343.8438,141.5,347.8438" style="stroke:#181818;stroke-width:1.0;"/><line style="stroke:#181818;stroke-width:1.0;" x1="336" x2="336" y1="333.8438" y2="353.8438"/><polygon fill="#181818" points="332,343.8438,336,353.8438,340,343.8438,336,347.8438" style="stroke:#181818;stroke-width:1.0;"/><line style="stroke:#181818;stroke-width:1.0;" x1="169.75" x2="141.5" y1="277.875" y2="277.875"/><line style="stroke:#181818;stroke-width:1.0;" x1="141.5" x2="141.5" y1="277.875" y2="299.875"/><polygon fill="#181818" points="137.5,289.875,141.5,299.875,145.5,289.875,141.5,293.875" style="stroke:#181818;stroke-width:1.0;"/><line style="stroke:#181818;stroke-width:1.0;" x1="307.75" x2="336" y1="277.875" y2="277.875"/><line style="stroke:#181818;stroke-width:1.0;" x1="336" x2="336" y1="277.875" y2="299.875"/><polygon fill="#181818" points="332,289.875,336,299.875,340,289.875,336,293.875" style="stroke:#181818;stroke-width:1.0;"/><line style="stroke:#181818;stroke-width:1.0;" x1="238.75" x2="238.75" y1="245.875" y2="265.875"/><polygon fill="#181818" points="234.75,255.875,238.75,265.875,242.75,255.875,238.75,259.875" style="stroke:#181818;stroke-width:1.0;"/><line style="stroke:#181818;stroke-width:1.0;" x1="238.75" x2="238.75" y1="565.6992" y2="585.6992"/><polygon fill="#181818" points="234.75,575.6992,238.75,585.6992,242.75,575.6992,238.75,579.6992" style="stroke:#181818;stroke-width:1.0;"/><!--SRC=[VOv12i9034NtSuguQpSUmC65288WBjeJ33Hj0sD6abJexMsjBUF6PPBtNxvQ47E7is0mX9OmDlVmG8NQXBY3aqWO_GGaVg5OHjn83Injn9NL0XlDdfgw_MKc_QQULXni4FIEMYYs4KY1am4FCPPWFJ8K8sgP1rVNDxYC494xws47nxptilqrLJXzuiyBxzJIqo4tr3gCYWMdFyHwo4hCrpS0]--></g></svg>