<?xml version="1.0" encoding="us-ascii" standalone="no"?><svg xmlns="http://www.w3.org/2000/svg" xmlns:xlink="http://www.w3.org/1999/xlink" contentStyleType="text/css" height="212px" preserveAspectRatio="none" style="width:212px;height:212px;background:#FFFFFF;" version="1.1" viewBox="0 0 212 212" width="212px" zoomAndPan="magnify"><defs/><g><ellipse cx="106" cy="20" fill="#222222" rx="10" ry="10" style="stroke:#222222;stroke-width:1.0;"/><rect fill="#F1F1F1" height="33.9688" rx="12.5" ry="12.5" style="stroke:#181818;stroke-width:0.5;" width="146" x="33" y="71.3989"/><text fill="#000000" font-family="sans-serif" font-size="12" lengthAdjust="spacing" textLength="126" x="43" y="92.5376">Construct Alloy Class</text><rect fill="#F1F1F1" height="33.9688" rx="12.5" ry="12.5" style="stroke:#181818;stroke-width:0.5;" width="190" x="11" y="125.3677"/><text fill="#000000" font-family="sans-serif" font-size="12" lengthAdjust="spacing" textLength="170" x="21" y="146.5063">Create HashMap sigByName</text><ellipse cx="106" cy="190.3364" fill="none" rx="11" ry="11" style="stroke:#222222;stroke-width:1.0;"/><ellipse cx="106" cy="190.3364" fill="#222222" rx="6" ry="6" style="stroke:#222222;stroke-width:1.0;"/><line style="stroke:#181818;stroke-width:1.0;" x1="106" x2="106" y1="30" y2="71.3989"/><polygon fill="#181818" points="102,61.3989,106,71.3989,110,61.3989,106,65.3989" style="stroke:#181818;stroke-width:1.0;"/><text fill="#000000" font-family="sans-serif" font-size="11" lengthAdjust="spacing" textLength="88" x="110" y="51.3047">File Path: String</text><line style="stroke:#181818;stroke-width:1.0;" x1="106" x2="106" y1="105.3677" y2="125.3677"/><polygon fill="#181818" points="102,115.3677,106,125.3677,110,115.3677,106,119.3677" style="stroke:#181818;stroke-width:1.0;"/><line style="stroke:#181818;stroke-width:1.0;" x1="106" x2="106" y1="159.3364" y2="179.3364"/><polygon fill="#181818" points="102,169.3364,106,179.3364,110,169.3364,106,173.3364" style="stroke:#181818;stroke-width:1.0;"/><!--SRC=[Aov9B2hXqhLJSClCILK8I2p9i588BYdAp4ktvh9opiyhBYagJIvHSCp9oQzKSCv9B2u6YHUb9fQaAdWa5cVu9XOe56UcErNw9UQcMdCLb-GN0000]--></g></svg>