<?xml version="1.0" encoding="us-ascii" standalone="no"?><svg xmlns="http://www.w3.org/2000/svg" xmlns:xlink="http://www.w3.org/1999/xlink" contentStyleType="text/css" height="362px" preserveAspectRatio="none" style="width:214px;height:362px;background:#FFFFFF;" version="1.1" viewBox="0 0 214 362" width="214px" zoomAndPan="magnify"><defs/><g><ellipse cx="108.5" cy="20" fill="#222222" rx="10" ry="10" style="stroke:#222222;stroke-width:1.0;"/><rect fill="#F1F1F1" height="33.9688" rx="12.5" ry="12.5" style="stroke:#181818;stroke-width:0.5;" width="102" x="57.5" y="50"/><text fill="#000000" font-family="sans-serif" font-size="12" lengthAdjust="spacing" textLength="82" x="67.5" y="71.1387">Get Signature</text><rect fill="#F1F1F1" height="33.9688" rx="12.5" ry="12.5" style="stroke:#181818;stroke-width:0.5;" width="147" x="35" y="103.9688"/><text fill="#000000" font-family="sans-serif" font-size="12" lengthAdjust="spacing" textLength="127" x="45" y="125.1074">Create ExprVar Class</text><rect fill="#F1F1F1" height="33.9688" rx="12.5" ry="12.5" style="stroke:#181818;stroke-width:0.5;" width="129" x="44" y="157.9375"/><text fill="#000000" font-family="sans-serif" font-size="12" lengthAdjust="spacing" textLength="109" x="54" y="179.0762">Get Field from Sig</text><polygon fill="#F1F1F1" points="75,211.9063,142,211.9063,154,223.9063,142,235.9063,75,235.9063,63,223.9063,75,211.9063" style="stroke:#181818;stroke-width:0.5;"/><text fill="#000000" font-family="sans-serif" font-size="11" lengthAdjust="spacing" textLength="67" x="75" y="227.7144">field != null</text><text fill="#000000" font-family="sans-serif" font-size="11" lengthAdjust="spacing" textLength="21" x="42" y="221.312">yes</text><text fill="#000000" font-family="sans-serif" font-size="11" lengthAdjust="spacing" textLength="14" x="154" y="221.312">no</text><rect fill="#F1F1F1" height="33.9688" rx="12.5" ry="12.5" style="stroke:#181818;stroke-width:0.5;" width="84" x="11" y="245.9063"/><text fill="#000000" font-family="sans-serif" font-size="12" lengthAdjust="spacing" textLength="64" x="21" y="267.0449">Add Inputs</text><rect fill="#F1F1F1" height="33.9688" rx="12.5" ry="12.5" style="stroke:#181818;stroke-width:0.5;" width="79" x="124.5" y="245.9063"/><text fill="#000000" font-family="sans-serif" font-size="12" lengthAdjust="spacing" textLength="59" x="134.5" y="267.0449">Print Error</text><polygon fill="#F1F1F1" points="108.5,285.875,120.5,297.875,108.5,309.875,96.5,297.875,108.5,285.875" style="stroke:#181818;stroke-width:0.5;"/><ellipse cx="108.5" cy="340.875" fill="none" rx="11" ry="11" style="stroke:#222222;stroke-width:1.0;"/><ellipse cx="108.5" cy="340.875" fill="#222222" rx="6" ry="6" style="stroke:#222222;stroke-width:1.0;"/><line style="stroke:#181818;stroke-width:1.0;" x1="108.5" x2="108.5" y1="30" y2="50"/><polygon fill="#181818" points="104.5,40,108.5,50,112.5,40,108.5,44" style="stroke:#181818;stroke-width:1.0;"/><line style="stroke:#181818;stroke-width:1.0;" x1="108.5" x2="108.5" y1="83.9688" y2="103.9688"/><polygon fill="#181818" points="104.5,93.9688,108.5,103.9688,112.5,93.9688,108.5,97.9688" style="stroke:#181818;stroke-width:1.0;"/><line style="stroke:#181818;stroke-width:1.0;" x1="108.5" x2="108.5" y1="137.9375" y2="157.9375"/><polygon fill="#181818" points="104.5,147.9375,108.5,157.9375,112.5,147.9375,108.5,151.9375" style="stroke:#181818;stroke-width:1.0;"/><line style="stroke:#181818;stroke-width:1.0;" x1="63" x2="53" y1="223.9063" y2="223.9063"/><line style="stroke:#181818;stroke-width:1.0;" x1="53" x2="53" y1="223.9063" y2="245.9063"/><polygon fill="#181818" points="49,235.9063,53,245.9063,57,235.9063,53,239.9063" style="stroke:#181818;stroke-width:1.0;"/><line style="stroke:#181818;stroke-width:1.0;" x1="154" x2="164" y1="223.9063" y2="223.9063"/><line style="stroke:#181818;stroke-width:1.0;" x1="164" x2="164" y1="223.9063" y2="245.9063"/><polygon fill="#181818" points="160,235.9063,164,245.9063,168,235.9063,164,239.9063" style="stroke:#181818;stroke-width:1.0;"/><line style="stroke:#181818;stroke-width:1.0;" x1="53" x2="53" y1="279.875" y2="297.875"/><line style="stroke:#181818;stroke-width:1.0;" x1="53" x2="96.5" y1="297.875" y2="297.875"/><polygon fill="#181818" points="86.5,293.875,96.5,297.875,86.5,301.875,90.5,297.875" style="stroke:#181818;stroke-width:1.0;"/><line style="stroke:#181818;stroke-width:1.0;" x1="164" x2="164" y1="279.875" y2="297.875"/><line style="stroke:#181818;stroke-width:1.0;" x1="164" x2="120.5" y1="297.875" y2="297.875"/><polygon fill="#181818" points="130.5,293.875,120.5,297.875,130.5,301.875,126.5,297.875" style="stroke:#181818;stroke-width:1.0;"/><line style="stroke:#181818;stroke-width:1.0;" x1="108.5" x2="108.5" y1="191.9063" y2="211.9063"/><polygon fill="#181818" points="104.5,201.9063,108.5,211.9063,112.5,201.9063,108.5,205.9063" style="stroke:#181818;stroke-width:1.0;"/><line style="stroke:#181818;stroke-width:1.0;" x1="108.5" x2="108.5" y1="309.875" y2="329.875"/><polygon fill="#181818" points="104.5,319.875,108.5,329.875,112.5,319.875,108.5,323.875" style="stroke:#181818;stroke-width:1.0;"/><!--SRC=[9On12W8n303lUKMyjLzeyI3BAju4mNkXgHPgMf8KzFUkUXrcHYs9GJYHuRNUETaKYX0MeMI4wsl8BGakBQd6ltQir38MwSzl4Q4MTEN7TdlasPf7Un2ZUvDwX7386Syyfcq3QagEkuTmaSg6gqYN3NEk1TJw-000]--></g></svg>