<svg xmlns="http://www.w3.org/2000/svg" xmlns:xlink="http://www.w3.org/1999/xlink" contentStyleType="text/css" height="172px" preserveAspectRatio="none" style="width:335px;height:172px;background:#FFFFFF;" version="1.1" viewBox="0 0 335 172" width="335px" zoomAndPan="magnify"><defs/><g><ellipse cx="168.5239" cy="20" fill="#222222" rx="10" ry="10" style="stroke:#222222;stroke-width:1.0;"/><polygon fill="#F1F1F1" points="79.4658,50,257.582,50,269.582,62.8047,257.582,75.6094,79.4658,75.6094,67.4658,62.8047,79.4658,50" style="stroke:#181818;stroke-width:0.5;"/><text fill="#000000" font-family="sans-serif" font-size="11" lengthAdjust="spacing" textLength="4.2915" x="79.4658" y="60.2104">(</text><text fill="#000000" font-family="sans-serif" font-size="11" font-style="italic" lengthAdjust="spacing" textLength="91.271" x="83.7573" y="60.2104">_parentSigName</text><text fill="#000000" font-family="sans-serif" font-size="11" lengthAdjust="spacing" textLength="56.7349" x="178.5249" y="60.2104">== null or</text><text fill="#000000" font-family="sans-serif" font-size="11" font-style="italic" lengthAdjust="spacing" textLength="91.271" x="79.4658" y="73.0151">_parentSigName</text><text fill="#000000" font-family="sans-serif" font-size="11" lengthAdjust="spacing" textLength="83.3486" x="174.2334" y="73.0151">is invalid name</text><text fill="#000000" font-family="sans-serif" font-size="11" lengthAdjust="spacing" textLength="19.0083" x="48.4575" y="60.2104">yes</text><rect fill="#F1F1F1" height="33.9688" rx="12.5" ry="12.5" style="stroke:#181818;stroke-width:0.5;" width="92.9316" x="11" y="85.6094"/><text fill="#000000" font-family="sans-serif" font-size="12" lengthAdjust="spacing" textLength="72.9316" x="21" y="106.748">Return false</text><ellipse cx="57.4658" cy="150.5781" fill="none" rx="11" ry="11" style="stroke:#222222;stroke-width:1.0;"/><ellipse cx="57.4658" cy="150.5781" fill="#222222" rx="6" ry="6" style="stroke:#222222;stroke-width:1.0;"/><rect fill="#F1F1F1" height="33.9688" rx="12.5" ry="12.5" style="stroke:#181818;stroke-width:0.5;" width="89.0117" x="235.0762" y="85.6094"/><text fill="#000000" font-family="sans-serif" font-size="12" lengthAdjust="spacing" textLength="69.0117" x="245.0762" y="106.748">Return true</text><ellipse cx="279.582" cy="150.5781" fill="none" rx="11" ry="11" style="stroke:#222222;stroke-width:1.0;"/><ellipse cx="279.582" cy="150.5781" fill="#222222" rx="6" ry="6" style="stroke:#222222;stroke-width:1.0;"/><line style="stroke:#181818;stroke-width:1.0;" x1="57.4658" x2="57.4658" y1="119.5781" y2="139.5781"/><polygon fill="#181818" points="53.4658,129.5781,57.4658,139.5781,61.4658,129.5781,57.4658,133.5781" style="stroke:#181818;stroke-width:1.0;"/><line style="stroke:#181818;stroke-width:1.0;" x1="279.582" x2="279.582" y1="119.5781" y2="139.5781"/><polygon fill="#181818" points="275.582,129.5781,279.582,139.5781,283.582,129.5781,279.582,133.5781" style="stroke:#181818;stroke-width:1.0;"/><line style="stroke:#181818;stroke-width:1.0;" x1="67.4658" x2="57.4658" y1="62.8047" y2="62.8047"/><line style="stroke:#181818;stroke-width:1.0;" x1="57.4658" x2="57.4658" y1="62.8047" y2="85.6094"/><polygon fill="#181818" points="53.4658,75.6094,57.4658,85.6094,61.4658,75.6094,57.4658,79.6094" style="stroke:#181818;stroke-width:1.0;"/><line style="stroke:#181818;stroke-width:1.0;" x1="269.582" x2="279.582" y1="62.8047" y2="62.8047"/><line style="stroke:#181818;stroke-width:1.0;" x1="279.582" x2="279.582" y1="62.8047" y2="85.6094"/><polygon fill="#181818" points="275.582,75.6094,279.582,85.6094,283.582,75.6094,279.582,79.6094" style="stroke:#181818;stroke-width:1.0;"/><line style="stroke:#181818;stroke-width:1.0;" x1="168.5239" x2="168.5239" y1="30" y2="50"/><polygon fill="#181818" points="164.5239,40,168.5239,50,172.5239,40,168.5239,44" style="stroke:#181818;stroke-width:1.0;"/><!--SRC=[RSan3eCm343H6P_2OvYo5t653d20ob9DQoaro7QGk3tfnCBszPy7MO0iAUNysiXOOvRFatwSCuuZQYq5LuCR5KVHdOgyKTlfCRwic0xs7hh7n55DSQ7YF43diMx0hIyAgqt-S080]--></g></svg>