<?xml version="1.0" encoding="us-ascii" standalone="no"?><svg xmlns="http://www.w3.org/2000/svg" xmlns:xlink="http://www.w3.org/1999/xlink" contentStyleType="text/css" height="215px" preserveAspectRatio="none" style="width:266px;height:215px;background:#FFFFFF;" version="1.1" viewBox="0 0 266 215" width="266px" zoomAndPan="magnify"><defs/><g><ellipse cx="131.5" cy="20" fill="#222222" rx="10" ry="10" style="stroke:#222222;stroke-width:1.0;"/><rect fill="#F1F1F1" height="33.9688" rx="12.5" ry="12.5" style="stroke:#181818;stroke-width:0.5;" width="212" x="25.5" y="50"/><text fill="#000000" font-family="sans-serif" font-size="12" lengthAdjust="spacing" textLength="192" x="35.5" y="71.1387">Print Title All reachable modules</text><rect fill="#F1F1F1" height="33.9688" rx="12.5" ry="12.5" style="stroke:#181818;stroke-width:0.5;" width="157" x="53" y="147.9688"/><text fill="#000000" font-family="sans-serif" font-size="12" lengthAdjust="spacing" textLength="137" x="63" y="169.1074">Print Module and Name</text><polygon fill="#F1F1F1" points="47,103.9688,216,103.9688,228,115.9688,216,127.9688,47,127.9688,35,115.9688,47,103.9688" style="stroke:#181818;stroke-width:0.5;"/><text fill="#000000" font-family="sans-serif" font-size="11" lengthAdjust="spacing" textLength="169" x="47" y="119.7769">For all Modules within module</text><ellipse cx="24" cy="158.9688" fill="none" rx="11" ry="11" style="stroke:#222222;stroke-width:1.0;"/><ellipse cx="24" cy="158.9688" fill="#222222" rx="6" ry="6" style="stroke:#222222;stroke-width:1.0;"/><line style="stroke:#181818;stroke-width:1.0;" x1="131.5" x2="131.5" y1="30" y2="50"/><polygon fill="#181818" points="127.5,40,131.5,50,135.5,40,131.5,44" style="stroke:#181818;stroke-width:1.0;"/><line style="stroke:#181818;stroke-width:1.0;" x1="131.5" x2="131.5" y1="127.9688" y2="147.9688"/><polygon fill="#181818" points="127.5,137.9688,131.5,147.9688,135.5,137.9688,131.5,141.9688" style="stroke:#181818;stroke-width:1.0;"/><line style="stroke:#181818;stroke-width:1.0;" x1="131.5" x2="131.5" y1="181.9375" y2="191.9375"/><line style="stroke:#181818;stroke-width:1.0;" x1="131.5" x2="240" y1="191.9375" y2="191.9375"/><polygon fill="#181818" points="236,162.9531,240,152.9531,244,162.9531,240,158.9531" style="stroke:#181818;stroke-width:1.0;"/><line style="stroke:#181818;stroke-width:1.0;" x1="240" x2="240" y1="115.9688" y2="191.9375"/><line style="stroke:#181818;stroke-width:1.0;" x1="240" x2="228" y1="115.9688" y2="115.9688"/><polygon fill="#181818" points="238,111.9688,228,115.9688,238,119.9688,234,115.9688" style="stroke:#181818;stroke-width:1.0;"/><line style="stroke:#181818;stroke-width:1.0;" x1="35" x2="24" y1="115.9688" y2="115.9688"/><line style="stroke:#181818;stroke-width:1.0;" x1="24" x2="24" y1="115.9688" y2="147.9688"/><polygon fill="#181818" points="20,137.9688,24,147.9688,28,137.9688,24,141.9688" style="stroke:#181818;stroke-width:1.0;"/><line style="stroke:#181818;stroke-width:1.0;" x1="131.5" x2="131.5" y1="83.9688" y2="103.9688"/><polygon fill="#181818" points="127.5,93.9688,131.5,103.9688,135.5,93.9688,131.5,97.9688" style="stroke:#181818;stroke-width:1.0;"/><!--SRC=[Aov9B2hXiWeeoimhKGZ9BCb9LN3CoL4eIarCpaXC0l9oyrDASrABhRdACp9pKZNSyeiK4e4AV2722kMP9HcPUL1LcZ238B8AYNaf2dw9kQdMNAbvAM3zNCKb-GK0]--></g></svg>