<?xml version="1.0" encoding="us-ascii" standalone="no"?><svg xmlns="http://www.w3.org/2000/svg" xmlns:xlink="http://www.w3.org/1999/xlink" contentStyleType="text/css" height="323px" preserveAspectRatio="none" style="width:268px;height:323px;background:#FFFFFF;" version="1.1" viewBox="0 0 268 323" width="268px" zoomAndPan="magnify"><defs/><g><ellipse cx="132.5" cy="20" fill="#222222" rx="10" ry="10" style="stroke:#222222;stroke-width:1.0;"/><rect fill="#F1F1F1" height="33.9688" rx="12.5" ry="12.5" style="stroke:#181818;stroke-width:0.5;" width="190" x="37.5" y="50"/><text fill="#000000" font-family="sans-serif" font-size="12" lengthAdjust="spacing" textLength="170" x="47.5" y="71.1387">Print Title AllReachable Facts</text><rect fill="#F1F1F1" height="33.9688" rx="12.5" ry="12.5" style="stroke:#181818;stroke-width:0.5;" width="161" x="52" y="103.9688"/><text fill="#000000" font-family="sans-serif" font-size="12" lengthAdjust="spacing" textLength="141" x="62" y="125.1074">Get All Reachable Facts</text><rect fill="#F1F1F1" height="33.9688" rx="12.5" ry="12.5" style="stroke:#181818;stroke-width:0.5;" width="116" x="74.5" y="157.9375"/><text fill="#000000" font-family="sans-serif" font-size="12" lengthAdjust="spacing" textLength="96" x="84.5" y="179.0762">Print Expression</text><rect fill="#F1F1F1" height="33.9688" rx="12.5" ry="12.5" style="stroke:#181818;stroke-width:0.5;" width="99" x="83" y="255.9063"/><text fill="#000000" font-family="sans-serif" font-size="12" lengthAdjust="spacing" textLength="79" x="93" y="277.0449">Print Function</text><polygon fill="#F1F1F1" points="47,211.9063,218,211.9063,230,223.9063,218,235.9063,47,235.9063,35,223.9063,47,211.9063" style="stroke:#181818;stroke-width:0.5;"/><text fill="#000000" font-family="sans-serif" font-size="11" lengthAdjust="spacing" textLength="171" x="47" y="227.7144">For all Functions in Expression</text><ellipse cx="24" cy="266.9063" fill="none" rx="11" ry="11" style="stroke:#222222;stroke-width:1.0;"/><ellipse cx="24" cy="266.9063" fill="#222222" rx="6" ry="6" style="stroke:#222222;stroke-width:1.0;"/><line style="stroke:#181818;stroke-width:1.0;" x1="132.5" x2="132.5" y1="30" y2="50"/><polygon fill="#181818" points="128.5,40,132.5,50,136.5,40,132.5,44" style="stroke:#181818;stroke-width:1.0;"/><line style="stroke:#181818;stroke-width:1.0;" x1="132.5" x2="132.5" y1="83.9688" y2="103.9688"/><polygon fill="#181818" points="128.5,93.9688,132.5,103.9688,136.5,93.9688,132.5,97.9688" style="stroke:#181818;stroke-width:1.0;"/><line style="stroke:#181818;stroke-width:1.0;" x1="132.5" x2="132.5" y1="137.9375" y2="157.9375"/><polygon fill="#181818" points="128.5,147.9375,132.5,157.9375,136.5,147.9375,132.5,151.9375" style="stroke:#181818;stroke-width:1.0;"/><line style="stroke:#181818;stroke-width:1.0;" x1="132.5" x2="132.5" y1="235.9063" y2="255.9063"/><polygon fill="#181818" points="128.5,245.9063,132.5,255.9063,136.5,245.9063,132.5,249.9063" style="stroke:#181818;stroke-width:1.0;"/><line style="stroke:#181818;stroke-width:1.0;" x1="132.5" x2="132.5" y1="289.875" y2="299.875"/><line style="stroke:#181818;stroke-width:1.0;" x1="132.5" x2="242" y1="299.875" y2="299.875"/><polygon fill="#181818" points="238,270.8906,242,260.8906,246,270.8906,242,266.8906" style="stroke:#181818;stroke-width:1.0;"/><line style="stroke:#181818;stroke-width:1.0;" x1="242" x2="242" y1="223.9063" y2="299.875"/><line style="stroke:#181818;stroke-width:1.0;" x1="242" x2="230" y1="223.9063" y2="223.9063"/><polygon fill="#181818" points="240,219.9063,230,223.9063,240,227.9063,236,223.9063" style="stroke:#181818;stroke-width:1.0;"/><line style="stroke:#181818;stroke-width:1.0;" x1="35" x2="24" y1="223.9063" y2="223.9063"/><line style="stroke:#181818;stroke-width:1.0;" x1="24" x2="24" y1="223.9063" y2="255.9063"/><polygon fill="#181818" points="20,245.9063,24,255.9063,28,245.9063,24,249.9063" style="stroke:#181818;stroke-width:1.0;"/><line style="stroke:#181818;stroke-width:1.0;" x1="132.5" x2="132.5" y1="191.9063" y2="211.9063"/><polygon fill="#181818" points="128.5,201.9063,132.5,211.9063,136.5,201.9063,132.5,205.9063" style="stroke:#181818;stroke-width:1.0;"/><!--SRC=[Aov9B2hXiWeeoimhKGZ9BCb9LN3CoGbAJKpEI4m2SjmIaqkAhRcit5DBG18Ac38GhQuL1KMfnSMP-NdMNEKPcJcf6cxvHGg9G1rkfNd99K3nOeNCF2HbcZ2TC7bhhjIy5B1MhkAI_080]--></g></svg>