<?xml version="1.0" encoding="us-ascii" standalone="no"?><svg xmlns="http://www.w3.org/2000/svg" xmlns:xlink="http://www.w3.org/1999/xlink" contentStyleType="text/css" height="352px" preserveAspectRatio="none" style="width:311px;height:352px;background:#FFFFFF;" version="1.1" viewBox="0 0 311 352" width="311px" zoomAndPan="magnify"><defs/><g><ellipse cx="155.5" cy="20" fill="#222222" rx="10" ry="10" style="stroke:#222222;stroke-width:1.0;"/><rect fill="#F1F1F1" height="33.9688" rx="12.5" ry="12.5" style="stroke:#181818;stroke-width:0.5;" width="103" x="104" y="50"/><text fill="#000000" font-family="sans-serif" font-size="12" lengthAdjust="spacing" textLength="83" x="114" y="71.1387">Make ExprVar</text><rect fill="#F1F1F1" height="33.9688" rx="12.5" ry="12.5" style="stroke:#181818;stroke-width:0.5;" width="194" x="58.5" y="103.9688"/><text fill="#000000" font-family="sans-serif" font-size="12" lengthAdjust="spacing" textLength="174" x="68.5" y="125.1074">Call Inverse Function Filtered</text><rect fill="#F1F1F1" height="33.9688" rx="12.5" ry="12.5" style="stroke:#181818;stroke-width:0.5;" width="145" x="83" y="157.9375"/><text fill="#000000" font-family="sans-serif" font-size="12" lengthAdjust="spacing" textLength="125" x="93" y="179.0762">Create new ArrayList</text><rect fill="#F1F1F1" height="33.9688" rx="12.5" ry="12.5" style="stroke:#181818;stroke-width:0.5;" width="161" x="75" y="211.9063"/><text fill="#000000" font-family="sans-serif" font-size="12" lengthAdjust="spacing" textLength="141" x="85" y="233.0449">Create new Declaration</text><rect fill="#F1F1F1" height="33.9688" rx="12.5" ry="12.5" style="stroke:#181818;stroke-width:0.5;" width="289" x="11" y="265.875"/><text fill="#000000" font-family="sans-serif" font-size="12" lengthAdjust="spacing" textLength="269" x="21" y="287.0137">Add Inverse Function Filtered to Overall Fact</text><ellipse cx="155.5" cy="330.8438" fill="none" rx="11" ry="11" style="stroke:#222222;stroke-width:1.0;"/><ellipse cx="155.5" cy="330.8438" fill="#222222" rx="6" ry="6" style="stroke:#222222;stroke-width:1.0;"/><line style="stroke:#181818;stroke-width:1.0;" x1="155.5" x2="155.5" y1="30" y2="50"/><polygon fill="#181818" points="151.5,40,155.5,50,159.5,40,155.5,44" style="stroke:#181818;stroke-width:1.0;"/><line style="stroke:#181818;stroke-width:1.0;" x1="155.5" x2="155.5" y1="83.9688" y2="103.9688"/><polygon fill="#181818" points="151.5,93.9688,155.5,103.9688,159.5,93.9688,155.5,97.9688" style="stroke:#181818;stroke-width:1.0;"/><line style="stroke:#181818;stroke-width:1.0;" x1="155.5" x2="155.5" y1="137.9375" y2="157.9375"/><polygon fill="#181818" points="151.5,147.9375,155.5,157.9375,159.5,147.9375,155.5,151.9375" style="stroke:#181818;stroke-width:1.0;"/><line style="stroke:#181818;stroke-width:1.0;" x1="155.5" x2="155.5" y1="191.9063" y2="211.9063"/><polygon fill="#181818" points="151.5,201.9063,155.5,211.9063,159.5,201.9063,155.5,205.9063" style="stroke:#181818;stroke-width:1.0;"/><line style="stroke:#181818;stroke-width:1.0;" x1="155.5" x2="155.5" y1="245.875" y2="265.875"/><polygon fill="#181818" points="151.5,255.875,155.5,265.875,159.5,255.875,155.5,259.875" style="stroke:#181818;stroke-width:1.0;"/><line style="stroke:#181818;stroke-width:1.0;" x1="155.5" x2="155.5" y1="299.8438" y2="319.8438"/><polygon fill="#181818" points="151.5,309.8438,155.5,319.8438,159.5,309.8438,155.5,313.8438" style="stroke:#181818;stroke-width:1.0;"/><!--SRC=[TOqx3eCm44HxJh7dW0ebiHG9b2xzoDx2mhBHUFExVUoIWdRUp9jge0tZYatbzjtv1ATXl20bkUUtigguL_OMInONaoarz08LffBr8pE9tnAh7UEh-WIY3nkOGpZtYHLvDDPF7NmJLIlx7m00]--></g></svg>