<svg xmlns="http://www.w3.org/2000/svg" xmlns:xlink="http://www.w3.org/1999/xlink" contentStyleType="text/css" height="369px" preserveAspectRatio="none" style="width:250px;height:369px;background:#FFFFFF;" version="1.1" viewBox="0 0 250 369" width="250px" zoomAndPan="magnify"><defs/><g><ellipse cx="125.4001" cy="20" fill="#222222" rx="10" ry="10" style="stroke:#222222;stroke-width:1.0;"/><rect fill="#F1F1F1" height="33.9688" rx="12.5" ry="12.5" style="stroke:#181818;stroke-width:0.5;" width="92.9551" x="78.9226" y="142.4023"/><text fill="#000000" font-family="sans-serif" font-size="12" lengthAdjust="spacing" textLength="72.9551" x="88.9226" y="163.541">Return Field</text><ellipse cx="125.4001" cy="207.3711" fill="none" rx="11" ry="11" style="stroke:#222222;stroke-width:1.0;"/><ellipse cx="125.4001" cy="207.3711" fill="#222222" rx="6" ry="6" style="stroke:#222222;stroke-width:1.0;"/><polygon fill="#F1F1F1" points="48,94,202.8003,94,214.8003,106,202.8003,118,48,118,36,106,48,94" style="stroke:#181818;stroke-width:0.5;"/><text fill="#000000" font-family="sans-serif" font-size="11" lengthAdjust="spacing" textLength="19.0083" x="129.4001" y="128.2104">yes</text><text fill="#000000" font-family="sans-serif" font-size="11" lengthAdjust="spacing" textLength="154.8003" x="48" y="109.8081">current field == fieldName?</text><polygon fill="#F1F1F1" points="61.9326,50,188.8677,50,200.8677,62,188.8677,74,61.9326,74,49.9326,62,61.9326,50" style="stroke:#181818;stroke-width:0.5;"/><text fill="#000000" font-family="sans-serif" font-size="11" lengthAdjust="spacing" textLength="126.9351" x="61.9326" y="65.8081">For All Signature Fields</text><rect fill="#F1F1F1" height="33.9688" rx="12.5" ry="12.5" style="stroke:#181818;stroke-width:0.5;" width="86.2637" x="82.2683" y="282.3711"/><text fill="#000000" font-family="sans-serif" font-size="12" lengthAdjust="spacing" textLength="66.2637" x="92.2683" y="303.5098">Return null</text><ellipse cx="125.4001" cy="347.3398" fill="none" rx="11" ry="11" style="stroke:#222222;stroke-width:1.0;"/><ellipse cx="125.4001" cy="347.3398" fill="#222222" rx="6" ry="6" style="stroke:#222222;stroke-width:1.0;"/><line style="stroke:#181818;stroke-width:1.0;" x1="125.4001" x2="125.4001" y1="176.3711" y2="196.3711"/><polygon fill="#181818" points="121.4001,186.3711,125.4001,196.3711,129.4001,186.3711,125.4001,190.3711" style="stroke:#181818;stroke-width:1.0;"/><line style="stroke:#181818;stroke-width:1.0;" x1="125.4001" x2="125.4001" y1="118" y2="142.4023"/><polygon fill="#181818" points="121.4001,132.4023,125.4001,142.4023,129.4001,132.4023,125.4001,136.4023" style="stroke:#181818;stroke-width:1.0;"/><line style="stroke:#181818;stroke-width:1.0;" x1="214.8003" x2="238.8003" y1="106" y2="106"/><line style="stroke:#181818;stroke-width:1.0;" x1="238.8003" x2="238.8003" y1="62" y2="106"/><line style="stroke:#181818;stroke-width:1.0;" x1="238.8003" x2="200.8677" y1="62" y2="62"/><polygon fill="#181818" points="210.8677,58,200.8677,62,210.8677,66,206.8677,62" style="stroke:#181818;stroke-width:1.0;"/><line style="stroke:#181818;stroke-width:1.0;" x1="125.4001" x2="125.4001" y1="74" y2="94"/><polygon fill="#181818" points="121.4001,84,125.4001,94,129.4001,84,125.4001,88" style="stroke:#181818;stroke-width:1.0;"/><line style="stroke:#181818;stroke-width:1.0;" x1="49.9326" x2="24" y1="62" y2="62"/><polygon fill="#181818" points="20,162.8867,24,172.8867,28,162.8867,24,166.8867" style="stroke:#181818;stroke-width:1.0;"/><line style="stroke:#181818;stroke-width:1.0;" x1="24" x2="24" y1="62" y2="262.3711"/><line style="stroke:#181818;stroke-width:1.0;" x1="24" x2="125.4001" y1="262.3711" y2="262.3711"/><line style="stroke:#181818;stroke-width:1.0;" x1="125.4001" x2="125.4001" y1="262.3711" y2="282.3711"/><polygon fill="#181818" points="121.4001,272.3711,125.4001,282.3711,129.4001,272.3711,125.4001,276.3711" style="stroke:#181818;stroke-width:1.0;"/><line style="stroke:#181818;stroke-width:1.0;" x1="125.4001" x2="125.4001" y1="30" y2="50"/><polygon fill="#181818" points="121.4001,40,125.4001,50,129.4001,40,125.4001,44" style="stroke:#181818;stroke-width:1.0;"/><line style="stroke:#181818;stroke-width:1.0;" x1="125.4001" x2="125.4001" y1="316.3398" y2="336.3398"/><polygon fill="#181818" points="121.4001,326.3398,125.4001,336.3398,129.4001,326.3398,125.4001,330.3398" style="stroke:#181818;stroke-width:1.0;"/><!--SRC=[DOr12iCm30JFrYjqTBxG44elEVRGli0qSYDGbIBBXFw-TaCloxBCiCMJEUmh2s6SDyEB2DxvgSch4SvCifG10kVug6QaZhblE4r7kQONdGVqbHJZXpeRJZTgjXxss8RYsni2wS8PMlxku4zf5HcX8ry0]--></g></svg>