<svg xmlns="http://www.w3.org/2000/svg" xmlns:xlink="http://www.w3.org/1999/xlink" contentStyleType="text/css" height="278px" preserveAspectRatio="none" style="width:303px;height:278px;background:#FFFFFF;" version="1.1" viewBox="0 0 303 278" width="303px" zoomAndPan="magnify"><defs/><g><ellipse cx="131.5054" cy="20" fill="#222222" rx="10" ry="10" style="stroke:#222222;stroke-width:1.0;"/><rect fill="#F1F1F1" height="33.9688" rx="12.5" ry="12.5" style="stroke:#181818;stroke-width:0.5;" width="128.1582" x="67.4263" y="50"/><text fill="#000000" font-family="sans-serif" font-size="12" lengthAdjust="spacing" textLength="108.1582" x="77.4263" y="71.1387">Get Field from Sig</text><polygon fill="#F1F1F1" points="90.9644,103.9688,172.0464,103.9688,184.0464,115.9688,172.0464,127.9688,90.9644,127.9688,78.9644,115.9688,90.9644,103.9688" style="stroke:#181818;stroke-width:0.5;"/><text fill="#000000" font-family="sans-serif" font-size="11" lengthAdjust="spacing" textLength="81.082" x="90.9644" y="119.7769">field is not null</text><text fill="#000000" font-family="sans-serif" font-size="11" lengthAdjust="spacing" textLength="19.0083" x="59.9561" y="113.3745">yes</text><rect fill="#F1F1F1" height="33.9688" rx="12.5" ry="12.5" style="stroke:#181818;stroke-width:0.5;" width="90.2773" x="11" y="137.9688"/><text fill="#000000" font-family="sans-serif" font-size="12" lengthAdjust="spacing" textLength="40.5703" x="21" y="159.1074">Return</text><text fill="#000000" font-family="sans-serif" font-size="12" font-style="italic" lengthAdjust="spacing" textLength="25.8926" x="65.3848" y="159.1074">field</text><ellipse cx="56.1387" cy="202.9375" fill="none" rx="11" ry="11" style="stroke:#222222;stroke-width:1.0;"/><ellipse cx="56.1387" cy="202.9375" fill="#222222" rx="6" ry="6" style="stroke:#222222;stroke-width:1.0;"/><rect fill="#F1F1F1" height="33.9688" rx="12.5" ry="12.5" style="stroke:#181818;stroke-width:0.5;" width="171.1895" x="121.2773" y="137.9688"/><text fill="#000000" font-family="sans-serif" font-size="12" lengthAdjust="spacing" textLength="151.1895" x="131.2773" y="159.1074">Get Field from Parent Sig</text><rect fill="#F1F1F1" height="33.9688" rx="12.5" ry="12.5" style="stroke:#181818;stroke-width:0.5;" width="158.3691" x="127.6875" y="191.9375"/><text fill="#000000" font-family="sans-serif" font-size="12" lengthAdjust="spacing" textLength="138.3691" x="137.6875" y="213.0762">Return Parent Sig Field</text><ellipse cx="206.8721" cy="256.9063" fill="none" rx="11" ry="11" style="stroke:#222222;stroke-width:1.0;"/><ellipse cx="206.8721" cy="256.9063" fill="#222222" rx="6" ry="6" style="stroke:#222222;stroke-width:1.0;"/><line style="stroke:#181818;stroke-width:1.0;" x1="131.5054" x2="131.5054" y1="30" y2="50"/><polygon fill="#181818" points="127.5054,40,131.5054,50,135.5054,40,131.5054,44" style="stroke:#181818;stroke-width:1.0;"/><line style="stroke:#181818;stroke-width:1.0;" x1="56.1387" x2="56.1387" y1="171.9375" y2="191.9375"/><polygon fill="#181818" points="52.1387,181.9375,56.1387,191.9375,60.1387,181.9375,56.1387,185.9375" style="stroke:#181818;stroke-width:1.0;"/><line style="stroke:#181818;stroke-width:1.0;" x1="206.8721" x2="206.8721" y1="171.9375" y2="191.9375"/><polygon fill="#181818" points="202.8721,181.9375,206.8721,191.9375,210.8721,181.9375,206.8721,185.9375" style="stroke:#181818;stroke-width:1.0;"/><line style="stroke:#181818;stroke-width:1.0;" x1="206.8721" x2="206.8721" y1="225.9063" y2="245.9063"/><polygon fill="#181818" points="202.8721,235.9063,206.8721,245.9063,210.8721,235.9063,206.8721,239.9063" style="stroke:#181818;stroke-width:1.0;"/><line style="stroke:#181818;stroke-width:1.0;" x1="78.9644" x2="56.1387" y1="115.9688" y2="115.9688"/><line style="stroke:#181818;stroke-width:1.0;" x1="56.1387" x2="56.1387" y1="115.9688" y2="137.9688"/><polygon fill="#181818" points="52.1387,127.9688,56.1387,137.9688,60.1387,127.9688,56.1387,131.9688" style="stroke:#181818;stroke-width:1.0;"/><line style="stroke:#181818;stroke-width:1.0;" x1="184.0464" x2="206.8721" y1="115.9688" y2="115.9688"/><line style="stroke:#181818;stroke-width:1.0;" x1="206.8721" x2="206.8721" y1="115.9688" y2="137.9688"/><polygon fill="#181818" points="202.8721,127.9688,206.8721,137.9688,210.8721,127.9688,206.8721,131.9688" style="stroke:#181818;stroke-width:1.0;"/><line style="stroke:#181818;stroke-width:1.0;" x1="131.5054" x2="131.5054" y1="83.9688" y2="103.9688"/><polygon fill="#181818" points="127.5054,93.9688,131.5054,103.9688,135.5054,93.9688,131.5054,97.9688" style="stroke:#181818;stroke-width:1.0;"/><!--SRC=[NOmn2e0m34LdSugCEdMtkwwY9n1CDL1JQUBWxHK51TVtttzgOpQeMp9icEA48QSL1vuzS2Z3ZLXHag7iCLPe2mcM1sa5HTsJxLdGkLjqpaEXbZQWg7JDlsetPX9xuk_tWu_w9cJYS080]--></g></svg>