<?xml version="1.0" encoding="us-ascii" standalone="no"?><svg xmlns="http://www.w3.org/2000/svg" xmlns:xlink="http://www.w3.org/1999/xlink" contentStyleType="text/css" height="526px" preserveAspectRatio="none" style="width:270px;height:526px;background:#FFFFFF;" version="1.1" viewBox="0 0 270 526" width="270px" zoomAndPan="magnify"><defs/><g><ellipse cx="134" cy="20" fill="#222222" rx="10" ry="10" style="stroke:#222222;stroke-width:1.0;"/><rect fill="#F1F1F1" height="33.9688" rx="12.5" ry="12.5" style="stroke:#181818;stroke-width:0.5;" width="105" x="81.5" y="50"/><text fill="#000000" font-family="sans-serif" font-size="12" lengthAdjust="spacing" textLength="85" x="91.5" y="71.1387">Print Title Expr</text><rect fill="#F1F1F1" height="33.9688" rx="12.5" ry="12.5" style="stroke:#181818;stroke-width:0.5;" width="152" x="58" y="103.9688"/><text fill="#000000" font-family="sans-serif" font-size="12" lengthAdjust="spacing" textLength="132" x="68" y="125.1074">Print Expression Class</text><rect fill="#F1F1F1" height="33.9688" rx="12.5" ry="12.5" style="stroke:#181818;stroke-width:0.5;" width="155" x="56.5" y="157.9375"/><text fill="#000000" font-family="sans-serif" font-size="12" lengthAdjust="spacing" textLength="135" x="66.5" y="179.0762">Print Expression String</text><rect fill="#F1F1F1" height="33.9688" rx="12.5" ry="12.5" style="stroke:#181818;stroke-width:0.5;" width="202" x="33" y="211.9063"/><text fill="#000000" font-family="sans-serif" font-size="12" lengthAdjust="spacing" textLength="182" x="43" y="233.0449">Print Title expr.findAllFunctions</text><rect fill="#F1F1F1" height="33.9688" rx="12.5" ry="12.5" style="stroke:#181818;stroke-width:0.5;" width="99" x="84.5" y="309.875"/><text fill="#000000" font-family="sans-serif" font-size="12" lengthAdjust="spacing" textLength="79" x="94.5" y="331.0137">Print Function</text><polygon fill="#F1F1F1" points="48,265.875,220,265.875,232,277.875,220,289.875,48,289.875,36,277.875,48,265.875" style="stroke:#181818;stroke-width:0.5;"/><text fill="#000000" font-family="sans-serif" font-size="11" lengthAdjust="spacing" textLength="172" x="48" y="281.6831">For All Functions in Expression</text><rect fill="#F1F1F1" height="33.9688" rx="12.5" ry="12.5" style="stroke:#181818;stroke-width:0.5;" width="190" x="39" y="385.8438"/><text fill="#000000" font-family="sans-serif" font-size="12" lengthAdjust="spacing" textLength="170" x="49" y="406.9824">Print Title expr.getSubnodes</text><rect fill="#F1F1F1" height="33.9688" rx="12.5" ry="12.5" style="stroke:#181818;stroke-width:0.5;" width="186" x="41" y="439.8125"/><text fill="#000000" font-family="sans-serif" font-size="12" lengthAdjust="spacing" textLength="166" x="51" y="460.9512">Print Expression Sub Nodes</text><ellipse cx="134" cy="504.7813" fill="none" rx="11" ry="11" style="stroke:#222222;stroke-width:1.0;"/><ellipse cx="134" cy="504.7813" fill="#222222" rx="6" ry="6" style="stroke:#222222;stroke-width:1.0;"/><line style="stroke:#181818;stroke-width:1.0;" x1="134" x2="134" y1="30" y2="50"/><polygon fill="#181818" points="130,40,134,50,138,40,134,44" style="stroke:#181818;stroke-width:1.0;"/><line style="stroke:#181818;stroke-width:1.0;" x1="134" x2="134" y1="83.9688" y2="103.9688"/><polygon fill="#181818" points="130,93.9688,134,103.9688,138,93.9688,134,97.9688" style="stroke:#181818;stroke-width:1.0;"/><line style="stroke:#181818;stroke-width:1.0;" x1="134" x2="134" y1="137.9375" y2="157.9375"/><polygon fill="#181818" points="130,147.9375,134,157.9375,138,147.9375,134,151.9375" style="stroke:#181818;stroke-width:1.0;"/><line style="stroke:#181818;stroke-width:1.0;" x1="134" x2="134" y1="191.9063" y2="211.9063"/><polygon fill="#181818" points="130,201.9063,134,211.9063,138,201.9063,134,205.9063" style="stroke:#181818;stroke-width:1.0;"/><line style="stroke:#181818;stroke-width:1.0;" x1="134" x2="134" y1="289.875" y2="309.875"/><polygon fill="#181818" points="130,299.875,134,309.875,138,299.875,134,303.875" style="stroke:#181818;stroke-width:1.0;"/><line style="stroke:#181818;stroke-width:1.0;" x1="134" x2="134" y1="343.8438" y2="353.8438"/><line style="stroke:#181818;stroke-width:1.0;" x1="134" x2="244" y1="353.8438" y2="353.8438"/><polygon fill="#181818" points="240,324.8594,244,314.8594,248,324.8594,244,320.8594" style="stroke:#181818;stroke-width:1.0;"/><line style="stroke:#181818;stroke-width:1.0;" x1="244" x2="244" y1="277.875" y2="353.8438"/><line style="stroke:#181818;stroke-width:1.0;" x1="244" x2="232" y1="277.875" y2="277.875"/><polygon fill="#181818" points="242,273.875,232,277.875,242,281.875,238,277.875" style="stroke:#181818;stroke-width:1.0;"/><line style="stroke:#181818;stroke-width:1.0;" x1="36" x2="24" y1="277.875" y2="277.875"/><polygon fill="#181818" points="20,310.8594,24,320.8594,28,310.8594,24,314.8594" style="stroke:#181818;stroke-width:1.0;"/><line style="stroke:#181818;stroke-width:1.0;" x1="24" x2="24" y1="277.875" y2="365.8438"/><line style="stroke:#181818;stroke-width:1.0;" x1="24" x2="134" y1="365.8438" y2="365.8438"/><line style="stroke:#181818;stroke-width:1.0;" x1="134" x2="134" y1="365.8438" y2="385.8438"/><polygon fill="#181818" points="130,375.8438,134,385.8438,138,375.8438,134,379.8438" style="stroke:#181818;stroke-width:1.0;"/><line style="stroke:#181818;stroke-width:1.0;" x1="134" x2="134" y1="245.875" y2="265.875"/><polygon fill="#181818" points="130,255.875,134,265.875,138,255.875,134,259.875" style="stroke:#181818;stroke-width:1.0;"/><line style="stroke:#181818;stroke-width:1.0;" x1="134" x2="134" y1="419.8125" y2="439.8125"/><polygon fill="#181818" points="130,429.8125,134,439.8125,138,429.8125,134,433.8125" style="stroke:#181818;stroke-width:1.0;"/><line style="stroke:#181818;stroke-width:1.0;" x1="134" x2="134" y1="473.7813" y2="493.7813"/><polygon fill="#181818" points="130,483.7813,134,493.7813,138,483.7813,134,487.7813" style="stroke:#181818;stroke-width:1.0;"/><!--SRC=[ROv12W8n34NtSueiTUC1x4h4MOemNc36nZ4Gqg59qUCRbOf2b_al_oLgOxPkUyea1cSoHZWybXngz1fGbPB0daVL5XZCapdyMz3vvaeITynzaOlvfhVlDs9SzIc3v_05GF9ZN5TLvQ53YUzguyYCDfH9KiJsTsM2umUgfUK9]--></g></svg>