<?xml version="1.0" encoding="us-ascii" standalone="no"?><svg xmlns="http://www.w3.org/2000/svg" xmlns:xlink="http://www.w3.org/1999/xlink" contentStyleType="text/css" height="200px" preserveAspectRatio="none" style="width:382px;height:200px;background:#FFFFFF;" version="1.1" viewBox="0 0 382 200" width="382px" zoomAndPan="magnify"><defs/><g><ellipse cx="172" cy="20" fill="#222222" rx="10" ry="10" style="stroke:#222222;stroke-width:1.0;"/><polygon fill="#F1F1F1" points="118,50,226,50,238,62,226,74,118,74,106,62,118,50" style="stroke:#181818;stroke-width:0.5;"/><text fill="#000000" font-family="sans-serif" font-size="11" lengthAdjust="spacing" textLength="108" x="118" y="65.8081">overallFact == null</text><text fill="#000000" font-family="sans-serif" font-size="11" lengthAdjust="spacing" textLength="21" x="85" y="59.4058">yes</text><text fill="#000000" font-family="sans-serif" font-size="11" lengthAdjust="spacing" textLength="14" x="238" y="59.4058">no</text><rect fill="#F1F1F1" height="33.9688" rx="12.5" ry="12.5" style="stroke:#181818;stroke-width:0.5;" width="132" x="11" y="84"/><text fill="#000000" font-family="sans-serif" font-size="12" lengthAdjust="spacing" textLength="112" x="21" y="105.1387">overallFact = expr</text><rect fill="#F1F1F1" height="33.9688" rx="12.5" ry="12.5" style="stroke:#181818;stroke-width:0.5;" width="208" x="163" y="84"/><text fill="#000000" font-family="sans-serif" font-size="12" lengthAdjust="spacing" textLength="188" x="173" y="105.1387">Add expression to Overall Fact</text><polygon fill="#F1F1F1" points="172,123.9688,184,135.9688,172,147.9688,160,135.9688,172,123.9688" style="stroke:#181818;stroke-width:0.5;"/><ellipse cx="172" cy="178.9688" fill="none" rx="11" ry="11" style="stroke:#222222;stroke-width:1.0;"/><ellipse cx="172" cy="178.9688" fill="#222222" rx="6" ry="6" style="stroke:#222222;stroke-width:1.0;"/><line style="stroke:#181818;stroke-width:1.0;" x1="106" x2="77" y1="62" y2="62"/><line style="stroke:#181818;stroke-width:1.0;" x1="77" x2="77" y1="62" y2="84"/><polygon fill="#181818" points="73,74,77,84,81,74,77,78" style="stroke:#181818;stroke-width:1.0;"/><line style="stroke:#181818;stroke-width:1.0;" x1="238" x2="267" y1="62" y2="62"/><line style="stroke:#181818;stroke-width:1.0;" x1="267" x2="267" y1="62" y2="84"/><polygon fill="#181818" points="263,74,267,84,271,74,267,78" style="stroke:#181818;stroke-width:1.0;"/><line style="stroke:#181818;stroke-width:1.0;" x1="77" x2="77" y1="117.9688" y2="135.9688"/><line style="stroke:#181818;stroke-width:1.0;" x1="77" x2="160" y1="135.9688" y2="135.9688"/><polygon fill="#181818" points="150,131.9688,160,135.9688,150,139.9688,154,135.9688" style="stroke:#181818;stroke-width:1.0;"/><line style="stroke:#181818;stroke-width:1.0;" x1="267" x2="267" y1="117.9688" y2="135.9688"/><line style="stroke:#181818;stroke-width:1.0;" x1="267" x2="184" y1="135.9688" y2="135.9688"/><polygon fill="#181818" points="194,131.9688,184,135.9688,194,139.9688,190,135.9688" style="stroke:#181818;stroke-width:1.0;"/><line style="stroke:#181818;stroke-width:1.0;" x1="172" x2="172" y1="30" y2="50"/><polygon fill="#181818" points="168,40,172,50,176,40,172,44" style="stroke:#181818;stroke-width:1.0;"/><line style="stroke:#181818;stroke-width:1.0;" x1="172" x2="172" y1="147.9688" y2="167.9688"/><polygon fill="#181818" points="168,157.9688,172,167.9688,176,157.9688,172,161.9688" style="stroke:#181818;stroke-width:1.0;"/><!--SRC=[LSin3e0W38NXdLDqX2je65nSFGEH6acQrj1gzFQYJgxl_vvQgkRAukN0ceZ6D1l42BmJ1R0L6Vo56bpt0u3dLdk7fEXPMXroVZTKBS9W0jFduJaqoRaiJass6m00]--></g></svg>