<?xml version="1.0" encoding="us-ascii" standalone="no"?><svg xmlns="http://www.w3.org/2000/svg" xmlns:xlink="http://www.w3.org/1999/xlink" contentStyleType="text/css" height="962px" preserveAspectRatio="none" style="width:643px;height:962px;background:#FFFFFF;" version="1.1" viewBox="0 0 643 962" width="643px" zoomAndPan="magnify"><defs/><g><ellipse cx="336.5" cy="20" fill="#222222" rx="10" ry="10" style="stroke:#222222;stroke-width:1.0;"/><rect fill="#F1F1F1" height="33.9688" rx="12.5" ry="12.5" style="stroke:#181818;stroke-width:0.5;" width="103" x="285" y="50"/><text fill="#000000" font-family="sans-serif" font-size="12" lengthAdjust="spacing" textLength="83" x="295" y="71.1387">Make ExprVar</text><rect fill="#F1F1F1" height="47.9375" rx="12.5" ry="12.5" style="stroke:#181818;stroke-width:0.5;" width="162" x="255.5" y="103.9688"/><text fill="#000000" font-family="sans-serif" font-size="12" lengthAdjust="spacing" textLength="142" x="265.5" y="125.1074">Create null Expressions</text><text fill="#000000" font-family="sans-serif" font-size="12" lengthAdjust="spacing" textLength="124" x="265.5" y="139.0762">fromExpr and toExpr</text><rect fill="#F1F1F1" height="47.9375" rx="12.5" ry="12.5" style="stroke:#181818;stroke-width:0.5;" width="165" x="254" y="171.9063"/><text fill="#000000" font-family="sans-serif" font-size="12" lengthAdjust="spacing" textLength="133" x="264" y="193.0449">Create false booleans</text><text fill="#000000" font-family="sans-serif" font-size="12" lengthAdjust="spacing" textLength="145" x="264" y="207.0137">justFn and justInverseFn</text><polygon fill="#F1F1F1" points="308,239.8438,365,239.8438,377,251.8438,365,263.8438,308,263.8438,296,251.8438,308,239.8438" style="stroke:#181818;stroke-width:0.5;"/><text fill="#000000" font-family="sans-serif" font-size="11" lengthAdjust="spacing" textLength="57" x="308" y="255.6519">to == null</text><text fill="#000000" font-family="sans-serif" font-size="11" lengthAdjust="spacing" textLength="21" x="275" y="249.2495">yes</text><text fill="#000000" font-family="sans-serif" font-size="11" lengthAdjust="spacing" textLength="14" x="377" y="249.2495">no</text><rect fill="#F1F1F1" height="33.9688" rx="12.5" ry="12.5" style="stroke:#181818;stroke-width:0.5;" width="148" x="141.75" y="273.8438"/><text fill="#000000" font-family="sans-serif" font-size="12" lengthAdjust="spacing" textLength="128" x="151.75" y="294.9824">Change justFn to true</text><rect fill="#F1F1F1" height="33.9688" rx="12.5" ry="12.5" style="stroke:#181818;stroke-width:0.5;" width="204" x="113.75" y="327.8125"/><text fill="#000000" font-family="sans-serif" font-size="12" lengthAdjust="spacing" textLength="184" x="123.75" y="348.9512">Change toExpr to new ExprVar</text><rect fill="#F1F1F1" height="33.9688" rx="12.5" ry="12.5" style="stroke:#181818;stroke-width:0.5;" width="139" x="387.75" y="273.8438"/><text fill="#000000" font-family="sans-serif" font-size="12" lengthAdjust="spacing" textLength="119" x="397.75" y="294.9824">Add ExprVar with to</text><rect fill="#F1F1F1" height="33.9688" rx="12.5" ry="12.5" style="stroke:#181818;stroke-width:0.5;" width="239" x="337.75" y="327.8125"/><text fill="#000000" font-family="sans-serif" font-size="12" lengthAdjust="spacing" textLength="219" x="347.75" y="348.9512">Change toExpr to Added Expression</text><polygon fill="#F1F1F1" points="336.5,367.7813,348.5,379.7813,336.5,391.7813,324.5,379.7813,336.5,367.7813" style="stroke:#181818;stroke-width:0.5;"/><polygon fill="#F1F1F1" points="300.5,411.7813,372.5,411.7813,384.5,423.7813,372.5,435.7813,300.5,435.7813,288.5,423.7813,300.5,411.7813" style="stroke:#181818;stroke-width:0.5;"/><text fill="#000000" font-family="sans-serif" font-size="11" lengthAdjust="spacing" textLength="72" x="300.5" y="427.5894">from == null</text><text fill="#000000" font-family="sans-serif" font-size="11" lengthAdjust="spacing" textLength="21" x="267.5" y="421.187">yes</text><text fill="#000000" font-family="sans-serif" font-size="11" lengthAdjust="spacing" textLength="14" x="384.5" y="421.187">no</text><rect fill="#F1F1F1" height="33.9688" rx="12.5" ry="12.5" style="stroke:#181818;stroke-width:0.5;" width="193" x="111.25" y="445.7813"/><text fill="#000000" font-family="sans-serif" font-size="12" lengthAdjust="spacing" textLength="173" x="121.25" y="466.9199">Change justInverseFn to true</text><rect fill="#F1F1F1" height="33.9688" rx="12.5" ry="12.5" style="stroke:#181818;stroke-width:0.5;" width="220" x="97.75" y="499.75"/><text fill="#000000" font-family="sans-serif" font-size="12" lengthAdjust="spacing" textLength="200" x="107.75" y="520.8887">Change fromExpr to new ExprVar</text><rect fill="#F1F1F1" height="33.9688" rx="12.5" ry="12.5" style="stroke:#181818;stroke-width:0.5;" width="155" x="387.75" y="445.7813"/><text fill="#000000" font-family="sans-serif" font-size="12" lengthAdjust="spacing" textLength="135" x="397.75" y="466.9199">Add ExprVar with from</text><rect fill="#F1F1F1" height="33.9688" rx="12.5" ry="12.5" style="stroke:#181818;stroke-width:0.5;" width="255" x="337.75" y="499.75"/><text fill="#000000" font-family="sans-serif" font-size="12" lengthAdjust="spacing" textLength="235" x="347.75" y="520.8887">Change fromExpr to Added Expression</text><polygon fill="#F1F1F1" points="336.5,539.7188,348.5,551.7188,336.5,563.7188,324.5,551.7188,336.5,539.7188" style="stroke:#181818;stroke-width:0.5;"/><rect fill="#F1F1F1" height="33.9688" rx="12.5" ry="12.5" style="stroke:#181818;stroke-width:0.5;" width="95" x="289" y="583.7188"/><text fill="#000000" font-family="sans-serif" font-size="12" lengthAdjust="spacing" textLength="75" x="299" y="604.8574">Call Function</text><polygon fill="#F1F1F1" points="32,637.6875,224,637.6875,236,649.6875,224,661.6875,32,661.6875,20,649.6875,32,637.6875" style="stroke:#181818;stroke-width:0.5;"/><text fill="#000000" font-family="sans-serif" font-size="11" lengthAdjust="spacing" textLength="21" x="132" y="671.8979">yes</text><text fill="#000000" font-family="sans-serif" font-size="11" lengthAdjust="spacing" textLength="192" x="32" y="653.4956">justFn and justInverseFn == false</text><rect fill="#F1F1F1" height="33.9688" rx="12.5" ry="12.5" style="stroke:#181818;stroke-width:0.5;" width="142" x="57" y="693.3979"/><text fill="#000000" font-family="sans-serif" font-size="12" lengthAdjust="spacing" textLength="122" x="67" y="714.5366">Call BijectionFiltered</text><polygon fill="#F1F1F1" points="285.5,637.6875,367.5,637.6875,379.5,649.6875,367.5,661.6875,285.5,661.6875,273.5,649.6875,285.5,637.6875" style="stroke:#181818;stroke-width:0.5;"/><text fill="#000000" font-family="sans-serif" font-size="11" lengthAdjust="spacing" textLength="21" x="330.5" y="671.8979">yes</text><text fill="#000000" font-family="sans-serif" font-size="11" lengthAdjust="spacing" textLength="82" x="285.5" y="653.4956">justFn == true</text><rect fill="#F1F1F1" height="33.9688" rx="12.5" ry="12.5" style="stroke:#181818;stroke-width:0.5;" width="141" x="256" y="693.3979"/><text fill="#000000" font-family="sans-serif" font-size="12" lengthAdjust="spacing" textLength="121" x="266" y="714.5366">Call FunctionFiltered</text><polygon fill="#F1F1F1" points="447.5,637.6875,572.5,637.6875,584.5,649.6875,572.5,661.6875,447.5,661.6875,435.5,649.6875,447.5,637.6875" style="stroke:#181818;stroke-width:0.5;"/><text fill="#000000" font-family="sans-serif" font-size="11" lengthAdjust="spacing" textLength="21" x="514" y="671.8979">yes</text><text fill="#000000" font-family="sans-serif" font-size="11" lengthAdjust="spacing" textLength="125" x="447.5" y="653.4956">justInverseFn == true</text><rect fill="#F1F1F1" height="33.9688" rx="12.5" ry="12.5" style="stroke:#181818;stroke-width:0.5;" width="186" x="417" y="693.3979"/><text fill="#000000" font-family="sans-serif" font-size="12" lengthAdjust="spacing" textLength="166" x="427" y="714.5366">Call InverseFunctionFiltered</text><rect fill="#F1F1F1" height="33.9688" rx="12.5" ry="12.5" style="stroke:#181818;stroke-width:0.5;" width="145" x="264" y="767.3667"/><text fill="#000000" font-family="sans-serif" font-size="12" lengthAdjust="spacing" textLength="125" x="274" y="788.5054">Create new ArrayList</text><rect fill="#F1F1F1" height="33.9688" rx="12.5" ry="12.5" style="stroke:#181818;stroke-width:0.5;" width="161" x="256" y="821.3354"/><text fill="#000000" font-family="sans-serif" font-size="12" lengthAdjust="spacing" textLength="141" x="266" y="842.4741">Create new Declaration</text><rect fill="#F1F1F1" height="33.9688" rx="12.5" ry="12.5" style="stroke:#181818;stroke-width:0.5;" width="231" x="221" y="875.3042"/><text fill="#000000" font-family="sans-serif" font-size="12" lengthAdjust="spacing" textLength="211" x="231" y="896.4429">Add Called Function to Overall Fact</text><ellipse cx="336.5" cy="940.2729" fill="none" rx="11" ry="11" style="stroke:#222222;stroke-width:1.0;"/><ellipse cx="336.5" cy="940.2729" fill="#222222" rx="6" ry="6" style="stroke:#222222;stroke-width:1.0;"/><line style="stroke:#181818;stroke-width:1.0;" x1="336.5" x2="336.5" y1="30" y2="50"/><polygon fill="#181818" points="332.5,40,336.5,50,340.5,40,336.5,44" style="stroke:#181818;stroke-width:1.0;"/><line style="stroke:#181818;stroke-width:1.0;" x1="336.5" x2="336.5" y1="83.9688" y2="103.9688"/><polygon fill="#181818" points="332.5,93.9688,336.5,103.9688,340.5,93.9688,336.5,97.9688" style="stroke:#181818;stroke-width:1.0;"/><line style="stroke:#181818;stroke-width:1.0;" x1="336.5" x2="336.5" y1="151.9063" y2="171.9063"/><polygon fill="#181818" points="332.5,161.9063,336.5,171.9063,340.5,161.9063,336.5,165.9063" style="stroke:#181818;stroke-width:1.0;"/><line style="stroke:#181818;stroke-width:1.0;" x1="215.75" x2="215.75" y1="307.8125" y2="327.8125"/><polygon fill="#181818" points="211.75,317.8125,215.75,327.8125,219.75,317.8125,215.75,321.8125" style="stroke:#181818;stroke-width:1.0;"/><line style="stroke:#181818;stroke-width:1.0;" x1="457.25" x2="457.25" y1="307.8125" y2="327.8125"/><polygon fill="#181818" points="453.25,317.8125,457.25,327.8125,461.25,317.8125,457.25,321.8125" style="stroke:#181818;stroke-width:1.0;"/><line style="stroke:#181818;stroke-width:1.0;" x1="296" x2="215.75" y1="251.8438" y2="251.8438"/><line style="stroke:#181818;stroke-width:1.0;" x1="215.75" x2="215.75" y1="251.8438" y2="273.8438"/><polygon fill="#181818" points="211.75,263.8438,215.75,273.8438,219.75,263.8438,215.75,267.8438" style="stroke:#181818;stroke-width:1.0;"/><line style="stroke:#181818;stroke-width:1.0;" x1="377" x2="457.25" y1="251.8438" y2="251.8438"/><line style="stroke:#181818;stroke-width:1.0;" x1="457.25" x2="457.25" y1="251.8438" y2="273.8438"/><polygon fill="#181818" points="453.25,263.8438,457.25,273.8438,461.25,263.8438,457.25,267.8438" style="stroke:#181818;stroke-width:1.0;"/><line style="stroke:#181818;stroke-width:1.0;" x1="215.75" x2="215.75" y1="361.7813" y2="379.7813"/><line style="stroke:#181818;stroke-width:1.0;" x1="215.75" x2="324.5" y1="379.7813" y2="379.7813"/><polygon fill="#181818" points="314.5,375.7813,324.5,379.7813,314.5,383.7813,318.5,379.7813" style="stroke:#181818;stroke-width:1.0;"/><line style="stroke:#181818;stroke-width:1.0;" x1="457.25" x2="457.25" y1="361.7813" y2="379.7813"/><line style="stroke:#181818;stroke-width:1.0;" x1="457.25" x2="348.5" y1="379.7813" y2="379.7813"/><polygon fill="#181818" points="358.5,375.7813,348.5,379.7813,358.5,383.7813,354.5,379.7813" style="stroke:#181818;stroke-width:1.0;"/><line style="stroke:#181818;stroke-width:1.0;" x1="336.5" x2="336.5" y1="219.8438" y2="239.8438"/><polygon fill="#181818" points="332.5,229.8438,336.5,239.8438,340.5,229.8438,336.5,233.8438" style="stroke:#181818;stroke-width:1.0;"/><line style="stroke:#181818;stroke-width:1.0;" x1="207.75" x2="207.75" y1="479.75" y2="499.75"/><polygon fill="#181818" points="203.75,489.75,207.75,499.75,211.75,489.75,207.75,493.75" style="stroke:#181818;stroke-width:1.0;"/><line style="stroke:#181818;stroke-width:1.0;" x1="465.25" x2="465.25" y1="479.75" y2="499.75"/><polygon fill="#181818" points="461.25,489.75,465.25,499.75,469.25,489.75,465.25,493.75" style="stroke:#181818;stroke-width:1.0;"/><line style="stroke:#181818;stroke-width:1.0;" x1="288.5" x2="207.75" y1="423.7813" y2="423.7813"/><line style="stroke:#181818;stroke-width:1.0;" x1="207.75" x2="207.75" y1="423.7813" y2="445.7813"/><polygon fill="#181818" points="203.75,435.7813,207.75,445.7813,211.75,435.7813,207.75,439.7813" style="stroke:#181818;stroke-width:1.0;"/><line style="stroke:#181818;stroke-width:1.0;" x1="384.5" x2="465.25" y1="423.7813" y2="423.7813"/><line style="stroke:#181818;stroke-width:1.0;" x1="465.25" x2="465.25" y1="423.7813" y2="445.7813"/><polygon fill="#181818" points="461.25,435.7813,465.25,445.7813,469.25,435.7813,465.25,439.7813" style="stroke:#181818;stroke-width:1.0;"/><line style="stroke:#181818;stroke-width:1.0;" x1="207.75" x2="207.75" y1="533.7188" y2="551.7188"/><line style="stroke:#181818;stroke-width:1.0;" x1="207.75" x2="324.5" y1="551.7188" y2="551.7188"/><polygon fill="#181818" points="314.5,547.7188,324.5,551.7188,314.5,555.7188,318.5,551.7188" style="stroke:#181818;stroke-width:1.0;"/><line style="stroke:#181818;stroke-width:1.0;" x1="465.25" x2="465.25" y1="533.7188" y2="551.7188"/><line style="stroke:#181818;stroke-width:1.0;" x1="465.25" x2="348.5" y1="551.7188" y2="551.7188"/><polygon fill="#181818" points="358.5,547.7188,348.5,551.7188,358.5,555.7188,354.5,551.7188" style="stroke:#181818;stroke-width:1.0;"/><line style="stroke:#181818;stroke-width:1.0;" x1="336.5" x2="336.5" y1="391.7813" y2="411.7813"/><polygon fill="#181818" points="332.5,401.7813,336.5,411.7813,340.5,401.7813,336.5,405.7813" style="stroke:#181818;stroke-width:1.0;"/><line style="stroke:#181818;stroke-width:1.0;" x1="336.5" x2="336.5" y1="563.7188" y2="583.7188"/><polygon fill="#181818" points="332.5,573.7188,336.5,583.7188,340.5,573.7188,336.5,577.7188" style="stroke:#181818;stroke-width:1.0;"/><line style="stroke:#181818;stroke-width:1.0;" x1="128" x2="128" y1="661.6875" y2="693.3979"/><polygon fill="#181818" points="124,683.3979,128,693.3979,132,683.3979,128,687.3979" style="stroke:#181818;stroke-width:1.0;"/><line style="stroke:#181818;stroke-width:1.0;" x1="128" x2="128" y1="727.3667" y2="747.3667"/><polygon fill="#181818" points="124,737.3667,128,747.3667,132,737.3667,128,741.3667" style="stroke:#181818;stroke-width:1.0;"/><line style="stroke:#181818;stroke-width:1.0;" x1="326.5" x2="326.5" y1="661.6875" y2="693.3979"/><polygon fill="#181818" points="322.5,683.3979,326.5,693.3979,330.5,683.3979,326.5,687.3979" style="stroke:#181818;stroke-width:1.0;"/><line style="stroke:#181818;stroke-width:1.0;" x1="326.5" x2="326.5" y1="727.3667" y2="747.3667"/><polygon fill="#181818" points="322.5,737.3667,326.5,747.3667,330.5,737.3667,326.5,741.3667" style="stroke:#181818;stroke-width:1.0;"/><line style="stroke:#181818;stroke-width:1.0;" x1="510" x2="510" y1="661.6875" y2="693.3979"/><polygon fill="#181818" points="506,683.3979,510,693.3979,514,683.3979,510,687.3979" style="stroke:#181818;stroke-width:1.0;"/><line style="stroke:#181818;stroke-width:1.0;" x1="510" x2="510" y1="727.3667" y2="747.3667"/><polygon fill="#181818" points="506,737.3667,510,747.3667,514,737.3667,510,741.3667" style="stroke:#181818;stroke-width:1.0;"/><line style="stroke:#181818;stroke-width:1.0;" x1="236" x2="273.5" y1="649.6875" y2="649.6875"/><polygon fill="#181818" points="263.5,645.6875,273.5,649.6875,263.5,653.6875,267.5,649.6875" style="stroke:#181818;stroke-width:1.0;"/><line style="stroke:#181818;stroke-width:1.0;" x1="379.5" x2="435.5" y1="649.6875" y2="649.6875"/><polygon fill="#181818" points="425.5,645.6875,435.5,649.6875,425.5,653.6875,429.5,649.6875" style="stroke:#181818;stroke-width:1.0;"/><line style="stroke:#181818;stroke-width:1.0;" x1="336.5" x2="336.5" y1="617.6875" y2="622.6875"/><line style="stroke:#181818;stroke-width:1.0;" x1="336.5" x2="128" y1="622.6875" y2="622.6875"/><line style="stroke:#181818;stroke-width:1.0;" x1="128" x2="128" y1="622.6875" y2="637.6875"/><polygon fill="#181818" points="124,627.6875,128,637.6875,132,627.6875,128,631.6875" style="stroke:#181818;stroke-width:1.0;"/><line style="stroke:#181818;stroke-width:1.0;" x1="584.5" x2="617" y1="649.6875" y2="649.6875"/><line style="stroke:#181818;stroke-width:1.0;" x1="617" x2="617" y1="649.6875" y2="747.3667"/><polygon fill="#181818" points="613,737.3667,617,747.3667,621,737.3667,617,741.3667" style="stroke:#181818;stroke-width:1.0;"/><line style="stroke:#181818;stroke-width:1.0;" x1="128" x2="617" y1="747.3667" y2="747.3667"/><line style="stroke:#181818;stroke-width:1.0;" x1="336.5" x2="336.5" y1="747.3667" y2="767.3667"/><polygon fill="#181818" points="332.5,757.3667,336.5,767.3667,340.5,757.3667,336.5,761.3667" style="stroke:#181818;stroke-width:1.0;"/><line style="stroke:#181818;stroke-width:1.0;" x1="336.5" x2="336.5" y1="801.3354" y2="821.3354"/><polygon fill="#181818" points="332.5,811.3354,336.5,821.3354,340.5,811.3354,336.5,815.3354" style="stroke:#181818;stroke-width:1.0;"/><line style="stroke:#181818;stroke-width:1.0;" x1="336.5" x2="336.5" y1="855.3042" y2="875.3042"/><polygon fill="#181818" points="332.5,865.3042,336.5,875.3042,340.5,865.3042,336.5,869.3042" style="stroke:#181818;stroke-width:1.0;"/><line style="stroke:#181818;stroke-width:1.0;" x1="336.5" x2="336.5" y1="909.2729" y2="929.2729"/><polygon fill="#181818" points="332.5,919.2729,336.5,929.2729,340.5,919.2729,336.5,923.2729" style="stroke:#181818;stroke-width:1.0;"/><!--SRC=[XLBBJiCm4BpdAtnCVo5H3wKG2Gd4ZViIRuXBM5VsXjA_PzTvbD94tEpLpEpCs94XS5OymmUQX-zZU8LGPiK-830QwhikJJ56vobcJV2VUZT0rh3NumNTG1VHl7dV8GZsq4UkA27r-4XV629ML6QkCJbxizsc1Hl3BPB9pnWtejK2lQCPoOBYq6CvpuUTEYSyNGoZRix9Yy3EscbkJevRmIxH1ORsLpRH8EiQyPPho7_DpN5kFSubBRbSCQcSPOKreyKUv76gdcfEKorrhN9DarxdJnnLk7C7J1ALwnW3si6dz32g2LVpBL2dvOlCg-Kh0XFcLcUCE7v3AN4N0foVNEJoQdoFTGS1XWfIhIeiXKsQMk6BR4b-eHPw5jaVVm00]--></g></svg>