<?xml version="1.0" encoding="us-ascii" standalone="no"?><svg xmlns="http://www.w3.org/2000/svg" xmlns:xlink="http://www.w3.org/1999/xlink" contentStyleType="text/css" height="777px" preserveAspectRatio="none" style="width:383px;height:777px;background:#FFFFFF;" version="1.1" viewBox="0 0 383 777" width="383px" zoomAndPan="magnify"><defs/><g><ellipse cx="172.5" cy="20" fill="#222222" rx="10" ry="10" style="stroke:#222222;stroke-width:1.0;"/><rect fill="#F1F1F1" height="33.9688" rx="12.5" ry="12.5" style="stroke:#181818;stroke-width:0.5;" width="89" x="128" y="98.4023"/><text fill="#000000" font-family="sans-serif" font-size="12" lengthAdjust="spacing" textLength="38" x="138" y="119.541">Return</text><text fill="#000000" font-family="sans-serif" font-size="12" font-style="italic" lengthAdjust="spacing" textLength="27" x="180" y="119.541">map</text><polygon fill="#F1F1F1" points="93,50,252,50,264,62,252,74,93,74,81,62,93,50" style="stroke:#181818;stroke-width:0.5;"/><text fill="#000000" font-family="sans-serif" font-size="11" lengthAdjust="spacing" textLength="21" x="176.5" y="84.2104">yes</text><text fill="#000000" font-family="sans-serif" font-size="11" font-style="italic" lengthAdjust="spacing" textLength="75" x="93" y="65.8081">ignoredExprs</text><text fill="#000000" font-family="sans-serif" font-size="11" lengthAdjust="spacing" textLength="80" x="172" y="65.8081">Contains Field</text><polygon fill="#F1F1F1" points="172.5,152.3711,184.5,164.3711,172.5,176.3711,160.5,164.3711,172.5,152.3711" style="stroke:#181818;stroke-width:0.5;"/><rect fill="#F1F1F1" height="33.9688" rx="12.5" ry="12.5" style="stroke:#181818;stroke-width:0.5;" width="148" x="98.5" y="196.3711"/><text fill="#000000" font-family="sans-serif" font-size="12" lengthAdjust="spacing" textLength="20" x="108.5" y="217.5098">Set</text><text fill="#000000" font-family="sans-serif" font-size="12" font-style="italic" lengthAdjust="spacing" textLength="55" x="132.5" y="217.5098">isRootSig</text><text fill="#000000" font-family="sans-serif" font-size="12" lengthAdjust="spacing" textLength="45" x="191.5" y="217.5098">to false</text><rect fill="#F1F1F1" height="47.9375" rx="12.5" ry="12.5" style="stroke:#181818;stroke-width:0.5;" width="195" x="75" y="298.7422"/><text fill="#000000" font-family="sans-serif" font-size="12" lengthAdjust="spacing" textLength="79" x="85" y="319.8809">Create String</text><text fill="#000000" font-family="sans-serif" font-size="12" font-style="italic" lengthAdjust="spacing" textLength="27" x="168" y="319.8809">type</text><text fill="#000000" font-family="sans-serif" font-size="12" lengthAdjust="spacing" textLength="61" x="199" y="319.8809">from Field</text><text fill="#000000" font-family="sans-serif" font-size="12" lengthAdjust="spacing" textLength="139" x="85" y="333.8496">Declaration Expression</text><rect fill="#F1F1F1" height="33.9688" rx="12.5" ry="12.5" style="stroke:#181818;stroke-width:0.5;" width="178" x="83.5" y="366.6797"/><text fill="#000000" font-family="sans-serif" font-size="12" lengthAdjust="spacing" textLength="144" x="93.5" y="387.8184">Create null List of Fields</text><text fill="#000000" font-family="sans-serif" font-size="12" font-style="italic" lengthAdjust="spacing" textLength="10" x="241.5" y="387.8184">fs</text><polygon fill="#F1F1F1" points="119,420.6484,226,420.6484,238,432.6484,226,444.6484,119,444.6484,107,432.6484,119,420.6484" style="stroke:#181818;stroke-width:0.5;"/><text fill="#000000" font-family="sans-serif" font-size="11" font-style="italic" lengthAdjust="spacing" textLength="25" x="119" y="436.4565">map</text><text fill="#000000" font-family="sans-serif" font-size="11" lengthAdjust="spacing" textLength="49" x="148" y="436.4565">Contains</text><text fill="#000000" font-family="sans-serif" font-size="11" font-style="italic" lengthAdjust="spacing" textLength="25" x="201" y="436.4565">type</text><text fill="#000000" font-family="sans-serif" font-size="11" lengthAdjust="spacing" textLength="21" x="86" y="430.0542">yes</text><text fill="#000000" font-family="sans-serif" font-size="11" lengthAdjust="spacing" textLength="14" x="238" y="430.0542">no</text><rect fill="#F1F1F1" height="33.9688" rx="12.5" ry="12.5" style="stroke:#181818;stroke-width:0.5;" width="147" x="11" y="454.6484"/><text fill="#000000" font-family="sans-serif" font-size="12" lengthAdjust="spacing" textLength="20" x="21" y="475.7871">Set</text><text fill="#000000" font-family="sans-serif" font-size="12" font-style="italic" lengthAdjust="spacing" textLength="10" x="45" y="475.7871">fs</text><text fill="#000000" font-family="sans-serif" font-size="12" lengthAdjust="spacing" textLength="12" x="59" y="475.7871">to</text><text fill="#000000" font-family="sans-serif" font-size="12" font-style="italic" lengthAdjust="spacing" textLength="27" x="75" y="475.7871">map</text><text fill="#000000" font-family="sans-serif" font-size="12" lengthAdjust="spacing" textLength="11" x="106" y="475.7871">at</text><text fill="#000000" font-family="sans-serif" font-size="12" font-style="italic" lengthAdjust="spacing" textLength="27" x="121" y="475.7871">type</text><rect fill="#F1F1F1" height="33.9688" rx="12.5" ry="12.5" style="stroke:#181818;stroke-width:0.5;" width="156" x="182.5" y="454.6484"/><text fill="#000000" font-family="sans-serif" font-size="12" lengthAdjust="spacing" textLength="20" x="192.5" y="475.7871">Set</text><text fill="#000000" font-family="sans-serif" font-size="12" font-style="italic" lengthAdjust="spacing" textLength="10" x="216.5" y="475.7871">fs</text><text fill="#000000" font-family="sans-serif" font-size="12" lengthAdjust="spacing" textLength="98" x="230.5" y="475.7871">to New ArrayList</text><rect fill="#F1F1F1" height="33.9688" rx="12.5" ry="12.5" style="stroke:#181818;stroke-width:0.5;" width="165" x="178" y="508.6172"/><text fill="#000000" font-family="sans-serif" font-size="12" lengthAdjust="spacing" textLength="17" x="188" y="529.7559">Put</text><text fill="#000000" font-family="sans-serif" font-size="12" font-style="italic" lengthAdjust="spacing" textLength="27" x="209" y="529.7559">type</text><text fill="#000000" font-family="sans-serif" font-size="12" lengthAdjust="spacing" textLength="22" x="240" y="529.7559">and</text><text fill="#000000" font-family="sans-serif" font-size="12" font-style="italic" lengthAdjust="spacing" textLength="10" x="266" y="529.7559">fs</text><text fill="#000000" font-family="sans-serif" font-size="12" lengthAdjust="spacing" textLength="22" x="280" y="529.7559">into</text><text fill="#000000" font-family="sans-serif" font-size="12" font-style="italic" lengthAdjust="spacing" textLength="27" x="306" y="529.7559">map</text><polygon fill="#F1F1F1" points="172.5,548.5859,184.5,560.5859,172.5,572.5859,160.5,560.5859,172.5,548.5859" style="stroke:#181818;stroke-width:0.5;"/><rect fill="#F1F1F1" height="33.9688" rx="12.5" ry="12.5" style="stroke:#181818;stroke-width:0.5;" width="107" x="119" y="592.5859"/><text fill="#000000" font-family="sans-serif" font-size="12" lengthAdjust="spacing" textLength="73" x="129" y="613.7246">Add Field to</text><text fill="#000000" font-family="sans-serif" font-size="12" font-style="italic" lengthAdjust="spacing" textLength="10" x="206" y="613.7246">fs</text><polygon fill="#F1F1F1" points="138,250.3398,207,250.3398,219,262.3398,207,274.3398,138,274.3398,126,262.3398,138,250.3398" style="stroke:#181818;stroke-width:0.5;"/><text fill="#000000" font-family="sans-serif" font-size="11" lengthAdjust="spacing" textLength="21" x="176.5" y="284.5503">yes</text><text fill="#000000" font-family="sans-serif" font-size="11" font-style="italic" lengthAdjust="spacing" textLength="69" x="138" y="266.1479">fieldAfterSig</text><polygon fill="#F1F1F1" points="172.5,646.5547,184.5,658.5547,172.5,670.5547,160.5,658.5547,172.5,646.5547" style="stroke:#181818;stroke-width:0.5;"/><rect fill="#F1F1F1" height="33.9688" rx="12.5" ry="12.5" style="stroke:#181818;stroke-width:0.5;" width="89" x="128" y="690.5547"/><text fill="#000000" font-family="sans-serif" font-size="12" lengthAdjust="spacing" textLength="38" x="138" y="711.6934">Return</text><text fill="#000000" font-family="sans-serif" font-size="12" font-style="italic" lengthAdjust="spacing" textLength="27" x="180" y="711.6934">map</text><ellipse cx="172.5" cy="755.5234" fill="none" rx="11" ry="11" style="stroke:#222222;stroke-width:1.0;"/><ellipse cx="172.5" cy="755.5234" fill="#222222" rx="6" ry="6" style="stroke:#222222;stroke-width:1.0;"/><line style="stroke:#181818;stroke-width:1.0;" x1="172.5" x2="172.5" y1="74" y2="98.4023"/><polygon fill="#181818" points="168.5,88.4023,172.5,98.4023,176.5,88.4023,172.5,92.4023" style="stroke:#181818;stroke-width:1.0;"/><line style="stroke:#181818;stroke-width:1.0;" x1="264" x2="276" y1="62" y2="62"/><polygon fill="#181818" points="272,105.3867,276,115.3867,280,105.3867,276,109.3867" style="stroke:#181818;stroke-width:1.0;"/><line style="stroke:#181818;stroke-width:1.0;" x1="276" x2="276" y1="62" y2="164.3711"/><line style="stroke:#181818;stroke-width:1.0;" x1="276" x2="184.5" y1="164.3711" y2="164.3711"/><polygon fill="#181818" points="194.5,160.3711,184.5,164.3711,194.5,168.3711,190.5,164.3711" style="stroke:#181818;stroke-width:1.0;"/><line style="stroke:#181818;stroke-width:1.0;" x1="172.5" x2="172.5" y1="132.3711" y2="152.3711"/><polygon fill="#181818" points="168.5,142.3711,172.5,152.3711,176.5,142.3711,172.5,146.3711" style="stroke:#181818;stroke-width:1.0;"/><line style="stroke:#181818;stroke-width:1.0;" x1="172.5" x2="172.5" y1="30" y2="50"/><polygon fill="#181818" points="168.5,40,172.5,50,176.5,40,172.5,44" style="stroke:#181818;stroke-width:1.0;"/><line style="stroke:#181818;stroke-width:1.0;" x1="172.5" x2="172.5" y1="176.3711" y2="196.3711"/><polygon fill="#181818" points="168.5,186.3711,172.5,196.3711,176.5,186.3711,172.5,190.3711" style="stroke:#181818;stroke-width:1.0;"/><line style="stroke:#181818;stroke-width:1.0;" x1="172.5" x2="172.5" y1="346.6797" y2="366.6797"/><polygon fill="#181818" points="168.5,356.6797,172.5,366.6797,176.5,356.6797,172.5,360.6797" style="stroke:#181818;stroke-width:1.0;"/><line style="stroke:#181818;stroke-width:1.0;" x1="260.5" x2="260.5" y1="488.6172" y2="508.6172"/><polygon fill="#181818" points="256.5,498.6172,260.5,508.6172,264.5,498.6172,260.5,502.6172" style="stroke:#181818;stroke-width:1.0;"/><line style="stroke:#181818;stroke-width:1.0;" x1="107" x2="84.5" y1="432.6484" y2="432.6484"/><line style="stroke:#181818;stroke-width:1.0;" x1="84.5" x2="84.5" y1="432.6484" y2="454.6484"/><polygon fill="#181818" points="80.5,444.6484,84.5,454.6484,88.5,444.6484,84.5,448.6484" style="stroke:#181818;stroke-width:1.0;"/><line style="stroke:#181818;stroke-width:1.0;" x1="238" x2="260.5" y1="432.6484" y2="432.6484"/><line style="stroke:#181818;stroke-width:1.0;" x1="260.5" x2="260.5" y1="432.6484" y2="454.6484"/><polygon fill="#181818" points="256.5,444.6484,260.5,454.6484,264.5,444.6484,260.5,448.6484" style="stroke:#181818;stroke-width:1.0;"/><line style="stroke:#181818;stroke-width:1.0;" x1="84.5" x2="84.5" y1="488.6172" y2="560.5859"/><line style="stroke:#181818;stroke-width:1.0;" x1="84.5" x2="160.5" y1="560.5859" y2="560.5859"/><polygon fill="#181818" points="150.5,556.5859,160.5,560.5859,150.5,564.5859,154.5,560.5859" style="stroke:#181818;stroke-width:1.0;"/><line style="stroke:#181818;stroke-width:1.0;" x1="260.5" x2="260.5" y1="542.5859" y2="560.5859"/><line style="stroke:#181818;stroke-width:1.0;" x1="260.5" x2="184.5" y1="560.5859" y2="560.5859"/><polygon fill="#181818" points="194.5,556.5859,184.5,560.5859,194.5,564.5859,190.5,560.5859" style="stroke:#181818;stroke-width:1.0;"/><line style="stroke:#181818;stroke-width:1.0;" x1="172.5" x2="172.5" y1="400.6484" y2="420.6484"/><polygon fill="#181818" points="168.5,410.6484,172.5,420.6484,176.5,410.6484,172.5,414.6484" style="stroke:#181818;stroke-width:1.0;"/><line style="stroke:#181818;stroke-width:1.0;" x1="172.5" x2="172.5" y1="572.5859" y2="592.5859"/><polygon fill="#181818" points="168.5,582.5859,172.5,592.5859,176.5,582.5859,172.5,586.5859" style="stroke:#181818;stroke-width:1.0;"/><line style="stroke:#181818;stroke-width:1.0;" x1="172.5" x2="172.5" y1="274.3398" y2="298.7422"/><polygon fill="#181818" points="168.5,288.7422,172.5,298.7422,176.5,288.7422,172.5,292.7422" style="stroke:#181818;stroke-width:1.0;"/><line style="stroke:#181818;stroke-width:1.0;" x1="219" x2="357" y1="262.3398" y2="262.3398"/><polygon fill="#181818" points="353,452.6484,357,462.6484,361,452.6484,357,456.6484" style="stroke:#181818;stroke-width:1.0;"/><line style="stroke:#181818;stroke-width:1.0;" x1="357" x2="357" y1="262.3398" y2="658.5547"/><line style="stroke:#181818;stroke-width:1.0;" x1="357" x2="184.5" y1="658.5547" y2="658.5547"/><polygon fill="#181818" points="194.5,654.5547,184.5,658.5547,194.5,662.5547,190.5,658.5547" style="stroke:#181818;stroke-width:1.0;"/><line style="stroke:#181818;stroke-width:1.0;" x1="172.5" x2="172.5" y1="626.5547" y2="646.5547"/><polygon fill="#181818" points="168.5,636.5547,172.5,646.5547,176.5,636.5547,172.5,640.5547" style="stroke:#181818;stroke-width:1.0;"/><line style="stroke:#181818;stroke-width:1.0;" x1="172.5" x2="172.5" y1="230.3398" y2="250.3398"/><polygon fill="#181818" points="168.5,240.3398,172.5,250.3398,176.5,240.3398,172.5,244.3398" style="stroke:#181818;stroke-width:1.0;"/><line style="stroke:#181818;stroke-width:1.0;" x1="172.5" x2="172.5" y1="670.5547" y2="690.5547"/><polygon fill="#181818" points="168.5,680.5547,172.5,690.5547,176.5,680.5547,172.5,684.5547" style="stroke:#181818;stroke-width:1.0;"/><line style="stroke:#181818;stroke-width:1.0;" x1="172.5" x2="172.5" y1="724.5234" y2="744.5234"/><polygon fill="#181818" points="168.5,734.5234,172.5,744.5234,176.5,734.5234,172.5,738.5234" style="stroke:#181818;stroke-width:1.0;"/><!--SRC=[PP2nRiCm34HtVGL7Pz8UJqRIJaLHn5yWL9GhmA4CaaRhlwzanJRIReB8ktj7KSTgOcYiZGCbHl_oCx5O2vT4wY89l4OS_Gdq2mcQ1ULapZVKcGcilRl9sjOW-HZCkKVDVr5kAMaVXsoY2O8R1TiQ4OfL5nHv7J-RNXYT8lJAaORieyk4sI9mkbS6SyNFqR7Jc0WA9ehaPxjBQHv7U8kYa4ALIFO9KX3N_1NtQBPbF7FK5aLLy3UHqtqzzysL6ah_bj_n6pfcjnI8pFKn7ofmvBVLI8VpVhtE-mfTOolsO_Rtu4OqJRy0]--></g></svg>