<?xml version="1.0" encoding="us-ascii" standalone="no"?><svg xmlns="http://www.w3.org/2000/svg" xmlns:xlink="http://www.w3.org/1999/xlink" contentStyleType="text/css" height="657px" preserveAspectRatio="none" style="width:284px;height:657px;background:#FFFFFF;" version="1.1" viewBox="0 0 284 657" width="284px" zoomAndPan="magnify"><defs/><g><ellipse cx="141" cy="20" fill="#222222" rx="10" ry="10" style="stroke:#222222;stroke-width:1.0;"/><rect fill="#F1F1F1" height="33.9688" rx="12.5" ry="12.5" style="stroke:#181818;stroke-width:0.5;" width="193" x="44.5" y="50"/><text fill="#000000" font-family="sans-serif" font-size="12" lengthAdjust="spacing" textLength="173" x="54.5" y="71.1387">Create nonZeroDurationOnly</text><rect fill="#F1F1F1" height="33.9688" rx="12.5" ry="12.5" style="stroke:#181818;stroke-width:0.5;" width="170" x="56" y="103.9688"/><text fill="#000000" font-family="sans-serif" font-size="12" lengthAdjust="spacing" textLength="150" x="66" y="125.1074">Create supressTransfers</text><rect fill="#F1F1F1" height="33.9688" rx="12.5" ry="12.5" style="stroke:#181818;stroke-width:0.5;" width="126" x="78" y="157.9375"/><text fill="#000000" font-family="sans-serif" font-size="12" lengthAdjust="spacing" textLength="106" x="88" y="179.0762">Create supressIO</text><rect fill="#F1F1F1" height="33.9688" rx="12.5" ry="12.5" style="stroke:#181818;stroke-width:0.5;" width="145" x="68.5" y="211.9063"/><text fill="#000000" font-family="sans-serif" font-size="12" lengthAdjust="spacing" textLength="125" x="78.5" y="233.0449">Create new ArrayList</text><rect fill="#F1F1F1" height="47.9375" rx="12.5" ry="12.5" style="stroke:#181818;stroke-width:0.5;" width="210" x="36" y="309.875"/><text fill="#000000" font-family="sans-serif" font-size="12" lengthAdjust="spacing" textLength="190" x="46" y="331.0137">Get During Example Expression</text><text fill="#000000" font-family="sans-serif" font-size="12" lengthAdjust="spacing" textLength="105" x="46" y="344.9824">with Current Field</text><rect fill="#F1F1F1" height="33.9688" rx="12.5" ry="12.5" style="stroke:#181818;stroke-width:0.5;" width="187" x="47.5" y="386.3281"/><text fill="#000000" font-family="sans-serif" font-size="12" lengthAdjust="spacing" textLength="167" x="57.5" y="407.4668">Add Expression to ArrayList</text><polygon fill="#F1F1F1" points="82,265.875,200,265.875,212,277.875,200,289.875,82,289.875,70,277.875,82,265.875" style="stroke:#181818;stroke-width:0.5;"/><text fill="#000000" font-family="sans-serif" font-size="11" lengthAdjust="spacing" textLength="118" x="82" y="281.6831">For size of fields List</text><rect fill="#F1F1F1" height="33.9688" rx="12.5" ry="12.5" style="stroke:#181818;stroke-width:0.5;" width="211" x="35.5" y="462.2969"/><text fill="#000000" font-family="sans-serif" font-size="12" lengthAdjust="spacing" textLength="191" x="45.5" y="483.4355">Create instancesDuringExample</text><rect fill="#F1F1F1" height="33.9688" rx="12.5" ry="12.5" style="stroke:#181818;stroke-width:0.5;" width="108" x="87" y="516.2656"/><text fill="#000000" font-family="sans-serif" font-size="12" lengthAdjust="spacing" textLength="88" x="97" y="537.4043">Create onlySig</text><rect fill="#F1F1F1" height="33.9688" rx="12.5" ry="12.5" style="stroke:#181818;stroke-width:0.5;" width="180" x="51" y="570.2344"/><text fill="#000000" font-family="sans-serif" font-size="12" lengthAdjust="spacing" textLength="160" x="61" y="591.373">Return Added Expressions</text><ellipse cx="141" cy="635.2031" fill="none" rx="11" ry="11" style="stroke:#222222;stroke-width:1.0;"/><ellipse cx="141" cy="635.2031" fill="#222222" rx="6" ry="6" style="stroke:#222222;stroke-width:1.0;"/><line style="stroke:#181818;stroke-width:1.0;" x1="141" x2="141" y1="30" y2="50"/><polygon fill="#181818" points="137,40,141,50,145,40,141,44" style="stroke:#181818;stroke-width:1.0;"/><line style="stroke:#181818;stroke-width:1.0;" x1="141" x2="141" y1="83.9688" y2="103.9688"/><polygon fill="#181818" points="137,93.9688,141,103.9688,145,93.9688,141,97.9688" style="stroke:#181818;stroke-width:1.0;"/><line style="stroke:#181818;stroke-width:1.0;" x1="141" x2="141" y1="137.9375" y2="157.9375"/><polygon fill="#181818" points="137,147.9375,141,157.9375,145,147.9375,141,151.9375" style="stroke:#181818;stroke-width:1.0;"/><line style="stroke:#181818;stroke-width:1.0;" x1="141" x2="141" y1="191.9063" y2="211.9063"/><polygon fill="#181818" points="137,201.9063,141,211.9063,145,201.9063,141,205.9063" style="stroke:#181818;stroke-width:1.0;"/><line style="stroke:#181818;stroke-width:1.0;" x1="141" x2="141" y1="357.8125" y2="386.3281"/><polygon fill="#181818" points="137,376.3281,141,386.3281,145,376.3281,141,380.3281" style="stroke:#181818;stroke-width:1.0;"/><line style="stroke:#181818;stroke-width:1.0;" x1="141" x2="141" y1="289.875" y2="309.875"/><polygon fill="#181818" points="137,299.875,141,309.875,145,299.875,141,303.875" style="stroke:#181818;stroke-width:1.0;"/><line style="stroke:#181818;stroke-width:1.0;" x1="141" x2="141" y1="420.2969" y2="430.2969"/><line style="stroke:#181818;stroke-width:1.0;" x1="141" x2="258" y1="430.2969" y2="430.2969"/><polygon fill="#181818" points="254,366.3281,258,356.3281,262,366.3281,258,362.3281" style="stroke:#181818;stroke-width:1.0;"/><line style="stroke:#181818;stroke-width:1.0;" x1="258" x2="258" y1="277.875" y2="430.2969"/><line style="stroke:#181818;stroke-width:1.0;" x1="258" x2="212" y1="277.875" y2="277.875"/><polygon fill="#181818" points="222,273.875,212,277.875,222,281.875,218,277.875" style="stroke:#181818;stroke-width:1.0;"/><line style="stroke:#181818;stroke-width:1.0;" x1="70" x2="24" y1="277.875" y2="277.875"/><polygon fill="#181818" points="20,352.3281,24,362.3281,28,352.3281,24,356.3281" style="stroke:#181818;stroke-width:1.0;"/><line style="stroke:#181818;stroke-width:1.0;" x1="24" x2="24" y1="277.875" y2="442.2969"/><line style="stroke:#181818;stroke-width:1.0;" x1="24" x2="141" y1="442.2969" y2="442.2969"/><line style="stroke:#181818;stroke-width:1.0;" x1="141" x2="141" y1="442.2969" y2="462.2969"/><polygon fill="#181818" points="137,452.2969,141,462.2969,145,452.2969,141,456.2969" style="stroke:#181818;stroke-width:1.0;"/><line style="stroke:#181818;stroke-width:1.0;" x1="141" x2="141" y1="245.875" y2="265.875"/><polygon fill="#181818" points="137,255.875,141,265.875,145,255.875,141,259.875" style="stroke:#181818;stroke-width:1.0;"/><line style="stroke:#181818;stroke-width:1.0;" x1="141" x2="141" y1="496.2656" y2="516.2656"/><polygon fill="#181818" points="137,506.2656,141,516.2656,145,506.2656,141,510.2656" style="stroke:#181818;stroke-width:1.0;"/><line style="stroke:#181818;stroke-width:1.0;" x1="141" x2="141" y1="550.2344" y2="570.2344"/><polygon fill="#181818" points="137,560.2344,141,570.2344,145,560.2344,141,564.2344" style="stroke:#181818;stroke-width:1.0;"/><line style="stroke:#181818;stroke-width:1.0;" x1="141" x2="141" y1="604.2031" y2="624.2031"/><polygon fill="#181818" points="137,614.2031,141,624.2031,145,614.2031,141,618.2031" style="stroke:#181818;stroke-width:1.0;"/><!--SRC=[PO_H2e9W38NlVOfTrYlebLX640ZLLNS_ENDW-sMRc3rzlnOgT3KuPzjtZfeJY-9Cq1a2UxwX-5qdpiXpmSsGpAPshQ3gLHnhXQ9_ph5O9COUKX4td4WjYVgQ6jpaNa3fZU0hg0YRKc6qjr5yG8D09Nx0_kMURODXJaz338XwiXgoJWJP81yl0oajo_MI-JKGkPoOSo1YDSTtr2_cHra2-z3rGeyWdD4wOGZlSGq8VTLy-m40]--></g></svg>