<?xml version="1.0" encoding="us-ascii" standalone="no"?><svg xmlns="http://www.w3.org/2000/svg" xmlns:xlink="http://www.w3.org/1999/xlink" contentStyleType="text/css" height="541px" preserveAspectRatio="none" style="width:332px;height:541px;background:#FFFFFF;" version="1.1" viewBox="0 0 332 541" width="332px" zoomAndPan="magnify"><defs/><g><ellipse cx="165" cy="20" fill="#222222" rx="10" ry="10" style="stroke:#222222;stroke-width:1.0;"/><rect fill="#F1F1F1" height="33.9688" rx="12.5" ry="12.5" style="stroke:#181818;stroke-width:0.5;" width="108" x="111" y="50"/><text fill="#000000" font-family="sans-serif" font-size="12" lengthAdjust="spacing" textLength="88" x="121" y="71.1387">Create Osteps</text><rect fill="#F1F1F1" height="33.9688" rx="12.5" ry="12.5" style="stroke:#181818;stroke-width:0.5;" width="143" x="93.5" y="103.9688"/><text fill="#000000" font-family="sans-serif" font-size="12" lengthAdjust="spacing" textLength="123" x="103.5" y="125.1074">Create Expression e</text><rect fill="#F1F1F1" height="33.9688" rx="12.5" ry="12.5" style="stroke:#181818;stroke-width:0.5;" width="200" x="65" y="201.9375"/><text fill="#000000" font-family="sans-serif" font-size="12" lengthAdjust="spacing" textLength="180" x="75" y="223.0762">Join Current Field to Signature</text><rect fill="#F1F1F1" height="33.9688" rx="12.5" ry="12.5" style="stroke:#181818;stroke-width:0.5;" width="258" x="36" y="270.9063"/><text fill="#000000" font-family="sans-serif" font-size="12" lengthAdjust="spacing" textLength="238" x="46" y="292.0449">Add expression to e with Plus Operator</text><polygon fill="#F1F1F1" points="104,157.9375,226,157.9375,238,169.9375,226,181.9375,104,181.9375,92,169.9375,104,157.9375" style="stroke:#181818;stroke-width:0.5;"/><text fill="#000000" font-family="sans-serif" font-size="11" lengthAdjust="spacing" textLength="122" x="104" y="173.7456">For Size of Fields List</text><rect fill="#F1F1F1" height="33.9688" rx="12.5" ry="12.5" style="stroke:#181818;stroke-width:0.5;" width="166" x="82" y="346.875"/><text fill="#000000" font-family="sans-serif" font-size="12" lengthAdjust="spacing" textLength="146" x="92" y="368.0137">Join Osteps to signature</text><rect fill="#F1F1F1" height="33.9688" rx="12.5" ry="12.5" style="stroke:#181818;stroke-width:0.5;" width="208" x="61" y="400.8438"/><text fill="#000000" font-family="sans-serif" font-size="12" lengthAdjust="spacing" textLength="188" x="71" y="421.9824">Create oSteps in Expression e;</text><rect fill="#F1F1F1" height="33.9688" rx="12.5" ry="12.5" style="stroke:#181818;stroke-width:0.5;" width="142" x="94" y="454.8125"/><text fill="#000000" font-family="sans-serif" font-size="12" lengthAdjust="spacing" textLength="122" x="104" y="475.9512">Return expression e</text><ellipse cx="165" cy="519.7813" fill="none" rx="11" ry="11" style="stroke:#222222;stroke-width:1.0;"/><ellipse cx="165" cy="519.7813" fill="#222222" rx="6" ry="6" style="stroke:#222222;stroke-width:1.0;"/><line style="stroke:#181818;stroke-width:1.0;" x1="165" x2="165" y1="30" y2="50"/><polygon fill="#181818" points="161,40,165,50,169,40,165,44" style="stroke:#181818;stroke-width:1.0;"/><line style="stroke:#181818;stroke-width:1.0;" x1="165" x2="165" y1="83.9688" y2="103.9688"/><polygon fill="#181818" points="161,93.9688,165,103.9688,169,93.9688,165,97.9688" style="stroke:#181818;stroke-width:1.0;"/><line style="stroke:#181818;stroke-width:1.0;" x1="165" x2="165" y1="235.9063" y2="270.9063"/><polygon fill="#181818" points="161,260.9063,165,270.9063,169,260.9063,165,264.9063" style="stroke:#181818;stroke-width:1.0;"/><line style="stroke:#181818;stroke-width:1.0;" x1="165" x2="165" y1="181.9375" y2="201.9375"/><polygon fill="#181818" points="161,191.9375,165,201.9375,169,191.9375,165,195.9375" style="stroke:#181818;stroke-width:1.0;"/><line style="stroke:#181818;stroke-width:1.0;" x1="165" x2="165" y1="304.875" y2="314.875"/><line style="stroke:#181818;stroke-width:1.0;" x1="165" x2="306" y1="314.875" y2="314.875"/><polygon fill="#181818" points="302,251.4063,306,241.4063,310,251.4063,306,247.4063" style="stroke:#181818;stroke-width:1.0;"/><line style="stroke:#181818;stroke-width:1.0;" x1="306" x2="306" y1="169.9375" y2="314.875"/><line style="stroke:#181818;stroke-width:1.0;" x1="306" x2="238" y1="169.9375" y2="169.9375"/><polygon fill="#181818" points="248,165.9375,238,169.9375,248,173.9375,244,169.9375" style="stroke:#181818;stroke-width:1.0;"/><line style="stroke:#181818;stroke-width:1.0;" x1="92" x2="24" y1="169.9375" y2="169.9375"/><polygon fill="#181818" points="20,237.4063,24,247.4063,28,237.4063,24,241.4063" style="stroke:#181818;stroke-width:1.0;"/><line style="stroke:#181818;stroke-width:1.0;" x1="24" x2="24" y1="169.9375" y2="326.875"/><line style="stroke:#181818;stroke-width:1.0;" x1="24" x2="165" y1="326.875" y2="326.875"/><line style="stroke:#181818;stroke-width:1.0;" x1="165" x2="165" y1="326.875" y2="346.875"/><polygon fill="#181818" points="161,336.875,165,346.875,169,336.875,165,340.875" style="stroke:#181818;stroke-width:1.0;"/><line style="stroke:#181818;stroke-width:1.0;" x1="165" x2="165" y1="137.9375" y2="157.9375"/><polygon fill="#181818" points="161,147.9375,165,157.9375,169,147.9375,165,151.9375" style="stroke:#181818;stroke-width:1.0;"/><line style="stroke:#181818;stroke-width:1.0;" x1="165" x2="165" y1="380.8438" y2="400.8438"/><polygon fill="#181818" points="161,390.8438,165,400.8438,169,390.8438,165,394.8438" style="stroke:#181818;stroke-width:1.0;"/><line style="stroke:#181818;stroke-width:1.0;" x1="165" x2="165" y1="434.8125" y2="454.8125"/><polygon fill="#181818" points="161,444.8125,165,454.8125,169,444.8125,165,448.8125" style="stroke:#181818;stroke-width:1.0;"/><line style="stroke:#181818;stroke-width:1.0;" x1="165" x2="165" y1="488.7813" y2="508.7813"/><polygon fill="#181818" points="161,498.7813,165,508.7813,169,498.7813,165,502.7813" style="stroke:#181818;stroke-width:1.0;"/><!--SRC=[LOvD2i9038NtSueizGhjIefTY52n9nYOQ0DbCYGf5KzlR8i_o_2-VE-fHR5GDOBH43erB5f_xkEZ2AeIPy0wp0EDk6jPeASd0j-W9HoJmfdKzg4wCMLe9X7CjaPWxEmzHvl41TKX9S2lqrE4cMo0opWfT0Kb6aiTCAUbR7Ekizwu_iYsZTmleMD_QnsuefFvjz3VrBYy0000]--></g></svg>