<?xml version="1.0" encoding="us-ascii" standalone="no"?><svg xmlns="http://www.w3.org/2000/svg" xmlns:xlink="http://www.w3.org/1999/xlink" contentStyleType="text/css" height="406px" preserveAspectRatio="none" style="width:202px;height:406px;background:#FFFFFF;" version="1.1" viewBox="0 0 202 406" width="202px" zoomAndPan="magnify"><defs/><g><ellipse cx="101" cy="20" fill="#222222" rx="10" ry="10" style="stroke:#222222;stroke-width:1.0;"/><rect fill="#F1F1F1" height="33.9688" rx="12.5" ry="12.5" style="stroke:#181818;stroke-width:0.5;" width="135" x="33.5" y="50"/><text fill="#000000" font-family="sans-serif" font-size="12" lengthAdjust="spacing" textLength="115" x="43.5" y="71.1387">Get Inputs Function</text><rect fill="#F1F1F1" height="33.9688" rx="12.5" ry="12.5" style="stroke:#181818;stroke-width:0.5;" width="146" x="28" y="103.9688"/><text fill="#000000" font-family="sans-serif" font-size="12" lengthAdjust="spacing" textLength="126" x="38" y="125.1074">Get Outputs Function</text><rect fill="#F1F1F1" height="33.9688" rx="12.5" ry="12.5" style="stroke:#181818;stroke-width:0.5;" width="169" x="16.5" y="157.9375"/><text fill="#000000" font-family="sans-serif" font-size="12" lengthAdjust="spacing" textLength="149" x="26.5" y="179.0762">Call supressIOExpr body</text><rect fill="#F1F1F1" height="33.9688" rx="12.5" ry="12.5" style="stroke:#181818;stroke-width:0.5;" width="180" x="11" y="211.9063"/><text fill="#000000" font-family="sans-serif" font-size="12" lengthAdjust="spacing" textLength="160" x="21" y="233.0449">Create supressIO Function</text><rect fill="#F1F1F1" height="33.9688" rx="12.5" ry="12.5" style="stroke:#181818;stroke-width:0.5;" width="178" x="12" y="265.875"/><text fill="#000000" font-family="sans-serif" font-size="12" lengthAdjust="spacing" textLength="158" x="22" y="287.0137">Call supressIO Expression</text><rect fill="#F1F1F1" height="33.9688" rx="12.5" ry="12.5" style="stroke:#181818;stroke-width:0.5;" width="151" x="25.5" y="319.8438"/><text fill="#000000" font-family="sans-serif" font-size="12" lengthAdjust="spacing" textLength="131" x="35.5" y="340.9824">Return supressIOExpr</text><ellipse cx="101" cy="384.8125" fill="none" rx="11" ry="11" style="stroke:#222222;stroke-width:1.0;"/><ellipse cx="101" cy="384.8125" fill="#222222" rx="6" ry="6" style="stroke:#222222;stroke-width:1.0;"/><line style="stroke:#181818;stroke-width:1.0;" x1="101" x2="101" y1="30" y2="50"/><polygon fill="#181818" points="97,40,101,50,105,40,101,44" style="stroke:#181818;stroke-width:1.0;"/><line style="stroke:#181818;stroke-width:1.0;" x1="101" x2="101" y1="83.9688" y2="103.9688"/><polygon fill="#181818" points="97,93.9688,101,103.9688,105,93.9688,101,97.9688" style="stroke:#181818;stroke-width:1.0;"/><line style="stroke:#181818;stroke-width:1.0;" x1="101" x2="101" y1="137.9375" y2="157.9375"/><polygon fill="#181818" points="97,147.9375,101,157.9375,105,147.9375,101,151.9375" style="stroke:#181818;stroke-width:1.0;"/><line style="stroke:#181818;stroke-width:1.0;" x1="101" x2="101" y1="191.9063" y2="211.9063"/><polygon fill="#181818" points="97,201.9063,101,211.9063,105,201.9063,101,205.9063" style="stroke:#181818;stroke-width:1.0;"/><line style="stroke:#181818;stroke-width:1.0;" x1="101" x2="101" y1="245.875" y2="265.875"/><polygon fill="#181818" points="97,255.875,101,265.875,105,255.875,101,259.875" style="stroke:#181818;stroke-width:1.0;"/><line style="stroke:#181818;stroke-width:1.0;" x1="101" x2="101" y1="299.8438" y2="319.8438"/><polygon fill="#181818" points="97,309.8438,101,319.8438,105,309.8438,101,313.8438" style="stroke:#181818;stroke-width:1.0;"/><line style="stroke:#181818;stroke-width:1.0;" x1="101" x2="101" y1="353.8125" y2="373.8125"/><polygon fill="#181818" points="97,363.8125,101,373.8125,105,363.8125,101,367.8125" style="stroke:#181818;stroke-width:1.0;"/><!--SRC=[Aov9B2hXid9FBL7mp2ieBIbMS2lDIox9pC-pXeZwbvQW2pidvkGe59SM5AKM5tlwkrOK52aavQTKWcIAKXDBKX5ok7KfWBG1MH2veDIIqg8yL3EjkOfByWi0]--></g></svg>