<?xml version="1.0" encoding="us-ascii" standalone="no"?><svg xmlns="http://www.w3.org/2000/svg" xmlns:xlink="http://www.w3.org/1999/xlink" contentStyleType="text/css" height="212px" preserveAspectRatio="none" style="width:195px;height:212px;background:#FFFFFF;" version="1.1" viewBox="0 0 195 212" width="195px" zoomAndPan="magnify"><defs/><g><ellipse cx="93.5" cy="20" fill="#222222" rx="10" ry="10" style="stroke:#222222;stroke-width:1.0;"/><rect fill="#F1F1F1" height="33.9688" rx="12.5" ry="12.5" style="stroke:#181818;stroke-width:0.5;" width="102" x="42.5" y="71.3989"/><text fill="#000000" font-family="sans-serif" font-size="12" lengthAdjust="spacing" textLength="82" x="52.5" y="92.5376">Get Signature</text><rect fill="#F1F1F1" height="33.9688" rx="12.5" ry="12.5" style="stroke:#181818;stroke-width:0.5;" width="165" x="11" y="125.3677"/><text fill="#000000" font-family="sans-serif" font-size="12" lengthAdjust="spacing" textLength="145" x="21" y="146.5063">Add Fact for No Outputs</text><ellipse cx="93.5" cy="190.3364" fill="none" rx="11" ry="11" style="stroke:#222222;stroke-width:1.0;"/><ellipse cx="93.5" cy="190.3364" fill="#222222" rx="6" ry="6" style="stroke:#222222;stroke-width:1.0;"/><line style="stroke:#181818;stroke-width:1.0;" x1="93.5" x2="93.5" y1="30" y2="71.3989"/><polygon fill="#181818" points="89.5,61.3989,93.5,71.3989,97.5,61.3989,93.5,65.3989" style="stroke:#181818;stroke-width:1.0;"/><text fill="#000000" font-family="sans-serif" font-size="11" lengthAdjust="spacing" textLength="86" x="97.5" y="51.3047">sigName:String</text><line style="stroke:#181818;stroke-width:1.0;" x1="93.5" x2="93.5" y1="105.3677" y2="125.3677"/><polygon fill="#181818" points="89.5,115.3677,93.5,125.3677,97.5,115.3677,93.5,119.3677" style="stroke:#181818;stroke-width:1.0;"/><line style="stroke:#181818;stroke-width:1.0;" x1="93.5" x2="93.5" y1="159.3364" y2="179.3364"/><polygon fill="#181818" points="89.5,169.3364,93.5,179.3364,97.5,169.3364,93.5,173.3364" style="stroke:#181818;stroke-width:1.0;"/><!--SRC=[Aov9B2hXqhKhpaptIynDjGekAShCIxVcid9FBL48papFIomfBKe5yXrJKXJS4fDB5DBoYnJyyXNyIqiAIakAhRcAI_8B0000]--></g></svg>