<?xml version="1.0" encoding="us-ascii" standalone="no"?><svg xmlns="http://www.w3.org/2000/svg" xmlns:xlink="http://www.w3.org/1999/xlink" contentStyleType="text/css" height="254px" preserveAspectRatio="none" style="width:377px;height:254px;background:#FFFFFF;" version="1.1" viewBox="0 0 377 254" width="377px" zoomAndPan="magnify"><defs/><g><ellipse cx="232.75" cy="20" fill="#222222" rx="10" ry="10" style="stroke:#222222;stroke-width:1.0;"/><rect fill="#F1F1F1" height="33.9688" rx="12.5" ry="12.5" style="stroke:#181818;stroke-width:0.5;" width="129" x="168.25" y="50"/><text fill="#000000" font-family="sans-serif" font-size="12" lengthAdjust="spacing" textLength="109" x="178.25" y="71.1387">Get Field from Sig</text><polygon fill="#F1F1F1" points="199.25,103.9688,266.25,103.9688,278.25,115.9688,266.25,127.9688,199.25,127.9688,187.25,115.9688,199.25,103.9688" style="stroke:#181818;stroke-width:0.5;"/><text fill="#000000" font-family="sans-serif" font-size="11" lengthAdjust="spacing" textLength="67" x="199.25" y="119.7769">field != null</text><text fill="#000000" font-family="sans-serif" font-size="11" lengthAdjust="spacing" textLength="21" x="166.25" y="113.3745">yes</text><text fill="#000000" font-family="sans-serif" font-size="11" lengthAdjust="spacing" textLength="14" x="278.25" y="113.3745">no</text><rect fill="#F1F1F1" height="33.9688" rx="12.5" ry="12.5" style="stroke:#181818;stroke-width:0.5;" width="256" x="11" y="137.9688"/><text fill="#000000" font-family="sans-serif" font-size="12" lengthAdjust="spacing" textLength="236" x="21" y="159.1074">Add Cardinality Greater Than Constraint</text><rect fill="#F1F1F1" height="33.9688" rx="12.5" ry="12.5" style="stroke:#181818;stroke-width:0.5;" width="79" x="287" y="137.9688"/><text fill="#000000" font-family="sans-serif" font-size="12" lengthAdjust="spacing" textLength="59" x="297" y="159.1074">Print Error</text><polygon fill="#F1F1F1" points="232.75,177.9375,244.75,189.9375,232.75,201.9375,220.75,189.9375,232.75,177.9375" style="stroke:#181818;stroke-width:0.5;"/><ellipse cx="232.75" cy="232.9375" fill="none" rx="11" ry="11" style="stroke:#222222;stroke-width:1.0;"/><ellipse cx="232.75" cy="232.9375" fill="#222222" rx="6" ry="6" style="stroke:#222222;stroke-width:1.0;"/><line style="stroke:#181818;stroke-width:1.0;" x1="232.75" x2="232.75" y1="30" y2="50"/><polygon fill="#181818" points="228.75,40,232.75,50,236.75,40,232.75,44" style="stroke:#181818;stroke-width:1.0;"/><line style="stroke:#181818;stroke-width:1.0;" x1="187.25" x2="139" y1="115.9688" y2="115.9688"/><line style="stroke:#181818;stroke-width:1.0;" x1="139" x2="139" y1="115.9688" y2="137.9688"/><polygon fill="#181818" points="135,127.9688,139,137.9688,143,127.9688,139,131.9688" style="stroke:#181818;stroke-width:1.0;"/><line style="stroke:#181818;stroke-width:1.0;" x1="278.25" x2="326.5" y1="115.9688" y2="115.9688"/><line style="stroke:#181818;stroke-width:1.0;" x1="326.5" x2="326.5" y1="115.9688" y2="137.9688"/><polygon fill="#181818" points="322.5,127.9688,326.5,137.9688,330.5,127.9688,326.5,131.9688" style="stroke:#181818;stroke-width:1.0;"/><line style="stroke:#181818;stroke-width:1.0;" x1="139" x2="139" y1="171.9375" y2="189.9375"/><line style="stroke:#181818;stroke-width:1.0;" x1="139" x2="220.75" y1="189.9375" y2="189.9375"/><polygon fill="#181818" points="210.75,185.9375,220.75,189.9375,210.75,193.9375,214.75,189.9375" style="stroke:#181818;stroke-width:1.0;"/><line style="stroke:#181818;stroke-width:1.0;" x1="326.5" x2="326.5" y1="171.9375" y2="189.9375"/><line style="stroke:#181818;stroke-width:1.0;" x1="326.5" x2="244.75" y1="189.9375" y2="189.9375"/><polygon fill="#181818" points="254.75,185.9375,244.75,189.9375,254.75,193.9375,250.75,189.9375" style="stroke:#181818;stroke-width:1.0;"/><line style="stroke:#181818;stroke-width:1.0;" x1="232.75" x2="232.75" y1="83.9688" y2="103.9688"/><polygon fill="#181818" points="228.75,93.9688,232.75,103.9688,236.75,93.9688,232.75,97.9688" style="stroke:#181818;stroke-width:1.0;"/><line style="stroke:#181818;stroke-width:1.0;" x1="232.75" x2="232.75" y1="201.9375" y2="221.9375"/><polygon fill="#181818" points="228.75,211.9375,232.75,221.9375,236.75,211.9375,232.75,215.9375" style="stroke:#181818;stroke-width:1.0;"/><!--SRC=[7Sin3i8m30NGtQVuREaLMZ6W2heYmGKinQ6MWeCSC_JsHAnFUZtOW-PD0ZULcb6ylV7Grq9QaChVJcVOjzO9iOiX7T8dcYyvOsNFQbmr3cmk7E9uxcnOc_LmLek5f7P9raQv-m1StPiFjgo5UhJF3m00]--></g></svg>