<?xml version="1.0" encoding="us-ascii" standalone="no"?><svg xmlns="http://www.w3.org/2000/svg" xmlns:xlink="http://www.w3.org/1999/xlink" contentStyleType="text/css" height="438px" preserveAspectRatio="none" style="width:567px;height:438px;background:#FFFFFF;" version="1.1" viewBox="0 0 567 438" width="567px" zoomAndPan="magnify"><defs/><g><ellipse cx="239.75" cy="20" fill="#222222" rx="10" ry="10" style="stroke:#222222;stroke-width:1.0;"/><polygon fill="#F1F1F1" points="193.75,50,285.75,50,297.75,62,285.75,74,193.75,74,181.75,62,193.75,50" style="stroke:#181818;stroke-width:0.5;"/><text fill="#000000" font-family="sans-serif" font-size="11" lengthAdjust="spacing" textLength="92" x="193.75" y="65.8081">Signature Exists</text><text fill="#000000" font-family="sans-serif" font-size="11" lengthAdjust="spacing" textLength="21" x="160.75" y="59.4058">yes</text><text fill="#000000" font-family="sans-serif" font-size="11" lengthAdjust="spacing" textLength="14" x="297.75" y="59.4058">no</text><rect fill="#F1F1F1" height="33.9688" rx="12.5" ry="12.5" style="stroke:#181818;stroke-width:0.5;" width="175" x="11" y="84"/><text fill="#000000" font-family="sans-serif" font-size="12" lengthAdjust="spacing" textLength="155" x="21" y="105.1387">Return Signature from List</text><ellipse cx="98.5" cy="148.9688" fill="none" rx="11" ry="11" style="stroke:#222222;stroke-width:1.0;"/><ellipse cx="98.5" cy="148.9688" fill="#222222" rx="6" ry="6" style="stroke:#222222;stroke-width:1.0;"/><rect fill="#F1F1F1" height="33.9688" rx="12.5" ry="12.5" style="stroke:#181818;stroke-width:0.5;" width="121" x="320.5" y="84"/><text fill="#000000" font-family="sans-serif" font-size="12" lengthAdjust="spacing" textLength="101" x="330.5" y="105.1387">Create Signature</text><polygon fill="#F1F1F1" points="308,137.9688,454,137.9688,466,149.9688,454,161.9688,308,161.9688,296,149.9688,308,137.9688" style="stroke:#181818;stroke-width:0.5;"/><text fill="#000000" font-family="sans-serif" font-size="11" lengthAdjust="spacing" textLength="146" x="308" y="153.7769">Parent Sig Does Not Exist</text><text fill="#000000" font-family="sans-serif" font-size="11" lengthAdjust="spacing" textLength="21" x="275" y="147.3745">yes</text><text fill="#000000" font-family="sans-serif" font-size="11" lengthAdjust="spacing" textLength="14" x="466" y="147.3745">no</text><rect fill="#F1F1F1" height="47.9375" rx="12.5" ry="12.5" style="stroke:#181818;stroke-width:0.5;" width="140" x="216" y="171.9688"/><text fill="#000000" font-family="sans-serif" font-size="12" lengthAdjust="spacing" textLength="81" x="226" y="193.1074">Create Sig as</text><text fill="#000000" font-family="sans-serif" font-size="12" lengthAdjust="spacing" textLength="120" x="226" y="207.0762">Child of Occurrence</text><rect fill="#F1F1F1" height="33.9688" rx="12.5" ry="12.5" style="stroke:#181818;stroke-width:0.5;" width="161" x="395.5" y="171.9688"/><text fill="#000000" font-family="sans-serif" font-size="12" lengthAdjust="spacing" textLength="141" x="405.5" y="193.1074">Get Parent Sig from List</text><rect fill="#F1F1F1" height="47.9375" rx="12.5" ry="12.5" style="stroke:#181818;stroke-width:0.5;" width="106" x="423" y="239.9063"/><text fill="#000000" font-family="sans-serif" font-size="12" lengthAdjust="spacing" textLength="81" x="433" y="261.0449">Create Sig as</text><text fill="#000000" font-family="sans-serif" font-size="12" lengthAdjust="spacing" textLength="86" x="433" y="275.0137">Child of Parent</text><polygon fill="#F1F1F1" points="381,293.8438,393,305.8438,381,317.8438,369,305.8438,381,293.8438" style="stroke:#181818;stroke-width:0.5;"/><rect fill="#F1F1F1" height="47.9375" rx="12.5" ry="12.5" style="stroke:#181818;stroke-width:0.5;" width="145" x="308.5" y="337.8438"/><text fill="#000000" font-family="sans-serif" font-size="12" lengthAdjust="spacing" textLength="125" x="318.5" y="358.9824">Add Signature to List</text><text fill="#000000" font-family="sans-serif" font-size="12" lengthAdjust="spacing" textLength="103" x="318.5" y="372.9512">:Return Signature</text><ellipse cx="381" cy="416.7813" fill="none" rx="11" ry="11" style="stroke:#222222;stroke-width:1.0;"/><ellipse cx="381" cy="416.7813" fill="#222222" rx="6" ry="6" style="stroke:#222222;stroke-width:1.0;"/><line style="stroke:#181818;stroke-width:1.0;" x1="98.5" x2="98.5" y1="117.9688" y2="137.9688"/><polygon fill="#181818" points="94.5,127.9688,98.5,137.9688,102.5,127.9688,98.5,131.9688" style="stroke:#181818;stroke-width:1.0;"/><line style="stroke:#181818;stroke-width:1.0;" x1="476" x2="476" y1="205.9375" y2="239.9063"/><polygon fill="#181818" points="472,229.9063,476,239.9063,480,229.9063,476,233.9063" style="stroke:#181818;stroke-width:1.0;"/><line style="stroke:#181818;stroke-width:1.0;" x1="296" x2="286" y1="149.9688" y2="149.9688"/><line style="stroke:#181818;stroke-width:1.0;" x1="286" x2="286" y1="149.9688" y2="171.9688"/><polygon fill="#181818" points="282,161.9688,286,171.9688,290,161.9688,286,165.9688" style="stroke:#181818;stroke-width:1.0;"/><line style="stroke:#181818;stroke-width:1.0;" x1="466" x2="476" y1="149.9688" y2="149.9688"/><line style="stroke:#181818;stroke-width:1.0;" x1="476" x2="476" y1="149.9688" y2="171.9688"/><polygon fill="#181818" points="472,161.9688,476,171.9688,480,161.9688,476,165.9688" style="stroke:#181818;stroke-width:1.0;"/><line style="stroke:#181818;stroke-width:1.0;" x1="286" x2="286" y1="219.9063" y2="305.8438"/><line style="stroke:#181818;stroke-width:1.0;" x1="286" x2="369" y1="305.8438" y2="305.8438"/><polygon fill="#181818" points="359,301.8438,369,305.8438,359,309.8438,363,305.8438" style="stroke:#181818;stroke-width:1.0;"/><line style="stroke:#181818;stroke-width:1.0;" x1="476" x2="476" y1="287.8438" y2="305.8438"/><line style="stroke:#181818;stroke-width:1.0;" x1="476" x2="393" y1="305.8438" y2="305.8438"/><polygon fill="#181818" points="403,301.8438,393,305.8438,403,309.8438,399,305.8438" style="stroke:#181818;stroke-width:1.0;"/><line style="stroke:#181818;stroke-width:1.0;" x1="381" x2="381" y1="117.9688" y2="137.9688"/><polygon fill="#181818" points="377,127.9688,381,137.9688,385,127.9688,381,131.9688" style="stroke:#181818;stroke-width:1.0;"/><line style="stroke:#181818;stroke-width:1.0;" x1="381" x2="381" y1="317.8438" y2="337.8438"/><polygon fill="#181818" points="377,327.8438,381,337.8438,385,327.8438,381,331.8438" style="stroke:#181818;stroke-width:1.0;"/><line style="stroke:#181818;stroke-width:1.0;" x1="381" x2="381" y1="385.7813" y2="405.7813"/><polygon fill="#181818" points="377,395.7813,381,405.7813,385,395.7813,381,399.7813" style="stroke:#181818;stroke-width:1.0;"/><line style="stroke:#181818;stroke-width:1.0;" x1="181.75" x2="98.5" y1="62" y2="62"/><line style="stroke:#181818;stroke-width:1.0;" x1="98.5" x2="98.5" y1="62" y2="84"/><polygon fill="#181818" points="94.5,74,98.5,84,102.5,74,98.5,78" style="stroke:#181818;stroke-width:1.0;"/><line style="stroke:#181818;stroke-width:1.0;" x1="297.75" x2="381" y1="62" y2="62"/><line style="stroke:#181818;stroke-width:1.0;" x1="381" x2="381" y1="62" y2="84"/><polygon fill="#181818" points="377,74,381,84,385,74,381,78" style="stroke:#181818;stroke-width:1.0;"/><line style="stroke:#181818;stroke-width:1.0;" x1="239.75" x2="239.75" y1="30" y2="50"/><polygon fill="#181818" points="235.75,40,239.75,50,243.75,40,239.75,44" style="stroke:#181818;stroke-width:1.0;"/><!--SRC=[TOyn3i8m34NtdC9ZUeLsGWMn843b157Yq4WbHh4hmUqnT4WHOhMVt_TdSKLCYlQIhjd9N11sZyJ23SY86UmJkJ7jWBhAKA5Ow0O71Jl3GdU34wFDf6XVq0bMj5CxsBChcEKzXIqXmv5a2VhEgSVW64m_fYa0HJXvFnSrUDNLg3qAhCIhd_wA5bmbEQHesaq8gr92d_FVkal95m00]--></g></svg>