<?xml version="1.0" encoding="us-ascii" standalone="no"?><svg xmlns="http://www.w3.org/2000/svg" xmlns:xlink="http://www.w3.org/1999/xlink" contentStyleType="text/css" height="1157px" preserveAspectRatio="none" style="width:451px;height:1157px;background:#FFFFFF;" version="1.1" viewBox="0 0 451 1157" width="451px" zoomAndPan="magnify"><defs/><g><ellipse cx="200.5" cy="20" fill="#222222" rx="10" ry="10" style="stroke:#222222;stroke-width:1.0;"/><rect fill="#F1F1F1" height="33.9688" rx="12.5" ry="12.5" style="stroke:#181818;stroke-width:0.5;" width="124" x="138.5" y="50"/><text fill="#000000" font-family="sans-serif" font-size="12" lengthAdjust="spacing" textLength="104" x="148.5" y="71.1387">Instantiate VizGUI</text><rect fill="#F1F1F1" height="33.9688" rx="12.5" ry="12.5" style="stroke:#181818;stroke-width:0.5;" width="215" x="93" y="103.9688"/><text fill="#000000" font-family="sans-serif" font-size="12" lengthAdjust="spacing" textLength="195" x="103" y="125.1074">Print Title Parsing+Typechecking</text><rect fill="#F1F1F1" height="33.9688" rx="12.5" ry="12.5" style="stroke:#181818;stroke-width:0.5;" width="144" x="128.5" y="157.9375"/><text fill="#000000" font-family="sans-serif" font-size="12" lengthAdjust="spacing" textLength="124" x="138.5" y="179.0762">Construct A4Options</text><rect fill="#F1F1F1" height="33.9688" rx="12.5" ry="12.5" style="stroke:#181818;stroke-width:0.5;" width="198" x="101.5" y="211.9063"/><text fill="#000000" font-family="sans-serif" font-size="12" lengthAdjust="spacing" textLength="178" x="111.5" y="233.0449">Set A4Option Solver to SAT4J</text><rect fill="#F1F1F1" height="33.9688" rx="12.5" ry="12.5" style="stroke:#181818;stroke-width:0.5;" width="150" x="125.5" y="265.875"/><text fill="#000000" font-family="sans-serif" font-size="12" lengthAdjust="spacing" textLength="130" x="135.5" y="287.0137">Construct A4Reporter</text><rect fill="#F1F1F1" height="33.9688" rx="12.5" ry="12.5" style="stroke:#181818;stroke-width:0.5;" width="159" x="121" y="319.8438"/><text fill="#000000" font-family="sans-serif" font-size="12" lengthAdjust="spacing" textLength="139" x="131" y="340.9824">Print Title for Command</text><rect fill="#F1F1F1" height="33.9688" rx="12.5" ry="12.5" style="stroke:#181818;stroke-width:0.5;" width="221" x="90" y="373.8125"/><text fill="#000000" font-family="sans-serif" font-size="12" lengthAdjust="spacing" textLength="201" x="100" y="394.9512">Execute Command for A4Solution</text><rect fill="#F1F1F1" height="33.9688" rx="12.5" ry="12.5" style="stroke:#181818;stroke-width:0.5;" width="180" x="110.5" y="471.7813"/><text fill="#000000" font-family="sans-serif" font-size="12" lengthAdjust="spacing" textLength="160" x="120.5" y="492.9199">Write XML from A4Solution</text><polygon fill="#F1F1F1" points="158.5,525.75,242.5,525.75,254.5,537.75,242.5,549.75,158.5,549.75,146.5,537.75,158.5,525.75" style="stroke:#181818;stroke-width:0.5;"/><text fill="#000000" font-family="sans-serif" font-size="11" lengthAdjust="spacing" textLength="84" x="158.5" y="541.5581">VizGUI == null</text><text fill="#000000" font-family="sans-serif" font-size="11" lengthAdjust="spacing" textLength="21" x="125.5" y="535.1558">yes</text><text fill="#000000" font-family="sans-serif" font-size="11" lengthAdjust="spacing" textLength="14" x="254.5" y="535.1558">no</text><rect fill="#F1F1F1" height="33.9688" rx="12.5" ry="12.5" style="stroke:#181818;stroke-width:0.5;" width="120" x="45" y="559.75"/><text fill="#000000" font-family="sans-serif" font-size="12" lengthAdjust="spacing" textLength="100" x="55" y="580.8887">Construct VizGUI</text><rect fill="#F1F1F1" height="33.9688" rx="12.5" ry="12.5" style="stroke:#181818;stroke-width:0.5;" width="202" x="195" y="608.1523"/><text fill="#000000" font-family="sans-serif" font-size="12" lengthAdjust="spacing" textLength="45" x="205" y="629.291">Change</text><text fill="#000000" font-family="sans-serif" font-size="12" font-style="italic" lengthAdjust="spacing" textLength="84" x="254" y="629.291">recentRefresh</text><text fill="#000000" font-family="sans-serif" font-size="12" lengthAdjust="spacing" textLength="45" x="342" y="629.291">to false</text><rect fill="#F1F1F1" height="33.9688" rx="12.5" ry="12.5" style="stroke:#181818;stroke-width:0.5;" width="152" x="220" y="677.1211"/><text fill="#000000" font-family="sans-serif" font-size="12" lengthAdjust="spacing" textLength="132" x="230" y="698.2598">Load XML from VizGUI</text><polygon fill="#F1F1F1" points="229,559.75,363,559.75,375,571.75,363,583.75,229,583.75,217,571.75,229,559.75" style="stroke:#181818;stroke-width:0.5;"/><text fill="#000000" font-family="sans-serif" font-size="11" lengthAdjust="spacing" textLength="14" x="300" y="593.9604">no</text><text fill="#000000" font-family="sans-serif" font-size="11" font-style="italic" lengthAdjust="spacing" textLength="80" x="229" y="575.5581">recentRefresh</text><text fill="#000000" font-family="sans-serif" font-size="11" lengthAdjust="spacing" textLength="50" x="313" y="575.5581">== false</text><text fill="#000000" font-family="sans-serif" font-size="11" lengthAdjust="spacing" textLength="21" x="375" y="569.1558">yes</text><polygon fill="#F1F1F1" points="296,731.0898,308,743.0898,296,755.0898,284,743.0898,296,731.0898" style="stroke:#181818;stroke-width:0.5;"/><polygon fill="#F1F1F1" points="200.5,761.0898,212.5,773.0898,200.5,785.0898,188.5,773.0898,200.5,761.0898" style="stroke:#181818;stroke-width:0.5;"/><rect fill="#F1F1F1" height="33.9688" rx="12.5" ry="12.5" style="stroke:#181818;stroke-width:0.5;" width="197" x="102" y="868.4922"/><text fill="#000000" font-family="sans-serif" font-size="12" lengthAdjust="spacing" textLength="45" x="112" y="889.6309">Change</text><text fill="#000000" font-family="sans-serif" font-size="12" font-style="italic" lengthAdjust="spacing" textLength="84" x="161" y="889.6309">recentRefresh</text><text fill="#000000" font-family="sans-serif" font-size="12" lengthAdjust="spacing" textLength="40" x="249" y="889.6309">to true</text><rect fill="#F1F1F1" height="33.9688" rx="12.5" ry="12.5" style="stroke:#181818;stroke-width:0.5;" width="230" x="85.5" y="922.4609"/><text fill="#000000" font-family="sans-serif" font-size="12" lengthAdjust="spacing" textLength="210" x="95.5" y="943.5996">Return the Next Satisfiable Solution</text><rect fill="#F1F1F1" height="33.9688" rx="12.5" ry="12.5" style="stroke:#181818;stroke-width:0.5;" width="120" x="140.5" y="991.4297"/><text fill="#000000" font-family="sans-serif" font-size="12" lengthAdjust="spacing" textLength="100" x="150.5" y="1012.5684">Update Updated</text><rect fill="#F1F1F1" height="33.9688" rx="12.5" ry="12.5" style="stroke:#181818;stroke-width:0.5;" width="72" x="164.5" y="1045.3984"/><text fill="#000000" font-family="sans-serif" font-size="12" lengthAdjust="spacing" textLength="52" x="174.5" y="1066.5371">Continue</text><polygon fill="#F1F1F1" points="153,820.0898,248,820.0898,260,832.0898,248,844.0898,153,844.0898,141,832.0898,153,820.0898" style="stroke:#181818;stroke-width:0.5;"/><text fill="#000000" font-family="sans-serif" font-size="11" lengthAdjust="spacing" textLength="21" x="204.5" y="854.3003">yes</text><text fill="#000000" font-family="sans-serif" font-size="11" font-style="italic" lengthAdjust="spacing" textLength="46" x="153" y="835.8979">updated</text><text fill="#000000" font-family="sans-serif" font-size="11" lengthAdjust="spacing" textLength="45" x="203" y="835.8979">== true</text><polygon fill="#F1F1F1" points="200.5,1099.3672,212.5,1111.3672,200.5,1123.3672,188.5,1111.3672,200.5,1099.3672" style="stroke:#181818;stroke-width:0.5;"/><polygon fill="#F1F1F1" points="131.5,427.7813,269.5,427.7813,281.5,439.7813,269.5,451.7813,131.5,451.7813,119.5,439.7813,131.5,427.7813" style="stroke:#181818;stroke-width:0.5;"/><text fill="#000000" font-family="sans-serif" font-size="11" lengthAdjust="spacing" textLength="138" x="131.5" y="443.5894">A4Solution is Satisfiable</text><ellipse cx="24" cy="482.7813" fill="none" rx="11" ry="11" style="stroke:#222222;stroke-width:1.0;"/><ellipse cx="24" cy="482.7813" fill="#222222" rx="6" ry="6" style="stroke:#222222;stroke-width:1.0;"/><line style="stroke:#181818;stroke-width:1.0;" x1="200.5" x2="200.5" y1="30" y2="50"/><polygon fill="#181818" points="196.5,40,200.5,50,204.5,40,200.5,44" style="stroke:#181818;stroke-width:1.0;"/><line style="stroke:#181818;stroke-width:1.0;" x1="200.5" x2="200.5" y1="83.9688" y2="103.9688"/><polygon fill="#181818" points="196.5,93.9688,200.5,103.9688,204.5,93.9688,200.5,97.9688" style="stroke:#181818;stroke-width:1.0;"/><line style="stroke:#181818;stroke-width:1.0;" x1="200.5" x2="200.5" y1="137.9375" y2="157.9375"/><polygon fill="#181818" points="196.5,147.9375,200.5,157.9375,204.5,147.9375,200.5,151.9375" style="stroke:#181818;stroke-width:1.0;"/><line style="stroke:#181818;stroke-width:1.0;" x1="200.5" x2="200.5" y1="191.9063" y2="211.9063"/><polygon fill="#181818" points="196.5,201.9063,200.5,211.9063,204.5,201.9063,200.5,205.9063" style="stroke:#181818;stroke-width:1.0;"/><line style="stroke:#181818;stroke-width:1.0;" x1="200.5" x2="200.5" y1="245.875" y2="265.875"/><polygon fill="#181818" points="196.5,255.875,200.5,265.875,204.5,255.875,200.5,259.875" style="stroke:#181818;stroke-width:1.0;"/><line style="stroke:#181818;stroke-width:1.0;" x1="200.5" x2="200.5" y1="299.8438" y2="319.8438"/><polygon fill="#181818" points="196.5,309.8438,200.5,319.8438,204.5,309.8438,200.5,313.8438" style="stroke:#181818;stroke-width:1.0;"/><line style="stroke:#181818;stroke-width:1.0;" x1="200.5" x2="200.5" y1="353.8125" y2="373.8125"/><polygon fill="#181818" points="196.5,363.8125,200.5,373.8125,204.5,363.8125,200.5,367.8125" style="stroke:#181818;stroke-width:1.0;"/><line style="stroke:#181818;stroke-width:1.0;" x1="296" x2="296" y1="642.1211" y2="677.1211"/><polygon fill="#181818" points="292,667.1211,296,677.1211,300,667.1211,296,671.1211" style="stroke:#181818;stroke-width:1.0;"/><line style="stroke:#181818;stroke-width:1.0;" x1="296" x2="296" y1="583.75" y2="608.1523"/><polygon fill="#181818" points="292,598.1523,296,608.1523,300,598.1523,296,602.1523" style="stroke:#181818;stroke-width:1.0;"/><line style="stroke:#181818;stroke-width:1.0;" x1="375" x2="407" y1="571.75" y2="571.75"/><polygon fill="#181818" points="403,649.6211,407,659.6211,411,649.6211,407,653.6211" style="stroke:#181818;stroke-width:1.0;"/><line style="stroke:#181818;stroke-width:1.0;" x1="407" x2="407" y1="571.75" y2="743.0898"/><line style="stroke:#181818;stroke-width:1.0;" x1="407" x2="308" y1="743.0898" y2="743.0898"/><polygon fill="#181818" points="318,739.0898,308,743.0898,318,747.0898,314,743.0898" style="stroke:#181818;stroke-width:1.0;"/><line style="stroke:#181818;stroke-width:1.0;" x1="296" x2="296" y1="711.0898" y2="731.0898"/><polygon fill="#181818" points="292,721.0898,296,731.0898,300,721.0898,296,725.0898" style="stroke:#181818;stroke-width:1.0;"/><line style="stroke:#181818;stroke-width:1.0;" x1="146.5" x2="105" y1="537.75" y2="537.75"/><line style="stroke:#181818;stroke-width:1.0;" x1="105" x2="105" y1="537.75" y2="559.75"/><polygon fill="#181818" points="101,549.75,105,559.75,109,549.75,105,553.75" style="stroke:#181818;stroke-width:1.0;"/><line style="stroke:#181818;stroke-width:1.0;" x1="254.5" x2="296" y1="537.75" y2="537.75"/><line style="stroke:#181818;stroke-width:1.0;" x1="296" x2="296" y1="537.75" y2="559.75"/><polygon fill="#181818" points="292,549.75,296,559.75,300,549.75,296,553.75" style="stroke:#181818;stroke-width:1.0;"/><line style="stroke:#181818;stroke-width:1.0;" x1="105" x2="105" y1="593.7188" y2="773.0898"/><line style="stroke:#181818;stroke-width:1.0;" x1="105" x2="188.5" y1="773.0898" y2="773.0898"/><polygon fill="#181818" points="178.5,769.0898,188.5,773.0898,178.5,777.0898,182.5,773.0898" style="stroke:#181818;stroke-width:1.0;"/><line style="stroke:#181818;stroke-width:1.0;" x1="296" x2="296" y1="755.0898" y2="773.0898"/><line style="stroke:#181818;stroke-width:1.0;" x1="296" x2="212.5" y1="773.0898" y2="773.0898"/><polygon fill="#181818" points="222.5,769.0898,212.5,773.0898,222.5,777.0898,218.5,773.0898" style="stroke:#181818;stroke-width:1.0;"/><line style="stroke:#181818;stroke-width:1.0;" x1="200.5" x2="200.5" y1="505.75" y2="525.75"/><polygon fill="#181818" points="196.5,515.75,200.5,525.75,204.5,515.75,200.5,519.75" style="stroke:#181818;stroke-width:1.0;"/><line style="stroke:#181818;stroke-width:1.0;" x1="200.5" x2="200.5" y1="902.4609" y2="922.4609"/><polygon fill="#181818" points="196.5,912.4609,200.5,922.4609,204.5,912.4609,200.5,916.4609" style="stroke:#181818;stroke-width:1.0;"/><line style="stroke:#181818;stroke-width:1.0;" x1="200.5" x2="200.5" y1="956.4297" y2="991.4297"/><polygon fill="#181818" points="196.5,981.4297,200.5,991.4297,204.5,981.4297,200.5,985.4297" style="stroke:#181818;stroke-width:1.0;"/><line style="stroke:#181818;stroke-width:1.0;" x1="200.5" x2="200.5" y1="1025.3984" y2="1045.3984"/><polygon fill="#181818" points="196.5,1035.3984,200.5,1045.3984,204.5,1035.3984,200.5,1039.3984" style="stroke:#181818;stroke-width:1.0;"/><line style="stroke:#181818;stroke-width:1.0;" x1="200.5" x2="200.5" y1="844.0898" y2="868.4922"/><polygon fill="#181818" points="196.5,858.4922,200.5,868.4922,204.5,858.4922,200.5,862.4922" style="stroke:#181818;stroke-width:1.0;"/><line style="stroke:#181818;stroke-width:1.0;" x1="260" x2="325.5" y1="832.0898" y2="832.0898"/><polygon fill="#181818" points="321.5,963.9297,325.5,973.9297,329.5,963.9297,325.5,967.9297" style="stroke:#181818;stroke-width:1.0;"/><line style="stroke:#181818;stroke-width:1.0;" x1="325.5" x2="325.5" y1="832.0898" y2="1111.3672"/><line style="stroke:#181818;stroke-width:1.0;" x1="325.5" x2="212.5" y1="1111.3672" y2="1111.3672"/><polygon fill="#181818" points="222.5,1107.3672,212.5,1111.3672,222.5,1115.3672,218.5,1111.3672" style="stroke:#181818;stroke-width:1.0;"/><line style="stroke:#181818;stroke-width:1.0;" x1="200.5" x2="200.5" y1="1079.3672" y2="1099.3672"/><polygon fill="#181818" points="196.5,1089.3672,200.5,1099.3672,204.5,1089.3672,200.5,1093.3672" style="stroke:#181818;stroke-width:1.0;"/><line style="stroke:#181818;stroke-width:1.0;" x1="200.5" x2="200.5" y1="785.0898" y2="820.0898"/><polygon fill="#181818" points="196.5,810.0898,200.5,820.0898,204.5,810.0898,200.5,814.0898" style="stroke:#181818;stroke-width:1.0;"/><line style="stroke:#181818;stroke-width:1.0;" x1="200.5" x2="200.5" y1="451.7813" y2="471.7813"/><polygon fill="#181818" points="196.5,461.7813,200.5,471.7813,204.5,461.7813,200.5,465.7813" style="stroke:#181818;stroke-width:1.0;"/><line style="stroke:#181818;stroke-width:1.0;" x1="200.5" x2="200.5" y1="1123.3672" y2="1133.3672"/><line style="stroke:#181818;stroke-width:1.0;" x1="200.5" x2="425" y1="1133.3672" y2="1133.3672"/><polygon fill="#181818" points="421,803.0742,425,793.0742,429,803.0742,425,799.0742" style="stroke:#181818;stroke-width:1.0;"/><line style="stroke:#181818;stroke-width:1.0;" x1="425" x2="425" y1="439.7813" y2="1133.3672"/><line style="stroke:#181818;stroke-width:1.0;" x1="425" x2="281.5" y1="439.7813" y2="439.7813"/><polygon fill="#181818" points="291.5,435.7813,281.5,439.7813,291.5,443.7813,287.5,439.7813" style="stroke:#181818;stroke-width:1.0;"/><line style="stroke:#181818;stroke-width:1.0;" x1="119.5" x2="24" y1="439.7813" y2="439.7813"/><line style="stroke:#181818;stroke-width:1.0;" x1="24" x2="24" y1="439.7813" y2="471.7813"/><polygon fill="#181818" points="20,461.7813,24,471.7813,28,461.7813,24,465.7813" style="stroke:#181818;stroke-width:1.0;"/><line style="stroke:#181818;stroke-width:1.0;" x1="200.5" x2="200.5" y1="407.7813" y2="427.7813"/><polygon fill="#181818" points="196.5,417.7813,200.5,427.7813,204.5,417.7813,200.5,421.7813" style="stroke:#181818;stroke-width:1.0;"/><!--SRC=[VP5DRy8m38Rl_HK-jjgX5qv5712Q9YQs8GhRhbdhK6iXgH9tW_twkIsZV4Yx9BBZn-yREx3o76Lp6rXP9iK8h_Jpi9cFespfoJAiYGt2Klb0TdktFjHOL5XyIY0bCoUWRmg6wUYbPf9GiZaECUJEVA47Tf1FrwF7AsY5jVEC_afEEmypjzifMyhB_HwBHfmTCzthT2IDcrPX77rNP30UCa01SiKKDAaFWqcKlNaI_lrf0TgxtGLC6kB-op2PW6sCIO0hj10VC2JdRly6WoPWR5qYQ9oc7Wkql4BjCLHfsZRHIYekkfoGR5OfkqMuvMH07IV_NJXL3cPFihOaVJmxvQOkPLzbhoaMyShuFqfjjGYja1jlMmgUSS_dGuDXGjcc4uB-AliDCjcsnSbKjuCeiAj_0G00]--></g></svg>